<?xml version="1.0" encoding="UTF-8" standalone="no"?>
<!DOCTYPE svg PUBLIC "-//W3C//DTD SVG 1.1//EN"
 "http://www.w3.org/Graphics/SVG/1.1/DTD/svg11.dtd">
<!-- Generated by graphviz version 3.0.0 (20220315.2325)
 -->
<!-- Title: advection_mod Pages: 1 -->
<svg width="710pt" height="673pt"
 viewBox="0.00 0.00 709.50 673.00" xmlns="http://www.w3.org/2000/svg" xmlns:xlink="http://www.w3.org/1999/xlink">
<g id="graph0" class="graph" transform="scale(1 1) rotate(0) translate(4 669)">
<title>advection_mod</title>
<polygon fill="white" stroke="transparent" points="-4,4 -4,-669 705.5,-669 705.5,4 -4,4"/>
<text text-anchor="middle" x="350.75" y="-37.8" font-family="Times,serif" font-size="14.00">Red boxes indicate modules with dependencies not shown</text>
<text text-anchor="middle" x="350.75" y="-22.8" font-family="Times,serif" font-size="14.00">Lower level dependencies can be shown by clicking on a red box</text>
<text text-anchor="middle" x="350.75" y="-7.8" font-family="Times,serif" font-size="14.00">Shaded boxes indicate modules with no dependencies</text>
<!-- advection_mod -->
<g id="node1" class="node">
<title>advection_mod</title>
<g id="a_node1"><a xlink:href="advection_mod.html" xlink:title="advection_mod">
<polygon fill="none" stroke="black" points="389,-665 290,-665 290,-629 389,-629 389,-665"/>
<text text-anchor="middle" x="339.5" y="-643.3" font-family="Times,serif" font-size="14.00">advection_mod</text>
</a>
</g>
</g>
<!-- earthconstants_mod -->
<g id="node2" class="node">
<title>earthconstants_mod</title>
<g id="a_node2"><a xlink:href="../modules/earthconstants_mod.svg" xlink:title="earthconstants_mod">
<polygon fill="none" stroke="red" points="125,-593 0,-593 0,-557 125,-557 125,-593"/>
<text text-anchor="middle" x="62.5" y="-571.3" font-family="Times,serif" font-size="14.00">earthconstants_mod</text>
</a>
</g>
</g>
<!-- advection_mod&#45;&gt;earthconstants_mod -->
<g id="edge1" class="edge">
<title>advection_mod&#45;&gt;earthconstants_mod</title>
<path fill="none" stroke="black" d="M289.98,-633.49C246.88,-622.6 183.86,-606.67 135.07,-594.34"/>
<polygon fill="black" stroke="black" points="135.76,-590.9 125.2,-591.85 134.04,-597.69 135.76,-590.9"/>
</g>
<!-- ensemblestatevector_mod -->
<g id="node3" class="node">
<title>ensemblestatevector_mod</title>
<g id="a_node3"><a xlink:href="../modules/ensemblestatevector_mod.svg" xlink:title="ensemblestatevector_mod">
<polygon fill="none" stroke="red" points="197.5,-521 41.5,-521 41.5,-485 197.5,-485 197.5,-521"/>
<text text-anchor="middle" x="119.5" y="-499.3" font-family="Times,serif" font-size="14.00">ensemblestatevector_mod</text>
</a>
</g>
</g>
<!-- advection_mod&#45;&gt;ensemblestatevector_mod -->
<g id="edge2" class="edge">
<title>advection_mod&#45;&gt;ensemblestatevector_mod</title>
<path fill="none" stroke="black" d="M289.94,-630.43C265.26,-621.47 235.63,-608.83 211.5,-593 184.07,-575 157.67,-548.15 140.25,-528.66"/>
<polygon fill="black" stroke="black" points="142.8,-526.26 133.57,-521.06 137.54,-530.88 142.8,-526.26"/>
</g>
<!-- gridstatevectorfileio_mod -->
<g id="node4" class="node">
<title>gridstatevectorfileio_mod</title>
<g id="a_node4"><a xlink:href="../modules/gridstatevectorfileio_mod.svg" xlink:title="gridstatevectorfileio_mod">
<polygon fill="none" stroke="red" points="235,-449 80,-449 80,-413 235,-413 235,-449"/>
<text text-anchor="middle" x="157.5" y="-427.3" font-family="Times,serif" font-size="14.00">gridstatevectorfileio_mod</text>
</a>
</g>
</g>
<!-- advection_mod&#45;&gt;gridstatevectorfileio_mod -->
<g id="edge3" class="edge">
<title>advection_mod&#45;&gt;gridstatevectorfileio_mod</title>
<path fill="none" stroke="black" d="M298.2,-628.96C281.26,-620.27 262.6,-608.28 249.5,-593 215.87,-553.78 234.06,-528.7 206.5,-485 200.15,-474.94 191.78,-465.05 183.75,-456.59"/>
<polygon fill="black" stroke="black" points="186.04,-453.93 176.54,-449.26 181.05,-458.84 186.04,-453.93"/>
</g>
<!-- gridstatevector_mod -->
<g id="node5" class="node">
<title>gridstatevector_mod</title>
<g id="a_node5"><a xlink:href="../modules/gridstatevector_mod.svg" xlink:title="gridstatevector_mod">
<polygon fill="none" stroke="red" points="273,-377 146,-377 146,-341 273,-341 273,-377"/>
<text text-anchor="middle" x="209.5" y="-355.3" font-family="Times,serif" font-size="14.00">gridstatevector_mod</text>
</a>
</g>
</g>
<!-- advection_mod&#45;&gt;gridstatevector_mod -->
<g id="edge4" class="edge">
<title>advection_mod&#45;&gt;gridstatevector_mod</title>
<path fill="none" stroke="black" d="M317.96,-628.93C307.32,-619.42 295.15,-606.74 287.5,-593 247.45,-521.04 275.95,-488.69 243.5,-413 239.47,-403.6 233.85,-394 228.33,-385.59"/>
<polygon fill="black" stroke="black" points="231.22,-383.62 222.7,-377.33 225.44,-387.56 231.22,-383.62"/>
</g>
<!-- horizontalcoord_mod -->
<g id="node6" class="node">
<title>horizontalcoord_mod</title>
<g id="a_node6"><a xlink:href="../modules/horizontalcoord_mod.svg" xlink:title="horizontalcoord_mod">
<polygon fill="none" stroke="red" points="311,-305 178,-305 178,-269 311,-269 311,-305"/>
<text text-anchor="middle" x="244.5" y="-283.3" font-family="Times,serif" font-size="14.00">horizontalcoord_mod</text>
</a>
</g>
</g>
<!-- advection_mod&#45;&gt;horizontalcoord_mod -->
<g id="edge5" class="edge">
<title>advection_mod&#45;&gt;horizontalcoord_mod</title>
<path fill="none" stroke="black" d="M331.81,-628.91C320.71,-602.62 301.5,-550.45 301.5,-504 301.5,-504 301.5,-504 301.5,-430 301.5,-389.46 297.86,-378.1 281.5,-341 277.27,-331.4 271.19,-321.74 265.18,-313.35"/>
<polygon fill="black" stroke="black" points="267.81,-311.02 259.02,-305.11 262.21,-315.22 267.81,-311.02"/>
</g>
<!-- mathphysconstants_mod -->
<g id="node7" class="node">
<title>mathphysconstants_mod</title>
<g id="a_node7"><a xlink:href="mathphysconstants_mod.html" xlink:title="mathphysconstants_mod">
<polygon fill="gray" stroke="black" points="349.5,-233 199.5,-233 199.5,-197 349.5,-197 349.5,-233"/>
<text text-anchor="middle" x="274.5" y="-211.3" font-family="Times,serif" font-size="14.00">mathphysconstants_mod</text>
</a>
</g>
</g>
<!-- advection_mod&#45;&gt;mathphysconstants_mod -->
<g id="edge6" class="edge">
<title>advection_mod&#45;&gt;mathphysconstants_mod</title>
<path fill="none" stroke="black" d="M339.5,-628.95C339.5,-602.29 339.5,-549.11 339.5,-504 339.5,-504 339.5,-504 339.5,-358 339.5,-317.46 337.59,-305.28 319.5,-269 314.44,-258.85 307.03,-249.01 299.68,-240.62"/>
<polygon fill="black" stroke="black" points="302.07,-238.05 292.73,-233.06 296.92,-242.79 302.07,-238.05"/>
</g>
<!-- midasmpi_mod -->
<g id="node8" class="node">
<title>midasmpi_mod</title>
<g id="a_node8"><a xlink:href="../modules/midasmpi_mod.svg" xlink:title="midasmpi_mod">
<polygon fill="none" stroke="red" points="387,-161 286,-161 286,-125 387,-125 387,-161"/>
<text text-anchor="middle" x="336.5" y="-139.3" font-family="Times,serif" font-size="14.00">midasmpi_mod</text>
</a>
</g>
</g>
<!-- advection_mod&#45;&gt;midasmpi_mod -->
<g id="edge7" class="edge">
<title>advection_mod&#45;&gt;midasmpi_mod</title>
<path fill="none" stroke="black" d="M347.19,-628.91C358.29,-602.62 377.5,-550.45 377.5,-504 377.5,-504 377.5,-504 377.5,-286 377.5,-244.41 361.06,-198.56 349,-170.51"/>
<polygon fill="black" stroke="black" points="352.05,-168.75 344.8,-161.03 345.65,-171.59 352.05,-168.75"/>
</g>
<!-- ramdisk_mod -->
<g id="node9" class="node">
<title>ramdisk_mod</title>
<g id="a_node9"><a xlink:href="../modules/ramdisk_mod.svg" xlink:title="ramdisk_mod">
<polygon fill="none" stroke="red" points="461,-89 370,-89 370,-53 461,-53 461,-89"/>
<text text-anchor="middle" x="415.5" y="-67.3" font-family="Times,serif" font-size="14.00">ramdisk_mod</text>
</a>
</g>
</g>
<!-- advection_mod&#45;&gt;ramdisk_mod -->
<g id="edge8" class="edge">
<title>advection_mod&#45;&gt;ramdisk_mod</title>
<path fill="none" stroke="black" d="M355.99,-628.77C378.34,-603.53 415.5,-554.05 415.5,-504 415.5,-504 415.5,-504 415.5,-214 415.5,-174 415.5,-127.65 415.5,-99.08"/>
<polygon fill="black" stroke="black" points="419,-99.05 415.5,-89.05 412,-99.05 419,-99.05"/>
</g>
<!-- utilities_mod -->
<g id="node10" class="node">
<title>utilities_mod</title>
<g id="a_node10"><a xlink:href="../modules/utilities_mod.svg" xlink:title="utilities_mod">
<polygon fill="none" stroke="red" points="531.5,-593 443.5,-593 443.5,-557 531.5,-557 531.5,-593"/>
<text text-anchor="middle" x="487.5" y="-571.3" font-family="Times,serif" font-size="14.00">utilities_mod</text>
</a>
</g>
</g>
<!-- advection_mod&#45;&gt;utilities_mod -->
<g id="edge9" class="edge">
<title>advection_mod&#45;&gt;utilities_mod</title>
<path fill="none" stroke="black" d="M375.7,-628.88C395.76,-619.39 420.87,-607.51 442.21,-597.42"/>
<polygon fill="black" stroke="black" points="443.87,-600.51 451.41,-593.07 440.88,-594.18 443.87,-600.51"/>
</g>
<!-- varnamelist_mod -->
<g id="node11" class="node">
<title>varnamelist_mod</title>
<g id="a_node11"><a xlink:href="../modules/varnamelist_mod.svg" xlink:title="varnamelist_mod">
<polygon fill="none" stroke="red" points="614.5,-521 504.5,-521 504.5,-485 614.5,-485 614.5,-521"/>
<text text-anchor="middle" x="559.5" y="-499.3" font-family="Times,serif" font-size="14.00">varnamelist_mod</text>
</a>
</g>
</g>
<!-- advection_mod&#45;&gt;varnamelist_mod -->
<g id="edge10" class="edge">
<title>advection_mod&#45;&gt;varnamelist_mod</title>
<path fill="none" stroke="black" d="M389.37,-638.92C441.92,-630.43 519.89,-614.61 540.5,-593 556.05,-576.7 560.17,-550.94 560.77,-531.32"/>
<polygon fill="black" stroke="black" points="564.27,-531.16 560.79,-521.16 557.27,-531.15 564.27,-531.16"/>
</g>
<!-- verticalcoord_mod -->
<g id="node12" class="node">
<title>verticalcoord_mod</title>
<g id="a_node12"><a xlink:href="../modules/verticalcoord_mod.svg" xlink:title="verticalcoord_mod">
<polygon fill="none" stroke="red" points="701.5,-449 583.5,-449 583.5,-413 701.5,-413 701.5,-449"/>
<text text-anchor="middle" x="642.5" y="-427.3" font-family="Times,serif" font-size="14.00">verticalcoord_mod</text>
</a>
</g>
</g>
<!-- advection_mod&#45;&gt;verticalcoord_mod -->
<g id="edge11" class="edge">
<title>advection_mod&#45;&gt;verticalcoord_mod</title>
<path fill="none" stroke="black" d="M389.24,-643.25C437.07,-638.63 509.81,-626.23 563.5,-593 598.92,-571.08 605.29,-558.46 623.5,-521 632.97,-501.52 637.75,-477.38 640.14,-459.16"/>
<polygon fill="black" stroke="black" points="643.62,-459.53 641.29,-449.19 636.67,-458.72 643.62,-459.53"/>
</g>
</g>
</svg>
