<?xml version="1.0" encoding="UTF-8" standalone="no"?>
<!DOCTYPE svg PUBLIC "-//W3C//DTD SVG 1.1//EN"
 "http://www.w3.org/Graphics/SVG/1.1/DTD/svg11.dtd">
<!-- Generated by graphviz version 3.0.0 (20220315.2325)
 -->
<!-- Title: analysisgrid_mod Pages: 1 -->
<svg width="455pt" height="529pt"
 viewBox="0.00 0.00 454.50 529.00" xmlns="http://www.w3.org/2000/svg" xmlns:xlink="http://www.w3.org/1999/xlink">
<g id="graph0" class="graph" transform="scale(1 1) rotate(0) translate(4 525)">
<title>analysisgrid_mod</title>
<polygon fill="white" stroke="transparent" points="-4,4 -4,-525 450.5,-525 450.5,4 -4,4"/>
<text text-anchor="middle" x="223.25" y="-37.8" font-family="Times,serif" font-size="14.00">Red boxes indicate modules with dependencies not shown</text>
<text text-anchor="middle" x="223.25" y="-22.8" font-family="Times,serif" font-size="14.00">Lower level dependencies can be shown by clicking on a red box</text>
<text text-anchor="middle" x="223.25" y="-7.8" font-family="Times,serif" font-size="14.00">Shaded boxes indicate modules with no dependencies</text>
<!-- analysisgrid_mod -->
<g id="node1" class="node">
<title>analysisgrid_mod</title>
<g id="a_node1"><a xlink:href="analysisgrid_mod.html" xlink:title="analysisgrid_mod">
<polygon fill="none" stroke="black" points="294,-521 183,-521 183,-485 294,-485 294,-521"/>
<text text-anchor="middle" x="238.5" y="-499.3" font-family="Times,serif" font-size="14.00">analysisgrid_mod</text>
</a>
</g>
</g>
<!-- earthconstants_mod -->
<g id="node2" class="node">
<title>earthconstants_mod</title>
<g id="a_node2"><a xlink:href="../modules/earthconstants_mod.svg" xlink:title="earthconstants_mod">
<polygon fill="none" stroke="red" points="125,-449 0,-449 0,-413 125,-413 125,-449"/>
<text text-anchor="middle" x="62.5" y="-427.3" font-family="Times,serif" font-size="14.00">earthconstants_mod</text>
</a>
</g>
</g>
<!-- analysisgrid_mod&#45;&gt;earthconstants_mod -->
<g id="edge1" class="edge">
<title>analysisgrid_mod&#45;&gt;earthconstants_mod</title>
<path fill="none" stroke="black" d="M195.45,-484.88C171.17,-475.22 140.66,-463.09 114.99,-452.88"/>
<polygon fill="black" stroke="black" points="116,-449.51 105.41,-449.07 113.41,-456.02 116,-449.51"/>
</g>
<!-- horizontalcoord_mod -->
<g id="node3" class="node">
<title>horizontalcoord_mod</title>
<g id="a_node3"><a xlink:href="../modules/horizontalcoord_mod.svg" xlink:title="horizontalcoord_mod">
<polygon fill="none" stroke="red" points="191,-377 58,-377 58,-341 191,-341 191,-377"/>
<text text-anchor="middle" x="124.5" y="-355.3" font-family="Times,serif" font-size="14.00">horizontalcoord_mod</text>
</a>
</g>
</g>
<!-- analysisgrid_mod&#45;&gt;horizontalcoord_mod -->
<g id="edge2" class="edge">
<title>analysisgrid_mod&#45;&gt;horizontalcoord_mod</title>
<path fill="none" stroke="black" d="M224.75,-484.87C204.81,-460.03 167.73,-413.85 144.68,-385.14"/>
<polygon fill="black" stroke="black" points="147.29,-382.8 138.3,-377.19 141.83,-387.18 147.29,-382.8"/>
</g>
<!-- mathphysconstants_mod -->
<g id="node4" class="node">
<title>mathphysconstants_mod</title>
<g id="a_node4"><a xlink:href="mathphysconstants_mod.html" xlink:title="mathphysconstants_mod">
<polygon fill="gray" stroke="black" points="229.5,-305 79.5,-305 79.5,-269 229.5,-269 229.5,-305"/>
<text text-anchor="middle" x="154.5" y="-283.3" font-family="Times,serif" font-size="14.00">mathphysconstants_mod</text>
</a>
</g>
</g>
<!-- analysisgrid_mod&#45;&gt;mathphysconstants_mod -->
<g id="edge3" class="edge">
<title>analysisgrid_mod&#45;&gt;mathphysconstants_mod</title>
<path fill="none" stroke="black" d="M236.95,-484.64C233.66,-454.11 224.16,-389.44 199.5,-341 194.35,-330.89 186.92,-321.06 179.58,-312.67"/>
<polygon fill="black" stroke="black" points="181.98,-310.11 172.64,-305.1 176.82,-314.84 181.98,-310.11"/>
</g>
<!-- midasmpi_mod -->
<g id="node5" class="node">
<title>midasmpi_mod</title>
<g id="a_node5"><a xlink:href="../modules/midasmpi_mod.svg" xlink:title="midasmpi_mod">
<polygon fill="none" stroke="red" points="287,-233 186,-233 186,-197 287,-197 287,-233"/>
<text text-anchor="middle" x="236.5" y="-211.3" font-family="Times,serif" font-size="14.00">midasmpi_mod</text>
</a>
</g>
</g>
<!-- analysisgrid_mod&#45;&gt;midasmpi_mod -->
<g id="edge4" class="edge">
<title>analysisgrid_mod&#45;&gt;midasmpi_mod</title>
<path fill="none" stroke="black" d="M240.12,-484.83C241.02,-474.47 242.05,-460.99 242.5,-449 245.3,-374.63 240.98,-286.86 238.33,-243.33"/>
<polygon fill="black" stroke="black" points="241.81,-243.01 237.69,-233.25 234.83,-243.45 241.81,-243.01"/>
</g>
<!-- utilities_mod -->
<g id="node6" class="node">
<title>utilities_mod</title>
<g id="a_node6"><a xlink:href="../modules/utilities_mod.svg" xlink:title="utilities_mod">
<polygon fill="none" stroke="red" points="359.5,-161 271.5,-161 271.5,-125 359.5,-125 359.5,-161"/>
<text text-anchor="middle" x="315.5" y="-139.3" font-family="Times,serif" font-size="14.00">utilities_mod</text>
</a>
</g>
</g>
<!-- analysisgrid_mod&#45;&gt;utilities_mod -->
<g id="edge5" class="edge">
<title>analysisgrid_mod&#45;&gt;utilities_mod</title>
<path fill="none" stroke="black" d="M255.21,-484.81C277.85,-459.62 315.5,-410.2 315.5,-360 315.5,-360 315.5,-360 315.5,-286 315.5,-246 315.5,-199.65 315.5,-171.08"/>
<polygon fill="black" stroke="black" points="319,-171.05 315.5,-161.05 312,-171.05 319,-171.05"/>
</g>
<!-- verticalcoord_mod -->
<g id="node7" class="node">
<title>verticalcoord_mod</title>
<g id="a_node7"><a xlink:href="../modules/verticalcoord_mod.svg" xlink:title="verticalcoord_mod">
<polygon fill="none" stroke="red" points="446.5,-89 328.5,-89 328.5,-53 446.5,-53 446.5,-89"/>
<text text-anchor="middle" x="387.5" y="-67.3" font-family="Times,serif" font-size="14.00">verticalcoord_mod</text>
</a>
</g>
</g>
<!-- analysisgrid_mod&#45;&gt;verticalcoord_mod -->
<g id="edge6" class="edge">
<title>analysisgrid_mod&#45;&gt;verticalcoord_mod</title>
<path fill="none" stroke="black" d="M278.43,-484.87C322.56,-462.93 387.5,-420.39 387.5,-360 387.5,-360 387.5,-360 387.5,-214 387.5,-174 387.5,-127.65 387.5,-99.08"/>
<polygon fill="black" stroke="black" points="391,-99.05 387.5,-89.05 384,-99.05 391,-99.05"/>
</g>
</g>
</svg>
