<?xml version="1.0" encoding="UTF-8" standalone="no"?>
<!DOCTYPE svg PUBLIC "-//W3C//DTD SVG 1.1//EN"
 "http://www.w3.org/Graphics/SVG/1.1/DTD/svg11.dtd">
<!-- Generated by graphviz version 3.0.0 (20220315.2325)
 -->
<!-- Title: analysiserroroi_mod Pages: 1 -->
<svg width="857pt" height="673pt"
 viewBox="0.00 0.00 856.50 673.00" xmlns="http://www.w3.org/2000/svg" xmlns:xlink="http://www.w3.org/1999/xlink">
<g id="graph0" class="graph" transform="scale(1 1) rotate(0) translate(4 669)">
<title>analysiserroroi_mod</title>
<polygon fill="white" stroke="transparent" points="-4,4 -4,-669 852.5,-669 852.5,4 -4,4"/>
<text text-anchor="middle" x="424.25" y="-37.8" font-family="Times,serif" font-size="14.00">Red boxes indicate modules with dependencies not shown</text>
<text text-anchor="middle" x="424.25" y="-22.8" font-family="Times,serif" font-size="14.00">Lower level dependencies can be shown by clicking on a red box</text>
<text text-anchor="middle" x="424.25" y="-7.8" font-family="Times,serif" font-size="14.00">Shaded boxes indicate modules with no dependencies</text>
<!-- analysiserroroi_mod -->
<g id="node1" class="node">
<title>analysiserroroi_mod</title>
<g id="a_node1"><a xlink:href="analysiserroroi_mod.html" xlink:title="analysiserroroi_mod">
<polygon fill="none" stroke="black" points="446,-665 319,-665 319,-629 446,-629 446,-665"/>
<text text-anchor="middle" x="382.5" y="-643.3" font-family="Times,serif" font-size="14.00">analysiserroroi_mod</text>
</a>
</g>
</g>
<!-- columndata_mod -->
<g id="node2" class="node">
<title>columndata_mod</title>
<g id="a_node2"><a xlink:href="../modules/columndata_mod.svg" xlink:title="columndata_mod">
<polygon fill="none" stroke="red" points="111,-593 0,-593 0,-557 111,-557 111,-593"/>
<text text-anchor="middle" x="55.5" y="-571.3" font-family="Times,serif" font-size="14.00">columndata_mod</text>
</a>
</g>
</g>
<!-- analysiserroroi_mod&#45;&gt;columndata_mod -->
<g id="edge1" class="edge">
<title>analysiserroroi_mod&#45;&gt;columndata_mod</title>
<path fill="none" stroke="black" d="M319,-633.55C266.9,-623.17 191.29,-607.77 125.5,-593 124.05,-592.67 122.59,-592.34 121.11,-592.01"/>
<polygon fill="black" stroke="black" points="121.78,-588.57 111.24,-589.72 120.2,-595.39 121.78,-588.57"/>
</g>
<!-- gridstatevectorfileio_mod -->
<g id="node3" class="node">
<title>gridstatevectorfileio_mod</title>
<g id="a_node3"><a xlink:href="../modules/gridstatevectorfileio_mod.svg" xlink:title="gridstatevectorfileio_mod">
<polygon fill="none" stroke="red" points="183,-521 28,-521 28,-485 183,-485 183,-521"/>
<text text-anchor="middle" x="105.5" y="-499.3" font-family="Times,serif" font-size="14.00">gridstatevectorfileio_mod</text>
</a>
</g>
</g>
<!-- analysiserroroi_mod&#45;&gt;gridstatevectorfileio_mod -->
<g id="edge2" class="edge">
<title>analysiserroroi_mod&#45;&gt;gridstatevectorfileio_mod</title>
<path fill="none" stroke="black" d="M318.64,-635.73C281.5,-627.85 234.82,-614.56 197.5,-593 168.92,-576.49 142.53,-549.17 125.42,-529.15"/>
<polygon fill="black" stroke="black" points="127.99,-526.77 118.89,-521.34 122.61,-531.26 127.99,-526.77"/>
</g>
<!-- gridstatevector_mod -->
<g id="node4" class="node">
<title>gridstatevector_mod</title>
<g id="a_node4"><a xlink:href="../modules/gridstatevector_mod.svg" xlink:title="gridstatevector_mod">
<polygon fill="none" stroke="red" points="221,-449 94,-449 94,-413 221,-413 221,-449"/>
<text text-anchor="middle" x="157.5" y="-427.3" font-family="Times,serif" font-size="14.00">gridstatevector_mod</text>
</a>
</g>
</g>
<!-- analysiserroroi_mod&#45;&gt;gridstatevector_mod -->
<g id="edge3" class="edge">
<title>analysiserroroi_mod&#45;&gt;gridstatevector_mod</title>
<path fill="none" stroke="black" d="M318.69,-635.24C290.23,-627.61 258.1,-614.7 235.5,-593 198.11,-557.11 215.37,-531.01 191.5,-485 186.72,-475.78 180.8,-466.11 175.25,-457.58"/>
<polygon fill="black" stroke="black" points="178.12,-455.57 169.67,-449.18 172.29,-459.45 178.12,-455.57"/>
</g>
<!-- horizontalcoord_mod -->
<g id="node5" class="node">
<title>horizontalcoord_mod</title>
<g id="a_node5"><a xlink:href="../modules/horizontalcoord_mod.svg" xlink:title="horizontalcoord_mod">
<polygon fill="none" stroke="red" points="259,-377 126,-377 126,-341 259,-341 259,-377"/>
<text text-anchor="middle" x="192.5" y="-355.3" font-family="Times,serif" font-size="14.00">horizontalcoord_mod</text>
</a>
</g>
</g>
<!-- analysiserroroi_mod&#45;&gt;horizontalcoord_mod -->
<g id="edge4" class="edge">
<title>analysiserroroi_mod&#45;&gt;horizontalcoord_mod</title>
<path fill="none" stroke="black" d="M324.56,-628.94C305.85,-620.81 286.58,-609.21 273.5,-593 221.78,-528.91 263.43,-488.04 229.5,-413 225.18,-403.44 219.07,-393.79 213.07,-385.39"/>
<polygon fill="black" stroke="black" points="215.71,-383.08 206.93,-377.15 210.1,-387.26 215.71,-383.08"/>
</g>
<!-- kdtree2_mod -->
<g id="node6" class="node">
<title>kdtree2_mod</title>
<g id="a_node6"><a xlink:href="../modules/kdtree2_mod.svg" xlink:title="kdtree2_mod">
<polygon fill="none" stroke="red" points="297.5,-305 209.5,-305 209.5,-269 297.5,-269 297.5,-305"/>
<text text-anchor="middle" x="253.5" y="-283.3" font-family="Times,serif" font-size="14.00">kdtree2_mod</text>
</a>
</g>
</g>
<!-- analysiserroroi_mod&#45;&gt;kdtree2_mod -->
<g id="edge5" class="edge">
<title>analysiserroroi_mod&#45;&gt;kdtree2_mod</title>
<path fill="none" stroke="black" d="M350.65,-628.8C336.77,-619.82 321.44,-607.63 311.5,-593 288.49,-559.11 287.5,-544.97 287.5,-504 287.5,-504 287.5,-504 287.5,-430 287.5,-388.91 273.87,-342.92 263.87,-314.72"/>
<polygon fill="black" stroke="black" points="267.1,-313.36 260.38,-305.17 260.53,-315.76 267.1,-313.36"/>
</g>
<!-- message_mod -->
<g id="node7" class="node">
<title>message_mod</title>
<g id="a_node7"><a xlink:href="../modules/message_mod.svg" xlink:title="message_mod">
<polygon fill="none" stroke="red" points="335,-233 242,-233 242,-197 335,-197 335,-233"/>
<text text-anchor="middle" x="288.5" y="-211.3" font-family="Times,serif" font-size="14.00">message_mod</text>
</a>
</g>
</g>
<!-- analysiserroroi_mod&#45;&gt;message_mod -->
<g id="edge6" class="edge">
<title>analysiserroroi_mod&#45;&gt;message_mod</title>
<path fill="none" stroke="black" d="M369.83,-628.57C363.03,-618.56 354.95,-605.52 349.5,-593 333.16,-555.43 325.5,-544.97 325.5,-504 325.5,-504 325.5,-504 325.5,-358 325.5,-316.71 310.67,-270.77 299.78,-242.63"/>
<polygon fill="black" stroke="black" points="302.94,-241.11 295.99,-233.11 296.44,-243.7 302.94,-241.11"/>
</g>
<!-- midasmpi_mod -->
<g id="node8" class="node">
<title>midasmpi_mod</title>
<g id="a_node8"><a xlink:href="../modules/midasmpi_mod.svg" xlink:title="midasmpi_mod">
<polygon fill="none" stroke="red" points="373,-161 272,-161 272,-125 373,-125 373,-161"/>
<text text-anchor="middle" x="322.5" y="-139.3" font-family="Times,serif" font-size="14.00">midasmpi_mod</text>
</a>
</g>
</g>
<!-- analysiserroroi_mod&#45;&gt;midasmpi_mod -->
<g id="edge7" class="edge">
<title>analysiserroroi_mod&#45;&gt;midasmpi_mod</title>
<path fill="none" stroke="black" d="M378.66,-628.61C373.1,-601.94 363.5,-549.27 363.5,-504 363.5,-504 363.5,-504 363.5,-286 363.5,-244.41 347.06,-198.56 335,-170.51"/>
<polygon fill="black" stroke="black" points="338.05,-168.75 330.8,-161.03 331.65,-171.59 338.05,-168.75"/>
</g>
<!-- obsoperators_mod -->
<g id="node9" class="node">
<title>obsoperators_mod</title>
<g id="a_node9"><a xlink:href="../modules/obsoperators_mod.svg" xlink:title="obsoperators_mod">
<polygon fill="none" stroke="red" points="459.5,-89 343.5,-89 343.5,-53 459.5,-53 459.5,-89"/>
<text text-anchor="middle" x="401.5" y="-67.3" font-family="Times,serif" font-size="14.00">obsoperators_mod</text>
</a>
</g>
</g>
<!-- analysiserroroi_mod&#45;&gt;obsoperators_mod -->
<g id="edge8" class="edge">
<title>analysiserroroi_mod&#45;&gt;obsoperators_mod</title>
<path fill="none" stroke="black" d="M386.34,-628.61C391.9,-601.94 401.5,-549.27 401.5,-504 401.5,-504 401.5,-504 401.5,-214 401.5,-174 401.5,-127.65 401.5,-99.08"/>
<polygon fill="black" stroke="black" points="405,-99.05 401.5,-89.05 398,-99.05 405,-99.05"/>
</g>
<!-- obsspacedata_mod -->
<g id="node10" class="node">
<title>obsspacedata_mod</title>
<g id="a_node10"><a xlink:href="../modules/obsspacedata_mod.svg" xlink:title="obsspacedata_mod">
<polygon fill="none" stroke="red" points="547.5,-593 429.5,-593 429.5,-557 547.5,-557 547.5,-593"/>
<text text-anchor="middle" x="488.5" y="-571.3" font-family="Times,serif" font-size="14.00">obsspacedata_mod</text>
</a>
</g>
</g>
<!-- analysiserroroi_mod&#45;&gt;obsspacedata_mod -->
<g id="edge9" class="edge">
<title>analysiserroroi_mod&#45;&gt;obsspacedata_mod</title>
<path fill="none" stroke="black" d="M408.43,-628.88C422.16,-619.81 439.21,-608.55 454.04,-598.76"/>
<polygon fill="black" stroke="black" points="456.05,-601.62 462.47,-593.19 452.2,-595.78 456.05,-601.62"/>
</g>
<!-- physicsfunctions_mod -->
<g id="node11" class="node">
<title>physicsfunctions_mod</title>
<g id="a_node11"><a xlink:href="../modules/physicsfunctions_mod.svg" xlink:title="physicsfunctions_mod">
<polygon fill="none" stroke="red" points="585.5,-521 447.5,-521 447.5,-485 585.5,-485 585.5,-521"/>
<text text-anchor="middle" x="516.5" y="-499.3" font-family="Times,serif" font-size="14.00">physicsfunctions_mod</text>
</a>
</g>
</g>
<!-- analysiserroroi_mod&#45;&gt;physicsfunctions_mod -->
<g id="edge10" class="edge">
<title>analysiserroroi_mod&#45;&gt;physicsfunctions_mod</title>
<path fill="none" stroke="black" d="M446.23,-644.53C484.82,-639.93 531.31,-627 556.5,-593 571.06,-573.35 556.47,-547.55 540.99,-528.8"/>
<polygon fill="black" stroke="black" points="543.59,-526.46 534.38,-521.23 538.32,-531.06 543.59,-526.46"/>
</g>
<!-- statetocolumn_mod -->
<g id="node12" class="node">
<title>statetocolumn_mod</title>
<g id="a_node12"><a xlink:href="../modules/statetocolumn_mod.svg" xlink:title="statetocolumn_mod">
<polygon fill="none" stroke="red" points="623.5,-449 499.5,-449 499.5,-413 623.5,-413 623.5,-449"/>
<text text-anchor="middle" x="561.5" y="-427.3" font-family="Times,serif" font-size="14.00">statetocolumn_mod</text>
</a>
</g>
</g>
<!-- analysiserroroi_mod&#45;&gt;statetocolumn_mod -->
<g id="edge11" class="edge">
<title>analysiserroroi_mod&#45;&gt;statetocolumn_mod</title>
<path fill="none" stroke="black" d="M446.19,-643.76C487.6,-638.97 539.95,-626.12 573.5,-593 608.3,-558.65 607.94,-532.02 594.5,-485 591.79,-475.51 586.83,-466.06 581.57,-457.83"/>
<polygon fill="black" stroke="black" points="584.36,-455.72 575.83,-449.43 578.58,-459.67 584.36,-455.72"/>
</g>
<!-- utilities_mod -->
<g id="node13" class="node">
<title>utilities_mod</title>
<g id="a_node13"><a xlink:href="../modules/utilities_mod.svg" xlink:title="utilities_mod">
<polygon fill="none" stroke="red" points="678.5,-377 590.5,-377 590.5,-341 678.5,-341 678.5,-377"/>
<text text-anchor="middle" x="634.5" y="-355.3" font-family="Times,serif" font-size="14.00">utilities_mod</text>
</a>
</g>
</g>
<!-- analysiserroroi_mod&#45;&gt;utilities_mod -->
<g id="edge12" class="edge">
<title>analysiserroroi_mod&#45;&gt;utilities_mod</title>
<path fill="none" stroke="black" d="M446.03,-638.07C502.44,-629.73 579.16,-614.76 600.5,-593 654.91,-537.5 647.26,-435.93 639.71,-387.32"/>
<polygon fill="black" stroke="black" points="643.13,-386.53 638.03,-377.25 636.23,-387.69 643.13,-386.53"/>
</g>
<!-- varnamelist_mod -->
<g id="node14" class="node">
<title>varnamelist_mod</title>
<g id="a_node14"><a xlink:href="../modules/varnamelist_mod.svg" xlink:title="varnamelist_mod">
<polygon fill="none" stroke="red" points="761.5,-305 651.5,-305 651.5,-269 761.5,-269 761.5,-305"/>
<text text-anchor="middle" x="706.5" y="-283.3" font-family="Times,serif" font-size="14.00">varnamelist_mod</text>
</a>
</g>
</g>
<!-- analysiserroroi_mod&#45;&gt;varnamelist_mod -->
<g id="edge13" class="edge">
<title>analysiserroroi_mod&#45;&gt;varnamelist_mod</title>
<path fill="none" stroke="black" d="M446.13,-645.38C540.48,-640.73 706.5,-616.54 706.5,-504 706.5,-504 706.5,-504 706.5,-430 706.5,-390 706.5,-343.65 706.5,-315.08"/>
<polygon fill="black" stroke="black" points="710,-315.05 706.5,-305.05 703,-315.05 710,-315.05"/>
</g>
<!-- verticalcoord_mod -->
<g id="node15" class="node">
<title>verticalcoord_mod</title>
<g id="a_node15"><a xlink:href="../modules/verticalcoord_mod.svg" xlink:title="verticalcoord_mod">
<polygon fill="none" stroke="red" points="848.5,-233 730.5,-233 730.5,-197 848.5,-197 848.5,-233"/>
<text text-anchor="middle" x="789.5" y="-211.3" font-family="Times,serif" font-size="14.00">verticalcoord_mod</text>
</a>
</g>
</g>
<!-- analysiserroroi_mod&#45;&gt;verticalcoord_mod -->
<g id="edge14" class="edge">
<title>analysiserroroi_mod&#45;&gt;verticalcoord_mod</title>
<path fill="none" stroke="black" d="M446.2,-644.97C510.31,-641.7 610.59,-630.34 688.5,-593 742.45,-567.14 789.5,-563.83 789.5,-504 789.5,-504 789.5,-504 789.5,-358 789.5,-318 789.5,-271.65 789.5,-243.08"/>
<polygon fill="black" stroke="black" points="793,-243.05 789.5,-233.05 786,-243.05 793,-243.05"/>
</g>
</g>
</svg>
