<?xml version="1.0" encoding="UTF-8" standalone="no"?>
<!DOCTYPE svg PUBLIC "-//W3C//DTD SVG 1.1//EN"
 "http://www.w3.org/Graphics/SVG/1.1/DTD/svg11.dtd">
<!-- Generated by graphviz version 3.0.0 (20220315.2325)
 -->
<!-- Title: analysisgrid_mod Pages: 1 -->
<svg width="586pt" height="673pt"
 viewBox="0.00 0.00 586.00 673.00" xmlns="http://www.w3.org/2000/svg" xmlns:xlink="http://www.w3.org/1999/xlink">
<g id="graph0" class="graph" transform="scale(1 1) rotate(0) translate(4 669)">
<title>analysisgrid_mod</title>
<polygon fill="white" stroke="transparent" points="-4,4 -4,-669 582,-669 582,4 -4,4"/>
<text text-anchor="middle" x="289" y="-649.8" font-family="Times,serif" font-size="14.00">Blue boxes indicate modules with reverse dependencies not shown</text>
<text text-anchor="middle" x="289" y="-634.8" font-family="Times,serif" font-size="14.00">Higher level reverse dependencies can be shown by clicking on a blue box</text>
<text text-anchor="middle" x="289" y="-619.8" font-family="Times,serif" font-size="14.00">Green boxes are programs</text>
<!-- analysisgrid_mod -->
<g id="node1" class="node">
<title>analysisgrid_mod</title>
<g id="a_node1"><a xlink:href="analysisgrid_mod.html" xlink:title="analysisgrid_mod">
<polygon fill="none" stroke="black" points="341.5,-36 230.5,-36 230.5,0 341.5,0 341.5,-36"/>
<text text-anchor="middle" x="286" y="-14.3" font-family="Times,serif" font-size="14.00">analysisgrid_mod</text>
</a>
</g>
</g>
<!-- bmatrixensemble_mod -->
<g id="node2" class="node">
<title>bmatrixensemble_mod</title>
<g id="a_node2"><a xlink:href="../modules/bmatrixensemble_mod_rev.svg" xlink:title="bmatrixensemble_mod">
<polygon fill="none" stroke="blue" points="140,-108 0,-108 0,-72 140,-72 140,-108"/>
<text text-anchor="middle" x="70" y="-86.3" font-family="Times,serif" font-size="14.00">bmatrixensemble_mod</text>
</a>
</g>
</g>
<!-- bmatrixensemble_mod&#45;&gt;analysisgrid_mod -->
<g id="edge1" class="edge">
<title>bmatrixensemble_mod&#45;&gt;analysisgrid_mod</title>
<path fill="none" stroke="black" d="M130.2,-69.49C162.54,-59.01 202.06,-46.2 233.2,-36.11"/>
<ellipse fill="black" stroke="black" cx="126.37" cy="-70.73" rx="4" ry="4"/>
</g>
<!-- calcstatslam_mod -->
<g id="node3" class="node">
<title>calcstatslam_mod</title>
<g id="a_node3"><a xlink:href="../modules/calcstatslam_mod_rev.svg" xlink:title="calcstatslam_mod">
<polygon fill="none" stroke="blue" points="200.5,-180 87.5,-180 87.5,-144 200.5,-144 200.5,-180"/>
<text text-anchor="middle" x="144" y="-158.3" font-family="Times,serif" font-size="14.00">calcstatslam_mod</text>
</a>
</g>
</g>
<!-- calcstatslam_mod&#45;&gt;analysisgrid_mod -->
<g id="edge2" class="edge">
<title>calcstatslam_mod&#45;&gt;analysisgrid_mod</title>
<path fill="none" stroke="black" d="M160.31,-137.31C173.83,-118.54 194.13,-92.21 215,-72 228.7,-58.73 245.79,-45.88 259.77,-36.16"/>
<ellipse fill="black" stroke="black" cx="157.97" cy="-140.6" rx="4" ry="4"/>
</g>
<!-- ensemblestatevector_mod -->
<g id="node4" class="node">
<title>ensemblestatevector_mod</title>
<g id="a_node4"><a xlink:href="../modules/ensemblestatevector_mod_rev.svg" xlink:title="ensemblestatevector_mod">
<polygon fill="none" stroke="blue" points="239,-252 83,-252 83,-216 239,-216 239,-252"/>
<text text-anchor="middle" x="161" y="-230.3" font-family="Times,serif" font-size="14.00">ensemblestatevector_mod</text>
</a>
</g>
</g>
<!-- ensemblestatevector_mod&#45;&gt;analysisgrid_mod -->
<g id="edge3" class="edge">
<title>ensemblestatevector_mod&#45;&gt;analysisgrid_mod</title>
<path fill="none" stroke="black" d="M185.2,-209.85C193.49,-201.05 202.34,-190.59 209,-180 236.59,-136.12 229.44,-118.17 253,-72 259.31,-59.64 267.56,-46.39 274.23,-36.23"/>
<ellipse fill="black" stroke="black" cx="182.37" cy="-212.78" rx="4" ry="4"/>
</g>
<!-- gridvariabletransforms_mod -->
<g id="node5" class="node">
<title>gridvariabletransforms_mod</title>
<g id="a_node5"><a xlink:href="../modules/gridvariabletransforms_mod_rev.svg" xlink:title="gridvariabletransforms_mod">
<polygon fill="none" stroke="blue" points="277,-324 107,-324 107,-288 277,-288 277,-324"/>
<text text-anchor="middle" x="192" y="-302.3" font-family="Times,serif" font-size="14.00">gridvariabletransforms_mod</text>
</a>
</g>
</g>
<!-- gridvariabletransforms_mod&#45;&gt;analysisgrid_mod -->
<g id="edge4" class="edge">
<title>gridvariabletransforms_mod&#45;&gt;analysisgrid_mod</title>
<path fill="none" stroke="black" d="M222.76,-282.5C232.29,-273.99 241.88,-263.55 248,-252 286.67,-179.03 288.01,-76.58 286.82,-36.26"/>
<ellipse fill="black" stroke="black" cx="219.58" cy="-285.21" rx="4" ry="4"/>
</g>
<!-- lambmatrixhi_mod -->
<g id="node6" class="node">
<title>lambmatrixhi_mod</title>
<g id="a_node6"><a xlink:href="../modules/lambmatrixhi_mod_rev.svg" xlink:title="lambmatrixhi_mod">
<polygon fill="none" stroke="blue" points="315,-396 195,-396 195,-360 315,-360 315,-396"/>
<text text-anchor="middle" x="255" y="-374.3" font-family="Times,serif" font-size="14.00">lambmatrixhi_mod</text>
</a>
</g>
</g>
<!-- lambmatrixhi_mod&#45;&gt;analysisgrid_mod -->
<g id="edge5" class="edge">
<title>lambmatrixhi_mod&#45;&gt;analysisgrid_mod</title>
<path fill="none" stroke="black" d="M271.46,-352.6C276.75,-343.88 282.21,-333.78 286,-324 300.62,-286.29 305,-275.45 305,-235 305,-235 305,-235 305,-161 305,-115.73 295.4,-63.06 289.84,-36.39"/>
<ellipse fill="black" stroke="black" cx="269.23" cy="-356.18" rx="4" ry="4"/>
</g>
<!-- midas_midas_pseudosstobs -->
<g id="node7" class="node">
<title>midas_midas_pseudosstobs</title>
<g id="a_node7"><a xlink:href="../programs/midas_pseudosstobs.html" xlink:title="midas_midas_pseudosstobs">
<polygon fill="gray" stroke="green" points="390.5,-468 223.5,-468 223.5,-432 390.5,-432 390.5,-468"/>
<text text-anchor="middle" x="307" y="-446.3" font-family="Times,serif" font-size="14.00">midas_midas_pseudosstobs</text>
</a>
</g>
</g>
<!-- midas_midas_pseudosstobs&#45;&gt;analysisgrid_mod -->
<g id="edge6" class="edge">
<title>midas_midas_pseudosstobs&#45;&gt;analysisgrid_mod</title>
<path fill="none" stroke="black" d="M317.29,-424.16C327.93,-396.19 343,-349.13 343,-307 343,-307 343,-307 343,-161 343,-112.92 314.51,-61.84 297.81,-36.04"/>
<ellipse fill="black" stroke="black" cx="315.74" cy="-428.14" rx="4" ry="4"/>
</g>
<!-- midas_midas_sstbias -->
<g id="node8" class="node">
<title>midas_midas_sstbias</title>
<g id="a_node8"><a xlink:href="../programs/midas_sstbias.html" xlink:title="midas_midas_sstbias">
<polygon fill="gray" stroke="green" points="484,-540 352,-540 352,-504 484,-504 484,-540"/>
<text text-anchor="middle" x="418" y="-518.3" font-family="Times,serif" font-size="14.00">midas_midas_sstbias</text>
</a>
</g>
</g>
<!-- midas_midas_sstbias&#45;&gt;analysisgrid_mod -->
<g id="edge7" class="edge">
<title>midas_midas_sstbias&#45;&gt;analysisgrid_mod</title>
<path fill="none" stroke="black" d="M418,-495.78C418,-467.39 418,-419.89 418,-379 418,-379 418,-379 418,-161 418,-103.11 358.41,-58.91 319.31,-36.13"/>
<ellipse fill="black" stroke="black" cx="418" cy="-499.95" rx="4" ry="4"/>
</g>
<!-- midas_midas_ssttrial -->
<g id="node9" class="node">
<title>midas_midas_ssttrial</title>
<g id="a_node9"><a xlink:href="../programs/midas_ssttrial.html" xlink:title="midas_midas_ssttrial">
<polygon fill="gray" stroke="green" points="578,-612 446,-612 446,-576 578,-576 578,-612"/>
<text text-anchor="middle" x="512" y="-590.3" font-family="Times,serif" font-size="14.00">midas_midas_ssttrial</text>
</a>
</g>
</g>
<!-- midas_midas_ssttrial&#45;&gt;analysisgrid_mod -->
<g id="edge8" class="edge">
<title>midas_midas_ssttrial&#45;&gt;analysisgrid_mod</title>
<path fill="none" stroke="black" d="M512,-567.78C512,-539.39 512,-491.89 512,-451 512,-451 512,-451 512,-161 512,-80.72 408.49,-44.06 341.58,-28.75"/>
<ellipse fill="black" stroke="black" cx="512" cy="-571.95" rx="4" ry="4"/>
</g>
</g>
</svg>
