<?xml version="1.0" encoding="UTF-8" standalone="no"?>
<!DOCTYPE svg PUBLIC "-//W3C//DTD SVG 1.1//EN"
 "http://www.w3.org/Graphics/SVG/1.1/DTD/svg11.dtd">
<!-- Generated by graphviz version 3.0.0 (20220315.2325)
 -->
<!-- Title: backgroundcheck_mod Pages: 1 -->
<svg width="695pt" height="673pt"
 viewBox="0.00 0.00 695.00 673.00" xmlns="http://www.w3.org/2000/svg" xmlns:xlink="http://www.w3.org/1999/xlink">
<g id="graph0" class="graph" transform="scale(1 1) rotate(0) translate(4 669)">
<title>backgroundcheck_mod</title>
<polygon fill="white" stroke="transparent" points="-4,4 -4,-669 691,-669 691,4 -4,4"/>
<text text-anchor="middle" x="343.5" y="-37.8" font-family="Times,serif" font-size="14.00">Red boxes indicate modules with dependencies not shown</text>
<text text-anchor="middle" x="343.5" y="-22.8" font-family="Times,serif" font-size="14.00">Lower level dependencies can be shown by clicking on a red box</text>
<text text-anchor="middle" x="343.5" y="-7.8" font-family="Times,serif" font-size="14.00">Shaded boxes indicate modules with no dependencies</text>
<!-- backgroundcheck_mod -->
<g id="node1" class="node">
<title>backgroundcheck_mod</title>
<g id="a_node1"><a xlink:href="backgroundcheck_mod.html" xlink:title="backgroundcheck_mod">
<polygon fill="none" stroke="black" points="356.5,-665 213.5,-665 213.5,-629 356.5,-629 356.5,-665"/>
<text text-anchor="middle" x="285" y="-643.3" font-family="Times,serif" font-size="14.00">backgroundcheck_mod</text>
</a>
</g>
</g>
<!-- bufr_mod -->
<g id="node2" class="node">
<title>bufr_mod</title>
<g id="a_node2"><a xlink:href="bufr_mod.html" xlink:title="bufr_mod">
<polygon fill="gray" stroke="black" points="70,-593 0,-593 0,-557 70,-557 70,-593"/>
<text text-anchor="middle" x="35" y="-571.3" font-family="Times,serif" font-size="14.00">bufr_mod</text>
</a>
</g>
</g>
<!-- backgroundcheck_mod&#45;&gt;bufr_mod -->
<g id="edge1" class="edge">
<title>backgroundcheck_mod&#45;&gt;bufr_mod</title>
<path fill="none" stroke="black" d="M214.87,-628.9C176.08,-619.1 127.15,-606.15 84,-593 82.6,-592.57 81.18,-592.13 79.75,-591.68"/>
<polygon fill="black" stroke="black" points="80.82,-588.35 70.22,-588.58 78.65,-595 80.82,-588.35"/>
</g>
<!-- codtyp_mod -->
<g id="node3" class="node">
<title>codtyp_mod</title>
<g id="a_node3"><a xlink:href="../modules/codtyp_mod.svg" xlink:title="codtyp_mod">
<polygon fill="none" stroke="red" points="124,-521 40,-521 40,-485 124,-485 124,-521"/>
<text text-anchor="middle" x="82" y="-499.3" font-family="Times,serif" font-size="14.00">codtyp_mod</text>
</a>
</g>
</g>
<!-- backgroundcheck_mod&#45;&gt;codtyp_mod -->
<g id="edge2" class="edge">
<title>backgroundcheck_mod&#45;&gt;codtyp_mod</title>
<path fill="none" stroke="black" d="M213.19,-630.49C187.55,-622.4 159.66,-610.43 138,-593 117.44,-576.45 102.24,-550.21 92.91,-530.5"/>
<polygon fill="black" stroke="black" points="95.99,-528.82 88.68,-521.15 89.61,-531.7 95.99,-528.82"/>
</g>
<!-- columndata_mod -->
<g id="node4" class="node">
<title>columndata_mod</title>
<g id="a_node4"><a xlink:href="../modules/columndata_mod.svg" xlink:title="columndata_mod">
<polygon fill="none" stroke="red" points="161.5,-449 50.5,-449 50.5,-413 161.5,-413 161.5,-449"/>
<text text-anchor="middle" x="106" y="-427.3" font-family="Times,serif" font-size="14.00">columndata_mod</text>
</a>
</g>
</g>
<!-- backgroundcheck_mod&#45;&gt;columndata_mod -->
<g id="edge3" class="edge">
<title>backgroundcheck_mod&#45;&gt;columndata_mod</title>
<path fill="none" stroke="black" d="M230.82,-628.97C211.48,-620.67 190.82,-608.96 176,-593 140.84,-555.15 154.3,-532.07 133,-485 129.04,-476.25 124.39,-466.86 120.08,-458.46"/>
<polygon fill="black" stroke="black" points="123.13,-456.73 115.41,-449.47 116.92,-459.96 123.13,-456.73"/>
</g>
<!-- gps_mod -->
<g id="node5" class="node">
<title>gps_mod</title>
<g id="a_node5"><a xlink:href="../modules/gps_mod.svg" xlink:title="gps_mod">
<polygon fill="none" stroke="red" points="200,-377 134,-377 134,-341 200,-341 200,-377"/>
<text text-anchor="middle" x="167" y="-355.3" font-family="Times,serif" font-size="14.00">gps_mod</text>
</a>
</g>
</g>
<!-- backgroundcheck_mod&#45;&gt;gps_mod -->
<g id="edge4" class="edge">
<title>backgroundcheck_mod&#45;&gt;gps_mod</title>
<path fill="none" stroke="black" d="M252.36,-628.85C238.48,-619.95 223.38,-607.82 214,-593 192.47,-558.99 176.46,-441.53 170.06,-387.54"/>
<polygon fill="black" stroke="black" points="173.51,-386.86 168.88,-377.33 166.55,-387.67 173.51,-386.86"/>
</g>
<!-- horizontalcoord_mod -->
<g id="node6" class="node">
<title>horizontalcoord_mod</title>
<g id="a_node6"><a xlink:href="../modules/horizontalcoord_mod.svg" xlink:title="horizontalcoord_mod">
<polygon fill="none" stroke="red" points="237.5,-305 104.5,-305 104.5,-269 237.5,-269 237.5,-305"/>
<text text-anchor="middle" x="171" y="-283.3" font-family="Times,serif" font-size="14.00">horizontalcoord_mod</text>
</a>
</g>
</g>
<!-- backgroundcheck_mod&#45;&gt;horizontalcoord_mod -->
<g id="edge5" class="edge">
<title>backgroundcheck_mod&#45;&gt;horizontalcoord_mod</title>
<path fill="none" stroke="black" d="M272.33,-628.57C265.53,-618.56 257.45,-605.52 252,-593 235.66,-555.43 228,-544.97 228,-504 228,-504 228,-504 228,-430 228,-389.55 225.35,-377.99 209,-341 204.67,-331.21 198.36,-321.43 192.12,-312.98"/>
<polygon fill="black" stroke="black" points="194.86,-310.8 185.98,-305.03 189.32,-315.08 194.86,-310.8"/>
</g>
<!-- mathphysconstants_mod -->
<g id="node7" class="node">
<title>mathphysconstants_mod</title>
<g id="a_node7"><a xlink:href="mathphysconstants_mod.html" xlink:title="mathphysconstants_mod">
<polygon fill="gray" stroke="black" points="276,-233 126,-233 126,-197 276,-197 276,-233"/>
<text text-anchor="middle" x="201" y="-211.3" font-family="Times,serif" font-size="14.00">mathphysconstants_mod</text>
</a>
</g>
</g>
<!-- backgroundcheck_mod&#45;&gt;mathphysconstants_mod -->
<g id="edge6" class="edge">
<title>backgroundcheck_mod&#45;&gt;mathphysconstants_mod</title>
<path fill="none" stroke="black" d="M281.16,-628.61C275.6,-601.94 266,-549.27 266,-504 266,-504 266,-504 266,-358 266,-317.46 264.09,-305.28 246,-269 240.94,-258.85 233.53,-249.01 226.18,-240.62"/>
<polygon fill="black" stroke="black" points="228.57,-238.05 219.23,-233.06 223.42,-242.79 228.57,-238.05"/>
</g>
<!-- obsfamilylist_mod -->
<g id="node8" class="node">
<title>obsfamilylist_mod</title>
<g id="a_node8"><a xlink:href="obsfamilylist_mod.html" xlink:title="obsfamilylist_mod">
<polygon fill="gray" stroke="black" points="314,-161 196,-161 196,-125 314,-125 314,-161"/>
<text text-anchor="middle" x="255" y="-139.3" font-family="Times,serif" font-size="14.00">obsfamilylist_mod</text>
</a>
</g>
</g>
<!-- backgroundcheck_mod&#45;&gt;obsfamilylist_mod -->
<g id="edge7" class="edge">
<title>backgroundcheck_mod&#45;&gt;obsfamilylist_mod</title>
<path fill="none" stroke="black" d="M288.84,-628.61C294.4,-601.94 304,-549.27 304,-504 304,-504 304,-504 304,-286 304,-245.55 299.35,-234.82 285,-197 281.47,-187.71 276.49,-178.09 271.6,-169.65"/>
<polygon fill="black" stroke="black" points="274.56,-167.77 266.4,-161.01 268.56,-171.38 274.56,-167.77"/>
</g>
<!-- obsspacedata_mod -->
<g id="node9" class="node">
<title>obsspacedata_mod</title>
<g id="a_node9"><a xlink:href="../modules/obsspacedata_mod.svg" xlink:title="obsspacedata_mod">
<polygon fill="none" stroke="red" points="401,-89 283,-89 283,-53 401,-53 401,-89"/>
<text text-anchor="middle" x="342" y="-67.3" font-family="Times,serif" font-size="14.00">obsspacedata_mod</text>
</a>
</g>
</g>
<!-- backgroundcheck_mod&#45;&gt;obsspacedata_mod -->
<g id="edge8" class="edge">
<title>backgroundcheck_mod&#45;&gt;obsspacedata_mod</title>
<path fill="none" stroke="black" d="M296.81,-628.96C313.51,-603.16 342,-552.08 342,-504 342,-504 342,-504 342,-214 342,-174 342,-127.65 342,-99.08"/>
<polygon fill="black" stroke="black" points="345.5,-99.05 342,-89.05 338.5,-99.05 345.5,-99.05"/>
</g>
<!-- obsspacediag_mod -->
<g id="node10" class="node">
<title>obsspacediag_mod</title>
<g id="a_node10"><a xlink:href="../modules/obsspacediag_mod.svg" xlink:title="obsspacediag_mod">
<polygon fill="none" stroke="red" points="489.5,-593 370.5,-593 370.5,-557 489.5,-557 489.5,-593"/>
<text text-anchor="middle" x="430" y="-571.3" font-family="Times,serif" font-size="14.00">obsspacediag_mod</text>
</a>
</g>
</g>
<!-- backgroundcheck_mod&#45;&gt;obsspacediag_mod -->
<g id="edge9" class="edge">
<title>backgroundcheck_mod&#45;&gt;obsspacediag_mod</title>
<path fill="none" stroke="black" d="M320.47,-628.88C340.12,-619.39 364.72,-607.51 385.63,-597.42"/>
<polygon fill="black" stroke="black" points="387.16,-600.57 394.64,-593.07 384.12,-594.26 387.16,-600.57"/>
</g>
<!-- obsspaceerrorstddev_mod -->
<g id="node11" class="node">
<title>obsspaceerrorstddev_mod</title>
<g id="a_node11"><a xlink:href="../modules/obsspaceerrorstddev_mod.svg" xlink:title="obsspaceerrorstddev_mod">
<polygon fill="none" stroke="red" points="527.5,-521 370.5,-521 370.5,-485 527.5,-485 527.5,-521"/>
<text text-anchor="middle" x="449" y="-499.3" font-family="Times,serif" font-size="14.00">obsspaceerrorstddev_mod</text>
</a>
</g>
</g>
<!-- backgroundcheck_mod&#45;&gt;obsspaceerrorstddev_mod -->
<g id="edge10" class="edge">
<title>backgroundcheck_mod&#45;&gt;obsspaceerrorstddev_mod</title>
<path fill="none" stroke="black" d="M356.64,-637.64C411.46,-629.6 480.55,-615.33 498,-593 513.82,-572.76 495.77,-546.74 477.28,-528.07"/>
<polygon fill="black" stroke="black" points="479.61,-525.45 469.97,-521.05 474.76,-530.5 479.61,-525.45"/>
</g>
<!-- utilities_mod -->
<g id="node12" class="node">
<title>utilities_mod</title>
<g id="a_node12"><a xlink:href="../modules/utilities_mod.svg" xlink:title="utilities_mod">
<polygon fill="none" stroke="red" points="600,-449 512,-449 512,-413 600,-413 600,-449"/>
<text text-anchor="middle" x="556" y="-427.3" font-family="Times,serif" font-size="14.00">utilities_mod</text>
</a>
</g>
</g>
<!-- backgroundcheck_mod&#45;&gt;utilities_mod -->
<g id="edge11" class="edge">
<title>backgroundcheck_mod&#45;&gt;utilities_mod</title>
<path fill="none" stroke="black" d="M356.62,-637.64C415.69,-629.33 493.32,-614.68 516,-593 552.51,-558.11 557.77,-495.47 557.46,-459.47"/>
<polygon fill="black" stroke="black" points="560.96,-459.13 557.22,-449.22 553.96,-459.3 560.96,-459.13"/>
</g>
<!-- verticalcoord_mod -->
<g id="node13" class="node">
<title>verticalcoord_mod</title>
<g id="a_node13"><a xlink:href="../modules/verticalcoord_mod.svg" xlink:title="verticalcoord_mod">
<polygon fill="none" stroke="red" points="687,-377 569,-377 569,-341 687,-341 687,-377"/>
<text text-anchor="middle" x="628" y="-355.3" font-family="Times,serif" font-size="14.00">verticalcoord_mod</text>
</a>
</g>
</g>
<!-- backgroundcheck_mod&#45;&gt;verticalcoord_mod -->
<g id="edge12" class="edge">
<title>backgroundcheck_mod&#45;&gt;verticalcoord_mod</title>
<path fill="none" stroke="black" d="M356.74,-638.46C422.49,-630.29 513.78,-615.33 542,-593 606.74,-541.78 622.75,-436.85 626.7,-387.2"/>
<polygon fill="black" stroke="black" points="630.2,-387.42 627.39,-377.21 623.21,-386.94 630.2,-387.42"/>
</g>
</g>
</svg>
