<?xml version="1.0" encoding="UTF-8" standalone="no"?>
<!DOCTYPE svg PUBLIC "-//W3C//DTD SVG 1.1//EN"
 "http://www.w3.org/Graphics/SVG/1.1/DTD/svg11.dtd">
<!-- Generated by graphviz version 3.0.0 (20220315.2325)
 -->
<!-- Title: bcovarsetupchem_mod Pages: 1 -->
<svg width="430pt" height="385pt"
 viewBox="0.00 0.00 430.00 385.00" xmlns="http://www.w3.org/2000/svg" xmlns:xlink="http://www.w3.org/1999/xlink">
<g id="graph0" class="graph" transform="scale(1 1) rotate(0) translate(4 381)">
<title>bcovarsetupchem_mod</title>
<polygon fill="white" stroke="transparent" points="-4,4 -4,-381 426,-381 426,4 -4,4"/>
<text text-anchor="middle" x="211" y="-361.8" font-family="Times,serif" font-size="14.00">Blue boxes indicate modules with reverse dependencies not shown</text>
<text text-anchor="middle" x="211" y="-346.8" font-family="Times,serif" font-size="14.00">Higher level reverse dependencies can be shown by clicking on a blue box</text>
<text text-anchor="middle" x="211" y="-331.8" font-family="Times,serif" font-size="14.00">Green boxes are programs</text>
<!-- bcovarsetupchem_mod -->
<g id="node1" class="node">
<title>bcovarsetupchem_mod</title>
<g id="a_node1"><a xlink:href="bcovarsetupchem_mod.html" xlink:title="bcovarsetupchem_mod">
<polygon fill="none" stroke="black" points="284.5,-36 142.5,-36 142.5,0 284.5,0 284.5,-36"/>
<text text-anchor="middle" x="213.5" y="-14.3" font-family="Times,serif" font-size="14.00">bcovarsetupchem_mod</text>
</a>
</g>
</g>
<!-- bmatrixchem_mod -->
<g id="node2" class="node">
<title>bmatrixchem_mod</title>
<g id="a_node2"><a xlink:href="../modules/bmatrixchem_mod_rev.svg" xlink:title="bmatrixchem_mod">
<polygon fill="none" stroke="blue" points="135,-108 16,-108 16,-72 135,-72 135,-108"/>
<text text-anchor="middle" x="75.5" y="-86.3" font-family="Times,serif" font-size="14.00">bmatrixchem_mod</text>
</a>
</g>
</g>
<!-- bmatrixchem_mod&#45;&gt;bcovarsetupchem_mod -->
<g id="edge1" class="edge">
<title>bmatrixchem_mod&#45;&gt;bcovarsetupchem_mod</title>
<path fill="none" stroke="black" d="M116.48,-68.21C136.6,-58.01 160.54,-45.86 179.61,-36.19"/>
<ellipse fill="black" stroke="black" cx="112.83" cy="-70.07" rx="4" ry="4"/>
</g>
<!-- obsoperatorschem_mod -->
<g id="node3" class="node">
<title>obsoperatorschem_mod</title>
<g id="a_node3"><a xlink:href="../modules/obsoperatorschem_mod_rev.svg" xlink:title="obsoperatorschem_mod">
<polygon fill="none" stroke="blue" points="211.5,-180 65.5,-180 65.5,-144 211.5,-144 211.5,-180"/>
<text text-anchor="middle" x="138.5" y="-158.3" font-family="Times,serif" font-size="14.00">obsoperatorschem_mod</text>
</a>
</g>
</g>
<!-- obsoperatorschem_mod&#45;&gt;bcovarsetupchem_mod -->
<g id="edge2" class="edge">
<title>obsoperatorschem_mod&#45;&gt;bcovarsetupchem_mod</title>
<path fill="none" stroke="black" d="M151.35,-136.66C166.47,-108.05 191.17,-61.28 204.42,-36.19"/>
<ellipse fill="black" stroke="black" cx="149.41" cy="-140.33" rx="4" ry="4"/>
</g>
<!-- obsspacediag_mod -->
<g id="node4" class="node">
<title>obsspacediag_mod</title>
<g id="a_node4"><a xlink:href="../modules/obsspacediag_mod_rev.svg" xlink:title="obsspacediag_mod">
<polygon fill="none" stroke="blue" points="299,-252 180,-252 180,-216 299,-216 299,-252"/>
<text text-anchor="middle" x="239.5" y="-230.3" font-family="Times,serif" font-size="14.00">obsspacediag_mod</text>
</a>
</g>
</g>
<!-- obsspacediag_mod&#45;&gt;bcovarsetupchem_mod -->
<g id="edge3" class="edge">
<title>obsspacediag_mod&#45;&gt;bcovarsetupchem_mod</title>
<path fill="none" stroke="black" d="M236.42,-207.67C231.07,-163.59 220.17,-73.87 215.59,-36.23"/>
<ellipse fill="black" stroke="black" cx="236.93" cy="-211.88" rx="4" ry="4"/>
</g>
<!-- obsspaceerrorstddev_mod -->
<g id="node5" class="node">
<title>obsspaceerrorstddev_mod</title>
<g id="a_node5"><a xlink:href="../modules/obsspaceerrorstddev_mod_rev.svg" xlink:title="obsspaceerrorstddev_mod">
<polygon fill="none" stroke="blue" points="406,-324 249,-324 249,-288 406,-288 406,-324"/>
<text text-anchor="middle" x="327.5" y="-302.3" font-family="Times,serif" font-size="14.00">obsspaceerrorstddev_mod</text>
</a>
</g>
</g>
<!-- obsspaceerrorstddev_mod&#45;&gt;bcovarsetupchem_mod -->
<g id="edge4" class="edge">
<title>obsspaceerrorstddev_mod&#45;&gt;bcovarsetupchem_mod</title>
<path fill="none" stroke="black" d="M323.37,-279.68C320.06,-261.63 314.75,-236.96 307.5,-216 283.52,-146.7 242.09,-69.61 223.29,-36.1"/>
<ellipse fill="black" stroke="black" cx="324.14" cy="-284.02" rx="4" ry="4"/>
</g>
</g>
</svg>
