<?xml version="1.0" encoding="UTF-8" standalone="no"?>
<!DOCTYPE svg PUBLIC "-//W3C//DTD SVG 1.1//EN"
 "http://www.w3.org/Graphics/SVG/1.1/DTD/svg11.dtd">
<!-- Generated by graphviz version 3.0.0 (20220315.2325)
 -->
<!-- Title: bcovarsetupchem_mod Pages: 1 -->
<svg width="743pt" height="673pt"
 viewBox="0.00 0.00 742.50 673.00" xmlns="http://www.w3.org/2000/svg" xmlns:xlink="http://www.w3.org/1999/xlink">
<g id="graph0" class="graph" transform="scale(1 1) rotate(0) translate(4 669)">
<title>bcovarsetupchem_mod</title>
<polygon fill="white" stroke="transparent" points="-4,4 -4,-669 738.5,-669 738.5,4 -4,4"/>
<text text-anchor="middle" x="367.25" y="-37.8" font-family="Times,serif" font-size="14.00">Red boxes indicate modules with dependencies not shown</text>
<text text-anchor="middle" x="367.25" y="-22.8" font-family="Times,serif" font-size="14.00">Lower level dependencies can be shown by clicking on a red box</text>
<text text-anchor="middle" x="367.25" y="-7.8" font-family="Times,serif" font-size="14.00">Shaded boxes indicate modules with no dependencies</text>
<!-- bcovarsetupchem_mod -->
<g id="node1" class="node">
<title>bcovarsetupchem_mod</title>
<g id="a_node1"><a xlink:href="bcovarsetupchem_mod.html" xlink:title="bcovarsetupchem_mod">
<polygon fill="none" stroke="black" points="443.5,-665 301.5,-665 301.5,-629 443.5,-629 443.5,-665"/>
<text text-anchor="middle" x="372.5" y="-643.3" font-family="Times,serif" font-size="14.00">bcovarsetupchem_mod</text>
</a>
</g>
</g>
<!-- calcheightandpressure_mod -->
<g id="node2" class="node">
<title>calcheightandpressure_mod</title>
<g id="a_node2"><a xlink:href="../modules/calcheightandpressure_mod.svg" xlink:title="calcheightandpressure_mod">
<polygon fill="none" stroke="red" points="167,-593 0,-593 0,-557 167,-557 167,-593"/>
<text text-anchor="middle" x="83.5" y="-571.3" font-family="Times,serif" font-size="14.00">calcheightandpressure_mod</text>
</a>
</g>
</g>
<!-- bcovarsetupchem_mod&#45;&gt;calcheightandpressure_mod -->
<g id="edge1" class="edge">
<title>bcovarsetupchem_mod&#45;&gt;calcheightandpressure_mod</title>
<path fill="none" stroke="black" d="M302.17,-628.97C260.4,-618.85 207.28,-605.98 163.85,-595.46"/>
<polygon fill="black" stroke="black" points="164.44,-592 153.89,-593.05 162.79,-598.81 164.44,-592"/>
</g>
<!-- earthconstants_mod -->
<g id="node3" class="node">
<title>earthconstants_mod</title>
<g id="a_node3"><a xlink:href="../modules/earthconstants_mod.svg" xlink:title="earthconstants_mod">
<polygon fill="none" stroke="red" points="230,-521 105,-521 105,-485 230,-485 230,-521"/>
<text text-anchor="middle" x="167.5" y="-499.3" font-family="Times,serif" font-size="14.00">earthconstants_mod</text>
</a>
</g>
</g>
<!-- bcovarsetupchem_mod&#45;&gt;earthconstants_mod -->
<g id="edge2" class="edge">
<title>bcovarsetupchem_mod&#45;&gt;earthconstants_mod</title>
<path fill="none" stroke="black" d="M315.7,-628.94C292.36,-620.34 265.86,-608.41 244.5,-593 220.36,-575.58 198.76,-549.17 184.62,-529.63"/>
<polygon fill="black" stroke="black" points="187.3,-527.35 178.67,-521.2 181.58,-531.39 187.3,-527.35"/>
</g>
<!-- globalspectraltransform_mod -->
<g id="node4" class="node">
<title>globalspectraltransform_mod</title>
<g id="a_node4"><a xlink:href="../modules/globalspectraltransform_mod.svg" xlink:title="globalspectraltransform_mod">
<polygon fill="none" stroke="red" points="268.5,-449 92.5,-449 92.5,-413 268.5,-413 268.5,-449"/>
<text text-anchor="middle" x="180.5" y="-427.3" font-family="Times,serif" font-size="14.00">globalspectraltransform_mod</text>
</a>
</g>
</g>
<!-- bcovarsetupchem_mod&#45;&gt;globalspectraltransform_mod -->
<g id="edge3" class="edge">
<title>bcovarsetupchem_mod&#45;&gt;globalspectraltransform_mod</title>
<path fill="none" stroke="black" d="M331.26,-628.91C314.33,-620.21 295.66,-608.23 282.5,-593 248.61,-553.79 268.13,-527.52 238.5,-485 231.07,-474.33 221.13,-464.26 211.58,-455.82"/>
<polygon fill="black" stroke="black" points="213.6,-452.95 203.72,-449.14 209.07,-458.28 213.6,-452.95"/>
</g>
<!-- gridstatevector_mod -->
<g id="node5" class="node">
<title>gridstatevector_mod</title>
<g id="a_node5"><a xlink:href="../modules/gridstatevector_mod.svg" xlink:title="gridstatevector_mod">
<polygon fill="none" stroke="red" points="306,-377 179,-377 179,-341 306,-341 306,-377"/>
<text text-anchor="middle" x="242.5" y="-355.3" font-family="Times,serif" font-size="14.00">gridstatevector_mod</text>
</a>
</g>
</g>
<!-- bcovarsetupchem_mod&#45;&gt;gridstatevector_mod -->
<g id="edge4" class="edge">
<title>bcovarsetupchem_mod&#45;&gt;gridstatevector_mod</title>
<path fill="none" stroke="black" d="M350.93,-628.95C340.28,-619.44 328.11,-606.76 320.5,-593 280.69,-521.02 310.22,-488.46 277.5,-413 273.4,-403.54 267.62,-393.92 261.94,-385.52"/>
<polygon fill="black" stroke="black" points="264.75,-383.42 256.13,-377.26 259.03,-387.45 264.75,-383.42"/>
</g>
<!-- horizontalcoord_mod -->
<g id="node6" class="node">
<title>horizontalcoord_mod</title>
<g id="a_node6"><a xlink:href="../modules/horizontalcoord_mod.svg" xlink:title="horizontalcoord_mod">
<polygon fill="none" stroke="red" points="344,-305 211,-305 211,-269 344,-269 344,-305"/>
<text text-anchor="middle" x="277.5" y="-283.3" font-family="Times,serif" font-size="14.00">horizontalcoord_mod</text>
</a>
</g>
</g>
<!-- bcovarsetupchem_mod&#45;&gt;horizontalcoord_mod -->
<g id="edge5" class="edge">
<title>bcovarsetupchem_mod&#45;&gt;horizontalcoord_mod</title>
<path fill="none" stroke="black" d="M364.81,-628.91C353.71,-602.62 334.5,-550.45 334.5,-504 334.5,-504 334.5,-504 334.5,-430 334.5,-389.46 330.86,-378.1 314.5,-341 310.27,-331.4 304.19,-321.74 298.18,-313.35"/>
<polygon fill="black" stroke="black" points="300.81,-311.02 292.02,-305.11 295.21,-315.22 300.81,-311.02"/>
</g>
<!-- mathphysconstants_mod -->
<g id="node7" class="node">
<title>mathphysconstants_mod</title>
<g id="a_node7"><a xlink:href="mathphysconstants_mod.html" xlink:title="mathphysconstants_mod">
<polygon fill="gray" stroke="black" points="382.5,-233 232.5,-233 232.5,-197 382.5,-197 382.5,-233"/>
<text text-anchor="middle" x="307.5" y="-211.3" font-family="Times,serif" font-size="14.00">mathphysconstants_mod</text>
</a>
</g>
</g>
<!-- bcovarsetupchem_mod&#45;&gt;mathphysconstants_mod -->
<g id="edge6" class="edge">
<title>bcovarsetupchem_mod&#45;&gt;mathphysconstants_mod</title>
<path fill="none" stroke="black" d="M372.5,-628.95C372.5,-602.29 372.5,-549.11 372.5,-504 372.5,-504 372.5,-504 372.5,-358 372.5,-317.46 370.59,-305.28 352.5,-269 347.44,-258.85 340.03,-249.01 332.68,-240.62"/>
<polygon fill="black" stroke="black" points="335.07,-238.05 325.73,-233.06 329.92,-242.79 335.07,-238.05"/>
</g>
<!-- midasmpi_mod -->
<g id="node8" class="node">
<title>midasmpi_mod</title>
<g id="a_node8"><a xlink:href="../modules/midasmpi_mod.svg" xlink:title="midasmpi_mod">
<polygon fill="none" stroke="red" points="420,-161 319,-161 319,-125 420,-125 420,-161"/>
<text text-anchor="middle" x="369.5" y="-139.3" font-family="Times,serif" font-size="14.00">midasmpi_mod</text>
</a>
</g>
</g>
<!-- bcovarsetupchem_mod&#45;&gt;midasmpi_mod -->
<g id="edge7" class="edge">
<title>bcovarsetupchem_mod&#45;&gt;midasmpi_mod</title>
<path fill="none" stroke="black" d="M380.19,-628.91C391.29,-602.62 410.5,-550.45 410.5,-504 410.5,-504 410.5,-504 410.5,-286 410.5,-244.41 394.06,-198.56 382,-170.51"/>
<polygon fill="black" stroke="black" points="385.05,-168.75 377.8,-161.03 378.65,-171.59 385.05,-168.75"/>
</g>
<!-- obssubspacedata_mod -->
<g id="node9" class="node">
<title>obssubspacedata_mod</title>
<g id="a_node9"><a xlink:href="../modules/obssubspacedata_mod.svg" xlink:title="obssubspacedata_mod">
<polygon fill="none" stroke="red" points="516.5,-89 380.5,-89 380.5,-53 516.5,-53 516.5,-89"/>
<text text-anchor="middle" x="448.5" y="-67.3" font-family="Times,serif" font-size="14.00">obssubspacedata_mod</text>
</a>
</g>
</g>
<!-- bcovarsetupchem_mod&#45;&gt;obssubspacedata_mod -->
<g id="edge8" class="edge">
<title>bcovarsetupchem_mod&#45;&gt;obssubspacedata_mod</title>
<path fill="none" stroke="black" d="M388.99,-628.77C411.34,-603.53 448.5,-554.05 448.5,-504 448.5,-504 448.5,-504 448.5,-214 448.5,-174 448.5,-127.65 448.5,-99.08"/>
<polygon fill="black" stroke="black" points="452,-99.05 448.5,-89.05 445,-99.05 452,-99.05"/>
</g>
<!-- utilities_mod -->
<g id="node10" class="node">
<title>utilities_mod</title>
<g id="a_node10"><a xlink:href="../modules/utilities_mod.svg" xlink:title="utilities_mod">
<polygon fill="none" stroke="red" points="564.5,-593 476.5,-593 476.5,-557 564.5,-557 564.5,-593"/>
<text text-anchor="middle" x="520.5" y="-571.3" font-family="Times,serif" font-size="14.00">utilities_mod</text>
</a>
</g>
</g>
<!-- bcovarsetupchem_mod&#45;&gt;utilities_mod -->
<g id="edge9" class="edge">
<title>bcovarsetupchem_mod&#45;&gt;utilities_mod</title>
<path fill="none" stroke="black" d="M408.7,-628.88C428.76,-619.39 453.87,-607.51 475.21,-597.42"/>
<polygon fill="black" stroke="black" points="476.87,-600.51 484.41,-593.07 473.88,-594.18 476.87,-600.51"/>
</g>
<!-- varnamelist_mod -->
<g id="node11" class="node">
<title>varnamelist_mod</title>
<g id="a_node11"><a xlink:href="../modules/varnamelist_mod.svg" xlink:title="varnamelist_mod">
<polygon fill="none" stroke="red" points="647.5,-521 537.5,-521 537.5,-485 647.5,-485 647.5,-521"/>
<text text-anchor="middle" x="592.5" y="-499.3" font-family="Times,serif" font-size="14.00">varnamelist_mod</text>
</a>
</g>
</g>
<!-- bcovarsetupchem_mod&#45;&gt;varnamelist_mod -->
<g id="edge10" class="edge">
<title>bcovarsetupchem_mod&#45;&gt;varnamelist_mod</title>
<path fill="none" stroke="black" d="M443.7,-635.29C494,-626.27 555.54,-611.84 573.5,-593 589.05,-576.7 593.17,-550.94 593.77,-531.32"/>
<polygon fill="black" stroke="black" points="597.27,-531.16 593.79,-521.16 590.27,-531.15 597.27,-531.16"/>
</g>
<!-- verticalcoord_mod -->
<g id="node12" class="node">
<title>verticalcoord_mod</title>
<g id="a_node12"><a xlink:href="../modules/verticalcoord_mod.svg" xlink:title="verticalcoord_mod">
<polygon fill="none" stroke="red" points="734.5,-449 616.5,-449 616.5,-413 734.5,-413 734.5,-449"/>
<text text-anchor="middle" x="675.5" y="-427.3" font-family="Times,serif" font-size="14.00">verticalcoord_mod</text>
</a>
</g>
</g>
<!-- bcovarsetupchem_mod&#45;&gt;verticalcoord_mod -->
<g id="edge11" class="edge">
<title>bcovarsetupchem_mod&#45;&gt;verticalcoord_mod</title>
<path fill="none" stroke="black" d="M443.55,-640.83C489.96,-634.77 550.29,-621.6 596.5,-593 631.92,-571.08 638.29,-558.46 656.5,-521 665.97,-501.52 670.75,-477.38 673.14,-459.16"/>
<polygon fill="black" stroke="black" points="676.62,-459.53 674.29,-449.19 669.67,-458.72 676.62,-459.53"/>
</g>
</g>
</svg>
