<?xml version="1.0" encoding="UTF-8" standalone="no"?>
<!DOCTYPE svg PUBLIC "-//W3C//DTD SVG 1.1//EN"
 "http://www.w3.org/Graphics/SVG/1.1/DTD/svg11.dtd">
<!-- Generated by graphviz version 3.0.0 (20220315.2325)
 -->
<!-- Title: bgckocean_mod Pages: 1 -->
<svg width="773pt" height="673pt"
 viewBox="0.00 0.00 773.00 673.00" xmlns="http://www.w3.org/2000/svg" xmlns:xlink="http://www.w3.org/1999/xlink">
<g id="graph0" class="graph" transform="scale(1 1) rotate(0) translate(4 669)">
<title>bgckocean_mod</title>
<polygon fill="white" stroke="transparent" points="-4,4 -4,-669 769,-669 769,4 -4,4"/>
<text text-anchor="middle" x="382.5" y="-37.8" font-family="Times,serif" font-size="14.00">Red boxes indicate modules with dependencies not shown</text>
<text text-anchor="middle" x="382.5" y="-22.8" font-family="Times,serif" font-size="14.00">Lower level dependencies can be shown by clicking on a red box</text>
<text text-anchor="middle" x="382.5" y="-7.8" font-family="Times,serif" font-size="14.00">Shaded boxes indicate modules with no dependencies</text>
<!-- bgckocean_mod -->
<g id="node1" class="node">
<title>bgckocean_mod</title>
<g id="a_node1"><a xlink:href="bgckocean_mod.html" xlink:title="bgckocean_mod">
<polygon fill="none" stroke="black" points="375.5,-665 270.5,-665 270.5,-629 375.5,-629 375.5,-665"/>
<text text-anchor="middle" x="323" y="-643.3" font-family="Times,serif" font-size="14.00">bgckocean_mod</text>
</a>
</g>
</g>
<!-- bufr_mod -->
<g id="node2" class="node">
<title>bufr_mod</title>
<g id="a_node2"><a xlink:href="bufr_mod.html" xlink:title="bufr_mod">
<polygon fill="gray" stroke="black" points="70,-593 0,-593 0,-557 70,-557 70,-593"/>
<text text-anchor="middle" x="35" y="-571.3" font-family="Times,serif" font-size="14.00">bufr_mod</text>
</a>
</g>
</g>
<!-- bgckocean_mod&#45;&gt;bufr_mod -->
<g id="edge1" class="edge">
<title>bgckocean_mod&#45;&gt;bufr_mod</title>
<path fill="none" stroke="black" d="M270.35,-636.15C221.63,-626.6 147.38,-610.96 84,-593 82.59,-592.6 81.17,-592.18 79.73,-591.75"/>
<polygon fill="black" stroke="black" points="80.76,-588.41 70.17,-588.75 78.66,-595.09 80.76,-588.41"/>
</g>
<!-- codtyp_mod -->
<g id="node3" class="node">
<title>codtyp_mod</title>
<g id="a_node3"><a xlink:href="../modules/codtyp_mod.svg" xlink:title="codtyp_mod">
<polygon fill="none" stroke="red" points="124,-521 40,-521 40,-485 124,-485 124,-521"/>
<text text-anchor="middle" x="82" y="-499.3" font-family="Times,serif" font-size="14.00">codtyp_mod</text>
</a>
</g>
</g>
<!-- bgckocean_mod&#45;&gt;codtyp_mod -->
<g id="edge2" class="edge">
<title>bgckocean_mod&#45;&gt;codtyp_mod</title>
<path fill="none" stroke="black" d="M270.26,-641.09C230.57,-635.14 176.6,-621.99 138,-593 116.67,-576.99 101.45,-550.26 92.31,-530.27"/>
<polygon fill="black" stroke="black" points="95.51,-528.85 88.31,-521.07 89.09,-531.64 95.51,-528.85"/>
</g>
<!-- columndata_mod -->
<g id="node4" class="node">
<title>columndata_mod</title>
<g id="a_node4"><a xlink:href="../modules/columndata_mod.svg" xlink:title="columndata_mod">
<polygon fill="none" stroke="red" points="161.5,-449 50.5,-449 50.5,-413 161.5,-413 161.5,-449"/>
<text text-anchor="middle" x="106" y="-427.3" font-family="Times,serif" font-size="14.00">columndata_mod</text>
</a>
</g>
</g>
<!-- bgckocean_mod&#45;&gt;columndata_mod -->
<g id="edge3" class="edge">
<title>bgckocean_mod&#45;&gt;columndata_mod</title>
<path fill="none" stroke="black" d="M270.35,-638.11C239.43,-631.01 201.54,-617.71 176,-593 138.87,-557.07 154.3,-532.07 133,-485 129.04,-476.25 124.39,-466.86 120.08,-458.46"/>
<polygon fill="black" stroke="black" points="123.13,-456.73 115.41,-449.47 116.92,-459.96 123.13,-456.73"/>
</g>
<!-- gridstatevectorfileio_mod -->
<g id="node5" class="node">
<title>gridstatevectorfileio_mod</title>
<g id="a_node5"><a xlink:href="../modules/gridstatevectorfileio_mod.svg" xlink:title="gridstatevectorfileio_mod">
<polygon fill="none" stroke="red" points="199.5,-377 44.5,-377 44.5,-341 199.5,-341 199.5,-377"/>
<text text-anchor="middle" x="122" y="-355.3" font-family="Times,serif" font-size="14.00">gridstatevectorfileio_mod</text>
</a>
</g>
</g>
<!-- bgckocean_mod&#45;&gt;gridstatevectorfileio_mod -->
<g id="edge4" class="edge">
<title>bgckocean_mod&#45;&gt;gridstatevectorfileio_mod</title>
<path fill="none" stroke="black" d="M270.42,-631.19C250.1,-622.99 228.34,-610.77 214,-593 162.28,-528.91 208.6,-485.75 170,-413 164.56,-402.76 156.71,-392.93 148.92,-384.59"/>
<polygon fill="black" stroke="black" points="151.35,-382.07 141.85,-377.37 146.34,-386.96 151.35,-382.07"/>
</g>
<!-- gridstatevector_mod -->
<g id="node6" class="node">
<title>gridstatevector_mod</title>
<g id="a_node6"><a xlink:href="../modules/gridstatevector_mod.svg" xlink:title="gridstatevector_mod">
<polygon fill="none" stroke="red" points="237.5,-305 110.5,-305 110.5,-269 237.5,-269 237.5,-305"/>
<text text-anchor="middle" x="174" y="-283.3" font-family="Times,serif" font-size="14.00">gridstatevector_mod</text>
</a>
</g>
</g>
<!-- bgckocean_mod&#45;&gt;gridstatevector_mod -->
<g id="edge5" class="edge">
<title>bgckocean_mod&#45;&gt;gridstatevector_mod</title>
<path fill="none" stroke="black" d="M291.15,-628.8C277.27,-619.82 261.94,-607.63 252,-593 228.99,-559.11 228,-544.97 228,-504 228,-504 228,-504 228,-430 228,-389.46 223.63,-378.41 208,-341 204.06,-331.57 198.46,-321.95 192.94,-313.55"/>
<polygon fill="black" stroke="black" points="195.83,-311.57 187.29,-305.29 190.05,-315.52 195.83,-311.57"/>
</g>
<!-- horizontalcoord_mod -->
<g id="node7" class="node">
<title>horizontalcoord_mod</title>
<g id="a_node7"><a xlink:href="../modules/horizontalcoord_mod.svg" xlink:title="horizontalcoord_mod">
<polygon fill="none" stroke="red" points="275.5,-233 142.5,-233 142.5,-197 275.5,-197 275.5,-233"/>
<text text-anchor="middle" x="209" y="-211.3" font-family="Times,serif" font-size="14.00">horizontalcoord_mod</text>
</a>
</g>
</g>
<!-- bgckocean_mod&#45;&gt;horizontalcoord_mod -->
<g id="edge6" class="edge">
<title>bgckocean_mod&#45;&gt;horizontalcoord_mod</title>
<path fill="none" stroke="black" d="M310.33,-628.57C303.53,-618.56 295.45,-605.52 290,-593 273.66,-555.43 266,-544.97 266,-504 266,-504 266,-504 266,-358 266,-317.46 262.36,-306.1 246,-269 241.77,-259.4 235.69,-249.74 229.68,-241.35"/>
<polygon fill="black" stroke="black" points="232.31,-239.02 223.52,-233.11 226.71,-243.22 232.31,-239.02"/>
</g>
<!-- mathphysconstants_mod -->
<g id="node8" class="node">
<title>mathphysconstants_mod</title>
<g id="a_node8"><a xlink:href="mathphysconstants_mod.html" xlink:title="mathphysconstants_mod">
<polygon fill="gray" stroke="black" points="314,-161 164,-161 164,-125 314,-125 314,-161"/>
<text text-anchor="middle" x="239" y="-139.3" font-family="Times,serif" font-size="14.00">mathphysconstants_mod</text>
</a>
</g>
</g>
<!-- bgckocean_mod&#45;&gt;mathphysconstants_mod -->
<g id="edge7" class="edge">
<title>bgckocean_mod&#45;&gt;mathphysconstants_mod</title>
<path fill="none" stroke="black" d="M319.16,-628.61C313.6,-601.94 304,-549.27 304,-504 304,-504 304,-504 304,-286 304,-245.46 302.09,-233.28 284,-197 278.94,-186.85 271.53,-177.01 264.18,-168.62"/>
<polygon fill="black" stroke="black" points="266.57,-166.05 257.23,-161.06 261.42,-170.79 266.57,-166.05"/>
</g>
<!-- message_mod -->
<g id="node9" class="node">
<title>message_mod</title>
<g id="a_node9"><a xlink:href="../modules/message_mod.svg" xlink:title="message_mod">
<polygon fill="none" stroke="red" points="388.5,-89 295.5,-89 295.5,-53 388.5,-53 388.5,-89"/>
<text text-anchor="middle" x="342" y="-67.3" font-family="Times,serif" font-size="14.00">message_mod</text>
</a>
</g>
</g>
<!-- bgckocean_mod&#45;&gt;message_mod -->
<g id="edge8" class="edge">
<title>bgckocean_mod&#45;&gt;message_mod</title>
<path fill="none" stroke="black" d="M326.84,-628.61C332.4,-601.94 342,-549.27 342,-504 342,-504 342,-504 342,-214 342,-174 342,-127.65 342,-99.08"/>
<polygon fill="black" stroke="black" points="345.5,-99.05 342,-89.05 338.5,-99.05 345.5,-99.05"/>
</g>
<!-- midasmpi_mod -->
<g id="node10" class="node">
<title>midasmpi_mod</title>
<g id="a_node10"><a xlink:href="../modules/midasmpi_mod.svg" xlink:title="midasmpi_mod">
<polygon fill="none" stroke="red" points="471.5,-593 370.5,-593 370.5,-557 471.5,-557 471.5,-593"/>
<text text-anchor="middle" x="421" y="-571.3" font-family="Times,serif" font-size="14.00">midasmpi_mod</text>
</a>
</g>
</g>
<!-- bgckocean_mod&#45;&gt;midasmpi_mod -->
<g id="edge9" class="edge">
<title>bgckocean_mod&#45;&gt;midasmpi_mod</title>
<path fill="none" stroke="black" d="M346.97,-628.88C359.55,-619.89 375.13,-608.76 388.75,-599.03"/>
<polygon fill="black" stroke="black" points="390.83,-601.85 396.93,-593.19 386.76,-596.15 390.83,-601.85"/>
</g>
<!-- obsspacedata_mod -->
<g id="node11" class="node">
<title>obsspacedata_mod</title>
<g id="a_node11"><a xlink:href="../modules/obsspacedata_mod.svg" xlink:title="obsspacedata_mod">
<polygon fill="none" stroke="red" points="510,-521 392,-521 392,-485 510,-485 510,-521"/>
<text text-anchor="middle" x="451" y="-499.3" font-family="Times,serif" font-size="14.00">obsspacedata_mod</text>
</a>
</g>
</g>
<!-- bgckocean_mod&#45;&gt;obsspacedata_mod -->
<g id="edge10" class="edge">
<title>bgckocean_mod&#45;&gt;obsspacedata_mod</title>
<path fill="none" stroke="black" d="M375.64,-643.42C411.44,-638.59 456.43,-625.83 480,-593 493.58,-574.08 482.87,-548.45 470.81,-529.56"/>
<polygon fill="black" stroke="black" points="473.59,-527.43 465.07,-521.14 467.81,-531.37 473.59,-527.43"/>
</g>
<!-- statetocolumn_mod -->
<g id="node12" class="node">
<title>statetocolumn_mod</title>
<g id="a_node12"><a xlink:href="../modules/statetocolumn_mod.svg" xlink:title="statetocolumn_mod">
<polygon fill="none" stroke="red" points="548,-449 424,-449 424,-413 548,-413 548,-449"/>
<text text-anchor="middle" x="486" y="-427.3" font-family="Times,serif" font-size="14.00">statetocolumn_mod</text>
</a>
</g>
</g>
<!-- bgckocean_mod&#45;&gt;statetocolumn_mod -->
<g id="edge11" class="edge">
<title>bgckocean_mod&#45;&gt;statetocolumn_mod</title>
<path fill="none" stroke="black" d="M375.71,-643.1C414.49,-638.2 465.84,-625.49 498,-593 532.4,-558.25 532.44,-532.02 519,-485 516.29,-475.51 511.33,-466.06 506.07,-457.83"/>
<polygon fill="black" stroke="black" points="508.86,-455.72 500.33,-449.43 503.08,-459.67 508.86,-455.72"/>
</g>
<!-- timecoord_mod -->
<g id="node13" class="node">
<title>timecoord_mod</title>
<g id="a_node13"><a xlink:href="../modules/timecoord_mod.svg" xlink:title="timecoord_mod">
<polygon fill="none" stroke="red" points="606,-377 504,-377 504,-341 606,-341 606,-377"/>
<text text-anchor="middle" x="555" y="-355.3" font-family="Times,serif" font-size="14.00">timecoord_mod</text>
</a>
</g>
</g>
<!-- bgckocean_mod&#45;&gt;timecoord_mod -->
<g id="edge12" class="edge">
<title>bgckocean_mod&#45;&gt;timecoord_mod</title>
<path fill="none" stroke="black" d="M375.98,-638.45C428.68,-629.86 504.57,-614.22 525,-593 578.78,-537.14 569.23,-435.74 560.75,-387.25"/>
<polygon fill="black" stroke="black" points="564.15,-386.39 558.87,-377.2 557.27,-387.67 564.15,-386.39"/>
</g>
<!-- utilities_mod -->
<g id="node14" class="node">
<title>utilities_mod</title>
<g id="a_node14"><a xlink:href="../modules/utilities_mod.svg" xlink:title="utilities_mod">
<polygon fill="none" stroke="red" points="678,-305 590,-305 590,-269 678,-269 678,-305"/>
<text text-anchor="middle" x="634" y="-283.3" font-family="Times,serif" font-size="14.00">utilities_mod</text>
</a>
</g>
</g>
<!-- bgckocean_mod&#45;&gt;utilities_mod -->
<g id="edge13" class="edge">
<title>bgckocean_mod&#45;&gt;utilities_mod</title>
<path fill="none" stroke="black" d="M375.76,-644.96C464.49,-640.12 634,-616.18 634,-504 634,-504 634,-504 634,-430 634,-390 634,-343.65 634,-315.08"/>
<polygon fill="black" stroke="black" points="637.5,-315.05 634,-305.05 630.5,-315.05 637.5,-315.05"/>
</g>
<!-- verticalcoord_mod -->
<g id="node15" class="node">
<title>verticalcoord_mod</title>
<g id="a_node15"><a xlink:href="../modules/verticalcoord_mod.svg" xlink:title="verticalcoord_mod">
<polygon fill="none" stroke="red" points="765,-233 647,-233 647,-197 765,-197 765,-233"/>
<text text-anchor="middle" x="706" y="-211.3" font-family="Times,serif" font-size="14.00">verticalcoord_mod</text>
</a>
</g>
</g>
<!-- bgckocean_mod&#45;&gt;verticalcoord_mod -->
<g id="edge14" class="edge">
<title>bgckocean_mod&#45;&gt;verticalcoord_mod</title>
<path fill="none" stroke="black" d="M375.58,-645.48C436.22,-642.89 537.37,-632.36 614,-593 664.61,-567.01 706,-560.89 706,-504 706,-504 706,-504 706,-358 706,-318 706,-271.65 706,-243.08"/>
<polygon fill="black" stroke="black" points="709.5,-243.05 706,-233.05 702.5,-243.05 709.5,-243.05"/>
</g>
</g>
</svg>
