<?xml version="1.0" encoding="UTF-8" standalone="no"?>
<!DOCTYPE svg PUBLIC "-//W3C//DTD SVG 1.1//EN"
 "http://www.w3.org/Graphics/SVG/1.1/DTD/svg11.dtd">
<!-- Generated by graphviz version 3.0.0 (20220315.2325)
 -->
<!-- Title: bgckmicrowave_mod Pages: 1 -->
<svg width="444pt" height="601pt"
 viewBox="0.00 0.00 444.00 601.00" xmlns="http://www.w3.org/2000/svg" xmlns:xlink="http://www.w3.org/1999/xlink">
<g id="graph0" class="graph" transform="scale(1 1) rotate(0) translate(4 597)">
<title>bgckmicrowave_mod</title>
<polygon fill="white" stroke="transparent" points="-4,4 -4,-597 440,-597 440,4 -4,4"/>
<text text-anchor="middle" x="218" y="-37.8" font-family="Times,serif" font-size="14.00">Red boxes indicate modules with dependencies not shown</text>
<text text-anchor="middle" x="218" y="-22.8" font-family="Times,serif" font-size="14.00">Lower level dependencies can be shown by clicking on a red box</text>
<text text-anchor="middle" x="218" y="-7.8" font-family="Times,serif" font-size="14.00">Shaded boxes indicate modules with no dependencies</text>
<!-- bgckmicrowave_mod -->
<g id="node1" class="node">
<title>bgckmicrowave_mod</title>
<g id="a_node1"><a xlink:href="bgckmicrowave_mod.html" xlink:title="bgckmicrowave_mod">
<polygon fill="none" stroke="black" points="287,-593 153,-593 153,-557 287,-557 287,-593"/>
<text text-anchor="middle" x="220" y="-571.3" font-family="Times,serif" font-size="14.00">bgckmicrowave_mod</text>
</a>
</g>
</g>
<!-- codtyp_mod -->
<g id="node2" class="node">
<title>codtyp_mod</title>
<g id="a_node2"><a xlink:href="../modules/codtyp_mod.svg" xlink:title="codtyp_mod">
<polygon fill="none" stroke="red" points="84,-521 0,-521 0,-485 84,-485 84,-521"/>
<text text-anchor="middle" x="42" y="-499.3" font-family="Times,serif" font-size="14.00">codtyp_mod</text>
</a>
</g>
</g>
<!-- bgckmicrowave_mod&#45;&gt;codtyp_mod -->
<g id="edge1" class="edge">
<title>bgckmicrowave_mod&#45;&gt;codtyp_mod</title>
<path fill="none" stroke="black" d="M176.46,-556.88C151.43,-547.03 119.85,-534.62 93.59,-524.29"/>
<polygon fill="black" stroke="black" points="94.76,-520.99 84.17,-520.59 92.2,-527.5 94.76,-520.99"/>
</g>
<!-- mathphysconstants_mod -->
<g id="node3" class="node">
<title>mathphysconstants_mod</title>
<g id="a_node3"><a xlink:href="mathphysconstants_mod.html" xlink:title="mathphysconstants_mod">
<polygon fill="gray" stroke="black" points="154,-449 4,-449 4,-413 154,-413 154,-449"/>
<text text-anchor="middle" x="79" y="-427.3" font-family="Times,serif" font-size="14.00">mathphysconstants_mod</text>
</a>
</g>
</g>
<!-- bgckmicrowave_mod&#45;&gt;mathphysconstants_mod -->
<g id="edge2" class="edge">
<title>bgckmicrowave_mod&#45;&gt;mathphysconstants_mod</title>
<path fill="none" stroke="black" d="M202.99,-556.87C178.11,-531.82 131.68,-485.05 103.23,-456.41"/>
<polygon fill="black" stroke="black" points="105.6,-453.82 96.07,-449.19 100.63,-458.75 105.6,-453.82"/>
</g>
<!-- midasmpi_mod -->
<g id="node4" class="node">
<title>midasmpi_mod</title>
<g id="a_node4"><a xlink:href="../modules/midasmpi_mod.svg" xlink:title="midasmpi_mod">
<polygon fill="none" stroke="red" points="191.5,-377 90.5,-377 90.5,-341 191.5,-341 191.5,-377"/>
<text text-anchor="middle" x="141" y="-355.3" font-family="Times,serif" font-size="14.00">midasmpi_mod</text>
</a>
</g>
</g>
<!-- bgckmicrowave_mod&#45;&gt;midasmpi_mod -->
<g id="edge3" class="edge">
<title>bgckmicrowave_mod&#45;&gt;midasmpi_mod</title>
<path fill="none" stroke="black" d="M214.3,-556.97C204.36,-527.47 182.99,-465.04 163,-413 159.66,-404.31 155.83,-394.9 152.31,-386.46"/>
<polygon fill="black" stroke="black" points="155.47,-384.95 148.37,-377.09 149.02,-387.67 155.47,-384.95"/>
</g>
<!-- obserrors_mod -->
<g id="node5" class="node">
<title>obserrors_mod</title>
<g id="a_node5"><a xlink:href="../modules/obserrors_mod.svg" xlink:title="obserrors_mod">
<polygon fill="none" stroke="red" points="230,-305 132,-305 132,-269 230,-269 230,-305"/>
<text text-anchor="middle" x="181" y="-283.3" font-family="Times,serif" font-size="14.00">obserrors_mod</text>
</a>
</g>
</g>
<!-- bgckmicrowave_mod&#45;&gt;obserrors_mod -->
<g id="edge4" class="edge">
<title>bgckmicrowave_mod&#45;&gt;obserrors_mod</title>
<path fill="none" stroke="black" d="M220.03,-556.82C219.78,-517.92 217.32,-420.33 200,-341 198.1,-332.31 195.15,-323.1 192.14,-314.84"/>
<polygon fill="black" stroke="black" points="195.34,-313.42 188.5,-305.33 188.81,-315.92 195.34,-313.42"/>
</g>
<!-- obsspacedata_mod -->
<g id="node6" class="node">
<title>obsspacedata_mod</title>
<g id="a_node6"><a xlink:href="../modules/obsspacedata_mod.svg" xlink:title="obsspacedata_mod">
<polygon fill="none" stroke="red" points="292,-233 174,-233 174,-197 292,-197 292,-233"/>
<text text-anchor="middle" x="233" y="-211.3" font-family="Times,serif" font-size="14.00">obsspacedata_mod</text>
</a>
</g>
</g>
<!-- bgckmicrowave_mod&#45;&gt;obsspacedata_mod -->
<g id="edge5" class="edge">
<title>bgckmicrowave_mod&#45;&gt;obsspacedata_mod</title>
<path fill="none" stroke="black" d="M227.69,-556.91C238.79,-530.62 258,-478.45 258,-432 258,-432 258,-432 258,-358 258,-317.6 248.06,-271.71 240.72,-243.3"/>
<polygon fill="black" stroke="black" points="244.02,-242.08 238.06,-233.32 237.25,-243.88 244.02,-242.08"/>
</g>
<!-- tovs_nl_mod -->
<g id="node7" class="node">
<title>tovs_nl_mod</title>
<g id="a_node7"><a xlink:href="../modules/tovs_nl_mod.svg" xlink:title="tovs_nl_mod">
<polygon fill="none" stroke="red" points="363.5,-161 276.5,-161 276.5,-125 363.5,-125 363.5,-161"/>
<text text-anchor="middle" x="320" y="-139.3" font-family="Times,serif" font-size="14.00">tovs_nl_mod</text>
</a>
</g>
</g>
<!-- bgckmicrowave_mod&#45;&gt;tovs_nl_mod -->
<g id="edge6" class="edge">
<title>bgckmicrowave_mod&#45;&gt;tovs_nl_mod</title>
<path fill="none" stroke="black" d="M243.19,-556.61C272.73,-532.28 320,-485.07 320,-432 320,-432 320,-432 320,-286 320,-246 320,-199.65 320,-171.08"/>
<polygon fill="black" stroke="black" points="323.5,-171.05 320,-161.05 316.5,-171.05 323.5,-171.05"/>
</g>
<!-- utilities_mod -->
<g id="node8" class="node">
<title>utilities_mod</title>
<g id="a_node8"><a xlink:href="../modules/utilities_mod.svg" xlink:title="utilities_mod">
<polygon fill="none" stroke="red" points="436,-89 348,-89 348,-53 436,-53 436,-89"/>
<text text-anchor="middle" x="392" y="-67.3" font-family="Times,serif" font-size="14.00">utilities_mod</text>
</a>
</g>
</g>
<!-- bgckmicrowave_mod&#45;&gt;utilities_mod -->
<g id="edge7" class="edge">
<title>bgckmicrowave_mod&#45;&gt;utilities_mod</title>
<path fill="none" stroke="black" d="M270.21,-556.96C320.98,-536.17 392,-495.7 392,-432 392,-432 392,-432 392,-214 392,-174 392,-127.65 392,-99.08"/>
<polygon fill="black" stroke="black" points="395.5,-99.05 392,-89.05 388.5,-99.05 395.5,-99.05"/>
</g>
</g>
</svg>
