<?xml version="1.0" encoding="UTF-8" standalone="no"?>
<!DOCTYPE svg PUBLIC "-//W3C//DTD SVG 1.1//EN"
 "http://www.w3.org/Graphics/SVG/1.1/DTD/svg11.dtd">
<!-- Generated by graphviz version 3.0.0 (20220315.2325)
 -->
<!-- Title: bgckcsr_mod Pages: 1 -->
<svg width="379pt" height="457pt"
 viewBox="0.00 0.00 379.00 457.00" xmlns="http://www.w3.org/2000/svg" xmlns:xlink="http://www.w3.org/1999/xlink">
<g id="graph0" class="graph" transform="scale(1 1) rotate(0) translate(4 453)">
<title>bgckcsr_mod</title>
<polygon fill="white" stroke="transparent" points="-4,4 -4,-453 375,-453 375,4 -4,4"/>
<text text-anchor="middle" x="185.5" y="-37.8" font-family="Times,serif" font-size="14.00">Red boxes indicate modules with dependencies not shown</text>
<text text-anchor="middle" x="185.5" y="-22.8" font-family="Times,serif" font-size="14.00">Lower level dependencies can be shown by clicking on a red box</text>
<text text-anchor="middle" x="185.5" y="-7.8" font-family="Times,serif" font-size="14.00">Shaded boxes indicate modules with no dependencies</text>
<!-- bgckcsr_mod -->
<g id="node1" class="node">
<title>bgckcsr_mod</title>
<g id="a_node1"><a xlink:href="bgckcsr_mod.html" xlink:title="bgckcsr_mod">
<polygon fill="none" stroke="black" points="233.75,-449 144.75,-449 144.75,-413 233.75,-413 233.75,-449"/>
<text text-anchor="middle" x="189.25" y="-427.3" font-family="Times,serif" font-size="14.00">bgckcsr_mod</text>
</a>
</g>
</g>
<!-- midasmpi_mod -->
<g id="node2" class="node">
<title>midasmpi_mod</title>
<g id="a_node2"><a xlink:href="../modules/midasmpi_mod.svg" xlink:title="midasmpi_mod">
<polygon fill="none" stroke="red" points="103.75,-377 2.75,-377 2.75,-341 103.75,-341 103.75,-377"/>
<text text-anchor="middle" x="53.25" y="-355.3" font-family="Times,serif" font-size="14.00">midasmpi_mod</text>
</a>
</g>
</g>
<!-- bgckcsr_mod&#45;&gt;midasmpi_mod -->
<g id="edge1" class="edge">
<title>bgckcsr_mod&#45;&gt;midasmpi_mod</title>
<path fill="none" stroke="black" d="M155.98,-412.88C137.79,-403.51 115.06,-391.81 95.61,-381.8"/>
<polygon fill="black" stroke="black" points="97.14,-378.65 86.65,-377.19 93.94,-384.88 97.14,-378.65"/>
</g>
<!-- obserrors_mod -->
<g id="node3" class="node">
<title>obserrors_mod</title>
<g id="a_node3"><a xlink:href="../modules/obserrors_mod.svg" xlink:title="obserrors_mod">
<polygon fill="none" stroke="red" points="161.25,-305 63.25,-305 63.25,-269 161.25,-269 161.25,-305"/>
<text text-anchor="middle" x="112.25" y="-283.3" font-family="Times,serif" font-size="14.00">obserrors_mod</text>
</a>
</g>
</g>
<!-- bgckcsr_mod&#45;&gt;obserrors_mod -->
<g id="edge2" class="edge">
<title>bgckcsr_mod&#45;&gt;obserrors_mod</title>
<path fill="none" stroke="black" d="M179.96,-412.87C166.67,-388.35 142.09,-343.03 126.49,-314.26"/>
<polygon fill="black" stroke="black" points="129.41,-312.31 121.57,-305.19 123.26,-315.65 129.41,-312.31"/>
</g>
<!-- obsspacedata_mod -->
<g id="node4" class="node">
<title>obsspacedata_mod</title>
<g id="a_node4"><a xlink:href="../modules/obsspacedata_mod.svg" xlink:title="obsspacedata_mod">
<polygon fill="none" stroke="red" points="224.25,-233 106.25,-233 106.25,-197 224.25,-197 224.25,-233"/>
<text text-anchor="middle" x="165.25" y="-211.3" font-family="Times,serif" font-size="14.00">obsspacedata_mod</text>
</a>
</g>
</g>
<!-- bgckcsr_mod&#45;&gt;obsspacedata_mod -->
<g id="edge3" class="edge">
<title>bgckcsr_mod&#45;&gt;obsspacedata_mod</title>
<path fill="none" stroke="black" d="M187.33,-412.85C183.18,-375.83 173.35,-288.18 168.32,-243.39"/>
<polygon fill="black" stroke="black" points="171.78,-242.78 167.18,-233.23 164.82,-243.56 171.78,-242.78"/>
</g>
<!-- tovs_nl_mod -->
<g id="node5" class="node">
<title>tovs_nl_mod</title>
<g id="a_node5"><a xlink:href="../modules/tovs_nl_mod.svg" xlink:title="tovs_nl_mod">
<polygon fill="none" stroke="red" points="295.75,-161 208.75,-161 208.75,-125 295.75,-125 295.75,-161"/>
<text text-anchor="middle" x="252.25" y="-139.3" font-family="Times,serif" font-size="14.00">tovs_nl_mod</text>
</a>
</g>
</g>
<!-- bgckcsr_mod&#45;&gt;tovs_nl_mod -->
<g id="edge4" class="edge">
<title>bgckcsr_mod&#45;&gt;tovs_nl_mod</title>
<path fill="none" stroke="black" d="M193.13,-412.88C200.86,-378.71 218.71,-299.59 233.25,-233 237.77,-212.29 242.77,-188.85 246.51,-171.22"/>
<polygon fill="black" stroke="black" points="250.01,-171.58 248.66,-161.07 243.16,-170.13 250.01,-171.58"/>
</g>
<!-- utilities_mod -->
<g id="node6" class="node">
<title>utilities_mod</title>
<g id="a_node6"><a xlink:href="../modules/utilities_mod.svg" xlink:title="utilities_mod">
<polygon fill="none" stroke="red" points="368.25,-89 280.25,-89 280.25,-53 368.25,-53 368.25,-89"/>
<text text-anchor="middle" x="324.25" y="-67.3" font-family="Times,serif" font-size="14.00">utilities_mod</text>
</a>
</g>
</g>
<!-- bgckcsr_mod&#45;&gt;utilities_mod -->
<g id="edge5" class="edge">
<title>bgckcsr_mod&#45;&gt;utilities_mod</title>
<path fill="none" stroke="black" d="M223.67,-412.87C263.66,-390.24 324.25,-346.34 324.25,-288 324.25,-288 324.25,-288 324.25,-214 324.25,-174 324.25,-127.65 324.25,-99.08"/>
<polygon fill="black" stroke="black" points="327.75,-99.05 324.25,-89.05 320.75,-99.05 327.75,-99.05"/>
</g>
</g>
</svg>
