<?xml version="1.0" encoding="UTF-8" standalone="no"?>
<!DOCTYPE svg PUBLIC "-//W3C//DTD SVG 1.1//EN"
 "http://www.w3.org/Graphics/SVG/1.1/DTD/svg11.dtd">
<!-- Generated by graphviz version 3.0.0 (20220315.2325)
 -->
<!-- Title: bgckssmis_mod Pages: 1 -->
<svg width="461pt" height="529pt"
 viewBox="0.00 0.00 461.00 529.00" xmlns="http://www.w3.org/2000/svg" xmlns:xlink="http://www.w3.org/1999/xlink">
<g id="graph0" class="graph" transform="scale(1 1) rotate(0) translate(4 525)">
<title>bgckssmis_mod</title>
<polygon fill="white" stroke="transparent" points="-4,4 -4,-525 457,-525 457,4 -4,4"/>
<text text-anchor="middle" x="226.5" y="-37.8" font-family="Times,serif" font-size="14.00">Red boxes indicate modules with dependencies not shown</text>
<text text-anchor="middle" x="226.5" y="-22.8" font-family="Times,serif" font-size="14.00">Lower level dependencies can be shown by clicking on a red box</text>
<text text-anchor="middle" x="226.5" y="-7.8" font-family="Times,serif" font-size="14.00">Shaded boxes indicate modules with no dependencies</text>
<!-- bgckssmis_mod -->
<g id="node1" class="node">
<title>bgckssmis_mod</title>
<g id="a_node1"><a xlink:href="bgckssmis_mod.html" xlink:title="bgckssmis_mod">
<polygon fill="none" stroke="black" points="307,-521 203,-521 203,-485 307,-485 307,-521"/>
<text text-anchor="middle" x="255" y="-499.3" font-family="Times,serif" font-size="14.00">bgckssmis_mod</text>
</a>
</g>
</g>
<!-- mathphysconstants_mod -->
<g id="node2" class="node">
<title>mathphysconstants_mod</title>
<g id="a_node2"><a xlink:href="mathphysconstants_mod.html" xlink:title="mathphysconstants_mod">
<polygon fill="gray" stroke="black" points="150,-449 0,-449 0,-413 150,-413 150,-449"/>
<text text-anchor="middle" x="75" y="-427.3" font-family="Times,serif" font-size="14.00">mathphysconstants_mod</text>
</a>
</g>
</g>
<!-- bgckssmis_mod&#45;&gt;mathphysconstants_mod -->
<g id="edge1" class="edge">
<title>bgckssmis_mod&#45;&gt;mathphysconstants_mod</title>
<path fill="none" stroke="black" d="M210.97,-484.88C186.03,-475.18 154.66,-462.98 128.34,-452.74"/>
<polygon fill="black" stroke="black" points="129.48,-449.43 118.89,-449.07 126.94,-455.95 129.48,-449.43"/>
</g>
<!-- midasmpi_mod -->
<g id="node3" class="node">
<title>midasmpi_mod</title>
<g id="a_node3"><a xlink:href="../modules/midasmpi_mod.svg" xlink:title="midasmpi_mod">
<polygon fill="none" stroke="red" points="207.5,-377 106.5,-377 106.5,-341 207.5,-341 207.5,-377"/>
<text text-anchor="middle" x="157" y="-355.3" font-family="Times,serif" font-size="14.00">midasmpi_mod</text>
</a>
</g>
</g>
<!-- bgckssmis_mod&#45;&gt;midasmpi_mod -->
<g id="edge2" class="edge">
<title>bgckssmis_mod&#45;&gt;midasmpi_mod</title>
<path fill="none" stroke="black" d="M243.18,-484.87C226.11,-460.14 194.43,-414.24 174.61,-385.51"/>
<polygon fill="black" stroke="black" points="177.42,-383.43 168.86,-377.19 171.66,-387.41 177.42,-383.43"/>
</g>
<!-- obserrors_mod -->
<g id="node4" class="node">
<title>obserrors_mod</title>
<g id="a_node4"><a xlink:href="../modules/obserrors_mod.svg" xlink:title="obserrors_mod">
<polygon fill="none" stroke="red" points="246,-305 148,-305 148,-269 246,-269 246,-305"/>
<text text-anchor="middle" x="197" y="-283.3" font-family="Times,serif" font-size="14.00">obserrors_mod</text>
</a>
</g>
</g>
<!-- bgckssmis_mod&#45;&gt;obserrors_mod -->
<g id="edge3" class="edge">
<title>bgckssmis_mod&#45;&gt;obserrors_mod</title>
<path fill="none" stroke="black" d="M251.49,-484.92C245.27,-455.35 231.51,-392.8 216,-341 213.41,-332.35 210.21,-323.03 207.18,-314.66"/>
<polygon fill="black" stroke="black" points="210.38,-313.2 203.63,-305.03 203.81,-315.63 210.38,-313.2"/>
</g>
<!-- obsspacedata_mod -->
<g id="node5" class="node">
<title>obsspacedata_mod</title>
<g id="a_node5"><a xlink:href="../modules/obsspacedata_mod.svg" xlink:title="obsspacedata_mod">
<polygon fill="none" stroke="red" points="309,-233 191,-233 191,-197 309,-197 309,-233"/>
<text text-anchor="middle" x="250" y="-211.3" font-family="Times,serif" font-size="14.00">obsspacedata_mod</text>
</a>
</g>
</g>
<!-- bgckssmis_mod&#45;&gt;obsspacedata_mod -->
<g id="edge4" class="edge">
<title>bgckssmis_mod&#45;&gt;obsspacedata_mod</title>
<path fill="none" stroke="black" d="M255.55,-484.74C256.67,-446.08 258.79,-349.61 255,-269 254.61,-260.66 253.87,-251.6 253.08,-243.37"/>
<polygon fill="black" stroke="black" points="256.53,-242.75 252.03,-233.16 249.57,-243.46 256.53,-242.75"/>
</g>
<!-- tovs_nl_mod -->
<g id="node6" class="node">
<title>tovs_nl_mod</title>
<g id="a_node6"><a xlink:href="../modules/tovs_nl_mod.svg" xlink:title="tovs_nl_mod">
<polygon fill="none" stroke="red" points="380.5,-161 293.5,-161 293.5,-125 380.5,-125 380.5,-161"/>
<text text-anchor="middle" x="337" y="-139.3" font-family="Times,serif" font-size="14.00">tovs_nl_mod</text>
</a>
</g>
</g>
<!-- bgckssmis_mod&#45;&gt;tovs_nl_mod -->
<g id="edge5" class="edge">
<title>bgckssmis_mod&#45;&gt;tovs_nl_mod</title>
<path fill="none" stroke="black" d="M273.2,-484.6C297.36,-459.53 337,-410.67 337,-360 337,-360 337,-360 337,-286 337,-246 337,-199.65 337,-171.08"/>
<polygon fill="black" stroke="black" points="340.5,-171.05 337,-161.05 333.5,-171.05 340.5,-171.05"/>
</g>
<!-- utilities_mod -->
<g id="node7" class="node">
<title>utilities_mod</title>
<g id="a_node7"><a xlink:href="../modules/utilities_mod.svg" xlink:title="utilities_mod">
<polygon fill="none" stroke="red" points="453,-89 365,-89 365,-53 453,-53 453,-89"/>
<text text-anchor="middle" x="409" y="-67.3" font-family="Times,serif" font-size="14.00">utilities_mod</text>
</a>
</g>
</g>
<!-- bgckssmis_mod&#45;&gt;utilities_mod -->
<g id="edge6" class="edge">
<title>bgckssmis_mod&#45;&gt;utilities_mod</title>
<path fill="none" stroke="black" d="M297.08,-484.86C342.68,-463.16 409,-421.1 409,-360 409,-360 409,-360 409,-214 409,-174 409,-127.65 409,-99.08"/>
<polygon fill="black" stroke="black" points="412.5,-99.05 409,-89.05 405.5,-99.05 412.5,-99.05"/>
</g>
</g>
</svg>
