<?xml version="1.0" encoding="UTF-8" standalone="no"?>
<!DOCTYPE svg PUBLIC "-//W3C//DTD SVG 1.1//EN"
 "http://www.w3.org/Graphics/SVG/1.1/DTD/svg11.dtd">
<!-- Generated by graphviz version 3.0.0 (20220315.2325)
 -->
<!-- Title: biascorrectionsat_mod Pages: 1 -->
<svg width="1201pt" height="673pt"
 viewBox="0.00 0.00 1200.50 673.00" xmlns="http://www.w3.org/2000/svg" xmlns:xlink="http://www.w3.org/1999/xlink">
<g id="graph0" class="graph" transform="scale(1 1) rotate(0) translate(4 669)">
<title>biascorrectionsat_mod</title>
<polygon fill="white" stroke="transparent" points="-4,4 -4,-669 1196.5,-669 1196.5,4 -4,4"/>
<text text-anchor="middle" x="596.25" y="-37.8" font-family="Times,serif" font-size="14.00">Red boxes indicate modules with dependencies not shown</text>
<text text-anchor="middle" x="596.25" y="-22.8" font-family="Times,serif" font-size="14.00">Lower level dependencies can be shown by clicking on a red box</text>
<text text-anchor="middle" x="596.25" y="-7.8" font-family="Times,serif" font-size="14.00">Shaded boxes indicate modules with no dependencies</text>
<!-- biascorrectionsat_mod -->
<g id="node1" class="node">
<title>biascorrectionsat_mod</title>
<g id="a_node1"><a xlink:href="biascorrectionsat_mod.html" xlink:title="biascorrectionsat_mod">
<polygon fill="none" stroke="black" points="709,-665 570,-665 570,-629 709,-629 709,-665"/>
<text text-anchor="middle" x="639.5" y="-643.3" font-family="Times,serif" font-size="14.00">biascorrectionsat_mod</text>
</a>
</g>
</g>
<!-- clib_interfaces_mod -->
<g id="node2" class="node">
<title>clib_interfaces_mod</title>
<g id="a_node2"><a xlink:href="clib_interfaces_mod.html" xlink:title="clib_interfaces_mod">
<polygon fill="gray" stroke="black" points="127,-593 0,-593 0,-557 127,-557 127,-593"/>
<text text-anchor="middle" x="63.5" y="-571.3" font-family="Times,serif" font-size="14.00">clib_interfaces_mod</text>
</a>
</g>
</g>
<!-- biascorrectionsat_mod&#45;&gt;clib_interfaces_mod -->
<g id="edge1" class="edge">
<title>biascorrectionsat_mod&#45;&gt;clib_interfaces_mod</title>
<path fill="none" stroke="black" d="M569.9,-640.99C473.33,-633.5 293.42,-617.57 141.5,-593 140.05,-592.76 138.58,-592.52 137.1,-592.27"/>
<polygon fill="black" stroke="black" points="137.71,-588.82 127.24,-590.48 136.46,-595.71 137.71,-588.82"/>
</g>
<!-- codeprecision_mod -->
<g id="node3" class="node">
<title>codeprecision_mod</title>
<g id="a_node3"><a xlink:href="codeprecision_mod.html" xlink:title="codeprecision_mod">
<polygon fill="gray" stroke="black" points="190.5,-521 68.5,-521 68.5,-485 190.5,-485 190.5,-521"/>
<text text-anchor="middle" x="129.5" y="-499.3" font-family="Times,serif" font-size="14.00">codeprecision_mod</text>
</a>
</g>
</g>
<!-- biascorrectionsat_mod&#45;&gt;codeprecision_mod -->
<g id="edge2" class="edge">
<title>biascorrectionsat_mod&#45;&gt;codeprecision_mod</title>
<path fill="none" stroke="black" d="M569.8,-643.67C463.31,-639.08 265.98,-626.26 204.5,-593 177.87,-578.59 156.72,-550.57 143.76,-529.79"/>
<polygon fill="black" stroke="black" points="146.7,-527.89 138.55,-521.12 140.7,-531.49 146.7,-527.89"/>
</g>
<!-- codtyp_mod -->
<g id="node4" class="node">
<title>codtyp_mod</title>
<g id="a_node4"><a xlink:href="../modules/codtyp_mod.svg" xlink:title="codtyp_mod">
<polygon fill="none" stroke="red" points="228.5,-449 144.5,-449 144.5,-413 228.5,-413 228.5,-449"/>
<text text-anchor="middle" x="186.5" y="-427.3" font-family="Times,serif" font-size="14.00">codtyp_mod</text>
</a>
</g>
</g>
<!-- biascorrectionsat_mod&#45;&gt;codtyp_mod -->
<g id="edge3" class="edge">
<title>biascorrectionsat_mod&#45;&gt;codtyp_mod</title>
<path fill="none" stroke="black" d="M569.8,-645.26C469.53,-642.81 291.26,-632.78 242.5,-593 231.78,-584.25 206.84,-502.37 194.17,-458.87"/>
<polygon fill="black" stroke="black" points="197.52,-457.84 191.38,-449.21 190.79,-459.79 197.52,-457.84"/>
</g>
<!-- columndata_mod -->
<g id="node5" class="node">
<title>columndata_mod</title>
<g id="a_node5"><a xlink:href="../modules/columndata_mod.svg" xlink:title="columndata_mod">
<polygon fill="none" stroke="red" points="266,-377 155,-377 155,-341 266,-341 266,-377"/>
<text text-anchor="middle" x="210.5" y="-355.3" font-family="Times,serif" font-size="14.00">columndata_mod</text>
</a>
</g>
</g>
<!-- biascorrectionsat_mod&#45;&gt;columndata_mod -->
<g id="edge4" class="edge">
<title>biascorrectionsat_mod&#45;&gt;columndata_mod</title>
<path fill="none" stroke="black" d="M569.79,-644.73C477.5,-641.58 321.62,-630.66 280.5,-593 219.84,-537.45 265.92,-490.18 237.5,-413 234.18,-403.99 229.71,-394.53 225.36,-386.14"/>
<polygon fill="black" stroke="black" points="228.38,-384.36 220.57,-377.2 222.21,-387.66 228.38,-384.36"/>
</g>
<!-- controlvector_mod -->
<g id="node6" class="node">
<title>controlvector_mod</title>
<g id="a_node6"><a xlink:href="../modules/controlvector_mod.svg" xlink:title="controlvector_mod">
<polygon fill="none" stroke="red" points="304.5,-305 186.5,-305 186.5,-269 304.5,-269 304.5,-305"/>
<text text-anchor="middle" x="245.5" y="-283.3" font-family="Times,serif" font-size="14.00">controlvector_mod</text>
</a>
</g>
</g>
<!-- biascorrectionsat_mod&#45;&gt;controlvector_mod -->
<g id="edge5" class="edge">
<title>biascorrectionsat_mod&#45;&gt;controlvector_mod</title>
<path fill="none" stroke="black" d="M569.77,-643.13C486.66,-638.28 354.47,-625.55 318.5,-593 288.12,-565.51 294.5,-544.97 294.5,-504 294.5,-504 294.5,-504 294.5,-430 294.5,-389.46 288.81,-378.93 274.5,-341 271.06,-331.87 266.29,-322.38 261.61,-314"/>
<polygon fill="black" stroke="black" points="264.49,-311.98 256.44,-305.08 258.43,-315.49 264.49,-311.98"/>
</g>
<!-- gridstatevectorfileio_mod -->
<g id="node7" class="node">
<title>gridstatevectorfileio_mod</title>
<g id="a_node7"><a xlink:href="../modules/gridstatevectorfileio_mod.svg" xlink:title="gridstatevectorfileio_mod">
<polygon fill="none" stroke="red" points="342,-233 187,-233 187,-197 342,-197 342,-233"/>
<text text-anchor="middle" x="264.5" y="-211.3" font-family="Times,serif" font-size="14.00">gridstatevectorfileio_mod</text>
</a>
</g>
</g>
<!-- biascorrectionsat_mod&#45;&gt;gridstatevectorfileio_mod -->
<g id="edge6" class="edge">
<title>biascorrectionsat_mod&#45;&gt;gridstatevectorfileio_mod</title>
<path fill="none" stroke="black" d="M569.79,-641.34C496.25,-635.01 386.87,-621.08 356.5,-593 326.42,-565.19 332.5,-544.97 332.5,-504 332.5,-504 332.5,-504 332.5,-358 332.5,-317.55 332.12,-304.91 313.5,-269 308.11,-258.61 300.13,-248.74 292.17,-240.41"/>
<polygon fill="black" stroke="black" points="294.49,-237.78 284.94,-233.21 289.56,-242.74 294.49,-237.78"/>
</g>
<!-- gridstatevector_mod -->
<g id="node8" class="node">
<title>gridstatevector_mod</title>
<g id="a_node8"><a xlink:href="../modules/gridstatevector_mod.svg" xlink:title="gridstatevector_mod">
<polygon fill="none" stroke="red" points="380,-161 253,-161 253,-125 380,-125 380,-161"/>
<text text-anchor="middle" x="316.5" y="-139.3" font-family="Times,serif" font-size="14.00">gridstatevector_mod</text>
</a>
</g>
</g>
<!-- biascorrectionsat_mod&#45;&gt;gridstatevector_mod -->
<g id="edge7" class="edge">
<title>biascorrectionsat_mod&#45;&gt;gridstatevector_mod</title>
<path fill="none" stroke="black" d="M569.93,-639.02C506.62,-631.28 419.37,-616.65 394.5,-593 364.81,-564.77 370.5,-544.97 370.5,-504 370.5,-504 370.5,-504 370.5,-286 370.5,-245.46 366.13,-234.41 350.5,-197 346.56,-187.57 340.96,-177.95 335.44,-169.55"/>
<polygon fill="black" stroke="black" points="338.33,-167.57 329.79,-161.29 332.55,-171.52 338.33,-167.57"/>
</g>
<!-- horizontalcoord_mod -->
<g id="node9" class="node">
<title>horizontalcoord_mod</title>
<g id="a_node9"><a xlink:href="../modules/horizontalcoord_mod.svg" xlink:title="horizontalcoord_mod">
<polygon fill="none" stroke="red" points="475,-89 342,-89 342,-53 475,-53 475,-89"/>
<text text-anchor="middle" x="408.5" y="-67.3" font-family="Times,serif" font-size="14.00">horizontalcoord_mod</text>
</a>
</g>
</g>
<!-- biascorrectionsat_mod&#45;&gt;horizontalcoord_mod -->
<g id="edge8" class="edge">
<title>biascorrectionsat_mod&#45;&gt;horizontalcoord_mod</title>
<path fill="none" stroke="black" d="M569.91,-636.66C515.96,-628 447.17,-613.36 427.5,-593 399.4,-563.91 408.5,-544.45 408.5,-504 408.5,-504 408.5,-504 408.5,-214 408.5,-174 408.5,-127.65 408.5,-99.08"/>
<polygon fill="black" stroke="black" points="412,-99.05 408.5,-89.05 405,-99.05 412,-99.05"/>
</g>
<!-- localizationfunction_mod -->
<g id="node10" class="node">
<title>localizationfunction_mod</title>
<g id="a_node10"><a xlink:href="../modules/localizationfunction_mod.svg" xlink:title="localizationfunction_mod">
<polygon fill="none" stroke="red" points="592,-593 437,-593 437,-557 592,-557 592,-593"/>
<text text-anchor="middle" x="514.5" y="-571.3" font-family="Times,serif" font-size="14.00">localizationfunction_mod</text>
</a>
</g>
</g>
<!-- biascorrectionsat_mod&#45;&gt;localizationfunction_mod -->
<g id="edge9" class="edge">
<title>biascorrectionsat_mod&#45;&gt;localizationfunction_mod</title>
<path fill="none" stroke="black" d="M608.92,-628.88C592.43,-619.64 571.88,-608.13 554.16,-598.21"/>
<polygon fill="black" stroke="black" points="555.63,-595.02 545.2,-593.19 552.21,-601.13 555.63,-595.02"/>
</g>
<!-- mathphysconstants_mod -->
<g id="node11" class="node">
<title>mathphysconstants_mod</title>
<g id="a_node11"><a xlink:href="mathphysconstants_mod.html" xlink:title="mathphysconstants_mod">
<polygon fill="gray" stroke="black" points="630.5,-521 480.5,-521 480.5,-485 630.5,-485 630.5,-521"/>
<text text-anchor="middle" x="555.5" y="-499.3" font-family="Times,serif" font-size="14.00">mathphysconstants_mod</text>
</a>
</g>
</g>
<!-- biascorrectionsat_mod&#45;&gt;mathphysconstants_mod -->
<g id="edge10" class="edge">
<title>biascorrectionsat_mod&#45;&gt;mathphysconstants_mod</title>
<path fill="none" stroke="black" d="M633.69,-628.87C627.04,-610.39 615.16,-580.46 600.5,-557 594.39,-547.23 586.58,-537.37 579.19,-528.85"/>
<polygon fill="black" stroke="black" points="581.57,-526.26 572.29,-521.14 576.35,-530.93 581.57,-526.26"/>
</g>
<!-- midasmpi_mod -->
<g id="node12" class="node">
<title>midasmpi_mod</title>
<g id="a_node12"><a xlink:href="../modules/midasmpi_mod.svg" xlink:title="midasmpi_mod">
<polygon fill="none" stroke="red" points="668,-449 567,-449 567,-413 668,-413 668,-449"/>
<text text-anchor="middle" x="617.5" y="-427.3" font-family="Times,serif" font-size="14.00">midasmpi_mod</text>
</a>
</g>
</g>
<!-- biascorrectionsat_mod&#45;&gt;midasmpi_mod -->
<g id="edge11" class="edge">
<title>biascorrectionsat_mod&#45;&gt;midasmpi_mod</title>
<path fill="none" stroke="black" d="M641.67,-628.86C644.96,-599.21 649.77,-536.54 639.5,-485 637.71,-476.01 634.36,-466.64 630.81,-458.32"/>
<polygon fill="black" stroke="black" points="633.96,-456.77 626.63,-449.12 627.58,-459.67 633.96,-456.77"/>
</g>
<!-- obserrors_mod -->
<g id="node13" class="node">
<title>obserrors_mod</title>
<g id="a_node13"><a xlink:href="../modules/obserrors_mod.svg" xlink:title="obserrors_mod">
<polygon fill="none" stroke="red" points="706.5,-377 608.5,-377 608.5,-341 706.5,-341 706.5,-377"/>
<text text-anchor="middle" x="657.5" y="-355.3" font-family="Times,serif" font-size="14.00">obserrors_mod</text>
</a>
</g>
</g>
<!-- biascorrectionsat_mod&#45;&gt;obserrors_mod -->
<g id="edge12" class="edge">
<title>biascorrectionsat_mod&#45;&gt;obserrors_mod</title>
<path fill="none" stroke="black" d="M647.26,-628.67C651.52,-618.48 656.52,-605.23 659.5,-593 678.54,-514.93 690.26,-492.17 676.5,-413 674.98,-404.24 672.14,-395.01 669.11,-386.75"/>
<polygon fill="black" stroke="black" points="672.29,-385.29 665.39,-377.25 665.78,-387.84 672.29,-385.29"/>
</g>
<!-- obsfiles_mod -->
<g id="node14" class="node">
<title>obsfiles_mod</title>
<g id="a_node14"><a xlink:href="../modules/obsfiles_mod.svg" xlink:title="obsfiles_mod">
<polygon fill="none" stroke="red" points="744,-305 655,-305 655,-269 744,-269 744,-305"/>
<text text-anchor="middle" x="699.5" y="-283.3" font-family="Times,serif" font-size="14.00">obsfiles_mod</text>
</a>
</g>
</g>
<!-- biascorrectionsat_mod&#45;&gt;obsfiles_mod -->
<g id="edge13" class="edge">
<title>biascorrectionsat_mod&#45;&gt;obsfiles_mod</title>
<path fill="none" stroke="black" d="M661.06,-628.78C689.09,-604.28 734.5,-556.5 734.5,-504 734.5,-504 734.5,-504 734.5,-430 734.5,-388.84 720.47,-342.88 710.17,-314.69"/>
<polygon fill="black" stroke="black" points="713.38,-313.28 706.58,-305.15 706.83,-315.74 713.38,-313.28"/>
</g>
<!-- obsspacedata_mod -->
<g id="node15" class="node">
<title>obsspacedata_mod</title>
<g id="a_node15"><a xlink:href="../modules/obsspacedata_mod.svg" xlink:title="obsspacedata_mod">
<polygon fill="none" stroke="red" points="782.5,-233 664.5,-233 664.5,-197 782.5,-197 782.5,-233"/>
<text text-anchor="middle" x="723.5" y="-211.3" font-family="Times,serif" font-size="14.00">obsspacedata_mod</text>
</a>
</g>
</g>
<!-- biascorrectionsat_mod&#45;&gt;obsspacedata_mod -->
<g id="edge14" class="edge">
<title>biascorrectionsat_mod&#45;&gt;obsspacedata_mod</title>
<path fill="none" stroke="black" d="M673.06,-628.93C712.46,-606.23 772.5,-562.1 772.5,-504 772.5,-504 772.5,-504 772.5,-358 772.5,-317.46 766.81,-306.93 752.5,-269 749.06,-259.87 744.29,-250.38 739.61,-242"/>
<polygon fill="black" stroke="black" points="742.49,-239.98 734.44,-233.08 736.43,-243.49 742.49,-239.98"/>
</g>
<!-- ramdisk_mod -->
<g id="node16" class="node">
<title>ramdisk_mod</title>
<g id="a_node16"><a xlink:href="../modules/ramdisk_mod.svg" xlink:title="ramdisk_mod">
<polygon fill="none" stroke="red" points="820,-161 729,-161 729,-125 820,-125 820,-161"/>
<text text-anchor="middle" x="774.5" y="-139.3" font-family="Times,serif" font-size="14.00">ramdisk_mod</text>
</a>
</g>
</g>
<!-- biascorrectionsat_mod&#45;&gt;ramdisk_mod -->
<g id="edge15" class="edge">
<title>biascorrectionsat_mod&#45;&gt;ramdisk_mod</title>
<path fill="none" stroke="black" d="M689.42,-628.87C739.89,-608.01 810.5,-567.48 810.5,-504 810.5,-504 810.5,-504 810.5,-286 810.5,-244.78 796.07,-198.83 785.48,-170.66"/>
<polygon fill="black" stroke="black" points="788.66,-169.19 781.79,-161.13 782.14,-171.72 788.66,-169.19"/>
</g>
<!-- statetocolumn_mod -->
<g id="node17" class="node">
<title>statetocolumn_mod</title>
<g id="a_node17"><a xlink:href="../modules/statetocolumn_mod.svg" xlink:title="statetocolumn_mod">
<polygon fill="none" stroke="red" points="910.5,-89 786.5,-89 786.5,-53 910.5,-53 910.5,-89"/>
<text text-anchor="middle" x="848.5" y="-67.3" font-family="Times,serif" font-size="14.00">statetocolumn_mod</text>
</a>
</g>
</g>
<!-- biascorrectionsat_mod&#45;&gt;statetocolumn_mod -->
<g id="edge16" class="edge">
<title>biascorrectionsat_mod&#45;&gt;statetocolumn_mod</title>
<path fill="none" stroke="black" d="M709.09,-629.62C769.89,-610.68 848.5,-572.87 848.5,-504 848.5,-504 848.5,-504 848.5,-214 848.5,-174 848.5,-127.65 848.5,-99.08"/>
<polygon fill="black" stroke="black" points="852,-99.05 848.5,-89.05 845,-99.05 852,-99.05"/>
</g>
<!-- timecoord_mod -->
<g id="node18" class="node">
<title>timecoord_mod</title>
<g id="a_node18"><a xlink:href="../modules/timecoord_mod.svg" xlink:title="timecoord_mod">
<polygon fill="none" stroke="red" points="978.5,-593 876.5,-593 876.5,-557 978.5,-557 978.5,-593"/>
<text text-anchor="middle" x="927.5" y="-571.3" font-family="Times,serif" font-size="14.00">timecoord_mod</text>
</a>
</g>
</g>
<!-- biascorrectionsat_mod&#45;&gt;timecoord_mod -->
<g id="edge17" class="edge">
<title>biascorrectionsat_mod&#45;&gt;timecoord_mod</title>
<path fill="none" stroke="black" d="M709.4,-629.81C753.4,-619.52 811.34,-605.77 862.5,-593 863.77,-592.68 865.06,-592.36 866.36,-592.03"/>
<polygon fill="black" stroke="black" points="867.6,-595.33 876.43,-589.47 865.88,-588.54 867.6,-595.33"/>
</g>
<!-- tovs_nl_mod -->
<g id="node19" class="node">
<title>tovs_nl_mod</title>
<g id="a_node19"><a xlink:href="../modules/tovs_nl_mod.svg" xlink:title="tovs_nl_mod">
<polygon fill="none" stroke="red" points="1033,-521 946,-521 946,-485 1033,-485 1033,-521"/>
<text text-anchor="middle" x="989.5" y="-499.3" font-family="Times,serif" font-size="14.00">tovs_nl_mod</text>
</a>
</g>
</g>
<!-- biascorrectionsat_mod&#45;&gt;tovs_nl_mod -->
<g id="edge18" class="edge">
<title>biascorrectionsat_mod&#45;&gt;tovs_nl_mod</title>
<path fill="none" stroke="black" d="M709.04,-645.56C799.97,-643.35 951.89,-633.51 987.5,-593 1002.12,-576.37 1001,-550.48 997.18,-530.91"/>
<polygon fill="black" stroke="black" points="1000.57,-530.03 994.94,-521.05 993.75,-531.58 1000.57,-530.03"/>
</g>
<!-- utilities_mod -->
<g id="node20" class="node">
<title>utilities_mod</title>
<g id="a_node20"><a xlink:href="../modules/utilities_mod.svg" xlink:title="utilities_mod">
<polygon fill="none" stroke="red" points="1105.5,-449 1017.5,-449 1017.5,-413 1105.5,-413 1105.5,-449"/>
<text text-anchor="middle" x="1061.5" y="-427.3" font-family="Times,serif" font-size="14.00">utilities_mod</text>
</a>
</g>
</g>
<!-- biascorrectionsat_mod&#45;&gt;utilities_mod -->
<g id="edge19" class="edge">
<title>biascorrectionsat_mod&#45;&gt;utilities_mod</title>
<path fill="none" stroke="black" d="M709.33,-643.81C802.89,-639.57 962.49,-627.39 1008.5,-593 1050.33,-561.73 1059.64,-496.44 1061.41,-459.32"/>
<polygon fill="black" stroke="black" points="1064.91,-459.32 1061.74,-449.22 1057.91,-459.1 1064.91,-459.32"/>
</g>
<!-- verticalcoord_mod -->
<g id="node21" class="node">
<title>verticalcoord_mod</title>
<g id="a_node21"><a xlink:href="../modules/verticalcoord_mod.svg" xlink:title="verticalcoord_mod">
<polygon fill="none" stroke="red" points="1192.5,-377 1074.5,-377 1074.5,-341 1192.5,-341 1192.5,-377"/>
<text text-anchor="middle" x="1133.5" y="-355.3" font-family="Times,serif" font-size="14.00">verticalcoord_mod</text>
</a>
</g>
</g>
<!-- biascorrectionsat_mod&#45;&gt;verticalcoord_mod -->
<g id="edge20" class="edge">
<title>biascorrectionsat_mod&#45;&gt;verticalcoord_mod</title>
<path fill="none" stroke="black" d="M709.03,-644.26C808.65,-640.52 985.72,-628.89 1037.5,-593 1106.51,-545.17 1126,-438.1 1131.44,-387.5"/>
<polygon fill="black" stroke="black" points="1134.94,-387.61 1132.42,-377.32 1127.98,-386.93 1134.94,-387.61"/>
</g>
</g>
</svg>
