<?xml version="1.0" encoding="UTF-8" standalone="no"?>
<!DOCTYPE svg PUBLIC "-//W3C//DTD SVG 1.1//EN"
 "http://www.w3.org/Graphics/SVG/1.1/DTD/svg11.dtd">
<!-- Generated by graphviz version 3.0.0 (20220315.2325)
 -->
<!-- Title: biascorrectionconv_mod Pages: 1 -->
<svg width="421pt" height="601pt"
 viewBox="0.00 0.00 421.00 601.00" xmlns="http://www.w3.org/2000/svg" xmlns:xlink="http://www.w3.org/1999/xlink">
<g id="graph0" class="graph" transform="scale(1 1) rotate(0) translate(4 597)">
<title>biascorrectionconv_mod</title>
<polygon fill="white" stroke="transparent" points="-4,4 -4,-597 417,-597 417,4 -4,4"/>
<text text-anchor="middle" x="206.5" y="-37.8" font-family="Times,serif" font-size="14.00">Red boxes indicate modules with dependencies not shown</text>
<text text-anchor="middle" x="206.5" y="-22.8" font-family="Times,serif" font-size="14.00">Lower level dependencies can be shown by clicking on a red box</text>
<text text-anchor="middle" x="206.5" y="-7.8" font-family="Times,serif" font-size="14.00">Shaded boxes indicate modules with no dependencies</text>
<!-- biascorrectionconv_mod -->
<g id="node1" class="node">
<title>biascorrectionconv_mod</title>
<g id="a_node1"><a xlink:href="biascorrectionconv_mod.html" xlink:title="biascorrectionconv_mod">
<polygon fill="none" stroke="black" points="265,-593 115,-593 115,-557 265,-557 265,-593"/>
<text text-anchor="middle" x="190" y="-571.3" font-family="Times,serif" font-size="14.00">biascorrectionconv_mod</text>
</a>
</g>
</g>
<!-- bufr_mod -->
<g id="node2" class="node">
<title>bufr_mod</title>
<g id="a_node2"><a xlink:href="bufr_mod.html" xlink:title="bufr_mod">
<polygon fill="gray" stroke="black" points="70,-521 0,-521 0,-485 70,-485 70,-521"/>
<text text-anchor="middle" x="35" y="-499.3" font-family="Times,serif" font-size="14.00">bufr_mod</text>
</a>
</g>
</g>
<!-- biascorrectionconv_mod&#45;&gt;bufr_mod -->
<g id="edge1" class="edge">
<title>biascorrectionconv_mod&#45;&gt;bufr_mod</title>
<path fill="none" stroke="black" d="M152.08,-556.88C130.11,-546.95 102.32,-534.4 79.34,-524.02"/>
<polygon fill="black" stroke="black" points="80.69,-520.79 70.14,-519.87 77.81,-527.17 80.69,-520.79"/>
</g>
<!-- codtyp_mod -->
<g id="node3" class="node">
<title>codtyp_mod</title>
<g id="a_node3"><a xlink:href="../modules/codtyp_mod.svg" xlink:title="codtyp_mod">
<polygon fill="none" stroke="red" points="124,-449 40,-449 40,-413 124,-413 124,-449"/>
<text text-anchor="middle" x="82" y="-427.3" font-family="Times,serif" font-size="14.00">codtyp_mod</text>
</a>
</g>
</g>
<!-- biascorrectionconv_mod&#45;&gt;codtyp_mod -->
<g id="edge2" class="edge">
<title>biascorrectionconv_mod&#45;&gt;codtyp_mod</title>
<path fill="none" stroke="black" d="M171.18,-556.74C160.82,-546.78 148.07,-533.74 138,-521 122.19,-501 106.97,-476.33 96.39,-458.04"/>
<polygon fill="black" stroke="black" points="99.3,-456.08 91.31,-449.12 93.22,-459.54 99.3,-456.08"/>
</g>
<!-- mathphysconstants_mod -->
<g id="node4" class="node">
<title>mathphysconstants_mod</title>
<g id="a_node4"><a xlink:href="mathphysconstants_mod.html" xlink:title="mathphysconstants_mod">
<polygon fill="gray" stroke="black" points="162,-377 12,-377 12,-341 162,-341 162,-377"/>
<text text-anchor="middle" x="87" y="-355.3" font-family="Times,serif" font-size="14.00">mathphysconstants_mod</text>
</a>
</g>
</g>
<!-- biascorrectionconv_mod&#45;&gt;mathphysconstants_mod -->
<g id="edge3" class="edge">
<title>biascorrectionconv_mod&#45;&gt;mathphysconstants_mod</title>
<path fill="none" stroke="black" d="M184.82,-556.86C173.79,-520.8 147.78,-438.36 133,-413 127.24,-403.11 119.51,-393.34 112.03,-384.93"/>
<polygon fill="black" stroke="black" points="114.37,-382.3 105.01,-377.33 109.22,-387.05 114.37,-382.3"/>
</g>
<!-- midasmpi_mod -->
<g id="node5" class="node">
<title>midasmpi_mod</title>
<g id="a_node5"><a xlink:href="../modules/midasmpi_mod.svg" xlink:title="midasmpi_mod">
<polygon fill="none" stroke="red" points="199.5,-305 98.5,-305 98.5,-269 199.5,-269 199.5,-305"/>
<text text-anchor="middle" x="149" y="-283.3" font-family="Times,serif" font-size="14.00">midasmpi_mod</text>
</a>
</g>
</g>
<!-- biascorrectionconv_mod&#45;&gt;midasmpi_mod -->
<g id="edge4" class="edge">
<title>biascorrectionconv_mod&#45;&gt;midasmpi_mod</title>
<path fill="none" stroke="black" d="M190.41,-556.76C190.95,-517.73 190.09,-419.89 171,-341 168.84,-332.09 165.4,-322.74 161.86,-314.42"/>
<polygon fill="black" stroke="black" points="165.02,-312.91 157.75,-305.2 158.63,-315.76 165.02,-312.91"/>
</g>
<!-- obsspacedata_mod -->
<g id="node6" class="node">
<title>obsspacedata_mod</title>
<g id="a_node6"><a xlink:href="../modules/obsspacedata_mod.svg" xlink:title="obsspacedata_mod">
<polygon fill="none" stroke="red" points="262,-233 144,-233 144,-197 262,-197 262,-233"/>
<text text-anchor="middle" x="203" y="-211.3" font-family="Times,serif" font-size="14.00">obsspacedata_mod</text>
</a>
</g>
</g>
<!-- biascorrectionconv_mod&#45;&gt;obsspacedata_mod -->
<g id="edge5" class="edge">
<title>biascorrectionconv_mod&#45;&gt;obsspacedata_mod</title>
<path fill="none" stroke="black" d="M197.69,-556.91C208.79,-530.62 228,-478.45 228,-432 228,-432 228,-432 228,-358 228,-317.6 218.06,-271.71 210.72,-243.3"/>
<polygon fill="black" stroke="black" points="214.02,-242.08 208.06,-233.32 207.25,-243.88 214.02,-242.08"/>
</g>
<!-- timecoord_mod -->
<g id="node7" class="node">
<title>timecoord_mod</title>
<g id="a_node7"><a xlink:href="../modules/timecoord_mod.svg" xlink:title="timecoord_mod">
<polygon fill="none" stroke="red" points="341,-161 239,-161 239,-125 341,-125 341,-161"/>
<text text-anchor="middle" x="290" y="-139.3" font-family="Times,serif" font-size="14.00">timecoord_mod</text>
</a>
</g>
</g>
<!-- biascorrectionconv_mod&#45;&gt;timecoord_mod -->
<g id="edge6" class="edge">
<title>biascorrectionconv_mod&#45;&gt;timecoord_mod</title>
<path fill="none" stroke="black" d="M213.19,-556.61C242.73,-532.28 290,-485.07 290,-432 290,-432 290,-432 290,-286 290,-246 290,-199.65 290,-171.08"/>
<polygon fill="black" stroke="black" points="293.5,-171.05 290,-161.05 286.5,-171.05 293.5,-171.05"/>
</g>
<!-- utilities_mod -->
<g id="node8" class="node">
<title>utilities_mod</title>
<g id="a_node8"><a xlink:href="../modules/utilities_mod.svg" xlink:title="utilities_mod">
<polygon fill="none" stroke="red" points="413,-89 325,-89 325,-53 413,-53 413,-89"/>
<text text-anchor="middle" x="369" y="-67.3" font-family="Times,serif" font-size="14.00">utilities_mod</text>
</a>
</g>
</g>
<!-- biascorrectionconv_mod&#45;&gt;utilities_mod -->
<g id="edge7" class="edge">
<title>biascorrectionconv_mod&#45;&gt;utilities_mod</title>
<path fill="none" stroke="black" d="M243.71,-556.99C296.43,-536.55 369,-496.66 369,-432 369,-432 369,-432 369,-214 369,-174 369,-127.65 369,-99.08"/>
<polygon fill="black" stroke="black" points="372.5,-99.05 369,-89.05 365.5,-99.05 372.5,-99.05"/>
</g>
</g>
</svg>
