<?xml version="1.0" encoding="UTF-8" standalone="no"?>
<!DOCTYPE svg PUBLIC "-//W3C//DTD SVG 1.1//EN"
 "http://www.w3.org/Graphics/SVG/1.1/DTD/svg11.dtd">
<!-- Generated by graphviz version 3.0.0 (20220315.2325)
 -->
<!-- Title: biascorrectionsat_mod Pages: 1 -->
<svg width="496pt" height="601pt"
 viewBox="0.00 0.00 495.50 601.00" xmlns="http://www.w3.org/2000/svg" xmlns:xlink="http://www.w3.org/1999/xlink">
<g id="graph0" class="graph" transform="scale(1 1) rotate(0) translate(4 597)">
<title>biascorrectionsat_mod</title>
<polygon fill="white" stroke="transparent" points="-4,4 -4,-597 491.5,-597 491.5,4 -4,4"/>
<text text-anchor="middle" x="243.75" y="-577.8" font-family="Times,serif" font-size="14.00">Blue boxes indicate modules with reverse dependencies not shown</text>
<text text-anchor="middle" x="243.75" y="-562.8" font-family="Times,serif" font-size="14.00">Higher level reverse dependencies can be shown by clicking on a blue box</text>
<text text-anchor="middle" x="243.75" y="-547.8" font-family="Times,serif" font-size="14.00">Green boxes are programs</text>
<!-- biascorrectionsat_mod -->
<g id="node1" class="node">
<title>biascorrectionsat_mod</title>
<g id="a_node1"><a xlink:href="biascorrectionsat_mod.html" xlink:title="biascorrectionsat_mod">
<polygon fill="none" stroke="black" points="302.5,-36 163.5,-36 163.5,0 302.5,0 302.5,-36"/>
<text text-anchor="middle" x="233" y="-14.3" font-family="Times,serif" font-size="14.00">biascorrectionsat_mod</text>
</a>
</g>
</g>
<!-- innovation_mod -->
<g id="node2" class="node">
<title>innovation_mod</title>
<g id="a_node2"><a xlink:href="../modules/innovation_mod_rev.svg" xlink:title="innovation_mod">
<polygon fill="none" stroke="blue" points="104,-108 0,-108 0,-72 104,-72 104,-108"/>
<text text-anchor="middle" x="52" y="-86.3" font-family="Times,serif" font-size="14.00">innovation_mod</text>
</a>
</g>
</g>
<!-- innovation_mod&#45;&gt;biascorrectionsat_mod -->
<g id="edge1" class="edge">
<title>innovation_mod&#45;&gt;biascorrectionsat_mod</title>
<path fill="none" stroke="black" d="M104.05,-68.87C130.89,-58.49 163.27,-45.97 188.87,-36.07"/>
<ellipse fill="black" stroke="black" cx="100.01" cy="-70.43" rx="4" ry="4"/>
</g>
<!-- minimization_mod -->
<g id="node3" class="node">
<title>minimization_mod</title>
<g id="a_node3"><a xlink:href="../modules/minimization_mod_rev.svg" xlink:title="minimization_mod">
<polygon fill="none" stroke="blue" points="166.5,-180 45.5,-180 45.5,-144 166.5,-144 166.5,-180"/>
<text text-anchor="middle" x="106" y="-158.3" font-family="Times,serif" font-size="14.00">minimization_mod</text>
</a>
</g>
</g>
<!-- minimization_mod&#45;&gt;biascorrectionsat_mod -->
<g id="edge2" class="edge">
<title>minimization_mod&#45;&gt;biascorrectionsat_mod</title>
<path fill="none" stroke="black" d="M124.9,-137.6C139.79,-119.41 161.26,-93.7 181,-72 192.1,-59.79 205.1,-46.54 215.33,-36.35"/>
<ellipse fill="black" stroke="black" cx="122.26" cy="-140.84" rx="4" ry="4"/>
</g>
<!-- midas_midas_gencoeff -->
<g id="node4" class="node">
<title>midas_midas_gencoeff</title>
<g id="a_node4"><a xlink:href="../programs/midas_gencoeff.html" xlink:title="midas_midas_gencoeff">
<polygon fill="gray" stroke="green" points="204.5,-252 61.5,-252 61.5,-216 204.5,-216 204.5,-252"/>
<text text-anchor="middle" x="133" y="-230.3" font-family="Times,serif" font-size="14.00">midas_midas_gencoeff</text>
</a>
</g>
</g>
<!-- midas_midas_gencoeff&#45;&gt;biascorrectionsat_mod -->
<g id="edge3" class="edge">
<title>midas_midas_gencoeff&#45;&gt;biascorrectionsat_mod</title>
<path fill="none" stroke="black" d="M154.12,-209.74C161.42,-200.88 169.21,-190.4 175,-180 202.31,-130.94 220.91,-66.56 228.77,-36.23"/>
<ellipse fill="black" stroke="black" cx="151.51" cy="-212.82" rx="4" ry="4"/>
</g>
<!-- midas_midas_obsselection -->
<g id="node5" class="node">
<title>midas_midas_obsselection</title>
<g id="a_node5"><a xlink:href="../programs/midas_obsselection.html" xlink:title="midas_midas_obsselection">
<polygon fill="gray" stroke="green" points="242.5,-324 79.5,-324 79.5,-288 242.5,-288 242.5,-324"/>
<text text-anchor="middle" x="161" y="-302.3" font-family="Times,serif" font-size="14.00">midas_midas_obsselection</text>
</a>
</g>
</g>
<!-- midas_midas_obsselection&#45;&gt;biascorrectionsat_mod -->
<g id="edge4" class="edge">
<title>midas_midas_obsselection&#45;&gt;biascorrectionsat_mod</title>
<path fill="none" stroke="black" d="M190.08,-282.34C198.96,-273.83 207.75,-263.42 213,-252 247.16,-177.66 239.94,-76 235.31,-36.08"/>
<ellipse fill="black" stroke="black" cx="186.92" cy="-285.22" rx="4" ry="4"/>
</g>
<!-- midas_midas_ominusf -->
<g id="node6" class="node">
<title>midas_midas_ominusf</title>
<g id="a_node6"><a xlink:href="../programs/midas_ominusf.html" xlink:title="midas_midas_ominusf">
<polygon fill="gray" stroke="green" points="312,-396 170,-396 170,-360 312,-360 312,-396"/>
<text text-anchor="middle" x="241" y="-374.3" font-family="Times,serif" font-size="14.00">midas_midas_ominusf</text>
</a>
</g>
</g>
<!-- midas_midas_ominusf&#45;&gt;biascorrectionsat_mod -->
<g id="edge5" class="edge">
<title>midas_midas_ominusf&#45;&gt;biascorrectionsat_mod</title>
<path fill="none" stroke="black" d="M249.57,-352.02C258.44,-323.92 271,-276.74 271,-235 271,-235 271,-235 271,-161 271,-114.55 251.79,-62.38 240.69,-36.09"/>
<ellipse fill="black" stroke="black" cx="248.3" cy="-355.95" rx="4" ry="4"/>
</g>
<!-- midas_midas_var1d -->
<g id="node7" class="node">
<title>midas_midas_var1d</title>
<g id="a_node7"><a xlink:href="../programs/midas_var1d.html" xlink:title="midas_midas_var1d">
<polygon fill="gray" stroke="green" points="403,-468 277,-468 277,-432 403,-432 403,-468"/>
<text text-anchor="middle" x="340" y="-446.3" font-family="Times,serif" font-size="14.00">midas_midas_var1d</text>
</a>
</g>
</g>
<!-- midas_midas_var1d&#45;&gt;biascorrectionsat_mod -->
<g id="edge6" class="edge">
<title>midas_midas_var1d&#45;&gt;biascorrectionsat_mod</title>
<path fill="none" stroke="black" d="M340,-423.78C340,-395.39 340,-347.89 340,-307 340,-307 340,-307 340,-161 340,-106.67 289.43,-59.93 257.82,-36.02"/>
<ellipse fill="black" stroke="black" cx="340" cy="-427.95" rx="4" ry="4"/>
</g>
<!-- midas_midas_var -->
<g id="node8" class="node">
<title>midas_midas_var</title>
<g id="a_node8"><a xlink:href="../programs/midas_var.html" xlink:title="midas_midas_var">
<polygon fill="gray" stroke="green" points="487.5,-540 374.5,-540 374.5,-504 487.5,-504 487.5,-540"/>
<text text-anchor="middle" x="431" y="-518.3" font-family="Times,serif" font-size="14.00">midas_midas_var</text>
</a>
</g>
</g>
<!-- midas_midas_var&#45;&gt;biascorrectionsat_mod -->
<g id="edge7" class="edge">
<title>midas_midas_var&#45;&gt;biascorrectionsat_mod</title>
<path fill="none" stroke="black" d="M431,-495.78C431,-467.39 431,-419.89 431,-379 431,-379 431,-379 431,-161 431,-94.06 355.34,-55.62 297.56,-36.02"/>
<ellipse fill="black" stroke="black" cx="431" cy="-499.95" rx="4" ry="4"/>
</g>
</g>
</svg>
