<?xml version="1.0" encoding="UTF-8" standalone="no"?>
<!DOCTYPE svg PUBLIC "-//W3C//DTD SVG 1.1//EN"
 "http://www.w3.org/Graphics/SVG/1.1/DTD/svg11.dtd">
<!-- Generated by graphviz version 3.0.0 (20220315.2325)
 -->
<!-- Title: biascorrectionconv_mod Pages: 1 -->
<svg width="430pt" height="313pt"
 viewBox="0.00 0.00 430.00 313.00" xmlns="http://www.w3.org/2000/svg" xmlns:xlink="http://www.w3.org/1999/xlink">
<g id="graph0" class="graph" transform="scale(1 1) rotate(0) translate(4 309)">
<title>biascorrectionconv_mod</title>
<polygon fill="white" stroke="transparent" points="-4,4 -4,-309 426,-309 426,4 -4,4"/>
<text text-anchor="middle" x="211" y="-289.8" font-family="Times,serif" font-size="14.00">Blue boxes indicate modules with reverse dependencies not shown</text>
<text text-anchor="middle" x="211" y="-274.8" font-family="Times,serif" font-size="14.00">Higher level reverse dependencies can be shown by clicking on a blue box</text>
<text text-anchor="middle" x="211" y="-259.8" font-family="Times,serif" font-size="14.00">Green boxes are programs</text>
<!-- biascorrectionconv_mod -->
<g id="node1" class="node">
<title>biascorrectionconv_mod</title>
<g id="a_node1"><a xlink:href="biascorrectionconv_mod.html" xlink:title="biascorrectionconv_mod">
<polygon fill="none" stroke="black" points="266.5,-36 116.5,-36 116.5,0 266.5,0 266.5,-36"/>
<text text-anchor="middle" x="191.5" y="-14.3" font-family="Times,serif" font-size="14.00">biascorrectionconv_mod</text>
</a>
</g>
</g>
<!-- obsfiles_mod -->
<g id="node2" class="node">
<title>obsfiles_mod</title>
<g id="a_node2"><a xlink:href="../modules/obsfiles_mod_rev.svg" xlink:title="obsfiles_mod">
<polygon fill="none" stroke="blue" points="163,-108 74,-108 74,-72 163,-72 163,-108"/>
<text text-anchor="middle" x="118.5" y="-86.3" font-family="Times,serif" font-size="14.00">obsfiles_mod</text>
</a>
</g>
</g>
<!-- obsfiles_mod&#45;&gt;biascorrectionconv_mod -->
<g id="edge1" class="edge">
<title>obsfiles_mod&#45;&gt;biascorrectionconv_mod</title>
<path fill="none" stroke="black" d="M142.34,-66.13C152.54,-56.36 164.24,-45.14 173.66,-36.1"/>
<ellipse fill="black" stroke="black" cx="139.43" cy="-68.93" rx="4" ry="4"/>
</g>
<!-- ominusf_mod -->
<g id="node3" class="node">
<title>ominusf_mod</title>
<g id="a_node3"><a xlink:href="../modules/ominusf_mod_rev.svg" xlink:title="ominusf_mod">
<polygon fill="none" stroke="blue" points="238,-180 145,-180 145,-144 238,-144 238,-180"/>
<text text-anchor="middle" x="191.5" y="-158.3" font-family="Times,serif" font-size="14.00">ominusf_mod</text>
</a>
</g>
</g>
<!-- ominusf_mod&#45;&gt;biascorrectionconv_mod -->
<g id="edge2" class="edge">
<title>ominusf_mod&#45;&gt;biascorrectionconv_mod</title>
<path fill="none" stroke="black" d="M191.5,-135.56C191.5,-106.86 191.5,-60.96 191.5,-36.19"/>
<ellipse fill="black" stroke="black" cx="191.5" cy="-139.87" rx="4" ry="4"/>
</g>
<!-- midas_midas_obsselection -->
<g id="node4" class="node">
<title>midas_midas_obsselection</title>
<g id="a_node4"><a xlink:href="../programs/midas_obsselection.html" xlink:title="midas_midas_obsselection">
<polygon fill="gray" stroke="green" points="348,-252 185,-252 185,-216 348,-216 348,-252"/>
<text text-anchor="middle" x="266.5" y="-230.3" font-family="Times,serif" font-size="14.00">midas_midas_obsselection</text>
</a>
</g>
</g>
<!-- midas_midas_obsselection&#45;&gt;biascorrectionconv_mod -->
<g id="edge3" class="edge">
<title>midas_midas_obsselection&#45;&gt;biascorrectionconv_mod</title>
<path fill="none" stroke="black" d="M262.11,-207.41C258.7,-189.43 253.39,-164.94 246.5,-144 233.46,-104.36 212.36,-60.14 200.44,-36.38"/>
<ellipse fill="black" stroke="black" cx="262.91" cy="-211.74" rx="4" ry="4"/>
</g>
</g>
</svg>
