<?xml version="1.0" encoding="UTF-8" standalone="no"?>
<!DOCTYPE svg PUBLIC "-//W3C//DTD SVG 1.1//EN"
 "http://www.w3.org/Graphics/SVG/1.1/DTD/svg11.dtd">
<!-- Generated by graphviz version 3.0.0 (20220315.2325)
 -->
<!-- Title: bmatrixhi_mod Pages: 1 -->
<svg width="430pt" height="385pt"
 viewBox="0.00 0.00 430.00 385.00" xmlns="http://www.w3.org/2000/svg" xmlns:xlink="http://www.w3.org/1999/xlink">
<g id="graph0" class="graph" transform="scale(1 1) rotate(0) translate(4 381)">
<title>bmatrixhi_mod</title>
<polygon fill="white" stroke="transparent" points="-4,4 -4,-381 426,-381 426,4 -4,4"/>
<text text-anchor="middle" x="211" y="-361.8" font-family="Times,serif" font-size="14.00">Blue boxes indicate modules with reverse dependencies not shown</text>
<text text-anchor="middle" x="211" y="-346.8" font-family="Times,serif" font-size="14.00">Higher level reverse dependencies can be shown by clicking on a blue box</text>
<text text-anchor="middle" x="211" y="-331.8" font-family="Times,serif" font-size="14.00">Green boxes are programs</text>
<!-- bmatrixhi_mod -->
<g id="node1" class="node">
<title>bmatrixhi_mod</title>
<g id="a_node1"><a xlink:href="bmatrixhi_mod.html" xlink:title="bmatrixhi_mod">
<polygon fill="none" stroke="black" points="239.25,-36 139.25,-36 139.25,0 239.25,0 239.25,-36"/>
<text text-anchor="middle" x="189.25" y="-14.3" font-family="Times,serif" font-size="14.00">bmatrixhi_mod</text>
</a>
</g>
</g>
<!-- bmatrix_mod -->
<g id="node2" class="node">
<title>bmatrix_mod</title>
<g id="a_node2"><a xlink:href="../modules/bmatrix_mod_rev.svg" xlink:title="bmatrix_mod">
<polygon fill="none" stroke="blue" points="116.75,-108 27.75,-108 27.75,-72 116.75,-72 116.75,-108"/>
<text text-anchor="middle" x="72.25" y="-86.3" font-family="Times,serif" font-size="14.00">bmatrix_mod</text>
</a>
</g>
</g>
<!-- bmatrix_mod&#45;&gt;bmatrixhi_mod -->
<g id="edge1" class="edge">
<title>bmatrix_mod&#45;&gt;bmatrixhi_mod</title>
<path fill="none" stroke="black" d="M107.9,-67.67C124.76,-57.58 144.64,-45.69 160.52,-36.19"/>
<ellipse fill="black" stroke="black" cx="104.3" cy="-69.82" rx="4" ry="4"/>
</g>
<!-- obsspacediag_mod -->
<g id="node3" class="node">
<title>obsspacediag_mod</title>
<g id="a_node3"><a xlink:href="../modules/obsspacediag_mod_rev.svg" xlink:title="obsspacediag_mod">
<polygon fill="none" stroke="blue" points="182.75,-180 63.75,-180 63.75,-144 182.75,-144 182.75,-180"/>
<text text-anchor="middle" x="123.25" y="-158.3" font-family="Times,serif" font-size="14.00">obsspacediag_mod</text>
</a>
</g>
</g>
<!-- obsspacediag_mod&#45;&gt;bmatrixhi_mod -->
<g id="edge2" class="edge">
<title>obsspacediag_mod&#45;&gt;bmatrixhi_mod</title>
<path fill="none" stroke="black" d="M134.73,-136.3C148.05,-107.65 169.65,-61.17 181.26,-36.19"/>
<ellipse fill="black" stroke="black" cx="132.9" cy="-140.24" rx="4" ry="4"/>
</g>
<!-- obsspaceerrorstddev_mod -->
<g id="node4" class="node">
<title>obsspaceerrorstddev_mod</title>
<g id="a_node4"><a xlink:href="../modules/obsspaceerrorstddev_mod_rev.svg" xlink:title="obsspaceerrorstddev_mod">
<polygon fill="none" stroke="blue" points="289.75,-252 132.75,-252 132.75,-216 289.75,-216 289.75,-252"/>
<text text-anchor="middle" x="211.25" y="-230.3" font-family="Times,serif" font-size="14.00">obsspaceerrorstddev_mod</text>
</a>
</g>
</g>
<!-- obsspaceerrorstddev_mod&#45;&gt;bmatrixhi_mod -->
<g id="edge3" class="edge">
<title>obsspaceerrorstddev_mod&#45;&gt;bmatrixhi_mod</title>
<path fill="none" stroke="black" d="M208.65,-207.67C204.11,-163.59 194.89,-73.87 191.02,-36.23"/>
<ellipse fill="black" stroke="black" cx="209.08" cy="-211.87" rx="4" ry="4"/>
</g>
<!-- midas_midas_adjointtest -->
<g id="node5" class="node">
<title>midas_midas_adjointtest</title>
<g id="a_node5"><a xlink:href="../programs/midas_adjointtest.html" xlink:title="midas_midas_adjointtest">
<polygon fill="gray" stroke="green" points="394.25,-324 242.25,-324 242.25,-288 394.25,-288 394.25,-324"/>
<text text-anchor="middle" x="318.25" y="-302.3" font-family="Times,serif" font-size="14.00">midas_midas_adjointtest</text>
</a>
</g>
</g>
<!-- midas_midas_adjointtest&#45;&gt;bmatrixhi_mod -->
<g id="edge4" class="edge">
<title>midas_midas_adjointtest&#45;&gt;bmatrixhi_mod</title>
<path fill="none" stroke="black" d="M314.51,-279.54C311.38,-261.43 306.13,-236.74 298.25,-216 271.45,-145.48 223.11,-69.32 200.94,-36.11"/>
<ellipse fill="black" stroke="black" cx="315.23" cy="-283.9" rx="4" ry="4"/>
</g>
</g>
</svg>
