<?xml version="1.0" encoding="UTF-8" standalone="no"?>
<!DOCTYPE svg PUBLIC "-//W3C//DTD SVG 1.1//EN"
 "http://www.w3.org/Graphics/SVG/1.1/DTD/svg11.dtd">
<!-- Generated by graphviz version 3.0.0 (20220315.2325)
 -->
<!-- Title: bmatrix1dvar_mod Pages: 1 -->
<svg width="1210pt" height="673pt"
 viewBox="0.00 0.00 1209.50 673.00" xmlns="http://www.w3.org/2000/svg" xmlns:xlink="http://www.w3.org/1999/xlink">
<g id="graph0" class="graph" transform="scale(1 1) rotate(0) translate(4 669)">
<title>bmatrix1dvar_mod</title>
<polygon fill="white" stroke="transparent" points="-4,4 -4,-669 1205.5,-669 1205.5,4 -4,4"/>
<text text-anchor="middle" x="600.75" y="-37.8" font-family="Times,serif" font-size="14.00">Red boxes indicate modules with dependencies not shown</text>
<text text-anchor="middle" x="600.75" y="-22.8" font-family="Times,serif" font-size="14.00">Lower level dependencies can be shown by clicking on a red box</text>
<text text-anchor="middle" x="600.75" y="-7.8" font-family="Times,serif" font-size="14.00">Shaded boxes indicate modules with no dependencies</text>
<!-- bmatrix1dvar_mod -->
<g id="node1" class="node">
<title>bmatrix1dvar_mod</title>
<g id="a_node1"><a xlink:href="bmatrix1dvar_mod.html" xlink:title="bmatrix1dvar_mod">
<polygon fill="none" stroke="black" points="714,-665 595,-665 595,-629 714,-629 714,-665"/>
<text text-anchor="middle" x="654.5" y="-643.3" font-family="Times,serif" font-size="14.00">bmatrix1dvar_mod</text>
</a>
</g>
</g>
<!-- calcheightandpressure_mod -->
<g id="node2" class="node">
<title>calcheightandpressure_mod</title>
<g id="a_node2"><a xlink:href="../modules/calcheightandpressure_mod.svg" xlink:title="calcheightandpressure_mod">
<polygon fill="none" stroke="red" points="167,-593 0,-593 0,-557 167,-557 167,-593"/>
<text text-anchor="middle" x="83.5" y="-571.3" font-family="Times,serif" font-size="14.00">calcheightandpressure_mod</text>
</a>
</g>
</g>
<!-- bmatrix1dvar_mod&#45;&gt;calcheightandpressure_mod -->
<g id="edge1" class="edge">
<title>bmatrix1dvar_mod&#45;&gt;calcheightandpressure_mod</title>
<path fill="none" stroke="black" d="M594.86,-640.53C504.86,-632.01 329.06,-614.3 180.5,-593 179.4,-592.84 178.29,-592.68 177.18,-592.52"/>
<polygon fill="black" stroke="black" points="177.46,-589.02 167.05,-590.98 176.41,-595.94 177.46,-589.02"/>
</g>
<!-- columndata_mod -->
<g id="node3" class="node">
<title>columndata_mod</title>
<g id="a_node3"><a xlink:href="../modules/columndata_mod.svg" xlink:title="columndata_mod">
<polygon fill="none" stroke="red" points="227,-521 116,-521 116,-485 227,-485 227,-521"/>
<text text-anchor="middle" x="171.5" y="-499.3" font-family="Times,serif" font-size="14.00">columndata_mod</text>
</a>
</g>
</g>
<!-- bmatrix1dvar_mod&#45;&gt;columndata_mod -->
<g id="edge2" class="edge">
<title>bmatrix1dvar_mod&#45;&gt;columndata_mod</title>
<path fill="none" stroke="black" d="M594.67,-643.85C495.11,-639.36 300.53,-626.48 241.5,-593 216,-578.53 196.45,-550.71 184.57,-530.01"/>
<polygon fill="black" stroke="black" points="187.55,-528.15 179.66,-521.07 181.41,-531.52 187.55,-528.15"/>
</g>
<!-- columnvariabletransforms_mod -->
<g id="node4" class="node">
<title>columnvariabletransforms_mod</title>
<g id="a_node4"><a xlink:href="../modules/columnvariabletransforms_mod.svg" xlink:title="columnvariabletransforms_mod">
<polygon fill="none" stroke="red" points="265,-449 76,-449 76,-413 265,-413 265,-449"/>
<text text-anchor="middle" x="170.5" y="-427.3" font-family="Times,serif" font-size="14.00">columnvariabletransforms_mod</text>
</a>
</g>
</g>
<!-- bmatrix1dvar_mod&#45;&gt;columnvariabletransforms_mod -->
<g id="edge3" class="edge">
<title>bmatrix1dvar_mod&#45;&gt;columnvariabletransforms_mod</title>
<path fill="none" stroke="black" d="M594.66,-644.65C501.47,-641.39 327.4,-630.34 279.5,-593 238.62,-561.13 266.32,-526.67 235.5,-485 227.22,-473.81 216.06,-463.58 205.32,-455.16"/>
<polygon fill="black" stroke="black" points="207.34,-452.3 197.25,-449.09 203.13,-457.9 207.34,-452.3"/>
</g>
<!-- controlvector_mod -->
<g id="node5" class="node">
<title>controlvector_mod</title>
<g id="a_node5"><a xlink:href="../modules/controlvector_mod.svg" xlink:title="controlvector_mod">
<polygon fill="none" stroke="red" points="303.5,-377 185.5,-377 185.5,-341 303.5,-341 303.5,-377"/>
<text text-anchor="middle" x="244.5" y="-355.3" font-family="Times,serif" font-size="14.00">controlvector_mod</text>
</a>
</g>
</g>
<!-- bmatrix1dvar_mod&#45;&gt;controlvector_mod -->
<g id="edge4" class="edge">
<title>bmatrix1dvar_mod&#45;&gt;controlvector_mod</title>
<path fill="none" stroke="black" d="M594.83,-644.36C509.08,-640.75 356.95,-629.28 317.5,-593 256.88,-537.25 303.3,-489.78 273.5,-413 269.97,-403.91 265.18,-394.43 260.51,-386.04"/>
<polygon fill="black" stroke="black" points="263.39,-384.03 255.36,-377.11 257.32,-387.52 263.39,-384.03"/>
</g>
<!-- ensemblestatevector_mod -->
<g id="node6" class="node">
<title>ensemblestatevector_mod</title>
<g id="a_node6"><a xlink:href="../modules/ensemblestatevector_mod.svg" xlink:title="ensemblestatevector_mod">
<polygon fill="none" stroke="red" points="341.5,-305 185.5,-305 185.5,-269 341.5,-269 341.5,-305"/>
<text text-anchor="middle" x="263.5" y="-283.3" font-family="Times,serif" font-size="14.00">ensemblestatevector_mod</text>
</a>
</g>
</g>
<!-- bmatrix1dvar_mod&#45;&gt;ensemblestatevector_mod -->
<g id="edge5" class="edge">
<title>bmatrix1dvar_mod&#45;&gt;ensemblestatevector_mod</title>
<path fill="none" stroke="black" d="M594.85,-642.86C517.84,-637.59 389.67,-624.29 355.5,-593 325.29,-565.33 331.5,-544.97 331.5,-504 331.5,-504 331.5,-504 331.5,-430 331.5,-389.55 331.12,-376.91 312.5,-341 307.11,-330.61 299.13,-320.74 291.17,-312.41"/>
<polygon fill="black" stroke="black" points="293.49,-309.78 283.94,-305.21 288.56,-314.74 293.49,-309.78"/>
</g>
<!-- filenames_mod -->
<g id="node7" class="node">
<title>filenames_mod</title>
<g id="a_node7"><a xlink:href="../modules/filenames_mod.svg" xlink:title="filenames_mod">
<polygon fill="none" stroke="red" points="379,-233 280,-233 280,-197 379,-197 379,-233"/>
<text text-anchor="middle" x="329.5" y="-211.3" font-family="Times,serif" font-size="14.00">filenames_mod</text>
</a>
</g>
</g>
<!-- bmatrix1dvar_mod&#45;&gt;filenames_mod -->
<g id="edge6" class="edge">
<title>bmatrix1dvar_mod&#45;&gt;filenames_mod</title>
<path fill="none" stroke="black" d="M594.73,-641.09C526.92,-634.32 422.03,-619.78 393.5,-593 363.63,-564.96 369.5,-544.97 369.5,-504 369.5,-504 369.5,-504 369.5,-358 369.5,-316.48 353.46,-270.61 341.7,-242.54"/>
<polygon fill="black" stroke="black" points="344.77,-240.84 337.59,-233.05 338.35,-243.62 344.77,-240.84"/>
</g>
<!-- gridstatevectorfileio_mod -->
<g id="node8" class="node">
<title>gridstatevectorfileio_mod</title>
<g id="a_node8"><a xlink:href="../modules/gridstatevectorfileio_mod.svg" xlink:title="gridstatevectorfileio_mod">
<polygon fill="none" stroke="red" points="417,-161 262,-161 262,-125 417,-125 417,-161"/>
<text text-anchor="middle" x="339.5" y="-139.3" font-family="Times,serif" font-size="14.00">gridstatevectorfileio_mod</text>
</a>
</g>
</g>
<!-- bmatrix1dvar_mod&#45;&gt;gridstatevectorfileio_mod -->
<g id="edge7" class="edge">
<title>bmatrix1dvar_mod&#45;&gt;gridstatevectorfileio_mod</title>
<path fill="none" stroke="black" d="M594.93,-638.78C537.02,-630.57 454.52,-615.34 431.5,-593 402.1,-564.47 407.5,-544.97 407.5,-504 407.5,-504 407.5,-504 407.5,-286 407.5,-245.46 406.17,-232.99 387.5,-197 382.16,-186.71 374.33,-176.87 366.53,-168.52"/>
<polygon fill="black" stroke="black" points="368.96,-166 359.45,-161.31 363.96,-170.9 368.96,-166"/>
</g>
<!-- gridstatevector_mod -->
<g id="node9" class="node">
<title>gridstatevector_mod</title>
<g id="a_node9"><a xlink:href="../modules/gridstatevector_mod.svg" xlink:title="gridstatevector_mod">
<polygon fill="none" stroke="red" points="509,-89 382,-89 382,-53 509,-53 509,-89"/>
<text text-anchor="middle" x="445.5" y="-67.3" font-family="Times,serif" font-size="14.00">gridstatevector_mod</text>
</a>
</g>
</g>
<!-- bmatrix1dvar_mod&#45;&gt;gridstatevector_mod -->
<g id="edge8" class="edge">
<title>bmatrix1dvar_mod&#45;&gt;gridstatevector_mod</title>
<path fill="none" stroke="black" d="M594.84,-644.91C552.62,-640.86 497.81,-628.43 464.5,-593 436.8,-563.53 445.5,-544.45 445.5,-504 445.5,-504 445.5,-504 445.5,-214 445.5,-174 445.5,-127.65 445.5,-99.08"/>
<polygon fill="black" stroke="black" points="449,-99.05 445.5,-89.05 442,-99.05 449,-99.05"/>
</g>
<!-- horizontalcoord_mod -->
<g id="node10" class="node">
<title>horizontalcoord_mod</title>
<g id="a_node10"><a xlink:href="../modules/horizontalcoord_mod.svg" xlink:title="horizontalcoord_mod">
<polygon fill="none" stroke="red" points="607,-593 474,-593 474,-557 607,-557 607,-593"/>
<text text-anchor="middle" x="540.5" y="-571.3" font-family="Times,serif" font-size="14.00">horizontalcoord_mod</text>
</a>
</g>
</g>
<!-- bmatrix1dvar_mod&#45;&gt;horizontalcoord_mod -->
<g id="edge9" class="edge">
<title>bmatrix1dvar_mod&#45;&gt;horizontalcoord_mod</title>
<path fill="none" stroke="black" d="M626.61,-628.88C611.71,-619.72 593.17,-608.34 577.12,-598.48"/>
<polygon fill="black" stroke="black" points="578.85,-595.44 568.49,-593.19 575.19,-601.41 578.85,-595.44"/>
</g>
<!-- localizationfunction_mod -->
<g id="node11" class="node">
<title>localizationfunction_mod</title>
<g id="a_node11"><a xlink:href="../modules/localizationfunction_mod.svg" xlink:title="localizationfunction_mod">
<polygon fill="none" stroke="red" points="645,-521 490,-521 490,-485 645,-485 645,-521"/>
<text text-anchor="middle" x="567.5" y="-499.3" font-family="Times,serif" font-size="14.00">localizationfunction_mod</text>
</a>
</g>
</g>
<!-- bmatrix1dvar_mod&#45;&gt;localizationfunction_mod -->
<g id="edge10" class="edge">
<title>bmatrix1dvar_mod&#45;&gt;localizationfunction_mod</title>
<path fill="none" stroke="black" d="M648.83,-628.78C642.31,-610.22 630.53,-580.23 615.5,-557 609.1,-547.11 600.84,-537.26 592.99,-528.79"/>
<polygon fill="black" stroke="black" points="595.39,-526.24 585.95,-521.43 590.33,-531.08 595.39,-526.24"/>
</g>
<!-- mathphysconstants_mod -->
<g id="node12" class="node">
<title>mathphysconstants_mod</title>
<g id="a_node12"><a xlink:href="mathphysconstants_mod.html" xlink:title="mathphysconstants_mod">
<polygon fill="gray" stroke="black" points="683.5,-449 533.5,-449 533.5,-413 683.5,-413 683.5,-449"/>
<text text-anchor="middle" x="608.5" y="-427.3" font-family="Times,serif" font-size="14.00">mathphysconstants_mod</text>
</a>
</g>
</g>
<!-- bmatrix1dvar_mod&#45;&gt;mathphysconstants_mod -->
<g id="edge11" class="edge">
<title>bmatrix1dvar_mod&#45;&gt;mathphysconstants_mod</title>
<path fill="none" stroke="black" d="M658.1,-628.87C663.66,-598.68 671.87,-534.53 653.5,-485 649.62,-474.54 642.67,-464.72 635.38,-456.44"/>
<polygon fill="black" stroke="black" points="637.78,-453.89 628.37,-449.01 632.69,-458.69 637.78,-453.89"/>
</g>
<!-- midasmpi_mod -->
<g id="node13" class="node">
<title>midasmpi_mod</title>
<g id="a_node13"><a xlink:href="../modules/midasmpi_mod.svg" xlink:title="midasmpi_mod">
<polygon fill="none" stroke="red" points="721,-377 620,-377 620,-341 721,-341 721,-377"/>
<text text-anchor="middle" x="670.5" y="-355.3" font-family="Times,serif" font-size="14.00">midasmpi_mod</text>
</a>
</g>
</g>
<!-- bmatrix1dvar_mod&#45;&gt;midasmpi_mod -->
<g id="edge12" class="edge">
<title>bmatrix1dvar_mod&#45;&gt;midasmpi_mod</title>
<path fill="none" stroke="black" d="M664,-628.87C669.16,-618.74 675.16,-605.49 678.5,-593 699.21,-515.48 708.18,-491.69 692.5,-413 690.71,-404.01 687.36,-394.64 683.81,-386.32"/>
<polygon fill="black" stroke="black" points="686.96,-384.77 679.63,-377.12 680.58,-387.67 686.96,-384.77"/>
</g>
<!-- obsspacedata_mod -->
<g id="node14" class="node">
<title>obsspacedata_mod</title>
<g id="a_node14"><a xlink:href="../modules/obsspacedata_mod.svg" xlink:title="obsspacedata_mod">
<polygon fill="none" stroke="red" points="759.5,-305 641.5,-305 641.5,-269 759.5,-269 759.5,-305"/>
<text text-anchor="middle" x="700.5" y="-283.3" font-family="Times,serif" font-size="14.00">obsspacedata_mod</text>
</a>
</g>
</g>
<!-- bmatrix1dvar_mod&#45;&gt;obsspacedata_mod -->
<g id="edge13" class="edge">
<title>bmatrix1dvar_mod&#45;&gt;obsspacedata_mod</title>
<path fill="none" stroke="black" d="M676.06,-628.78C704.09,-604.28 749.5,-556.5 749.5,-504 749.5,-504 749.5,-504 749.5,-430 749.5,-389.46 743.81,-378.93 729.5,-341 726.06,-331.87 721.29,-322.38 716.61,-314"/>
<polygon fill="black" stroke="black" points="719.49,-311.98 711.44,-305.08 713.43,-315.49 719.49,-311.98"/>
</g>
<!-- statetocolumn_mod -->
<g id="node15" class="node">
<title>statetocolumn_mod</title>
<g id="a_node15"><a xlink:href="../modules/statetocolumn_mod.svg" xlink:title="statetocolumn_mod">
<polygon fill="none" stroke="red" points="797.5,-233 673.5,-233 673.5,-197 797.5,-197 797.5,-233"/>
<text text-anchor="middle" x="735.5" y="-211.3" font-family="Times,serif" font-size="14.00">statetocolumn_mod</text>
</a>
</g>
</g>
<!-- bmatrix1dvar_mod&#45;&gt;statetocolumn_mod -->
<g id="edge14" class="edge">
<title>bmatrix1dvar_mod&#45;&gt;statetocolumn_mod</title>
<path fill="none" stroke="black" d="M688.06,-628.93C727.46,-606.23 787.5,-562.1 787.5,-504 787.5,-504 787.5,-504 787.5,-358 787.5,-317.55 783.64,-306.51 768.5,-269 764.75,-259.7 759.39,-250.2 754.09,-241.86"/>
<polygon fill="black" stroke="black" points="756.88,-239.72 748.43,-233.32 751.04,-243.59 756.88,-239.72"/>
</g>
<!-- timecoord_mod -->
<g id="node16" class="node">
<title>timecoord_mod</title>
<g id="a_node16"><a xlink:href="../modules/timecoord_mod.svg" xlink:title="timecoord_mod">
<polygon fill="none" stroke="red" points="835.5,-161 733.5,-161 733.5,-125 835.5,-125 835.5,-161"/>
<text text-anchor="middle" x="784.5" y="-139.3" font-family="Times,serif" font-size="14.00">timecoord_mod</text>
</a>
</g>
</g>
<!-- bmatrix1dvar_mod&#45;&gt;timecoord_mod -->
<g id="edge15" class="edge">
<title>bmatrix1dvar_mod&#45;&gt;timecoord_mod</title>
<path fill="none" stroke="black" d="M704.42,-628.87C754.89,-608.01 825.5,-567.48 825.5,-504 825.5,-504 825.5,-504 825.5,-286 825.5,-244.41 809.06,-198.56 797,-170.51"/>
<polygon fill="black" stroke="black" points="800.05,-168.75 792.8,-161.03 793.65,-171.59 800.05,-168.75"/>
</g>
<!-- tovs_nl_mod -->
<g id="node17" class="node">
<title>tovs_nl_mod</title>
<g id="a_node17"><a xlink:href="../modules/tovs_nl_mod.svg" xlink:title="tovs_nl_mod">
<polygon fill="none" stroke="red" points="907,-89 820,-89 820,-53 907,-53 907,-89"/>
<text text-anchor="middle" x="863.5" y="-67.3" font-family="Times,serif" font-size="14.00">tovs_nl_mod</text>
</a>
</g>
</g>
<!-- bmatrix1dvar_mod&#45;&gt;tovs_nl_mod -->
<g id="edge16" class="edge">
<title>bmatrix1dvar_mod&#45;&gt;tovs_nl_mod</title>
<path fill="none" stroke="black" d="M714.11,-632.61C775.89,-614.79 863.5,-576.71 863.5,-504 863.5,-504 863.5,-504 863.5,-214 863.5,-174 863.5,-127.65 863.5,-99.08"/>
<polygon fill="black" stroke="black" points="867,-99.05 863.5,-89.05 860,-99.05 867,-99.05"/>
</g>
<!-- utilities_mod -->
<g id="node18" class="node">
<title>utilities_mod</title>
<g id="a_node18"><a xlink:href="../modules/utilities_mod.svg" xlink:title="utilities_mod">
<polygon fill="none" stroke="red" points="979.5,-593 891.5,-593 891.5,-557 979.5,-557 979.5,-593"/>
<text text-anchor="middle" x="935.5" y="-571.3" font-family="Times,serif" font-size="14.00">utilities_mod</text>
</a>
</g>
</g>
<!-- bmatrix1dvar_mod&#45;&gt;utilities_mod -->
<g id="edge17" class="edge">
<title>bmatrix1dvar_mod&#45;&gt;utilities_mod</title>
<path fill="none" stroke="black" d="M714.34,-632.66C759.36,-622.41 822.5,-607.59 877.5,-593 878.76,-592.67 880.02,-592.33 881.3,-591.98"/>
<polygon fill="black" stroke="black" points="882.53,-595.27 891.23,-589.23 880.66,-588.53 882.53,-595.27"/>
</g>
<!-- var1d_mod -->
<g id="node19" class="node">
<title>var1d_mod</title>
<g id="a_node19"><a xlink:href="../modules/var1d_mod.svg" xlink:title="var1d_mod">
<polygon fill="none" stroke="red" points="1031,-521 954,-521 954,-485 1031,-485 1031,-521"/>
<text text-anchor="middle" x="992.5" y="-499.3" font-family="Times,serif" font-size="14.00">var1d_mod</text>
</a>
</g>
</g>
<!-- bmatrix1dvar_mod&#45;&gt;var1d_mod -->
<g id="edge18" class="edge">
<title>bmatrix1dvar_mod&#45;&gt;var1d_mod</title>
<path fill="none" stroke="black" d="M714.23,-645.23C800.37,-642.74 953.05,-632.68 988.5,-593 1003.26,-576.48 1002.76,-550.58 999.45,-530.97"/>
<polygon fill="black" stroke="black" points="1002.86,-530.21 997.46,-521.1 996,-531.59 1002.86,-530.21"/>
</g>
<!-- varnamelist_mod -->
<g id="node20" class="node">
<title>varnamelist_mod</title>
<g id="a_node20"><a xlink:href="../modules/varnamelist_mod.svg" xlink:title="varnamelist_mod">
<polygon fill="none" stroke="red" points="1114.5,-449 1004.5,-449 1004.5,-413 1114.5,-413 1114.5,-449"/>
<text text-anchor="middle" x="1059.5" y="-427.3" font-family="Times,serif" font-size="14.00">varnamelist_mod</text>
</a>
</g>
</g>
<!-- bmatrix1dvar_mod&#45;&gt;varnamelist_mod -->
<g id="edge19" class="edge">
<title>bmatrix1dvar_mod&#45;&gt;varnamelist_mod</title>
<path fill="none" stroke="black" d="M714.03,-644.06C802.89,-640.04 964.59,-628.01 1009.5,-593 1050.47,-561.07 1058.66,-496.03 1059.84,-459.13"/>
<polygon fill="black" stroke="black" points="1063.34,-459.15 1060,-449.09 1056.34,-459.03 1063.34,-459.15"/>
</g>
<!-- verticalcoord_mod -->
<g id="node21" class="node">
<title>verticalcoord_mod</title>
<g id="a_node21"><a xlink:href="../modules/verticalcoord_mod.svg" xlink:title="verticalcoord_mod">
<polygon fill="none" stroke="red" points="1201.5,-377 1083.5,-377 1083.5,-341 1201.5,-341 1201.5,-377"/>
<text text-anchor="middle" x="1142.5" y="-355.3" font-family="Times,serif" font-size="14.00">verticalcoord_mod</text>
</a>
</g>
</g>
<!-- bmatrix1dvar_mod&#45;&gt;verticalcoord_mod -->
<g id="edge20" class="edge">
<title>bmatrix1dvar_mod&#45;&gt;verticalcoord_mod</title>
<path fill="none" stroke="black" d="M714.21,-643.96C808.29,-639.73 985.66,-627.33 1037.5,-593 1108.67,-545.87 1132.17,-437.99 1139.45,-387.28"/>
<polygon fill="black" stroke="black" points="1142.96,-387.46 1140.81,-377.09 1136.02,-386.54 1142.96,-387.46"/>
</g>
</g>
</svg>
