<?xml version="1.0" encoding="UTF-8" standalone="no"?>
<!DOCTYPE svg PUBLIC "-//W3C//DTD SVG 1.1//EN"
 "http://www.w3.org/Graphics/SVG/1.1/DTD/svg11.dtd">
<!-- Generated by graphviz version 3.0.0 (20220315.2325)
 -->
<!-- Title: bmatrixensemble_mod Pages: 1 -->
<svg width="1208pt" height="673pt"
 viewBox="0.00 0.00 1207.50 673.00" xmlns="http://www.w3.org/2000/svg" xmlns:xlink="http://www.w3.org/1999/xlink">
<g id="graph0" class="graph" transform="scale(1 1) rotate(0) translate(4 669)">
<title>bmatrixensemble_mod</title>
<polygon fill="white" stroke="transparent" points="-4,4 -4,-669 1203.5,-669 1203.5,4 -4,4"/>
<text text-anchor="middle" x="599.75" y="-37.8" font-family="Times,serif" font-size="14.00">Red boxes indicate modules with dependencies not shown</text>
<text text-anchor="middle" x="599.75" y="-22.8" font-family="Times,serif" font-size="14.00">Lower level dependencies can be shown by clicking on a red box</text>
<text text-anchor="middle" x="599.75" y="-7.8" font-family="Times,serif" font-size="14.00">Shaded boxes indicate modules with no dependencies</text>
<!-- bmatrixensemble_mod -->
<g id="node1" class="node">
<title>bmatrixensemble_mod</title>
<g id="a_node1"><a xlink:href="bmatrixensemble_mod.html" xlink:title="bmatrixensemble_mod">
<polygon fill="none" stroke="black" points="674.5,-665 534.5,-665 534.5,-629 674.5,-629 674.5,-665"/>
<text text-anchor="middle" x="604.5" y="-643.3" font-family="Times,serif" font-size="14.00">bmatrixensemble_mod</text>
</a>
</g>
</g>
<!-- advection_mod -->
<g id="node2" class="node">
<title>advection_mod</title>
<g id="a_node2"><a xlink:href="../modules/advection_mod.svg" xlink:title="advection_mod">
<polygon fill="none" stroke="red" points="99,-593 0,-593 0,-557 99,-557 99,-593"/>
<text text-anchor="middle" x="49.5" y="-571.3" font-family="Times,serif" font-size="14.00">advection_mod</text>
</a>
</g>
</g>
<!-- bmatrixensemble_mod&#45;&gt;advection_mod -->
<g id="edge1" class="edge">
<title>bmatrixensemble_mod&#45;&gt;advection_mod</title>
<path fill="none" stroke="black" d="M534.49,-641.81C438.8,-635.31 262.07,-620.59 113.5,-593 112.05,-592.73 110.59,-592.45 109.11,-592.15"/>
<polygon fill="black" stroke="black" points="109.81,-588.72 99.29,-590.01 108.32,-595.56 109.81,-588.72"/>
</g>
<!-- analysisgrid_mod -->
<g id="node3" class="node">
<title>analysisgrid_mod</title>
<g id="a_node3"><a xlink:href="../modules/analysisgrid_mod.svg" xlink:title="analysisgrid_mod">
<polygon fill="none" stroke="red" points="160,-521 49,-521 49,-485 160,-485 160,-521"/>
<text text-anchor="middle" x="104.5" y="-499.3" font-family="Times,serif" font-size="14.00">analysisgrid_mod</text>
</a>
</g>
</g>
<!-- bmatrixensemble_mod&#45;&gt;analysisgrid_mod -->
<g id="edge2" class="edge">
<title>bmatrixensemble_mod&#45;&gt;analysisgrid_mod</title>
<path fill="none" stroke="black" d="M534.17,-643.78C428.42,-639.36 234.45,-626.81 174.5,-593 148.96,-578.6 129.42,-550.76 117.56,-530.04"/>
<polygon fill="black" stroke="black" points="120.53,-528.18 112.65,-521.09 114.39,-531.55 120.53,-528.18"/>
</g>
<!-- calcheightandpressure_mod -->
<g id="node4" class="node">
<title>calcheightandpressure_mod</title>
<g id="a_node4"><a xlink:href="../modules/calcheightandpressure_mod.svg" xlink:title="calcheightandpressure_mod">
<polygon fill="none" stroke="red" points="199,-449 32,-449 32,-413 199,-413 199,-449"/>
<text text-anchor="middle" x="115.5" y="-427.3" font-family="Times,serif" font-size="14.00">calcheightandpressure_mod</text>
</a>
</g>
</g>
<!-- bmatrixensemble_mod&#45;&gt;calcheightandpressure_mod -->
<g id="edge3" class="edge">
<title>bmatrixensemble_mod&#45;&gt;calcheightandpressure_mod</title>
<path fill="none" stroke="black" d="M534.29,-644.77C435.31,-641.68 261.36,-630.85 212.5,-593 171.53,-561.26 197.17,-528.18 168.5,-485 161.6,-474.6 152.43,-464.56 143.66,-456.06"/>
<polygon fill="black" stroke="black" points="145.82,-453.29 136.12,-449.02 141.04,-458.4 145.82,-453.29"/>
</g>
<!-- ensemblestatevector_mod -->
<g id="node5" class="node">
<title>ensemblestatevector_mod</title>
<g id="a_node5"><a xlink:href="../modules/ensemblestatevector_mod.svg" xlink:title="ensemblestatevector_mod">
<polygon fill="none" stroke="red" points="236.5,-377 80.5,-377 80.5,-341 236.5,-341 236.5,-377"/>
<text text-anchor="middle" x="158.5" y="-355.3" font-family="Times,serif" font-size="14.00">ensemblestatevector_mod</text>
</a>
</g>
</g>
<!-- bmatrixensemble_mod&#45;&gt;ensemblestatevector_mod -->
<g id="edge4" class="edge">
<title>bmatrixensemble_mod&#45;&gt;ensemblestatevector_mod</title>
<path fill="none" stroke="black" d="M534.2,-644.54C443,-641.16 290.79,-629.97 250.5,-593 189.9,-537.39 246.23,-485.56 207.5,-413 201.99,-402.67 193.97,-392.83 186.02,-384.49"/>
<polygon fill="black" stroke="black" points="188.35,-381.87 178.8,-377.28 183.4,-386.82 188.35,-381.87"/>
</g>
<!-- filenames_mod -->
<g id="node6" class="node">
<title>filenames_mod</title>
<g id="a_node6"><a xlink:href="../modules/filenames_mod.svg" xlink:title="filenames_mod">
<polygon fill="none" stroke="red" points="274,-305 175,-305 175,-269 274,-269 274,-305"/>
<text text-anchor="middle" x="224.5" y="-283.3" font-family="Times,serif" font-size="14.00">filenames_mod</text>
</a>
</g>
</g>
<!-- bmatrixensemble_mod&#45;&gt;filenames_mod -->
<g id="edge5" class="edge">
<title>bmatrixensemble_mod&#45;&gt;filenames_mod</title>
<path fill="none" stroke="black" d="M534.41,-642.9C452.51,-637.83 323.67,-624.91 288.5,-593 258.16,-565.47 264.5,-544.97 264.5,-504 264.5,-504 264.5,-504 264.5,-430 264.5,-388.48 248.46,-342.61 236.7,-314.54"/>
<polygon fill="black" stroke="black" points="239.77,-312.84 232.59,-305.05 233.35,-315.62 239.77,-312.84"/>
</g>
<!-- globalspectraltransform_mod -->
<g id="node7" class="node">
<title>globalspectraltransform_mod</title>
<g id="a_node7"><a xlink:href="../modules/globalspectraltransform_mod.svg" xlink:title="globalspectraltransform_mod">
<polygon fill="none" stroke="red" points="312.5,-233 136.5,-233 136.5,-197 312.5,-197 312.5,-233"/>
<text text-anchor="middle" x="224.5" y="-211.3" font-family="Times,serif" font-size="14.00">globalspectraltransform_mod</text>
</a>
</g>
</g>
<!-- bmatrixensemble_mod&#45;&gt;globalspectraltransform_mod -->
<g id="edge6" class="edge">
<title>bmatrixensemble_mod&#45;&gt;globalspectraltransform_mod</title>
<path fill="none" stroke="black" d="M534.37,-641.03C462.14,-634.49 356.08,-620.44 326.5,-593 296.47,-565.14 302.5,-544.97 302.5,-504 302.5,-504 302.5,-504 302.5,-358 302.5,-317.46 302.85,-304.07 282.5,-269 276.14,-258.03 266.74,-248.04 257.36,-239.76"/>
<polygon fill="black" stroke="black" points="259.47,-236.96 249.55,-233.23 254.98,-242.33 259.47,-236.96"/>
</g>
<!-- gridbinning_mod -->
<g id="node8" class="node">
<title>gridbinning_mod</title>
<g id="a_node8"><a xlink:href="../modules/gridbinning_mod.svg" xlink:title="gridbinning_mod">
<polygon fill="none" stroke="red" points="350.5,-161 240.5,-161 240.5,-125 350.5,-125 350.5,-161"/>
<text text-anchor="middle" x="295.5" y="-139.3" font-family="Times,serif" font-size="14.00">gridbinning_mod</text>
</a>
</g>
</g>
<!-- bmatrixensemble_mod&#45;&gt;gridbinning_mod -->
<g id="edge7" class="edge">
<title>bmatrixensemble_mod&#45;&gt;gridbinning_mod</title>
<path fill="none" stroke="black" d="M534.27,-638.58C472.43,-630.64 388.57,-615.99 364.5,-593 334.87,-564.71 340.5,-544.97 340.5,-504 340.5,-504 340.5,-504 340.5,-286 340.5,-245.55 334.73,-235.22 321.5,-197 318.38,-187.99 314.1,-178.54 309.91,-170.14"/>
<polygon fill="black" stroke="black" points="312.99,-168.48 305.28,-161.2 306.77,-171.69 312.99,-168.48"/>
</g>
<!-- gridstatevectorfileio_mod -->
<g id="node9" class="node">
<title>gridstatevectorfileio_mod</title>
<g id="a_node9"><a xlink:href="../modules/gridstatevectorfileio_mod.svg" xlink:title="gridstatevectorfileio_mod">
<polygon fill="none" stroke="red" points="456,-89 301,-89 301,-53 456,-53 456,-89"/>
<text text-anchor="middle" x="378.5" y="-67.3" font-family="Times,serif" font-size="14.00">gridstatevectorfileio_mod</text>
</a>
</g>
</g>
<!-- bmatrixensemble_mod&#45;&gt;gridstatevectorfileio_mod -->
<g id="edge8" class="edge">
<title>bmatrixensemble_mod&#45;&gt;gridstatevectorfileio_mod</title>
<path fill="none" stroke="black" d="M534.41,-635.77C482.75,-626.82 418.34,-612.24 399.5,-593 371.07,-563.96 378.5,-544.64 378.5,-504 378.5,-504 378.5,-504 378.5,-214 378.5,-174 378.5,-127.65 378.5,-99.08"/>
<polygon fill="black" stroke="black" points="382,-99.05 378.5,-89.05 375,-99.05 382,-99.05"/>
</g>
<!-- gridstatevector_mod -->
<g id="node10" class="node">
<title>gridstatevector_mod</title>
<g id="a_node10"><a xlink:href="../modules/gridstatevector_mod.svg" xlink:title="gridstatevector_mod">
<polygon fill="none" stroke="red" points="536,-593 409,-593 409,-557 536,-557 536,-593"/>
<text text-anchor="middle" x="472.5" y="-571.3" font-family="Times,serif" font-size="14.00">gridstatevector_mod</text>
</a>
</g>
</g>
<!-- bmatrixensemble_mod&#45;&gt;gridstatevector_mod -->
<g id="edge9" class="edge">
<title>bmatrixensemble_mod&#45;&gt;gridstatevector_mod</title>
<path fill="none" stroke="black" d="M572.21,-628.88C554.63,-619.55 532.69,-607.92 513.87,-597.94"/>
<polygon fill="black" stroke="black" points="515.39,-594.78 504.91,-593.19 512.11,-600.97 515.39,-594.78"/>
</g>
<!-- gridvariabletransforms_mod -->
<g id="node11" class="node">
<title>gridvariabletransforms_mod</title>
<g id="a_node11"><a xlink:href="../modules/gridvariabletransforms_mod.svg" xlink:title="gridvariabletransforms_mod">
<polygon fill="none" stroke="red" points="576.5,-521 406.5,-521 406.5,-485 576.5,-485 576.5,-521"/>
<text text-anchor="middle" x="491.5" y="-499.3" font-family="Times,serif" font-size="14.00">gridvariabletransforms_mod</text>
</a>
</g>
</g>
<!-- bmatrixensemble_mod&#45;&gt;gridvariabletransforms_mod -->
<g id="edge10" class="edge">
<title>bmatrixensemble_mod&#45;&gt;gridvariabletransforms_mod</title>
<path fill="none" stroke="black" d="M594.35,-628.92C583.09,-610.48 563.94,-580.58 544.5,-557 536.29,-547.04 526.48,-536.83 517.55,-528.08"/>
<polygon fill="black" stroke="black" points="519.93,-525.51 510.3,-521.1 515.08,-530.55 519.93,-525.51"/>
</g>
<!-- horizontalcoord_mod -->
<g id="node12" class="node">
<title>horizontalcoord_mod</title>
<g id="a_node12"><a xlink:href="../modules/horizontalcoord_mod.svg" xlink:title="horizontalcoord_mod">
<polygon fill="none" stroke="red" points="614,-449 481,-449 481,-413 614,-413 614,-449"/>
<text text-anchor="middle" x="547.5" y="-427.3" font-family="Times,serif" font-size="14.00">horizontalcoord_mod</text>
</a>
</g>
</g>
<!-- bmatrixensemble_mod&#45;&gt;horizontalcoord_mod -->
<g id="edge11" class="edge">
<title>bmatrixensemble_mod&#45;&gt;horizontalcoord_mod</title>
<path fill="none" stroke="black" d="M605.23,-628.88C605.92,-598.72 604.72,-534.6 585.5,-485 581.73,-475.28 575.77,-465.7 569.66,-457.42"/>
<polygon fill="black" stroke="black" points="572.25,-455.04 563.34,-449.3 566.72,-459.34 572.25,-455.04"/>
</g>
<!-- humiditylimits_mod -->
<g id="node13" class="node">
<title>humiditylimits_mod</title>
<g id="a_node13"><a xlink:href="../modules/humiditylimits_mod.svg" xlink:title="humiditylimits_mod">
<polygon fill="none" stroke="red" points="652.5,-377 524.5,-377 524.5,-341 652.5,-341 652.5,-377"/>
<text text-anchor="middle" x="588.5" y="-355.3" font-family="Times,serif" font-size="14.00">humiditylimits_mod</text>
</a>
</g>
</g>
<!-- bmatrixensemble_mod&#45;&gt;humiditylimits_mod -->
<g id="edge12" class="edge">
<title>bmatrixensemble_mod&#45;&gt;humiditylimits_mod</title>
<path fill="none" stroke="black" d="M609.9,-628.9C621.38,-589.77 645.39,-491.06 622.5,-413 619.7,-403.45 614.59,-393.98 609.17,-385.76"/>
<polygon fill="black" stroke="black" points="611.88,-383.52 603.25,-377.37 606.15,-387.56 611.88,-383.52"/>
</g>
<!-- lamspectraltransform_mod -->
<g id="node14" class="node">
<title>lamspectraltransform_mod</title>
<g id="a_node14"><a xlink:href="../modules/lamspectraltransform_mod.svg" xlink:title="lamspectraltransform_mod">
<polygon fill="none" stroke="red" points="690.5,-305 528.5,-305 528.5,-269 690.5,-269 690.5,-305"/>
<text text-anchor="middle" x="609.5" y="-283.3" font-family="Times,serif" font-size="14.00">lamspectraltransform_mod</text>
</a>
</g>
</g>
<!-- bmatrixensemble_mod&#45;&gt;lamspectraltransform_mod -->
<g id="edge13" class="edge">
<title>bmatrixensemble_mod&#45;&gt;lamspectraltransform_mod</title>
<path fill="none" stroke="black" d="M620.99,-628.77C643.34,-603.53 680.5,-554.05 680.5,-504 680.5,-504 680.5,-504 680.5,-430 680.5,-389.55 680.65,-376.63 661.5,-341 655.79,-330.37 647.3,-320.43 638.84,-312.1"/>
<polygon fill="black" stroke="black" points="641.17,-309.48 631.47,-305.21 636.38,-314.6 641.17,-309.48"/>
</g>
<!-- localization_mod -->
<g id="node15" class="node">
<title>localization_mod</title>
<g id="a_node15"><a xlink:href="../modules/localization_mod.svg" xlink:title="localization_mod">
<polygon fill="none" stroke="red" points="728.5,-233 618.5,-233 618.5,-197 728.5,-197 728.5,-233"/>
<text text-anchor="middle" x="673.5" y="-211.3" font-family="Times,serif" font-size="14.00">localization_mod</text>
</a>
</g>
</g>
<!-- bmatrixensemble_mod&#45;&gt;localization_mod -->
<g id="edge14" class="edge">
<title>bmatrixensemble_mod&#45;&gt;localization_mod</title>
<path fill="none" stroke="black" d="M631.52,-628.96C665.23,-605.37 718.5,-559.33 718.5,-504 718.5,-504 718.5,-504 718.5,-358 718.5,-317.55 712.73,-307.22 699.5,-269 696.38,-259.99 692.1,-250.54 687.91,-242.14"/>
<polygon fill="black" stroke="black" points="690.99,-240.48 683.28,-233.2 684.77,-243.69 690.99,-240.48"/>
</g>
<!-- mathphysconstants_mod -->
<g id="node16" class="node">
<title>mathphysconstants_mod</title>
<g id="a_node16"><a xlink:href="mathphysconstants_mod.html" xlink:title="mathphysconstants_mod">
<polygon fill="gray" stroke="black" points="766.5,-161 616.5,-161 616.5,-125 766.5,-125 766.5,-161"/>
<text text-anchor="middle" x="691.5" y="-139.3" font-family="Times,serif" font-size="14.00">mathphysconstants_mod</text>
</a>
</g>
</g>
<!-- bmatrixensemble_mod&#45;&gt;mathphysconstants_mod -->
<g id="edge15" class="edge">
<title>bmatrixensemble_mod&#45;&gt;mathphysconstants_mod</title>
<path fill="none" stroke="black" d="M645.63,-628.9C690.65,-607.12 756.5,-564.85 756.5,-504 756.5,-504 756.5,-504 756.5,-286 756.5,-245.55 755.55,-233.2 737.5,-197 732.47,-186.92 725.08,-177.21 717.68,-168.91"/>
<polygon fill="black" stroke="black" points="720.06,-166.33 710.66,-161.43 714.95,-171.12 720.06,-166.33"/>
</g>
<!-- midasmpi_mod -->
<g id="node17" class="node">
<title>midasmpi_mod</title>
<g id="a_node17"><a xlink:href="../modules/midasmpi_mod.svg" xlink:title="midasmpi_mod">
<polygon fill="none" stroke="red" points="845,-89 744,-89 744,-53 845,-53 845,-89"/>
<text text-anchor="middle" x="794.5" y="-67.3" font-family="Times,serif" font-size="14.00">midasmpi_mod</text>
</a>
</g>
</g>
<!-- bmatrixensemble_mod&#45;&gt;midasmpi_mod -->
<g id="edge16" class="edge">
<title>bmatrixensemble_mod&#45;&gt;midasmpi_mod</title>
<path fill="none" stroke="black" d="M664.36,-628.96C720.05,-609.01 794.5,-569.99 794.5,-504 794.5,-504 794.5,-504 794.5,-214 794.5,-174 794.5,-127.65 794.5,-99.08"/>
<polygon fill="black" stroke="black" points="798,-99.05 794.5,-89.05 791,-99.05 798,-99.05"/>
</g>
<!-- spectralfilter_mod -->
<g id="node18" class="node">
<title>spectralfilter_mod</title>
<g id="a_node18"><a xlink:href="spectralfilter_mod.html" xlink:title="spectralfilter_mod">
<polygon fill="gray" stroke="black" points="936.5,-593 822.5,-593 822.5,-557 936.5,-557 936.5,-593"/>
<text text-anchor="middle" x="879.5" y="-571.3" font-family="Times,serif" font-size="14.00">spectralfilter_mod</text>
</a>
</g>
</g>
<!-- bmatrixensemble_mod&#45;&gt;spectralfilter_mod -->
<g id="edge17" class="edge">
<title>bmatrixensemble_mod&#45;&gt;spectralfilter_mod</title>
<path fill="none" stroke="black" d="M671.42,-628.97C714.19,-618.08 769.47,-604.01 812.3,-593.11"/>
<polygon fill="black" stroke="black" points="813.24,-596.48 822.07,-590.62 811.52,-589.69 813.24,-596.48"/>
</g>
<!-- timecoord_mod -->
<g id="node19" class="node">
<title>timecoord_mod</title>
<g id="a_node19"><a xlink:href="../modules/timecoord_mod.svg" xlink:title="timecoord_mod">
<polygon fill="none" stroke="red" points="974.5,-521 872.5,-521 872.5,-485 974.5,-485 974.5,-521"/>
<text text-anchor="middle" x="923.5" y="-499.3" font-family="Times,serif" font-size="14.00">timecoord_mod</text>
</a>
</g>
</g>
<!-- bmatrixensemble_mod&#45;&gt;timecoord_mod -->
<g id="edge18" class="edge">
<title>bmatrixensemble_mod&#45;&gt;timecoord_mod</title>
<path fill="none" stroke="black" d="M674.69,-645.41C764.15,-642.99 911.35,-632.87 945.5,-593 960.52,-575.47 951.46,-549.24 940.78,-529.79"/>
<polygon fill="black" stroke="black" points="943.77,-527.96 935.68,-521.12 937.74,-531.51 943.77,-527.96"/>
</g>
<!-- utilities_mod -->
<g id="node20" class="node">
<title>utilities_mod</title>
<g id="a_node20"><a xlink:href="../modules/utilities_mod.svg" xlink:title="utilities_mod">
<polygon fill="none" stroke="red" points="1029.5,-449 941.5,-449 941.5,-413 1029.5,-413 1029.5,-449"/>
<text text-anchor="middle" x="985.5" y="-427.3" font-family="Times,serif" font-size="14.00">utilities_mod</text>
</a>
</g>
</g>
<!-- bmatrixensemble_mod&#45;&gt;utilities_mod -->
<g id="edge19" class="edge">
<title>bmatrixensemble_mod&#45;&gt;utilities_mod</title>
<path fill="none" stroke="black" d="M674.8,-644.49C766.96,-641.05 921.82,-629.8 963.5,-593 1000.94,-559.95 997.12,-495.62 991.2,-459.08"/>
<polygon fill="black" stroke="black" points="994.63,-458.35 989.42,-449.12 987.74,-459.58 994.63,-458.35"/>
</g>
<!-- varnamelist_mod -->
<g id="node21" class="node">
<title>varnamelist_mod</title>
<g id="a_node21"><a xlink:href="../modules/varnamelist_mod.svg" xlink:title="varnamelist_mod">
<polygon fill="none" stroke="red" points="1112.5,-377 1002.5,-377 1002.5,-341 1112.5,-341 1112.5,-377"/>
<text text-anchor="middle" x="1057.5" y="-355.3" font-family="Times,serif" font-size="14.00">varnamelist_mod</text>
</a>
</g>
</g>
<!-- bmatrixensemble_mod&#45;&gt;varnamelist_mod -->
<g id="edge20" class="edge">
<title>bmatrixensemble_mod&#45;&gt;varnamelist_mod</title>
<path fill="none" stroke="black" d="M674.58,-644.95C772.3,-642.09 942.79,-631.54 989.5,-593 1051.6,-541.77 1058.88,-437.23 1058.58,-387.49"/>
<polygon fill="black" stroke="black" points="1062.08,-387.13 1058.4,-377.19 1055.08,-387.25 1062.08,-387.13"/>
</g>
<!-- verticalcoord_mod -->
<g id="node22" class="node">
<title>verticalcoord_mod</title>
<g id="a_node22"><a xlink:href="../modules/verticalcoord_mod.svg" xlink:title="verticalcoord_mod">
<polygon fill="none" stroke="red" points="1199.5,-305 1081.5,-305 1081.5,-269 1199.5,-269 1199.5,-305"/>
<text text-anchor="middle" x="1140.5" y="-283.3" font-family="Times,serif" font-size="14.00">verticalcoord_mod</text>
</a>
</g>
</g>
<!-- bmatrixensemble_mod&#45;&gt;verticalcoord_mod -->
<g id="edge21" class="edge">
<title>bmatrixensemble_mod&#45;&gt;verticalcoord_mod</title>
<path fill="none" stroke="black" d="M674.77,-641.31C776.28,-633.8 958.47,-617.42 1019.5,-593 1081.48,-568.2 1140.5,-570.76 1140.5,-504 1140.5,-504 1140.5,-504 1140.5,-430 1140.5,-390 1140.5,-343.65 1140.5,-315.08"/>
<polygon fill="black" stroke="black" points="1144,-315.05 1140.5,-305.05 1137,-315.05 1144,-315.05"/>
</g>
</g>
</svg>
