<?xml version="1.0" encoding="UTF-8" standalone="no"?>
<!DOCTYPE svg PUBLIC "-//W3C//DTD SVG 1.1//EN"
 "http://www.w3.org/Graphics/SVG/1.1/DTD/svg11.dtd">
<!-- Generated by graphviz version 3.0.0 (20220315.2325)
 -->
<!-- Title: bmatrix_mod Pages: 1 -->
<svg width="776pt" height="673pt"
 viewBox="0.00 0.00 775.50 673.00" xmlns="http://www.w3.org/2000/svg" xmlns:xlink="http://www.w3.org/1999/xlink">
<g id="graph0" class="graph" transform="scale(1 1) rotate(0) translate(4 669)">
<title>bmatrix_mod</title>
<polygon fill="white" stroke="transparent" points="-4,4 -4,-669 771.5,-669 771.5,4 -4,4"/>
<text text-anchor="middle" x="383.75" y="-649.8" font-family="Times,serif" font-size="14.00">Blue boxes indicate modules with reverse dependencies not shown</text>
<text text-anchor="middle" x="383.75" y="-634.8" font-family="Times,serif" font-size="14.00">Higher level reverse dependencies can be shown by clicking on a blue box</text>
<text text-anchor="middle" x="383.75" y="-619.8" font-family="Times,serif" font-size="14.00">Green boxes are programs</text>
<!-- bmatrix_mod -->
<g id="node1" class="node">
<title>bmatrix_mod</title>
<g id="a_node1"><a xlink:href="bmatrix_mod.html" xlink:title="bmatrix_mod">
<polygon fill="none" stroke="black" points="364.5,-36 275.5,-36 275.5,0 364.5,0 364.5,-36"/>
<text text-anchor="middle" x="320" y="-14.3" font-family="Times,serif" font-size="14.00">bmatrix_mod</text>
</a>
</g>
</g>
<!-- enspostprocess_mod -->
<g id="node2" class="node">
<title>enspostprocess_mod</title>
<g id="a_node2"><a xlink:href="../modules/enspostprocess_mod_rev.svg" xlink:title="enspostprocess_mod">
<polygon fill="none" stroke="blue" points="128,-108 0,-108 0,-72 128,-72 128,-108"/>
<text text-anchor="middle" x="64" y="-86.3" font-family="Times,serif" font-size="14.00">enspostprocess_mod</text>
</a>
</g>
</g>
<!-- enspostprocess_mod&#45;&gt;bmatrix_mod -->
<g id="edge1" class="edge">
<title>enspostprocess_mod&#45;&gt;bmatrix_mod</title>
<path fill="none" stroke="black" d="M134.26,-69.79C179.24,-57.49 236.24,-41.9 275.16,-31.26"/>
<ellipse fill="black" stroke="black" cx="130.16" cy="-70.91" rx="4" ry="4"/>
</g>
<!-- fsoi_mod -->
<g id="node3" class="node">
<title>fsoi_mod</title>
<g id="a_node3"><a xlink:href="../modules/fsoi_mod_rev.svg" xlink:title="fsoi_mod">
<polygon fill="none" stroke="blue" points="178,-180 110,-180 110,-144 178,-144 178,-180"/>
<text text-anchor="middle" x="144" y="-158.3" font-family="Times,serif" font-size="14.00">fsoi_mod</text>
</a>
</g>
</g>
<!-- fsoi_mod&#45;&gt;bmatrix_mod -->
<g id="edge2" class="edge">
<title>fsoi_mod&#45;&gt;bmatrix_mod</title>
<path fill="none" stroke="black" d="M152.18,-136C159.75,-116.31 172.76,-89.37 192,-72 215.48,-50.81 248.61,-37.4 275.28,-29.37"/>
<ellipse fill="black" stroke="black" cx="150.73" cy="-139.93" rx="4" ry="4"/>
</g>
<!-- increment_mod -->
<g id="node4" class="node">
<title>increment_mod</title>
<g id="a_node4"><a xlink:href="../modules/increment_mod_rev.svg" xlink:title="increment_mod">
<polygon fill="none" stroke="blue" points="215.5,-252 114.5,-252 114.5,-216 215.5,-216 215.5,-252"/>
<text text-anchor="middle" x="165" y="-230.3" font-family="Times,serif" font-size="14.00">increment_mod</text>
</a>
</g>
</g>
<!-- increment_mod&#45;&gt;bmatrix_mod -->
<g id="edge3" class="edge">
<title>increment_mod&#45;&gt;bmatrix_mod</title>
<path fill="none" stroke="black" d="M175.31,-208.37C179.02,-199.45 183.23,-189.28 187,-180 206.46,-132.14 196.37,-111.22 230,-72 243.1,-56.72 261.76,-44.73 278.7,-36.04"/>
<ellipse fill="black" stroke="black" cx="173.74" cy="-212.15" rx="4" ry="4"/>
</g>
<!-- minimization_mod -->
<g id="node5" class="node">
<title>minimization_mod</title>
<g id="a_node5"><a xlink:href="../modules/minimization_mod_rev.svg" xlink:title="minimization_mod">
<polygon fill="none" stroke="blue" points="253.5,-324 132.5,-324 132.5,-288 253.5,-288 253.5,-324"/>
<text text-anchor="middle" x="193" y="-302.3" font-family="Times,serif" font-size="14.00">minimization_mod</text>
</a>
</g>
</g>
<!-- minimization_mod&#45;&gt;bmatrix_mod -->
<g id="edge4" class="edge">
<title>minimization_mod&#45;&gt;bmatrix_mod</title>
<path fill="none" stroke="black" d="M209.05,-280.95C214.4,-272.13 220,-261.88 224,-252 254.89,-175.66 227.95,-143.96 268,-72 275.65,-58.26 287.82,-45.58 298.46,-36.07"/>
<ellipse fill="black" stroke="black" cx="206.78" cy="-284.59" rx="4" ry="4"/>
</g>
<!-- obsspacediag_mod -->
<g id="node6" class="node">
<title>obsspacediag_mod</title>
<g id="a_node6"><a xlink:href="../modules/obsspacediag_mod_rev.svg" xlink:title="obsspacediag_mod">
<polygon fill="none" stroke="blue" points="291.5,-396 172.5,-396 172.5,-360 291.5,-360 291.5,-396"/>
<text text-anchor="middle" x="232" y="-374.3" font-family="Times,serif" font-size="14.00">obsspacediag_mod</text>
</a>
</g>
</g>
<!-- obsspacediag_mod&#45;&gt;bmatrix_mod -->
<g id="edge5" class="edge">
<title>obsspacediag_mod&#45;&gt;bmatrix_mod</title>
<path fill="none" stroke="black" d="M247.61,-352.93C252.79,-344.11 258.2,-333.87 262,-324 276.59,-286.17 282,-275.54 282,-235 282,-235 282,-235 282,-161 282,-114.55 301.21,-62.38 312.31,-36.09"/>
<ellipse fill="black" stroke="black" cx="245.42" cy="-356.55" rx="4" ry="4"/>
</g>
<!-- midas_midas_diagbmatrix -->
<g id="node7" class="node">
<title>midas_midas_diagbmatrix</title>
<g id="a_node7"><a xlink:href="../programs/midas_diagbmatrix.html" xlink:title="midas_midas_diagbmatrix">
<polygon fill="gray" stroke="green" points="329.5,-468 168.5,-468 168.5,-432 329.5,-432 329.5,-468"/>
<text text-anchor="middle" x="249" y="-446.3" font-family="Times,serif" font-size="14.00">midas_midas_diagbmatrix</text>
</a>
</g>
</g>
<!-- midas_midas_diagbmatrix&#45;&gt;bmatrix_mod -->
<g id="edge6" class="edge">
<title>midas_midas_diagbmatrix&#45;&gt;bmatrix_mod</title>
<path fill="none" stroke="black" d="M276.23,-426.24C285,-417.61 294,-407.15 300,-396 319.21,-360.3 320,-347.54 320,-307 320,-307 320,-307 320,-161 320,-115.89 320,-62.71 320,-36.05"/>
<ellipse fill="black" stroke="black" cx="273.13" cy="-429.17" rx="4" ry="4"/>
</g>
<!-- midas_midas_diaghbht -->
<g id="node8" class="node">
<title>midas_midas_diaghbht</title>
<g id="a_node8"><a xlink:href="../programs/midas_diaghbht.html" xlink:title="midas_midas_diaghbht">
<polygon fill="gray" stroke="green" points="367.5,-540 224.5,-540 224.5,-504 367.5,-504 367.5,-540"/>
<text text-anchor="middle" x="296" y="-518.3" font-family="Times,serif" font-size="14.00">midas_midas_diaghbht</text>
</a>
</g>
</g>
<!-- midas_midas_diaghbht&#45;&gt;bmatrix_mod -->
<g id="edge7" class="edge">
<title>midas_midas_diaghbht&#45;&gt;bmatrix_mod</title>
<path fill="none" stroke="black" d="M318.4,-497.43C325.6,-488.75 333,-478.47 338,-468 355.47,-431.42 358,-419.54 358,-379 358,-379 358,-379 358,-161 358,-114.55 338.79,-62.38 327.69,-36.09"/>
<ellipse fill="black" stroke="black" cx="315.59" cy="-500.7" rx="4" ry="4"/>
</g>
<!-- midas_midas_extractbmatrixfor1dvar -->
<g id="node9" class="node">
<title>midas_midas_extractbmatrixfor1dvar</title>
<g id="a_node9"><a xlink:href="../programs/midas_extractbmatrixfor1dvar.html" xlink:title="midas_midas_extractbmatrixfor1dvar">
<polygon fill="gray" stroke="green" points="506.5,-612 285.5,-612 285.5,-576 506.5,-576 506.5,-612"/>
<text text-anchor="middle" x="396" y="-590.3" font-family="Times,serif" font-size="14.00">midas_midas_extractbmatrixfor1dvar</text>
</a>
</g>
</g>
<!-- midas_midas_extractbmatrixfor1dvar&#45;&gt;bmatrix_mod -->
<g id="edge8" class="edge">
<title>midas_midas_extractbmatrixfor1dvar&#45;&gt;bmatrix_mod</title>
<path fill="none" stroke="black" d="M396,-567.78C396,-539.39 396,-491.89 396,-451 396,-451 396,-451 396,-161 396,-110.95 358.84,-61.47 336.49,-36.23"/>
<ellipse fill="black" stroke="black" cx="396" cy="-571.95" rx="4" ry="4"/>
</g>
<!-- midas_midas_obsimpact -->
<g id="node10" class="node">
<title>midas_midas_obsimpact</title>
<g id="a_node10"><a xlink:href="../programs/midas_obsimpact.html" xlink:title="midas_midas_obsimpact">
<polygon fill="gray" stroke="green" points="576,-108 424,-108 424,-72 576,-72 576,-108"/>
<text text-anchor="middle" x="500" y="-86.3" font-family="Times,serif" font-size="14.00">midas_midas_obsimpact</text>
</a>
</g>
</g>
<!-- midas_midas_obsimpact&#45;&gt;bmatrix_mod -->
<g id="edge9" class="edge">
<title>midas_midas_obsimpact&#45;&gt;bmatrix_mod</title>
<path fill="none" stroke="black" d="M448.24,-68.87C421.55,-58.49 389.35,-45.97 363.89,-36.07"/>
<ellipse fill="black" stroke="black" cx="452.24" cy="-70.43" rx="4" ry="4"/>
</g>
<!-- midas_midas_randompert -->
<g id="node11" class="node">
<title>midas_midas_randompert</title>
<g id="a_node11"><a xlink:href="../programs/midas_randompert.html" xlink:title="midas_midas_randompert">
<polygon fill="gray" stroke="green" points="683.5,-180 524.5,-180 524.5,-144 683.5,-144 683.5,-180"/>
<text text-anchor="middle" x="604" y="-158.3" font-family="Times,serif" font-size="14.00">midas_midas_randompert</text>
</a>
</g>
</g>
<!-- midas_midas_randompert&#45;&gt;bmatrix_mod -->
<g id="edge10" class="edge">
<title>midas_midas_randompert&#45;&gt;bmatrix_mod</title>
<path fill="none" stroke="black" d="M605.59,-135.57C605.38,-115.56 601.63,-88.41 585,-72 554.41,-41.8 431.83,-27.68 364.63,-22.09"/>
<ellipse fill="black" stroke="black" cx="605.54" cy="-139.65" rx="4" ry="4"/>
</g>
<!-- midas_midas_var -->
<g id="node12" class="node">
<title>midas_midas_var</title>
<g id="a_node12"><a xlink:href="../programs/midas_var.html" xlink:title="midas_midas_var">
<polygon fill="gray" stroke="green" points="767.5,-252 654.5,-252 654.5,-216 767.5,-216 767.5,-252"/>
<text text-anchor="middle" x="711" y="-230.3" font-family="Times,serif" font-size="14.00">midas_midas_var</text>
</a>
</g>
</g>
<!-- midas_midas_var&#45;&gt;bmatrix_mod -->
<g id="edge11" class="edge">
<title>midas_midas_var&#45;&gt;bmatrix_mod</title>
<path fill="none" stroke="black" d="M709.91,-207.67C708.12,-188.95 703.55,-163.43 692,-144 666.88,-101.73 652.38,-93.18 608,-72 527.94,-33.79 423.21,-23.04 364.64,-20.08"/>
<ellipse fill="black" stroke="black" cx="710.24" cy="-211.77" rx="4" ry="4"/>
</g>
</g>
</svg>
