<?xml version="1.0" encoding="UTF-8" standalone="no"?>
<!DOCTYPE svg PUBLIC "-//W3C//DTD SVG 1.1//EN"
 "http://www.w3.org/Graphics/SVG/1.1/DTD/svg11.dtd">
<!-- Generated by graphviz version 3.0.0 (20220315.2325)
 -->
<!-- Title: bmatrix1dvar_mod Pages: 1 -->
<svg width="430pt" height="241pt"
 viewBox="0.00 0.00 430.00 241.00" xmlns="http://www.w3.org/2000/svg" xmlns:xlink="http://www.w3.org/1999/xlink">
<g id="graph0" class="graph" transform="scale(1 1) rotate(0) translate(4 237)">
<title>bmatrix1dvar_mod</title>
<polygon fill="white" stroke="transparent" points="-4,4 -4,-237 426,-237 426,4 -4,4"/>
<text text-anchor="middle" x="211" y="-217.8" font-family="Times,serif" font-size="14.00">Blue boxes indicate modules with reverse dependencies not shown</text>
<text text-anchor="middle" x="211" y="-202.8" font-family="Times,serif" font-size="14.00">Higher level reverse dependencies can be shown by clicking on a blue box</text>
<text text-anchor="middle" x="211" y="-187.8" font-family="Times,serif" font-size="14.00">Green boxes are programs</text>
<!-- bmatrix1dvar_mod -->
<g id="node1" class="node">
<title>bmatrix1dvar_mod</title>
<g id="a_node1"><a xlink:href="bmatrix1dvar_mod.html" xlink:title="bmatrix1dvar_mod">
<polygon fill="none" stroke="black" points="268.75,-36 149.75,-36 149.75,0 268.75,0 268.75,-36"/>
<text text-anchor="middle" x="209.25" y="-14.3" font-family="Times,serif" font-size="14.00">bmatrix1dvar_mod</text>
</a>
</g>
</g>
<!-- minimization_mod -->
<g id="node2" class="node">
<title>minimization_mod</title>
<g id="a_node2"><a xlink:href="../modules/minimization_mod_rev.svg" xlink:title="minimization_mod">
<polygon fill="none" stroke="blue" points="225.75,-108 104.75,-108 104.75,-72 225.75,-72 225.75,-108"/>
<text text-anchor="middle" x="165.25" y="-86.3" font-family="Times,serif" font-size="14.00">minimization_mod</text>
</a>
</g>
</g>
<!-- minimization_mod&#45;&gt;bmatrix1dvar_mod -->
<g id="edge1" class="edge">
<title>minimization_mod&#45;&gt;bmatrix1dvar_mod</title>
<path fill="none" stroke="black" d="M180.49,-64.76C186.42,-55.32 193.08,-44.72 198.5,-36.1"/>
<ellipse fill="black" stroke="black" cx="178.26" cy="-68.31" rx="4" ry="4"/>
</g>
<!-- midas_midas_var1d -->
<g id="node3" class="node">
<title>midas_midas_var1d</title>
<g id="a_node3"><a xlink:href="../programs/midas_var1d.html" xlink:title="midas_midas_var1d">
<polygon fill="gray" stroke="green" points="317.25,-180 191.25,-180 191.25,-144 317.25,-144 317.25,-180"/>
<text text-anchor="middle" x="254.25" y="-158.3" font-family="Times,serif" font-size="14.00">midas_midas_var1d</text>
</a>
</g>
</g>
<!-- midas_midas_var1d&#45;&gt;bmatrix1dvar_mod -->
<g id="edge2" class="edge">
<title>midas_midas_var1d&#45;&gt;bmatrix1dvar_mod</title>
<path fill="none" stroke="black" d="M250.54,-135.65C247.49,-117.59 242.49,-92.91 235.25,-72 230.96,-59.6 224.46,-46.35 219.03,-36.2"/>
<ellipse fill="black" stroke="black" cx="251.25" cy="-139.98" rx="4" ry="4"/>
</g>
</g>
</svg>
