<?xml version="1.0" encoding="UTF-8" standalone="no"?>
<!DOCTYPE svg PUBLIC "-//W3C//DTD SVG 1.1//EN"
 "http://www.w3.org/Graphics/SVG/1.1/DTD/svg11.dtd">
<!-- Generated by graphviz version 3.0.0 (20220315.2325)
 -->
<!-- Title: bmatrixdiff_mod Pages: 1 -->
<svg width="557pt" height="673pt"
 viewBox="0.00 0.00 556.50 673.00" xmlns="http://www.w3.org/2000/svg" xmlns:xlink="http://www.w3.org/1999/xlink">
<g id="graph0" class="graph" transform="scale(1 1) rotate(0) translate(4 669)">
<title>bmatrixdiff_mod</title>
<polygon fill="white" stroke="transparent" points="-4,4 -4,-669 552.5,-669 552.5,4 -4,4"/>
<text text-anchor="middle" x="274.25" y="-37.8" font-family="Times,serif" font-size="14.00">Red boxes indicate modules with dependencies not shown</text>
<text text-anchor="middle" x="274.25" y="-22.8" font-family="Times,serif" font-size="14.00">Lower level dependencies can be shown by clicking on a red box</text>
<text text-anchor="middle" x="274.25" y="-7.8" font-family="Times,serif" font-size="14.00">Shaded boxes indicate modules with no dependencies</text>
<!-- bmatrixdiff_mod -->
<g id="node1" class="node">
<title>bmatrixdiff_mod</title>
<g id="a_node1"><a xlink:href="bmatrixdiff_mod.html" xlink:title="bmatrixdiff_mod">
<polygon fill="none" stroke="black" points="325.5,-665 217.5,-665 217.5,-629 325.5,-629 325.5,-665"/>
<text text-anchor="middle" x="271.5" y="-643.3" font-family="Times,serif" font-size="14.00">bmatrixdiff_mod</text>
</a>
</g>
</g>
<!-- diffusion_mod -->
<g id="node2" class="node">
<title>diffusion_mod</title>
<g id="a_node2"><a xlink:href="../modules/diffusion_mod.svg" xlink:title="diffusion_mod">
<polygon fill="none" stroke="red" points="95,-593 0,-593 0,-557 95,-557 95,-593"/>
<text text-anchor="middle" x="47.5" y="-571.3" font-family="Times,serif" font-size="14.00">diffusion_mod</text>
</a>
</g>
</g>
<!-- bmatrixdiff_mod&#45;&gt;diffusion_mod -->
<g id="edge1" class="edge">
<title>bmatrixdiff_mod&#45;&gt;diffusion_mod</title>
<path fill="none" stroke="black" d="M217.28,-629.05C183.34,-618.45 139.65,-604.8 105.09,-594"/>
<polygon fill="black" stroke="black" points="105.73,-590.53 95.14,-590.89 103.64,-597.21 105.73,-590.53"/>
</g>
<!-- gridstatevectorfileio_mod -->
<g id="node3" class="node">
<title>gridstatevectorfileio_mod</title>
<g id="a_node3"><a xlink:href="../modules/gridstatevectorfileio_mod.svg" xlink:title="gridstatevectorfileio_mod">
<polygon fill="none" stroke="red" points="167,-521 12,-521 12,-485 167,-485 167,-521"/>
<text text-anchor="middle" x="89.5" y="-499.3" font-family="Times,serif" font-size="14.00">gridstatevectorfileio_mod</text>
</a>
</g>
</g>
<!-- bmatrixdiff_mod&#45;&gt;gridstatevectorfileio_mod -->
<g id="edge2" class="edge">
<title>bmatrixdiff_mod&#45;&gt;gridstatevectorfileio_mod</title>
<path fill="none" stroke="black" d="M238.24,-628.89C220.72,-619.27 199.25,-606.51 181.5,-593 155.97,-573.57 129.97,-547.75 112.16,-528.92"/>
<polygon fill="black" stroke="black" points="114.44,-526.24 105.05,-521.32 109.32,-531.02 114.44,-526.24"/>
</g>
<!-- gridstatevector_mod -->
<g id="node4" class="node">
<title>gridstatevector_mod</title>
<g id="a_node4"><a xlink:href="../modules/gridstatevector_mod.svg" xlink:title="gridstatevector_mod">
<polygon fill="none" stroke="red" points="205,-449 78,-449 78,-413 205,-413 205,-449"/>
<text text-anchor="middle" x="141.5" y="-427.3" font-family="Times,serif" font-size="14.00">gridstatevector_mod</text>
</a>
</g>
</g>
<!-- bmatrixdiff_mod&#45;&gt;gridstatevector_mod -->
<g id="edge3" class="edge">
<title>bmatrixdiff_mod&#45;&gt;gridstatevector_mod</title>
<path fill="none" stroke="black" d="M251.28,-628.91C240.75,-619.21 228.28,-606.36 219.5,-593 191.04,-549.68 199.37,-531.01 175.5,-485 170.72,-475.78 164.8,-466.11 159.25,-457.58"/>
<polygon fill="black" stroke="black" points="162.12,-455.57 153.67,-449.18 156.29,-459.45 162.12,-455.57"/>
</g>
<!-- horizontalcoord_mod -->
<g id="node5" class="node">
<title>horizontalcoord_mod</title>
<g id="a_node5"><a xlink:href="../modules/horizontalcoord_mod.svg" xlink:title="horizontalcoord_mod">
<polygon fill="none" stroke="red" points="243,-377 110,-377 110,-341 243,-341 243,-377"/>
<text text-anchor="middle" x="176.5" y="-355.3" font-family="Times,serif" font-size="14.00">horizontalcoord_mod</text>
</a>
</g>
</g>
<!-- bmatrixdiff_mod&#45;&gt;horizontalcoord_mod -->
<g id="edge4" class="edge">
<title>bmatrixdiff_mod&#45;&gt;horizontalcoord_mod</title>
<path fill="none" stroke="black" d="M266.88,-628.84C264.11,-618.47 260.55,-604.99 257.5,-593 237.2,-513.18 247.43,-488.04 213.5,-413 209.18,-403.44 203.07,-393.79 197.07,-385.39"/>
<polygon fill="black" stroke="black" points="199.71,-383.08 190.93,-377.15 194.1,-387.26 199.71,-383.08"/>
</g>
<!-- midasmpi_mod -->
<g id="node6" class="node">
<title>midasmpi_mod</title>
<g id="a_node6"><a xlink:href="../modules/midasmpi_mod.svg" xlink:title="midasmpi_mod">
<polygon fill="none" stroke="red" points="281,-305 180,-305 180,-269 281,-269 281,-305"/>
<text text-anchor="middle" x="230.5" y="-283.3" font-family="Times,serif" font-size="14.00">midasmpi_mod</text>
</a>
</g>
</g>
<!-- bmatrixdiff_mod&#45;&gt;midasmpi_mod -->
<g id="edge5" class="edge">
<title>bmatrixdiff_mod&#45;&gt;midasmpi_mod</title>
<path fill="none" stroke="black" d="M271.5,-628.95C271.5,-602.29 271.5,-549.11 271.5,-504 271.5,-504 271.5,-504 271.5,-430 271.5,-388.41 255.06,-342.56 243,-314.51"/>
<polygon fill="black" stroke="black" points="246.05,-312.75 238.8,-305.03 239.65,-315.59 246.05,-312.75"/>
</g>
<!-- physicsfunctions_mod -->
<g id="node7" class="node">
<title>physicsfunctions_mod</title>
<g id="a_node7"><a xlink:href="../modules/physicsfunctions_mod.svg" xlink:title="physicsfunctions_mod">
<polygon fill="none" stroke="red" points="319.5,-233 181.5,-233 181.5,-197 319.5,-197 319.5,-233"/>
<text text-anchor="middle" x="250.5" y="-211.3" font-family="Times,serif" font-size="14.00">physicsfunctions_mod</text>
</a>
</g>
</g>
<!-- bmatrixdiff_mod&#45;&gt;physicsfunctions_mod -->
<g id="edge6" class="edge">
<title>bmatrixdiff_mod&#45;&gt;physicsfunctions_mod</title>
<path fill="none" stroke="black" d="M279.19,-628.91C290.29,-602.62 309.5,-550.45 309.5,-504 309.5,-504 309.5,-504 309.5,-358 309.5,-317.46 306.32,-305.89 289.5,-269 285.09,-259.33 278.74,-249.69 272.44,-241.34"/>
<polygon fill="black" stroke="black" points="275.17,-239.15 266.23,-233.46 269.67,-243.48 275.17,-239.15"/>
</g>
<!-- utilities_mod -->
<g id="node8" class="node">
<title>utilities_mod</title>
<g id="a_node8"><a xlink:href="../modules/utilities_mod.svg" xlink:title="utilities_mod">
<polygon fill="none" stroke="red" points="374.5,-161 286.5,-161 286.5,-125 374.5,-125 374.5,-161"/>
<text text-anchor="middle" x="330.5" y="-139.3" font-family="Times,serif" font-size="14.00">utilities_mod</text>
</a>
</g>
</g>
<!-- bmatrixdiff_mod&#45;&gt;utilities_mod -->
<g id="edge7" class="edge">
<title>bmatrixdiff_mod&#45;&gt;utilities_mod</title>
<path fill="none" stroke="black" d="M287.99,-628.77C310.34,-603.53 347.5,-554.05 347.5,-504 347.5,-504 347.5,-504 347.5,-286 347.5,-245.93 340.74,-199.95 335.75,-171.43"/>
<polygon fill="black" stroke="black" points="339.16,-170.63 333.94,-161.41 332.27,-171.87 339.16,-170.63"/>
</g>
<!-- varnamelist_mod -->
<g id="node9" class="node">
<title>varnamelist_mod</title>
<g id="a_node9"><a xlink:href="../modules/varnamelist_mod.svg" xlink:title="varnamelist_mod">
<polygon fill="none" stroke="red" points="457.5,-89 347.5,-89 347.5,-53 457.5,-53 457.5,-89"/>
<text text-anchor="middle" x="402.5" y="-67.3" font-family="Times,serif" font-size="14.00">varnamelist_mod</text>
</a>
</g>
</g>
<!-- bmatrixdiff_mod&#45;&gt;varnamelist_mod -->
<g id="edge8" class="edge">
<title>bmatrixdiff_mod&#45;&gt;varnamelist_mod</title>
<path fill="none" stroke="black" d="M304.56,-628.8C343.36,-605.96 402.5,-561.69 402.5,-504 402.5,-504 402.5,-504 402.5,-214 402.5,-174 402.5,-127.65 402.5,-99.08"/>
<polygon fill="black" stroke="black" points="406,-99.05 402.5,-89.05 399,-99.05 406,-99.05"/>
</g>
<!-- verticalcoord_mod -->
<g id="node10" class="node">
<title>verticalcoord_mod</title>
<g id="a_node10"><a xlink:href="../modules/verticalcoord_mod.svg" xlink:title="verticalcoord_mod">
<polygon fill="none" stroke="red" points="548.5,-593 430.5,-593 430.5,-557 548.5,-557 548.5,-593"/>
<text text-anchor="middle" x="489.5" y="-571.3" font-family="Times,serif" font-size="14.00">verticalcoord_mod</text>
</a>
</g>
</g>
<!-- bmatrixdiff_mod&#45;&gt;verticalcoord_mod -->
<g id="edge9" class="edge">
<title>bmatrixdiff_mod&#45;&gt;verticalcoord_mod</title>
<path fill="none" stroke="black" d="M324.55,-628.97C355.27,-619.1 394.14,-606.62 426.42,-596.25"/>
<polygon fill="black" stroke="black" points="427.76,-599.5 436.21,-593.11 425.62,-592.84 427.76,-599.5"/>
</g>
</g>
</svg>
