<?xml version="1.0" encoding="UTF-8" standalone="no"?>
<!DOCTYPE svg PUBLIC "-//W3C//DTD SVG 1.1//EN"
 "http://www.w3.org/Graphics/SVG/1.1/DTD/svg11.dtd">
<!-- Generated by graphviz version 3.0.0 (20220315.2325)
 -->
<!-- Title: bmatrixensemble_mod Pages: 1 -->
<svg width="470pt" height="529pt"
 viewBox="0.00 0.00 470.00 529.00" xmlns="http://www.w3.org/2000/svg" xmlns:xlink="http://www.w3.org/1999/xlink">
<g id="graph0" class="graph" transform="scale(1 1) rotate(0) translate(4 525)">
<title>bmatrixensemble_mod</title>
<polygon fill="white" stroke="transparent" points="-4,4 -4,-525 466,-525 466,4 -4,4"/>
<text text-anchor="middle" x="231" y="-505.8" font-family="Times,serif" font-size="14.00">Blue boxes indicate modules with reverse dependencies not shown</text>
<text text-anchor="middle" x="231" y="-490.8" font-family="Times,serif" font-size="14.00">Higher level reverse dependencies can be shown by clicking on a blue box</text>
<text text-anchor="middle" x="231" y="-475.8" font-family="Times,serif" font-size="14.00">Green boxes are programs</text>
<!-- bmatrixensemble_mod -->
<g id="node1" class="node">
<title>bmatrixensemble_mod</title>
<g id="a_node1"><a xlink:href="bmatrixensemble_mod.html" xlink:title="bmatrixensemble_mod">
<polygon fill="none" stroke="black" points="256.5,-36 116.5,-36 116.5,0 256.5,0 256.5,-36"/>
<text text-anchor="middle" x="186.5" y="-14.3" font-family="Times,serif" font-size="14.00">bmatrixensemble_mod</text>
</a>
</g>
</g>
<!-- bmatrix_mod -->
<g id="node2" class="node">
<title>bmatrix_mod</title>
<g id="a_node2"><a xlink:href="../modules/bmatrix_mod_rev.svg" xlink:title="bmatrix_mod">
<polygon fill="none" stroke="blue" points="89,-108 0,-108 0,-72 89,-72 89,-108"/>
<text text-anchor="middle" x="44.5" y="-86.3" font-family="Times,serif" font-size="14.00">bmatrix_mod</text>
</a>
</g>
</g>
<!-- bmatrix_mod&#45;&gt;bmatrixensemble_mod -->
<g id="edge1" class="edge">
<title>bmatrix_mod&#45;&gt;bmatrixensemble_mod</title>
<path fill="none" stroke="black" d="M86.67,-68.21C107.37,-58.01 132.01,-45.86 151.63,-36.19"/>
<ellipse fill="black" stroke="black" cx="82.82" cy="-70.11" rx="4" ry="4"/>
</g>
<!-- fsoi_mod -->
<g id="node3" class="node">
<title>fsoi_mod</title>
<g id="a_node3"><a xlink:href="../modules/fsoi_mod_rev.svg" xlink:title="fsoi_mod">
<polygon fill="none" stroke="blue" points="139.5,-180 71.5,-180 71.5,-144 139.5,-144 139.5,-180"/>
<text text-anchor="middle" x="105.5" y="-158.3" font-family="Times,serif" font-size="14.00">fsoi_mod</text>
</a>
</g>
</g>
<!-- fsoi_mod&#45;&gt;bmatrixensemble_mod -->
<g id="edge2" class="edge">
<title>fsoi_mod&#45;&gt;bmatrixensemble_mod</title>
<path fill="none" stroke="black" d="M118.19,-136.5C127.64,-118.5 141.01,-93.52 153.5,-72 160.57,-59.81 168.97,-46.34 175.53,-36.02"/>
<ellipse fill="black" stroke="black" cx="116.24" cy="-140.22" rx="4" ry="4"/>
</g>
<!-- obsspacediag_mod -->
<g id="node4" class="node">
<title>obsspacediag_mod</title>
<g id="a_node4"><a xlink:href="../modules/obsspacediag_mod_rev.svg" xlink:title="obsspacediag_mod">
<polygon fill="none" stroke="blue" points="177,-252 58,-252 58,-216 177,-216 177,-252"/>
<text text-anchor="middle" x="117.5" y="-230.3" font-family="Times,serif" font-size="14.00">obsspacediag_mod</text>
</a>
</g>
</g>
<!-- obsspacediag_mod&#45;&gt;bmatrixensemble_mod -->
<g id="edge3" class="edge">
<title>obsspacediag_mod&#45;&gt;bmatrixensemble_mod</title>
<path fill="none" stroke="black" d="M133.85,-208.55C139.12,-199.83 144.6,-189.74 148.5,-180 168.55,-129.87 179.65,-66.54 184.13,-36.43"/>
<ellipse fill="black" stroke="black" cx="131.62" cy="-212.13" rx="4" ry="4"/>
</g>
<!-- obsspaceerrorstddev_mod -->
<g id="node5" class="node">
<title>obsspaceerrorstddev_mod</title>
<g id="a_node5"><a xlink:href="../modules/obsspaceerrorstddev_mod_rev.svg" xlink:title="obsspaceerrorstddev_mod">
<polygon fill="none" stroke="blue" points="249,-324 92,-324 92,-288 249,-288 249,-324"/>
<text text-anchor="middle" x="170.5" y="-302.3" font-family="Times,serif" font-size="14.00">obsspaceerrorstddev_mod</text>
</a>
</g>
</g>
<!-- obsspaceerrorstddev_mod&#45;&gt;bmatrixensemble_mod -->
<g id="edge4" class="edge">
<title>obsspaceerrorstddev_mod&#45;&gt;bmatrixensemble_mod</title>
<path fill="none" stroke="black" d="M179.09,-279.68C181.64,-271.01 184.13,-261.17 185.5,-252 197.46,-171.98 191.34,-74.78 188.09,-36.08"/>
<ellipse fill="black" stroke="black" cx="177.82" cy="-283.76" rx="4" ry="4"/>
</g>
<!-- midas_midas_adjointtest -->
<g id="node6" class="node">
<title>midas_midas_adjointtest</title>
<g id="a_node6"><a xlink:href="../programs/midas_adjointtest.html" xlink:title="midas_midas_adjointtest">
<polygon fill="gray" stroke="green" points="353.5,-396 201.5,-396 201.5,-360 353.5,-360 353.5,-396"/>
<text text-anchor="middle" x="277.5" y="-374.3" font-family="Times,serif" font-size="14.00">midas_midas_adjointtest</text>
</a>
</g>
</g>
<!-- midas_midas_adjointtest&#45;&gt;bmatrixensemble_mod -->
<g id="edge5" class="edge">
<title>midas_midas_adjointtest&#45;&gt;bmatrixensemble_mod</title>
<path fill="none" stroke="black" d="M277.5,-351.78C277.5,-323.39 277.5,-275.89 277.5,-235 277.5,-235 277.5,-235 277.5,-161 277.5,-109.17 234,-61.13 207.15,-36.42"/>
<ellipse fill="black" stroke="black" cx="277.5" cy="-355.95" rx="4" ry="4"/>
</g>
<!-- midas_midas_diagbmatrix -->
<g id="node7" class="node">
<title>midas_midas_diagbmatrix</title>
<g id="a_node7"><a xlink:href="../programs/midas_diagbmatrix.html" xlink:title="midas_midas_diagbmatrix">
<polygon fill="gray" stroke="green" points="462,-468 301,-468 301,-432 462,-432 462,-468"/>
<text text-anchor="middle" x="381.5" y="-446.3" font-family="Times,serif" font-size="14.00">midas_midas_diagbmatrix</text>
</a>
</g>
</g>
<!-- midas_midas_diagbmatrix&#45;&gt;bmatrixensemble_mod -->
<g id="edge6" class="edge">
<title>midas_midas_diagbmatrix&#45;&gt;bmatrixensemble_mod</title>
<path fill="none" stroke="black" d="M381.5,-423.78C381.5,-395.39 381.5,-347.89 381.5,-307 381.5,-307 381.5,-307 381.5,-161 381.5,-94.41 306.28,-55.76 249.27,-36.03"/>
<ellipse fill="black" stroke="black" cx="381.5" cy="-427.95" rx="4" ry="4"/>
</g>
</g>
</svg>
