<?xml version="1.0" encoding="UTF-8" standalone="no"?>
<!DOCTYPE svg PUBLIC "-//W3C//DTD SVG 1.1//EN"
 "http://www.w3.org/Graphics/SVG/1.1/DTD/svg11.dtd">
<!-- Generated by graphviz version 3.0.0 (20220315.2325)
 -->
<!-- Title: bmatrixchem_mod Pages: 1 -->
<svg width="608pt" height="673pt"
 viewBox="0.00 0.00 608.00 673.00" xmlns="http://www.w3.org/2000/svg" xmlns:xlink="http://www.w3.org/1999/xlink">
<g id="graph0" class="graph" transform="scale(1 1) rotate(0) translate(4 669)">
<title>bmatrixchem_mod</title>
<polygon fill="white" stroke="transparent" points="-4,4 -4,-669 604,-669 604,4 -4,4"/>
<text text-anchor="middle" x="300" y="-37.8" font-family="Times,serif" font-size="14.00">Red boxes indicate modules with dependencies not shown</text>
<text text-anchor="middle" x="300" y="-22.8" font-family="Times,serif" font-size="14.00">Lower level dependencies can be shown by clicking on a red box</text>
<text text-anchor="middle" x="300" y="-7.8" font-family="Times,serif" font-size="14.00">Shaded boxes indicate modules with no dependencies</text>
<!-- bmatrixchem_mod -->
<g id="node1" class="node">
<title>bmatrixchem_mod</title>
<g id="a_node1"><a xlink:href="bmatrixchem_mod.html" xlink:title="bmatrixchem_mod">
<polygon fill="none" stroke="black" points="382.5,-665 263.5,-665 263.5,-629 382.5,-629 382.5,-665"/>
<text text-anchor="middle" x="323" y="-643.3" font-family="Times,serif" font-size="14.00">bmatrixchem_mod</text>
</a>
</g>
</g>
<!-- bcovarsetupchem_mod -->
<g id="node2" class="node">
<title>bcovarsetupchem_mod</title>
<g id="a_node2"><a xlink:href="../modules/bcovarsetupchem_mod.svg" xlink:title="bcovarsetupchem_mod">
<polygon fill="none" stroke="red" points="142,-593 0,-593 0,-557 142,-557 142,-593"/>
<text text-anchor="middle" x="71" y="-571.3" font-family="Times,serif" font-size="14.00">bcovarsetupchem_mod</text>
</a>
</g>
</g>
<!-- bmatrixchem_mod&#45;&gt;bcovarsetupchem_mod -->
<g id="edge1" class="edge">
<title>bmatrixchem_mod&#45;&gt;bcovarsetupchem_mod</title>
<path fill="none" stroke="black" d="M263.28,-629.41C227.07,-619.35 180.66,-606.46 142.5,-595.86"/>
<polygon fill="black" stroke="black" points="143.05,-592.38 132.48,-593.08 141.18,-599.13 143.05,-592.38"/>
</g>
<!-- globalspectraltransform_mod -->
<g id="node3" class="node">
<title>globalspectraltransform_mod</title>
<g id="a_node3"><a xlink:href="../modules/globalspectraltransform_mod.svg" xlink:title="globalspectraltransform_mod">
<polygon fill="none" stroke="red" points="219,-521 43,-521 43,-485 219,-485 219,-521"/>
<text text-anchor="middle" x="131" y="-499.3" font-family="Times,serif" font-size="14.00">globalspectraltransform_mod</text>
</a>
</g>
</g>
<!-- bmatrixchem_mod&#45;&gt;globalspectraltransform_mod -->
<g id="edge2" class="edge">
<title>bmatrixchem_mod&#45;&gt;globalspectraltransform_mod</title>
<path fill="none" stroke="black" d="M290.86,-628.98C273.27,-619.21 251.38,-606.26 233,-593 205.23,-572.97 176.04,-546.92 156.04,-528.19"/>
<polygon fill="black" stroke="black" points="158.25,-525.47 148.58,-521.14 153.45,-530.56 158.25,-525.47"/>
</g>
<!-- gridstatevector_mod -->
<g id="node4" class="node">
<title>gridstatevector_mod</title>
<g id="a_node4"><a xlink:href="../modules/gridstatevector_mod.svg" xlink:title="gridstatevector_mod">
<polygon fill="none" stroke="red" points="256.5,-449 129.5,-449 129.5,-413 256.5,-413 256.5,-449"/>
<text text-anchor="middle" x="193" y="-427.3" font-family="Times,serif" font-size="14.00">gridstatevector_mod</text>
</a>
</g>
</g>
<!-- bmatrixchem_mod&#45;&gt;gridstatevector_mod -->
<g id="edge3" class="edge">
<title>bmatrixchem_mod&#45;&gt;gridstatevector_mod</title>
<path fill="none" stroke="black" d="M302.74,-628.94C292.2,-619.25 279.72,-606.39 271,-593 242.8,-549.71 251.92,-530.8 228,-485 223.15,-475.71 217.08,-466.02 211.36,-457.5"/>
<polygon fill="black" stroke="black" points="214.15,-455.38 205.6,-449.12 208.38,-459.34 214.15,-455.38"/>
</g>
<!-- gridvariabletransforms_mod -->
<g id="node5" class="node">
<title>gridvariabletransforms_mod</title>
<g id="a_node5"><a xlink:href="../modules/gridvariabletransforms_mod.svg" xlink:title="gridvariabletransforms_mod">
<polygon fill="none" stroke="red" points="295,-377 125,-377 125,-341 295,-341 295,-377"/>
<text text-anchor="middle" x="210" y="-355.3" font-family="Times,serif" font-size="14.00">gridvariabletransforms_mod</text>
</a>
</g>
</g>
<!-- bmatrixchem_mod&#45;&gt;gridvariabletransforms_mod -->
<g id="edge4" class="edge">
<title>bmatrixchem_mod&#45;&gt;gridvariabletransforms_mod</title>
<path fill="none" stroke="black" d="M318.38,-628.84C315.61,-618.47 312.05,-604.99 309,-593 288.7,-513.18 306.05,-484.39 265,-413 258.75,-402.13 249.62,-392.06 240.58,-383.69"/>
<polygon fill="black" stroke="black" points="242.89,-381.06 233.08,-377.07 238.26,-386.31 242.89,-381.06"/>
</g>
<!-- horizontalcoord_mod -->
<g id="node6" class="node">
<title>horizontalcoord_mod</title>
<g id="a_node6"><a xlink:href="../modules/horizontalcoord_mod.svg" xlink:title="horizontalcoord_mod">
<polygon fill="none" stroke="red" points="332.5,-305 199.5,-305 199.5,-269 332.5,-269 332.5,-305"/>
<text text-anchor="middle" x="266" y="-283.3" font-family="Times,serif" font-size="14.00">horizontalcoord_mod</text>
</a>
</g>
</g>
<!-- bmatrixchem_mod&#45;&gt;horizontalcoord_mod -->
<g id="edge5" class="edge">
<title>bmatrixchem_mod&#45;&gt;horizontalcoord_mod</title>
<path fill="none" stroke="black" d="M323,-628.95C323,-602.29 323,-549.11 323,-504 323,-504 323,-504 323,-430 323,-389.55 320.35,-377.99 304,-341 299.67,-331.21 293.36,-321.43 287.12,-312.98"/>
<polygon fill="black" stroke="black" points="289.86,-310.8 280.98,-305.03 284.32,-315.08 289.86,-310.8"/>
</g>
<!-- midasmpi_mod -->
<g id="node7" class="node">
<title>midasmpi_mod</title>
<g id="a_node7"><a xlink:href="../modules/midasmpi_mod.svg" xlink:title="midasmpi_mod">
<polygon fill="none" stroke="red" points="370.5,-233 269.5,-233 269.5,-197 370.5,-197 370.5,-233"/>
<text text-anchor="middle" x="320" y="-211.3" font-family="Times,serif" font-size="14.00">midasmpi_mod</text>
</a>
</g>
</g>
<!-- bmatrixchem_mod&#45;&gt;midasmpi_mod -->
<g id="edge6" class="edge">
<title>bmatrixchem_mod&#45;&gt;midasmpi_mod</title>
<path fill="none" stroke="black" d="M330.69,-628.91C341.79,-602.62 361,-550.45 361,-504 361,-504 361,-504 361,-358 361,-316.41 344.56,-270.56 332.5,-242.51"/>
<polygon fill="black" stroke="black" points="335.55,-240.75 328.3,-233.03 329.15,-243.59 335.55,-240.75"/>
</g>
<!-- utilities_mod -->
<g id="node8" class="node">
<title>utilities_mod</title>
<g id="a_node8"><a xlink:href="../modules/utilities_mod.svg" xlink:title="utilities_mod">
<polygon fill="none" stroke="red" points="426,-161 338,-161 338,-125 426,-125 426,-161"/>
<text text-anchor="middle" x="382" y="-139.3" font-family="Times,serif" font-size="14.00">utilities_mod</text>
</a>
</g>
</g>
<!-- bmatrixchem_mod&#45;&gt;utilities_mod -->
<g id="edge7" class="edge">
<title>bmatrixchem_mod&#45;&gt;utilities_mod</title>
<path fill="none" stroke="black" d="M339.49,-628.77C361.84,-603.53 399,-554.05 399,-504 399,-504 399,-504 399,-286 399,-245.93 392.24,-199.95 387.25,-171.43"/>
<polygon fill="black" stroke="black" points="390.66,-170.63 385.44,-161.41 383.77,-171.87 390.66,-170.63"/>
</g>
<!-- varnamelist_mod -->
<g id="node9" class="node">
<title>varnamelist_mod</title>
<g id="a_node9"><a xlink:href="../modules/varnamelist_mod.svg" xlink:title="varnamelist_mod">
<polygon fill="none" stroke="red" points="509,-89 399,-89 399,-53 509,-53 509,-89"/>
<text text-anchor="middle" x="454" y="-67.3" font-family="Times,serif" font-size="14.00">varnamelist_mod</text>
</a>
</g>
</g>
<!-- bmatrixchem_mod&#45;&gt;varnamelist_mod -->
<g id="edge8" class="edge">
<title>bmatrixchem_mod&#45;&gt;varnamelist_mod</title>
<path fill="none" stroke="black" d="M356.06,-628.8C394.86,-605.96 454,-561.69 454,-504 454,-504 454,-504 454,-214 454,-174 454,-127.65 454,-99.08"/>
<polygon fill="black" stroke="black" points="457.5,-99.05 454,-89.05 450.5,-99.05 457.5,-99.05"/>
</g>
<!-- verticalcoord_mod -->
<g id="node10" class="node">
<title>verticalcoord_mod</title>
<g id="a_node10"><a xlink:href="../modules/verticalcoord_mod.svg" xlink:title="verticalcoord_mod">
<polygon fill="none" stroke="red" points="600,-593 482,-593 482,-557 600,-557 600,-593"/>
<text text-anchor="middle" x="541" y="-571.3" font-family="Times,serif" font-size="14.00">verticalcoord_mod</text>
</a>
</g>
</g>
<!-- bmatrixchem_mod&#45;&gt;verticalcoord_mod -->
<g id="edge9" class="edge">
<title>bmatrixchem_mod&#45;&gt;verticalcoord_mod</title>
<path fill="none" stroke="black" d="M376.05,-628.97C406.77,-619.1 445.64,-606.62 477.92,-596.25"/>
<polygon fill="black" stroke="black" points="479.26,-599.5 487.71,-593.11 477.12,-592.84 479.26,-599.5"/>
</g>
</g>
</svg>
