<?xml version="1.0" encoding="UTF-8" standalone="no"?>
<!DOCTYPE svg PUBLIC "-//W3C//DTD SVG 1.1//EN"
 "http://www.w3.org/Graphics/SVG/1.1/DTD/svg11.dtd">
<!-- Generated by graphviz version 3.0.0 (20220315.2325)
 -->
<!-- Title: bmatrixhi_mod Pages: 1 -->
<svg width="812pt" height="673pt"
 viewBox="0.00 0.00 811.50 673.00" xmlns="http://www.w3.org/2000/svg" xmlns:xlink="http://www.w3.org/1999/xlink">
<g id="graph0" class="graph" transform="scale(1 1) rotate(0) translate(4 669)">
<title>bmatrixhi_mod</title>
<polygon fill="white" stroke="transparent" points="-4,4 -4,-669 807.5,-669 807.5,4 -4,4"/>
<text text-anchor="middle" x="401.75" y="-37.8" font-family="Times,serif" font-size="14.00">Red boxes indicate modules with dependencies not shown</text>
<text text-anchor="middle" x="401.75" y="-22.8" font-family="Times,serif" font-size="14.00">Lower level dependencies can be shown by clicking on a red box</text>
<text text-anchor="middle" x="401.75" y="-7.8" font-family="Times,serif" font-size="14.00">Shaded boxes indicate modules with no dependencies</text>
<!-- bmatrixhi_mod -->
<g id="node1" class="node">
<title>bmatrixhi_mod</title>
<g id="a_node1"><a xlink:href="bmatrixhi_mod.html" xlink:title="bmatrixhi_mod">
<polygon fill="none" stroke="black" points="441.5,-665 341.5,-665 341.5,-629 441.5,-629 441.5,-665"/>
<text text-anchor="middle" x="391.5" y="-643.3" font-family="Times,serif" font-size="14.00">bmatrixhi_mod</text>
</a>
</g>
</g>
<!-- calcheightandpressure_mod -->
<g id="node2" class="node">
<title>calcheightandpressure_mod</title>
<g id="a_node2"><a xlink:href="../modules/calcheightandpressure_mod.svg" xlink:title="calcheightandpressure_mod">
<polygon fill="none" stroke="red" points="167,-593 0,-593 0,-557 167,-557 167,-593"/>
<text text-anchor="middle" x="83.5" y="-571.3" font-family="Times,serif" font-size="14.00">calcheightandpressure_mod</text>
</a>
</g>
</g>
<!-- bmatrixhi_mod&#45;&gt;calcheightandpressure_mod -->
<g id="edge1" class="edge">
<title>bmatrixhi_mod&#45;&gt;calcheightandpressure_mod</title>
<path fill="none" stroke="black" d="M341.33,-634.6C294.53,-623.96 223.8,-607.89 168.25,-595.26"/>
<polygon fill="black" stroke="black" points="168.94,-591.83 158.42,-593.03 167.39,-598.66 168.94,-591.83"/>
</g>
<!-- earthconstants_mod -->
<g id="node3" class="node">
<title>earthconstants_mod</title>
<g id="a_node3"><a xlink:href="../modules/earthconstants_mod.svg" xlink:title="earthconstants_mod">
<polygon fill="none" stroke="red" points="230,-521 105,-521 105,-485 230,-485 230,-521"/>
<text text-anchor="middle" x="167.5" y="-499.3" font-family="Times,serif" font-size="14.00">earthconstants_mod</text>
</a>
</g>
</g>
<!-- bmatrixhi_mod&#45;&gt;earthconstants_mod -->
<g id="edge2" class="edge">
<title>bmatrixhi_mod&#45;&gt;earthconstants_mod</title>
<path fill="none" stroke="black" d="M341.19,-634.73C311.31,-626.42 273.68,-613.04 244.5,-593 219.71,-575.97 197.96,-549.1 183.96,-529.33"/>
<polygon fill="black" stroke="black" points="186.83,-527.32 178.27,-521.08 181.07,-531.3 186.83,-527.32"/>
</g>
<!-- globalspectraltransform_mod -->
<g id="node4" class="node">
<title>globalspectraltransform_mod</title>
<g id="a_node4"><a xlink:href="../modules/globalspectraltransform_mod.svg" xlink:title="globalspectraltransform_mod">
<polygon fill="none" stroke="red" points="268.5,-449 92.5,-449 92.5,-413 268.5,-413 268.5,-449"/>
<text text-anchor="middle" x="180.5" y="-427.3" font-family="Times,serif" font-size="14.00">globalspectraltransform_mod</text>
</a>
</g>
</g>
<!-- bmatrixhi_mod&#45;&gt;globalspectraltransform_mod -->
<g id="edge3" class="edge">
<title>bmatrixhi_mod&#45;&gt;globalspectraltransform_mod</title>
<path fill="none" stroke="black" d="M341.29,-630.55C320.87,-622.17 298.39,-609.97 282.5,-593 247.07,-555.17 268.13,-527.52 238.5,-485 231.07,-474.33 221.13,-464.26 211.58,-455.82"/>
<polygon fill="black" stroke="black" points="213.6,-452.95 203.72,-449.14 209.07,-458.28 213.6,-452.95"/>
</g>
<!-- gridstatevector_mod -->
<g id="node5" class="node">
<title>gridstatevector_mod</title>
<g id="a_node5"><a xlink:href="../modules/gridstatevector_mod.svg" xlink:title="gridstatevector_mod">
<polygon fill="none" stroke="red" points="306,-377 179,-377 179,-341 306,-341 306,-377"/>
<text text-anchor="middle" x="242.5" y="-355.3" font-family="Times,serif" font-size="14.00">gridstatevector_mod</text>
</a>
</g>
</g>
<!-- bmatrixhi_mod&#45;&gt;gridstatevector_mod -->
<g id="edge4" class="edge">
<title>bmatrixhi_mod&#45;&gt;gridstatevector_mod</title>
<path fill="none" stroke="black" d="M359.46,-628.92C345.54,-619.97 330.22,-607.78 320.5,-593 275.29,-524.29 310.22,-488.46 277.5,-413 273.4,-403.54 267.62,-393.92 261.94,-385.52"/>
<polygon fill="black" stroke="black" points="264.75,-383.42 256.13,-377.26 259.03,-387.45 264.75,-383.42"/>
</g>
<!-- gridvariabletransforms_mod -->
<g id="node6" class="node">
<title>gridvariabletransforms_mod</title>
<g id="a_node6"><a xlink:href="../modules/gridvariabletransforms_mod.svg" xlink:title="gridvariabletransforms_mod">
<polygon fill="none" stroke="red" points="344.5,-305 174.5,-305 174.5,-269 344.5,-269 344.5,-305"/>
<text text-anchor="middle" x="259.5" y="-283.3" font-family="Times,serif" font-size="14.00">gridvariabletransforms_mod</text>
</a>
</g>
</g>
<!-- bmatrixhi_mod&#45;&gt;gridvariabletransforms_mod -->
<g id="edge5" class="edge">
<title>bmatrixhi_mod&#45;&gt;gridvariabletransforms_mod</title>
<path fill="none" stroke="black" d="M378.83,-628.57C372.03,-618.56 363.95,-605.52 358.5,-593 342.16,-555.43 334.5,-544.97 334.5,-504 334.5,-504 334.5,-504 334.5,-430 334.5,-389.46 334.38,-376.33 314.5,-341 308.35,-330.08 299.25,-319.99 290.2,-311.62"/>
<polygon fill="black" stroke="black" points="292.51,-308.98 282.69,-305.01 287.88,-314.24 292.51,-308.98"/>
</g>
<!-- horizontalcoord_mod -->
<g id="node7" class="node">
<title>horizontalcoord_mod</title>
<g id="a_node7"><a xlink:href="../modules/horizontalcoord_mod.svg" xlink:title="horizontalcoord_mod">
<polygon fill="none" stroke="red" points="382,-233 249,-233 249,-197 382,-197 382,-233"/>
<text text-anchor="middle" x="315.5" y="-211.3" font-family="Times,serif" font-size="14.00">horizontalcoord_mod</text>
</a>
</g>
</g>
<!-- bmatrixhi_mod&#45;&gt;horizontalcoord_mod -->
<g id="edge6" class="edge">
<title>bmatrixhi_mod&#45;&gt;horizontalcoord_mod</title>
<path fill="none" stroke="black" d="M387.66,-628.61C382.1,-601.94 372.5,-549.27 372.5,-504 372.5,-504 372.5,-504 372.5,-358 372.5,-317.55 369.85,-305.99 353.5,-269 349.17,-259.21 342.86,-249.43 336.62,-240.98"/>
<polygon fill="black" stroke="black" points="339.36,-238.8 330.48,-233.03 333.82,-243.08 339.36,-238.8"/>
</g>
<!-- interpolation_mod -->
<g id="node8" class="node">
<title>interpolation_mod</title>
<g id="a_node8"><a xlink:href="../modules/interpolation_mod.svg" xlink:title="interpolation_mod">
<polygon fill="none" stroke="red" points="420.5,-161 304.5,-161 304.5,-125 420.5,-125 420.5,-161"/>
<text text-anchor="middle" x="362.5" y="-139.3" font-family="Times,serif" font-size="14.00">interpolation_mod</text>
</a>
</g>
</g>
<!-- bmatrixhi_mod&#45;&gt;interpolation_mod -->
<g id="edge7" class="edge">
<title>bmatrixhi_mod&#45;&gt;interpolation_mod</title>
<path fill="none" stroke="black" d="M395.34,-628.61C400.9,-601.94 410.5,-549.27 410.5,-504 410.5,-504 410.5,-504 410.5,-286 410.5,-245.46 404.54,-235.03 390.5,-197 387.15,-187.92 382.54,-178.44 378.02,-170.06"/>
<polygon fill="black" stroke="black" points="380.97,-168.15 373.04,-161.13 374.86,-171.57 380.97,-168.15"/>
</g>
<!-- midasmpi_mod -->
<g id="node9" class="node">
<title>midasmpi_mod</title>
<g id="a_node9"><a xlink:href="../modules/midasmpi_mod.svg" xlink:title="midasmpi_mod">
<polygon fill="none" stroke="red" points="499,-89 398,-89 398,-53 499,-53 499,-89"/>
<text text-anchor="middle" x="448.5" y="-67.3" font-family="Times,serif" font-size="14.00">midasmpi_mod</text>
</a>
</g>
</g>
<!-- bmatrixhi_mod&#45;&gt;midasmpi_mod -->
<g id="edge8" class="edge">
<title>bmatrixhi_mod&#45;&gt;midasmpi_mod</title>
<path fill="none" stroke="black" d="M403.31,-628.96C420.01,-603.16 448.5,-552.08 448.5,-504 448.5,-504 448.5,-504 448.5,-214 448.5,-174 448.5,-127.65 448.5,-99.08"/>
<polygon fill="black" stroke="black" points="452,-99.05 448.5,-89.05 445,-99.05 452,-99.05"/>
</g>
<!-- timecoord_mod -->
<g id="node10" class="node">
<title>timecoord_mod</title>
<g id="a_node10"><a xlink:href="../modules/timecoord_mod.svg" xlink:title="timecoord_mod">
<polygon fill="none" stroke="red" points="578.5,-593 476.5,-593 476.5,-557 578.5,-557 578.5,-593"/>
<text text-anchor="middle" x="527.5" y="-571.3" font-family="Times,serif" font-size="14.00">timecoord_mod</text>
</a>
</g>
</g>
<!-- bmatrixhi_mod&#45;&gt;timecoord_mod -->
<g id="edge9" class="edge">
<title>bmatrixhi_mod&#45;&gt;timecoord_mod</title>
<path fill="none" stroke="black" d="M424.77,-628.88C442.96,-619.51 465.69,-607.81 485.14,-597.8"/>
<polygon fill="black" stroke="black" points="486.81,-600.88 494.1,-593.19 483.61,-594.65 486.81,-600.88"/>
</g>
<!-- utilities_mod -->
<g id="node11" class="node">
<title>utilities_mod</title>
<g id="a_node11"><a xlink:href="../modules/utilities_mod.svg" xlink:title="utilities_mod">
<polygon fill="none" stroke="red" points="633.5,-521 545.5,-521 545.5,-485 633.5,-485 633.5,-521"/>
<text text-anchor="middle" x="589.5" y="-499.3" font-family="Times,serif" font-size="14.00">utilities_mod</text>
</a>
</g>
</g>
<!-- bmatrixhi_mod&#45;&gt;utilities_mod -->
<g id="edge10" class="edge">
<title>bmatrixhi_mod&#45;&gt;utilities_mod</title>
<path fill="none" stroke="black" d="M441.87,-639.27C493.79,-631.2 569.62,-615.82 587.5,-593 601.01,-575.75 600.17,-550.32 596.73,-531.05"/>
<polygon fill="black" stroke="black" points="600.12,-530.14 594.63,-521.07 593.27,-531.58 600.12,-530.14"/>
</g>
<!-- varnamelist_mod -->
<g id="node12" class="node">
<title>varnamelist_mod</title>
<g id="a_node12"><a xlink:href="../modules/varnamelist_mod.svg" xlink:title="varnamelist_mod">
<polygon fill="none" stroke="red" points="716.5,-449 606.5,-449 606.5,-413 716.5,-413 716.5,-449"/>
<text text-anchor="middle" x="661.5" y="-427.3" font-family="Times,serif" font-size="14.00">varnamelist_mod</text>
</a>
</g>
</g>
<!-- bmatrixhi_mod&#45;&gt;varnamelist_mod -->
<g id="edge11" class="edge">
<title>bmatrixhi_mod&#45;&gt;varnamelist_mod</title>
<path fill="none" stroke="black" d="M441.81,-645.47C489.34,-642.47 560.19,-631.21 607.5,-593 647.92,-560.35 658.28,-496.33 660.81,-459.62"/>
<polygon fill="black" stroke="black" points="664.33,-459.34 661.37,-449.17 657.34,-458.97 664.33,-459.34"/>
</g>
<!-- verticalcoord_mod -->
<g id="node13" class="node">
<title>verticalcoord_mod</title>
<g id="a_node13"><a xlink:href="../modules/verticalcoord_mod.svg" xlink:title="verticalcoord_mod">
<polygon fill="none" stroke="red" points="803.5,-377 685.5,-377 685.5,-341 803.5,-341 803.5,-377"/>
<text text-anchor="middle" x="744.5" y="-355.3" font-family="Times,serif" font-size="14.00">verticalcoord_mod</text>
</a>
</g>
</g>
<!-- bmatrixhi_mod&#45;&gt;verticalcoord_mod -->
<g id="edge12" class="edge">
<title>bmatrixhi_mod&#45;&gt;verticalcoord_mod</title>
<path fill="none" stroke="black" d="M441.58,-646.32C494.57,-644.29 578.39,-634.06 636.5,-593 706.38,-543.62 732.18,-437.33 740.72,-387.21"/>
<polygon fill="black" stroke="black" points="744.21,-387.55 742.33,-377.13 737.3,-386.45 744.21,-387.55"/>
</g>
</g>
</svg>
