<?xml version="1.0" encoding="UTF-8" standalone="no"?>
<!DOCTYPE svg PUBLIC "-//W3C//DTD SVG 1.1//EN"
 "http://www.w3.org/Graphics/SVG/1.1/DTD/svg11.dtd">
<!-- Generated by graphviz version 3.0.0 (20220315.2325)
 -->
<!-- Title: bmatrix_mod Pages: 1 -->
<svg width="695pt" height="673pt"
 viewBox="0.00 0.00 694.50 673.00" xmlns="http://www.w3.org/2000/svg" xmlns:xlink="http://www.w3.org/1999/xlink">
<g id="graph0" class="graph" transform="scale(1 1) rotate(0) translate(4 669)">
<title>bmatrix_mod</title>
<polygon fill="white" stroke="transparent" points="-4,4 -4,-669 690.5,-669 690.5,4 -4,4"/>
<text text-anchor="middle" x="343.25" y="-37.8" font-family="Times,serif" font-size="14.00">Red boxes indicate modules with dependencies not shown</text>
<text text-anchor="middle" x="343.25" y="-22.8" font-family="Times,serif" font-size="14.00">Lower level dependencies can be shown by clicking on a red box</text>
<text text-anchor="middle" x="343.25" y="-7.8" font-family="Times,serif" font-size="14.00">Shaded boxes indicate modules with no dependencies</text>
<!-- bmatrix_mod -->
<g id="node1" class="node">
<title>bmatrix_mod</title>
<g id="a_node1"><a xlink:href="bmatrix_mod.html" xlink:title="bmatrix_mod">
<polygon fill="none" stroke="black" points="366,-665 277,-665 277,-629 366,-629 366,-665"/>
<text text-anchor="middle" x="321.5" y="-643.3" font-family="Times,serif" font-size="14.00">bmatrix_mod</text>
</a>
</g>
</g>
<!-- bmatrixchem_mod -->
<g id="node2" class="node">
<title>bmatrixchem_mod</title>
<g id="a_node2"><a xlink:href="../modules/bmatrixchem_mod.svg" xlink:title="bmatrixchem_mod">
<polygon fill="none" stroke="red" points="119,-593 0,-593 0,-557 119,-557 119,-593"/>
<text text-anchor="middle" x="59.5" y="-571.3" font-family="Times,serif" font-size="14.00">bmatrixchem_mod</text>
</a>
</g>
</g>
<!-- bmatrix_mod&#45;&gt;bmatrixchem_mod -->
<g id="edge1" class="edge">
<title>bmatrix_mod&#45;&gt;bmatrixchem_mod</title>
<path fill="none" stroke="black" d="M276.76,-634.05C236.23,-623.22 175.88,-607.09 129.07,-594.59"/>
<polygon fill="black" stroke="black" points="129.86,-591.18 119.29,-591.98 128.05,-597.94 129.86,-591.18"/>
</g>
<!-- bmatrixdiff_mod -->
<g id="node3" class="node">
<title>bmatrixdiff_mod</title>
<g id="a_node3"><a xlink:href="../modules/bmatrixdiff_mod.svg" xlink:title="bmatrixdiff_mod">
<polygon fill="none" stroke="red" points="179.5,-521 71.5,-521 71.5,-485 179.5,-485 179.5,-521"/>
<text text-anchor="middle" x="125.5" y="-499.3" font-family="Times,serif" font-size="14.00">bmatrixdiff_mod</text>
</a>
</g>
</g>
<!-- bmatrix_mod&#45;&gt;bmatrixdiff_mod -->
<g id="edge2" class="edge">
<title>bmatrix_mod&#45;&gt;bmatrixdiff_mod</title>
<path fill="none" stroke="black" d="M276.71,-633.87C250.66,-625.33 218.19,-611.99 193.5,-593 171.14,-575.81 152.29,-549.53 140.15,-529.98"/>
<polygon fill="black" stroke="black" points="143.06,-528.02 134.9,-521.26 137.06,-531.63 143.06,-528.02"/>
</g>
<!-- bmatrixensemble_mod -->
<g id="node4" class="node">
<title>bmatrixensemble_mod</title>
<g id="a_node4"><a xlink:href="../modules/bmatrixensemble_mod.svg" xlink:title="bmatrixensemble_mod">
<polygon fill="none" stroke="red" points="217.5,-449 77.5,-449 77.5,-413 217.5,-413 217.5,-449"/>
<text text-anchor="middle" x="147.5" y="-427.3" font-family="Times,serif" font-size="14.00">bmatrixensemble_mod</text>
</a>
</g>
</g>
<!-- bmatrix_mod&#45;&gt;bmatrixensemble_mod -->
<g id="edge3" class="edge">
<title>bmatrix_mod&#45;&gt;bmatrixensemble_mod</title>
<path fill="none" stroke="black" d="M280.2,-628.96C263.26,-620.27 244.6,-608.28 231.5,-593 197.87,-553.78 214.11,-529.87 188.5,-485 183.05,-475.45 176.04,-465.73 169.36,-457.27"/>
<polygon fill="black" stroke="black" points="171.88,-454.82 162.86,-449.27 166.45,-459.24 171.88,-454.82"/>
</g>
<!-- bmatrixhi_mod -->
<g id="node5" class="node">
<title>bmatrixhi_mod</title>
<g id="a_node5"><a xlink:href="../modules/bmatrixhi_mod.svg" xlink:title="bmatrixhi_mod">
<polygon fill="none" stroke="red" points="255.5,-377 155.5,-377 155.5,-341 255.5,-341 255.5,-377"/>
<text text-anchor="middle" x="205.5" y="-355.3" font-family="Times,serif" font-size="14.00">bmatrixhi_mod</text>
</a>
</g>
</g>
<!-- bmatrix_mod&#45;&gt;bmatrixhi_mod -->
<g id="edge4" class="edge">
<title>bmatrix_mod&#45;&gt;bmatrixhi_mod</title>
<path fill="none" stroke="black" d="M299.93,-628.95C289.28,-619.44 277.11,-606.76 269.5,-593 229.69,-521.02 251.27,-491.43 226.5,-413 223.76,-404.32 220.27,-395.03 216.94,-386.69"/>
<polygon fill="black" stroke="black" points="220.17,-385.36 213.14,-377.44 213.7,-388.02 220.17,-385.36"/>
</g>
<!-- controlvector_mod -->
<g id="node6" class="node">
<title>controlvector_mod</title>
<g id="a_node6"><a xlink:href="../modules/controlvector_mod.svg" xlink:title="controlvector_mod">
<polygon fill="none" stroke="red" points="293.5,-305 175.5,-305 175.5,-269 293.5,-269 293.5,-305"/>
<text text-anchor="middle" x="234.5" y="-283.3" font-family="Times,serif" font-size="14.00">controlvector_mod</text>
</a>
</g>
</g>
<!-- bmatrix_mod&#45;&gt;controlvector_mod -->
<g id="edge5" class="edge">
<title>bmatrix_mod&#45;&gt;controlvector_mod</title>
<path fill="none" stroke="black" d="M313.81,-628.91C302.71,-602.62 283.5,-550.45 283.5,-504 283.5,-504 283.5,-504 283.5,-430 283.5,-389.55 278.85,-378.82 264.5,-341 260.97,-331.71 255.99,-322.09 251.1,-313.65"/>
<polygon fill="black" stroke="black" points="254.06,-311.77 245.9,-305.01 248.06,-315.38 254.06,-311.77"/>
</g>
<!-- gridstatevector_mod -->
<g id="node7" class="node">
<title>gridstatevector_mod</title>
<g id="a_node7"><a xlink:href="../modules/gridstatevector_mod.svg" xlink:title="gridstatevector_mod">
<polygon fill="none" stroke="red" points="331,-233 204,-233 204,-197 331,-197 331,-233"/>
<text text-anchor="middle" x="267.5" y="-211.3" font-family="Times,serif" font-size="14.00">gridstatevector_mod</text>
</a>
</g>
</g>
<!-- bmatrix_mod&#45;&gt;gridstatevector_mod -->
<g id="edge6" class="edge">
<title>bmatrix_mod&#45;&gt;gridstatevector_mod</title>
<path fill="none" stroke="black" d="M321.5,-628.95C321.5,-602.29 321.5,-549.11 321.5,-504 321.5,-504 321.5,-504 321.5,-358 321.5,-317.55 318.14,-306.3 302.5,-269 298.51,-259.49 292.77,-249.86 287.08,-241.46"/>
<polygon fill="black" stroke="black" points="289.88,-239.36 281.25,-233.21 284.17,-243.4 289.88,-239.36"/>
</g>
<!-- horizontalcoord_mod -->
<g id="node8" class="node">
<title>horizontalcoord_mod</title>
<g id="a_node8"><a xlink:href="../modules/horizontalcoord_mod.svg" xlink:title="horizontalcoord_mod">
<polygon fill="none" stroke="red" points="369,-161 236,-161 236,-125 369,-125 369,-161"/>
<text text-anchor="middle" x="302.5" y="-139.3" font-family="Times,serif" font-size="14.00">horizontalcoord_mod</text>
</a>
</g>
</g>
<!-- bmatrix_mod&#45;&gt;horizontalcoord_mod -->
<g id="edge7" class="edge">
<title>bmatrix_mod&#45;&gt;horizontalcoord_mod</title>
<path fill="none" stroke="black" d="M329.19,-628.91C340.29,-602.62 359.5,-550.45 359.5,-504 359.5,-504 359.5,-504 359.5,-286 359.5,-245.46 355.86,-234.1 339.5,-197 335.27,-187.4 329.19,-177.74 323.18,-169.35"/>
<polygon fill="black" stroke="black" points="325.81,-167.02 317.02,-161.11 320.21,-171.22 325.81,-167.02"/>
</g>
<!-- lambmatrixhi_mod -->
<g id="node9" class="node">
<title>lambmatrixhi_mod</title>
<g id="a_node9"><a xlink:href="../modules/lambmatrixhi_mod.svg" xlink:title="lambmatrixhi_mod">
<polygon fill="none" stroke="red" points="457.5,-89 337.5,-89 337.5,-53 457.5,-53 457.5,-89"/>
<text text-anchor="middle" x="397.5" y="-67.3" font-family="Times,serif" font-size="14.00">lambmatrixhi_mod</text>
</a>
</g>
</g>
<!-- bmatrix_mod&#45;&gt;lambmatrixhi_mod -->
<g id="edge8" class="edge">
<title>bmatrix_mod&#45;&gt;lambmatrixhi_mod</title>
<path fill="none" stroke="black" d="M337.99,-628.77C360.34,-603.53 397.5,-554.05 397.5,-504 397.5,-504 397.5,-504 397.5,-214 397.5,-174 397.5,-127.65 397.5,-99.08"/>
<polygon fill="black" stroke="black" points="401,-99.05 397.5,-89.05 394,-99.05 401,-99.05"/>
</g>
<!-- midasmpi_mod -->
<g id="node10" class="node">
<title>midasmpi_mod</title>
<g id="a_node10"><a xlink:href="../modules/midasmpi_mod.svg" xlink:title="midasmpi_mod">
<polygon fill="none" stroke="red" points="527,-593 426,-593 426,-557 527,-557 527,-593"/>
<text text-anchor="middle" x="476.5" y="-571.3" font-family="Times,serif" font-size="14.00">midasmpi_mod</text>
</a>
</g>
</g>
<!-- bmatrix_mod&#45;&gt;midasmpi_mod -->
<g id="edge9" class="edge">
<title>bmatrix_mod&#45;&gt;midasmpi_mod</title>
<path fill="none" stroke="black" d="M359.42,-628.88C380.51,-619.35 406.96,-607.41 429.37,-597.28"/>
<polygon fill="black" stroke="black" points="431.03,-600.37 438.71,-593.07 428.15,-593.99 431.03,-600.37"/>
</g>
<!-- utilities_mod -->
<g id="node11" class="node">
<title>utilities_mod</title>
<g id="a_node11"><a xlink:href="../modules/utilities_mod.svg" xlink:title="utilities_mod">
<polygon fill="none" stroke="red" points="599.5,-521 511.5,-521 511.5,-485 599.5,-485 599.5,-521"/>
<text text-anchor="middle" x="555.5" y="-499.3" font-family="Times,serif" font-size="14.00">utilities_mod</text>
</a>
</g>
</g>
<!-- bmatrix_mod&#45;&gt;utilities_mod -->
<g id="edge10" class="edge">
<title>bmatrix_mod&#45;&gt;utilities_mod</title>
<path fill="none" stroke="black" d="M366.14,-640.5C421.72,-632.73 512.21,-616.8 535.5,-593 551.29,-576.86 555.7,-551.09 556.5,-531.42"/>
<polygon fill="black" stroke="black" points="560,-531.26 556.63,-521.22 553,-531.18 560,-531.26"/>
</g>
<!-- verticalcoord_mod -->
<g id="node12" class="node">
<title>verticalcoord_mod</title>
<g id="a_node12"><a xlink:href="../modules/verticalcoord_mod.svg" xlink:title="verticalcoord_mod">
<polygon fill="none" stroke="red" points="686.5,-449 568.5,-449 568.5,-413 686.5,-413 686.5,-449"/>
<text text-anchor="middle" x="627.5" y="-427.3" font-family="Times,serif" font-size="14.00">verticalcoord_mod</text>
</a>
</g>
</g>
<!-- bmatrix_mod&#45;&gt;verticalcoord_mod -->
<g id="edge11" class="edge">
<title>bmatrix_mod&#45;&gt;verticalcoord_mod</title>
<path fill="none" stroke="black" d="M366.33,-645.48C417.02,-642.87 500.07,-632.29 558.5,-593 603.41,-562.81 619.22,-496.81 624.69,-459.36"/>
<polygon fill="black" stroke="black" points="628.2,-459.54 626.03,-449.17 621.26,-458.63 628.2,-459.54"/>
</g>
</g>
</svg>
