<?xml version="1.0" encoding="UTF-8" standalone="no"?>
<!DOCTYPE svg PUBLIC "-//W3C//DTD SVG 1.1//EN"
 "http://www.w3.org/Graphics/SVG/1.1/DTD/svg11.dtd">
<!-- Generated by graphviz version 3.0.0 (20220315.2325)
 -->
<!-- Title: bufr_mod Pages: 1 -->
<svg width="1286pt" height="673pt"
 viewBox="0.00 0.00 1286.00 673.00" xmlns="http://www.w3.org/2000/svg" xmlns:xlink="http://www.w3.org/1999/xlink">
<g id="graph0" class="graph" transform="scale(1 1) rotate(0) translate(4 669)">
<title>bufr_mod</title>
<polygon fill="white" stroke="transparent" points="-4,4 -4,-669 1282,-669 1282,4 -4,4"/>
<text text-anchor="middle" x="639" y="-649.8" font-family="Times,serif" font-size="14.00">Blue boxes indicate modules with reverse dependencies not shown</text>
<text text-anchor="middle" x="639" y="-634.8" font-family="Times,serif" font-size="14.00">Higher level reverse dependencies can be shown by clicking on a blue box</text>
<text text-anchor="middle" x="639" y="-619.8" font-family="Times,serif" font-size="14.00">Green boxes are programs</text>
<!-- bufr_mod -->
<g id="node1" class="node">
<title>bufr_mod</title>
<g id="a_node1"><a xlink:href="bufr_mod.html" xlink:title="bufr_mod">
<polygon fill="none" stroke="black" points="685.5,-36 615.5,-36 615.5,0 685.5,0 685.5,-36"/>
<text text-anchor="middle" x="650.5" y="-14.3" font-family="Times,serif" font-size="14.00">bufr_mod</text>
</a>
</g>
</g>
<!-- backgroundcheck_mod -->
<g id="node2" class="node">
<title>backgroundcheck_mod</title>
<g id="a_node2"><a xlink:href="../modules/backgroundcheck_mod_rev.svg" xlink:title="backgroundcheck_mod">
<polygon fill="none" stroke="blue" points="143,-108 0,-108 0,-72 143,-72 143,-108"/>
<text text-anchor="middle" x="71.5" y="-86.3" font-family="Times,serif" font-size="14.00">backgroundcheck_mod</text>
</a>
</g>
</g>
<!-- backgroundcheck_mod&#45;&gt;bufr_mod -->
<g id="edge1" class="edge">
<title>backgroundcheck_mod&#45;&gt;bufr_mod</title>
<path fill="none" stroke="black" d="M151.31,-72.97C153.39,-72.64 155.46,-72.31 157.5,-72 328.34,-45.98 534.41,-28.18 615.4,-21.7"/>
<ellipse fill="black" stroke="black" cx="147.16" cy="-73.67" rx="4" ry="4"/>
</g>
<!-- bgckocean_mod -->
<g id="node3" class="node">
<title>bgckocean_mod</title>
<g id="a_node3"><a xlink:href="../modules/bgckocean_mod_rev.svg" xlink:title="bgckocean_mod">
<polygon fill="none" stroke="blue" points="202,-180 97,-180 97,-144 202,-144 202,-180"/>
<text text-anchor="middle" x="149.5" y="-158.3" font-family="Times,serif" font-size="14.00">bgckocean_mod</text>
</a>
</g>
</g>
<!-- bgckocean_mod&#45;&gt;bufr_mod -->
<g id="edge2" class="edge">
<title>bgckocean_mod&#45;&gt;bufr_mod</title>
<path fill="none" stroke="black" d="M160.82,-136.63C171.9,-115.76 190.84,-86.81 216.5,-72 284.3,-32.87 524.56,-22.39 615.38,-19.79"/>
<ellipse fill="black" stroke="black" cx="158.92" cy="-140.35" rx="4" ry="4"/>
</g>
<!-- biascorrectionconv_mod -->
<g id="node4" class="node">
<title>biascorrectionconv_mod</title>
<g id="a_node4"><a xlink:href="../modules/biascorrectionconv_mod_rev.svg" xlink:title="biascorrectionconv_mod">
<polygon fill="none" stroke="blue" points="240.5,-252 90.5,-252 90.5,-216 240.5,-216 240.5,-252"/>
<text text-anchor="middle" x="165.5" y="-230.3" font-family="Times,serif" font-size="14.00">biascorrectionconv_mod</text>
</a>
</g>
</g>
<!-- biascorrectionconv_mod&#45;&gt;bufr_mod -->
<g id="edge3" class="edge">
<title>biascorrectionconv_mod&#45;&gt;bufr_mod</title>
<path fill="none" stroke="black" d="M187.97,-209.8C195.77,-200.95 204.15,-190.46 210.5,-180 237.39,-135.69 213.51,-103.72 254.5,-72 310.53,-28.65 529.23,-20.74 615.36,-19.31"/>
<ellipse fill="black" stroke="black" cx="185.11" cy="-212.97" rx="4" ry="4"/>
</g>
<!-- burpfiles_mod -->
<g id="node5" class="node">
<title>burpfiles_mod</title>
<g id="a_node5"><a xlink:href="../modules/burpfiles_mod_rev.svg" xlink:title="burpfiles_mod">
<polygon fill="none" stroke="blue" points="278,-324 183,-324 183,-288 278,-288 278,-324"/>
<text text-anchor="middle" x="230.5" y="-302.3" font-family="Times,serif" font-size="14.00">burpfiles_mod</text>
</a>
</g>
</g>
<!-- burpfiles_mod&#45;&gt;bufr_mod -->
<g id="edge4" class="edge">
<title>burpfiles_mod&#45;&gt;bufr_mod</title>
<path fill="none" stroke="black" d="M240.01,-280.26C243.23,-271.41 246.72,-261.32 249.5,-252 272.97,-173.17 231.85,-127.56 292.5,-72 339.23,-29.19 534.65,-20.94 615.38,-19.36"/>
<ellipse fill="black" stroke="black" cx="238.53" cy="-284.22" rx="4" ry="4"/>
</g>
<!-- burpread_mod -->
<g id="node6" class="node">
<title>burpread_mod</title>
<g id="a_node6"><a xlink:href="../modules/burpread_mod_rev.svg" xlink:title="burpread_mod">
<polygon fill="none" stroke="blue" points="316,-396 221,-396 221,-360 316,-360 316,-396"/>
<text text-anchor="middle" x="268.5" y="-374.3" font-family="Times,serif" font-size="14.00">burpread_mod</text>
</a>
</g>
</g>
<!-- burpread_mod&#45;&gt;bufr_mod -->
<g id="edge5" class="edge">
<title>burpread_mod&#45;&gt;bufr_mod</title>
<path fill="none" stroke="black" d="M279.36,-352.22C290.59,-324.29 306.5,-277.27 306.5,-235 306.5,-235 306.5,-235 306.5,-161 306.5,-120.03 300.13,-99.5 330.5,-72 371.88,-34.54 541.08,-23.31 615.31,-20.16"/>
<ellipse fill="black" stroke="black" cx="277.71" cy="-356.21" rx="4" ry="4"/>
</g>
<!-- ensembleobservations_mod -->
<g id="node7" class="node">
<title>ensembleobservations_mod</title>
<g id="a_node7"><a xlink:href="../modules/ensembleobservations_mod_rev.svg" xlink:title="ensembleobservations_mod">
<polygon fill="none" stroke="blue" points="354.5,-468 188.5,-468 188.5,-432 354.5,-432 354.5,-468"/>
<text text-anchor="middle" x="271.5" y="-446.3" font-family="Times,serif" font-size="14.00">ensembleobservations_mod</text>
</a>
</g>
</g>
<!-- ensembleobservations_mod&#45;&gt;bufr_mod -->
<g id="edge6" class="edge">
<title>ensembleobservations_mod&#45;&gt;bufr_mod</title>
<path fill="none" stroke="black" d="M299.77,-426.45C308.9,-417.82 318.27,-407.31 324.5,-396 344.05,-360.48 344.5,-347.54 344.5,-307 344.5,-307 344.5,-307 344.5,-161 344.5,-120.03 338.43,-99.82 368.5,-72 404.01,-39.14 548,-25.63 615.39,-21.03"/>
<ellipse fill="black" stroke="black" cx="296.8" cy="-429.15" rx="4" ry="4"/>
</g>
<!-- innovation_mod -->
<g id="node8" class="node">
<title>innovation_mod</title>
<g id="a_node8"><a xlink:href="../modules/innovation_mod_rev.svg" xlink:title="innovation_mod">
<polygon fill="none" stroke="blue" points="392.5,-540 288.5,-540 288.5,-504 392.5,-504 392.5,-540"/>
<text text-anchor="middle" x="340.5" y="-518.3" font-family="Times,serif" font-size="14.00">innovation_mod</text>
</a>
</g>
</g>
<!-- innovation_mod&#45;&gt;bufr_mod -->
<g id="edge7" class="edge">
<title>innovation_mod&#45;&gt;bufr_mod</title>
<path fill="none" stroke="black" d="M352.34,-496.69C364.76,-468.92 382.5,-421.77 382.5,-379 382.5,-379 382.5,-379 382.5,-161 382.5,-120.03 376.82,-100.24 406.5,-72 436.17,-43.76 555.03,-28.33 615.21,-22.19"/>
<ellipse fill="black" stroke="black" cx="350.66" cy="-500.36" rx="4" ry="4"/>
</g>
<!-- obsdbfiles_mod -->
<g id="node9" class="node">
<title>obsdbfiles_mod</title>
<g id="a_node9"><a xlink:href="../modules/obsdbfiles_mod_rev.svg" xlink:title="obsdbfiles_mod">
<polygon fill="none" stroke="blue" points="471.5,-612 369.5,-612 369.5,-576 471.5,-576 471.5,-612"/>
<text text-anchor="middle" x="420.5" y="-590.3" font-family="Times,serif" font-size="14.00">obsdbfiles_mod</text>
</a>
</g>
</g>
<!-- obsdbfiles_mod&#45;&gt;bufr_mod -->
<g id="edge8" class="edge">
<title>obsdbfiles_mod&#45;&gt;bufr_mod</title>
<path fill="none" stroke="black" d="M420.5,-567.78C420.5,-539.39 420.5,-491.89 420.5,-451 420.5,-451 420.5,-451 420.5,-161 420.5,-120.55 411.42,-101.11 439.5,-72 463.56,-47.06 561.54,-30.64 615.11,-23.34"/>
<ellipse fill="black" stroke="black" cx="420.5" cy="-571.95" rx="4" ry="4"/>
</g>
<!-- obserrors_mod -->
<g id="node10" class="node">
<title>obserrors_mod</title>
<g id="a_node10"><a xlink:href="../modules/obserrors_mod_rev.svg" xlink:title="obserrors_mod">
<polygon fill="none" stroke="blue" points="546.5,-108 448.5,-108 448.5,-72 546.5,-72 546.5,-108"/>
<text text-anchor="middle" x="497.5" y="-86.3" font-family="Times,serif" font-size="14.00">obserrors_mod</text>
</a>
</g>
</g>
<!-- obserrors_mod&#45;&gt;bufr_mod -->
<g id="edge9" class="edge">
<title>obserrors_mod&#45;&gt;bufr_mod</title>
<path fill="none" stroke="black" d="M542.3,-68.5C565.57,-57.86 593.6,-45.03 615.3,-35.11"/>
<ellipse fill="black" stroke="black" cx="538.57" cy="-70.21" rx="4" ry="4"/>
</g>
<!-- obsfiles_mod -->
<g id="node11" class="node">
<title>obsfiles_mod</title>
<g id="a_node11"><a xlink:href="../modules/obsfiles_mod_rev.svg" xlink:title="obsfiles_mod">
<polygon fill="none" stroke="blue" points="584,-180 495,-180 495,-144 584,-144 584,-180"/>
<text text-anchor="middle" x="539.5" y="-158.3" font-family="Times,serif" font-size="14.00">obsfiles_mod</text>
</a>
</g>
</g>
<!-- obsfiles_mod&#45;&gt;bufr_mod -->
<g id="edge10" class="edge">
<title>obsfiles_mod&#45;&gt;bufr_mod</title>
<path fill="none" stroke="black" d="M553.67,-137.01C564.95,-118.59 581.61,-92.86 598.5,-72 608.72,-59.38 621.48,-46.34 631.8,-36.36"/>
<ellipse fill="black" stroke="black" cx="551.54" cy="-140.51" rx="4" ry="4"/>
</g>
<!-- obsfilter_mod -->
<g id="node12" class="node">
<title>obsfilter_mod</title>
<g id="a_node12"><a xlink:href="../modules/obsfilter_mod_rev.svg" xlink:title="obsfilter_mod">
<polygon fill="none" stroke="blue" points="622.5,-252 530.5,-252 530.5,-216 622.5,-216 622.5,-252"/>
<text text-anchor="middle" x="576.5" y="-230.3" font-family="Times,serif" font-size="14.00">obsfilter_mod</text>
</a>
</g>
</g>
<!-- obsfilter_mod&#45;&gt;bufr_mod -->
<g id="edge11" class="edge">
<title>obsfilter_mod&#45;&gt;bufr_mod</title>
<path fill="none" stroke="black" d="M585.07,-208.22C600.24,-164.33 631.47,-74.03 644.54,-36.23"/>
<ellipse fill="black" stroke="black" cx="583.74" cy="-212.07" rx="4" ry="4"/>
</g>
<!-- obsoperatorschem_mod -->
<g id="node13" class="node">
<title>obsoperatorschem_mod</title>
<g id="a_node13"><a xlink:href="../modules/obsoperatorschem_mod_rev.svg" xlink:title="obsoperatorschem_mod">
<polygon fill="none" stroke="blue" points="660.5,-324 514.5,-324 514.5,-288 660.5,-288 660.5,-324"/>
<text text-anchor="middle" x="587.5" y="-302.3" font-family="Times,serif" font-size="14.00">obsoperatorschem_mod</text>
</a>
</g>
</g>
<!-- obsoperatorschem_mod&#45;&gt;bufr_mod -->
<g id="edge12" class="edge">
<title>obsoperatorschem_mod&#45;&gt;bufr_mod</title>
<path fill="none" stroke="black" d="M612,-281.8C619.56,-273.2 627.07,-262.87 631.5,-252 662.3,-176.46 656.45,-75.9 652.51,-36.18"/>
<ellipse fill="black" stroke="black" cx="609.23" cy="-284.8" rx="4" ry="4"/>
</g>
<!-- obsoperators_mod -->
<g id="node14" class="node">
<title>obsoperators_mod</title>
<g id="a_node14"><a xlink:href="../modules/obsoperators_mod_rev.svg" xlink:title="obsoperators_mod">
<polygon fill="none" stroke="blue" points="698.5,-396 582.5,-396 582.5,-360 698.5,-360 698.5,-396"/>
<text text-anchor="middle" x="640.5" y="-374.3" font-family="Times,serif" font-size="14.00">obsoperators_mod</text>
</a>
</g>
</g>
<!-- obsoperators_mod&#45;&gt;bufr_mod -->
<g id="edge13" class="edge">
<title>obsoperators_mod&#45;&gt;bufr_mod</title>
<path fill="none" stroke="black" d="M655.62,-352.9C660.63,-344.07 665.85,-333.83 669.5,-324 683.58,-286.08 688.5,-275.45 688.5,-235 688.5,-235 688.5,-235 688.5,-161 688.5,-114.55 669.29,-62.38 658.19,-36.09"/>
<ellipse fill="black" stroke="black" cx="653.52" cy="-356.49" rx="4" ry="4"/>
</g>
<!-- obsspacediag_mod -->
<g id="node15" class="node">
<title>obsspacediag_mod</title>
<g id="a_node15"><a xlink:href="../modules/obsspacediag_mod_rev.svg" xlink:title="obsspacediag_mod">
<polygon fill="none" stroke="blue" points="736,-468 617,-468 617,-432 736,-432 736,-468"/>
<text text-anchor="middle" x="676.5" y="-446.3" font-family="Times,serif" font-size="14.00">obsspacediag_mod</text>
</a>
</g>
</g>
<!-- obsspacediag_mod&#45;&gt;bufr_mod -->
<g id="edge14" class="edge">
<title>obsspacediag_mod&#45;&gt;bufr_mod</title>
<path fill="none" stroke="black" d="M692.96,-424.6C698.25,-415.88 703.71,-405.78 707.5,-396 722.12,-358.29 726.5,-347.45 726.5,-307 726.5,-307 726.5,-307 726.5,-161 726.5,-110.95 689.34,-61.47 666.99,-36.23"/>
<ellipse fill="black" stroke="black" cx="690.73" cy="-428.18" rx="4" ry="4"/>
</g>
<!-- obsspaceerrorstddev_mod -->
<g id="node16" class="node">
<title>obsspaceerrorstddev_mod</title>
<g id="a_node16"><a xlink:href="../modules/obsspaceerrorstddev_mod_rev.svg" xlink:title="obsspaceerrorstddev_mod">
<polygon fill="none" stroke="blue" points="774,-540 617,-540 617,-504 774,-504 774,-540"/>
<text text-anchor="middle" x="695.5" y="-518.3" font-family="Times,serif" font-size="14.00">obsspaceerrorstddev_mod</text>
</a>
</g>
</g>
<!-- obsspaceerrorstddev_mod&#45;&gt;bufr_mod -->
<g id="edge15" class="edge">
<title>obsspaceerrorstddev_mod&#45;&gt;bufr_mod</title>
<path fill="none" stroke="black" d="M721.64,-498.07C730.07,-489.42 738.72,-479 744.5,-468 763.35,-432.11 764.5,-419.54 764.5,-379 764.5,-379 764.5,-379 764.5,-161 764.5,-105.67 711.23,-59.63 677.52,-36.04"/>
<ellipse fill="black" stroke="black" cx="718.73" cy="-500.95" rx="4" ry="4"/>
</g>
<!-- obssubspacedata_mod -->
<g id="node17" class="node">
<title>obssubspacedata_mod</title>
<g id="a_node17"><a xlink:href="../modules/obssubspacedata_mod_rev.svg" xlink:title="obssubspacedata_mod">
<polygon fill="none" stroke="blue" points="870.5,-612 734.5,-612 734.5,-576 870.5,-576 870.5,-612"/>
<text text-anchor="middle" x="802.5" y="-590.3" font-family="Times,serif" font-size="14.00">obssubspacedata_mod</text>
</a>
</g>
</g>
<!-- obssubspacedata_mod&#45;&gt;bufr_mod -->
<g id="edge16" class="edge">
<title>obssubspacedata_mod&#45;&gt;bufr_mod</title>
<path fill="none" stroke="black" d="M802.5,-567.78C802.5,-539.39 802.5,-491.89 802.5,-451 802.5,-451 802.5,-451 802.5,-161 802.5,-97.44 730.66,-54.16 685.75,-33.31"/>
<ellipse fill="black" stroke="black" cx="802.5" cy="-571.95" rx="4" ry="4"/>
</g>
<!-- obsutil_mod -->
<g id="node18" class="node">
<title>obsutil_mod</title>
<g id="a_node18"><a xlink:href="../modules/obsutil_mod_rev.svg" xlink:title="obsutil_mod">
<polygon fill="none" stroke="blue" points="914,-108 831,-108 831,-72 914,-72 914,-108"/>
<text text-anchor="middle" x="872.5" y="-86.3" font-family="Times,serif" font-size="14.00">obsutil_mod</text>
</a>
</g>
</g>
<!-- obsutil_mod&#45;&gt;bufr_mod -->
<g id="edge17" class="edge">
<title>obsutil_mod&#45;&gt;bufr_mod</title>
<path fill="none" stroke="black" d="M822.92,-73.37C781.3,-60.24 722.87,-41.82 685.85,-30.15"/>
<ellipse fill="black" stroke="black" cx="826.93" cy="-74.63" rx="4" ry="4"/>
</g>
<!-- obsvariabletransforms_mod -->
<g id="node19" class="node">
<title>obsvariabletransforms_mod</title>
<g id="a_node19"><a xlink:href="../modules/obsvariabletransforms_mod_rev.svg" xlink:title="obsvariabletransforms_mod">
<polygon fill="none" stroke="blue" points="996.5,-180 830.5,-180 830.5,-144 996.5,-144 996.5,-180"/>
<text text-anchor="middle" x="913.5" y="-158.3" font-family="Times,serif" font-size="14.00">obsvariabletransforms_mod</text>
</a>
</g>
</g>
<!-- obsvariabletransforms_mod&#45;&gt;bufr_mod -->
<g id="edge18" class="edge">
<title>obsvariabletransforms_mod&#45;&gt;bufr_mod</title>
<path fill="none" stroke="black" d="M924.81,-136.18C931.85,-116.59 937.08,-89.7 922.5,-72 892.86,-36.03 752.28,-24.15 685.67,-20.5"/>
<ellipse fill="black" stroke="black" cx="923.29" cy="-140.09" rx="4" ry="4"/>
</g>
<!-- oceanobservations_mod -->
<g id="node20" class="node">
<title>oceanobservations_mod</title>
<g id="a_node20"><a xlink:href="../modules/oceanobservations_mod_rev.svg" xlink:title="oceanobservations_mod">
<polygon fill="none" stroke="blue" points="1034.5,-252 888.5,-252 888.5,-216 1034.5,-216 1034.5,-252"/>
<text text-anchor="middle" x="961.5" y="-230.3" font-family="Times,serif" font-size="14.00">oceanobservations_mod</text>
</a>
</g>
</g>
<!-- oceanobservations_mod&#45;&gt;bufr_mod -->
<g id="edge19" class="edge">
<title>oceanobservations_mod&#45;&gt;bufr_mod</title>
<path fill="none" stroke="black" d="M986.51,-210C994.11,-201.41 1001.51,-191.04 1005.5,-180 1010.93,-164.95 1011.19,-158.96 1005.5,-144 990.28,-103.98 978.82,-92.98 941.5,-72 858.46,-25.32 742.97,-18.46 685.66,-18.22"/>
<ellipse fill="black" stroke="black" cx="983.7" cy="-212.99" rx="4" ry="4"/>
</g>
<!-- sqliteread_mod -->
<g id="node21" class="node">
<title>sqliteread_mod</title>
<g id="a_node21"><a xlink:href="../modules/sqliteread_mod_rev.svg" xlink:title="sqliteread_mod">
<polygon fill="none" stroke="blue" points="1072.5,-324 972.5,-324 972.5,-288 1072.5,-288 1072.5,-324"/>
<text text-anchor="middle" x="1022.5" y="-302.3" font-family="Times,serif" font-size="14.00">sqliteread_mod</text>
</a>
</g>
</g>
<!-- sqliteread_mod&#45;&gt;bufr_mod -->
<g id="edge20" class="edge">
<title>sqliteread_mod&#45;&gt;bufr_mod</title>
<path fill="none" stroke="black" d="M1034.55,-280.24C1038.18,-271.53 1041.68,-261.53 1043.5,-252 1046.5,-236.28 1045.76,-231.84 1043.5,-216 1033.57,-146.49 1036.8,-111.14 978.5,-72 930.97,-40.09 759.94,-25.8 685.51,-20.99"/>
<ellipse fill="black" stroke="black" cx="1032.82" cy="-284.17" rx="4" ry="4"/>
</g>
<!-- thinning_mod -->
<g id="node22" class="node">
<title>thinning_mod</title>
<g id="a_node22"><a xlink:href="../modules/thinning_mod_rev.svg" xlink:title="thinning_mod">
<polygon fill="none" stroke="blue" points="1128.5,-396 1036.5,-396 1036.5,-360 1128.5,-360 1128.5,-396"/>
<text text-anchor="middle" x="1082.5" y="-374.3" font-family="Times,serif" font-size="14.00">thinning_mod</text>
</a>
</g>
</g>
<!-- thinning_mod&#45;&gt;bufr_mod -->
<g id="edge21" class="edge">
<title>thinning_mod&#45;&gt;bufr_mod</title>
<path fill="none" stroke="black" d="M1087.71,-351.44C1093.03,-323.1 1100.5,-275.99 1100.5,-235 1100.5,-235 1100.5,-235 1100.5,-161 1100.5,-105.06 1061.49,-97.11 1011.5,-72 954.68,-43.45 764.98,-27.09 685.75,-21.35"/>
<ellipse fill="black" stroke="black" cx="1086.9" cy="-355.67" rx="4" ry="4"/>
</g>
<!-- varnamelist_mod -->
<g id="node23" class="node">
<title>varnamelist_mod</title>
<g id="a_node23"><a xlink:href="../modules/varnamelist_mod_rev.svg" xlink:title="varnamelist_mod">
<polygon fill="none" stroke="blue" points="1211.5,-468 1101.5,-468 1101.5,-432 1211.5,-432 1211.5,-468"/>
<text text-anchor="middle" x="1156.5" y="-446.3" font-family="Times,serif" font-size="14.00">varnamelist_mod</text>
</a>
</g>
</g>
<!-- varnamelist_mod&#45;&gt;bufr_mod -->
<g id="edge22" class="edge">
<title>varnamelist_mod&#45;&gt;bufr_mod</title>
<path fill="none" stroke="black" d="M1156.5,-423.78C1156.5,-395.39 1156.5,-347.89 1156.5,-307 1156.5,-307 1156.5,-307 1156.5,-161 1156.5,-102.49 1112.54,-96.69 1059.5,-72 993.21,-41.14 772.34,-25.79 685.76,-20.84"/>
<ellipse fill="black" stroke="black" cx="1156.5" cy="-427.95" rx="4" ry="4"/>
</g>
<!-- varqc_mod -->
<g id="node24" class="node">
<title>varqc_mod</title>
<g id="a_node24"><a xlink:href="../modules/varqc_mod_rev.svg" xlink:title="varqc_mod">
<polygon fill="none" stroke="blue" points="1278,-540 1201,-540 1201,-504 1278,-504 1278,-540"/>
<text text-anchor="middle" x="1239.5" y="-518.3" font-family="Times,serif" font-size="14.00">varqc_mod</text>
</a>
</g>
</g>
<!-- varqc_mod&#45;&gt;bufr_mod -->
<g id="edge23" class="edge">
<title>varqc_mod&#45;&gt;bufr_mod</title>
<path fill="none" stroke="black" d="M1239.5,-495.78C1239.5,-467.39 1239.5,-419.89 1239.5,-379 1239.5,-379 1239.5,-379 1239.5,-161 1239.5,-46.35 812.38,-23.99 685.58,-19.88"/>
<ellipse fill="black" stroke="black" cx="1239.5" cy="-499.95" rx="4" ry="4"/>
</g>
</g>
</svg>
