<?xml version="1.0" encoding="UTF-8" standalone="no"?>
<!DOCTYPE svg PUBLIC "-//W3C//DTD SVG 1.1//EN"
 "http://www.w3.org/Graphics/SVG/1.1/DTD/svg11.dtd">
<!-- Generated by graphviz version 3.0.0 (20220315.2325)
 -->
<!-- Title: burpread_mod Pages: 1 -->
<svg width="430pt" height="313pt"
 viewBox="0.00 0.00 430.00 313.00" xmlns="http://www.w3.org/2000/svg" xmlns:xlink="http://www.w3.org/1999/xlink">
<g id="graph0" class="graph" transform="scale(1 1) rotate(0) translate(4 309)">
<title>burpread_mod</title>
<polygon fill="white" stroke="transparent" points="-4,4 -4,-309 426,-309 426,4 -4,4"/>
<text text-anchor="middle" x="211" y="-289.8" font-family="Times,serif" font-size="14.00">Blue boxes indicate modules with reverse dependencies not shown</text>
<text text-anchor="middle" x="211" y="-274.8" font-family="Times,serif" font-size="14.00">Higher level reverse dependencies can be shown by clicking on a blue box</text>
<text text-anchor="middle" x="211" y="-259.8" font-family="Times,serif" font-size="14.00">Green boxes are programs</text>
<!-- burpread_mod -->
<g id="node1" class="node">
<title>burpread_mod</title>
<g id="a_node1"><a xlink:href="burpread_mod.html" xlink:title="burpread_mod">
<polygon fill="none" stroke="black" points="248,-36 153,-36 153,0 248,0 248,-36"/>
<text text-anchor="middle" x="200.5" y="-14.3" font-family="Times,serif" font-size="14.00">burpread_mod</text>
</a>
</g>
</g>
<!-- burpfiles_mod -->
<g id="node2" class="node">
<title>burpfiles_mod</title>
<g id="a_node2"><a xlink:href="../modules/burpfiles_mod_rev.svg" xlink:title="burpfiles_mod">
<polygon fill="none" stroke="blue" points="172,-108 77,-108 77,-72 172,-72 172,-108"/>
<text text-anchor="middle" x="124.5" y="-86.3" font-family="Times,serif" font-size="14.00">burpfiles_mod</text>
</a>
</g>
</g>
<!-- burpfiles_mod&#45;&gt;burpread_mod -->
<g id="edge1" class="edge">
<title>burpfiles_mod&#45;&gt;burpread_mod</title>
<path fill="none" stroke="black" d="M149.32,-66.13C159.94,-56.36 172.12,-45.14 181.93,-36.1"/>
<ellipse fill="black" stroke="black" cx="146.23" cy="-68.99" rx="4" ry="4"/>
</g>
<!-- obsfiles_mod -->
<g id="node3" class="node">
<title>obsfiles_mod</title>
<g id="a_node3"><a xlink:href="../modules/obsfiles_mod_rev.svg" xlink:title="obsfiles_mod">
<polygon fill="none" stroke="blue" points="245,-180 156,-180 156,-144 245,-144 245,-180"/>
<text text-anchor="middle" x="200.5" y="-158.3" font-family="Times,serif" font-size="14.00">obsfiles_mod</text>
</a>
</g>
</g>
<!-- obsfiles_mod&#45;&gt;burpread_mod -->
<g id="edge2" class="edge">
<title>obsfiles_mod&#45;&gt;burpread_mod</title>
<path fill="none" stroke="black" d="M200.5,-135.56C200.5,-106.86 200.5,-60.96 200.5,-36.19"/>
<ellipse fill="black" stroke="black" cx="200.5" cy="-139.87" rx="4" ry="4"/>
</g>
<!-- midas_midas_prepcma -->
<g id="node4" class="node">
<title>midas_midas_prepcma</title>
<g id="a_node4"><a xlink:href="../programs/midas_prepcma.html" xlink:title="midas_midas_prepcma">
<polygon fill="gray" stroke="green" points="345,-252 202,-252 202,-216 345,-216 345,-252"/>
<text text-anchor="middle" x="273.5" y="-230.3" font-family="Times,serif" font-size="14.00">midas_midas_prepcma</text>
</a>
</g>
</g>
<!-- midas_midas_prepcma&#45;&gt;burpread_mod -->
<g id="edge3" class="edge">
<title>midas_midas_prepcma&#45;&gt;burpread_mod</title>
<path fill="none" stroke="black" d="M269.02,-207.44C265.57,-189.47 260.25,-164.99 253.5,-144 240.73,-104.28 220.28,-59.73 208.88,-36.02"/>
<ellipse fill="black" stroke="black" cx="269.83" cy="-211.76" rx="4" ry="4"/>
</g>
</g>
</svg>
