<?xml version="1.0" encoding="UTF-8" standalone="no"?>
<!DOCTYPE svg PUBLIC "-//W3C//DTD SVG 1.1//EN"
 "http://www.w3.org/Graphics/SVG/1.1/DTD/svg11.dtd">
<!-- Generated by graphviz version 3.0.0 (20220315.2325)
 -->
<!-- Title: burpread_mod Pages: 1 -->
<svg width="711pt" height="673pt"
 viewBox="0.00 0.00 711.00 673.00" xmlns="http://www.w3.org/2000/svg" xmlns:xlink="http://www.w3.org/1999/xlink">
<g id="graph0" class="graph" transform="scale(1 1) rotate(0) translate(4 669)">
<title>burpread_mod</title>
<polygon fill="white" stroke="transparent" points="-4,4 -4,-669 707,-669 707,4 -4,4"/>
<text text-anchor="middle" x="351.5" y="-37.8" font-family="Times,serif" font-size="14.00">Red boxes indicate modules with dependencies not shown</text>
<text text-anchor="middle" x="351.5" y="-22.8" font-family="Times,serif" font-size="14.00">Lower level dependencies can be shown by clicking on a red box</text>
<text text-anchor="middle" x="351.5" y="-7.8" font-family="Times,serif" font-size="14.00">Shaded boxes indicate modules with no dependencies</text>
<!-- burpread_mod -->
<g id="node1" class="node">
<title>burpread_mod</title>
<g id="a_node1"><a xlink:href="burpread_mod.html" xlink:title="burpread_mod">
<polygon fill="none" stroke="black" points="341.5,-665 246.5,-665 246.5,-629 341.5,-629 341.5,-665"/>
<text text-anchor="middle" x="294" y="-643.3" font-family="Times,serif" font-size="14.00">burpread_mod</text>
</a>
</g>
</g>
<!-- bufr_mod -->
<g id="node2" class="node">
<title>bufr_mod</title>
<g id="a_node2"><a xlink:href="bufr_mod.html" xlink:title="bufr_mod">
<polygon fill="gray" stroke="black" points="70,-593 0,-593 0,-557 70,-557 70,-593"/>
<text text-anchor="middle" x="35" y="-571.3" font-family="Times,serif" font-size="14.00">bufr_mod</text>
</a>
</g>
</g>
<!-- burpread_mod&#45;&gt;bufr_mod -->
<g id="edge1" class="edge">
<title>burpread_mod&#45;&gt;bufr_mod</title>
<path fill="none" stroke="black" d="M246.14,-635.17C203.36,-625.19 139.12,-609.48 84,-593 82.6,-592.58 81.18,-592.15 79.74,-591.7"/>
<polygon fill="black" stroke="black" points="80.8,-588.36 70.21,-588.63 78.65,-595.03 80.8,-588.36"/>
</g>
<!-- codeprecision_mod -->
<g id="node3" class="node">
<title>codeprecision_mod</title>
<g id="a_node3"><a xlink:href="codeprecision_mod.html" xlink:title="codeprecision_mod">
<polygon fill="gray" stroke="black" points="133,-521 11,-521 11,-485 133,-485 133,-521"/>
<text text-anchor="middle" x="72" y="-499.3" font-family="Times,serif" font-size="14.00">codeprecision_mod</text>
</a>
</g>
</g>
<!-- burpread_mod&#45;&gt;codeprecision_mod -->
<g id="edge2" class="edge">
<title>burpread_mod&#45;&gt;codeprecision_mod</title>
<path fill="none" stroke="black" d="M246.33,-635.61C216,-627.42 176.94,-613.85 147,-593 122.7,-576.08 101.64,-549.36 88.08,-529.61"/>
<polygon fill="black" stroke="black" points="90.85,-527.46 82.39,-521.09 85.03,-531.35 90.85,-527.46"/>
</g>
<!-- codtyp_mod -->
<g id="node4" class="node">
<title>codtyp_mod</title>
<g id="a_node4"><a xlink:href="../modules/codtyp_mod.svg" xlink:title="codtyp_mod">
<polygon fill="none" stroke="red" points="171,-449 87,-449 87,-413 171,-413 171,-449"/>
<text text-anchor="middle" x="129" y="-427.3" font-family="Times,serif" font-size="14.00">codtyp_mod</text>
</a>
</g>
</g>
<!-- burpread_mod&#45;&gt;codtyp_mod -->
<g id="edge3" class="edge">
<title>burpread_mod&#45;&gt;codtyp_mod</title>
<path fill="none" stroke="black" d="M246.41,-632.16C225.11,-623.84 201.21,-611.25 185,-593 167.01,-572.75 146.11,-499.13 135.67,-458.83"/>
<polygon fill="black" stroke="black" points="139.05,-457.94 133.18,-449.12 132.27,-459.67 139.05,-457.94"/>
</g>
<!-- earthconstants_mod -->
<g id="node5" class="node">
<title>earthconstants_mod</title>
<g id="a_node5"><a xlink:href="../modules/earthconstants_mod.svg" xlink:title="earthconstants_mod">
<polygon fill="none" stroke="red" points="208.5,-377 83.5,-377 83.5,-341 208.5,-341 208.5,-377"/>
<text text-anchor="middle" x="146" y="-355.3" font-family="Times,serif" font-size="14.00">earthconstants_mod</text>
</a>
</g>
</g>
<!-- burpread_mod&#45;&gt;earthconstants_mod -->
<g id="edge4" class="edge">
<title>burpread_mod&#45;&gt;earthconstants_mod</title>
<path fill="none" stroke="black" d="M261.96,-628.92C248.04,-619.97 232.72,-607.78 223,-593 177.79,-524.29 212.21,-488.68 180,-413 176,-403.59 170.38,-393.99 164.86,-385.58"/>
<polygon fill="black" stroke="black" points="167.75,-383.6 159.22,-377.32 161.97,-387.55 167.75,-383.6"/>
</g>
<!-- kdtree2_mod -->
<g id="node6" class="node">
<title>kdtree2_mod</title>
<g id="a_node6"><a xlink:href="../modules/kdtree2_mod.svg" xlink:title="kdtree2_mod">
<polygon fill="none" stroke="red" points="247,-305 159,-305 159,-269 247,-269 247,-305"/>
<text text-anchor="middle" x="203" y="-283.3" font-family="Times,serif" font-size="14.00">kdtree2_mod</text>
</a>
</g>
</g>
<!-- burpread_mod&#45;&gt;kdtree2_mod -->
<g id="edge5" class="edge">
<title>burpread_mod&#45;&gt;kdtree2_mod</title>
<path fill="none" stroke="black" d="M281.33,-628.57C274.53,-618.56 266.45,-605.52 261,-593 244.66,-555.43 237,-544.97 237,-504 237,-504 237,-504 237,-430 237,-388.91 223.37,-342.92 213.37,-314.72"/>
<polygon fill="black" stroke="black" points="216.6,-313.36 209.88,-305.17 210.03,-315.76 216.6,-313.36"/>
</g>
<!-- mathphysconstants_mod -->
<g id="node7" class="node">
<title>mathphysconstants_mod</title>
<g id="a_node7"><a xlink:href="mathphysconstants_mod.html" xlink:title="mathphysconstants_mod">
<polygon fill="gray" stroke="black" points="285,-233 135,-233 135,-197 285,-197 285,-233"/>
<text text-anchor="middle" x="210" y="-211.3" font-family="Times,serif" font-size="14.00">mathphysconstants_mod</text>
</a>
</g>
</g>
<!-- burpread_mod&#45;&gt;mathphysconstants_mod -->
<g id="edge6" class="edge">
<title>burpread_mod&#45;&gt;mathphysconstants_mod</title>
<path fill="none" stroke="black" d="M290.16,-628.61C284.6,-601.94 275,-549.27 275,-504 275,-504 275,-504 275,-358 275,-317.55 274.05,-305.2 256,-269 250.97,-258.92 243.58,-249.21 236.18,-240.91"/>
<polygon fill="black" stroke="black" points="238.56,-238.33 229.16,-233.43 233.45,-243.12 238.56,-238.33"/>
</g>
<!-- obsfilter_mod -->
<g id="node8" class="node">
<title>obsfilter_mod</title>
<g id="a_node8"><a xlink:href="../modules/obsfilter_mod.svg" xlink:title="obsfilter_mod">
<polygon fill="none" stroke="red" points="323,-161 231,-161 231,-125 323,-125 323,-161"/>
<text text-anchor="middle" x="277" y="-139.3" font-family="Times,serif" font-size="14.00">obsfilter_mod</text>
</a>
</g>
</g>
<!-- burpread_mod&#45;&gt;obsfilter_mod -->
<g id="edge7" class="edge">
<title>burpread_mod&#45;&gt;obsfilter_mod</title>
<path fill="none" stroke="black" d="M297.84,-628.61C303.4,-601.94 313,-549.27 313,-504 313,-504 313,-504 313,-286 313,-244.78 298.57,-198.83 287.98,-170.66"/>
<polygon fill="black" stroke="black" points="291.16,-169.19 284.29,-161.13 284.64,-171.72 291.16,-169.19"/>
</g>
<!-- obsspacedata_mod -->
<g id="node9" class="node">
<title>obsspacedata_mod</title>
<g id="a_node9"><a xlink:href="../modules/obsspacedata_mod.svg" xlink:title="obsspacedata_mod">
<polygon fill="none" stroke="red" points="410,-89 292,-89 292,-53 410,-53 410,-89"/>
<text text-anchor="middle" x="351" y="-67.3" font-family="Times,serif" font-size="14.00">obsspacedata_mod</text>
</a>
</g>
</g>
<!-- burpread_mod&#45;&gt;obsspacedata_mod -->
<g id="edge8" class="edge">
<title>burpread_mod&#45;&gt;obsspacedata_mod</title>
<path fill="none" stroke="black" d="M305.81,-628.96C322.51,-603.16 351,-552.08 351,-504 351,-504 351,-504 351,-214 351,-174 351,-127.65 351,-99.08"/>
<polygon fill="black" stroke="black" points="354.5,-99.05 351,-89.05 347.5,-99.05 354.5,-99.05"/>
</g>
<!-- obsutil_mod -->
<g id="node10" class="node">
<title>obsutil_mod</title>
<g id="a_node10"><a xlink:href="../modules/obsutil_mod.svg" xlink:title="obsutil_mod">
<polygon fill="none" stroke="red" points="462.5,-593 379.5,-593 379.5,-557 462.5,-557 462.5,-593"/>
<text text-anchor="middle" x="421" y="-571.3" font-family="Times,serif" font-size="14.00">obsutil_mod</text>
</a>
</g>
</g>
<!-- burpread_mod&#45;&gt;obsutil_mod -->
<g id="edge9" class="edge">
<title>burpread_mod&#45;&gt;obsutil_mod</title>
<path fill="none" stroke="black" d="M325.07,-628.88C341.83,-619.64 362.71,-608.13 380.7,-598.21"/>
<polygon fill="black" stroke="black" points="382.74,-601.08 389.81,-593.19 379.37,-594.95 382.74,-601.08"/>
</g>
<!-- obsvariabletransforms_mod -->
<g id="node11" class="node">
<title>obsvariabletransforms_mod</title>
<g id="a_node11"><a xlink:href="../modules/obsvariabletransforms_mod.svg" xlink:title="obsvariabletransforms_mod">
<polygon fill="none" stroke="red" points="559,-521 393,-521 393,-485 559,-485 559,-521"/>
<text text-anchor="middle" x="476" y="-499.3" font-family="Times,serif" font-size="14.00">obsvariabletransforms_mod</text>
</a>
</g>
</g>
<!-- burpread_mod&#45;&gt;obsvariabletransforms_mod -->
<g id="edge10" class="edge">
<title>burpread_mod&#45;&gt;obsvariabletransforms_mod</title>
<path fill="none" stroke="black" d="M341.74,-645.91C382.94,-643.01 440.5,-631.66 471,-593 484.59,-575.78 484.66,-550.34 482.02,-531.07"/>
<polygon fill="black" stroke="black" points="485.45,-530.37 480.34,-521.08 478.55,-531.53 485.45,-530.37"/>
</g>
<!-- tovs_nl_mod -->
<g id="node12" class="node">
<title>tovs_nl_mod</title>
<g id="a_node12"><a xlink:href="../modules/tovs_nl_mod.svg" xlink:title="tovs_nl_mod">
<polygon fill="none" stroke="red" points="630.5,-449 543.5,-449 543.5,-413 630.5,-413 630.5,-449"/>
<text text-anchor="middle" x="587" y="-427.3" font-family="Times,serif" font-size="14.00">tovs_nl_mod</text>
</a>
</g>
</g>
<!-- burpread_mod&#45;&gt;tovs_nl_mod -->
<g id="edge11" class="edge">
<title>burpread_mod&#45;&gt;tovs_nl_mod</title>
<path fill="none" stroke="black" d="M341.7,-640.01C383.44,-633.23 444.64,-619.49 492,-593 532.61,-570.29 545.23,-561.58 568,-521 578.66,-502 583.35,-477.63 585.41,-459.2"/>
<polygon fill="black" stroke="black" points="588.91,-459.4 586.34,-449.12 581.93,-458.76 588.91,-459.4"/>
</g>
<!-- utilities_mod -->
<g id="node13" class="node">
<title>utilities_mod</title>
<g id="a_node13"><a xlink:href="../modules/utilities_mod.svg" xlink:title="utilities_mod">
<polygon fill="none" stroke="red" points="703,-377 615,-377 615,-341 703,-341 703,-377"/>
<text text-anchor="middle" x="659" y="-355.3" font-family="Times,serif" font-size="14.00">utilities_mod</text>
</a>
</g>
</g>
<!-- burpread_mod&#45;&gt;utilities_mod -->
<g id="edge12" class="edge">
<title>burpread_mod&#45;&gt;utilities_mod</title>
<path fill="none" stroke="black" d="M341.8,-644.64C392.55,-641.19 473.36,-629.77 532,-593 599.55,-550.64 606.92,-522 639,-449 647.69,-429.22 652.8,-405.24 655.68,-387.16"/>
<polygon fill="black" stroke="black" points="659.18,-387.41 657.16,-377.01 652.25,-386.4 659.18,-387.41"/>
</g>
</g>
</svg>
