<?xml version="1.0" encoding="UTF-8" standalone="no"?>
<!DOCTYPE svg PUBLIC "-//W3C//DTD SVG 1.1//EN"
 "http://www.w3.org/Graphics/SVG/1.1/DTD/svg11.dtd">
<!-- Generated by graphviz version 3.0.0 (20220315.2325)
 -->
<!-- Title: burpfiles_mod Pages: 1 -->
<svg width="485pt" height="673pt"
 viewBox="0.00 0.00 485.00 673.00" xmlns="http://www.w3.org/2000/svg" xmlns:xlink="http://www.w3.org/1999/xlink">
<g id="graph0" class="graph" transform="scale(1 1) rotate(0) translate(4 669)">
<title>burpfiles_mod</title>
<polygon fill="white" stroke="transparent" points="-4,4 -4,-669 481,-669 481,4 -4,4"/>
<text text-anchor="middle" x="238.5" y="-37.8" font-family="Times,serif" font-size="14.00">Red boxes indicate modules with dependencies not shown</text>
<text text-anchor="middle" x="238.5" y="-22.8" font-family="Times,serif" font-size="14.00">Lower level dependencies can be shown by clicking on a red box</text>
<text text-anchor="middle" x="238.5" y="-7.8" font-family="Times,serif" font-size="14.00">Shaded boxes indicate modules with no dependencies</text>
<!-- burpfiles_mod -->
<g id="node1" class="node">
<title>burpfiles_mod</title>
<g id="a_node1"><a xlink:href="burpfiles_mod.html" xlink:title="burpfiles_mod">
<polygon fill="none" stroke="black" points="278.5,-665 183.5,-665 183.5,-629 278.5,-629 278.5,-665"/>
<text text-anchor="middle" x="231" y="-643.3" font-family="Times,serif" font-size="14.00">burpfiles_mod</text>
</a>
</g>
</g>
<!-- bufr_mod -->
<g id="node2" class="node">
<title>bufr_mod</title>
<g id="a_node2"><a xlink:href="bufr_mod.html" xlink:title="bufr_mod">
<polygon fill="gray" stroke="black" points="70,-593 0,-593 0,-557 70,-557 70,-593"/>
<text text-anchor="middle" x="35" y="-571.3" font-family="Times,serif" font-size="14.00">bufr_mod</text>
</a>
</g>
</g>
<!-- burpfiles_mod&#45;&gt;bufr_mod -->
<g id="edge1" class="edge">
<title>burpfiles_mod&#45;&gt;bufr_mod</title>
<path fill="none" stroke="black" d="M183.3,-628.97C151.81,-617.72 110.81,-603.08 79.9,-592.04"/>
<polygon fill="black" stroke="black" points="80.84,-588.66 70.25,-588.59 78.49,-595.25 80.84,-588.66"/>
</g>
<!-- burpread_mod -->
<g id="node3" class="node">
<title>burpread_mod</title>
<g id="a_node3"><a xlink:href="../modules/burpread_mod.svg" xlink:title="burpread_mod">
<polygon fill="none" stroke="red" points="126.5,-521 31.5,-521 31.5,-485 126.5,-485 126.5,-521"/>
<text text-anchor="middle" x="79" y="-499.3" font-family="Times,serif" font-size="14.00">burpread_mod</text>
</a>
</g>
</g>
<!-- burpfiles_mod&#45;&gt;burpread_mod -->
<g id="edge2" class="edge">
<title>burpfiles_mod&#45;&gt;burpread_mod</title>
<path fill="none" stroke="black" d="M193.98,-628.85C176.7,-619.73 156.56,-607.42 141,-593 121.18,-574.63 104.09,-548.89 92.91,-529.81"/>
<polygon fill="black" stroke="black" points="95.9,-527.99 87.91,-521.04 89.82,-531.46 95.9,-527.99"/>
</g>
<!-- codeprecision_mod -->
<g id="node4" class="node">
<title>codeprecision_mod</title>
<g id="a_node4"><a xlink:href="codeprecision_mod.html" xlink:title="codeprecision_mod">
<polygon fill="gray" stroke="black" points="165,-449 43,-449 43,-413 165,-413 165,-449"/>
<text text-anchor="middle" x="104" y="-427.3" font-family="Times,serif" font-size="14.00">codeprecision_mod</text>
</a>
</g>
</g>
<!-- burpfiles_mod&#45;&gt;codeprecision_mod -->
<g id="edge3" class="edge">
<title>burpfiles_mod&#45;&gt;codeprecision_mod</title>
<path fill="none" stroke="black" d="M210.78,-628.91C200.25,-619.21 187.78,-606.36 179,-593 150.54,-549.68 157.92,-531.49 135,-485 130.57,-476.01 125.21,-466.48 120.21,-458.01"/>
<polygon fill="black" stroke="black" points="123.13,-456.08 114.97,-449.32 117.13,-459.69 123.13,-456.08"/>
</g>
<!-- mathphysconstants_mod -->
<g id="node5" class="node">
<title>mathphysconstants_mod</title>
<g id="a_node5"><a xlink:href="mathphysconstants_mod.html" xlink:title="mathphysconstants_mod">
<polygon fill="gray" stroke="black" points="203,-377 53,-377 53,-341 203,-341 203,-377"/>
<text text-anchor="middle" x="128" y="-355.3" font-family="Times,serif" font-size="14.00">mathphysconstants_mod</text>
</a>
</g>
</g>
<!-- burpfiles_mod&#45;&gt;mathphysconstants_mod -->
<g id="edge4" class="edge">
<title>burpfiles_mod&#45;&gt;mathphysconstants_mod</title>
<path fill="none" stroke="black" d="M226.36,-628.84C223.58,-618.48 220.02,-605 217,-593 196.94,-513.23 211.59,-486.16 174,-413 168.71,-402.71 161.02,-392.77 153.44,-384.32"/>
<polygon fill="black" stroke="black" points="155.97,-381.91 146.57,-377.02 150.87,-386.71 155.97,-381.91"/>
</g>
<!-- obsspacedata_mod -->
<g id="node6" class="node">
<title>obsspacedata_mod</title>
<g id="a_node6"><a xlink:href="../modules/obsspacedata_mod.svg" xlink:title="obsspacedata_mod">
<polygon fill="none" stroke="red" points="241,-305 123,-305 123,-269 241,-269 241,-305"/>
<text text-anchor="middle" x="182" y="-283.3" font-family="Times,serif" font-size="14.00">obsspacedata_mod</text>
</a>
</g>
</g>
<!-- burpfiles_mod&#45;&gt;obsspacedata_mod -->
<g id="edge5" class="edge">
<title>burpfiles_mod&#45;&gt;obsspacedata_mod</title>
<path fill="none" stroke="black" d="M231,-628.95C231,-602.29 231,-549.11 231,-504 231,-504 231,-504 231,-430 231,-389.55 226.35,-378.82 212,-341 208.47,-331.71 203.49,-322.09 198.6,-313.65"/>
<polygon fill="black" stroke="black" points="201.56,-311.77 193.4,-305.01 195.56,-315.38 201.56,-311.77"/>
</g>
<!-- obssubspacedata_mod -->
<g id="node7" class="node">
<title>obssubspacedata_mod</title>
<g id="a_node7"><a xlink:href="../modules/obssubspacedata_mod.svg" xlink:title="obssubspacedata_mod">
<polygon fill="none" stroke="red" points="279,-233 143,-233 143,-197 279,-197 279,-233"/>
<text text-anchor="middle" x="211" y="-211.3" font-family="Times,serif" font-size="14.00">obssubspacedata_mod</text>
</a>
</g>
</g>
<!-- burpfiles_mod&#45;&gt;obssubspacedata_mod -->
<g id="edge6" class="edge">
<title>burpfiles_mod&#45;&gt;obssubspacedata_mod</title>
<path fill="none" stroke="black" d="M238.69,-628.91C249.79,-602.62 269,-550.45 269,-504 269,-504 269,-504 269,-358 269,-317.55 266.58,-305.89 250,-269 245.64,-259.31 239.31,-249.66 233,-241.31"/>
<polygon fill="black" stroke="black" points="235.73,-239.11 226.78,-233.44 230.23,-243.45 235.73,-239.11"/>
</g>
<!-- obsutil_mod -->
<g id="node8" class="node">
<title>obsutil_mod</title>
<g id="a_node8"><a xlink:href="../modules/obsutil_mod.svg" xlink:title="obsutil_mod">
<polygon fill="none" stroke="red" points="332.5,-161 249.5,-161 249.5,-125 332.5,-125 332.5,-161"/>
<text text-anchor="middle" x="291" y="-139.3" font-family="Times,serif" font-size="14.00">obsutil_mod</text>
</a>
</g>
</g>
<!-- burpfiles_mod&#45;&gt;obsutil_mod -->
<g id="edge7" class="edge">
<title>burpfiles_mod&#45;&gt;obsutil_mod</title>
<path fill="none" stroke="black" d="M247.49,-628.77C269.84,-603.53 307,-554.05 307,-504 307,-504 307,-504 307,-286 307,-245.96 300.64,-199.97 295.94,-171.45"/>
<polygon fill="black" stroke="black" points="299.36,-170.69 294.24,-161.42 292.46,-171.86 299.36,-170.69"/>
</g>
<!-- obsvariabletransforms_mod -->
<g id="node9" class="node">
<title>obsvariabletransforms_mod</title>
<g id="a_node9"><a xlink:href="../modules/obsvariabletransforms_mod.svg" xlink:title="obsvariabletransforms_mod">
<polygon fill="none" stroke="red" points="444,-89 278,-89 278,-53 444,-53 444,-89"/>
<text text-anchor="middle" x="361" y="-67.3" font-family="Times,serif" font-size="14.00">obsvariabletransforms_mod</text>
</a>
</g>
</g>
<!-- burpfiles_mod&#45;&gt;obsvariabletransforms_mod -->
<g id="edge8" class="edge">
<title>burpfiles_mod&#45;&gt;obsvariabletransforms_mod</title>
<path fill="none" stroke="black" d="M263.47,-628.94C301.97,-606.09 361,-561.66 361,-504 361,-504 361,-504 361,-214 361,-174 361,-127.65 361,-99.08"/>
<polygon fill="black" stroke="black" points="364.5,-99.05 361,-89.05 357.5,-99.05 364.5,-99.05"/>
</g>
<!-- utilities_mod -->
<g id="node10" class="node">
<title>utilities_mod</title>
<g id="a_node10"><a xlink:href="../modules/utilities_mod.svg" xlink:title="utilities_mod">
<polygon fill="none" stroke="red" points="477,-593 389,-593 389,-557 477,-557 477,-593"/>
<text text-anchor="middle" x="433" y="-571.3" font-family="Times,serif" font-size="14.00">utilities_mod</text>
</a>
</g>
</g>
<!-- burpfiles_mod&#45;&gt;utilities_mod -->
<g id="edge9" class="edge">
<title>burpfiles_mod&#45;&gt;utilities_mod</title>
<path fill="none" stroke="black" d="M278.62,-629.5C308.85,-619.02 348.03,-605.44 379.36,-594.59"/>
<polygon fill="black" stroke="black" points="380.51,-597.89 388.81,-591.31 378.22,-591.28 380.51,-597.89"/>
</g>
</g>
</svg>
