<?xml version="1.0" encoding="UTF-8" standalone="no"?>
<!DOCTYPE svg PUBLIC "-//W3C//DTD SVG 1.1//EN"
 "http://www.w3.org/Graphics/SVG/1.1/DTD/svg11.dtd">
<!-- Generated by graphviz version 3.0.0 (20220315.2325)
 -->
<!-- Title: calcstatsglb_mod Pages: 1 -->
<svg width="1158pt" height="673pt"
 viewBox="0.00 0.00 1157.50 673.00" xmlns="http://www.w3.org/2000/svg" xmlns:xlink="http://www.w3.org/1999/xlink">
<g id="graph0" class="graph" transform="scale(1 1) rotate(0) translate(4 669)">
<title>calcstatsglb_mod</title>
<polygon fill="white" stroke="transparent" points="-4,4 -4,-669 1153.5,-669 1153.5,4 -4,4"/>
<text text-anchor="middle" x="574.75" y="-37.8" font-family="Times,serif" font-size="14.00">Red boxes indicate modules with dependencies not shown</text>
<text text-anchor="middle" x="574.75" y="-22.8" font-family="Times,serif" font-size="14.00">Lower level dependencies can be shown by clicking on a red box</text>
<text text-anchor="middle" x="574.75" y="-7.8" font-family="Times,serif" font-size="14.00">Shaded boxes indicate modules with no dependencies</text>
<!-- calcstatsglb_mod -->
<g id="node1" class="node">
<title>calcstatsglb_mod</title>
<g id="a_node1"><a xlink:href="calcstatsglb_mod.html" xlink:title="calcstatsglb_mod">
<polygon fill="none" stroke="black" points="686.5,-665 576.5,-665 576.5,-629 686.5,-629 686.5,-665"/>
<text text-anchor="middle" x="631.5" y="-643.3" font-family="Times,serif" font-size="14.00">calcstatsglb_mod</text>
</a>
</g>
</g>
<!-- calcheightandpressure_mod -->
<g id="node2" class="node">
<title>calcheightandpressure_mod</title>
<g id="a_node2"><a xlink:href="../modules/calcheightandpressure_mod.svg" xlink:title="calcheightandpressure_mod">
<polygon fill="none" stroke="red" points="167,-593 0,-593 0,-557 167,-557 167,-593"/>
<text text-anchor="middle" x="83.5" y="-571.3" font-family="Times,serif" font-size="14.00">calcheightandpressure_mod</text>
</a>
</g>
</g>
<!-- calcstatsglb_mod&#45;&gt;calcheightandpressure_mod -->
<g id="edge1" class="edge">
<title>calcstatsglb_mod&#45;&gt;calcheightandpressure_mod</title>
<path fill="none" stroke="black" d="M576.17,-640.52C490.99,-631.84 322.67,-613.79 180.5,-593 179.4,-592.84 178.29,-592.68 177.18,-592.51"/>
<polygon fill="black" stroke="black" points="177.47,-589.01 167.05,-590.95 176.4,-595.93 177.47,-589.01"/>
</g>
<!-- codeprecision_mod -->
<g id="node3" class="node">
<title>codeprecision_mod</title>
<g id="a_node3"><a xlink:href="codeprecision_mod.html" xlink:title="codeprecision_mod">
<polygon fill="gray" stroke="black" points="229.5,-521 107.5,-521 107.5,-485 229.5,-485 229.5,-521"/>
<text text-anchor="middle" x="168.5" y="-499.3" font-family="Times,serif" font-size="14.00">codeprecision_mod</text>
</a>
</g>
</g>
<!-- calcstatsglb_mod&#45;&gt;codeprecision_mod -->
<g id="edge2" class="edge">
<title>calcstatsglb_mod&#45;&gt;codeprecision_mod</title>
<path fill="none" stroke="black" d="M576.14,-643.31C482.98,-637.99 299.56,-623.86 243.5,-593 216.98,-578.4 195.81,-550.41 182.81,-529.69"/>
<polygon fill="black" stroke="black" points="185.76,-527.8 177.59,-521.05 179.76,-531.41 185.76,-527.8"/>
</g>
<!-- earthconstants_mod -->
<g id="node4" class="node">
<title>earthconstants_mod</title>
<g id="a_node4"><a xlink:href="../modules/earthconstants_mod.svg" xlink:title="earthconstants_mod">
<polygon fill="none" stroke="red" points="267,-449 142,-449 142,-413 267,-413 267,-449"/>
<text text-anchor="middle" x="204.5" y="-427.3" font-family="Times,serif" font-size="14.00">earthconstants_mod</text>
</a>
</g>
</g>
<!-- calcstatsglb_mod&#45;&gt;earthconstants_mod -->
<g id="edge3" class="edge">
<title>calcstatsglb_mod&#45;&gt;earthconstants_mod</title>
<path fill="none" stroke="black" d="M576.29,-644.2C489.42,-640.32 326.08,-628.4 281.5,-593 241.04,-560.87 262.11,-530.95 238.5,-485 233.75,-475.76 227.85,-466.08 222.3,-457.56"/>
<polygon fill="black" stroke="black" points="225.16,-455.55 216.7,-449.17 219.34,-459.43 225.16,-455.55"/>
</g>
<!-- ensemblestatevector_mod -->
<g id="node5" class="node">
<title>ensemblestatevector_mod</title>
<g id="a_node5"><a xlink:href="../modules/ensemblestatevector_mod.svg" xlink:title="ensemblestatevector_mod">
<polygon fill="none" stroke="red" points="305.5,-377 149.5,-377 149.5,-341 305.5,-341 305.5,-377"/>
<text text-anchor="middle" x="227.5" y="-355.3" font-family="Times,serif" font-size="14.00">ensemblestatevector_mod</text>
</a>
</g>
</g>
<!-- calcstatsglb_mod&#45;&gt;ensemblestatevector_mod -->
<g id="edge4" class="edge">
<title>calcstatsglb_mod&#45;&gt;ensemblestatevector_mod</title>
<path fill="none" stroke="black" d="M576.22,-643.74C496.79,-639.35 355.89,-626.88 319.5,-593 259.22,-536.88 314.1,-485.75 275.5,-413 270.06,-402.76 262.21,-392.93 254.42,-384.59"/>
<polygon fill="black" stroke="black" points="256.85,-382.07 247.35,-377.37 251.84,-386.96 256.85,-382.07"/>
</g>
<!-- filenames_mod -->
<g id="node6" class="node">
<title>filenames_mod</title>
<g id="a_node6"><a xlink:href="../modules/filenames_mod.svg" xlink:title="filenames_mod">
<polygon fill="none" stroke="red" points="343,-305 244,-305 244,-269 343,-269 343,-305"/>
<text text-anchor="middle" x="293.5" y="-283.3" font-family="Times,serif" font-size="14.00">filenames_mod</text>
</a>
</g>
</g>
<!-- calcstatsglb_mod&#45;&gt;filenames_mod -->
<g id="edge5" class="edge">
<title>calcstatsglb_mod&#45;&gt;filenames_mod</title>
<path fill="none" stroke="black" d="M576.49,-642.16C505.85,-636.12 388.63,-621.96 357.5,-593 327.5,-565.1 333.5,-544.97 333.5,-504 333.5,-504 333.5,-504 333.5,-430 333.5,-388.48 317.46,-342.61 305.7,-314.54"/>
<polygon fill="black" stroke="black" points="308.77,-312.84 301.59,-305.05 302.35,-315.62 308.77,-312.84"/>
</g>
<!-- globalspectraltransform_mod -->
<g id="node7" class="node">
<title>globalspectraltransform_mod</title>
<g id="a_node7"><a xlink:href="../modules/globalspectraltransform_mod.svg" xlink:title="globalspectraltransform_mod">
<polygon fill="none" stroke="red" points="381.5,-233 205.5,-233 205.5,-197 381.5,-197 381.5,-233"/>
<text text-anchor="middle" x="293.5" y="-211.3" font-family="Times,serif" font-size="14.00">globalspectraltransform_mod</text>
</a>
</g>
</g>
<!-- calcstatsglb_mod&#45;&gt;globalspectraltransform_mod -->
<g id="edge6" class="edge">
<title>calcstatsglb_mod&#45;&gt;globalspectraltransform_mod</title>
<path fill="none" stroke="black" d="M576.31,-640.2C514.92,-632.65 421,-617.44 395.5,-593 365.92,-564.65 371.5,-544.97 371.5,-504 371.5,-504 371.5,-504 371.5,-358 371.5,-317.46 371.85,-304.07 351.5,-269 345.14,-258.03 335.74,-248.04 326.36,-239.76"/>
<polygon fill="black" stroke="black" points="328.47,-236.96 318.55,-233.23 323.98,-242.33 328.47,-236.96"/>
</g>
<!-- gridbinning_mod -->
<g id="node8" class="node">
<title>gridbinning_mod</title>
<g id="a_node8"><a xlink:href="../modules/gridbinning_mod.svg" xlink:title="gridbinning_mod">
<polygon fill="none" stroke="red" points="419.5,-161 309.5,-161 309.5,-125 419.5,-125 419.5,-161"/>
<text text-anchor="middle" x="364.5" y="-139.3" font-family="Times,serif" font-size="14.00">gridbinning_mod</text>
</a>
</g>
</g>
<!-- calcstatsglb_mod&#45;&gt;gridbinning_mod -->
<g id="edge7" class="edge">
<title>calcstatsglb_mod&#45;&gt;gridbinning_mod</title>
<path fill="none" stroke="black" d="M576.31,-645.59C531.94,-642.27 471.03,-630.46 433.5,-593 404.5,-564.06 409.5,-544.97 409.5,-504 409.5,-504 409.5,-504 409.5,-286 409.5,-245.55 403.73,-235.22 390.5,-197 387.38,-187.99 383.1,-178.54 378.91,-170.14"/>
<polygon fill="black" stroke="black" points="381.99,-168.48 374.28,-161.2 375.77,-171.69 381.99,-168.48"/>
</g>
<!-- gridstatevectorfileio_mod -->
<g id="node9" class="node">
<title>gridstatevectorfileio_mod</title>
<g id="a_node9"><a xlink:href="../modules/gridstatevectorfileio_mod.svg" xlink:title="gridstatevectorfileio_mod">
<polygon fill="none" stroke="red" points="525,-89 370,-89 370,-53 525,-53 525,-89"/>
<text text-anchor="middle" x="447.5" y="-67.3" font-family="Times,serif" font-size="14.00">gridstatevectorfileio_mod</text>
</a>
</g>
</g>
<!-- calcstatsglb_mod&#45;&gt;gridstatevectorfileio_mod -->
<g id="edge8" class="edge">
<title>calcstatsglb_mod&#45;&gt;gridstatevectorfileio_mod</title>
<path fill="none" stroke="black" d="M576.4,-642.23C540.12,-636.79 494.35,-623.8 466.5,-593 439.37,-563 447.5,-544.45 447.5,-504 447.5,-504 447.5,-504 447.5,-214 447.5,-174 447.5,-127.65 447.5,-99.08"/>
<polygon fill="black" stroke="black" points="451,-99.05 447.5,-89.05 444,-99.05 451,-99.05"/>
</g>
<!-- gridstatevector_mod -->
<g id="node10" class="node">
<title>gridstatevector_mod</title>
<g id="a_node10"><a xlink:href="../modules/gridstatevector_mod.svg" xlink:title="gridstatevector_mod">
<polygon fill="none" stroke="red" points="603,-593 476,-593 476,-557 603,-557 603,-593"/>
<text text-anchor="middle" x="539.5" y="-571.3" font-family="Times,serif" font-size="14.00">gridstatevector_mod</text>
</a>
</g>
</g>
<!-- calcstatsglb_mod&#45;&gt;gridstatevector_mod -->
<g id="edge9" class="edge">
<title>calcstatsglb_mod&#45;&gt;gridstatevector_mod</title>
<path fill="none" stroke="black" d="M608.76,-628.7C597.06,-619.8 582.64,-608.82 569.99,-599.2"/>
<polygon fill="black" stroke="black" points="572.06,-596.37 561.98,-593.1 567.82,-601.94 572.06,-596.37"/>
</g>
<!-- gridvariabletransforms_mod -->
<g id="node11" class="node">
<title>gridvariabletransforms_mod</title>
<g id="a_node11"><a xlink:href="../modules/gridvariabletransforms_mod.svg" xlink:title="gridvariabletransforms_mod">
<polygon fill="none" stroke="red" points="645.5,-521 475.5,-521 475.5,-485 645.5,-485 645.5,-521"/>
<text text-anchor="middle" x="560.5" y="-499.3" font-family="Times,serif" font-size="14.00">gridvariabletransforms_mod</text>
</a>
</g>
</g>
<!-- calcstatsglb_mod&#45;&gt;gridvariabletransforms_mod -->
<g id="edge10" class="edge">
<title>calcstatsglb_mod&#45;&gt;gridvariabletransforms_mod</title>
<path fill="none" stroke="black" d="M630.41,-628.98C628.61,-610.33 623.88,-580.01 611.5,-557 605.79,-546.39 597.36,-536.4 588.99,-528.02"/>
<polygon fill="black" stroke="black" points="591.38,-525.45 581.72,-521.09 586.55,-530.52 591.38,-525.45"/>
</g>
<!-- horizontalcoord_mod -->
<g id="node12" class="node">
<title>horizontalcoord_mod</title>
<g id="a_node12"><a xlink:href="../modules/horizontalcoord_mod.svg" xlink:title="horizontalcoord_mod">
<polygon fill="none" stroke="red" points="683,-449 550,-449 550,-413 683,-413 683,-449"/>
<text text-anchor="middle" x="616.5" y="-427.3" font-family="Times,serif" font-size="14.00">horizontalcoord_mod</text>
</a>
</g>
</g>
<!-- calcstatsglb_mod&#45;&gt;horizontalcoord_mod -->
<g id="edge11" class="edge">
<title>calcstatsglb_mod&#45;&gt;horizontalcoord_mod</title>
<path fill="none" stroke="black" d="M638.94,-628.65C650.73,-598.68 670.74,-535.54 654.5,-485 651.31,-475.08 645.5,-465.44 639.37,-457.17"/>
<polygon fill="black" stroke="black" points="641.92,-454.74 632.96,-449.08 636.43,-459.09 641.92,-454.74"/>
</g>
<!-- mathphysconstants_mod -->
<g id="node13" class="node">
<title>mathphysconstants_mod</title>
<g id="a_node13"><a xlink:href="mathphysconstants_mod.html" xlink:title="mathphysconstants_mod">
<polygon fill="gray" stroke="black" points="721.5,-377 571.5,-377 571.5,-341 721.5,-341 721.5,-377"/>
<text text-anchor="middle" x="646.5" y="-355.3" font-family="Times,serif" font-size="14.00">mathphysconstants_mod</text>
</a>
</g>
</g>
<!-- calcstatsglb_mod&#45;&gt;mathphysconstants_mod -->
<g id="edge12" class="edge">
<title>calcstatsglb_mod&#45;&gt;mathphysconstants_mod</title>
<path fill="none" stroke="black" d="M647.17,-628.63C655.12,-618.84 664.2,-606 669.5,-593 693.92,-533.04 686.6,-513.56 691.5,-449 692.71,-433.05 697.02,-428.02 691.5,-413 687.72,-402.7 680.94,-393.02 673.78,-384.84"/>
<polygon fill="black" stroke="black" points="676.27,-382.38 666.88,-377.47 671.16,-387.16 676.27,-382.38"/>
</g>
<!-- menetrierdiag_mod -->
<g id="node14" class="node">
<title>menetrierdiag_mod</title>
<g id="a_node14"><a xlink:href="../modules/menetrierdiag_mod.svg" xlink:title="menetrierdiag_mod">
<polygon fill="none" stroke="red" points="759.5,-305 637.5,-305 637.5,-269 759.5,-269 759.5,-305"/>
<text text-anchor="middle" x="698.5" y="-283.3" font-family="Times,serif" font-size="14.00">menetrierdiag_mod</text>
</a>
</g>
</g>
<!-- calcstatsglb_mod&#45;&gt;menetrierdiag_mod -->
<g id="edge13" class="edge">
<title>calcstatsglb_mod&#45;&gt;menetrierdiag_mod</title>
<path fill="none" stroke="black" d="M659.76,-628.99C694.67,-605.59 749.5,-559.93 749.5,-504 749.5,-504 749.5,-504 749.5,-430 749.5,-389.55 745.38,-378.61 730.5,-341 726.84,-331.75 721.65,-322.26 716.5,-313.92"/>
<polygon fill="black" stroke="black" points="719.37,-311.9 711.02,-305.38 713.48,-315.68 719.37,-311.9"/>
</g>
<!-- midasmpi_mod -->
<g id="node15" class="node">
<title>midasmpi_mod</title>
<g id="a_node15"><a xlink:href="../modules/midasmpi_mod.svg" xlink:title="midasmpi_mod">
<polygon fill="none" stroke="red" points="797,-233 696,-233 696,-197 797,-197 797,-233"/>
<text text-anchor="middle" x="746.5" y="-211.3" font-family="Times,serif" font-size="14.00">midasmpi_mod</text>
</a>
</g>
</g>
<!-- calcstatsglb_mod&#45;&gt;midasmpi_mod -->
<g id="edge14" class="edge">
<title>calcstatsglb_mod&#45;&gt;midasmpi_mod</title>
<path fill="none" stroke="black" d="M674.54,-628.82C720.72,-607.2 787.5,-565.34 787.5,-504 787.5,-504 787.5,-504 787.5,-358 787.5,-316.41 771.06,-270.56 759,-242.51"/>
<polygon fill="black" stroke="black" points="762.05,-240.75 754.8,-233.03 755.65,-243.59 762.05,-240.75"/>
</g>
<!-- spectralfilter_mod -->
<g id="node16" class="node">
<title>spectralfilter_mod</title>
<g id="a_node16"><a xlink:href="spectralfilter_mod.html" xlink:title="spectralfilter_mod">
<polygon fill="gray" stroke="black" points="835.5,-161 721.5,-161 721.5,-125 835.5,-125 835.5,-161"/>
<text text-anchor="middle" x="778.5" y="-139.3" font-family="Times,serif" font-size="14.00">spectralfilter_mod</text>
</a>
</g>
</g>
<!-- calcstatsglb_mod&#45;&gt;spectralfilter_mod -->
<g id="edge15" class="edge">
<title>calcstatsglb_mod&#45;&gt;spectralfilter_mod</title>
<path fill="none" stroke="black" d="M686.57,-631.38C743.93,-612.42 825.5,-573.29 825.5,-504 825.5,-504 825.5,-504 825.5,-286 825.5,-245.46 819.25,-235.14 805.5,-197 802.24,-187.97 797.79,-178.5 793.44,-170.11"/>
<polygon fill="black" stroke="black" points="796.45,-168.33 788.64,-161.17 790.29,-171.64 796.45,-168.33"/>
</g>
<!-- timecoord_mod -->
<g id="node17" class="node">
<title>timecoord_mod</title>
<g id="a_node17"><a xlink:href="../modules/timecoord_mod.svg" xlink:title="timecoord_mod">
<polygon fill="none" stroke="red" points="914.5,-89 812.5,-89 812.5,-53 914.5,-53 914.5,-89"/>
<text text-anchor="middle" x="863.5" y="-67.3" font-family="Times,serif" font-size="14.00">timecoord_mod</text>
</a>
</g>
</g>
<!-- calcstatsglb_mod&#45;&gt;timecoord_mod -->
<g id="edge16" class="edge">
<title>calcstatsglb_mod&#45;&gt;timecoord_mod</title>
<path fill="none" stroke="black" d="M686.78,-637.11C755.4,-622.55 863.5,-586.52 863.5,-504 863.5,-504 863.5,-504 863.5,-214 863.5,-174 863.5,-127.65 863.5,-99.08"/>
<polygon fill="black" stroke="black" points="867,-99.05 863.5,-89.05 860,-99.05 867,-99.05"/>
</g>
<!-- utilities_mod -->
<g id="node18" class="node">
<title>utilities_mod</title>
<g id="a_node18"><a xlink:href="../modules/utilities_mod.svg" xlink:title="utilities_mod">
<polygon fill="none" stroke="red" points="979.5,-593 891.5,-593 891.5,-557 979.5,-557 979.5,-593"/>
<text text-anchor="middle" x="935.5" y="-571.3" font-family="Times,serif" font-size="14.00">utilities_mod</text>
</a>
</g>
</g>
<!-- calcstatsglb_mod&#45;&gt;utilities_mod -->
<g id="edge17" class="edge">
<title>calcstatsglb_mod&#45;&gt;utilities_mod</title>
<path fill="none" stroke="black" d="M686.97,-635.25C737.01,-625.27 812.5,-609.5 877.5,-593 878.76,-592.68 880.03,-592.35 881.31,-592.02"/>
<polygon fill="black" stroke="black" points="882.52,-595.32 891.26,-589.33 880.69,-588.56 882.52,-595.32"/>
</g>
<!-- varnamelist_mod -->
<g id="node19" class="node">
<title>varnamelist_mod</title>
<g id="a_node19"><a xlink:href="../modules/varnamelist_mod.svg" xlink:title="varnamelist_mod">
<polygon fill="none" stroke="red" points="1062.5,-521 952.5,-521 952.5,-485 1062.5,-485 1062.5,-521"/>
<text text-anchor="middle" x="1007.5" y="-499.3" font-family="Times,serif" font-size="14.00">varnamelist_mod</text>
</a>
</g>
</g>
<!-- calcstatsglb_mod&#45;&gt;varnamelist_mod -->
<g id="edge18" class="edge">
<title>calcstatsglb_mod&#45;&gt;varnamelist_mod</title>
<path fill="none" stroke="black" d="M686.73,-645.25C775.9,-642.85 945.9,-633 988.5,-593 1005.1,-577.42 1009.03,-551.18 1009.3,-531.21"/>
<polygon fill="black" stroke="black" points="1012.8,-531.1 1009.14,-521.16 1005.8,-531.21 1012.8,-531.1"/>
</g>
<!-- verticalcoord_mod -->
<g id="node20" class="node">
<title>verticalcoord_mod</title>
<g id="a_node20"><a xlink:href="../modules/verticalcoord_mod.svg" xlink:title="verticalcoord_mod">
<polygon fill="none" stroke="red" points="1149.5,-449 1031.5,-449 1031.5,-413 1149.5,-413 1149.5,-449"/>
<text text-anchor="middle" x="1090.5" y="-427.3" font-family="Times,serif" font-size="14.00">verticalcoord_mod</text>
</a>
</g>
</g>
<!-- calcstatsglb_mod&#45;&gt;verticalcoord_mod -->
<g id="edge19" class="edge">
<title>calcstatsglb_mod&#45;&gt;verticalcoord_mod</title>
<path fill="none" stroke="black" d="M686.84,-643.16C778.44,-637.67 956.92,-623.34 1011.5,-593 1047.91,-572.76 1053.29,-558.46 1071.5,-521 1080.97,-501.52 1085.75,-477.38 1088.14,-459.16"/>
<polygon fill="black" stroke="black" points="1091.62,-459.53 1089.29,-449.19 1084.67,-458.72 1091.62,-459.53"/>
</g>
</g>
</svg>
