<?xml version="1.0" encoding="UTF-8" standalone="no"?>
<!DOCTYPE svg PUBLIC "-//W3C//DTD SVG 1.1//EN"
 "http://www.w3.org/Graphics/SVG/1.1/DTD/svg11.dtd">
<!-- Generated by graphviz version 3.0.0 (20220315.2325)
 -->
<!-- Title: calcstatslam_mod Pages: 1 -->
<svg width="1055pt" height="673pt"
 viewBox="0.00 0.00 1054.50 673.00" xmlns="http://www.w3.org/2000/svg" xmlns:xlink="http://www.w3.org/1999/xlink">
<g id="graph0" class="graph" transform="scale(1 1) rotate(0) translate(4 669)">
<title>calcstatslam_mod</title>
<polygon fill="white" stroke="transparent" points="-4,4 -4,-669 1050.5,-669 1050.5,4 -4,4"/>
<text text-anchor="middle" x="523.25" y="-37.8" font-family="Times,serif" font-size="14.00">Red boxes indicate modules with dependencies not shown</text>
<text text-anchor="middle" x="523.25" y="-22.8" font-family="Times,serif" font-size="14.00">Lower level dependencies can be shown by clicking on a red box</text>
<text text-anchor="middle" x="523.25" y="-7.8" font-family="Times,serif" font-size="14.00">Shaded boxes indicate modules with no dependencies</text>
<!-- calcstatslam_mod -->
<g id="node1" class="node">
<title>calcstatslam_mod</title>
<g id="a_node1"><a xlink:href="calcstatslam_mod.html" xlink:title="calcstatslam_mod">
<polygon fill="none" stroke="black" points="602,-665 489,-665 489,-629 602,-629 602,-665"/>
<text text-anchor="middle" x="545.5" y="-643.3" font-family="Times,serif" font-size="14.00">calcstatslam_mod</text>
</a>
</g>
</g>
<!-- analysisgrid_mod -->
<g id="node2" class="node">
<title>analysisgrid_mod</title>
<g id="a_node2"><a xlink:href="../modules/analysisgrid_mod.svg" xlink:title="analysisgrid_mod">
<polygon fill="none" stroke="red" points="111,-593 0,-593 0,-557 111,-557 111,-593"/>
<text text-anchor="middle" x="55.5" y="-571.3" font-family="Times,serif" font-size="14.00">analysisgrid_mod</text>
</a>
</g>
</g>
<!-- calcstatslam_mod&#45;&gt;analysisgrid_mod -->
<g id="edge1" class="edge">
<title>calcstatslam_mod&#45;&gt;analysisgrid_mod</title>
<path fill="none" stroke="black" d="M488.8,-640.89C407.82,-633.14 254.52,-616.73 125.5,-593 124.04,-592.73 122.56,-592.45 121.08,-592.16"/>
<polygon fill="black" stroke="black" points="121.66,-588.71 111.16,-590.12 120.25,-595.56 121.66,-588.71"/>
</g>
<!-- calcheightandpressure_mod -->
<g id="node3" class="node">
<title>calcheightandpressure_mod</title>
<g id="a_node3"><a xlink:href="../modules/calcheightandpressure_mod.svg" xlink:title="calcheightandpressure_mod">
<polygon fill="none" stroke="red" points="186,-521 19,-521 19,-485 186,-485 186,-521"/>
<text text-anchor="middle" x="102.5" y="-499.3" font-family="Times,serif" font-size="14.00">calcheightandpressure_mod</text>
</a>
</g>
</g>
<!-- calcstatslam_mod&#45;&gt;calcheightandpressure_mod -->
<g id="edge2" class="edge">
<title>calcstatslam_mod&#45;&gt;calcheightandpressure_mod</title>
<path fill="none" stroke="black" d="M488.68,-641.33C404.05,-633.71 249.5,-616.98 199.5,-593 168.39,-578.08 140.24,-549.81 122.38,-529.12"/>
<polygon fill="black" stroke="black" points="124.94,-526.73 115.83,-521.33 119.58,-531.24 124.94,-526.73"/>
</g>
<!-- earthconstants_mod -->
<g id="node4" class="node">
<title>earthconstants_mod</title>
<g id="a_node4"><a xlink:href="../modules/earthconstants_mod.svg" xlink:title="earthconstants_mod">
<polygon fill="none" stroke="red" points="223,-449 98,-449 98,-413 223,-413 223,-449"/>
<text text-anchor="middle" x="160.5" y="-427.3" font-family="Times,serif" font-size="14.00">earthconstants_mod</text>
</a>
</g>
</g>
<!-- calcstatslam_mod&#45;&gt;earthconstants_mod -->
<g id="edge3" class="edge">
<title>calcstatslam_mod&#45;&gt;earthconstants_mod</title>
<path fill="none" stroke="black" d="M488.91,-642.8C410.78,-637.31 275.22,-623.58 237.5,-593 197.36,-560.47 218.11,-530.95 194.5,-485 189.75,-475.76 183.85,-466.08 178.3,-457.56"/>
<polygon fill="black" stroke="black" points="181.16,-455.55 172.7,-449.17 175.34,-459.43 181.16,-455.55"/>
</g>
<!-- ensemblestatevector_mod -->
<g id="node5" class="node">
<title>ensemblestatevector_mod</title>
<g id="a_node5"><a xlink:href="../modules/ensemblestatevector_mod.svg" xlink:title="ensemblestatevector_mod">
<polygon fill="none" stroke="red" points="261.5,-377 105.5,-377 105.5,-341 261.5,-341 261.5,-377"/>
<text text-anchor="middle" x="183.5" y="-355.3" font-family="Times,serif" font-size="14.00">ensemblestatevector_mod</text>
</a>
</g>
</g>
<!-- calcstatslam_mod&#45;&gt;ensemblestatevector_mod -->
<g id="edge4" class="edge">
<title>calcstatslam_mod&#45;&gt;ensemblestatevector_mod</title>
<path fill="none" stroke="black" d="M488.79,-641.95C418.83,-635.79 305.47,-621.62 275.5,-593 215.94,-536.12 270.1,-485.75 231.5,-413 226.06,-402.76 218.21,-392.93 210.42,-384.59"/>
<polygon fill="black" stroke="black" points="212.85,-382.07 203.35,-377.37 207.84,-386.96 212.85,-382.07"/>
</g>
<!-- gridbinning_mod -->
<g id="node6" class="node">
<title>gridbinning_mod</title>
<g id="a_node6"><a xlink:href="../modules/gridbinning_mod.svg" xlink:title="gridbinning_mod">
<polygon fill="none" stroke="red" points="299.5,-305 189.5,-305 189.5,-269 299.5,-269 299.5,-305"/>
<text text-anchor="middle" x="244.5" y="-283.3" font-family="Times,serif" font-size="14.00">gridbinning_mod</text>
</a>
</g>
</g>
<!-- calcstatslam_mod&#45;&gt;gridbinning_mod -->
<g id="edge5" class="edge">
<title>calcstatslam_mod&#45;&gt;gridbinning_mod</title>
<path fill="none" stroke="black" d="M488.8,-639.77C428.43,-632 338.21,-616.77 313.5,-593 283.97,-564.6 289.5,-544.97 289.5,-504 289.5,-504 289.5,-504 289.5,-430 289.5,-389.55 283.73,-379.22 270.5,-341 267.38,-331.99 263.1,-322.54 258.91,-314.14"/>
<polygon fill="black" stroke="black" points="261.99,-312.48 254.28,-305.2 255.77,-315.69 261.99,-312.48"/>
</g>
<!-- gridstatevectorfileio_mod -->
<g id="node7" class="node">
<title>gridstatevectorfileio_mod</title>
<g id="a_node7"><a xlink:href="../modules/gridstatevectorfileio_mod.svg" xlink:title="gridstatevectorfileio_mod">
<polygon fill="none" stroke="red" points="337,-233 182,-233 182,-197 337,-197 337,-233"/>
<text text-anchor="middle" x="259.5" y="-211.3" font-family="Times,serif" font-size="14.00">gridstatevectorfileio_mod</text>
</a>
</g>
</g>
<!-- calcstatslam_mod&#45;&gt;gridstatevectorfileio_mod -->
<g id="edge6" class="edge">
<title>calcstatslam_mod&#45;&gt;gridstatevectorfileio_mod</title>
<path fill="none" stroke="black" d="M488.76,-645.05C445.53,-641.27 387.49,-629.1 351.5,-593 322.58,-563.98 327.5,-544.97 327.5,-504 327.5,-504 327.5,-504 327.5,-358 327.5,-317.55 327.12,-304.91 308.5,-269 303.11,-258.61 295.13,-248.74 287.17,-240.41"/>
<polygon fill="black" stroke="black" points="289.49,-237.78 279.94,-233.21 284.56,-242.74 289.49,-237.78"/>
</g>
<!-- gridstatevector_mod -->
<g id="node8" class="node">
<title>gridstatevector_mod</title>
<g id="a_node8"><a xlink:href="../modules/gridstatevector_mod.svg" xlink:title="gridstatevector_mod">
<polygon fill="none" stroke="red" points="375,-161 248,-161 248,-125 375,-125 375,-161"/>
<text text-anchor="middle" x="311.5" y="-139.3" font-family="Times,serif" font-size="14.00">gridstatevector_mod</text>
</a>
</g>
</g>
<!-- calcstatslam_mod&#45;&gt;gridstatevector_mod -->
<g id="edge7" class="edge">
<title>calcstatslam_mod&#45;&gt;gridstatevector_mod</title>
<path fill="none" stroke="black" d="M488.96,-640.05C455.69,-633.67 415.23,-620.44 389.5,-593 361.47,-563.12 365.5,-544.97 365.5,-504 365.5,-504 365.5,-504 365.5,-286 365.5,-245.46 361.13,-234.41 345.5,-197 341.56,-187.57 335.96,-177.95 330.44,-169.55"/>
<polygon fill="black" stroke="black" points="333.33,-167.57 324.79,-161.29 327.55,-171.52 333.33,-167.57"/>
</g>
<!-- gridvariabletransforms_mod -->
<g id="node9" class="node">
<title>gridvariabletransforms_mod</title>
<g id="a_node9"><a xlink:href="../modules/gridvariabletransforms_mod.svg" xlink:title="gridvariabletransforms_mod">
<polygon fill="none" stroke="red" points="488.5,-89 318.5,-89 318.5,-53 488.5,-53 488.5,-89"/>
<text text-anchor="middle" x="403.5" y="-67.3" font-family="Times,serif" font-size="14.00">gridvariabletransforms_mod</text>
</a>
</g>
</g>
<!-- calcstatslam_mod&#45;&gt;gridvariabletransforms_mod -->
<g id="edge8" class="edge">
<title>calcstatslam_mod&#45;&gt;gridvariabletransforms_mod</title>
<path fill="none" stroke="black" d="M488.84,-633.88C465.09,-626.02 439.17,-613.31 422.5,-593 396.84,-561.73 403.5,-544.45 403.5,-504 403.5,-504 403.5,-504 403.5,-214 403.5,-174 403.5,-127.65 403.5,-99.08"/>
<polygon fill="black" stroke="black" points="407,-99.05 403.5,-89.05 400,-99.05 407,-99.05"/>
</g>
<!-- horizontalcoord_mod -->
<g id="node10" class="node">
<title>horizontalcoord_mod</title>
<g id="a_node10"><a xlink:href="../modules/horizontalcoord_mod.svg" xlink:title="horizontalcoord_mod">
<polygon fill="none" stroke="red" points="565,-593 432,-593 432,-557 565,-557 565,-593"/>
<text text-anchor="middle" x="498.5" y="-571.3" font-family="Times,serif" font-size="14.00">horizontalcoord_mod</text>
</a>
</g>
</g>
<!-- calcstatslam_mod&#45;&gt;horizontalcoord_mod -->
<g id="edge9" class="edge">
<title>calcstatslam_mod&#45;&gt;horizontalcoord_mod</title>
<path fill="none" stroke="black" d="M533.88,-628.7C528.36,-620.47 521.65,-610.48 515.57,-601.42"/>
<polygon fill="black" stroke="black" points="518.46,-599.46 509.98,-593.1 512.65,-603.36 518.46,-599.46"/>
</g>
<!-- lamspectraltransform_mod -->
<g id="node11" class="node">
<title>lamspectraltransform_mod</title>
<g id="a_node11"><a xlink:href="../modules/lamspectraltransform_mod.svg" xlink:title="lamspectraltransform_mod">
<polygon fill="none" stroke="red" points="603.5,-521 441.5,-521 441.5,-485 603.5,-485 603.5,-521"/>
<text text-anchor="middle" x="522.5" y="-499.3" font-family="Times,serif" font-size="14.00">lamspectraltransform_mod</text>
</a>
</g>
</g>
<!-- calcstatslam_mod&#45;&gt;lamspectraltransform_mod -->
<g id="edge10" class="edge">
<title>calcstatslam_mod&#45;&gt;lamspectraltransform_mod</title>
<path fill="none" stroke="black" d="M557.81,-628.99C569.32,-610.87 583.37,-581.49 573.5,-557 569.15,-546.21 561.44,-536.39 553.31,-528.21"/>
<polygon fill="black" stroke="black" points="555.5,-525.46 545.8,-521.18 550.71,-530.57 555.5,-525.46"/>
</g>
<!-- localizationfunction_mod -->
<g id="node12" class="node">
<title>localizationfunction_mod</title>
<g id="a_node12"><a xlink:href="../modules/localizationfunction_mod.svg" xlink:title="localizationfunction_mod">
<polygon fill="none" stroke="red" points="641,-449 486,-449 486,-413 641,-413 641,-449"/>
<text text-anchor="middle" x="563.5" y="-427.3" font-family="Times,serif" font-size="14.00">localizationfunction_mod</text>
</a>
</g>
</g>
<!-- calcstatslam_mod&#45;&gt;localizationfunction_mod -->
<g id="edge11" class="edge">
<title>calcstatslam_mod&#45;&gt;localizationfunction_mod</title>
<path fill="none" stroke="black" d="M562.85,-628.63C571.83,-618.85 582.38,-606.01 589.5,-593 605.64,-563.54 607.33,-554.19 612.5,-521 614.96,-505.19 618.33,-499.9 612.5,-485 608.3,-474.28 600.81,-464.43 592.92,-456.2"/>
<polygon fill="black" stroke="black" points="595.26,-453.59 585.65,-449.13 590.38,-458.61 595.26,-453.59"/>
</g>
<!-- mathphysconstants_mod -->
<g id="node13" class="node">
<title>mathphysconstants_mod</title>
<g id="a_node13"><a xlink:href="mathphysconstants_mod.html" xlink:title="mathphysconstants_mod">
<polygon fill="gray" stroke="black" points="679.5,-377 529.5,-377 529.5,-341 679.5,-341 679.5,-377"/>
<text text-anchor="middle" x="604.5" y="-355.3" font-family="Times,serif" font-size="14.00">mathphysconstants_mod</text>
</a>
</g>
</g>
<!-- calcstatslam_mod&#45;&gt;mathphysconstants_mod -->
<g id="edge12" class="edge">
<title>calcstatslam_mod&#45;&gt;mathphysconstants_mod</title>
<path fill="none" stroke="black" d="M574.46,-628.84C587.54,-619.73 602.13,-607.42 611.5,-593 647.56,-537.49 640.98,-514.64 649.5,-449 651.56,-433.13 655.02,-428.02 649.5,-413 645.72,-402.7 638.94,-393.02 631.78,-384.84"/>
<polygon fill="black" stroke="black" points="634.27,-382.38 624.88,-377.47 629.16,-387.16 634.27,-382.38"/>
</g>
<!-- menetrierdiag_mod -->
<g id="node14" class="node">
<title>menetrierdiag_mod</title>
<g id="a_node14"><a xlink:href="../modules/menetrierdiag_mod.svg" xlink:title="menetrierdiag_mod">
<polygon fill="none" stroke="red" points="717.5,-305 595.5,-305 595.5,-269 717.5,-269 717.5,-305"/>
<text text-anchor="middle" x="656.5" y="-283.3" font-family="Times,serif" font-size="14.00">menetrierdiag_mod</text>
</a>
</g>
</g>
<!-- calcstatslam_mod&#45;&gt;menetrierdiag_mod -->
<g id="edge13" class="edge">
<title>calcstatslam_mod&#45;&gt;menetrierdiag_mod</title>
<path fill="none" stroke="black" d="M591.06,-628.9C638.97,-607.61 707.5,-566.27 707.5,-504 707.5,-504 707.5,-504 707.5,-430 707.5,-389.55 703.38,-378.61 688.5,-341 684.84,-331.75 679.65,-322.26 674.5,-313.92"/>
<polygon fill="black" stroke="black" points="677.37,-311.9 669.02,-305.38 671.48,-315.68 677.37,-311.9"/>
</g>
<!-- midasmpi_mod -->
<g id="node15" class="node">
<title>midasmpi_mod</title>
<g id="a_node15"><a xlink:href="../modules/midasmpi_mod.svg" xlink:title="midasmpi_mod">
<polygon fill="none" stroke="red" points="755,-233 654,-233 654,-197 755,-197 755,-233"/>
<text text-anchor="middle" x="704.5" y="-211.3" font-family="Times,serif" font-size="14.00">midasmpi_mod</text>
</a>
</g>
</g>
<!-- calcstatslam_mod&#45;&gt;midasmpi_mod -->
<g id="edge14" class="edge">
<title>calcstatslam_mod&#45;&gt;midasmpi_mod</title>
<path fill="none" stroke="black" d="M602.01,-631.98C661.15,-613.53 745.5,-574.8 745.5,-504 745.5,-504 745.5,-504 745.5,-358 745.5,-316.41 729.06,-270.56 717,-242.51"/>
<polygon fill="black" stroke="black" points="720.05,-240.75 712.8,-233.03 713.65,-243.59 720.05,-240.75"/>
</g>
<!-- timecoord_mod -->
<g id="node16" class="node">
<title>timecoord_mod</title>
<g id="a_node16"><a xlink:href="../modules/timecoord_mod.svg" xlink:title="timecoord_mod">
<polygon fill="none" stroke="red" points="793.5,-161 691.5,-161 691.5,-125 793.5,-125 793.5,-161"/>
<text text-anchor="middle" x="742.5" y="-139.3" font-family="Times,serif" font-size="14.00">timecoord_mod</text>
</a>
</g>
</g>
<!-- calcstatslam_mod&#45;&gt;timecoord_mod -->
<g id="edge15" class="edge">
<title>calcstatslam_mod&#45;&gt;timecoord_mod</title>
<path fill="none" stroke="black" d="M602.2,-637.58C672.6,-623.54 783.5,-588.08 783.5,-504 783.5,-504 783.5,-504 783.5,-286 783.5,-244.41 767.06,-198.56 755,-170.51"/>
<polygon fill="black" stroke="black" points="758.05,-168.75 750.8,-161.03 751.65,-171.59 758.05,-168.75"/>
</g>
<!-- utilities_mod -->
<g id="node17" class="node">
<title>utilities_mod</title>
<g id="a_node17"><a xlink:href="../modules/utilities_mod.svg" xlink:title="utilities_mod">
<polygon fill="none" stroke="red" points="865.5,-89 777.5,-89 777.5,-53 865.5,-53 865.5,-89"/>
<text text-anchor="middle" x="821.5" y="-67.3" font-family="Times,serif" font-size="14.00">utilities_mod</text>
</a>
</g>
</g>
<!-- calcstatslam_mod&#45;&gt;utilities_mod -->
<g id="edge16" class="edge">
<title>calcstatslam_mod&#45;&gt;utilities_mod</title>
<path fill="none" stroke="black" d="M602.02,-641.77C682.77,-632.3 821.5,-601.8 821.5,-504 821.5,-504 821.5,-504 821.5,-214 821.5,-174 821.5,-127.65 821.5,-99.08"/>
<polygon fill="black" stroke="black" points="825,-99.05 821.5,-89.05 818,-99.05 825,-99.05"/>
</g>
<!-- varnamelist_mod -->
<g id="node18" class="node">
<title>varnamelist_mod</title>
<g id="a_node18"><a xlink:href="../modules/varnamelist_mod.svg" xlink:title="varnamelist_mod">
<polygon fill="none" stroke="red" points="959.5,-593 849.5,-593 849.5,-557 959.5,-557 959.5,-593"/>
<text text-anchor="middle" x="904.5" y="-571.3" font-family="Times,serif" font-size="14.00">varnamelist_mod</text>
</a>
</g>
</g>
<!-- calcstatslam_mod&#45;&gt;varnamelist_mod -->
<g id="edge17" class="edge">
<title>calcstatslam_mod&#45;&gt;varnamelist_mod</title>
<path fill="none" stroke="black" d="M602.11,-636.7C660.71,-626.83 754.8,-610.3 835.5,-593 836.76,-592.73 838.02,-592.46 839.3,-592.18"/>
<polygon fill="black" stroke="black" points="840.22,-595.55 849.21,-589.94 838.68,-588.73 840.22,-595.55"/>
</g>
<!-- verticalcoord_mod -->
<g id="node19" class="node">
<title>verticalcoord_mod</title>
<g id="a_node19"><a xlink:href="../modules/verticalcoord_mod.svg" xlink:title="verticalcoord_mod">
<polygon fill="none" stroke="red" points="1046.5,-521 928.5,-521 928.5,-485 1046.5,-485 1046.5,-521"/>
<text text-anchor="middle" x="987.5" y="-499.3" font-family="Times,serif" font-size="14.00">verticalcoord_mod</text>
</a>
</g>
</g>
<!-- calcstatslam_mod&#45;&gt;verticalcoord_mod -->
<g id="edge18" class="edge">
<title>calcstatslam_mod&#45;&gt;verticalcoord_mod</title>
<path fill="none" stroke="black" d="M602.18,-646.73C704.94,-646.82 916.22,-640.98 968.5,-593 985.27,-577.61 989.18,-551.34 989.4,-531.32"/>
<polygon fill="black" stroke="black" points="992.9,-531.17 989.21,-521.23 985.9,-531.3 992.9,-531.17"/>
</g>
</g>
</svg>
