<?xml version="1.0" encoding="UTF-8" standalone="no"?>
<!DOCTYPE svg PUBLIC "-//W3C//DTD SVG 1.1//EN"
 "http://www.w3.org/Graphics/SVG/1.1/DTD/svg11.dtd">
<!-- Generated by graphviz version 3.0.0 (20220315.2325)
 -->
<!-- Title: calcheightandpressure_mod Pages: 1 -->
<svg width="802pt" height="673pt"
 viewBox="0.00 0.00 802.00 673.00" xmlns="http://www.w3.org/2000/svg" xmlns:xlink="http://www.w3.org/1999/xlink">
<g id="graph0" class="graph" transform="scale(1 1) rotate(0) translate(4 669)">
<title>calcheightandpressure_mod</title>
<polygon fill="white" stroke="transparent" points="-4,4 -4,-669 798,-669 798,4 -4,4"/>
<text text-anchor="middle" x="397" y="-37.8" font-family="Times,serif" font-size="14.00">Red boxes indicate modules with dependencies not shown</text>
<text text-anchor="middle" x="397" y="-22.8" font-family="Times,serif" font-size="14.00">Lower level dependencies can be shown by clicking on a red box</text>
<text text-anchor="middle" x="397" y="-7.8" font-family="Times,serif" font-size="14.00">Shaded boxes indicate modules with no dependencies</text>
<!-- calcheightandpressure_mod -->
<g id="node1" class="node">
<title>calcheightandpressure_mod</title>
<g id="a_node1"><a xlink:href="calcheightandpressure_mod.html" xlink:title="calcheightandpressure_mod">
<polygon fill="none" stroke="black" points="446.5,-665 279.5,-665 279.5,-629 446.5,-629 446.5,-665"/>
<text text-anchor="middle" x="363" y="-643.3" font-family="Times,serif" font-size="14.00">calcheightandpressure_mod</text>
</a>
</g>
</g>
<!-- codeprecision_mod -->
<g id="node2" class="node">
<title>codeprecision_mod</title>
<g id="a_node2"><a xlink:href="codeprecision_mod.html" xlink:title="codeprecision_mod">
<polygon fill="gray" stroke="black" points="122,-593 0,-593 0,-557 122,-557 122,-593"/>
<text text-anchor="middle" x="61" y="-571.3" font-family="Times,serif" font-size="14.00">codeprecision_mod</text>
</a>
</g>
</g>
<!-- calcheightandpressure_mod&#45;&gt;codeprecision_mod -->
<g id="edge1" class="edge">
<title>calcheightandpressure_mod&#45;&gt;codeprecision_mod</title>
<path fill="none" stroke="black" d="M289.51,-628.97C241.59,-617.86 179.37,-603.44 131.97,-592.45"/>
<polygon fill="black" stroke="black" points="132.62,-589.01 122.08,-590.16 131.04,-595.83 132.62,-589.01"/>
</g>
<!-- columndata_mod -->
<g id="node3" class="node">
<title>columndata_mod</title>
<g id="a_node3"><a xlink:href="../modules/columndata_mod.svg" xlink:title="columndata_mod">
<polygon fill="none" stroke="red" points="182.5,-521 71.5,-521 71.5,-485 182.5,-485 182.5,-521"/>
<text text-anchor="middle" x="127" y="-499.3" font-family="Times,serif" font-size="14.00">columndata_mod</text>
</a>
</g>
</g>
<!-- calcheightandpressure_mod&#45;&gt;columndata_mod -->
<g id="edge2" class="edge">
<title>calcheightandpressure_mod&#45;&gt;columndata_mod</title>
<path fill="none" stroke="black" d="M279.19,-629.67C251.39,-621.63 221.36,-609.9 197,-593 173.33,-576.57 153.82,-549.79 141.47,-529.89"/>
<polygon fill="black" stroke="black" points="144.45,-528.06 136.3,-521.29 138.45,-531.66 144.45,-528.06"/>
</g>
<!-- earthconstants_mod -->
<g id="node4" class="node">
<title>earthconstants_mod</title>
<g id="a_node4"><a xlink:href="../modules/earthconstants_mod.svg" xlink:title="earthconstants_mod">
<polygon fill="none" stroke="red" points="220.5,-449 95.5,-449 95.5,-413 220.5,-413 220.5,-449"/>
<text text-anchor="middle" x="158" y="-427.3" font-family="Times,serif" font-size="14.00">earthconstants_mod</text>
</a>
</g>
</g>
<!-- calcheightandpressure_mod&#45;&gt;earthconstants_mod -->
<g id="edge3" class="edge">
<title>calcheightandpressure_mod&#45;&gt;earthconstants_mod</title>
<path fill="none" stroke="black" d="M294.58,-628.96C273.35,-620.92 251.28,-609.37 235,-593 198.45,-556.25 214.56,-531.17 191,-485 186.37,-475.92 180.69,-466.37 175.36,-457.91"/>
<polygon fill="black" stroke="black" points="178.13,-455.75 169.77,-449.23 172.24,-459.53 178.13,-455.75"/>
</g>
<!-- gps_mod -->
<g id="node5" class="node">
<title>gps_mod</title>
<g id="a_node5"><a xlink:href="../modules/gps_mod.svg" xlink:title="gps_mod">
<polygon fill="none" stroke="red" points="259,-377 193,-377 193,-341 259,-341 259,-377"/>
<text text-anchor="middle" x="226" y="-355.3" font-family="Times,serif" font-size="14.00">gps_mod</text>
</a>
</g>
</g>
<!-- calcheightandpressure_mod&#45;&gt;gps_mod -->
<g id="edge4" class="edge">
<title>calcheightandpressure_mod&#45;&gt;gps_mod</title>
<path fill="none" stroke="black" d="M318,-628.86C301.5,-620.43 284.15,-608.66 273,-593 249.6,-560.14 234.53,-441.55 228.71,-387.36"/>
<polygon fill="black" stroke="black" points="232.16,-386.71 227.64,-377.13 225.2,-387.43 232.16,-386.71"/>
</g>
<!-- gridstatevector_mod -->
<g id="node6" class="node">
<title>gridstatevector_mod</title>
<g id="a_node6"><a xlink:href="../modules/gridstatevector_mod.svg" xlink:title="gridstatevector_mod">
<polygon fill="none" stroke="red" points="296.5,-305 169.5,-305 169.5,-269 296.5,-269 296.5,-305"/>
<text text-anchor="middle" x="233" y="-283.3" font-family="Times,serif" font-size="14.00">gridstatevector_mod</text>
</a>
</g>
</g>
<!-- calcheightandpressure_mod&#45;&gt;gridstatevector_mod -->
<g id="edge5" class="edge">
<title>calcheightandpressure_mod&#45;&gt;gridstatevector_mod</title>
<path fill="none" stroke="black" d="M341.59,-628.86C330.99,-619.33 318.81,-606.65 311,-593 290.66,-557.44 287,-544.97 287,-504 287,-504 287,-504 287,-430 287,-389.55 283.64,-378.3 268,-341 264.01,-331.49 258.27,-321.86 252.58,-313.46"/>
<polygon fill="black" stroke="black" points="255.38,-311.36 246.75,-305.21 249.67,-315.4 255.38,-311.36"/>
</g>
<!-- horizontalcoord_mod -->
<g id="node7" class="node">
<title>horizontalcoord_mod</title>
<g id="a_node7"><a xlink:href="../modules/horizontalcoord_mod.svg" xlink:title="horizontalcoord_mod">
<polygon fill="none" stroke="red" points="334.5,-233 201.5,-233 201.5,-197 334.5,-197 334.5,-233"/>
<text text-anchor="middle" x="268" y="-211.3" font-family="Times,serif" font-size="14.00">horizontalcoord_mod</text>
</a>
</g>
</g>
<!-- calcheightandpressure_mod&#45;&gt;horizontalcoord_mod -->
<g id="edge6" class="edge">
<title>calcheightandpressure_mod&#45;&gt;horizontalcoord_mod</title>
<path fill="none" stroke="black" d="M355.31,-628.91C344.21,-602.62 325,-550.45 325,-504 325,-504 325,-504 325,-358 325,-317.46 321.36,-306.1 305,-269 300.77,-259.4 294.69,-249.74 288.68,-241.35"/>
<polygon fill="black" stroke="black" points="291.31,-239.02 282.52,-233.11 285.71,-243.22 291.31,-239.02"/>
</g>
<!-- mathphysconstants_mod -->
<g id="node8" class="node">
<title>mathphysconstants_mod</title>
<g id="a_node8"><a xlink:href="mathphysconstants_mod.html" xlink:title="mathphysconstants_mod">
<polygon fill="gray" stroke="black" points="373,-161 223,-161 223,-125 373,-125 373,-161"/>
<text text-anchor="middle" x="298" y="-139.3" font-family="Times,serif" font-size="14.00">mathphysconstants_mod</text>
</a>
</g>
</g>
<!-- calcheightandpressure_mod&#45;&gt;mathphysconstants_mod -->
<g id="edge7" class="edge">
<title>calcheightandpressure_mod&#45;&gt;mathphysconstants_mod</title>
<path fill="none" stroke="black" d="M363,-628.95C363,-602.29 363,-549.11 363,-504 363,-504 363,-504 363,-286 363,-245.46 361.09,-233.28 343,-197 337.94,-186.85 330.53,-177.01 323.18,-168.62"/>
<polygon fill="black" stroke="black" points="325.57,-166.05 316.23,-161.06 320.42,-170.79 325.57,-166.05"/>
</g>
<!-- message_mod -->
<g id="node9" class="node">
<title>message_mod</title>
<g id="a_node9"><a xlink:href="../modules/message_mod.svg" xlink:title="message_mod">
<polygon fill="none" stroke="red" points="447.5,-89 354.5,-89 354.5,-53 447.5,-53 447.5,-89"/>
<text text-anchor="middle" x="401" y="-67.3" font-family="Times,serif" font-size="14.00">message_mod</text>
</a>
</g>
</g>
<!-- calcheightandpressure_mod&#45;&gt;message_mod -->
<g id="edge8" class="edge">
<title>calcheightandpressure_mod&#45;&gt;message_mod</title>
<path fill="none" stroke="black" d="M370.69,-628.91C381.79,-602.62 401,-550.45 401,-504 401,-504 401,-504 401,-214 401,-174 401,-127.65 401,-99.08"/>
<polygon fill="black" stroke="black" points="404.5,-99.05 401,-89.05 397.5,-99.05 404.5,-99.05"/>
</g>
<!-- midasmpi_mod -->
<g id="node10" class="node">
<title>midasmpi_mod</title>
<g id="a_node10"><a xlink:href="../modules/midasmpi_mod.svg" xlink:title="midasmpi_mod">
<polygon fill="none" stroke="red" points="530.5,-593 429.5,-593 429.5,-557 530.5,-557 530.5,-593"/>
<text text-anchor="middle" x="480" y="-571.3" font-family="Times,serif" font-size="14.00">midasmpi_mod</text>
</a>
</g>
</g>
<!-- calcheightandpressure_mod&#45;&gt;midasmpi_mod -->
<g id="edge9" class="edge">
<title>calcheightandpressure_mod&#45;&gt;midasmpi_mod</title>
<path fill="none" stroke="black" d="M391.62,-628.88C406.92,-619.72 425.94,-608.34 442.42,-598.48"/>
<polygon fill="black" stroke="black" points="444.48,-601.33 451.27,-593.19 440.89,-595.32 444.48,-601.33"/>
</g>
<!-- physicsfunctions_mod -->
<g id="node11" class="node">
<title>physicsfunctions_mod</title>
<g id="a_node11"><a xlink:href="../modules/physicsfunctions_mod.svg" xlink:title="physicsfunctions_mod">
<polygon fill="none" stroke="red" points="569,-521 431,-521 431,-485 569,-485 569,-521"/>
<text text-anchor="middle" x="500" y="-499.3" font-family="Times,serif" font-size="14.00">physicsfunctions_mod</text>
</a>
</g>
</g>
<!-- calcheightandpressure_mod&#45;&gt;physicsfunctions_mod -->
<g id="edge10" class="edge">
<title>calcheightandpressure_mod&#45;&gt;physicsfunctions_mod</title>
<path fill="none" stroke="black" d="M446.72,-641.87C481,-635.54 517.59,-621.81 539,-593 553.46,-573.54 539.39,-547.88 524.27,-529.11"/>
<polygon fill="black" stroke="black" points="526.73,-526.6 517.57,-521.27 521.41,-531.15 526.73,-526.6"/>
</g>
<!-- utilities_mod -->
<g id="node12" class="node">
<title>utilities_mod</title>
<g id="a_node12"><a xlink:href="../modules/utilities_mod.svg" xlink:title="utilities_mod">
<polygon fill="none" stroke="red" points="624,-449 536,-449 536,-413 624,-413 624,-449"/>
<text text-anchor="middle" x="580" y="-427.3" font-family="Times,serif" font-size="14.00">utilities_mod</text>
</a>
</g>
</g>
<!-- calcheightandpressure_mod&#45;&gt;utilities_mod -->
<g id="edge11" class="edge">
<title>calcheightandpressure_mod&#45;&gt;utilities_mod</title>
<path fill="none" stroke="black" d="M446.71,-641.42C484.84,-635.17 527.87,-621.64 557,-593 592.31,-558.29 590.04,-495.59 585.1,-459.53"/>
<polygon fill="black" stroke="black" points="588.5,-458.61 583.52,-449.25 581.58,-459.67 588.5,-458.61"/>
</g>
<!-- varnamelist_mod -->
<g id="node13" class="node">
<title>varnamelist_mod</title>
<g id="a_node13"><a xlink:href="../modules/varnamelist_mod.svg" xlink:title="varnamelist_mod">
<polygon fill="none" stroke="red" points="707,-377 597,-377 597,-341 707,-341 707,-377"/>
<text text-anchor="middle" x="652" y="-355.3" font-family="Times,serif" font-size="14.00">varnamelist_mod</text>
</a>
</g>
</g>
<!-- calcheightandpressure_mod&#45;&gt;varnamelist_mod -->
<g id="edge12" class="edge">
<title>calcheightandpressure_mod&#45;&gt;varnamelist_mod</title>
<path fill="none" stroke="black" d="M446.63,-634.17C499.66,-625.12 561.92,-611.11 582,-593 641.77,-539.08 651.34,-436.31 652.33,-387.3"/>
<polygon fill="black" stroke="black" points="655.83,-387.18 652.43,-377.15 648.83,-387.12 655.83,-387.18"/>
</g>
<!-- verticalcoord_mod -->
<g id="node14" class="node">
<title>verticalcoord_mod</title>
<g id="a_node14"><a xlink:href="../modules/verticalcoord_mod.svg" xlink:title="verticalcoord_mod">
<polygon fill="none" stroke="red" points="794,-305 676,-305 676,-269 794,-269 794,-305"/>
<text text-anchor="middle" x="735" y="-283.3" font-family="Times,serif" font-size="14.00">verticalcoord_mod</text>
</a>
</g>
</g>
<!-- calcheightandpressure_mod&#45;&gt;verticalcoord_mod -->
<g id="edge13" class="edge">
<title>calcheightandpressure_mod&#45;&gt;verticalcoord_mod</title>
<path fill="none" stroke="black" d="M446.54,-636.7C495.67,-629.14 558.13,-615.86 610,-593 672.41,-565.5 735,-572.2 735,-504 735,-504 735,-504 735,-430 735,-390 735,-343.65 735,-315.08"/>
<polygon fill="black" stroke="black" points="738.5,-315.05 735,-305.05 731.5,-315.05 738.5,-315.05"/>
</g>
</g>
</svg>
