<?xml version="1.0" encoding="UTF-8" standalone="no"?>
<!DOCTYPE svg PUBLIC "-//W3C//DTD SVG 1.1//EN"
 "http://www.w3.org/Graphics/SVG/1.1/DTD/svg11.dtd">
<!-- Generated by graphviz version 3.0.0 (20220315.2325)
 -->
<!-- Title: calcheightandpressure_mod Pages: 1 -->
<svg width="960pt" height="673pt"
 viewBox="0.00 0.00 960.00 673.00" xmlns="http://www.w3.org/2000/svg" xmlns:xlink="http://www.w3.org/1999/xlink">
<g id="graph0" class="graph" transform="scale(1 1) rotate(0) translate(4 669)">
<title>calcheightandpressure_mod</title>
<polygon fill="white" stroke="transparent" points="-4,4 -4,-669 956,-669 956,4 -4,4"/>
<text text-anchor="middle" x="476" y="-649.8" font-family="Times,serif" font-size="14.00">Blue boxes indicate modules with reverse dependencies not shown</text>
<text text-anchor="middle" x="476" y="-634.8" font-family="Times,serif" font-size="14.00">Higher level reverse dependencies can be shown by clicking on a blue box</text>
<text text-anchor="middle" x="476" y="-619.8" font-family="Times,serif" font-size="14.00">Green boxes are programs</text>
<!-- calcheightandpressure_mod -->
<g id="node1" class="node">
<title>calcheightandpressure_mod</title>
<g id="a_node1"><a xlink:href="calcheightandpressure_mod.html" xlink:title="calcheightandpressure_mod">
<polygon fill="none" stroke="black" points="506.5,-36 339.5,-36 339.5,0 506.5,0 506.5,-36"/>
<text text-anchor="middle" x="423" y="-14.3" font-family="Times,serif" font-size="14.00">calcheightandpressure_mod</text>
</a>
</g>
</g>
<!-- bcovarsetupchem_mod -->
<g id="node2" class="node">
<title>bcovarsetupchem_mod</title>
<g id="a_node2"><a xlink:href="../modules/bcovarsetupchem_mod_rev.svg" xlink:title="bcovarsetupchem_mod">
<polygon fill="none" stroke="blue" points="142,-108 0,-108 0,-72 142,-72 142,-108"/>
<text text-anchor="middle" x="71" y="-86.3" font-family="Times,serif" font-size="14.00">bcovarsetupchem_mod</text>
</a>
</g>
</g>
<!-- bcovarsetupchem_mod&#45;&gt;calcheightandpressure_mod -->
<g id="edge1" class="edge">
<title>bcovarsetupchem_mod&#45;&gt;calcheightandpressure_mod</title>
<path fill="none" stroke="black" d="M150.55,-73.09C152.38,-72.72 154.2,-72.36 156,-72 217.41,-59.76 286.78,-46 339.41,-35.56"/>
<ellipse fill="black" stroke="black" cx="146.34" cy="-73.93" rx="4" ry="4"/>
</g>
<!-- bmatrix1dvar_mod -->
<g id="node3" class="node">
<title>bmatrix1dvar_mod</title>
<g id="a_node3"><a xlink:href="../modules/bmatrix1dvar_mod_rev.svg" xlink:title="bmatrix1dvar_mod">
<polygon fill="none" stroke="blue" points="204.5,-180 85.5,-180 85.5,-144 204.5,-144 204.5,-180"/>
<text text-anchor="middle" x="145" y="-158.3" font-family="Times,serif" font-size="14.00">bmatrix1dvar_mod</text>
</a>
</g>
</g>
<!-- bmatrix1dvar_mod&#45;&gt;calcheightandpressure_mod -->
<g id="edge2" class="edge">
<title>bmatrix1dvar_mod&#45;&gt;calcheightandpressure_mod</title>
<path fill="none" stroke="black" d="M158.93,-137C171.94,-116.7 193.2,-88.38 219,-72 254.99,-49.15 300.47,-36.12 339.35,-28.71"/>
<ellipse fill="black" stroke="black" cx="156.8" cy="-140.42" rx="4" ry="4"/>
</g>
<!-- bmatrixensemble_mod -->
<g id="node4" class="node">
<title>bmatrixensemble_mod</title>
<g id="a_node4"><a xlink:href="../modules/bmatrixensemble_mod_rev.svg" xlink:title="bmatrixensemble_mod">
<polygon fill="none" stroke="blue" points="243,-252 103,-252 103,-216 243,-216 243,-252"/>
<text text-anchor="middle" x="173" y="-230.3" font-family="Times,serif" font-size="14.00">bmatrixensemble_mod</text>
</a>
</g>
</g>
<!-- bmatrixensemble_mod&#45;&gt;calcheightandpressure_mod -->
<g id="edge3" class="edge">
<title>bmatrixensemble_mod&#45;&gt;calcheightandpressure_mod</title>
<path fill="none" stroke="black" d="M193.03,-209.22C199.9,-200.39 207.28,-190.06 213,-180 238.6,-134.94 218.95,-107.2 257,-72 279.54,-51.15 310.3,-38.5 339.22,-30.83"/>
<ellipse fill="black" stroke="black" cx="190.41" cy="-212.52" rx="4" ry="4"/>
</g>
<!-- bmatrixhi_mod -->
<g id="node5" class="node">
<title>bmatrixhi_mod</title>
<g id="a_node5"><a xlink:href="../modules/bmatrixhi_mod_rev.svg" xlink:title="bmatrixhi_mod">
<polygon fill="none" stroke="blue" points="281,-324 181,-324 181,-288 281,-288 281,-324"/>
<text text-anchor="middle" x="231" y="-302.3" font-family="Times,serif" font-size="14.00">bmatrixhi_mod</text>
</a>
</g>
</g>
<!-- bmatrixhi_mod&#45;&gt;calcheightandpressure_mod -->
<g id="edge4" class="edge">
<title>bmatrixhi_mod&#45;&gt;calcheightandpressure_mod</title>
<path fill="none" stroke="black" d="M241.79,-279.92C245.32,-271.18 249.08,-261.25 252,-252 276.77,-173.57 241.61,-134.57 295,-72 309.13,-55.44 329.26,-43.97 349.39,-36.05"/>
<ellipse fill="black" stroke="black" cx="240.16" cy="-283.86" rx="4" ry="4"/>
</g>
<!-- calcstatsglb_mod -->
<g id="node6" class="node">
<title>calcstatsglb_mod</title>
<g id="a_node6"><a xlink:href="../modules/calcstatsglb_mod_rev.svg" xlink:title="calcstatsglb_mod">
<polygon fill="none" stroke="blue" points="319,-396 209,-396 209,-360 319,-360 319,-396"/>
<text text-anchor="middle" x="264" y="-374.3" font-family="Times,serif" font-size="14.00">calcstatsglb_mod</text>
</a>
</g>
</g>
<!-- calcstatsglb_mod&#45;&gt;calcheightandpressure_mod -->
<g id="edge5" class="edge">
<title>calcstatsglb_mod&#45;&gt;calcheightandpressure_mod</title>
<path fill="none" stroke="black" d="M277.6,-352.47C282.04,-343.69 286.68,-333.59 290,-324 303.23,-285.78 309,-275.45 309,-235 309,-235 309,-235 309,-161 309,-120.03 308.17,-104.59 333,-72 344.87,-56.42 362.74,-44.55 379.44,-36.04"/>
<ellipse fill="black" stroke="black" cx="275.63" cy="-356.25" rx="4" ry="4"/>
</g>
<!-- calcstatslam_mod -->
<g id="node7" class="node">
<title>calcstatslam_mod</title>
<g id="a_node7"><a xlink:href="../modules/calcstatslam_mod_rev.svg" xlink:title="calcstatslam_mod">
<polygon fill="none" stroke="blue" points="356.5,-468 243.5,-468 243.5,-432 356.5,-432 356.5,-468"/>
<text text-anchor="middle" x="300" y="-446.3" font-family="Times,serif" font-size="14.00">calcstatslam_mod</text>
</a>
</g>
</g>
<!-- calcstatslam_mod&#45;&gt;calcheightandpressure_mod -->
<g id="edge6" class="edge">
<title>calcstatslam_mod&#45;&gt;calcheightandpressure_mod</title>
<path fill="none" stroke="black" d="M314.57,-424.84C319.4,-416.01 324.45,-405.78 328,-396 341.8,-357.98 347,-347.45 347,-307 347,-307 347,-307 347,-161 347,-120.03 350.66,-107.56 371,-72 378.81,-58.35 390.99,-45.67 401.59,-36.14"/>
<ellipse fill="black" stroke="black" cx="312.56" cy="-428.41" rx="4" ry="4"/>
</g>
<!-- columnvariabletransforms_mod -->
<g id="node8" class="node">
<title>columnvariabletransforms_mod</title>
<g id="a_node8"><a xlink:href="../modules/columnvariabletransforms_mod_rev.svg" xlink:title="columnvariabletransforms_mod">
<polygon fill="none" stroke="blue" points="394.5,-540 205.5,-540 205.5,-504 394.5,-504 394.5,-540"/>
<text text-anchor="middle" x="300" y="-518.3" font-family="Times,serif" font-size="14.00">columnvariabletransforms_mod</text>
</a>
</g>
</g>
<!-- columnvariabletransforms_mod&#45;&gt;calcheightandpressure_mod -->
<g id="edge7" class="edge">
<title>columnvariabletransforms_mod&#45;&gt;calcheightandpressure_mod</title>
<path fill="none" stroke="black" d="M335.21,-499.17C346.25,-490.7 357.51,-480.11 365,-468 386.33,-433.52 385,-419.54 385,-379 385,-379 385,-379 385,-161 385,-114.55 404.21,-62.38 415.31,-36.09"/>
<ellipse fill="black" stroke="black" cx="331.98" cy="-501.54" rx="4" ry="4"/>
</g>
<!-- enkf_mod -->
<g id="node9" class="node">
<title>enkf_mod</title>
<g id="a_node9"><a xlink:href="../modules/enkf_mod_rev.svg" xlink:title="enkf_mod">
<polygon fill="none" stroke="blue" points="459.5,-612 386.5,-612 386.5,-576 459.5,-576 459.5,-612"/>
<text text-anchor="middle" x="423" y="-590.3" font-family="Times,serif" font-size="14.00">enkf_mod</text>
</a>
</g>
</g>
<!-- enkf_mod&#45;&gt;calcheightandpressure_mod -->
<g id="edge8" class="edge">
<title>enkf_mod&#45;&gt;calcheightandpressure_mod</title>
<path fill="none" stroke="black" d="M423,-567.78C423,-539.39 423,-491.89 423,-451 423,-451 423,-451 423,-161 423,-115.89 423,-62.71 423,-36.05"/>
<ellipse fill="black" stroke="black" cx="423" cy="-571.95" rx="4" ry="4"/>
</g>
<!-- enspostprocess_mod -->
<g id="node10" class="node">
<title>enspostprocess_mod</title>
<g id="a_node10"><a xlink:href="../modules/enspostprocess_mod_rev.svg" xlink:title="enspostprocess_mod">
<polygon fill="none" stroke="blue" points="579,-108 451,-108 451,-72 579,-72 579,-108"/>
<text text-anchor="middle" x="515" y="-86.3" font-family="Times,serif" font-size="14.00">enspostprocess_mod</text>
</a>
</g>
</g>
<!-- enspostprocess_mod&#45;&gt;calcheightandpressure_mod -->
<g id="edge9" class="edge">
<title>enspostprocess_mod&#45;&gt;calcheightandpressure_mod</title>
<path fill="none" stroke="black" d="M485.67,-66.68C472.65,-56.78 457.58,-45.31 445.48,-36.1"/>
<ellipse fill="black" stroke="black" cx="489.08" cy="-69.27" rx="4" ry="4"/>
</g>
<!-- fsoi_mod -->
<g id="node11" class="node">
<title>fsoi_mod</title>
<g id="a_node11"><a xlink:href="../modules/fsoi_mod_rev.svg" xlink:title="fsoi_mod">
<polygon fill="none" stroke="blue" points="617,-180 549,-180 549,-144 617,-144 617,-180"/>
<text text-anchor="middle" x="583" y="-158.3" font-family="Times,serif" font-size="14.00">fsoi_mod</text>
</a>
</g>
</g>
<!-- fsoi_mod&#45;&gt;calcheightandpressure_mod -->
<g id="edge10" class="edge">
<title>fsoi_mod&#45;&gt;calcheightandpressure_mod</title>
<path fill="none" stroke="black" d="M592.34,-135.99C597.81,-116.68 601.32,-90.27 588,-72 569.12,-46.11 537.39,-32.59 506.78,-25.62"/>
<ellipse fill="black" stroke="black" cx="591.1" cy="-139.96" rx="4" ry="4"/>
</g>
<!-- gridvariabletransforms_mod -->
<g id="node12" class="node">
<title>gridvariabletransforms_mod</title>
<g id="a_node12"><a xlink:href="../modules/gridvariabletransforms_mod_rev.svg" xlink:title="gridvariabletransforms_mod">
<polygon fill="none" stroke="blue" points="655,-252 485,-252 485,-216 655,-216 655,-252"/>
<text text-anchor="middle" x="570" y="-230.3" font-family="Times,serif" font-size="14.00">gridvariabletransforms_mod</text>
</a>
</g>
</g>
<!-- gridvariabletransforms_mod&#45;&gt;calcheightandpressure_mod -->
<g id="edge11" class="edge">
<title>gridvariabletransforms_mod&#45;&gt;calcheightandpressure_mod</title>
<path fill="none" stroke="black" d="M602.33,-210.6C611.78,-202.2 620.92,-191.8 626,-180 645.27,-135.23 641.07,-106.85 607,-72 580.74,-45.14 541.81,-31.67 506.51,-24.99"/>
<ellipse fill="black" stroke="black" cx="599.19" cy="-213.24" rx="4" ry="4"/>
</g>
<!-- humiditylimits_mod -->
<g id="node13" class="node">
<title>humiditylimits_mod</title>
<g id="a_node13"><a xlink:href="../modules/humiditylimits_mod_rev.svg" xlink:title="humiditylimits_mod">
<polygon fill="none" stroke="blue" points="693,-324 565,-324 565,-288 693,-288 693,-324"/>
<text text-anchor="middle" x="629" y="-302.3" font-family="Times,serif" font-size="14.00">humiditylimits_mod</text>
</a>
</g>
</g>
<!-- humiditylimits_mod&#45;&gt;calcheightandpressure_mod -->
<g id="edge12" class="edge">
<title>humiditylimits_mod&#45;&gt;calcheightandpressure_mod</title>
<path fill="none" stroke="black" d="M649.02,-281.14C655.05,-272.51 660.9,-262.33 664,-252 680.84,-195.96 659.52,-98.58 634,-72 616.18,-53.44 557.56,-39.62 506.62,-30.76"/>
<ellipse fill="black" stroke="black" cx="646.55" cy="-284.48" rx="4" ry="4"/>
</g>
<!-- interpolation_mod -->
<g id="node14" class="node">
<title>interpolation_mod</title>
<g id="a_node14"><a xlink:href="../modules/interpolation_mod_rev.svg" xlink:title="interpolation_mod">
<polygon fill="none" stroke="blue" points="755,-396 639,-396 639,-360 755,-360 755,-396"/>
<text text-anchor="middle" x="697" y="-374.3" font-family="Times,serif" font-size="14.00">interpolation_mod</text>
</a>
</g>
</g>
<!-- interpolation_mod&#45;&gt;calcheightandpressure_mod -->
<g id="edge13" class="edge">
<title>interpolation_mod&#45;&gt;calcheightandpressure_mod</title>
<path fill="none" stroke="black" d="M703.86,-351.9C710.95,-323.69 721,-276.42 721,-235 721,-235 721,-235 721,-161 721,-65.58 594.94,-34.21 506.8,-23.94"/>
<ellipse fill="black" stroke="black" cx="702.85" cy="-355.8" rx="4" ry="4"/>
</g>
<!-- obsspaceerrorstddev_mod -->
<g id="node15" class="node">
<title>obsspaceerrorstddev_mod</title>
<g id="a_node15"><a xlink:href="../modules/obsspaceerrorstddev_mod_rev.svg" xlink:title="obsspaceerrorstddev_mod">
<polygon fill="none" stroke="blue" points="861.5,-468 704.5,-468 704.5,-432 861.5,-432 861.5,-468"/>
<text text-anchor="middle" x="783" y="-446.3" font-family="Times,serif" font-size="14.00">obsspaceerrorstddev_mod</text>
</a>
</g>
</g>
<!-- obsspaceerrorstddev_mod&#45;&gt;calcheightandpressure_mod -->
<g id="edge14" class="edge">
<title>obsspaceerrorstddev_mod&#45;&gt;calcheightandpressure_mod</title>
<path fill="none" stroke="black" d="M783,-423.78C783,-395.39 783,-347.89 783,-307 783,-307 783,-307 783,-161 783,-107.81 749.34,-98.1 703,-72 642.75,-38.08 564.84,-25.4 506.51,-20.88"/>
<ellipse fill="black" stroke="black" cx="783" cy="-427.95" rx="4" ry="4"/>
</g>
<!-- statetocolumn_mod -->
<g id="node16" class="node">
<title>statetocolumn_mod</title>
<g id="a_node16"><a xlink:href="../modules/statetocolumn_mod_rev.svg" xlink:title="statetocolumn_mod">
<polygon fill="none" stroke="blue" points="952,-540 828,-540 828,-504 952,-504 952,-540"/>
<text text-anchor="middle" x="890" y="-518.3" font-family="Times,serif" font-size="14.00">statetocolumn_mod</text>
</a>
</g>
</g>
<!-- statetocolumn_mod&#45;&gt;calcheightandpressure_mod -->
<g id="edge15" class="edge">
<title>statetocolumn_mod&#45;&gt;calcheightandpressure_mod</title>
<path fill="none" stroke="black" d="M890,-495.78C890,-467.39 890,-419.89 890,-379 890,-379 890,-379 890,-161 890,-81.82 641.15,-42.57 506.76,-27.15"/>
<ellipse fill="black" stroke="black" cx="890" cy="-499.95" rx="4" ry="4"/>
</g>
</g>
</svg>
