<?xml version="1.0" encoding="UTF-8" standalone="no"?>
<!DOCTYPE svg PUBLIC "-//W3C//DTD SVG 1.1//EN"
 "http://www.w3.org/Graphics/SVG/1.1/DTD/svg11.dtd">
<!-- Generated by graphviz version 3.0.0 (20220315.2325)
 -->
<!-- Title: clib_interfaces_mod Pages: 1 -->
<svg width="542pt" height="673pt"
 viewBox="0.00 0.00 541.50 673.00" xmlns="http://www.w3.org/2000/svg" xmlns:xlink="http://www.w3.org/1999/xlink">
<g id="graph0" class="graph" transform="scale(1 1) rotate(0) translate(4 669)">
<title>clib_interfaces_mod</title>
<polygon fill="white" stroke="transparent" points="-4,4 -4,-669 537.5,-669 537.5,4 -4,4"/>
<text text-anchor="middle" x="266.75" y="-649.8" font-family="Times,serif" font-size="14.00">Blue boxes indicate modules with reverse dependencies not shown</text>
<text text-anchor="middle" x="266.75" y="-634.8" font-family="Times,serif" font-size="14.00">Higher level reverse dependencies can be shown by clicking on a blue box</text>
<text text-anchor="middle" x="266.75" y="-619.8" font-family="Times,serif" font-size="14.00">Green boxes are programs</text>
<!-- clib_interfaces_mod -->
<g id="node1" class="node">
<title>clib_interfaces_mod</title>
<g id="a_node1"><a xlink:href="clib_interfaces_mod.html" xlink:title="clib_interfaces_mod">
<polygon fill="none" stroke="black" points="353,-36 226,-36 226,0 353,0 353,-36"/>
<text text-anchor="middle" x="289.5" y="-14.3" font-family="Times,serif" font-size="14.00">clib_interfaces_mod</text>
</a>
</g>
</g>
<!-- biascorrectionsat_mod -->
<g id="node2" class="node">
<title>biascorrectionsat_mod</title>
<g id="a_node2"><a xlink:href="../modules/biascorrectionsat_mod_rev.svg" xlink:title="biascorrectionsat_mod">
<polygon fill="none" stroke="blue" points="139,-108 0,-108 0,-72 139,-72 139,-108"/>
<text text-anchor="middle" x="69.5" y="-86.3" font-family="Times,serif" font-size="14.00">biascorrectionsat_mod</text>
</a>
</g>
</g>
<!-- biascorrectionsat_mod&#45;&gt;clib_interfaces_mod -->
<g id="edge1" class="edge">
<title>biascorrectionsat_mod&#45;&gt;clib_interfaces_mod</title>
<path fill="none" stroke="black" d="M130.81,-69.49C163.76,-59.01 204.01,-46.2 235.72,-36.11"/>
<ellipse fill="black" stroke="black" cx="126.85" cy="-70.75" rx="4" ry="4"/>
</g>
<!-- enspostprocess_mod -->
<g id="node3" class="node">
<title>enspostprocess_mod</title>
<g id="a_node3"><a xlink:href="../modules/enspostprocess_mod_rev.svg" xlink:title="enspostprocess_mod">
<polygon fill="none" stroke="blue" points="204.5,-180 76.5,-180 76.5,-144 204.5,-144 204.5,-180"/>
<text text-anchor="middle" x="140.5" y="-158.3" font-family="Times,serif" font-size="14.00">enspostprocess_mod</text>
</a>
</g>
</g>
<!-- enspostprocess_mod&#45;&gt;clib_interfaces_mod -->
<g id="edge2" class="edge">
<title>enspostprocess_mod&#45;&gt;clib_interfaces_mod</title>
<path fill="none" stroke="black" d="M158.83,-137.47C173.91,-118.79 196.33,-92.5 218.5,-72 232.62,-58.95 249.88,-46.01 263.84,-36.18"/>
<ellipse fill="black" stroke="black" cx="156.12" cy="-140.86" rx="4" ry="4"/>
</g>
<!-- filenames_mod -->
<g id="node4" class="node">
<title>filenames_mod</title>
<g id="a_node4"><a xlink:href="../modules/filenames_mod_rev.svg" xlink:title="filenames_mod">
<polygon fill="none" stroke="blue" points="242,-252 143,-252 143,-216 242,-216 242,-252"/>
<text text-anchor="middle" x="192.5" y="-230.3" font-family="Times,serif" font-size="14.00">filenames_mod</text>
</a>
</g>
</g>
<!-- filenames_mod&#45;&gt;clib_interfaces_mod -->
<g id="edge3" class="edge">
<title>filenames_mod&#45;&gt;clib_interfaces_mod</title>
<path fill="none" stroke="black" d="M202.22,-208.46C219.93,-163.78 255.68,-73.61 256.5,-72 262.75,-59.62 271,-46.37 277.69,-36.21"/>
<ellipse fill="black" stroke="black" cx="200.72" cy="-212.26" rx="4" ry="4"/>
</g>
<!-- obsdbfiles_mod -->
<g id="node5" class="node">
<title>obsdbfiles_mod</title>
<g id="a_node5"><a xlink:href="../modules/obsdbfiles_mod_rev.svg" xlink:title="obsdbfiles_mod">
<polygon fill="none" stroke="blue" points="280.5,-324 178.5,-324 178.5,-288 280.5,-288 280.5,-324"/>
<text text-anchor="middle" x="229.5" y="-302.3" font-family="Times,serif" font-size="14.00">obsdbfiles_mod</text>
</a>
</g>
</g>
<!-- obsdbfiles_mod&#45;&gt;clib_interfaces_mod -->
<g id="edge4" class="edge">
<title>obsdbfiles_mod&#45;&gt;clib_interfaces_mod</title>
<path fill="none" stroke="black" d="M240.65,-280.03C244.21,-271.3 247.9,-261.34 250.5,-252 272.5,-172.98 283.93,-75.22 287.88,-36.23"/>
<ellipse fill="black" stroke="black" cx="239" cy="-283.97" rx="4" ry="4"/>
</g>
<!-- obsfiles_mod -->
<g id="node6" class="node">
<title>obsfiles_mod</title>
<g id="a_node6"><a xlink:href="../modules/obsfiles_mod_rev.svg" xlink:title="obsfiles_mod">
<polygon fill="none" stroke="blue" points="318,-396 229,-396 229,-360 318,-360 318,-396"/>
<text text-anchor="middle" x="273.5" y="-374.3" font-family="Times,serif" font-size="14.00">obsfiles_mod</text>
</a>
</g>
</g>
<!-- obsfiles_mod&#45;&gt;clib_interfaces_mod -->
<g id="edge5" class="edge">
<title>obsfiles_mod&#45;&gt;clib_interfaces_mod</title>
<path fill="none" stroke="black" d="M283.5,-352.14C293.85,-324.14 308.5,-277.06 308.5,-235 308.5,-235 308.5,-235 308.5,-161 308.5,-115.73 298.9,-63.06 293.34,-36.39"/>
<ellipse fill="black" stroke="black" cx="282" cy="-356.11" rx="4" ry="4"/>
</g>
<!-- ramdisk_mod -->
<g id="node7" class="node">
<title>ramdisk_mod</title>
<g id="a_node7"><a xlink:href="../modules/ramdisk_mod_rev.svg" xlink:title="ramdisk_mod">
<polygon fill="none" stroke="blue" points="374,-468 283,-468 283,-432 374,-432 374,-468"/>
<text text-anchor="middle" x="328.5" y="-446.3" font-family="Times,serif" font-size="14.00">ramdisk_mod</text>
</a>
</g>
</g>
<!-- ramdisk_mod&#45;&gt;clib_interfaces_mod -->
<g id="edge6" class="edge">
<title>ramdisk_mod&#45;&gt;clib_interfaces_mod</title>
<path fill="none" stroke="black" d="M333.71,-423.44C339.03,-395.1 346.5,-347.99 346.5,-307 346.5,-307 346.5,-307 346.5,-161 346.5,-112.92 318.01,-61.84 301.31,-36.04"/>
<ellipse fill="black" stroke="black" cx="332.9" cy="-427.67" rx="4" ry="4"/>
</g>
<!-- sqliteutilities_mod -->
<g id="node8" class="node">
<title>sqliteutilities_mod</title>
<g id="a_node8"><a xlink:href="../modules/sqliteutilities_mod_rev.svg" xlink:title="sqliteutilities_mod">
<polygon fill="none" stroke="blue" points="461,-540 344,-540 344,-504 461,-504 461,-540"/>
<text text-anchor="middle" x="402.5" y="-518.3" font-family="Times,serif" font-size="14.00">sqliteutilities_mod</text>
</a>
</g>
</g>
<!-- sqliteutilities_mod&#45;&gt;clib_interfaces_mod -->
<g id="edge7" class="edge">
<title>sqliteutilities_mod&#45;&gt;clib_interfaces_mod</title>
<path fill="none" stroke="black" d="M402.5,-495.78C402.5,-467.39 402.5,-419.89 402.5,-379 402.5,-379 402.5,-379 402.5,-161 402.5,-105.86 349.7,-59.75 316.28,-36.09"/>
<ellipse fill="black" stroke="black" cx="402.5" cy="-499.95" rx="4" ry="4"/>
</g>
<!-- utilities_mod -->
<g id="node9" class="node">
<title>utilities_mod</title>
<g id="a_node9"><a xlink:href="../modules/utilities_mod_rev.svg" xlink:title="utilities_mod">
<polygon fill="none" stroke="blue" points="533.5,-612 445.5,-612 445.5,-576 533.5,-576 533.5,-612"/>
<text text-anchor="middle" x="489.5" y="-590.3" font-family="Times,serif" font-size="14.00">utilities_mod</text>
</a>
</g>
</g>
<!-- utilities_mod&#45;&gt;clib_interfaces_mod -->
<g id="edge8" class="edge">
<title>utilities_mod&#45;&gt;clib_interfaces_mod</title>
<path fill="none" stroke="black" d="M489.5,-567.78C489.5,-539.39 489.5,-491.89 489.5,-451 489.5,-451 489.5,-451 489.5,-161 489.5,-92.97 411.62,-54.55 353.06,-35.28"/>
<ellipse fill="black" stroke="black" cx="489.5" cy="-571.95" rx="4" ry="4"/>
</g>
</g>
</svg>
