<?xml version="1.0" encoding="UTF-8" standalone="no"?>
<!DOCTYPE svg PUBLIC "-//W3C//DTD SVG 1.1//EN"
 "http://www.w3.org/Graphics/SVG/1.1/DTD/svg11.dtd">
<!-- Generated by graphviz version 3.0.0 (20220315.2325)
 -->
<!-- Title: codeprecision_mod Pages: 1 -->
<svg width="2194pt" height="673pt"
 viewBox="0.00 0.00 2194.00 673.00" xmlns="http://www.w3.org/2000/svg" xmlns:xlink="http://www.w3.org/1999/xlink">
<g id="graph0" class="graph" transform="scale(1 1) rotate(0) translate(4 669)">
<title>codeprecision_mod</title>
<polygon fill="white" stroke="transparent" points="-4,4 -4,-669 2190,-669 2190,4 -4,4"/>
<text text-anchor="middle" x="1093" y="-649.8" font-family="Times,serif" font-size="14.00">Blue boxes indicate modules with reverse dependencies not shown</text>
<text text-anchor="middle" x="1093" y="-634.8" font-family="Times,serif" font-size="14.00">Higher level reverse dependencies can be shown by clicking on a blue box</text>
<text text-anchor="middle" x="1093" y="-619.8" font-family="Times,serif" font-size="14.00">Green boxes are programs</text>
<!-- codeprecision_mod -->
<g id="node1" class="node">
<title>codeprecision_mod</title>
<g id="a_node1"><a xlink:href="codeprecision_mod.html" xlink:title="codeprecision_mod">
<polygon fill="none" stroke="black" points="1140.5,-36 1018.5,-36 1018.5,0 1140.5,0 1140.5,-36"/>
<text text-anchor="middle" x="1079.5" y="-14.3" font-family="Times,serif" font-size="14.00">codeprecision_mod</text>
</a>
</g>
</g>
<!-- biascorrectionsat_mod -->
<g id="node2" class="node">
<title>biascorrectionsat_mod</title>
<g id="a_node2"><a xlink:href="../modules/biascorrectionsat_mod_rev.svg" xlink:title="biascorrectionsat_mod">
<polygon fill="none" stroke="blue" points="139,-108 0,-108 0,-72 139,-72 139,-108"/>
<text text-anchor="middle" x="69.5" y="-86.3" font-family="Times,serif" font-size="14.00">biascorrectionsat_mod</text>
</a>
</g>
</g>
<!-- biascorrectionsat_mod&#45;&gt;codeprecision_mod -->
<g id="edge1" class="edge">
<title>biascorrectionsat_mod&#45;&gt;codeprecision_mod</title>
<path fill="none" stroke="black" d="M147.24,-72.86C149.34,-72.56 151.43,-72.27 153.5,-72 477.49,-30.16 869.52,-21.35 1018.28,-19.49"/>
<ellipse fill="black" stroke="black" cx="143" cy="-73.52" rx="4" ry="4"/>
</g>
<!-- burpfiles_mod -->
<g id="node3" class="node">
<title>burpfiles_mod</title>
<g id="a_node3"><a xlink:href="../modules/burpfiles_mod_rev.svg" xlink:title="burpfiles_mod">
<polygon fill="none" stroke="blue" points="196,-180 101,-180 101,-144 196,-144 196,-180"/>
<text text-anchor="middle" x="148.5" y="-158.3" font-family="Times,serif" font-size="14.00">burpfiles_mod</text>
</a>
</g>
</g>
<!-- burpfiles_mod&#45;&gt;codeprecision_mod -->
<g id="edge2" class="edge">
<title>burpfiles_mod&#45;&gt;codeprecision_mod</title>
<path fill="none" stroke="black" d="M158.3,-136.3C168.1,-115.21 185.35,-86.12 210.5,-72 280.47,-32.71 832.41,-22.13 1018.49,-19.67"/>
<ellipse fill="black" stroke="black" cx="156.65" cy="-140.01" rx="4" ry="4"/>
</g>
<!-- burpread_mod -->
<g id="node4" class="node">
<title>burpread_mod</title>
<g id="a_node4"><a xlink:href="../modules/burpread_mod_rev.svg" xlink:title="burpread_mod">
<polygon fill="none" stroke="blue" points="234,-252 139,-252 139,-216 234,-216 234,-252"/>
<text text-anchor="middle" x="186.5" y="-230.3" font-family="Times,serif" font-size="14.00">burpread_mod</text>
</a>
</g>
</g>
<!-- burpread_mod&#45;&gt;codeprecision_mod -->
<g id="edge3" class="edge">
<title>burpread_mod&#45;&gt;codeprecision_mod</title>
<path fill="none" stroke="black" d="M195.32,-208.02C211.03,-163.87 242.73,-76.24 248.5,-72 310.11,-26.75 837.13,-20.09 1018.49,-19.15"/>
<ellipse fill="black" stroke="black" cx="193.92" cy="-211.96" rx="4" ry="4"/>
</g>
<!-- calcheightandpressure_mod -->
<g id="node5" class="node">
<title>calcheightandpressure_mod</title>
<g id="a_node5"><a xlink:href="../modules/calcheightandpressure_mod_rev.svg" xlink:title="calcheightandpressure_mod">
<polygon fill="none" stroke="blue" points="273,-324 106,-324 106,-288 273,-288 273,-324"/>
<text text-anchor="middle" x="189.5" y="-302.3" font-family="Times,serif" font-size="14.00">calcheightandpressure_mod</text>
</a>
</g>
</g>
<!-- calcheightandpressure_mod&#45;&gt;codeprecision_mod -->
<g id="edge4" class="edge">
<title>calcheightandpressure_mod&#45;&gt;codeprecision_mod</title>
<path fill="none" stroke="black" d="M217.65,-282.38C226.78,-273.75 236.17,-263.26 242.5,-252 282.89,-180.23 223.45,-124.99 286.5,-72 342.06,-25.31 841.83,-19.57 1018.21,-19"/>
<ellipse fill="black" stroke="black" cx="214.69" cy="-285.08" rx="4" ry="4"/>
</g>
<!-- calcstatsglb_mod -->
<g id="node6" class="node">
<title>calcstatsglb_mod</title>
<g id="a_node6"><a xlink:href="../modules/calcstatsglb_mod_rev.svg" xlink:title="calcstatsglb_mod">
<polygon fill="none" stroke="blue" points="310.5,-396 200.5,-396 200.5,-360 310.5,-360 310.5,-396"/>
<text text-anchor="middle" x="255.5" y="-374.3" font-family="Times,serif" font-size="14.00">calcstatsglb_mod</text>
</a>
</g>
</g>
<!-- calcstatsglb_mod&#45;&gt;codeprecision_mod -->
<g id="edge5" class="edge">
<title>calcstatsglb_mod&#45;&gt;codeprecision_mod</title>
<path fill="none" stroke="black" d="M269.1,-352.47C273.54,-343.69 278.18,-333.59 281.5,-324 294.73,-285.78 300.5,-275.45 300.5,-235 300.5,-235 300.5,-235 300.5,-161 300.5,-120.03 292.87,-98.04 324.5,-72 377.57,-28.31 848.31,-20.63 1018.47,-19.29"/>
<ellipse fill="black" stroke="black" cx="267.13" cy="-356.25" rx="4" ry="4"/>
</g>
<!-- enkf_mod -->
<g id="node7" class="node">
<title>enkf_mod</title>
<g id="a_node7"><a xlink:href="../modules/enkf_mod_rev.svg" xlink:title="enkf_mod">
<polygon fill="none" stroke="blue" points="348,-468 275,-468 275,-432 348,-432 348,-468"/>
<text text-anchor="middle" x="311.5" y="-446.3" font-family="Times,serif" font-size="14.00">enkf_mod</text>
</a>
</g>
</g>
<!-- enkf_mod&#45;&gt;codeprecision_mod -->
<g id="edge6" class="edge">
<title>enkf_mod&#45;&gt;codeprecision_mod</title>
<path fill="none" stroke="black" d="M319.22,-423.96C327.2,-395.8 338.5,-348.57 338.5,-307 338.5,-307 338.5,-307 338.5,-161 338.5,-120.03 330.92,-98.1 362.5,-72 412.5,-30.68 854.06,-21.52 1018.31,-19.53"/>
<ellipse fill="black" stroke="black" cx="318.08" cy="-427.87" rx="4" ry="4"/>
</g>
<!-- ensembleobservations_mod -->
<g id="node8" class="node">
<title>ensembleobservations_mod</title>
<g id="a_node8"><a xlink:href="../modules/ensembleobservations_mod_rev.svg" xlink:title="ensembleobservations_mod">
<polygon fill="none" stroke="blue" points="386.5,-540 220.5,-540 220.5,-504 386.5,-504 386.5,-540"/>
<text text-anchor="middle" x="303.5" y="-518.3" font-family="Times,serif" font-size="14.00">ensembleobservations_mod</text>
</a>
</g>
</g>
<!-- ensembleobservations_mod&#45;&gt;codeprecision_mod -->
<g id="edge7" class="edge">
<title>ensembleobservations_mod&#45;&gt;codeprecision_mod</title>
<path fill="none" stroke="black" d="M331.77,-498.45C340.9,-489.82 350.27,-479.31 356.5,-468 376.05,-432.48 376.5,-419.54 376.5,-379 376.5,-379 376.5,-379 376.5,-161 376.5,-120.03 368.97,-98.16 400.5,-72 447.48,-33.02 860.47,-22.44 1018.43,-19.81"/>
<ellipse fill="black" stroke="black" cx="328.8" cy="-501.15" rx="4" ry="4"/>
</g>
<!-- ensemblestatevector_mod -->
<g id="node9" class="node">
<title>ensemblestatevector_mod</title>
<g id="a_node9"><a xlink:href="../modules/ensemblestatevector_mod_rev.svg" xlink:title="ensemblestatevector_mod">
<polygon fill="none" stroke="blue" points="492.5,-612 336.5,-612 336.5,-576 492.5,-576 492.5,-612"/>
<text text-anchor="middle" x="414.5" y="-590.3" font-family="Times,serif" font-size="14.00">ensemblestatevector_mod</text>
</a>
</g>
</g>
<!-- ensemblestatevector_mod&#45;&gt;codeprecision_mod -->
<g id="edge8" class="edge">
<title>ensemblestatevector_mod&#45;&gt;codeprecision_mod</title>
<path fill="none" stroke="black" d="M414.5,-567.78C414.5,-539.39 414.5,-491.89 414.5,-451 414.5,-451 414.5,-451 414.5,-161 414.5,-114.73 429.2,-96.42 468.5,-72 514.48,-43.43 873.02,-26.8 1018.49,-21.18"/>
<ellipse fill="black" stroke="black" cx="414.5" cy="-571.95" rx="4" ry="4"/>
</g>
<!-- fsoi_mod -->
<g id="node10" class="node">
<title>fsoi_mod</title>
<g id="a_node10"><a xlink:href="../modules/fsoi_mod_rev.svg" xlink:title="fsoi_mod">
<polygon fill="none" stroke="blue" points="545.5,-108 477.5,-108 477.5,-72 545.5,-72 545.5,-108"/>
<text text-anchor="middle" x="511.5" y="-86.3" font-family="Times,serif" font-size="14.00">fsoi_mod</text>
</a>
</g>
</g>
<!-- fsoi_mod&#45;&gt;codeprecision_mod -->
<g id="edge9" class="edge">
<title>fsoi_mod&#45;&gt;codeprecision_mod</title>
<path fill="none" stroke="black" d="M553.43,-73.51C555.47,-72.96 557.5,-72.45 559.5,-72 722.63,-35.35 920.31,-24 1018.3,-20.52"/>
<ellipse fill="black" stroke="black" cx="549.39" cy="-74.69" rx="4" ry="4"/>
</g>
<!-- globalspectraltransform_mod -->
<g id="node11" class="node">
<title>globalspectraltransform_mod</title>
<g id="a_node11"><a xlink:href="../modules/globalspectraltransform_mod_rev.svg" xlink:title="globalspectraltransform_mod">
<polygon fill="none" stroke="blue" points="618.5,-180 442.5,-180 442.5,-144 618.5,-144 618.5,-180"/>
<text text-anchor="middle" x="530.5" y="-158.3" font-family="Times,serif" font-size="14.00">globalspectraltransform_mod</text>
</a>
</g>
</g>
<!-- globalspectraltransform_mod&#45;&gt;codeprecision_mod -->
<g id="edge10" class="edge">
<title>globalspectraltransform_mod&#45;&gt;codeprecision_mod</title>
<path fill="none" stroke="black" d="M549.74,-137.63C568.49,-116.62 599.02,-86.86 632.5,-72 700.18,-41.96 912.59,-27.35 1018.38,-21.79"/>
<ellipse fill="black" stroke="black" cx="546.94" cy="-140.83" rx="4" ry="4"/>
</g>
<!-- gridstatevectorfileio_mod -->
<g id="node12" class="node">
<title>gridstatevectorfileio_mod</title>
<g id="a_node12"><a xlink:href="../modules/gridstatevectorfileio_mod_rev.svg" xlink:title="gridstatevectorfileio_mod">
<polygon fill="none" stroke="blue" points="656,-252 501,-252 501,-216 656,-216 656,-252"/>
<text text-anchor="middle" x="578.5" y="-230.3" font-family="Times,serif" font-size="14.00">gridstatevectorfileio_mod</text>
</a>
</g>
</g>
<!-- gridstatevectorfileio_mod&#45;&gt;codeprecision_mod -->
<g id="edge11" class="edge">
<title>gridstatevectorfileio_mod&#45;&gt;codeprecision_mod</title>
<path fill="none" stroke="black" d="M603.28,-209.95C611.74,-201.16 620.77,-190.68 627.5,-180 655.06,-136.3 629.7,-103.69 670.5,-72 723.44,-30.88 917.76,-21.56 1018.31,-19.52"/>
<ellipse fill="black" stroke="black" cx="600.35" cy="-212.9" rx="4" ry="4"/>
</g>
<!-- gridstatevector_mod -->
<g id="node13" class="node">
<title>gridstatevector_mod</title>
<g id="a_node13"><a xlink:href="../modules/gridstatevector_mod_rev.svg" xlink:title="gridstatevector_mod">
<polygon fill="none" stroke="blue" points="694,-324 567,-324 567,-288 694,-288 694,-324"/>
<text text-anchor="middle" x="630.5" y="-302.3" font-family="Times,serif" font-size="14.00">gridstatevector_mod</text>
</a>
</g>
</g>
<!-- gridstatevector_mod&#45;&gt;codeprecision_mod -->
<g id="edge12" class="edge">
<title>gridstatevector_mod&#45;&gt;codeprecision_mod</title>
<path fill="none" stroke="black" d="M648.29,-280.98C654.13,-272.21 660.22,-261.99 664.5,-252 696.95,-176.31 647.49,-127.32 708.5,-72 752.85,-31.79 925.1,-22 1018.49,-19.68"/>
<ellipse fill="black" stroke="black" cx="645.96" cy="-284.38" rx="4" ry="4"/>
</g>
<!-- gridvariabletransforms_mod -->
<g id="node14" class="node">
<title>gridvariabletransforms_mod</title>
<g id="a_node14"><a xlink:href="../modules/gridvariabletransforms_mod_rev.svg" xlink:title="gridvariabletransforms_mod">
<polygon fill="none" stroke="blue" points="732.5,-396 562.5,-396 562.5,-360 732.5,-360 732.5,-396"/>
<text text-anchor="middle" x="647.5" y="-374.3" font-family="Times,serif" font-size="14.00">gridvariabletransforms_mod</text>
</a>
</g>
</g>
<!-- gridvariabletransforms_mod&#45;&gt;codeprecision_mod -->
<g id="edge13" class="edge">
<title>gridvariabletransforms_mod&#45;&gt;codeprecision_mod</title>
<path fill="none" stroke="black" d="M676.85,-354.63C686.33,-346.01 696.05,-335.47 702.5,-324 722.38,-288.67 722.5,-275.54 722.5,-235 722.5,-235 722.5,-235 722.5,-161 722.5,-120.03 716.04,-99.4 746.5,-72 785.51,-36.91 933.15,-24.97 1018.17,-20.97"/>
<ellipse fill="black" stroke="black" cx="673.7" cy="-357.37" rx="4" ry="4"/>
</g>
<!-- increment_mod -->
<g id="node15" class="node">
<title>increment_mod</title>
<g id="a_node15"><a xlink:href="../modules/increment_mod_rev.svg" xlink:title="increment_mod">
<polygon fill="none" stroke="blue" points="770,-468 669,-468 669,-432 770,-432 770,-468"/>
<text text-anchor="middle" x="719.5" y="-446.3" font-family="Times,serif" font-size="14.00">increment_mod</text>
</a>
</g>
</g>
<!-- increment_mod&#45;&gt;codeprecision_mod -->
<g id="edge14" class="edge">
<title>increment_mod&#45;&gt;codeprecision_mod</title>
<path fill="none" stroke="black" d="M731.06,-424.66C743.19,-396.86 760.5,-349.69 760.5,-307 760.5,-307 760.5,-307 760.5,-161 760.5,-120.03 754.32,-99.7 784.5,-72 817.85,-41.39 942.15,-27.9 1018.35,-22.41"/>
<ellipse fill="black" stroke="black" cx="729.43" cy="-428.32" rx="4" ry="4"/>
</g>
<!-- minimization_mod -->
<g id="node16" class="node">
<title>minimization_mod</title>
<g id="a_node16"><a xlink:href="../modules/minimization_mod_rev.svg" xlink:title="minimization_mod">
<polygon fill="none" stroke="blue" points="808,-540 687,-540 687,-504 808,-504 808,-540"/>
<text text-anchor="middle" x="747.5" y="-518.3" font-family="Times,serif" font-size="14.00">minimization_mod</text>
</a>
</g>
</g>
<!-- minimization_mod&#45;&gt;codeprecision_mod -->
<g id="edge15" class="edge">
<title>minimization_mod&#45;&gt;codeprecision_mod</title>
<path fill="none" stroke="black" d="M763.9,-496.58C769.18,-487.85 774.66,-477.76 778.5,-468 793.35,-430.28 798.5,-419.54 798.5,-379 798.5,-379 798.5,-379 798.5,-161 798.5,-120.03 792.67,-100.09 822.5,-72 850.23,-45.88 951.42,-31.27 1018.25,-24.28"/>
<ellipse fill="black" stroke="black" cx="761.67" cy="-500.15" rx="4" ry="4"/>
</g>
<!-- obsdbfiles_mod -->
<g id="node17" class="node">
<title>obsdbfiles_mod</title>
<g id="a_node17"><a xlink:href="../modules/obsdbfiles_mod_rev.svg" xlink:title="obsdbfiles_mod">
<polygon fill="none" stroke="blue" points="887.5,-612 785.5,-612 785.5,-576 887.5,-576 887.5,-612"/>
<text text-anchor="middle" x="836.5" y="-590.3" font-family="Times,serif" font-size="14.00">obsdbfiles_mod</text>
</a>
</g>
</g>
<!-- obsdbfiles_mod&#45;&gt;codeprecision_mod -->
<g id="edge16" class="edge">
<title>obsdbfiles_mod&#45;&gt;codeprecision_mod</title>
<path fill="none" stroke="black" d="M836.5,-567.78C836.5,-539.39 836.5,-491.89 836.5,-451 836.5,-451 836.5,-451 836.5,-161 836.5,-120.55 827.22,-100.91 855.5,-72 877.89,-49.11 960.02,-34.11 1018.33,-26.09"/>
<ellipse fill="black" stroke="black" cx="836.5" cy="-571.95" rx="4" ry="4"/>
</g>
<!-- obsfilter_mod -->
<g id="node18" class="node">
<title>obsfilter_mod</title>
<g id="a_node18"><a xlink:href="../modules/obsfilter_mod_rev.svg" xlink:title="obsfilter_mod">
<polygon fill="none" stroke="blue" points="956.5,-108 864.5,-108 864.5,-72 956.5,-72 956.5,-108"/>
<text text-anchor="middle" x="910.5" y="-86.3" font-family="Times,serif" font-size="14.00">obsfilter_mod</text>
</a>
</g>
</g>
<!-- obsfilter_mod&#45;&gt;codeprecision_mod -->
<g id="edge17" class="edge">
<title>obsfilter_mod&#45;&gt;codeprecision_mod</title>
<path fill="none" stroke="black" d="M959.42,-68.74C984.42,-58.38 1014.49,-45.93 1038.29,-36.07"/>
<ellipse fill="black" stroke="black" cx="955.54" cy="-70.35" rx="4" ry="4"/>
</g>
<!-- obsoperators_mod -->
<g id="node19" class="node">
<title>obsoperators_mod</title>
<g id="a_node19"><a xlink:href="../modules/obsoperators_mod_rev.svg" xlink:title="obsoperators_mod">
<polygon fill="none" stroke="blue" points="994.5,-180 878.5,-180 878.5,-144 994.5,-144 994.5,-180"/>
<text text-anchor="middle" x="936.5" y="-158.3" font-family="Times,serif" font-size="14.00">obsoperators_mod</text>
</a>
</g>
</g>
<!-- obsoperators_mod&#45;&gt;codeprecision_mod -->
<g id="edge18" class="edge">
<title>obsoperators_mod&#45;&gt;codeprecision_mod</title>
<path fill="none" stroke="black" d="M953.1,-137.33C966.84,-118.57 987.45,-92.25 1008.5,-72 1022.25,-58.78 1039.33,-45.93 1053.3,-36.2"/>
<ellipse fill="black" stroke="black" cx="950.71" cy="-140.64" rx="4" ry="4"/>
</g>
<!-- obsdatacolumn_mod -->
<g id="node20" class="node">
<title>obsdatacolumn_mod</title>
<g id="a_node20"><a xlink:href="../modules/obsdatacolumn_mod_rev.svg" xlink:title="obsdatacolumn_mod">
<polygon fill="none" stroke="blue" points="1032.5,-252 902.5,-252 902.5,-216 1032.5,-216 1032.5,-252"/>
<text text-anchor="middle" x="967.5" y="-230.3" font-family="Times,serif" font-size="14.00">obsdatacolumn_mod</text>
</a>
</g>
</g>
<!-- obsdatacolumn_mod&#45;&gt;codeprecision_mod -->
<g id="edge19" class="edge">
<title>obsdatacolumn_mod&#45;&gt;codeprecision_mod</title>
<path fill="none" stroke="black" d="M985.32,-209.15C991.52,-200.27 998.23,-189.92 1003.5,-180 1027.71,-134.36 1023.2,-118.11 1046.5,-72 1052.76,-59.62 1061.01,-46.37 1067.69,-36.21"/>
<ellipse fill="black" stroke="black" cx="982.81" cy="-212.67" rx="4" ry="4"/>
</g>
<!-- obsspacedata_mod -->
<g id="node21" class="node">
<title>obsspacedata_mod</title>
<g id="a_node21"><a xlink:href="../modules/obsspacedata_mod_rev.svg" xlink:title="obsspacedata_mod">
<polygon fill="none" stroke="blue" points="1070.5,-324 952.5,-324 952.5,-288 1070.5,-288 1070.5,-324"/>
<text text-anchor="middle" x="1011.5" y="-302.3" font-family="Times,serif" font-size="14.00">obsspacedata_mod</text>
</a>
</g>
</g>
<!-- obsspacedata_mod&#45;&gt;codeprecision_mod -->
<g id="edge20" class="edge">
<title>obsspacedata_mod&#45;&gt;codeprecision_mod</title>
<path fill="none" stroke="black" d="M1027.68,-280.64C1032.81,-271.92 1038.05,-261.82 1041.5,-252 1068.78,-174.48 1076.64,-75.47 1078.76,-36.18"/>
<ellipse fill="black" stroke="black" cx="1025.51" cy="-284.19" rx="4" ry="4"/>
</g>
<!-- obsspacediag_mod -->
<g id="node22" class="node">
<title>obsspacediag_mod</title>
<g id="a_node22"><a xlink:href="../modules/obsspacediag_mod_rev.svg" xlink:title="obsspacediag_mod">
<polygon fill="none" stroke="blue" points="1108,-396 989,-396 989,-360 1108,-360 1108,-396"/>
<text text-anchor="middle" x="1048.5" y="-374.3" font-family="Times,serif" font-size="14.00">obsspacediag_mod</text>
</a>
</g>
</g>
<!-- obsspacediag_mod&#45;&gt;codeprecision_mod -->
<g id="edge21" class="edge">
<title>obsspacediag_mod&#45;&gt;codeprecision_mod</title>
<path fill="none" stroke="black" d="M1064.96,-352.6C1070.25,-343.88 1075.71,-333.78 1079.5,-324 1094.12,-286.29 1098.5,-275.45 1098.5,-235 1098.5,-235 1098.5,-235 1098.5,-161 1098.5,-115.73 1088.9,-63.06 1083.34,-36.39"/>
<ellipse fill="black" stroke="black" cx="1062.73" cy="-356.18" rx="4" ry="4"/>
</g>
<!-- obssubspacedata_mod -->
<g id="node23" class="node">
<title>obssubspacedata_mod</title>
<g id="a_node23"><a xlink:href="../modules/obssubspacedata_mod_rev.svg" xlink:title="obssubspacedata_mod">
<polygon fill="none" stroke="blue" points="1146.5,-468 1010.5,-468 1010.5,-432 1146.5,-432 1146.5,-468"/>
<text text-anchor="middle" x="1078.5" y="-446.3" font-family="Times,serif" font-size="14.00">obssubspacedata_mod</text>
</a>
</g>
</g>
<!-- obssubspacedata_mod&#45;&gt;codeprecision_mod -->
<g id="edge22" class="edge">
<title>obssubspacedata_mod&#45;&gt;codeprecision_mod</title>
<path fill="none" stroke="black" d="M1098.39,-425.56C1105,-416.76 1111.85,-406.37 1116.5,-396 1133.09,-359.01 1136.5,-347.54 1136.5,-307 1136.5,-307 1136.5,-307 1136.5,-161 1136.5,-112.92 1108.01,-61.84 1091.31,-36.04"/>
<ellipse fill="black" stroke="black" cx="1095.88" cy="-428.79" rx="4" ry="4"/>
</g>
<!-- obsutil_mod -->
<g id="node24" class="node">
<title>obsutil_mod</title>
<g id="a_node24"><a xlink:href="../modules/obsutil_mod_rev.svg" xlink:title="obsutil_mod">
<polygon fill="none" stroke="blue" points="1184,-540 1101,-540 1101,-504 1184,-504 1184,-540"/>
<text text-anchor="middle" x="1142.5" y="-518.3" font-family="Times,serif" font-size="14.00">obsutil_mod</text>
</a>
</g>
</g>
<!-- obsutil_mod&#45;&gt;codeprecision_mod -->
<g id="edge23" class="edge">
<title>obsutil_mod&#45;&gt;codeprecision_mod</title>
<path fill="none" stroke="black" d="M1151.64,-496.06C1161.1,-468 1174.5,-420.86 1174.5,-379 1174.5,-379 1174.5,-379 1174.5,-161 1174.5,-108.5 1129.09,-60.72 1101.06,-36.22"/>
<ellipse fill="black" stroke="black" cx="1150.28" cy="-500.01" rx="4" ry="4"/>
</g>
<!-- obsvariabletransforms_mod -->
<g id="node25" class="node">
<title>obsvariabletransforms_mod</title>
<g id="a_node25"><a xlink:href="../modules/obsvariabletransforms_mod_rev.svg" xlink:title="obsvariabletransforms_mod">
<polygon fill="none" stroke="blue" points="1295.5,-612 1129.5,-612 1129.5,-576 1295.5,-576 1295.5,-612"/>
<text text-anchor="middle" x="1212.5" y="-590.3" font-family="Times,serif" font-size="14.00">obsvariabletransforms_mod</text>
</a>
</g>
</g>
<!-- obsvariabletransforms_mod&#45;&gt;codeprecision_mod -->
<g id="edge24" class="edge">
<title>obsvariabletransforms_mod&#45;&gt;codeprecision_mod</title>
<path fill="none" stroke="black" d="M1212.5,-567.78C1212.5,-539.39 1212.5,-491.89 1212.5,-451 1212.5,-451 1212.5,-451 1212.5,-161 1212.5,-102.9 1152.46,-58.77 1113.06,-36.07"/>
<ellipse fill="black" stroke="black" cx="1212.5" cy="-571.95" rx="4" ry="4"/>
</g>
<!-- oceanobservations_mod -->
<g id="node26" class="node">
<title>oceanobservations_mod</title>
<g id="a_node26"><a xlink:href="../modules/oceanobservations_mod_rev.svg" xlink:title="oceanobservations_mod">
<polygon fill="none" stroke="blue" points="1386.5,-108 1240.5,-108 1240.5,-72 1386.5,-72 1386.5,-108"/>
<text text-anchor="middle" x="1313.5" y="-86.3" font-family="Times,serif" font-size="14.00">oceanobservations_mod</text>
</a>
</g>
</g>
<!-- oceanobservations_mod&#45;&gt;codeprecision_mod -->
<g id="edge25" class="edge">
<title>oceanobservations_mod&#45;&gt;codeprecision_mod</title>
<path fill="none" stroke="black" d="M1248.73,-69.62C1213.6,-59.12 1170.58,-46.25 1136.7,-36.11"/>
<ellipse fill="black" stroke="black" cx="1252.72" cy="-70.82" rx="4" ry="4"/>
</g>
<!-- ominusf_mod -->
<g id="node27" class="node">
<title>ominusf_mod</title>
<g id="a_node27"><a xlink:href="../modules/ominusf_mod_rev.svg" xlink:title="ominusf_mod">
<polygon fill="none" stroke="blue" points="1424,-180 1331,-180 1331,-144 1424,-144 1424,-180"/>
<text text-anchor="middle" x="1377.5" y="-158.3" font-family="Times,serif" font-size="14.00">ominusf_mod</text>
</a>
</g>
</g>
<!-- ominusf_mod&#45;&gt;codeprecision_mod -->
<g id="edge26" class="edge">
<title>ominusf_mod&#45;&gt;codeprecision_mod</title>
<path fill="none" stroke="black" d="M1392.26,-136.74C1402.09,-117.13 1410.67,-89.93 1395.5,-72 1363.52,-34.21 1223.24,-23.35 1140.72,-20.24"/>
<ellipse fill="black" stroke="black" cx="1390.36" cy="-140.32" rx="4" ry="4"/>
</g>
<!-- radvel_mod -->
<g id="node28" class="node">
<title>radvel_mod</title>
<g id="a_node28"><a xlink:href="../modules/radvel_mod_rev.svg" xlink:title="radvel_mod">
<polygon fill="none" stroke="blue" points="1462.5,-252 1382.5,-252 1382.5,-216 1462.5,-216 1462.5,-252"/>
<text text-anchor="middle" x="1422.5" y="-230.3" font-family="Times,serif" font-size="14.00">radvel_mod</text>
</a>
</g>
</g>
<!-- radvel_mod&#45;&gt;codeprecision_mod -->
<g id="edge27" class="edge">
<title>radvel_mod&#45;&gt;codeprecision_mod</title>
<path fill="none" stroke="black" d="M1430.62,-207.89C1440.51,-171.84 1451.67,-106.03 1414.5,-72 1375.47,-36.26 1226.09,-24.58 1140.57,-20.79"/>
<ellipse fill="black" stroke="black" cx="1429.4" cy="-212.11" rx="4" ry="4"/>
</g>
<!-- sqlitefiles_mod -->
<g id="node29" class="node">
<title>sqlitefiles_mod</title>
<g id="a_node29"><a xlink:href="../modules/sqlitefiles_mod_rev.svg" xlink:title="sqlitefiles_mod">
<polygon fill="none" stroke="blue" points="1500,-324 1401,-324 1401,-288 1500,-288 1500,-324"/>
<text text-anchor="middle" x="1450.5" y="-302.3" font-family="Times,serif" font-size="14.00">sqlitefiles_mod</text>
</a>
</g>
</g>
<!-- sqlitefiles_mod&#45;&gt;codeprecision_mod -->
<g id="edge28" class="edge">
<title>sqlitefiles_mod&#45;&gt;codeprecision_mod</title>
<path fill="none" stroke="black" d="M1462.55,-280.24C1466.18,-271.53 1469.68,-261.53 1471.5,-252 1483.39,-189.7 1442.1,-74.41 1439.5,-72 1397.23,-32.69 1231.85,-22.49 1140.67,-19.88"/>
<ellipse fill="black" stroke="black" cx="1460.82" cy="-284.17" rx="4" ry="4"/>
</g>
<!-- sqliteread_mod -->
<g id="node30" class="node">
<title>sqliteread_mod</title>
<g id="a_node30"><a xlink:href="../modules/sqliteread_mod_rev.svg" xlink:title="sqliteread_mod">
<polygon fill="none" stroke="blue" points="1538.5,-396 1438.5,-396 1438.5,-360 1538.5,-360 1538.5,-396"/>
<text text-anchor="middle" x="1488.5" y="-374.3" font-family="Times,serif" font-size="14.00">sqliteread_mod</text>
</a>
</g>
</g>
<!-- sqliteread_mod&#45;&gt;codeprecision_mod -->
<g id="edge29" class="edge">
<title>sqliteread_mod&#45;&gt;codeprecision_mod</title>
<path fill="none" stroke="black" d="M1499.93,-352.28C1511.75,-324.4 1528.5,-277.43 1528.5,-235 1528.5,-235 1528.5,-235 1528.5,-161 1528.5,-111.22 1503.49,-97.09 1460.5,-72 1407.51,-41.07 1234.3,-27.24 1140.75,-21.89"/>
<ellipse fill="black" stroke="black" cx="1498.19" cy="-356.28" rx="4" ry="4"/>
</g>
<!-- sstbias_mod -->
<g id="node31" class="node">
<title>sstbias_mod</title>
<g id="a_node31"><a xlink:href="../modules/sstbias_mod_rev.svg" xlink:title="sstbias_mod">
<polygon fill="none" stroke="blue" points="1576,-468 1493,-468 1493,-432 1576,-432 1576,-468"/>
<text text-anchor="middle" x="1534.5" y="-446.3" font-family="Times,serif" font-size="14.00">sstbias_mod</text>
</a>
</g>
</g>
<!-- sstbias_mod&#45;&gt;codeprecision_mod -->
<g id="edge30" class="edge">
<title>sstbias_mod&#45;&gt;codeprecision_mod</title>
<path fill="none" stroke="black" d="M1543.64,-424.06C1553.1,-396 1566.5,-348.86 1566.5,-307 1566.5,-307 1566.5,-307 1566.5,-161 1566.5,-111.75 1543.01,-96.85 1500.5,-72 1440.8,-37.1 1242.22,-24.88 1140.58,-20.85"/>
<ellipse fill="black" stroke="black" cx="1542.28" cy="-428.01" rx="4" ry="4"/>
</g>
<!-- statetocolumn_mod -->
<g id="node32" class="node">
<title>statetocolumn_mod</title>
<g id="a_node32"><a xlink:href="../modules/statetocolumn_mod_rev.svg" xlink:title="statetocolumn_mod">
<polygon fill="none" stroke="blue" points="1614.5,-540 1490.5,-540 1490.5,-504 1614.5,-504 1614.5,-540"/>
<text text-anchor="middle" x="1552.5" y="-518.3" font-family="Times,serif" font-size="14.00">statetocolumn_mod</text>
</a>
</g>
</g>
<!-- statetocolumn_mod&#45;&gt;codeprecision_mod -->
<g id="edge31" class="edge">
<title>statetocolumn_mod&#45;&gt;codeprecision_mod</title>
<path fill="none" stroke="black" d="M1569.46,-496.64C1574.91,-487.92 1580.55,-477.82 1584.5,-468 1599.62,-430.38 1604.5,-419.54 1604.5,-379 1604.5,-379 1604.5,-379 1604.5,-161 1604.5,-112.02 1581.83,-96.65 1539.5,-72 1473.16,-33.36 1249.75,-22.88 1140.58,-20.04"/>
<ellipse fill="black" stroke="black" cx="1567.14" cy="-500.24" rx="4" ry="4"/>
</g>
<!-- tovs_nl_mod -->
<g id="node33" class="node">
<title>tovs_nl_mod</title>
<g id="a_node33"><a xlink:href="../modules/tovs_nl_mod_rev.svg" xlink:title="tovs_nl_mod">
<polygon fill="none" stroke="blue" points="1686,-612 1599,-612 1599,-576 1686,-576 1686,-612"/>
<text text-anchor="middle" x="1642.5" y="-590.3" font-family="Times,serif" font-size="14.00">tovs_nl_mod</text>
</a>
</g>
</g>
<!-- tovs_nl_mod&#45;&gt;codeprecision_mod -->
<g id="edge32" class="edge">
<title>tovs_nl_mod&#45;&gt;codeprecision_mod</title>
<path fill="none" stroke="black" d="M1642.5,-567.78C1642.5,-539.39 1642.5,-491.89 1642.5,-451 1642.5,-451 1642.5,-451 1642.5,-161 1642.5,-112.28 1620.62,-96.49 1578.5,-72 1505.54,-29.58 1257.19,-21.01 1140.72,-19.35"/>
<ellipse fill="black" stroke="black" cx="1642.5" cy="-571.95" rx="4" ry="4"/>
</g>
<!-- var1d_mod -->
<g id="node34" class="node">
<title>var1d_mod</title>
<g id="a_node34"><a xlink:href="../modules/var1d_mod_rev.svg" xlink:title="var1d_mod">
<polygon fill="none" stroke="blue" points="1748,-108 1671,-108 1671,-72 1748,-72 1748,-108"/>
<text text-anchor="middle" x="1709.5" y="-86.3" font-family="Times,serif" font-size="14.00">var1d_mod</text>
</a>
</g>
</g>
<!-- var1d_mod&#45;&gt;codeprecision_mod -->
<g id="edge33" class="edge">
<title>var1d_mod&#45;&gt;codeprecision_mod</title>
<path fill="none" stroke="black" d="M1662.79,-73.41C1660.68,-72.9 1658.57,-72.42 1656.5,-72 1471.19,-34.24 1246.87,-23.36 1140.78,-20.24"/>
<ellipse fill="black" stroke="black" cx="1667.1" cy="-74.55" rx="4" ry="4"/>
</g>
<!-- midas_midas_adjointtest -->
<g id="node35" class="node">
<title>midas_midas_adjointtest</title>
<g id="a_node35"><a xlink:href="../programs/midas_adjointtest.html" xlink:title="midas_midas_adjointtest">
<polygon fill="gray" stroke="green" points="1822.5,-180 1670.5,-180 1670.5,-144 1822.5,-144 1822.5,-180"/>
<text text-anchor="middle" x="1746.5" y="-158.3" font-family="Times,serif" font-size="14.00">midas_midas_adjointtest</text>
</a>
</g>
</g>
<!-- midas_midas_adjointtest&#45;&gt;codeprecision_mod -->
<g id="edge34" class="edge">
<title>midas_midas_adjointtest&#45;&gt;codeprecision_mod</title>
<path fill="none" stroke="black" d="M1758.49,-136.35C1766.25,-116.44 1772.25,-89.03 1756.5,-72 1715.15,-27.29 1299.51,-20.23 1140.72,-19.16"/>
<ellipse fill="black" stroke="black" cx="1756.91" cy="-140.14" rx="4" ry="4"/>
</g>
<!-- midas_midas_diaghbht -->
<g id="node36" class="node">
<title>midas_midas_diaghbht</title>
<g id="a_node36"><a xlink:href="../programs/midas_diaghbht.html" xlink:title="midas_midas_diaghbht">
<polygon fill="gray" stroke="green" points="1860,-252 1717,-252 1717,-216 1860,-216 1860,-252"/>
<text text-anchor="middle" x="1788.5" y="-230.3" font-family="Times,serif" font-size="14.00">midas_midas_diaghbht</text>
</a>
</g>
</g>
<!-- midas_midas_diaghbht&#45;&gt;codeprecision_mod -->
<g id="edge35" class="edge">
<title>midas_midas_diaghbht&#45;&gt;codeprecision_mod</title>
<path fill="none" stroke="black" d="M1812.95,-209.91C1820.38,-201.31 1827.61,-190.96 1831.5,-180 1836.85,-164.92 1836.69,-159.13 1831.5,-144 1818.34,-105.65 1811.21,-91.18 1775.5,-72 1720.32,-42.36 1300.31,-26.03 1140.74,-20.84"/>
<ellipse fill="black" stroke="black" cx="1810.23" cy="-212.88" rx="4" ry="4"/>
</g>
<!-- midas_midas_gencoeff -->
<g id="node37" class="node">
<title>midas_midas_gencoeff</title>
<g id="a_node37"><a xlink:href="../programs/midas_gencoeff.html" xlink:title="midas_midas_gencoeff">
<polygon fill="gray" stroke="green" points="1898,-324 1755,-324 1755,-288 1898,-288 1898,-324"/>
<text text-anchor="middle" x="1826.5" y="-302.3" font-family="Times,serif" font-size="14.00">midas_midas_gencoeff</text>
</a>
</g>
</g>
<!-- midas_midas_gencoeff&#45;&gt;codeprecision_mod -->
<g id="edge36" class="edge">
<title>midas_midas_gencoeff&#45;&gt;codeprecision_mod</title>
<path fill="none" stroke="black" d="M1850.6,-281.57C1857.79,-273.01 1864.75,-262.78 1868.5,-252 1896.14,-172.62 1880.61,-118.36 1810.5,-72 1755.24,-35.46 1306.15,-23.3 1140.54,-20.03"/>
<ellipse fill="black" stroke="black" cx="1847.76" cy="-284.76" rx="4" ry="4"/>
</g>
<!-- midas_midas_obsimpact -->
<g id="node38" class="node">
<title>midas_midas_obsimpact</title>
<g id="a_node38"><a xlink:href="../programs/midas_obsimpact.html" xlink:title="midas_midas_obsimpact">
<polygon fill="gray" stroke="green" points="1936.5,-396 1784.5,-396 1784.5,-360 1936.5,-360 1936.5,-396"/>
<text text-anchor="middle" x="1860.5" y="-374.3" font-family="Times,serif" font-size="14.00">midas_midas_obsimpact</text>
</a>
</g>
</g>
<!-- midas_midas_obsimpact&#45;&gt;codeprecision_mod -->
<g id="edge37" class="edge">
<title>midas_midas_obsimpact&#45;&gt;codeprecision_mod</title>
<path fill="none" stroke="black" d="M1885.24,-353.58C1893.08,-344.96 1901.11,-334.68 1906.5,-324 1924.79,-287.82 1926.5,-275.54 1926.5,-235 1926.5,-235 1926.5,-235 1926.5,-161 1926.5,-107.52 1893.64,-95.3 1845.5,-72 1782.73,-41.62 1310.8,-25.49 1140.53,-20.62"/>
<ellipse fill="black" stroke="black" cx="1882.35" cy="-356.64" rx="4" ry="4"/>
</g>
<!-- midas_midas_obsselection -->
<g id="node39" class="node">
<title>midas_midas_obsselection</title>
<g id="a_node39"><a xlink:href="../programs/midas_obsselection.html" xlink:title="midas_midas_obsselection">
<polygon fill="gray" stroke="green" points="2010,-468 1847,-468 1847,-432 2010,-432 2010,-468"/>
<text text-anchor="middle" x="1928.5" y="-446.3" font-family="Times,serif" font-size="14.00">midas_midas_obsselection</text>
</a>
</g>
</g>
<!-- midas_midas_obsselection&#45;&gt;codeprecision_mod -->
<g id="edge38" class="edge">
<title>midas_midas_obsselection&#45;&gt;codeprecision_mod</title>
<path fill="none" stroke="black" d="M1938.79,-424.16C1949.43,-396.19 1964.5,-349.13 1964.5,-307 1964.5,-307 1964.5,-307 1964.5,-161 1964.5,-109.56 1936.34,-95.35 1890.5,-72 1824.3,-38.27 1318.05,-24.17 1140.66,-20.23"/>
<ellipse fill="black" stroke="black" cx="1937.24" cy="-428.14" rx="4" ry="4"/>
</g>
<!-- midas_midas_var1d -->
<g id="node40" class="node">
<title>midas_midas_var1d</title>
<g id="a_node40"><a xlink:href="../programs/midas_var1d.html" xlink:title="midas_midas_var1d">
<polygon fill="gray" stroke="green" points="2101.5,-540 1975.5,-540 1975.5,-504 2101.5,-504 2101.5,-540"/>
<text text-anchor="middle" x="2038.5" y="-518.3" font-family="Times,serif" font-size="14.00">midas_midas_var1d</text>
</a>
</g>
</g>
<!-- midas_midas_var1d&#45;&gt;codeprecision_mod -->
<g id="edge39" class="edge">
<title>midas_midas_var1d&#45;&gt;codeprecision_mod</title>
<path fill="none" stroke="black" d="M2038.5,-495.78C2038.5,-467.39 2038.5,-419.89 2038.5,-379 2038.5,-379 2038.5,-379 2038.5,-161 2038.5,-99.48 1989.62,-94.83 1932.5,-72 1859.56,-42.85 1323.68,-25.66 1140.61,-20.59"/>
<ellipse fill="black" stroke="black" cx="2038.5" cy="-499.95" rx="4" ry="4"/>
</g>
<!-- midas_midas_var -->
<g id="node41" class="node">
<title>midas_midas_var</title>
<g id="a_node41"><a xlink:href="../programs/midas_var.html" xlink:title="midas_midas_var">
<polygon fill="gray" stroke="green" points="2186,-612 2073,-612 2073,-576 2186,-576 2186,-612"/>
<text text-anchor="middle" x="2129.5" y="-590.3" font-family="Times,serif" font-size="14.00">midas_midas_var</text>
</a>
</g>
</g>
<!-- midas_midas_var&#45;&gt;codeprecision_mod -->
<g id="edge40" class="edge">
<title>midas_midas_var&#45;&gt;codeprecision_mod</title>
<path fill="none" stroke="black" d="M2129.5,-567.78C2129.5,-539.39 2129.5,-491.89 2129.5,-451 2129.5,-451 2129.5,-451 2129.5,-161 2129.5,-86.52 2058.45,-94.66 1987.5,-72 1829.27,-21.48 1317.91,-18.2 1140.67,-18.64"/>
<ellipse fill="black" stroke="black" cx="2129.5" cy="-571.95" rx="4" ry="4"/>
</g>
</g>
</svg>
