<?xml version="1.0" encoding="UTF-8" standalone="no"?>
<!DOCTYPE svg PUBLIC "-//W3C//DTD SVG 1.1//EN"
 "http://www.w3.org/Graphics/SVG/1.1/DTD/svg11.dtd">
<!-- Generated by graphviz version 3.0.0 (20220315.2325)
 -->
<!-- Title: codtyp_mod Pages: 1 -->
<svg width="1454pt" height="673pt"
 viewBox="0.00 0.00 1454.00 673.00" xmlns="http://www.w3.org/2000/svg" xmlns:xlink="http://www.w3.org/1999/xlink">
<g id="graph0" class="graph" transform="scale(1 1) rotate(0) translate(4 669)">
<title>codtyp_mod</title>
<polygon fill="white" stroke="transparent" points="-4,4 -4,-669 1450,-669 1450,4 -4,4"/>
<text text-anchor="middle" x="723" y="-649.8" font-family="Times,serif" font-size="14.00">Blue boxes indicate modules with reverse dependencies not shown</text>
<text text-anchor="middle" x="723" y="-634.8" font-family="Times,serif" font-size="14.00">Higher level reverse dependencies can be shown by clicking on a blue box</text>
<text text-anchor="middle" x="723" y="-619.8" font-family="Times,serif" font-size="14.00">Green boxes are programs</text>
<!-- codtyp_mod -->
<g id="node1" class="node">
<title>codtyp_mod</title>
<g id="a_node1"><a xlink:href="codtyp_mod.html" xlink:title="codtyp_mod">
<polygon fill="none" stroke="black" points="760.5,-36 676.5,-36 676.5,0 760.5,0 760.5,-36"/>
<text text-anchor="middle" x="718.5" y="-14.3" font-family="Times,serif" font-size="14.00">codtyp_mod</text>
</a>
</g>
</g>
<!-- backgroundcheck_mod -->
<g id="node2" class="node">
<title>backgroundcheck_mod</title>
<g id="a_node2"><a xlink:href="../modules/backgroundcheck_mod_rev.svg" xlink:title="backgroundcheck_mod">
<polygon fill="none" stroke="blue" points="143,-108 0,-108 0,-72 143,-72 143,-108"/>
<text text-anchor="middle" x="71.5" y="-86.3" font-family="Times,serif" font-size="14.00">backgroundcheck_mod</text>
</a>
</g>
</g>
<!-- backgroundcheck_mod&#45;&gt;codtyp_mod -->
<g id="edge1" class="edge">
<title>backgroundcheck_mod&#45;&gt;codtyp_mod</title>
<path fill="none" stroke="black" d="M151.31,-72.94C153.39,-72.61 155.46,-72.3 157.5,-72 350.39,-43.9 582.86,-27.43 676.45,-21.52"/>
<ellipse fill="black" stroke="black" cx="147.15" cy="-73.62" rx="4" ry="4"/>
</g>
<!-- bgckmicrowave_mod -->
<g id="node3" class="node">
<title>bgckmicrowave_mod</title>
<g id="a_node3"><a xlink:href="../modules/bgckmicrowave_mod_rev.svg" xlink:title="bgckmicrowave_mod">
<polygon fill="none" stroke="blue" points="209.5,-180 75.5,-180 75.5,-144 209.5,-144 209.5,-180"/>
<text text-anchor="middle" x="142.5" y="-158.3" font-family="Times,serif" font-size="14.00">bgckmicrowave_mod</text>
</a>
</g>
</g>
<!-- bgckmicrowave_mod&#45;&gt;codtyp_mod -->
<g id="edge2" class="edge">
<title>bgckmicrowave_mod&#45;&gt;codtyp_mod</title>
<path fill="none" stroke="black" d="M157.02,-137.02C171.16,-116.01 194.71,-86.61 223.5,-72 302.41,-31.96 571.74,-22.07 676.41,-19.71"/>
<ellipse fill="black" stroke="black" cx="154.78" cy="-140.45" rx="4" ry="4"/>
</g>
<!-- bgckocean_mod -->
<g id="node4" class="node">
<title>bgckocean_mod</title>
<g id="a_node4"><a xlink:href="../modules/bgckocean_mod_rev.svg" xlink:title="bgckocean_mod">
<polygon fill="none" stroke="blue" points="247,-252 142,-252 142,-216 247,-216 247,-252"/>
<text text-anchor="middle" x="194.5" y="-230.3" font-family="Times,serif" font-size="14.00">bgckocean_mod</text>
</a>
</g>
</g>
<!-- bgckocean_mod&#45;&gt;codtyp_mod -->
<g id="edge3" class="edge">
<title>bgckocean_mod&#45;&gt;codtyp_mod</title>
<path fill="none" stroke="black" d="M205.91,-208.44C209.97,-199.53 214.53,-189.35 218.5,-180 238.72,-132.46 220.49,-103.42 261.5,-72 325.94,-22.64 576.12,-18.25 676.49,-18.54"/>
<ellipse fill="black" stroke="black" cx="204.15" cy="-212.27" rx="4" ry="4"/>
</g>
<!-- biascorrectionconv_mod -->
<g id="node5" class="node">
<title>biascorrectionconv_mod</title>
<g id="a_node5"><a xlink:href="../modules/biascorrectionconv_mod_rev.svg" xlink:title="biascorrectionconv_mod">
<polygon fill="none" stroke="blue" points="285.5,-324 135.5,-324 135.5,-288 285.5,-288 285.5,-324"/>
<text text-anchor="middle" x="210.5" y="-302.3" font-family="Times,serif" font-size="14.00">biascorrectionconv_mod</text>
</a>
</g>
</g>
<!-- biascorrectionconv_mod&#45;&gt;codtyp_mod -->
<g id="edge4" class="edge">
<title>biascorrectionconv_mod&#45;&gt;codtyp_mod</title>
<path fill="none" stroke="black" d="M234.2,-281.86C241.98,-273.15 250.03,-262.73 255.5,-252 292.93,-178.64 238.05,-126.82 299.5,-72 354.49,-22.94 581.43,-18.25 676.4,-18.5"/>
<ellipse fill="black" stroke="black" cx="231.34" cy="-284.96" rx="4" ry="4"/>
</g>
<!-- biascorrectionsat_mod -->
<g id="node6" class="node">
<title>biascorrectionsat_mod</title>
<g id="a_node6"><a xlink:href="../modules/biascorrectionsat_mod_rev.svg" xlink:title="biascorrectionsat_mod">
<polygon fill="none" stroke="blue" points="323,-396 184,-396 184,-360 323,-360 323,-396"/>
<text text-anchor="middle" x="253.5" y="-374.3" font-family="Times,serif" font-size="14.00">biascorrectionsat_mod</text>
</a>
</g>
</g>
<!-- biascorrectionsat_mod&#45;&gt;codtyp_mod -->
<g id="edge5" class="edge">
<title>biascorrectionsat_mod&#45;&gt;codtyp_mod</title>
<path fill="none" stroke="black" d="M275.42,-353.39C282.45,-344.7 289.66,-334.43 294.5,-324 311.52,-287.31 313.5,-275.45 313.5,-235 313.5,-235 313.5,-235 313.5,-161 313.5,-120.03 306.78,-99.1 337.5,-72 387.08,-28.27 587.88,-20.48 676.33,-19.19"/>
<ellipse fill="black" stroke="black" cx="272.69" cy="-356.63" rx="4" ry="4"/>
</g>
<!-- burpread_mod -->
<g id="node7" class="node">
<title>burpread_mod</title>
<g id="a_node7"><a xlink:href="../modules/burpread_mod_rev.svg" xlink:title="burpread_mod">
<polygon fill="none" stroke="blue" points="361,-468 266,-468 266,-432 361,-432 361,-468"/>
<text text-anchor="middle" x="313.5" y="-446.3" font-family="Times,serif" font-size="14.00">burpread_mod</text>
</a>
</g>
</g>
<!-- burpread_mod&#45;&gt;codtyp_mod -->
<g id="edge6" class="edge">
<title>burpread_mod&#45;&gt;codtyp_mod</title>
<path fill="none" stroke="black" d="M324.36,-424.22C335.59,-396.29 351.5,-349.27 351.5,-307 351.5,-307 351.5,-307 351.5,-161 351.5,-120.03 344.98,-99.33 375.5,-72 419.21,-32.86 594.92,-22.6 676.5,-19.93"/>
<ellipse fill="black" stroke="black" cx="322.71" cy="-428.21" rx="4" ry="4"/>
</g>
<!-- costfunction_mod -->
<g id="node8" class="node">
<title>costfunction_mod</title>
<g id="a_node8"><a xlink:href="../modules/costfunction_mod_rev.svg" xlink:title="costfunction_mod">
<polygon fill="none" stroke="blue" points="399.5,-540 285.5,-540 285.5,-504 399.5,-504 399.5,-540"/>
<text text-anchor="middle" x="342.5" y="-518.3" font-family="Times,serif" font-size="14.00">costfunction_mod</text>
</a>
</g>
</g>
<!-- costfunction_mod&#45;&gt;codtyp_mod -->
<g id="edge7" class="edge">
<title>costfunction_mod&#45;&gt;codtyp_mod</title>
<path fill="none" stroke="black" d="M357.07,-496.84C361.9,-488.01 366.95,-477.78 370.5,-468 384.3,-429.98 389.5,-419.45 389.5,-379 389.5,-379 389.5,-379 389.5,-161 389.5,-120.03 383.24,-99.62 413.5,-72 451.31,-37.49 601.74,-24.99 676.24,-20.86"/>
<ellipse fill="black" stroke="black" cx="355.06" cy="-500.41" rx="4" ry="4"/>
</g>
<!-- enkf_mod -->
<g id="node9" class="node">
<title>enkf_mod</title>
<g id="a_node9"><a xlink:href="../modules/enkf_mod_rev.svg" xlink:title="enkf_mod">
<polygon fill="none" stroke="blue" points="464,-612 391,-612 391,-576 464,-576 464,-612"/>
<text text-anchor="middle" x="427.5" y="-590.3" font-family="Times,serif" font-size="14.00">enkf_mod</text>
</a>
</g>
</g>
<!-- enkf_mod&#45;&gt;codtyp_mod -->
<g id="edge8" class="edge">
<title>enkf_mod&#45;&gt;codtyp_mod</title>
<path fill="none" stroke="black" d="M427.5,-567.78C427.5,-539.39 427.5,-491.89 427.5,-451 427.5,-451 427.5,-451 427.5,-161 427.5,-120.55 417.65,-100.34 446.5,-72 478.51,-40.56 608.24,-26.8 676.32,-21.65"/>
<ellipse fill="black" stroke="black" cx="427.5" cy="-571.95" rx="4" ry="4"/>
</g>
<!-- obsdbfiles_mod -->
<g id="node10" class="node">
<title>obsdbfiles_mod</title>
<g id="a_node10"><a xlink:href="../modules/obsdbfiles_mod_rev.svg" xlink:title="obsdbfiles_mod">
<polygon fill="none" stroke="blue" points="557.5,-108 455.5,-108 455.5,-72 557.5,-72 557.5,-108"/>
<text text-anchor="middle" x="506.5" y="-86.3" font-family="Times,serif" font-size="14.00">obsdbfiles_mod</text>
</a>
</g>
</g>
<!-- obsdbfiles_mod&#45;&gt;codtyp_mod -->
<g id="edge9" class="edge">
<title>obsdbfiles_mod&#45;&gt;codtyp_mod</title>
<path fill="none" stroke="black" d="M565.39,-69.55C600.66,-57.91 644.67,-43.38 676.44,-32.89"/>
<ellipse fill="black" stroke="black" cx="561.35" cy="-70.89" rx="4" ry="4"/>
</g>
<!-- obsdiagfiles_mod -->
<g id="node11" class="node">
<title>obsdiagfiles_mod</title>
<g id="a_node11"><a xlink:href="../modules/obsdiagfiles_mod_rev.svg" xlink:title="obsdiagfiles_mod">
<polygon fill="none" stroke="blue" points="595.5,-180 483.5,-180 483.5,-144 595.5,-144 595.5,-180"/>
<text text-anchor="middle" x="539.5" y="-158.3" font-family="Times,serif" font-size="14.00">obsdiagfiles_mod</text>
</a>
</g>
</g>
<!-- obsdiagfiles_mod&#45;&gt;codtyp_mod -->
<g id="edge10" class="edge">
<title>obsdiagfiles_mod&#45;&gt;codtyp_mod</title>
<path fill="none" stroke="black" d="M554.08,-136.88C566.8,-117.42 586.74,-90.35 609.5,-72 629.4,-55.95 654.97,-43.2 676.34,-34.23"/>
<ellipse fill="black" stroke="black" cx="551.89" cy="-140.31" rx="4" ry="4"/>
</g>
<!-- obserrors_mod -->
<g id="node12" class="node">
<title>obserrors_mod</title>
<g id="a_node12"><a xlink:href="../modules/obserrors_mod_rev.svg" xlink:title="obserrors_mod">
<polygon fill="none" stroke="blue" points="633.5,-252 535.5,-252 535.5,-216 633.5,-216 633.5,-252"/>
<text text-anchor="middle" x="584.5" y="-230.3" font-family="Times,serif" font-size="14.00">obserrors_mod</text>
</a>
</g>
</g>
<!-- obserrors_mod&#45;&gt;codtyp_mod -->
<g id="edge11" class="edge">
<title>obserrors_mod&#45;&gt;codtyp_mod</title>
<path fill="none" stroke="black" d="M593.94,-208.36C610.98,-163.97 645.32,-74.86 647.5,-72 658.5,-57.56 674.45,-45.18 688.44,-36.01"/>
<ellipse fill="black" stroke="black" cx="592.5" cy="-212.11" rx="4" ry="4"/>
</g>
<!-- obsfilter_mod -->
<g id="node13" class="node">
<title>obsfilter_mod</title>
<g id="a_node13"><a xlink:href="../modules/obsfilter_mod_rev.svg" xlink:title="obsfilter_mod">
<polygon fill="none" stroke="blue" points="671.5,-324 579.5,-324 579.5,-288 671.5,-288 671.5,-324"/>
<text text-anchor="middle" x="625.5" y="-302.3" font-family="Times,serif" font-size="14.00">obsfilter_mod</text>
</a>
</g>
</g>
<!-- obsfilter_mod&#45;&gt;codtyp_mod -->
<g id="edge12" class="edge">
<title>obsfilter_mod&#45;&gt;codtyp_mod</title>
<path fill="none" stroke="black" d="M633.89,-280.19C636.77,-271.33 639.91,-261.26 642.5,-252 664.63,-172.78 653.8,-147.9 685.5,-72 690.76,-59.4 698.84,-46.36 705.69,-36.37"/>
<ellipse fill="black" stroke="black" cx="632.6" cy="-284.11" rx="4" ry="4"/>
</g>
<!-- obsoperatorschem_mod -->
<g id="node14" class="node">
<title>obsoperatorschem_mod</title>
<g id="a_node14"><a xlink:href="../modules/obsoperatorschem_mod_rev.svg" xlink:title="obsoperatorschem_mod">
<polygon fill="none" stroke="blue" points="709.5,-396 563.5,-396 563.5,-360 709.5,-360 709.5,-396"/>
<text text-anchor="middle" x="636.5" y="-374.3" font-family="Times,serif" font-size="14.00">obsoperatorschem_mod</text>
</a>
</g>
</g>
<!-- obsoperatorschem_mod&#45;&gt;codtyp_mod -->
<g id="edge13" class="edge">
<title>obsoperatorschem_mod&#45;&gt;codtyp_mod</title>
<path fill="none" stroke="black" d="M659.84,-353.87C667.46,-345.16 675.29,-334.74 680.5,-324 698.15,-287.61 699.5,-275.45 699.5,-235 699.5,-235 699.5,-235 699.5,-161 699.5,-115.73 709.1,-63.06 714.66,-36.39"/>
<ellipse fill="black" stroke="black" cx="657.06" cy="-356.94" rx="4" ry="4"/>
</g>
<!-- obsspacediag_mod -->
<g id="node15" class="node">
<title>obsspacediag_mod</title>
<g id="a_node15"><a xlink:href="../modules/obsspacediag_mod_rev.svg" xlink:title="obsspacediag_mod">
<polygon fill="none" stroke="blue" points="747,-468 628,-468 628,-432 747,-432 747,-468"/>
<text text-anchor="middle" x="687.5" y="-446.3" font-family="Times,serif" font-size="14.00">obsspacediag_mod</text>
</a>
</g>
</g>
<!-- obsspacediag_mod&#45;&gt;codtyp_mod -->
<g id="edge14" class="edge">
<title>obsspacediag_mod&#45;&gt;codtyp_mod</title>
<path fill="none" stroke="black" d="M703.96,-424.6C709.25,-415.88 714.71,-405.78 718.5,-396 733.12,-358.29 737.5,-347.45 737.5,-307 737.5,-307 737.5,-307 737.5,-161 737.5,-115.73 727.9,-63.06 722.34,-36.39"/>
<ellipse fill="black" stroke="black" cx="701.73" cy="-428.18" rx="4" ry="4"/>
</g>
<!-- obsspaceerrorstddev_mod -->
<g id="node16" class="node">
<title>obsspaceerrorstddev_mod</title>
<g id="a_node16"><a xlink:href="../modules/obsspaceerrorstddev_mod_rev.svg" xlink:title="obsspaceerrorstddev_mod">
<polygon fill="none" stroke="blue" points="785,-540 628,-540 628,-504 785,-504 785,-540"/>
<text text-anchor="middle" x="706.5" y="-518.3" font-family="Times,serif" font-size="14.00">obsspaceerrorstddev_mod</text>
</a>
</g>
</g>
<!-- obsspaceerrorstddev_mod&#45;&gt;codtyp_mod -->
<g id="edge15" class="edge">
<title>obsspaceerrorstddev_mod&#45;&gt;codtyp_mod</title>
<path fill="none" stroke="black" d="M733.25,-498.19C741.86,-489.55 750.67,-479.1 756.5,-468 775.3,-432.19 775.5,-419.45 775.5,-379 775.5,-379 775.5,-379 775.5,-161 775.5,-112.92 747.01,-61.84 730.31,-36.04"/>
<ellipse fill="black" stroke="black" cx="730.24" cy="-501.09" rx="4" ry="4"/>
</g>
<!-- obsutil_mod -->
<g id="node17" class="node">
<title>obsutil_mod</title>
<g id="a_node17"><a xlink:href="../modules/obsutil_mod_rev.svg" xlink:title="obsutil_mod">
<polygon fill="none" stroke="blue" points="855,-612 772,-612 772,-576 855,-576 855,-612"/>
<text text-anchor="middle" x="813.5" y="-590.3" font-family="Times,serif" font-size="14.00">obsutil_mod</text>
</a>
</g>
</g>
<!-- obsutil_mod&#45;&gt;codtyp_mod -->
<g id="edge16" class="edge">
<title>obsutil_mod&#45;&gt;codtyp_mod</title>
<path fill="none" stroke="black" d="M813.5,-567.78C813.5,-539.39 813.5,-491.89 813.5,-451 813.5,-451 813.5,-451 813.5,-161 813.5,-108.5 768.09,-60.72 740.06,-36.22"/>
<ellipse fill="black" stroke="black" cx="813.5" cy="-571.95" rx="4" ry="4"/>
</g>
<!-- obsvariabletransforms_mod -->
<g id="node18" class="node">
<title>obsvariabletransforms_mod</title>
<g id="a_node18"><a xlink:href="../modules/obsvariabletransforms_mod_rev.svg" xlink:title="obsvariabletransforms_mod">
<polygon fill="none" stroke="blue" points="1007.5,-108 841.5,-108 841.5,-72 1007.5,-72 1007.5,-108"/>
<text text-anchor="middle" x="924.5" y="-86.3" font-family="Times,serif" font-size="14.00">obsvariabletransforms_mod</text>
</a>
</g>
</g>
<!-- obsvariabletransforms_mod&#45;&gt;codtyp_mod -->
<g id="edge17" class="edge">
<title>obsvariabletransforms_mod&#45;&gt;codtyp_mod</title>
<path fill="none" stroke="black" d="M866.43,-69.27C832.72,-57.81 791.03,-43.64 760.5,-33.27"/>
<ellipse fill="black" stroke="black" cx="870.58" cy="-70.68" rx="4" ry="4"/>
</g>
<!-- oceanbackground_mod -->
<g id="node19" class="node">
<title>oceanbackground_mod</title>
<g id="a_node19"><a xlink:href="../modules/oceanbackground_mod_rev.svg" xlink:title="oceanbackground_mod">
<polygon fill="none" stroke="blue" points="1045,-180 902,-180 902,-144 1045,-144 1045,-180"/>
<text text-anchor="middle" x="973.5" y="-158.3" font-family="Times,serif" font-size="14.00">oceanbackground_mod</text>
</a>
</g>
</g>
<!-- oceanbackground_mod&#45;&gt;codtyp_mod -->
<g id="edge18" class="edge">
<title>oceanbackground_mod&#45;&gt;codtyp_mod</title>
<path fill="none" stroke="black" d="M998.31,-137.68C1015.63,-118.58 1032.94,-91.62 1016.5,-72 984.36,-33.63 835.04,-23.02 760.73,-20.1"/>
<ellipse fill="black" stroke="black" cx="995.24" cy="-140.93" rx="4" ry="4"/>
</g>
<!-- oceanobservations_mod -->
<g id="node20" class="node">
<title>oceanobservations_mod</title>
<g id="a_node20"><a xlink:href="../modules/oceanobservations_mod_rev.svg" xlink:title="oceanobservations_mod">
<polygon fill="none" stroke="blue" points="1083.5,-252 937.5,-252 937.5,-216 1083.5,-216 1083.5,-252"/>
<text text-anchor="middle" x="1010.5" y="-230.3" font-family="Times,serif" font-size="14.00">oceanobservations_mod</text>
</a>
</g>
</g>
<!-- oceanobservations_mod&#45;&gt;codtyp_mod -->
<g id="edge19" class="edge">
<title>oceanobservations_mod&#45;&gt;codtyp_mod</title>
<path fill="none" stroke="black" d="M1035.51,-210C1043.11,-201.41 1050.51,-191.04 1054.5,-180 1071.1,-134.01 1070.04,-104.49 1033.5,-72 993.77,-36.67 836.83,-24.53 760.56,-20.66"/>
<ellipse fill="black" stroke="black" cx="1032.7" cy="-212.99" rx="4" ry="4"/>
</g>
<!-- slantprofilelatlon_mod -->
<g id="node21" class="node">
<title>slantprofilelatlon_mod</title>
<g id="a_node21"><a xlink:href="../modules/slantprofilelatlon_mod_rev.svg" xlink:title="slantprofilelatlon_mod">
<polygon fill="none" stroke="blue" points="1121.5,-324 983.5,-324 983.5,-288 1121.5,-288 1121.5,-324"/>
<text text-anchor="middle" x="1052.5" y="-302.3" font-family="Times,serif" font-size="14.00">slantprofilelatlon_mod</text>
</a>
</g>
</g>
<!-- slantprofilelatlon_mod&#45;&gt;codtyp_mod -->
<g id="edge20" class="edge">
<title>slantprofilelatlon_mod&#45;&gt;codtyp_mod</title>
<path fill="none" stroke="black" d="M1075.47,-281.39C1082.32,-272.83 1088.94,-262.63 1092.5,-252 1111.23,-196.1 1091.09,-100.67 1060.5,-72 1017.81,-31.99 842.15,-22.18 760.53,-19.78"/>
<ellipse fill="black" stroke="black" cx="1072.81" cy="-284.54" rx="4" ry="4"/>
</g>
<!-- sqliteread_mod -->
<g id="node22" class="node">
<title>sqliteread_mod</title>
<g id="a_node22"><a xlink:href="../modules/sqliteread_mod_rev.svg" xlink:title="sqliteread_mod">
<polygon fill="none" stroke="blue" points="1159.5,-396 1059.5,-396 1059.5,-360 1159.5,-360 1159.5,-396"/>
<text text-anchor="middle" x="1109.5" y="-374.3" font-family="Times,serif" font-size="14.00">sqliteread_mod</text>
</a>
</g>
</g>
<!-- sqliteread_mod&#45;&gt;codtyp_mod -->
<g id="edge21" class="edge">
<title>sqliteread_mod&#45;&gt;codtyp_mod</title>
<path fill="none" stroke="black" d="M1120.93,-352.28C1132.75,-324.4 1149.5,-277.43 1149.5,-235 1149.5,-235 1149.5,-235 1149.5,-161 1149.5,-112.02 1126.46,-97.26 1084.5,-72 1030.59,-39.55 844.69,-25.72 760.51,-21.02"/>
<ellipse fill="black" stroke="black" cx="1119.19" cy="-356.28" rx="4" ry="4"/>
</g>
<!-- sstbias_mod -->
<g id="node23" class="node">
<title>sstbias_mod</title>
<g id="a_node23"><a xlink:href="../modules/sstbias_mod_rev.svg" xlink:title="sstbias_mod">
<polygon fill="none" stroke="blue" points="1197,-468 1114,-468 1114,-432 1197,-432 1197,-468"/>
<text text-anchor="middle" x="1155.5" y="-446.3" font-family="Times,serif" font-size="14.00">sstbias_mod</text>
</a>
</g>
</g>
<!-- sstbias_mod&#45;&gt;codtyp_mod -->
<g id="edge22" class="edge">
<title>sstbias_mod&#45;&gt;codtyp_mod</title>
<path fill="none" stroke="black" d="M1164.64,-424.06C1174.1,-396 1187.5,-348.86 1187.5,-307 1187.5,-307 1187.5,-307 1187.5,-161 1187.5,-112.02 1164.63,-96.98 1122.5,-72 1061.96,-36.1 851.42,-23.99 760.66,-20.37"/>
<ellipse fill="black" stroke="black" cx="1163.28" cy="-428.01" rx="4" ry="4"/>
</g>
<!-- statetocolumn_mod -->
<g id="node24" class="node">
<title>statetocolumn_mod</title>
<g id="a_node24"><a xlink:href="../modules/statetocolumn_mod_rev.svg" xlink:title="statetocolumn_mod">
<polygon fill="none" stroke="blue" points="1235.5,-540 1111.5,-540 1111.5,-504 1235.5,-504 1235.5,-540"/>
<text text-anchor="middle" x="1173.5" y="-518.3" font-family="Times,serif" font-size="14.00">statetocolumn_mod</text>
</a>
</g>
</g>
<!-- statetocolumn_mod&#45;&gt;codtyp_mod -->
<g id="edge23" class="edge">
<title>statetocolumn_mod&#45;&gt;codtyp_mod</title>
<path fill="none" stroke="black" d="M1190.91,-496.99C1196.59,-488.22 1202.47,-477.99 1206.5,-468 1221.64,-430.49 1225.5,-419.45 1225.5,-379 1225.5,-379 1225.5,-379 1225.5,-161 1225.5,-112.02 1202.77,-96.75 1160.5,-72 1093.22,-32.61 857.47,-22.39 760.57,-19.82"/>
<ellipse fill="black" stroke="black" cx="1188.66" cy="-500.35" rx="4" ry="4"/>
</g>
<!-- thinning_mod -->
<g id="node25" class="node">
<title>thinning_mod</title>
<g id="a_node25"><a xlink:href="../modules/thinning_mod_rev.svg" xlink:title="thinning_mod">
<polygon fill="none" stroke="blue" points="1309.5,-612 1217.5,-612 1217.5,-576 1309.5,-576 1309.5,-612"/>
<text text-anchor="middle" x="1263.5" y="-590.3" font-family="Times,serif" font-size="14.00">thinning_mod</text>
</a>
</g>
</g>
<!-- thinning_mod&#45;&gt;codtyp_mod -->
<g id="edge24" class="edge">
<title>thinning_mod&#45;&gt;codtyp_mod</title>
<path fill="none" stroke="black" d="M1263.5,-567.78C1263.5,-539.39 1263.5,-491.89 1263.5,-451 1263.5,-451 1263.5,-451 1263.5,-161 1263.5,-112.02 1240.89,-96.55 1198.5,-72 1124.5,-29.14 863.63,-20.93 760.71,-19.37"/>
<ellipse fill="black" stroke="black" cx="1263.5" cy="-571.95" rx="4" ry="4"/>
</g>
<!-- tovs_nl_mod -->
<g id="node26" class="node">
<title>tovs_nl_mod</title>
<g id="a_node26"><a xlink:href="../modules/tovs_nl_mod_rev.svg" xlink:title="tovs_nl_mod">
<polygon fill="none" stroke="blue" points="1379,-108 1292,-108 1292,-72 1379,-72 1379,-108"/>
<text text-anchor="middle" x="1335.5" y="-86.3" font-family="Times,serif" font-size="14.00">tovs_nl_mod</text>
</a>
</g>
</g>
<!-- tovs_nl_mod&#45;&gt;codtyp_mod -->
<g id="edge25" class="edge">
<title>tovs_nl_mod&#45;&gt;codtyp_mod</title>
<path fill="none" stroke="black" d="M1283.66,-73.28C1281.59,-72.82 1279.53,-72.39 1277.5,-72 1086.75,-35.35 854.3,-23.64 760.61,-20.26"/>
<ellipse fill="black" stroke="black" cx="1287.81" cy="-74.28" rx="4" ry="4"/>
</g>
<!-- varqc_mod -->
<g id="node27" class="node">
<title>varqc_mod</title>
<g id="a_node27"><a xlink:href="../modules/varqc_mod_rev.svg" xlink:title="varqc_mod">
<polygon fill="none" stroke="blue" points="1446,-180 1369,-180 1369,-144 1446,-144 1446,-180"/>
<text text-anchor="middle" x="1407.5" y="-158.3" font-family="Times,serif" font-size="14.00">varqc_mod</text>
</a>
</g>
</g>
<!-- varqc_mod&#45;&gt;codtyp_mod -->
<g id="edge26" class="edge">
<title>varqc_mod&#45;&gt;codtyp_mod</title>
<path fill="none" stroke="black" d="M1409.59,-135.74C1409.76,-115.35 1406.28,-87.58 1388.5,-72 1341.34,-30.66 900.82,-21.38 760.92,-19.46"/>
<ellipse fill="black" stroke="black" cx="1409.46" cy="-139.97" rx="4" ry="4"/>
</g>
</g>
</svg>
