<?xml version="1.0" encoding="UTF-8" standalone="no"?>
<!DOCTYPE svg PUBLIC "-//W3C//DTD SVG 1.1//EN"
 "http://www.w3.org/Graphics/SVG/1.1/DTD/svg11.dtd">
<!-- Generated by graphviz version 3.0.0 (20220315.2325)
 -->
<!-- Title: columnvariabletransforms_mod Pages: 1 -->
<svg width="430pt" height="313pt"
 viewBox="0.00 0.00 430.00 313.00" xmlns="http://www.w3.org/2000/svg" xmlns:xlink="http://www.w3.org/1999/xlink">
<g id="graph0" class="graph" transform="scale(1 1) rotate(0) translate(4 309)">
<title>columnvariabletransforms_mod</title>
<polygon fill="white" stroke="transparent" points="-4,4 -4,-309 426,-309 426,4 -4,4"/>
<text text-anchor="middle" x="211" y="-289.8" font-family="Times,serif" font-size="14.00">Blue boxes indicate modules with reverse dependencies not shown</text>
<text text-anchor="middle" x="211" y="-274.8" font-family="Times,serif" font-size="14.00">Higher level reverse dependencies can be shown by clicking on a blue box</text>
<text text-anchor="middle" x="211" y="-259.8" font-family="Times,serif" font-size="14.00">Green boxes are programs</text>
<!-- columnvariabletransforms_mod -->
<g id="node1" class="node">
<title>columnvariabletransforms_mod</title>
<g id="a_node1"><a xlink:href="columnvariabletransforms_mod.html" xlink:title="columnvariabletransforms_mod">
<polygon fill="none" stroke="black" points="309,-36 120,-36 120,0 309,0 309,-36"/>
<text text-anchor="middle" x="214.5" y="-14.3" font-family="Times,serif" font-size="14.00">columnvariabletransforms_mod</text>
</a>
</g>
</g>
<!-- bmatrix1dvar_mod -->
<g id="node2" class="node">
<title>bmatrix1dvar_mod</title>
<g id="a_node2"><a xlink:href="../modules/bmatrix1dvar_mod_rev.svg" xlink:title="bmatrix1dvar_mod">
<polygon fill="none" stroke="blue" points="186,-108 67,-108 67,-72 186,-72 186,-108"/>
<text text-anchor="middle" x="126.5" y="-86.3" font-family="Times,serif" font-size="14.00">bmatrix1dvar_mod</text>
</a>
</g>
</g>
<!-- bmatrix1dvar_mod&#45;&gt;columnvariabletransforms_mod -->
<g id="edge1" class="edge">
<title>bmatrix1dvar_mod&#45;&gt;columnvariabletransforms_mod</title>
<path fill="none" stroke="black" d="M154.56,-66.68C167.01,-56.78 181.42,-45.31 193,-36.1"/>
<ellipse fill="black" stroke="black" cx="151.38" cy="-69.21" rx="4" ry="4"/>
</g>
<!-- innovation_mod -->
<g id="node3" class="node">
<title>innovation_mod</title>
<g id="a_node3"><a xlink:href="../modules/innovation_mod_rev.svg" xlink:title="innovation_mod">
<polygon fill="none" stroke="blue" points="266.5,-180 162.5,-180 162.5,-144 266.5,-144 266.5,-180"/>
<text text-anchor="middle" x="214.5" y="-158.3" font-family="Times,serif" font-size="14.00">innovation_mod</text>
</a>
</g>
</g>
<!-- innovation_mod&#45;&gt;columnvariabletransforms_mod -->
<g id="edge2" class="edge">
<title>innovation_mod&#45;&gt;columnvariabletransforms_mod</title>
<path fill="none" stroke="black" d="M214.5,-135.56C214.5,-106.86 214.5,-60.96 214.5,-36.19"/>
<ellipse fill="black" stroke="black" cx="214.5" cy="-139.87" rx="4" ry="4"/>
</g>
<!-- minimization_mod -->
<g id="node4" class="node">
<title>minimization_mod</title>
<g id="a_node4"><a xlink:href="../modules/minimization_mod_rev.svg" xlink:title="minimization_mod">
<polygon fill="none" stroke="blue" points="355,-252 234,-252 234,-216 355,-216 355,-252"/>
<text text-anchor="middle" x="294.5" y="-230.3" font-family="Times,serif" font-size="14.00">minimization_mod</text>
</a>
</g>
</g>
<!-- minimization_mod&#45;&gt;columnvariabletransforms_mod -->
<g id="edge3" class="edge">
<title>minimization_mod&#45;&gt;columnvariabletransforms_mod</title>
<path fill="none" stroke="black" d="M290.78,-207.65C287.72,-189.59 282.72,-164.92 275.5,-144 261.64,-103.82 238.01,-59.81 224.59,-36.22"/>
<ellipse fill="black" stroke="black" cx="291.48" cy="-211.99" rx="4" ry="4"/>
</g>
</g>
</svg>
