<?xml version="1.0" encoding="UTF-8" standalone="no"?>
<!DOCTYPE svg PUBLIC "-//W3C//DTD SVG 1.1//EN"
 "http://www.w3.org/Graphics/SVG/1.1/DTD/svg11.dtd">
<!-- Generated by graphviz version 3.0.0 (20220315.2325)
 -->
<!-- Title: columndata_mod Pages: 1 -->
<svg width="441pt" height="457pt"
 viewBox="0.00 0.00 441.00 457.00" xmlns="http://www.w3.org/2000/svg" xmlns:xlink="http://www.w3.org/1999/xlink">
<g id="graph0" class="graph" transform="scale(1 1) rotate(0) translate(4 453)">
<title>columndata_mod</title>
<polygon fill="white" stroke="transparent" points="-4,4 -4,-453 437,-453 437,4 -4,4"/>
<text text-anchor="middle" x="216.5" y="-37.8" font-family="Times,serif" font-size="14.00">Red boxes indicate modules with dependencies not shown</text>
<text text-anchor="middle" x="216.5" y="-22.8" font-family="Times,serif" font-size="14.00">Lower level dependencies can be shown by clicking on a red box</text>
<text text-anchor="middle" x="216.5" y="-7.8" font-family="Times,serif" font-size="14.00">Shaded boxes indicate modules with no dependencies</text>
<!-- columndata_mod -->
<g id="node1" class="node">
<title>columndata_mod</title>
<g id="a_node1"><a xlink:href="columndata_mod.html" xlink:title="columndata_mod">
<polygon fill="none" stroke="black" points="291.5,-449 180.5,-449 180.5,-413 291.5,-413 291.5,-449"/>
<text text-anchor="middle" x="236" y="-427.3" font-family="Times,serif" font-size="14.00">columndata_mod</text>
</a>
</g>
</g>
<!-- mathphysconstants_mod -->
<g id="node2" class="node">
<title>mathphysconstants_mod</title>
<g id="a_node2"><a xlink:href="mathphysconstants_mod.html" xlink:title="mathphysconstants_mod">
<polygon fill="gray" stroke="black" points="150,-377 0,-377 0,-341 150,-341 150,-377"/>
<text text-anchor="middle" x="75" y="-355.3" font-family="Times,serif" font-size="14.00">mathphysconstants_mod</text>
</a>
</g>
</g>
<!-- columndata_mod&#45;&gt;mathphysconstants_mod -->
<g id="edge1" class="edge">
<title>columndata_mod&#45;&gt;mathphysconstants_mod</title>
<path fill="none" stroke="black" d="M196.61,-412.88C174.61,-403.31 146.99,-391.3 123.64,-381.15"/>
<polygon fill="black" stroke="black" points="124.82,-377.85 114.26,-377.07 122.03,-384.27 124.82,-377.85"/>
</g>
<!-- midasmpi_mod -->
<g id="node3" class="node">
<title>midasmpi_mod</title>
<g id="a_node3"><a xlink:href="../modules/midasmpi_mod.svg" xlink:title="midasmpi_mod">
<polygon fill="none" stroke="red" points="207.5,-305 106.5,-305 106.5,-269 207.5,-269 207.5,-305"/>
<text text-anchor="middle" x="157" y="-283.3" font-family="Times,serif" font-size="14.00">midasmpi_mod</text>
</a>
</g>
</g>
<!-- columndata_mod&#45;&gt;midasmpi_mod -->
<g id="edge2" class="edge">
<title>columndata_mod&#45;&gt;midasmpi_mod</title>
<path fill="none" stroke="black" d="M226.47,-412.87C212.83,-388.35 187.62,-343.03 171.61,-314.26"/>
<polygon fill="black" stroke="black" points="174.48,-312.23 166.56,-305.19 168.37,-315.63 174.48,-312.23"/>
</g>
<!-- utilities_mod -->
<g id="node4" class="node">
<title>utilities_mod</title>
<g id="a_node4"><a xlink:href="../modules/utilities_mod.svg" xlink:title="utilities_mod">
<polygon fill="none" stroke="red" points="263,-233 175,-233 175,-197 263,-197 263,-233"/>
<text text-anchor="middle" x="219" y="-211.3" font-family="Times,serif" font-size="14.00">utilities_mod</text>
</a>
</g>
</g>
<!-- columndata_mod&#45;&gt;utilities_mod -->
<g id="edge3" class="edge">
<title>columndata_mod&#45;&gt;utilities_mod</title>
<path fill="none" stroke="black" d="M234.64,-412.85C231.7,-375.83 224.73,-288.18 221.18,-243.39"/>
<polygon fill="black" stroke="black" points="224.65,-242.92 220.37,-233.23 217.67,-243.48 224.65,-242.92"/>
</g>
<!-- varnamelist_mod -->
<g id="node5" class="node">
<title>varnamelist_mod</title>
<g id="a_node5"><a xlink:href="../modules/varnamelist_mod.svg" xlink:title="varnamelist_mod">
<polygon fill="none" stroke="red" points="346,-161 236,-161 236,-125 346,-125 346,-161"/>
<text text-anchor="middle" x="291" y="-139.3" font-family="Times,serif" font-size="14.00">varnamelist_mod</text>
</a>
</g>
</g>
<!-- columndata_mod&#45;&gt;varnamelist_mod -->
<g id="edge4" class="edge">
<title>columndata_mod&#45;&gt;varnamelist_mod</title>
<path fill="none" stroke="black" d="M239.28,-412.97C248.46,-365.19 274.53,-229.62 285.76,-171.27"/>
<polygon fill="black" stroke="black" points="289.22,-171.79 287.67,-161.31 282.35,-170.47 289.22,-171.79"/>
</g>
<!-- verticalcoord_mod -->
<g id="node6" class="node">
<title>verticalcoord_mod</title>
<g id="a_node6"><a xlink:href="../modules/verticalcoord_mod.svg" xlink:title="verticalcoord_mod">
<polygon fill="none" stroke="red" points="433,-89 315,-89 315,-53 433,-53 433,-89"/>
<text text-anchor="middle" x="374" y="-67.3" font-family="Times,serif" font-size="14.00">verticalcoord_mod</text>
</a>
</g>
</g>
<!-- columndata_mod&#45;&gt;verticalcoord_mod -->
<g id="edge5" class="edge">
<title>columndata_mod&#45;&gt;verticalcoord_mod</title>
<path fill="none" stroke="black" d="M271.54,-412.87C312.43,-390.39 374,-346.78 374,-288 374,-288 374,-288 374,-214 374,-174 374,-127.65 374,-99.08"/>
<polygon fill="black" stroke="black" points="377.5,-99.05 374,-89.05 370.5,-99.05 377.5,-99.05"/>
</g>
</g>
</svg>
