<?xml version="1.0" encoding="UTF-8" standalone="no"?>
<!DOCTYPE svg PUBLIC "-//W3C//DTD SVG 1.1//EN"
 "http://www.w3.org/Graphics/SVG/1.1/DTD/svg11.dtd">
<!-- Generated by graphviz version 3.0.0 (20220315.2325)
 -->
<!-- Title: columndata_mod Pages: 1 -->
<svg width="2030pt" height="673pt"
 viewBox="0.00 0.00 2030.00 673.00" xmlns="http://www.w3.org/2000/svg" xmlns:xlink="http://www.w3.org/1999/xlink">
<g id="graph0" class="graph" transform="scale(1 1) rotate(0) translate(4 669)">
<title>columndata_mod</title>
<polygon fill="white" stroke="transparent" points="-4,4 -4,-669 2026,-669 2026,4 -4,4"/>
<text text-anchor="middle" x="1011" y="-649.8" font-family="Times,serif" font-size="14.00">Blue boxes indicate modules with reverse dependencies not shown</text>
<text text-anchor="middle" x="1011" y="-634.8" font-family="Times,serif" font-size="14.00">Higher level reverse dependencies can be shown by clicking on a blue box</text>
<text text-anchor="middle" x="1011" y="-619.8" font-family="Times,serif" font-size="14.00">Green boxes are programs</text>
<!-- columndata_mod -->
<g id="node1" class="node">
<title>columndata_mod</title>
<g id="a_node1"><a xlink:href="columndata_mod.html" xlink:title="columndata_mod">
<polygon fill="none" stroke="black" points="1032,-36 921,-36 921,0 1032,0 1032,-36"/>
<text text-anchor="middle" x="976.5" y="-14.3" font-family="Times,serif" font-size="14.00">columndata_mod</text>
</a>
</g>
</g>
<!-- analysiserroroi_mod -->
<g id="node2" class="node">
<title>analysiserroroi_mod</title>
<g id="a_node2"><a xlink:href="../modules/analysiserroroi_mod_rev.svg" xlink:title="analysiserroroi_mod">
<polygon fill="none" stroke="blue" points="127,-108 0,-108 0,-72 127,-72 127,-108"/>
<text text-anchor="middle" x="63.5" y="-86.3" font-family="Times,serif" font-size="14.00">analysiserroroi_mod</text>
</a>
</g>
</g>
<!-- analysiserroroi_mod&#45;&gt;columndata_mod -->
<g id="edge1" class="edge">
<title>analysiserroroi_mod&#45;&gt;columndata_mod</title>
<path fill="none" stroke="black" d="M135.31,-72.93C137.39,-72.6 139.46,-72.29 141.5,-72 432.81,-31.25 785.72,-21.8 920.51,-19.64"/>
<ellipse fill="black" stroke="black" cx="131.15" cy="-73.63" rx="4" ry="4"/>
</g>
<!-- backgroundcheck_mod -->
<g id="node3" class="node">
<title>backgroundcheck_mod</title>
<g id="a_node3"><a xlink:href="../modules/backgroundcheck_mod_rev.svg" xlink:title="backgroundcheck_mod">
<polygon fill="none" stroke="blue" points="196,-180 53,-180 53,-144 196,-144 196,-180"/>
<text text-anchor="middle" x="124.5" y="-158.3" font-family="Times,serif" font-size="14.00">backgroundcheck_mod</text>
</a>
</g>
</g>
<!-- backgroundcheck_mod&#45;&gt;columndata_mod -->
<g id="edge2" class="edge">
<title>backgroundcheck_mod&#45;&gt;columndata_mod</title>
<path fill="none" stroke="black" d="M139.87,-137.11C155.01,-115.88 180.23,-86.1 210.5,-72 274.4,-42.25 755.55,-25.48 920.9,-20.55"/>
<ellipse fill="black" stroke="black" cx="137.41" cy="-140.66" rx="4" ry="4"/>
</g>
<!-- bgckocean_mod -->
<g id="node4" class="node">
<title>bgckocean_mod</title>
<g id="a_node4"><a xlink:href="../modules/bgckocean_mod_rev.svg" xlink:title="bgckocean_mod">
<polygon fill="none" stroke="blue" points="234,-252 129,-252 129,-216 234,-216 234,-252"/>
<text text-anchor="middle" x="181.5" y="-230.3" font-family="Times,serif" font-size="14.00">bgckocean_mod</text>
</a>
</g>
</g>
<!-- bgckocean_mod&#45;&gt;columndata_mod -->
<g id="edge3" class="edge">
<title>bgckocean_mod&#45;&gt;columndata_mod</title>
<path fill="none" stroke="black" d="M192.32,-208.39C196.2,-199.47 200.59,-189.3 204.5,-180 224.6,-132.22 206.57,-102.46 248.5,-72 302.45,-32.8 759.89,-22.23 920.8,-19.71"/>
<ellipse fill="black" stroke="black" cx="190.66" cy="-212.19" rx="4" ry="4"/>
</g>
<!-- biascorrectionsat_mod -->
<g id="node5" class="node">
<title>biascorrectionsat_mod</title>
<g id="a_node5"><a xlink:href="../modules/biascorrectionsat_mod_rev.svg" xlink:title="biascorrectionsat_mod">
<polygon fill="none" stroke="blue" points="272,-324 133,-324 133,-288 272,-288 272,-324"/>
<text text-anchor="middle" x="202.5" y="-302.3" font-family="Times,serif" font-size="14.00">biascorrectionsat_mod</text>
</a>
</g>
</g>
<!-- biascorrectionsat_mod&#45;&gt;columndata_mod -->
<g id="edge4" class="edge">
<title>biascorrectionsat_mod&#45;&gt;columndata_mod</title>
<path fill="none" stroke="black" d="M223.7,-281.23C230.54,-272.53 237.62,-262.29 242.5,-252 277.81,-177.6 223.72,-125.3 286.5,-72 334.44,-31.3 765.51,-21.72 920.94,-19.58"/>
<ellipse fill="black" stroke="black" cx="221.07" cy="-284.46" rx="4" ry="4"/>
</g>
<!-- bmatrix1dvar_mod -->
<g id="node6" class="node">
<title>bmatrix1dvar_mod</title>
<g id="a_node6"><a xlink:href="../modules/bmatrix1dvar_mod_rev.svg" xlink:title="bmatrix1dvar_mod">
<polygon fill="none" stroke="blue" points="310,-396 191,-396 191,-360 310,-360 310,-396"/>
<text text-anchor="middle" x="250.5" y="-374.3" font-family="Times,serif" font-size="14.00">bmatrix1dvar_mod</text>
</a>
</g>
</g>
<!-- bmatrix1dvar_mod&#45;&gt;columndata_mod -->
<g id="edge5" class="edge">
<title>bmatrix1dvar_mod&#45;&gt;columndata_mod</title>
<path fill="none" stroke="black" d="M266.11,-352.93C271.29,-344.11 276.7,-333.87 280.5,-324 295.09,-286.17 300.5,-275.54 300.5,-235 300.5,-235 300.5,-235 300.5,-161 300.5,-120.03 293.01,-98.21 324.5,-72 369.86,-34.24 771.46,-22.86 920.85,-19.91"/>
<ellipse fill="black" stroke="black" cx="263.92" cy="-356.55" rx="4" ry="4"/>
</g>
<!-- calcheightandpressure_mod -->
<g id="node7" class="node">
<title>calcheightandpressure_mod</title>
<g id="a_node7"><a xlink:href="../modules/calcheightandpressure_mod_rev.svg" xlink:title="calcheightandpressure_mod">
<polygon fill="none" stroke="blue" points="349,-468 182,-468 182,-432 349,-432 349,-468"/>
<text text-anchor="middle" x="265.5" y="-446.3" font-family="Times,serif" font-size="14.00">calcheightandpressure_mod</text>
</a>
</g>
</g>
<!-- calcheightandpressure_mod&#45;&gt;columndata_mod -->
<g id="edge6" class="edge">
<title>calcheightandpressure_mod&#45;&gt;columndata_mod</title>
<path fill="none" stroke="black" d="M293.77,-426.45C302.9,-417.82 312.27,-407.31 318.5,-396 338.05,-360.48 338.5,-347.54 338.5,-307 338.5,-307 338.5,-307 338.5,-161 338.5,-120.03 331.08,-98.29 362.5,-72 404.81,-36.6 777.49,-23.84 920.74,-20.22"/>
<ellipse fill="black" stroke="black" cx="290.8" cy="-429.15" rx="4" ry="4"/>
</g>
<!-- columnvariabletransforms_mod -->
<g id="node8" class="node">
<title>columnvariabletransforms_mod</title>
<g id="a_node8"><a xlink:href="../modules/columnvariabletransforms_mod_rev.svg" xlink:title="columnvariabletransforms_mod">
<polygon fill="none" stroke="blue" points="386,-540 197,-540 197,-504 386,-504 386,-540"/>
<text text-anchor="middle" x="291.5" y="-518.3" font-family="Times,serif" font-size="14.00">columnvariabletransforms_mod</text>
</a>
</g>
</g>
<!-- columnvariabletransforms_mod&#45;&gt;columndata_mod -->
<g id="edge7" class="edge">
<title>columnvariabletransforms_mod&#45;&gt;columndata_mod</title>
<path fill="none" stroke="black" d="M327.61,-499.1C338.74,-490.68 350.02,-480.13 357.5,-468 378.72,-433.57 376.5,-419.45 376.5,-379 376.5,-379 376.5,-379 376.5,-161 376.5,-120.03 369.15,-98.38 400.5,-72 439.81,-38.92 784.29,-24.86 920.97,-20.55"/>
<ellipse fill="black" stroke="black" cx="324.34" cy="-501.46" rx="4" ry="4"/>
</g>
<!-- ensembleobservations_mod -->
<g id="node9" class="node">
<title>ensembleobservations_mod</title>
<g id="a_node9"><a xlink:href="../modules/ensembleobservations_mod_rev.svg" xlink:title="ensembleobservations_mod">
<polygon fill="none" stroke="blue" points="497.5,-612 331.5,-612 331.5,-576 497.5,-576 497.5,-612"/>
<text text-anchor="middle" x="414.5" y="-590.3" font-family="Times,serif" font-size="14.00">ensembleobservations_mod</text>
</a>
</g>
</g>
<!-- ensembleobservations_mod&#45;&gt;columndata_mod -->
<g id="edge8" class="edge">
<title>ensembleobservations_mod&#45;&gt;columndata_mod</title>
<path fill="none" stroke="black" d="M414.5,-567.78C414.5,-539.39 414.5,-491.89 414.5,-451 414.5,-451 414.5,-451 414.5,-161 414.5,-120.55 403.33,-98.94 433.5,-72 469.36,-39.98 789.78,-25.42 920.93,-20.76"/>
<ellipse fill="black" stroke="black" cx="414.5" cy="-571.95" rx="4" ry="4"/>
</g>
<!-- fsoi_mod -->
<g id="node10" class="node">
<title>fsoi_mod</title>
<g id="a_node10"><a xlink:href="../modules/fsoi_mod_rev.svg" xlink:title="fsoi_mod">
<polygon fill="none" stroke="blue" points="510.5,-108 442.5,-108 442.5,-72 510.5,-72 510.5,-108"/>
<text text-anchor="middle" x="476.5" y="-86.3" font-family="Times,serif" font-size="14.00">fsoi_mod</text>
</a>
</g>
</g>
<!-- fsoi_mod&#45;&gt;columndata_mod -->
<g id="edge9" class="edge">
<title>fsoi_mod&#45;&gt;columndata_mod</title>
<path fill="none" stroke="black" d="M518.44,-73.55C520.47,-72.98 522.5,-72.46 524.5,-72 664.94,-39.33 834.86,-26.31 920.85,-21.52"/>
<ellipse fill="black" stroke="black" cx="514.4" cy="-74.75" rx="4" ry="4"/>
</g>
<!-- innovation_mod -->
<g id="node11" class="node">
<title>innovation_mod</title>
<g id="a_node11"><a xlink:href="../modules/innovation_mod_rev.svg" xlink:title="innovation_mod">
<polygon fill="none" stroke="blue" points="548.5,-180 444.5,-180 444.5,-144 548.5,-144 548.5,-180"/>
<text text-anchor="middle" x="496.5" y="-158.3" font-family="Times,serif" font-size="14.00">innovation_mod</text>
</a>
</g>
</g>
<!-- innovation_mod&#45;&gt;columndata_mod -->
<g id="edge10" class="edge">
<title>innovation_mod&#45;&gt;columndata_mod</title>
<path fill="none" stroke="black" d="M507.58,-136.67C518.45,-115.83 537.08,-86.9 562.5,-72 622.05,-37.11 822.22,-24.8 920.76,-20.78"/>
<ellipse fill="black" stroke="black" cx="505.73" cy="-140.37" rx="4" ry="4"/>
</g>
<!-- interpolation_mod -->
<g id="node12" class="node">
<title>interpolation_mod</title>
<g id="a_node12"><a xlink:href="../modules/interpolation_mod_rev.svg" xlink:title="interpolation_mod">
<polygon fill="none" stroke="blue" points="586.5,-252 470.5,-252 470.5,-216 586.5,-216 586.5,-252"/>
<text text-anchor="middle" x="528.5" y="-230.3" font-family="Times,serif" font-size="14.00">interpolation_mod</text>
</a>
</g>
</g>
<!-- interpolation_mod&#45;&gt;columndata_mod -->
<g id="edge11" class="edge">
<title>interpolation_mod&#45;&gt;columndata_mod</title>
<path fill="none" stroke="black" d="M542.71,-208.52C547.63,-199.65 553.03,-189.49 557.5,-180 579.5,-133.25 559.87,-103.92 600.5,-72 649.16,-33.77 828.69,-23.11 920.95,-20.14"/>
<ellipse fill="black" stroke="black" cx="540.68" cy="-212.13" rx="4" ry="4"/>
</g>
<!-- minimization_mod -->
<g id="node13" class="node">
<title>minimization_mod</title>
<g id="a_node13"><a xlink:href="../modules/minimization_mod_rev.svg" xlink:title="minimization_mod">
<polygon fill="none" stroke="blue" points="624,-324 503,-324 503,-288 624,-288 624,-324"/>
<text text-anchor="middle" x="563.5" y="-302.3" font-family="Times,serif" font-size="14.00">minimization_mod</text>
</a>
</g>
</g>
<!-- minimization_mod&#45;&gt;columndata_mod -->
<g id="edge12" class="edge">
<title>minimization_mod&#45;&gt;columndata_mod</title>
<path fill="none" stroke="black" d="M580.39,-280.61C585.83,-271.89 591.49,-261.79 595.5,-252 626.68,-175.89 578.09,-127.82 638.5,-72 678.64,-34.91 835.69,-23.76 920.85,-20.42"/>
<ellipse fill="black" stroke="black" cx="578.07" cy="-284.21" rx="4" ry="4"/>
</g>
<!-- multi_ir_bgck_mod -->
<g id="node14" class="node">
<title>multi_ir_bgck_mod</title>
<g id="a_node14"><a xlink:href="../modules/multi_ir_bgck_mod_rev.svg" xlink:title="multi_ir_bgck_mod">
<polygon fill="none" stroke="blue" points="662,-396 537,-396 537,-360 662,-360 662,-396"/>
<text text-anchor="middle" x="599.5" y="-374.3" font-family="Times,serif" font-size="14.00">multi_ir_bgck_mod</text>
</a>
</g>
</g>
<!-- multi_ir_bgck_mod&#45;&gt;columndata_mod -->
<g id="edge13" class="edge">
<title>multi_ir_bgck_mod&#45;&gt;columndata_mod</title>
<path fill="none" stroke="black" d="M616.85,-352.96C622.52,-344.19 628.41,-333.97 632.5,-324 647.88,-286.49 652.5,-275.54 652.5,-235 652.5,-235 652.5,-235 652.5,-161 652.5,-120.03 646.28,-99.66 676.5,-72 711.42,-40.04 844.18,-26.86 920.88,-21.83"/>
<ellipse fill="black" stroke="black" cx="614.6" cy="-356.33" rx="4" ry="4"/>
</g>
<!-- obserrors_mod -->
<g id="node15" class="node">
<title>obserrors_mod</title>
<g id="a_node15"><a xlink:href="../modules/obserrors_mod_rev.svg" xlink:title="obserrors_mod">
<polygon fill="none" stroke="blue" points="700.5,-468 602.5,-468 602.5,-432 700.5,-432 700.5,-468"/>
<text text-anchor="middle" x="651.5" y="-446.3" font-family="Times,serif" font-size="14.00">obserrors_mod</text>
</a>
</g>
</g>
<!-- obserrors_mod&#45;&gt;columndata_mod -->
<g id="edge14" class="edge">
<title>obserrors_mod&#45;&gt;columndata_mod</title>
<path fill="none" stroke="black" d="M662.64,-424.25C674.17,-396.35 690.5,-349.35 690.5,-307 690.5,-307 690.5,-307 690.5,-161 690.5,-120.03 684.62,-100.03 714.5,-72 743.78,-44.53 853.13,-29.99 920.97,-23.44"/>
<ellipse fill="black" stroke="black" cx="660.95" cy="-428.24" rx="4" ry="4"/>
</g>
<!-- obsfilter_mod -->
<g id="node16" class="node">
<title>obsfilter_mod</title>
<g id="a_node16"><a xlink:href="../modules/obsfilter_mod_rev.svg" xlink:title="obsfilter_mod">
<polygon fill="none" stroke="blue" points="738.5,-540 646.5,-540 646.5,-504 738.5,-504 738.5,-540"/>
<text text-anchor="middle" x="692.5" y="-518.3" font-family="Times,serif" font-size="14.00">obsfilter_mod</text>
</a>
</g>
</g>
<!-- obsfilter_mod&#45;&gt;columndata_mod -->
<g id="edge15" class="edge">
<title>obsfilter_mod&#45;&gt;columndata_mod</title>
<path fill="none" stroke="black" d="M702.79,-496.16C713.43,-468.19 728.5,-421.13 728.5,-379 728.5,-379 728.5,-379 728.5,-161 728.5,-120.03 723.08,-100.52 752.5,-72 776.21,-49.02 862.64,-33.62 920.95,-25.59"/>
<ellipse fill="black" stroke="black" cx="701.24" cy="-500.14" rx="4" ry="4"/>
</g>
<!-- obsoperatorschem_mod -->
<g id="node17" class="node">
<title>obsoperatorschem_mod</title>
<g id="a_node17"><a xlink:href="../modules/obsoperatorschem_mod_rev.svg" xlink:title="obsoperatorschem_mod">
<polygon fill="none" stroke="blue" points="839.5,-612 693.5,-612 693.5,-576 839.5,-576 839.5,-612"/>
<text text-anchor="middle" x="766.5" y="-590.3" font-family="Times,serif" font-size="14.00">obsoperatorschem_mod</text>
</a>
</g>
</g>
<!-- obsoperatorschem_mod&#45;&gt;columndata_mod -->
<g id="edge16" class="edge">
<title>obsoperatorschem_mod&#45;&gt;columndata_mod</title>
<path fill="none" stroke="black" d="M766.5,-567.78C766.5,-539.39 766.5,-491.89 766.5,-451 766.5,-451 766.5,-451 766.5,-161 766.5,-120.55 757.78,-101.45 785.5,-72 820.17,-35.17 878.01,-23.16 920.97,-19.61"/>
<ellipse fill="black" stroke="black" cx="766.5" cy="-571.95" rx="4" ry="4"/>
</g>
<!-- obsoperators_mod -->
<g id="node18" class="node">
<title>obsoperators_mod</title>
<g id="a_node18"><a xlink:href="../modules/obsoperators_mod_rev.svg" xlink:title="obsoperators_mod">
<polygon fill="none" stroke="blue" points="910.5,-108 794.5,-108 794.5,-72 910.5,-72 910.5,-108"/>
<text text-anchor="middle" x="852.5" y="-86.3" font-family="Times,serif" font-size="14.00">obsoperators_mod</text>
</a>
</g>
</g>
<!-- obsoperators_mod&#45;&gt;columndata_mod -->
<g id="edge17" class="edge">
<title>obsoperators_mod&#45;&gt;columndata_mod</title>
<path fill="none" stroke="black" d="M890.28,-67.67C908.15,-57.58 929.22,-45.69 946.05,-36.19"/>
<ellipse fill="black" stroke="black" cx="886.32" cy="-69.91" rx="4" ry="4"/>
</g>
<!-- obsspacediag_mod -->
<g id="node19" class="node">
<title>obsspacediag_mod</title>
<g id="a_node19"><a xlink:href="../modules/obsspacediag_mod_rev.svg" xlink:title="obsspacediag_mod">
<polygon fill="none" stroke="blue" points="948,-180 829,-180 829,-144 948,-144 948,-180"/>
<text text-anchor="middle" x="888.5" y="-158.3" font-family="Times,serif" font-size="14.00">obsspacediag_mod</text>
</a>
</g>
</g>
<!-- obsspacediag_mod&#45;&gt;columndata_mod -->
<g id="edge18" class="edge">
<title>obsspacediag_mod&#45;&gt;columndata_mod</title>
<path fill="none" stroke="black" d="M903.36,-137.03C921.07,-108.45 950.23,-61.39 965.85,-36.19"/>
<ellipse fill="black" stroke="black" cx="901.22" cy="-140.47" rx="4" ry="4"/>
</g>
<!-- obsspaceerrorstddev_mod -->
<g id="node20" class="node">
<title>obsspaceerrorstddev_mod</title>
<g id="a_node20"><a xlink:href="../modules/obsspaceerrorstddev_mod_rev.svg" xlink:title="obsspaceerrorstddev_mod">
<polygon fill="none" stroke="blue" points="986,-252 829,-252 829,-216 986,-216 986,-252"/>
<text text-anchor="middle" x="907.5" y="-230.3" font-family="Times,serif" font-size="14.00">obsspaceerrorstddev_mod</text>
</a>
</g>
</g>
<!-- obsspaceerrorstddev_mod&#45;&gt;columndata_mod -->
<g id="edge19" class="edge">
<title>obsspaceerrorstddev_mod&#45;&gt;columndata_mod</title>
<path fill="none" stroke="black" d="M934.46,-210.16C942.88,-201.58 951.31,-191.17 956.5,-180 978.93,-131.72 979.14,-66.97 977.72,-36.39"/>
<ellipse fill="black" stroke="black" cx="931.54" cy="-213.01" rx="4" ry="4"/>
</g>
<!-- ominusf_mod -->
<g id="node21" class="node">
<title>ominusf_mod</title>
<g id="a_node21"><a xlink:href="../modules/ominusf_mod_rev.svg" xlink:title="ominusf_mod">
<polygon fill="none" stroke="blue" points="1024,-324 931,-324 931,-288 1024,-288 1024,-324"/>
<text text-anchor="middle" x="977.5" y="-302.3" font-family="Times,serif" font-size="14.00">ominusf_mod</text>
</a>
</g>
</g>
<!-- ominusf_mod&#45;&gt;columndata_mod -->
<g id="edge20" class="edge">
<title>ominusf_mod&#45;&gt;columndata_mod</title>
<path fill="none" stroke="black" d="M987.26,-280.05C990.2,-271.32 993.04,-261.36 994.5,-252 999.64,-219.14 1007.74,-180.67 991.5,-72 989.69,-59.89 985.94,-46.64 982.64,-36.42"/>
<ellipse fill="black" stroke="black" cx="985.9" cy="-283.89" rx="4" ry="4"/>
</g>
<!-- sstbias_mod -->
<g id="node22" class="node">
<title>sstbias_mod</title>
<g id="a_node22"><a xlink:href="../modules/sstbias_mod_rev.svg" xlink:title="sstbias_mod">
<polygon fill="none" stroke="blue" points="1062,-396 979,-396 979,-360 1062,-360 1062,-396"/>
<text text-anchor="middle" x="1020.5" y="-374.3" font-family="Times,serif" font-size="14.00">sstbias_mod</text>
</a>
</g>
</g>
<!-- sstbias_mod&#45;&gt;columndata_mod -->
<g id="edge21" class="edge">
<title>sstbias_mod&#45;&gt;columndata_mod</title>
<path fill="none" stroke="black" d="M1029.64,-352.06C1039.1,-324 1052.5,-276.86 1052.5,-235 1052.5,-235 1052.5,-235 1052.5,-161 1052.5,-110.95 1015.34,-61.47 992.99,-36.23"/>
<ellipse fill="black" stroke="black" cx="1028.28" cy="-356.01" rx="4" ry="4"/>
</g>
<!-- statetocolumn_mod -->
<g id="node23" class="node">
<title>statetocolumn_mod</title>
<g id="a_node23"><a xlink:href="../modules/statetocolumn_mod_rev.svg" xlink:title="statetocolumn_mod">
<polygon fill="none" stroke="blue" points="1100.5,-468 976.5,-468 976.5,-432 1100.5,-432 1100.5,-468"/>
<text text-anchor="middle" x="1038.5" y="-446.3" font-family="Times,serif" font-size="14.00">statetocolumn_mod</text>
</a>
</g>
</g>
<!-- statetocolumn_mod&#45;&gt;columndata_mod -->
<g id="edge22" class="edge">
<title>statetocolumn_mod&#45;&gt;columndata_mod</title>
<path fill="none" stroke="black" d="M1055.46,-424.64C1060.91,-415.92 1066.55,-405.82 1070.5,-396 1085.62,-358.38 1090.5,-347.54 1090.5,-307 1090.5,-307 1090.5,-307 1090.5,-161 1090.5,-105.67 1037.23,-59.63 1003.52,-36.04"/>
<ellipse fill="black" stroke="black" cx="1053.14" cy="-428.24" rx="4" ry="4"/>
</g>
<!-- tovs_lin_mod -->
<g id="node24" class="node">
<title>tovs_lin_mod</title>
<g id="a_node24"><a xlink:href="../modules/tovs_lin_mod_rev.svg" xlink:title="tovs_lin_mod">
<polygon fill="none" stroke="blue" points="1138,-540 1047,-540 1047,-504 1138,-504 1138,-540"/>
<text text-anchor="middle" x="1092.5" y="-518.3" font-family="Times,serif" font-size="14.00">tovs_lin_mod</text>
</a>
</g>
</g>
<!-- tovs_lin_mod&#45;&gt;columndata_mod -->
<g id="edge23" class="edge">
<title>tovs_lin_mod&#45;&gt;columndata_mod</title>
<path fill="none" stroke="black" d="M1102.79,-496.16C1113.43,-468.19 1128.5,-421.13 1128.5,-379 1128.5,-379 1128.5,-379 1128.5,-161 1128.5,-100.15 1062.65,-57.88 1017.63,-36.1"/>
<ellipse fill="black" stroke="black" cx="1101.24" cy="-500.14" rx="4" ry="4"/>
</g>
<!-- tovs_nl_mod -->
<g id="node25" class="node">
<title>tovs_nl_mod</title>
<g id="a_node25"><a xlink:href="../modules/tovs_nl_mod_rev.svg" xlink:title="tovs_nl_mod">
<polygon fill="none" stroke="blue" points="1210,-612 1123,-612 1123,-576 1210,-576 1210,-612"/>
<text text-anchor="middle" x="1166.5" y="-590.3" font-family="Times,serif" font-size="14.00">tovs_nl_mod</text>
</a>
</g>
</g>
<!-- tovs_nl_mod&#45;&gt;columndata_mod -->
<g id="edge24" class="edge">
<title>tovs_nl_mod&#45;&gt;columndata_mod</title>
<path fill="none" stroke="black" d="M1166.5,-567.78C1166.5,-539.39 1166.5,-491.89 1166.5,-451 1166.5,-451 1166.5,-451 1166.5,-161 1166.5,-93.36 1088.29,-54.06 1032.22,-34.58"/>
<ellipse fill="black" stroke="black" cx="1166.5" cy="-571.95" rx="4" ry="4"/>
</g>
<!-- var1d_mod -->
<g id="node26" class="node">
<title>var1d_mod</title>
<g id="a_node26"><a xlink:href="../modules/var1d_mod_rev.svg" xlink:title="var1d_mod">
<polygon fill="none" stroke="blue" points="1272,-108 1195,-108 1195,-72 1272,-72 1272,-108"/>
<text text-anchor="middle" x="1233.5" y="-86.3" font-family="Times,serif" font-size="14.00">var1d_mod</text>
</a>
</g>
</g>
<!-- var1d_mod&#45;&gt;columndata_mod -->
<g id="edge25" class="edge">
<title>var1d_mod&#45;&gt;columndata_mod</title>
<path fill="none" stroke="black" d="M1187.14,-73.96C1184.9,-73.29 1182.68,-72.63 1180.5,-72 1130.6,-57.53 1073.29,-42.8 1032.14,-32.56"/>
<ellipse fill="black" stroke="black" cx="1190.97" cy="-75.14" rx="4" ry="4"/>
</g>
<!-- varqc_mod -->
<g id="node27" class="node">
<title>varqc_mod</title>
<g id="a_node27"><a xlink:href="../modules/varqc_mod_rev.svg" xlink:title="varqc_mod">
<polygon fill="none" stroke="blue" points="1310,-180 1233,-180 1233,-144 1310,-144 1310,-180"/>
<text text-anchor="middle" x="1271.5" y="-158.3" font-family="Times,serif" font-size="14.00">varqc_mod</text>
</a>
</g>
</g>
<!-- varqc_mod&#45;&gt;columndata_mod -->
<g id="edge26" class="edge">
<title>varqc_mod&#45;&gt;columndata_mod</title>
<path fill="none" stroke="black" d="M1282.9,-136.1C1290,-116.47 1295.26,-89.55 1280.5,-72 1249.39,-34.99 1111.02,-23.82 1032.11,-20.45"/>
<ellipse fill="black" stroke="black" cx="1281.37" cy="-140.03" rx="4" ry="4"/>
</g>
<!-- midas_midas_analysiserroroi -->
<g id="node28" class="node">
<title>midas_midas_analysiserroroi</title>
<g id="a_node28"><a xlink:href="../programs/midas_analysiserroroi.html" xlink:title="midas_midas_analysiserroroi">
<polygon fill="gray" stroke="green" points="1370.5,-252 1194.5,-252 1194.5,-216 1370.5,-216 1370.5,-252"/>
<text text-anchor="middle" x="1282.5" y="-230.3" font-family="Times,serif" font-size="14.00">midas_midas_analysiserroroi</text>
</a>
</g>
</g>
<!-- midas_midas_analysiserroroi&#45;&gt;columndata_mod -->
<g id="edge27" class="edge">
<title>midas_midas_analysiserroroi&#45;&gt;columndata_mod</title>
<path fill="none" stroke="black" d="M1303.08,-209.22C1309.29,-200.6 1315.3,-190.4 1318.5,-180 1332.83,-133.42 1335.57,-104.78 1299.5,-72 1261.23,-37.22 1114.12,-25.1 1032.27,-21.01"/>
<ellipse fill="black" stroke="black" cx="1300.53" cy="-212.59" rx="4" ry="4"/>
</g>
<!-- midas_midas_diaghbht -->
<g id="node29" class="node">
<title>midas_midas_diaghbht</title>
<g id="a_node29"><a xlink:href="../programs/midas_diaghbht.html" xlink:title="midas_midas_diaghbht">
<polygon fill="gray" stroke="green" points="1408,-324 1265,-324 1265,-288 1408,-288 1408,-324"/>
<text text-anchor="middle" x="1336.5" y="-302.3" font-family="Times,serif" font-size="14.00">midas_midas_diaghbht</text>
</a>
</g>
</g>
<!-- midas_midas_diaghbht&#45;&gt;columndata_mod -->
<g id="edge28" class="edge">
<title>midas_midas_diaghbht&#45;&gt;columndata_mod</title>
<path fill="none" stroke="black" d="M1360.95,-281.91C1368.38,-273.31 1375.61,-262.96 1379.5,-252 1402.11,-188.24 1346.69,-88.47 1326.5,-72 1282.45,-36.07 1119.28,-24.39 1032.17,-20.68"/>
<ellipse fill="black" stroke="black" cx="1358.23" cy="-284.88" rx="4" ry="4"/>
</g>
<!-- midas_midas_ensembleh -->
<g id="node30" class="node">
<title>midas_midas_ensembleh</title>
<g id="a_node30"><a xlink:href="../programs/midas_ensembleh.html" xlink:title="midas_midas_ensembleh">
<polygon fill="gray" stroke="green" points="1446.5,-396 1292.5,-396 1292.5,-360 1446.5,-360 1446.5,-396"/>
<text text-anchor="middle" x="1369.5" y="-374.3" font-family="Times,serif" font-size="14.00">midas_midas_ensembleh</text>
</a>
</g>
</g>
<!-- midas_midas_ensembleh&#45;&gt;columndata_mod -->
<g id="edge29" class="edge">
<title>midas_midas_ensembleh&#45;&gt;columndata_mod</title>
<path fill="none" stroke="black" d="M1394.79,-353.66C1402.8,-345.04 1411,-334.75 1416.5,-324 1434.98,-287.91 1436.5,-275.54 1436.5,-235 1436.5,-235 1436.5,-235 1436.5,-161 1436.5,-106.91 1401.48,-96.97 1353.5,-72 1298.76,-43.5 1123.26,-28.38 1032.32,-22.28"/>
<ellipse fill="black" stroke="black" cx="1391.81" cy="-356.74" rx="4" ry="4"/>
</g>
<!-- midas_midas_gencoeff -->
<g id="node31" class="node">
<title>midas_midas_gencoeff</title>
<g id="a_node31"><a xlink:href="../programs/midas_gencoeff.html" xlink:title="midas_midas_gencoeff">
<polygon fill="gray" stroke="green" points="1484,-468 1341,-468 1341,-432 1484,-432 1484,-468"/>
<text text-anchor="middle" x="1412.5" y="-446.3" font-family="Times,serif" font-size="14.00">midas_midas_gencoeff</text>
</a>
</g>
</g>
<!-- midas_midas_gencoeff&#45;&gt;columndata_mod -->
<g id="edge30" class="edge">
<title>midas_midas_gencoeff&#45;&gt;columndata_mod</title>
<path fill="none" stroke="black" d="M1435.3,-425.79C1442.74,-417.07 1450.4,-406.67 1455.5,-396 1472.95,-359.51 1474.5,-347.45 1474.5,-307 1474.5,-307 1474.5,-307 1474.5,-161 1474.5,-108.98 1444.28,-96.69 1398.5,-72 1336.43,-38.53 1132.07,-25.5 1032.3,-21.04"/>
<ellipse fill="black" stroke="black" cx="1432.6" cy="-428.84" rx="4" ry="4"/>
</g>
<!-- midas_midas_letkf -->
<g id="node32" class="node">
<title>midas_midas_letkf</title>
<g id="a_node32"><a xlink:href="../programs/midas_letkf.html" xlink:title="midas_midas_letkf">
<polygon fill="gray" stroke="green" points="1522.5,-540 1400.5,-540 1400.5,-504 1522.5,-504 1522.5,-540"/>
<text text-anchor="middle" x="1461.5" y="-518.3" font-family="Times,serif" font-size="14.00">midas_midas_letkf</text>
</a>
</g>
</g>
<!-- midas_midas_letkf&#45;&gt;columndata_mod -->
<g id="edge31" class="edge">
<title>midas_midas_letkf&#45;&gt;columndata_mod</title>
<path fill="none" stroke="black" d="M1477.9,-496.58C1483.18,-487.85 1488.66,-477.76 1492.5,-468 1507.35,-430.28 1512.5,-419.54 1512.5,-379 1512.5,-379 1512.5,-379 1512.5,-161 1512.5,-110.4 1485.77,-96.5 1441.5,-72 1372.36,-33.74 1139.86,-23.02 1032.14,-20.08"/>
<ellipse fill="black" stroke="black" cx="1475.67" cy="-500.15" rx="4" ry="4"/>
</g>
<!-- midas_midas_obsimpact -->
<g id="node33" class="node">
<title>midas_midas_obsimpact</title>
<g id="a_node33"><a xlink:href="../programs/midas_obsimpact.html" xlink:title="midas_midas_obsimpact">
<polygon fill="gray" stroke="green" points="1626.5,-612 1474.5,-612 1474.5,-576 1626.5,-576 1626.5,-612"/>
<text text-anchor="middle" x="1550.5" y="-590.3" font-family="Times,serif" font-size="14.00">midas_midas_obsimpact</text>
</a>
</g>
</g>
<!-- midas_midas_obsimpact&#45;&gt;columndata_mod -->
<g id="edge32" class="edge">
<title>midas_midas_obsimpact&#45;&gt;columndata_mod</title>
<path fill="none" stroke="black" d="M1550.5,-567.78C1550.5,-539.39 1550.5,-491.89 1550.5,-451 1550.5,-451 1550.5,-451 1550.5,-161 1550.5,-111.22 1525.91,-96.36 1482.5,-72 1406.53,-29.37 1147.23,-20.97 1032.21,-19.36"/>
<ellipse fill="black" stroke="black" cx="1550.5" cy="-571.95" rx="4" ry="4"/>
</g>
<!-- midas_midas_obsselection -->
<g id="node34" class="node">
<title>midas_midas_obsselection</title>
<g id="a_node34"><a xlink:href="../programs/midas_obsselection.html" xlink:title="midas_midas_obsselection">
<polygon fill="gray" stroke="green" points="1742,-108 1579,-108 1579,-72 1742,-72 1742,-108"/>
<text text-anchor="middle" x="1660.5" y="-86.3" font-family="Times,serif" font-size="14.00">midas_midas_obsselection</text>
</a>
</g>
</g>
<!-- midas_midas_obsselection&#45;&gt;columndata_mod -->
<g id="edge33" class="edge">
<title>midas_midas_obsselection&#45;&gt;columndata_mod</title>
<path fill="none" stroke="black" d="M1570.73,-72.86C1568.63,-72.56 1566.56,-72.27 1564.5,-72 1369.69,-46.02 1136.82,-29.22 1032.21,-22.43"/>
<ellipse fill="black" stroke="black" cx="1574.92" cy="-73.47" rx="4" ry="4"/>
</g>
<!-- midas_midas_ominusf -->
<g id="node35" class="node">
<title>midas_midas_ominusf</title>
<g id="a_node35"><a xlink:href="../programs/midas_ominusf.html" xlink:title="midas_midas_ominusf">
<polygon fill="gray" stroke="green" points="1780.5,-180 1638.5,-180 1638.5,-144 1780.5,-144 1780.5,-180"/>
<text text-anchor="middle" x="1709.5" y="-158.3" font-family="Times,serif" font-size="14.00">midas_midas_ominusf</text>
</a>
</g>
</g>
<!-- midas_midas_ominusf&#45;&gt;columndata_mod -->
<g id="edge34" class="edge">
<title>midas_midas_ominusf&#45;&gt;columndata_mod</title>
<path fill="none" stroke="black" d="M1733.49,-137.72C1750.69,-118.25 1768,-90.74 1750.5,-72 1701.69,-19.73 1201.18,-17.71 1032.02,-18.54"/>
<ellipse fill="black" stroke="black" cx="1730.66" cy="-140.79" rx="4" ry="4"/>
</g>
<!-- midas_midas_sstbias -->
<g id="node36" class="node">
<title>midas_midas_sstbias</title>
<g id="a_node36"><a xlink:href="../programs/midas_sstbias.html" xlink:title="midas_midas_sstbias">
<polygon fill="gray" stroke="green" points="1846.5,-252 1714.5,-252 1714.5,-216 1846.5,-216 1846.5,-252"/>
<text text-anchor="middle" x="1780.5" y="-230.3" font-family="Times,serif" font-size="14.00">midas_midas_sstbias</text>
</a>
</g>
</g>
<!-- midas_midas_sstbias&#45;&gt;columndata_mod -->
<g id="edge35" class="edge">
<title>midas_midas_sstbias&#45;&gt;columndata_mod</title>
<path fill="none" stroke="black" d="M1788.15,-208C1797.64,-171.32 1808.11,-103.83 1768.5,-72 1711.4,-26.12 1202.8,-19.89 1032.09,-19.1"/>
<ellipse fill="black" stroke="black" cx="1787.09" cy="-211.9" rx="4" ry="4"/>
</g>
<!-- midas_midas_var1d -->
<g id="node37" class="node">
<title>midas_midas_var1d</title>
<g id="a_node37"><a xlink:href="../programs/midas_var1d.html" xlink:title="midas_midas_var1d">
<polygon fill="gray" stroke="green" points="1937.5,-324 1811.5,-324 1811.5,-288 1937.5,-288 1937.5,-324"/>
<text text-anchor="middle" x="1874.5" y="-302.3" font-family="Times,serif" font-size="14.00">midas_midas_var1d</text>
</a>
</g>
</g>
<!-- midas_midas_var1d&#45;&gt;columndata_mod -->
<g id="edge36" class="edge">
<title>midas_midas_var1d&#45;&gt;columndata_mod</title>
<path fill="none" stroke="black" d="M1874.62,-279.69C1873.3,-229.98 1862.43,-120.23 1794.5,-72 1732.64,-28.08 1206.23,-20.55 1032.14,-19.27"/>
<ellipse fill="black" stroke="black" cx="1874.69" cy="-283.97" rx="4" ry="4"/>
</g>
<!-- midas_midas_var -->
<g id="node38" class="node">
<title>midas_midas_var</title>
<g id="a_node38"><a xlink:href="../programs/midas_var.html" xlink:title="midas_midas_var">
<polygon fill="gray" stroke="green" points="2022,-396 1909,-396 1909,-360 2022,-360 2022,-396"/>
<text text-anchor="middle" x="1965.5" y="-374.3" font-family="Times,serif" font-size="14.00">midas_midas_var</text>
</a>
</g>
</g>
<!-- midas_midas_var&#45;&gt;columndata_mod -->
<g id="edge37" class="edge">
<title>midas_midas_var&#45;&gt;columndata_mod</title>
<path fill="none" stroke="black" d="M1965.5,-351.78C1965.5,-323.39 1965.5,-275.89 1965.5,-235 1965.5,-235 1965.5,-235 1965.5,-161 1965.5,-87.27 1895.62,-94.79 1825.5,-72 1677.33,-23.83 1196.65,-19.06 1032.24,-18.87"/>
<ellipse fill="black" stroke="black" cx="1965.5" cy="-355.95" rx="4" ry="4"/>
</g>
</g>
</svg>
