<?xml version="1.0" encoding="UTF-8" standalone="no"?>
<!DOCTYPE svg PUBLIC "-//W3C//DTD SVG 1.1//EN"
 "http://www.w3.org/Graphics/SVG/1.1/DTD/svg11.dtd">
<!-- Generated by graphviz version 3.0.0 (20220315.2325)
 -->
<!-- Title: columnvariabletransforms_mod Pages: 1 -->
<svg width="379pt" height="313pt"
 viewBox="0.00 0.00 379.00 313.00" xmlns="http://www.w3.org/2000/svg" xmlns:xlink="http://www.w3.org/1999/xlink">
<g id="graph0" class="graph" transform="scale(1 1) rotate(0) translate(4 309)">
<title>columnvariabletransforms_mod</title>
<polygon fill="white" stroke="transparent" points="-4,4 -4,-309 375,-309 375,4 -4,4"/>
<text text-anchor="middle" x="185.5" y="-37.8" font-family="Times,serif" font-size="14.00">Red boxes indicate modules with dependencies not shown</text>
<text text-anchor="middle" x="185.5" y="-22.8" font-family="Times,serif" font-size="14.00">Lower level dependencies can be shown by clicking on a red box</text>
<text text-anchor="middle" x="185.5" y="-7.8" font-family="Times,serif" font-size="14.00">Shaded boxes indicate modules with no dependencies</text>
<!-- columnvariabletransforms_mod -->
<g id="node1" class="node">
<title>columnvariabletransforms_mod</title>
<g id="a_node1"><a xlink:href="columnvariabletransforms_mod.html" xlink:title="columnvariabletransforms_mod">
<polygon fill="none" stroke="black" points="313.25,-305 124.25,-305 124.25,-269 313.25,-269 313.25,-305"/>
<text text-anchor="middle" x="218.75" y="-283.3" font-family="Times,serif" font-size="14.00">columnvariabletransforms_mod</text>
</a>
</g>
</g>
<!-- calcheightandpressure_mod -->
<g id="node2" class="node">
<title>calcheightandpressure_mod</title>
<g id="a_node2"><a xlink:href="../modules/calcheightandpressure_mod.svg" xlink:title="calcheightandpressure_mod">
<polygon fill="none" stroke="red" points="191.25,-233 24.25,-233 24.25,-197 191.25,-197 191.25,-233"/>
<text text-anchor="middle" x="107.75" y="-211.3" font-family="Times,serif" font-size="14.00">calcheightandpressure_mod</text>
</a>
</g>
</g>
<!-- columnvariabletransforms_mod&#45;&gt;calcheightandpressure_mod -->
<g id="edge1" class="edge">
<title>columnvariabletransforms_mod&#45;&gt;calcheightandpressure_mod</title>
<path fill="none" stroke="black" d="M191.6,-268.88C177.22,-259.81 159.37,-248.55 143.84,-238.76"/>
<polygon fill="black" stroke="black" points="145.33,-235.56 135.01,-233.19 141.6,-241.48 145.33,-235.56"/>
</g>
<!-- columndata_mod -->
<g id="node3" class="node">
<title>columndata_mod</title>
<g id="a_node3"><a xlink:href="../modules/columndata_mod.svg" xlink:title="columndata_mod">
<polygon fill="none" stroke="red" points="274.25,-161 163.25,-161 163.25,-125 274.25,-125 274.25,-161"/>
<text text-anchor="middle" x="218.75" y="-139.3" font-family="Times,serif" font-size="14.00">columndata_mod</text>
</a>
</g>
</g>
<!-- columnvariabletransforms_mod&#45;&gt;columndata_mod -->
<g id="edge2" class="edge">
<title>columnvariabletransforms_mod&#45;&gt;columndata_mod</title>
<path fill="none" stroke="black" d="M218.75,-268.87C218.75,-244.67 218.75,-200.21 218.75,-171.39"/>
<polygon fill="black" stroke="black" points="222.25,-171.19 218.75,-161.19 215.25,-171.19 222.25,-171.19"/>
</g>
<!-- utilities_mod -->
<g id="node4" class="node">
<title>utilities_mod</title>
<g id="a_node4"><a xlink:href="../modules/utilities_mod.svg" xlink:title="utilities_mod">
<polygon fill="none" stroke="red" points="346.75,-89 258.75,-89 258.75,-53 346.75,-53 346.75,-89"/>
<text text-anchor="middle" x="302.75" y="-67.3" font-family="Times,serif" font-size="14.00">utilities_mod</text>
</a>
</g>
</g>
<!-- columnvariabletransforms_mod&#45;&gt;utilities_mod -->
<g id="edge3" class="edge">
<title>columnvariabletransforms_mod&#45;&gt;utilities_mod</title>
<path fill="none" stroke="black" d="M229.32,-268.83C243.38,-245.3 268.15,-201.35 282.75,-161 290.06,-140.8 295.23,-117.03 298.49,-99.13"/>
<polygon fill="black" stroke="black" points="301.97,-99.54 300.23,-89.09 295.07,-98.35 301.97,-99.54"/>
</g>
</g>
</svg>
