<?xml version="1.0" encoding="UTF-8" standalone="no"?>
<!DOCTYPE svg PUBLIC "-//W3C//DTD SVG 1.1//EN"
 "http://www.w3.org/Graphics/SVG/1.1/DTD/svg11.dtd">
<!-- Generated by graphviz version 3.0.0 (20220315.2325)
 -->
<!-- Title: controlvector_mod Pages: 1 -->
<svg width="926pt" height="673pt"
 viewBox="0.00 0.00 926.00 673.00" xmlns="http://www.w3.org/2000/svg" xmlns:xlink="http://www.w3.org/1999/xlink">
<g id="graph0" class="graph" transform="scale(1 1) rotate(0) translate(4 669)">
<title>controlvector_mod</title>
<polygon fill="white" stroke="transparent" points="-4,4 -4,-669 922,-669 922,4 -4,4"/>
<text text-anchor="middle" x="459" y="-649.8" font-family="Times,serif" font-size="14.00">Blue boxes indicate modules with reverse dependencies not shown</text>
<text text-anchor="middle" x="459" y="-634.8" font-family="Times,serif" font-size="14.00">Higher level reverse dependencies can be shown by clicking on a blue box</text>
<text text-anchor="middle" x="459" y="-619.8" font-family="Times,serif" font-size="14.00">Green boxes are programs</text>
<!-- controlvector_mod -->
<g id="node1" class="node">
<title>controlvector_mod</title>
<g id="a_node1"><a xlink:href="controlvector_mod.html" xlink:title="controlvector_mod">
<polygon fill="none" stroke="black" points="441.5,-36 323.5,-36 323.5,0 441.5,0 441.5,-36"/>
<text text-anchor="middle" x="382.5" y="-14.3" font-family="Times,serif" font-size="14.00">controlvector_mod</text>
</a>
</g>
</g>
<!-- biascorrectionsat_mod -->
<g id="node2" class="node">
<title>biascorrectionsat_mod</title>
<g id="a_node2"><a xlink:href="../modules/biascorrectionsat_mod_rev.svg" xlink:title="biascorrectionsat_mod">
<polygon fill="none" stroke="blue" points="139,-108 0,-108 0,-72 139,-72 139,-108"/>
<text text-anchor="middle" x="69.5" y="-86.3" font-family="Times,serif" font-size="14.00">biascorrectionsat_mod</text>
</a>
</g>
</g>
<!-- biascorrectionsat_mod&#45;&gt;controlvector_mod -->
<g id="edge1" class="edge">
<title>biascorrectionsat_mod&#45;&gt;controlvector_mod</title>
<path fill="none" stroke="black" d="M147.27,-71.61C201.78,-59.42 273.52,-43.37 323.38,-32.22"/>
<ellipse fill="black" stroke="black" cx="143.26" cy="-72.5" rx="4" ry="4"/>
</g>
<!-- bmatrix1dvar_mod -->
<g id="node3" class="node">
<title>bmatrix1dvar_mod</title>
<g id="a_node3"><a xlink:href="../modules/bmatrix1dvar_mod_rev.svg" xlink:title="bmatrix1dvar_mod">
<polygon fill="none" stroke="blue" points="202,-180 83,-180 83,-144 202,-144 202,-180"/>
<text text-anchor="middle" x="142.5" y="-158.3" font-family="Times,serif" font-size="14.00">bmatrix1dvar_mod</text>
</a>
</g>
</g>
<!-- bmatrix1dvar_mod&#45;&gt;controlvector_mod -->
<g id="edge2" class="edge">
<title>bmatrix1dvar_mod&#45;&gt;controlvector_mod</title>
<path fill="none" stroke="black" d="M157.06,-136.73C170.25,-116.7 191.42,-88.91 216.5,-72 248.48,-50.44 289.79,-37.21 323.19,-29.36"/>
<ellipse fill="black" stroke="black" cx="154.73" cy="-140.36" rx="4" ry="4"/>
</g>
<!-- bmatrix_mod -->
<g id="node4" class="node">
<title>bmatrix_mod</title>
<g id="a_node4"><a xlink:href="../modules/bmatrix_mod_rev.svg" xlink:title="bmatrix_mod">
<polygon fill="none" stroke="blue" points="240,-252 151,-252 151,-216 240,-216 240,-252"/>
<text text-anchor="middle" x="195.5" y="-230.3" font-family="Times,serif" font-size="14.00">bmatrix_mod</text>
</a>
</g>
</g>
<!-- bmatrix_mod&#45;&gt;controlvector_mod -->
<g id="edge3" class="edge">
<title>bmatrix_mod&#45;&gt;controlvector_mod</title>
<path fill="none" stroke="black" d="M203.34,-208.29C217.02,-165.74 244.72,-82.19 254.5,-72 272.9,-52.82 299.26,-40.33 323.29,-32.32"/>
<ellipse fill="black" stroke="black" cx="202.1" cy="-212.17" rx="4" ry="4"/>
</g>
<!-- enspostprocess_mod -->
<g id="node5" class="node">
<title>enspostprocess_mod</title>
<g id="a_node5"><a xlink:href="../modules/enspostprocess_mod_rev.svg" xlink:title="enspostprocess_mod">
<polygon fill="none" stroke="blue" points="278.5,-324 150.5,-324 150.5,-288 278.5,-288 278.5,-324"/>
<text text-anchor="middle" x="214.5" y="-302.3" font-family="Times,serif" font-size="14.00">enspostprocess_mod</text>
</a>
</g>
</g>
<!-- enspostprocess_mod&#45;&gt;controlvector_mod -->
<g id="edge4" class="edge">
<title>enspostprocess_mod&#45;&gt;controlvector_mod</title>
<path fill="none" stroke="black" d="M232.29,-280.98C238.13,-272.21 244.22,-261.99 248.5,-252 280.95,-176.31 243.37,-138.1 292.5,-72 304.07,-56.43 321.7,-44.61 338.29,-36.14"/>
<ellipse fill="black" stroke="black" cx="229.96" cy="-284.38" rx="4" ry="4"/>
</g>
<!-- fsoi_mod -->
<g id="node6" class="node">
<title>fsoi_mod</title>
<g id="a_node6"><a xlink:href="../modules/fsoi_mod_rev.svg" xlink:title="fsoi_mod">
<polygon fill="none" stroke="blue" points="316.5,-396 248.5,-396 248.5,-360 316.5,-360 316.5,-396"/>
<text text-anchor="middle" x="282.5" y="-374.3" font-family="Times,serif" font-size="14.00">fsoi_mod</text>
</a>
</g>
</g>
<!-- fsoi_mod&#45;&gt;controlvector_mod -->
<g id="edge5" class="edge">
<title>fsoi_mod&#45;&gt;controlvector_mod</title>
<path fill="none" stroke="black" d="M289.36,-351.9C296.45,-323.69 306.5,-276.42 306.5,-235 306.5,-235 306.5,-235 306.5,-161 306.5,-120.03 310.16,-107.56 330.5,-72 338.31,-58.35 350.49,-45.67 361.09,-36.14"/>
<ellipse fill="black" stroke="black" cx="288.35" cy="-355.8" rx="4" ry="4"/>
</g>
<!-- minimization_mod -->
<g id="node7" class="node">
<title>minimization_mod</title>
<g id="a_node7"><a xlink:href="../modules/minimization_mod_rev.svg" xlink:title="minimization_mod">
<polygon fill="none" stroke="blue" points="354,-468 233,-468 233,-432 354,-432 354,-468"/>
<text text-anchor="middle" x="293.5" y="-446.3" font-family="Times,serif" font-size="14.00">minimization_mod</text>
</a>
</g>
</g>
<!-- minimization_mod&#45;&gt;controlvector_mod -->
<g id="edge6" class="edge">
<title>minimization_mod&#45;&gt;controlvector_mod</title>
<path fill="none" stroke="black" d="M310.52,-424.66C315.98,-415.95 321.61,-405.84 325.5,-396 340.38,-358.39 344.5,-347.45 344.5,-307 344.5,-307 344.5,-307 344.5,-161 344.5,-114.55 363.71,-62.38 374.81,-36.09"/>
<ellipse fill="black" stroke="black" cx="308.19" cy="-428.26" rx="4" ry="4"/>
</g>
<!-- obsspacediag_mod -->
<g id="node8" class="node">
<title>obsspacediag_mod</title>
<g id="a_node8"><a xlink:href="../modules/obsspacediag_mod_rev.svg" xlink:title="obsspacediag_mod">
<polygon fill="none" stroke="blue" points="392,-540 273,-540 273,-504 392,-504 392,-540"/>
<text text-anchor="middle" x="332.5" y="-518.3" font-family="Times,serif" font-size="14.00">obsspacediag_mod</text>
</a>
</g>
</g>
<!-- obsspacediag_mod&#45;&gt;controlvector_mod -->
<g id="edge7" class="edge">
<title>obsspacediag_mod&#45;&gt;controlvector_mod</title>
<path fill="none" stroke="black" d="M348.11,-496.93C353.29,-488.11 358.7,-477.87 362.5,-468 377.09,-430.17 382.5,-419.54 382.5,-379 382.5,-379 382.5,-379 382.5,-161 382.5,-115.89 382.5,-62.71 382.5,-36.05"/>
<ellipse fill="black" stroke="black" cx="345.92" cy="-500.55" rx="4" ry="4"/>
</g>
<!-- midas_midas_diagbmatrix -->
<g id="node9" class="node">
<title>midas_midas_diagbmatrix</title>
<g id="a_node9"><a xlink:href="../programs/midas_diagbmatrix.html" xlink:title="midas_midas_diagbmatrix">
<polygon fill="gray" stroke="green" points="501,-612 340,-612 340,-576 501,-576 501,-612"/>
<text text-anchor="middle" x="420.5" y="-590.3" font-family="Times,serif" font-size="14.00">midas_midas_diagbmatrix</text>
</a>
</g>
</g>
<!-- midas_midas_diagbmatrix&#45;&gt;controlvector_mod -->
<g id="edge8" class="edge">
<title>midas_midas_diagbmatrix&#45;&gt;controlvector_mod</title>
<path fill="none" stroke="black" d="M420.5,-567.78C420.5,-539.39 420.5,-491.89 420.5,-451 420.5,-451 420.5,-451 420.5,-161 420.5,-114.55 401.29,-62.38 390.19,-36.09"/>
<ellipse fill="black" stroke="black" cx="420.5" cy="-571.95" rx="4" ry="4"/>
</g>
<!-- midas_midas_diaghbht -->
<g id="node10" class="node">
<title>midas_midas_diaghbht</title>
<g id="a_node10"><a xlink:href="../programs/midas_diaghbht.html" xlink:title="midas_midas_diaghbht">
<polygon fill="gray" stroke="green" points="592,-108 449,-108 449,-72 592,-72 592,-108"/>
<text text-anchor="middle" x="520.5" y="-86.3" font-family="Times,serif" font-size="14.00">midas_midas_diaghbht</text>
</a>
</g>
</g>
<!-- midas_midas_diaghbht&#45;&gt;controlvector_mod -->
<g id="edge9" class="edge">
<title>midas_midas_diaghbht&#45;&gt;controlvector_mod</title>
<path fill="none" stroke="black" d="M479.52,-68.21C459.4,-58.01 435.46,-45.86 416.39,-36.19"/>
<ellipse fill="black" stroke="black" cx="483.17" cy="-70.07" rx="4" ry="4"/>
</g>
<!-- midas_midas_extractbmatrixfor1dvar -->
<g id="node11" class="node">
<title>midas_midas_extractbmatrixfor1dvar</title>
<g id="a_node11"><a xlink:href="../programs/midas_extractbmatrixfor1dvar.html" xlink:title="midas_midas_extractbmatrixfor1dvar">
<polygon fill="gray" stroke="green" points="670,-180 449,-180 449,-144 670,-144 670,-180"/>
<text text-anchor="middle" x="559.5" y="-158.3" font-family="Times,serif" font-size="14.00">midas_midas_extractbmatrixfor1dvar</text>
</a>
</g>
</g>
<!-- midas_midas_extractbmatrixfor1dvar&#45;&gt;controlvector_mod -->
<g id="edge10" class="edge">
<title>midas_midas_extractbmatrixfor1dvar&#45;&gt;controlvector_mod</title>
<path fill="none" stroke="black" d="M583.16,-137.85C599.67,-118.86 616.18,-91.95 600.5,-72 581.06,-47.27 499.39,-32.65 441.74,-25.23"/>
<ellipse fill="black" stroke="black" cx="580.3" cy="-141.01" rx="4" ry="4"/>
</g>
<!-- midas_midas_randompert -->
<g id="node12" class="node">
<title>midas_midas_randompert</title>
<g id="a_node12"><a xlink:href="../programs/midas_randompert.html" xlink:title="midas_midas_randompert">
<polygon fill="gray" stroke="green" points="743,-252 584,-252 584,-216 743,-216 743,-252"/>
<text text-anchor="middle" x="663.5" y="-230.3" font-family="Times,serif" font-size="14.00">midas_midas_randompert</text>
</a>
</g>
</g>
<!-- midas_midas_randompert&#45;&gt;controlvector_mod -->
<g id="edge11" class="edge">
<title>midas_midas_randompert&#45;&gt;controlvector_mod</title>
<path fill="none" stroke="black" d="M674.37,-207.97C680.68,-189.79 686.04,-164.83 678.5,-144 664.32,-104.83 654.04,-93.72 618.5,-72 564.39,-38.94 492.01,-26.44 441.73,-21.75"/>
<ellipse fill="black" stroke="black" cx="672.84" cy="-212.06" rx="4" ry="4"/>
</g>
<!-- midas_midas_var1d -->
<g id="node13" class="node">
<title>midas_midas_var1d</title>
<g id="a_node13"><a xlink:href="../programs/midas_var1d.html" xlink:title="midas_midas_var1d">
<polygon fill="gray" stroke="green" points="833.5,-324 707.5,-324 707.5,-288 833.5,-288 833.5,-324"/>
<text text-anchor="middle" x="770.5" y="-302.3" font-family="Times,serif" font-size="14.00">midas_midas_var1d</text>
</a>
</g>
</g>
<!-- midas_midas_var1d&#45;&gt;controlvector_mod -->
<g id="edge12" class="edge">
<title>midas_midas_var1d&#45;&gt;controlvector_mod</title>
<path fill="none" stroke="black" d="M767.66,-279.31C765.02,-261.1 760.15,-236.37 751.5,-216 721.34,-144.97 718.82,-114.63 654.5,-72 620.26,-49.31 510.69,-33.31 441.51,-25.17"/>
<ellipse fill="black" stroke="black" cx="768.25" cy="-283.72" rx="4" ry="4"/>
</g>
<!-- midas_midas_var -->
<g id="node14" class="node">
<title>midas_midas_var</title>
<g id="a_node14"><a xlink:href="../programs/midas_var.html" xlink:title="midas_midas_var">
<polygon fill="gray" stroke="green" points="918,-396 805,-396 805,-360 918,-360 918,-396"/>
<text text-anchor="middle" x="861.5" y="-374.3" font-family="Times,serif" font-size="14.00">midas_midas_var</text>
</a>
</g>
</g>
<!-- midas_midas_var&#45;&gt;controlvector_mod -->
<g id="edge13" class="edge">
<title>midas_midas_var&#45;&gt;controlvector_mod</title>
<path fill="none" stroke="black" d="M861.5,-351.78C861.5,-323.39 861.5,-275.89 861.5,-235 861.5,-235 861.5,-235 861.5,-161 861.5,-74.37 569.87,-36.48 441.72,-24.01"/>
<ellipse fill="black" stroke="black" cx="861.5" cy="-355.95" rx="4" ry="4"/>
</g>
</g>
</svg>
