<?xml version="1.0" encoding="UTF-8" standalone="no"?>
<!DOCTYPE svg PUBLIC "-//W3C//DTD SVG 1.1//EN"
 "http://www.w3.org/Graphics/SVG/1.1/DTD/svg11.dtd">
<!-- Generated by graphviz version 3.0.0 (20220315.2325)
 -->
<!-- Title: costfunction_mod Pages: 1 -->
<svg width="395pt" height="529pt"
 viewBox="0.00 0.00 395.00 529.00" xmlns="http://www.w3.org/2000/svg" xmlns:xlink="http://www.w3.org/1999/xlink">
<g id="graph0" class="graph" transform="scale(1 1) rotate(0) translate(4 525)">
<title>costfunction_mod</title>
<polygon fill="white" stroke="transparent" points="-4,4 -4,-525 391,-525 391,4 -4,4"/>
<text text-anchor="middle" x="193.5" y="-37.8" font-family="Times,serif" font-size="14.00">Red boxes indicate modules with dependencies not shown</text>
<text text-anchor="middle" x="193.5" y="-22.8" font-family="Times,serif" font-size="14.00">Lower level dependencies can be shown by clicking on a red box</text>
<text text-anchor="middle" x="193.5" y="-7.8" font-family="Times,serif" font-size="14.00">Shaded boxes indicate modules with no dependencies</text>
<!-- costfunction_mod -->
<g id="node1" class="node">
<title>costfunction_mod</title>
<g id="a_node1"><a xlink:href="costfunction_mod.html" xlink:title="costfunction_mod">
<polygon fill="none" stroke="black" points="246,-521 132,-521 132,-485 246,-485 246,-521"/>
<text text-anchor="middle" x="189" y="-499.3" font-family="Times,serif" font-size="14.00">costfunction_mod</text>
</a>
</g>
</g>
<!-- codtyp_mod -->
<g id="node2" class="node">
<title>codtyp_mod</title>
<g id="a_node2"><a xlink:href="../modules/codtyp_mod.svg" xlink:title="codtyp_mod">
<polygon fill="none" stroke="red" points="84,-449 0,-449 0,-413 84,-413 84,-449"/>
<text text-anchor="middle" x="42" y="-427.3" font-family="Times,serif" font-size="14.00">codtyp_mod</text>
</a>
</g>
</g>
<!-- costfunction_mod&#45;&gt;codtyp_mod -->
<g id="edge1" class="edge">
<title>costfunction_mod&#45;&gt;codtyp_mod</title>
<path fill="none" stroke="black" d="M153.04,-484.88C133.12,-475.39 108.18,-463.51 86.98,-453.42"/>
<polygon fill="black" stroke="black" points="88.38,-450.21 77.84,-449.07 85.37,-456.53 88.38,-450.21"/>
</g>
<!-- midasmpi_mod -->
<g id="node3" class="node">
<title>midasmpi_mod</title>
<g id="a_node3"><a xlink:href="../modules/midasmpi_mod.svg" xlink:title="midasmpi_mod">
<polygon fill="none" stroke="red" points="141.5,-377 40.5,-377 40.5,-341 141.5,-341 141.5,-377"/>
<text text-anchor="middle" x="91" y="-355.3" font-family="Times,serif" font-size="14.00">midasmpi_mod</text>
</a>
</g>
</g>
<!-- costfunction_mod&#45;&gt;midasmpi_mod -->
<g id="edge2" class="edge">
<title>costfunction_mod&#45;&gt;midasmpi_mod</title>
<path fill="none" stroke="black" d="M177.18,-484.87C160.11,-460.14 128.43,-414.24 108.61,-385.51"/>
<polygon fill="black" stroke="black" points="111.42,-383.43 102.86,-377.19 105.66,-387.41 111.42,-383.43"/>
</g>
<!-- obserrors_mod -->
<g id="node4" class="node">
<title>obserrors_mod</title>
<g id="a_node4"><a xlink:href="../modules/obserrors_mod.svg" xlink:title="obserrors_mod">
<polygon fill="none" stroke="red" points="180,-305 82,-305 82,-269 180,-269 180,-305"/>
<text text-anchor="middle" x="131" y="-283.3" font-family="Times,serif" font-size="14.00">obserrors_mod</text>
</a>
</g>
</g>
<!-- costfunction_mod&#45;&gt;obserrors_mod -->
<g id="edge3" class="edge">
<title>costfunction_mod&#45;&gt;obserrors_mod</title>
<path fill="none" stroke="black" d="M185.49,-484.92C179.27,-455.35 165.51,-392.8 150,-341 147.41,-332.35 144.21,-323.03 141.18,-314.66"/>
<polygon fill="black" stroke="black" points="144.38,-313.2 137.63,-305.03 137.81,-315.63 144.38,-313.2"/>
</g>
<!-- obsspacedata_mod -->
<g id="node5" class="node">
<title>obsspacedata_mod</title>
<g id="a_node5"><a xlink:href="../modules/obsspacedata_mod.svg" xlink:title="obsspacedata_mod">
<polygon fill="none" stroke="red" points="243,-233 125,-233 125,-197 243,-197 243,-233"/>
<text text-anchor="middle" x="184" y="-211.3" font-family="Times,serif" font-size="14.00">obsspacedata_mod</text>
</a>
</g>
</g>
<!-- costfunction_mod&#45;&gt;obsspacedata_mod -->
<g id="edge4" class="edge">
<title>costfunction_mod&#45;&gt;obsspacedata_mod</title>
<path fill="none" stroke="black" d="M189.55,-484.74C190.67,-446.08 192.79,-349.61 189,-269 188.61,-260.66 187.87,-251.6 187.08,-243.37"/>
<polygon fill="black" stroke="black" points="190.53,-242.75 186.03,-233.16 183.57,-243.46 190.53,-242.75"/>
</g>
<!-- tovs_nl_mod -->
<g id="node6" class="node">
<title>tovs_nl_mod</title>
<g id="a_node6"><a xlink:href="../modules/tovs_nl_mod.svg" xlink:title="tovs_nl_mod">
<polygon fill="none" stroke="red" points="314.5,-161 227.5,-161 227.5,-125 314.5,-125 314.5,-161"/>
<text text-anchor="middle" x="271" y="-139.3" font-family="Times,serif" font-size="14.00">tovs_nl_mod</text>
</a>
</g>
</g>
<!-- costfunction_mod&#45;&gt;tovs_nl_mod -->
<g id="edge5" class="edge">
<title>costfunction_mod&#45;&gt;tovs_nl_mod</title>
<path fill="none" stroke="black" d="M207.2,-484.6C231.36,-459.53 271,-410.67 271,-360 271,-360 271,-360 271,-286 271,-246 271,-199.65 271,-171.08"/>
<polygon fill="black" stroke="black" points="274.5,-171.05 271,-161.05 267.5,-171.05 274.5,-171.05"/>
</g>
<!-- utilities_mod -->
<g id="node7" class="node">
<title>utilities_mod</title>
<g id="a_node7"><a xlink:href="../modules/utilities_mod.svg" xlink:title="utilities_mod">
<polygon fill="none" stroke="red" points="387,-89 299,-89 299,-53 387,-53 387,-89"/>
<text text-anchor="middle" x="343" y="-67.3" font-family="Times,serif" font-size="14.00">utilities_mod</text>
</a>
</g>
</g>
<!-- costfunction_mod&#45;&gt;utilities_mod -->
<g id="edge6" class="edge">
<title>costfunction_mod&#45;&gt;utilities_mod</title>
<path fill="none" stroke="black" d="M231.08,-484.86C276.68,-463.16 343,-421.1 343,-360 343,-360 343,-360 343,-214 343,-174 343,-127.65 343,-99.08"/>
<polygon fill="black" stroke="black" points="346.5,-99.05 343,-89.05 339.5,-99.05 346.5,-99.05"/>
</g>
</g>
</svg>
