<?xml version="1.0" encoding="UTF-8" standalone="no"?>
<!DOCTYPE svg PUBLIC "-//W3C//DTD SVG 1.1//EN"
 "http://www.w3.org/Graphics/SVG/1.1/DTD/svg11.dtd">
<!-- Generated by graphviz version 3.0.0 (20220315.2325)
 -->
<!-- Title: costfunction_mod Pages: 1 -->
<svg width="430pt" height="313pt"
 viewBox="0.00 0.00 430.00 313.00" xmlns="http://www.w3.org/2000/svg" xmlns:xlink="http://www.w3.org/1999/xlink">
<g id="graph0" class="graph" transform="scale(1 1) rotate(0) translate(4 309)">
<title>costfunction_mod</title>
<polygon fill="white" stroke="transparent" points="-4,4 -4,-309 426,-309 426,4 -4,4"/>
<text text-anchor="middle" x="211" y="-289.8" font-family="Times,serif" font-size="14.00">Blue boxes indicate modules with reverse dependencies not shown</text>
<text text-anchor="middle" x="211" y="-274.8" font-family="Times,serif" font-size="14.00">Higher level reverse dependencies can be shown by clicking on a blue box</text>
<text text-anchor="middle" x="211" y="-259.8" font-family="Times,serif" font-size="14.00">Green boxes are programs</text>
<!-- costfunction_mod -->
<g id="node1" class="node">
<title>costfunction_mod</title>
<g id="a_node1"><a xlink:href="costfunction_mod.html" xlink:title="costfunction_mod">
<polygon fill="none" stroke="black" points="245.75,-36 131.75,-36 131.75,0 245.75,0 245.75,-36"/>
<text text-anchor="middle" x="188.75" y="-14.3" font-family="Times,serif" font-size="14.00">costfunction_mod</text>
</a>
</g>
</g>
<!-- fsoi_mod -->
<g id="node2" class="node">
<title>fsoi_mod</title>
<g id="a_node2"><a xlink:href="../modules/fsoi_mod_rev.svg" xlink:title="fsoi_mod">
<polygon fill="none" stroke="blue" points="160.75,-108 92.75,-108 92.75,-72 160.75,-72 160.75,-108"/>
<text text-anchor="middle" x="126.75" y="-86.3" font-family="Times,serif" font-size="14.00">fsoi_mod</text>
</a>
</g>
</g>
<!-- fsoi_mod&#45;&gt;costfunction_mod -->
<g id="edge1" class="edge">
<title>fsoi_mod&#45;&gt;costfunction_mod</title>
<path fill="none" stroke="black" d="M147.49,-65.59C156.03,-55.94 165.74,-44.97 173.6,-36.1"/>
<ellipse fill="black" stroke="black" cx="144.73" cy="-68.7" rx="4" ry="4"/>
</g>
<!-- innovation_mod -->
<g id="node3" class="node">
<title>innovation_mod</title>
<g id="a_node3"><a xlink:href="../modules/innovation_mod_rev.svg" xlink:title="innovation_mod">
<polygon fill="none" stroke="blue" points="240.75,-180 136.75,-180 136.75,-144 240.75,-144 240.75,-180"/>
<text text-anchor="middle" x="188.75" y="-158.3" font-family="Times,serif" font-size="14.00">innovation_mod</text>
</a>
</g>
</g>
<!-- innovation_mod&#45;&gt;costfunction_mod -->
<g id="edge2" class="edge">
<title>innovation_mod&#45;&gt;costfunction_mod</title>
<path fill="none" stroke="black" d="M188.75,-135.56C188.75,-106.86 188.75,-60.96 188.75,-36.19"/>
<ellipse fill="black" stroke="black" cx="188.75" cy="-139.87" rx="4" ry="4"/>
</g>
<!-- minimization_mod -->
<g id="node4" class="node">
<title>minimization_mod</title>
<g id="a_node4"><a xlink:href="../modules/minimization_mod_rev.svg" xlink:title="minimization_mod">
<polygon fill="none" stroke="blue" points="329.25,-252 208.25,-252 208.25,-216 329.25,-216 329.25,-252"/>
<text text-anchor="middle" x="268.75" y="-230.3" font-family="Times,serif" font-size="14.00">minimization_mod</text>
</a>
</g>
</g>
<!-- minimization_mod&#45;&gt;costfunction_mod -->
<g id="edge3" class="edge">
<title>minimization_mod&#45;&gt;costfunction_mod</title>
<path fill="none" stroke="black" d="M265.03,-207.65C261.97,-189.59 256.97,-164.92 249.75,-144 235.89,-103.82 212.26,-59.81 198.84,-36.22"/>
<ellipse fill="black" stroke="black" cx="265.73" cy="-211.99" rx="4" ry="4"/>
</g>
</g>
</svg>
