<?xml version="1.0" encoding="UTF-8" standalone="no"?>
<!DOCTYPE svg PUBLIC "-//W3C//DTD SVG 1.1//EN"
 "http://www.w3.org/Graphics/SVG/1.1/DTD/svg11.dtd">
<!-- Generated by graphviz version 3.0.0 (20220315.2325)
 -->
<!-- Title: diffusion_mod Pages: 1 -->
<svg width="598pt" height="673pt"
 viewBox="0.00 0.00 597.50 673.00" xmlns="http://www.w3.org/2000/svg" xmlns:xlink="http://www.w3.org/1999/xlink">
<g id="graph0" class="graph" transform="scale(1 1) rotate(0) translate(4 669)">
<title>diffusion_mod</title>
<polygon fill="white" stroke="transparent" points="-4,4 -4,-669 593.5,-669 593.5,4 -4,4"/>
<text text-anchor="middle" x="294.75" y="-37.8" font-family="Times,serif" font-size="14.00">Red boxes indicate modules with dependencies not shown</text>
<text text-anchor="middle" x="294.75" y="-22.8" font-family="Times,serif" font-size="14.00">Lower level dependencies can be shown by clicking on a red box</text>
<text text-anchor="middle" x="294.75" y="-7.8" font-family="Times,serif" font-size="14.00">Shaded boxes indicate modules with no dependencies</text>
<!-- diffusion_mod -->
<g id="node1" class="node">
<title>diffusion_mod</title>
<g id="a_node1"><a xlink:href="diffusion_mod.html" xlink:title="diffusion_mod">
<polygon fill="none" stroke="black" points="349,-665 254,-665 254,-629 349,-629 349,-665"/>
<text text-anchor="middle" x="301.5" y="-643.3" font-family="Times,serif" font-size="14.00">diffusion_mod</text>
</a>
</g>
</g>
<!-- earthconstants_mod -->
<g id="node2" class="node">
<title>earthconstants_mod</title>
<g id="a_node2"><a xlink:href="../modules/earthconstants_mod.svg" xlink:title="earthconstants_mod">
<polygon fill="none" stroke="red" points="125,-593 0,-593 0,-557 125,-557 125,-593"/>
<text text-anchor="middle" x="62.5" y="-571.3" font-family="Times,serif" font-size="14.00">earthconstants_mod</text>
</a>
</g>
</g>
<!-- diffusion_mod&#45;&gt;earthconstants_mod -->
<g id="edge1" class="edge">
<title>diffusion_mod&#45;&gt;earthconstants_mod</title>
<path fill="none" stroke="black" d="M254,-632.09C218.73,-621.76 170.13,-607.52 130.72,-595.98"/>
<polygon fill="black" stroke="black" points="131.49,-592.56 120.91,-593.11 129.52,-599.28 131.49,-592.56"/>
</g>
<!-- gridstatevectorfileio_mod -->
<g id="node3" class="node">
<title>gridstatevectorfileio_mod</title>
<g id="a_node3"><a xlink:href="../modules/gridstatevectorfileio_mod.svg" xlink:title="gridstatevectorfileio_mod">
<polygon fill="none" stroke="red" points="197,-521 42,-521 42,-485 197,-485 197,-521"/>
<text text-anchor="middle" x="119.5" y="-499.3" font-family="Times,serif" font-size="14.00">gridstatevectorfileio_mod</text>
</a>
</g>
</g>
<!-- diffusion_mod&#45;&gt;gridstatevectorfileio_mod -->
<g id="edge2" class="edge">
<title>diffusion_mod&#45;&gt;gridstatevectorfileio_mod</title>
<path fill="none" stroke="black" d="M268.24,-628.89C250.72,-619.27 229.25,-606.51 211.5,-593 185.97,-573.57 159.97,-547.75 142.16,-528.92"/>
<polygon fill="black" stroke="black" points="144.44,-526.24 135.05,-521.32 139.32,-531.02 144.44,-526.24"/>
</g>
<!-- gridstatevector_mod -->
<g id="node4" class="node">
<title>gridstatevector_mod</title>
<g id="a_node4"><a xlink:href="../modules/gridstatevector_mod.svg" xlink:title="gridstatevector_mod">
<polygon fill="none" stroke="red" points="235,-449 108,-449 108,-413 235,-413 235,-449"/>
<text text-anchor="middle" x="171.5" y="-427.3" font-family="Times,serif" font-size="14.00">gridstatevector_mod</text>
</a>
</g>
</g>
<!-- diffusion_mod&#45;&gt;gridstatevector_mod -->
<g id="edge3" class="edge">
<title>diffusion_mod&#45;&gt;gridstatevector_mod</title>
<path fill="none" stroke="black" d="M281.28,-628.91C270.75,-619.21 258.28,-606.36 249.5,-593 221.04,-549.68 229.37,-531.01 205.5,-485 200.72,-475.78 194.8,-466.11 189.25,-457.58"/>
<polygon fill="black" stroke="black" points="192.12,-455.57 183.67,-449.18 186.29,-459.45 192.12,-455.57"/>
</g>
<!-- horizontalcoord_mod -->
<g id="node5" class="node">
<title>horizontalcoord_mod</title>
<g id="a_node5"><a xlink:href="../modules/horizontalcoord_mod.svg" xlink:title="horizontalcoord_mod">
<polygon fill="none" stroke="red" points="273,-377 140,-377 140,-341 273,-341 273,-377"/>
<text text-anchor="middle" x="206.5" y="-355.3" font-family="Times,serif" font-size="14.00">horizontalcoord_mod</text>
</a>
</g>
</g>
<!-- diffusion_mod&#45;&gt;horizontalcoord_mod -->
<g id="edge4" class="edge">
<title>diffusion_mod&#45;&gt;horizontalcoord_mod</title>
<path fill="none" stroke="black" d="M296.88,-628.84C294.11,-618.47 290.55,-604.99 287.5,-593 267.2,-513.18 277.43,-488.04 243.5,-413 239.18,-403.44 233.07,-393.79 227.07,-385.39"/>
<polygon fill="black" stroke="black" points="229.71,-383.08 220.93,-377.15 224.1,-387.26 229.71,-383.08"/>
</g>
<!-- midasmpi_mod -->
<g id="node6" class="node">
<title>midasmpi_mod</title>
<g id="a_node6"><a xlink:href="../modules/midasmpi_mod.svg" xlink:title="midasmpi_mod">
<polygon fill="none" stroke="red" points="311,-305 210,-305 210,-269 311,-269 311,-305"/>
<text text-anchor="middle" x="260.5" y="-283.3" font-family="Times,serif" font-size="14.00">midasmpi_mod</text>
</a>
</g>
</g>
<!-- diffusion_mod&#45;&gt;midasmpi_mod -->
<g id="edge5" class="edge">
<title>diffusion_mod&#45;&gt;midasmpi_mod</title>
<path fill="none" stroke="black" d="M301.5,-628.95C301.5,-602.29 301.5,-549.11 301.5,-504 301.5,-504 301.5,-504 301.5,-430 301.5,-388.41 285.06,-342.56 273,-314.51"/>
<polygon fill="black" stroke="black" points="276.05,-312.75 268.8,-305.03 269.65,-315.59 276.05,-312.75"/>
</g>
<!-- oceanmask_mod -->
<g id="node7" class="node">
<title>oceanmask_mod</title>
<g id="a_node7"><a xlink:href="../modules/oceanmask_mod.svg" xlink:title="oceanmask_mod">
<polygon fill="none" stroke="red" points="349,-233 242,-233 242,-197 349,-197 349,-233"/>
<text text-anchor="middle" x="295.5" y="-211.3" font-family="Times,serif" font-size="14.00">oceanmask_mod</text>
</a>
</g>
</g>
<!-- diffusion_mod&#45;&gt;oceanmask_mod -->
<g id="edge6" class="edge">
<title>diffusion_mod&#45;&gt;oceanmask_mod</title>
<path fill="none" stroke="black" d="M309.19,-628.91C320.29,-602.62 339.5,-550.45 339.5,-504 339.5,-504 339.5,-504 339.5,-358 339.5,-316.21 321.9,-270.48 308.96,-242.51"/>
<polygon fill="black" stroke="black" points="312.08,-240.92 304.62,-233.39 305.76,-243.93 312.08,-240.92"/>
</g>
<!-- randomnumber_mod -->
<g id="node8" class="node">
<title>randomnumber_mod</title>
<g id="a_node8"><a xlink:href="randomnumber_mod.html" xlink:title="randomnumber_mod">
<polygon fill="gray" stroke="black" points="415,-161 284,-161 284,-125 415,-125 415,-161"/>
<text text-anchor="middle" x="349.5" y="-139.3" font-family="Times,serif" font-size="14.00">randomnumber_mod</text>
</a>
</g>
</g>
<!-- diffusion_mod&#45;&gt;randomnumber_mod -->
<g id="edge7" class="edge">
<title>diffusion_mod&#45;&gt;randomnumber_mod</title>
<path fill="none" stroke="black" d="M317.99,-628.77C340.34,-603.53 377.5,-554.05 377.5,-504 377.5,-504 377.5,-504 377.5,-286 377.5,-245.27 366.27,-199.19 358.04,-170.86"/>
<polygon fill="black" stroke="black" points="361.39,-169.85 355.17,-161.27 354.68,-171.86 361.39,-169.85"/>
</g>
<!-- utilities_mod -->
<g id="node9" class="node">
<title>utilities_mod</title>
<g id="a_node9"><a xlink:href="../modules/utilities_mod.svg" xlink:title="utilities_mod">
<polygon fill="none" stroke="red" points="487.5,-89 399.5,-89 399.5,-53 487.5,-53 487.5,-89"/>
<text text-anchor="middle" x="443.5" y="-67.3" font-family="Times,serif" font-size="14.00">utilities_mod</text>
</a>
</g>
</g>
<!-- diffusion_mod&#45;&gt;utilities_mod -->
<g id="edge8" class="edge">
<title>diffusion_mod&#45;&gt;utilities_mod</title>
<path fill="none" stroke="black" d="M338.44,-628.95C380.51,-606.69 443.5,-563.44 443.5,-504 443.5,-504 443.5,-504 443.5,-214 443.5,-174 443.5,-127.65 443.5,-99.08"/>
<polygon fill="black" stroke="black" points="447,-99.05 443.5,-89.05 440,-99.05 447,-99.05"/>
</g>
<!-- verticalcoord_mod -->
<g id="node10" class="node">
<title>verticalcoord_mod</title>
<g id="a_node10"><a xlink:href="../modules/verticalcoord_mod.svg" xlink:title="verticalcoord_mod">
<polygon fill="none" stroke="red" points="589.5,-593 471.5,-593 471.5,-557 589.5,-557 589.5,-593"/>
<text text-anchor="middle" x="530.5" y="-571.3" font-family="Times,serif" font-size="14.00">verticalcoord_mod</text>
</a>
</g>
</g>
<!-- diffusion_mod&#45;&gt;verticalcoord_mod -->
<g id="edge9" class="edge">
<title>diffusion_mod&#45;&gt;verticalcoord_mod</title>
<path fill="none" stroke="black" d="M349.23,-631.41C382.8,-621.15 428.14,-607.29 465.08,-596"/>
<polygon fill="black" stroke="black" points="466.23,-599.31 474.77,-593.04 464.18,-592.61 466.23,-599.31"/>
</g>
</g>
</svg>
