<?xml version="1.0" encoding="UTF-8" standalone="no"?>
<!DOCTYPE svg PUBLIC "-//W3C//DTD SVG 1.1//EN"
 "http://www.w3.org/Graphics/SVG/1.1/DTD/svg11.dtd">
<!-- Generated by graphviz version 3.0.0 (20220315.2325)
 -->
<!-- Title: earthconstants_mod Pages: 1 -->
<svg width="1810pt" height="673pt"
 viewBox="0.00 0.00 1810.00 673.00" xmlns="http://www.w3.org/2000/svg" xmlns:xlink="http://www.w3.org/1999/xlink">
<g id="graph0" class="graph" transform="scale(1 1) rotate(0) translate(4 669)">
<title>earthconstants_mod</title>
<polygon fill="white" stroke="transparent" points="-4,4 -4,-669 1806,-669 1806,4 -4,4"/>
<text text-anchor="middle" x="901" y="-649.8" font-family="Times,serif" font-size="14.00">Blue boxes indicate modules with reverse dependencies not shown</text>
<text text-anchor="middle" x="901" y="-634.8" font-family="Times,serif" font-size="14.00">Higher level reverse dependencies can be shown by clicking on a blue box</text>
<text text-anchor="middle" x="901" y="-619.8" font-family="Times,serif" font-size="14.00">Green boxes are programs</text>
<!-- earthconstants_mod -->
<g id="node1" class="node">
<title>earthconstants_mod</title>
<g id="a_node1"><a xlink:href="earthconstants_mod.html" xlink:title="earthconstants_mod">
<polygon fill="none" stroke="black" points="962,-36 837,-36 837,0 962,0 962,-36"/>
<text text-anchor="middle" x="899.5" y="-14.3" font-family="Times,serif" font-size="14.00">earthconstants_mod</text>
</a>
</g>
</g>
<!-- advection_mod -->
<g id="node2" class="node">
<title>advection_mod</title>
<g id="a_node2"><a xlink:href="../modules/advection_mod_rev.svg" xlink:title="advection_mod">
<polygon fill="none" stroke="blue" points="99,-108 0,-108 0,-72 99,-72 99,-108"/>
<text text-anchor="middle" x="49.5" y="-86.3" font-family="Times,serif" font-size="14.00">advection_mod</text>
</a>
</g>
</g>
<!-- advection_mod&#45;&gt;earthconstants_mod -->
<g id="edge1" class="edge">
<title>advection_mod&#45;&gt;earthconstants_mod</title>
<path fill="none" stroke="black" d="M107.32,-73.11C109.4,-72.71 111.47,-72.34 113.5,-72 380.02,-28.04 703.12,-20.36 836.88,-19.15"/>
<ellipse fill="black" stroke="black" cx="103.18" cy="-73.97" rx="4" ry="4"/>
</g>
<!-- analysisgrid_mod -->
<g id="node3" class="node">
<title>analysisgrid_mod</title>
<g id="a_node3"><a xlink:href="../modules/analysisgrid_mod_rev.svg" xlink:title="analysisgrid_mod">
<polygon fill="none" stroke="blue" points="160,-180 49,-180 49,-144 160,-144 160,-180"/>
<text text-anchor="middle" x="104.5" y="-158.3" font-family="Times,serif" font-size="14.00">analysisgrid_mod</text>
</a>
</g>
</g>
<!-- analysisgrid_mod&#45;&gt;earthconstants_mod -->
<g id="edge2" class="edge">
<title>analysisgrid_mod&#45;&gt;earthconstants_mod</title>
<path fill="none" stroke="black" d="M116.28,-136.58C127.9,-115.48 147.79,-86.2 174.5,-72 232.24,-41.3 671.66,-25.57 836.92,-20.69"/>
<ellipse fill="black" stroke="black" cx="114.4" cy="-140.14" rx="4" ry="4"/>
</g>
<!-- bcovarsetupchem_mod -->
<g id="node4" class="node">
<title>bcovarsetupchem_mod</title>
<g id="a_node4"><a xlink:href="../modules/bcovarsetupchem_mod_rev.svg" xlink:title="bcovarsetupchem_mod">
<polygon fill="none" stroke="blue" points="198.5,-252 56.5,-252 56.5,-216 198.5,-216 198.5,-252"/>
<text text-anchor="middle" x="127.5" y="-230.3" font-family="Times,serif" font-size="14.00">bcovarsetupchem_mod</text>
</a>
</g>
</g>
<!-- bcovarsetupchem_mod&#45;&gt;earthconstants_mod -->
<g id="edge3" class="edge">
<title>bcovarsetupchem_mod&#45;&gt;earthconstants_mod</title>
<path fill="none" stroke="black" d="M148.06,-209.28C155.11,-200.46 162.67,-190.12 168.5,-180 194.37,-135.09 170.63,-102.55 212.5,-72 262.26,-35.68 676.79,-23.49 836.81,-20.12"/>
<ellipse fill="black" stroke="black" cx="145.35" cy="-212.61" rx="4" ry="4"/>
</g>
<!-- bmatrixhi_mod -->
<g id="node5" class="node">
<title>bmatrixhi_mod</title>
<g id="a_node5"><a xlink:href="../modules/bmatrixhi_mod_rev.svg" xlink:title="bmatrixhi_mod">
<polygon fill="none" stroke="blue" points="236.5,-324 136.5,-324 136.5,-288 236.5,-288 236.5,-324"/>
<text text-anchor="middle" x="186.5" y="-302.3" font-family="Times,serif" font-size="14.00">bmatrixhi_mod</text>
</a>
</g>
</g>
<!-- bmatrixhi_mod&#45;&gt;earthconstants_mod -->
<g id="edge4" class="edge">
<title>bmatrixhi_mod&#45;&gt;earthconstants_mod</title>
<path fill="none" stroke="black" d="M197.29,-279.92C200.82,-271.18 204.58,-261.25 207.5,-252 232.27,-173.57 188.06,-125.54 250.5,-72 294.4,-34.35 682.77,-23.03 836.88,-20"/>
<ellipse fill="black" stroke="black" cx="195.66" cy="-283.86" rx="4" ry="4"/>
</g>
<!-- burpread_mod -->
<g id="node6" class="node">
<title>burpread_mod</title>
<g id="a_node6"><a xlink:href="../modules/burpread_mod_rev.svg" xlink:title="burpread_mod">
<polygon fill="none" stroke="blue" points="274,-396 179,-396 179,-360 274,-360 274,-396"/>
<text text-anchor="middle" x="226.5" y="-374.3" font-family="Times,serif" font-size="14.00">burpread_mod</text>
</a>
</g>
</g>
<!-- burpread_mod&#45;&gt;earthconstants_mod -->
<g id="edge5" class="edge">
<title>burpread_mod&#45;&gt;earthconstants_mod</title>
<path fill="none" stroke="black" d="M237.36,-352.22C248.59,-324.29 264.5,-277.27 264.5,-235 264.5,-235 264.5,-235 264.5,-161 264.5,-120.03 257.09,-98.3 288.5,-72 329.91,-37.34 689.41,-24.33 836.83,-20.42"/>
<ellipse fill="black" stroke="black" cx="235.71" cy="-356.21" rx="4" ry="4"/>
</g>
<!-- calcheightandpressure_mod -->
<g id="node7" class="node">
<title>calcheightandpressure_mod</title>
<g id="a_node7"><a xlink:href="../modules/calcheightandpressure_mod_rev.svg" xlink:title="calcheightandpressure_mod">
<polygon fill="none" stroke="blue" points="313,-468 146,-468 146,-432 313,-432 313,-468"/>
<text text-anchor="middle" x="229.5" y="-446.3" font-family="Times,serif" font-size="14.00">calcheightandpressure_mod</text>
</a>
</g>
</g>
<!-- calcheightandpressure_mod&#45;&gt;earthconstants_mod -->
<g id="edge6" class="edge">
<title>calcheightandpressure_mod&#45;&gt;earthconstants_mod</title>
<path fill="none" stroke="black" d="M257.77,-426.45C266.9,-417.82 276.27,-407.31 282.5,-396 302.05,-360.48 302.5,-347.54 302.5,-307 302.5,-307 302.5,-307 302.5,-161 302.5,-120.03 295.16,-98.39 326.5,-72 364.9,-39.67 696.24,-25.43 836.84,-20.81"/>
<ellipse fill="black" stroke="black" cx="254.8" cy="-429.15" rx="4" ry="4"/>
</g>
<!-- calcstatsglb_mod -->
<g id="node8" class="node">
<title>calcstatsglb_mod</title>
<g id="a_node8"><a xlink:href="../modules/calcstatsglb_mod_rev.svg" xlink:title="calcstatsglb_mod">
<polygon fill="none" stroke="blue" points="350.5,-540 240.5,-540 240.5,-504 350.5,-504 350.5,-540"/>
<text text-anchor="middle" x="295.5" y="-518.3" font-family="Times,serif" font-size="14.00">calcstatsglb_mod</text>
</a>
</g>
</g>
<!-- calcstatsglb_mod&#45;&gt;earthconstants_mod -->
<g id="edge7" class="edge">
<title>calcstatsglb_mod&#45;&gt;earthconstants_mod</title>
<path fill="none" stroke="black" d="M309.1,-496.47C313.54,-487.69 318.18,-477.59 321.5,-468 334.73,-429.78 340.5,-419.45 340.5,-379 340.5,-379 340.5,-379 340.5,-161 340.5,-120.03 333.25,-98.49 364.5,-72 399.9,-42 703.17,-26.62 836.76,-21.26"/>
<ellipse fill="black" stroke="black" cx="307.13" cy="-500.25" rx="4" ry="4"/>
</g>
<!-- calcstatslam_mod -->
<g id="node9" class="node">
<title>calcstatslam_mod</title>
<g id="a_node9"><a xlink:href="../modules/calcstatslam_mod_rev.svg" xlink:title="calcstatslam_mod">
<polygon fill="none" stroke="blue" points="435,-612 322,-612 322,-576 435,-576 435,-612"/>
<text text-anchor="middle" x="378.5" y="-590.3" font-family="Times,serif" font-size="14.00">calcstatslam_mod</text>
</a>
</g>
</g>
<!-- calcstatslam_mod&#45;&gt;earthconstants_mod -->
<g id="edge8" class="edge">
<title>calcstatslam_mod&#45;&gt;earthconstants_mod</title>
<path fill="none" stroke="black" d="M378.5,-567.78C378.5,-539.39 378.5,-491.89 378.5,-451 378.5,-451 378.5,-451 378.5,-161 378.5,-118.5 379.72,-97.8 413.5,-72 446.51,-46.78 713.19,-29.14 836.9,-22.24"/>
<ellipse fill="black" stroke="black" cx="378.5" cy="-571.95" rx="4" ry="4"/>
</g>
<!-- diffusion_mod -->
<g id="node10" class="node">
<title>diffusion_mod</title>
<g id="a_node10"><a xlink:href="../modules/diffusion_mod_rev.svg" xlink:title="diffusion_mod">
<polygon fill="none" stroke="blue" points="518,-108 423,-108 423,-72 518,-72 518,-108"/>
<text text-anchor="middle" x="470.5" y="-86.3" font-family="Times,serif" font-size="14.00">diffusion_mod</text>
</a>
</g>
</g>
<!-- diffusion_mod&#45;&gt;earthconstants_mod -->
<g id="edge9" class="edge">
<title>diffusion_mod&#45;&gt;earthconstants_mod</title>
<path fill="none" stroke="black" d="M526.25,-73.37C528.36,-72.89 530.44,-72.43 532.5,-72 638.38,-49.93 763.34,-34 836.75,-25.66"/>
<ellipse fill="black" stroke="black" cx="521.97" cy="-74.38" rx="4" ry="4"/>
</g>
<!-- ensembleobservations_mod -->
<g id="node11" class="node">
<title>ensembleobservations_mod</title>
<g id="a_node11"><a xlink:href="../modules/ensembleobservations_mod_rev.svg" xlink:title="ensembleobservations_mod">
<polygon fill="none" stroke="blue" points="572.5,-180 406.5,-180 406.5,-144 572.5,-144 572.5,-180"/>
<text text-anchor="middle" x="489.5" y="-158.3" font-family="Times,serif" font-size="14.00">ensembleobservations_mod</text>
</a>
</g>
</g>
<!-- ensembleobservations_mod&#45;&gt;earthconstants_mod -->
<g id="edge10" class="edge">
<title>ensembleobservations_mod&#45;&gt;earthconstants_mod</title>
<path fill="none" stroke="black" d="M508.03,-137.63C525.84,-116.9 554.69,-87.57 586.5,-72 666.95,-32.64 771.38,-21.89 836.93,-19.29"/>
<ellipse fill="black" stroke="black" cx="505.45" cy="-140.7" rx="4" ry="4"/>
</g>
<!-- globalspectraltransform_mod -->
<g id="node12" class="node">
<title>globalspectraltransform_mod</title>
<g id="a_node12"><a xlink:href="../modules/globalspectraltransform_mod_rev.svg" xlink:title="globalspectraltransform_mod">
<polygon fill="none" stroke="blue" points="610.5,-252 434.5,-252 434.5,-216 610.5,-216 610.5,-252"/>
<text text-anchor="middle" x="522.5" y="-230.3" font-family="Times,serif" font-size="14.00">globalspectraltransform_mod</text>
</a>
</g>
</g>
<!-- globalspectraltransform_mod&#45;&gt;earthconstants_mod -->
<g id="edge11" class="edge">
<title>globalspectraltransform_mod&#45;&gt;earthconstants_mod</title>
<path fill="none" stroke="black" d="M552.44,-210.79C562.68,-202.07 573.54,-191.41 581.5,-180 611.05,-137.62 584.69,-104.93 624.5,-72 656.16,-45.81 765.86,-31.1 836.77,-24.13"/>
<ellipse fill="black" stroke="black" cx="549.26" cy="-213.42" rx="4" ry="4"/>
</g>
<!-- gps_mod -->
<g id="node13" class="node">
<title>gps_mod</title>
<g id="a_node13"><a xlink:href="../modules/gps_mod_rev.svg" xlink:title="gps_mod">
<polygon fill="none" stroke="blue" points="648.5,-324 582.5,-324 582.5,-288 648.5,-288 648.5,-324"/>
<text text-anchor="middle" x="615.5" y="-302.3" font-family="Times,serif" font-size="14.00">gps_mod</text>
</a>
</g>
</g>
<!-- gps_mod&#45;&gt;earthconstants_mod -->
<g id="edge12" class="edge">
<title>gps_mod&#45;&gt;earthconstants_mod</title>
<path fill="none" stroke="black" d="M617.19,-279.74C621.32,-225.68 633.79,-101.32 662.5,-72 686.39,-47.6 774.95,-32.86 836.77,-25.32"/>
<ellipse fill="black" stroke="black" cx="616.89" cy="-283.8" rx="4" ry="4"/>
</g>
<!-- gridstatevector_mod -->
<g id="node14" class="node">
<title>gridstatevector_mod</title>
<g id="a_node14"><a xlink:href="../modules/gridstatevector_mod_rev.svg" xlink:title="gridstatevector_mod">
<polygon fill="none" stroke="blue" points="686,-396 559,-396 559,-360 686,-360 686,-396"/>
<text text-anchor="middle" x="622.5" y="-374.3" font-family="Times,serif" font-size="14.00">gridstatevector_mod</text>
</a>
</g>
</g>
<!-- gridstatevector_mod&#45;&gt;earthconstants_mod -->
<g id="edge13" class="edge">
<title>gridstatevector_mod&#45;&gt;earthconstants_mod</title>
<path fill="none" stroke="black" d="M641.01,-353.12C647.04,-344.36 653.26,-334.11 657.5,-324 673.14,-286.7 676.5,-275.45 676.5,-235 676.5,-235 676.5,-235 676.5,-161 676.5,-120.03 671.49,-100.92 700.5,-72 736.2,-36.41 792.94,-23.95 836.72,-19.93"/>
<ellipse fill="black" stroke="black" cx="638.57" cy="-356.53" rx="4" ry="4"/>
</g>
<!-- gridvariabletransforms_mod -->
<g id="node15" class="node">
<title>gridvariabletransforms_mod</title>
<g id="a_node15"><a xlink:href="../modules/gridvariabletransforms_mod_rev.svg" xlink:title="gridvariabletransforms_mod">
<polygon fill="none" stroke="blue" points="724.5,-468 554.5,-468 554.5,-432 724.5,-432 724.5,-468"/>
<text text-anchor="middle" x="639.5" y="-446.3" font-family="Times,serif" font-size="14.00">gridvariabletransforms_mod</text>
</a>
</g>
</g>
<!-- gridvariabletransforms_mod&#45;&gt;earthconstants_mod -->
<g id="edge14" class="edge">
<title>gridvariabletransforms_mod&#45;&gt;earthconstants_mod</title>
<path fill="none" stroke="black" d="M668.85,-426.63C678.33,-418.01 688.05,-407.47 694.5,-396 714.38,-360.67 714.5,-347.54 714.5,-307 714.5,-307 714.5,-307 714.5,-161 714.5,-120.03 710.33,-101.75 738.5,-72 763.99,-45.08 803.39,-31.82 836.83,-25.29"/>
<ellipse fill="black" stroke="black" cx="665.7" cy="-429.37" rx="4" ry="4"/>
</g>
<!-- horizontalcoord_mod -->
<g id="node16" class="node">
<title>horizontalcoord_mod</title>
<g id="a_node16"><a xlink:href="../modules/horizontalcoord_mod_rev.svg" xlink:title="horizontalcoord_mod">
<polygon fill="none" stroke="blue" points="762,-540 629,-540 629,-504 762,-504 762,-540"/>
<text text-anchor="middle" x="695.5" y="-518.3" font-family="Times,serif" font-size="14.00">horizontalcoord_mod</text>
</a>
</g>
</g>
<!-- horizontalcoord_mod&#45;&gt;earthconstants_mod -->
<g id="edge15" class="edge">
<title>horizontalcoord_mod&#45;&gt;earthconstants_mod</title>
<path fill="none" stroke="black" d="M715.46,-497.59C722.07,-488.79 728.9,-478.4 733.5,-468 749.85,-431.01 752.5,-419.45 752.5,-379 752.5,-379 752.5,-379 752.5,-161 752.5,-120.03 749.68,-102.97 776.5,-72 792.1,-53.98 814.93,-41.9 836.69,-33.88"/>
<ellipse fill="black" stroke="black" cx="712.94" cy="-500.82" rx="4" ry="4"/>
</g>
<!-- kdtree2_mod -->
<g id="node17" class="node">
<title>kdtree2_mod</title>
<g id="a_node17"><a xlink:href="../modules/kdtree2_mod_rev.svg" xlink:title="kdtree2_mod">
<polygon fill="none" stroke="blue" points="834.5,-612 746.5,-612 746.5,-576 834.5,-576 834.5,-612"/>
<text text-anchor="middle" x="790.5" y="-590.3" font-family="Times,serif" font-size="14.00">kdtree2_mod</text>
</a>
</g>
</g>
<!-- kdtree2_mod&#45;&gt;earthconstants_mod -->
<g id="edge16" class="edge">
<title>kdtree2_mod&#45;&gt;earthconstants_mod</title>
<path fill="none" stroke="black" d="M790.5,-567.78C790.5,-539.39 790.5,-491.89 790.5,-451 790.5,-451 790.5,-451 790.5,-161 790.5,-120.55 785.85,-104.81 809.5,-72 820.74,-56.41 838.1,-44.64 854.59,-36.2"/>
<ellipse fill="black" stroke="black" cx="790.5" cy="-571.95" rx="4" ry="4"/>
</g>
<!-- lamspectraltransform_mod -->
<g id="node18" class="node">
<title>lamspectraltransform_mod</title>
<g id="a_node18"><a xlink:href="../modules/lamspectraltransform_mod_rev.svg" xlink:title="lamspectraltransform_mod">
<polygon fill="none" stroke="blue" points="980.5,-108 818.5,-108 818.5,-72 980.5,-72 980.5,-108"/>
<text text-anchor="middle" x="899.5" y="-86.3" font-family="Times,serif" font-size="14.00">lamspectraltransform_mod</text>
</a>
</g>
</g>
<!-- lamspectraltransform_mod&#45;&gt;earthconstants_mod -->
<g id="edge17" class="edge">
<title>lamspectraltransform_mod&#45;&gt;earthconstants_mod</title>
<path fill="none" stroke="black" d="M899.5,-63.64C899.5,-54.49 899.5,-44.38 899.5,-36.1"/>
<ellipse fill="black" stroke="black" cx="899.5" cy="-67.7" rx="4" ry="4"/>
</g>
<!-- localizationfunction_mod -->
<g id="node19" class="node">
<title>localizationfunction_mod</title>
<g id="a_node19"><a xlink:href="../modules/localizationfunction_mod_rev.svg" xlink:title="localizationfunction_mod">
<polygon fill="none" stroke="blue" points="1018,-180 863,-180 863,-144 1018,-144 1018,-180"/>
<text text-anchor="middle" x="940.5" y="-158.3" font-family="Times,serif" font-size="14.00">localizationfunction_mod</text>
</a>
</g>
</g>
<!-- localizationfunction_mod&#45;&gt;earthconstants_mod -->
<g id="edge18" class="edge">
<title>localizationfunction_mod&#45;&gt;earthconstants_mod</title>
<path fill="none" stroke="black" d="M968.47,-138.29C976.88,-129.78 985.05,-119.38 989.5,-108 995.33,-93.1 997.44,-85.89 989.5,-72 980.32,-55.94 964.17,-44.27 948.06,-36.03"/>
<ellipse fill="black" stroke="black" cx="965.54" cy="-141.1" rx="4" ry="4"/>
</g>
<!-- localizationspectral_mod -->
<g id="node20" class="node">
<title>localizationspectral_mod</title>
<g id="a_node20"><a xlink:href="../modules/localizationspectral_mod_rev.svg" xlink:title="localizationspectral_mod">
<polygon fill="none" stroke="blue" points="1056.5,-252 904.5,-252 904.5,-216 1056.5,-216 1056.5,-252"/>
<text text-anchor="middle" x="980.5" y="-230.3" font-family="Times,serif" font-size="14.00">localizationspectral_mod</text>
</a>
</g>
</g>
<!-- localizationspectral_mod&#45;&gt;earthconstants_mod -->
<g id="edge19" class="edge">
<title>localizationspectral_mod&#45;&gt;earthconstants_mod</title>
<path fill="none" stroke="black" d="M1007.24,-209.51C1014.97,-201.07 1022.42,-190.91 1026.5,-180 1043.58,-134.27 1037.61,-109.62 1006.5,-72 993.16,-55.86 973.69,-44.21 955,-36.01"/>
<ellipse fill="black" stroke="black" cx="1004.11" cy="-212.74" rx="4" ry="4"/>
</g>
<!-- menetrierdiag_mod -->
<g id="node21" class="node">
<title>menetrierdiag_mod</title>
<g id="a_node21"><a xlink:href="../modules/menetrierdiag_mod_rev.svg" xlink:title="menetrierdiag_mod">
<polygon fill="none" stroke="blue" points="1094.5,-324 972.5,-324 972.5,-288 1094.5,-288 1094.5,-324"/>
<text text-anchor="middle" x="1033.5" y="-302.3" font-family="Times,serif" font-size="14.00">menetrierdiag_mod</text>
</a>
</g>
</g>
<!-- menetrierdiag_mod&#45;&gt;earthconstants_mod -->
<g id="edge20" class="edge">
<title>menetrierdiag_mod&#45;&gt;earthconstants_mod</title>
<path fill="none" stroke="black" d="M1051.55,-281.33C1057.17,-272.59 1062.63,-262.29 1065.5,-252 1081.6,-194.19 1050.99,-93.58 1032.5,-72 1014.63,-51.14 987.41,-38.42 962.23,-30.69"/>
<ellipse fill="black" stroke="black" cx="1049.3" cy="-284.66" rx="4" ry="4"/>
</g>
<!-- obserrors_mod -->
<g id="node22" class="node">
<title>obserrors_mod</title>
<g id="a_node22"><a xlink:href="../modules/obserrors_mod_rev.svg" xlink:title="obserrors_mod">
<polygon fill="none" stroke="blue" points="1132.5,-396 1034.5,-396 1034.5,-360 1132.5,-360 1132.5,-396"/>
<text text-anchor="middle" x="1083.5" y="-374.3" font-family="Times,serif" font-size="14.00">obserrors_mod</text>
</a>
</g>
</g>
<!-- obserrors_mod&#45;&gt;earthconstants_mod -->
<g id="edge21" class="edge">
<title>obserrors_mod&#45;&gt;earthconstants_mod</title>
<path fill="none" stroke="black" d="M1094.64,-352.25C1106.17,-324.35 1122.5,-277.35 1122.5,-235 1122.5,-235 1122.5,-235 1122.5,-161 1122.5,-84.58 1028.17,-47.5 962.21,-30.91"/>
<ellipse fill="black" stroke="black" cx="1092.95" cy="-356.24" rx="4" ry="4"/>
</g>
<!-- obsfilter_mod -->
<g id="node23" class="node">
<title>obsfilter_mod</title>
<g id="a_node23"><a xlink:href="../modules/obsfilter_mod_rev.svg" xlink:title="obsfilter_mod">
<polygon fill="none" stroke="blue" points="1170.5,-468 1078.5,-468 1078.5,-432 1170.5,-432 1170.5,-468"/>
<text text-anchor="middle" x="1124.5" y="-446.3" font-family="Times,serif" font-size="14.00">obsfilter_mod</text>
</a>
</g>
</g>
<!-- obsfilter_mod&#45;&gt;earthconstants_mod -->
<g id="edge22" class="edge">
<title>obsfilter_mod&#45;&gt;earthconstants_mod</title>
<path fill="none" stroke="black" d="M1134.79,-424.16C1145.43,-396.19 1160.5,-349.13 1160.5,-307 1160.5,-307 1160.5,-307 1160.5,-161 1160.5,-70.98 1039.23,-37.71 962.02,-25.64"/>
<ellipse fill="black" stroke="black" cx="1133.24" cy="-428.14" rx="4" ry="4"/>
</g>
<!-- obsoperatorschem_mod -->
<g id="node24" class="node">
<title>obsoperatorschem_mod</title>
<g id="a_node24"><a xlink:href="../modules/obsoperatorschem_mod_rev.svg" xlink:title="obsoperatorschem_mod">
<polygon fill="none" stroke="blue" points="1208.5,-540 1062.5,-540 1062.5,-504 1208.5,-504 1208.5,-540"/>
<text text-anchor="middle" x="1135.5" y="-518.3" font-family="Times,serif" font-size="14.00">obsoperatorschem_mod</text>
</a>
</g>
</g>
<!-- obsoperatorschem_mod&#45;&gt;earthconstants_mod -->
<g id="edge23" class="edge">
<title>obsoperatorschem_mod&#45;&gt;earthconstants_mod</title>
<path fill="none" stroke="black" d="M1158.84,-497.87C1166.46,-489.16 1174.29,-478.74 1179.5,-468 1197.15,-431.61 1198.5,-419.45 1198.5,-379 1198.5,-379 1198.5,-379 1198.5,-161 1198.5,-57.27 1049.86,-29.22 962.18,-21.7"/>
<ellipse fill="black" stroke="black" cx="1156.06" cy="-500.94" rx="4" ry="4"/>
</g>
<!-- obsoperators_mod -->
<g id="node25" class="node">
<title>obsoperators_mod</title>
<g id="a_node25"><a xlink:href="../modules/obsoperators_mod_rev.svg" xlink:title="obsoperators_mod">
<polygon fill="none" stroke="blue" points="1294.5,-612 1178.5,-612 1178.5,-576 1294.5,-576 1294.5,-612"/>
<text text-anchor="middle" x="1236.5" y="-590.3" font-family="Times,serif" font-size="14.00">obsoperators_mod</text>
</a>
</g>
</g>
<!-- obsoperators_mod&#45;&gt;earthconstants_mod -->
<g id="edge24" class="edge">
<title>obsoperators_mod&#45;&gt;earthconstants_mod</title>
<path fill="none" stroke="black" d="M1236.5,-567.78C1236.5,-539.39 1236.5,-491.89 1236.5,-451 1236.5,-451 1236.5,-451 1236.5,-161 1236.5,-43.23 1059.56,-21.58 962.1,-18.58"/>
<ellipse fill="black" stroke="black" cx="1236.5" cy="-571.95" rx="4" ry="4"/>
</g>
<!-- obsspaceerrorstddev_mod -->
<g id="node26" class="node">
<title>obsspaceerrorstddev_mod</title>
<g id="a_node26"><a xlink:href="../modules/obsspaceerrorstddev_mod_rev.svg" xlink:title="obsspaceerrorstddev_mod">
<polygon fill="none" stroke="blue" points="1422,-108 1265,-108 1265,-72 1422,-72 1422,-108"/>
<text text-anchor="middle" x="1343.5" y="-86.3" font-family="Times,serif" font-size="14.00">obsspaceerrorstddev_mod</text>
</a>
</g>
</g>
<!-- obsspaceerrorstddev_mod&#45;&gt;earthconstants_mod -->
<g id="edge25" class="edge">
<title>obsspaceerrorstddev_mod&#45;&gt;earthconstants_mod</title>
<path fill="none" stroke="black" d="M1256.73,-73.05C1254.63,-72.69 1252.55,-72.34 1250.5,-72 1149.74,-55.19 1032.32,-37.93 962.05,-27.85"/>
<ellipse fill="black" stroke="black" cx="1260.94" cy="-73.77" rx="4" ry="4"/>
</g>
<!-- obsvariabletransforms_mod -->
<g id="node27" class="node">
<title>obsvariabletransforms_mod</title>
<g id="a_node27"><a xlink:href="../modules/obsvariabletransforms_mod_rev.svg" xlink:title="obsvariabletransforms_mod">
<polygon fill="none" stroke="blue" points="1460.5,-180 1294.5,-180 1294.5,-144 1460.5,-144 1460.5,-180"/>
<text text-anchor="middle" x="1377.5" y="-158.3" font-family="Times,serif" font-size="14.00">obsvariabletransforms_mod</text>
</a>
</g>
</g>
<!-- obsvariabletransforms_mod&#45;&gt;earthconstants_mod -->
<g id="edge26" class="edge">
<title>obsvariabletransforms_mod&#45;&gt;earthconstants_mod</title>
<path fill="none" stroke="black" d="M1406.1,-138.56C1426.98,-119.51 1448.73,-92.14 1430.5,-72 1399.57,-37.83 1095.86,-24.76 962.15,-20.63"/>
<ellipse fill="black" stroke="black" cx="1402.98" cy="-141.3" rx="4" ry="4"/>
</g>
<!-- physicsfunctions_mod -->
<g id="node28" class="node">
<title>physicsfunctions_mod</title>
<g id="a_node28"><a xlink:href="../modules/physicsfunctions_mod_rev.svg" xlink:title="physicsfunctions_mod">
<polygon fill="none" stroke="blue" points="1498.5,-252 1360.5,-252 1360.5,-216 1498.5,-216 1498.5,-252"/>
<text text-anchor="middle" x="1429.5" y="-230.3" font-family="Times,serif" font-size="14.00">physicsfunctions_mod</text>
</a>
</g>
</g>
<!-- physicsfunctions_mod&#45;&gt;earthconstants_mod -->
<g id="edge27" class="edge">
<title>physicsfunctions_mod&#45;&gt;earthconstants_mod</title>
<path fill="none" stroke="black" d="M1452.47,-209.39C1459.32,-200.83 1465.94,-190.63 1469.5,-180 1485.03,-133.63 1486.16,-103.19 1448.5,-72 1411.67,-41.5 1098.07,-26.33 962.03,-21.13"/>
<ellipse fill="black" stroke="black" cx="1449.81" cy="-212.54" rx="4" ry="4"/>
</g>
<!-- radvel_mod -->
<g id="node29" class="node">
<title>radvel_mod</title>
<g id="a_node29"><a xlink:href="../modules/radvel_mod_rev.svg" xlink:title="radvel_mod">
<polygon fill="none" stroke="blue" points="1536.5,-324 1456.5,-324 1456.5,-288 1536.5,-288 1536.5,-324"/>
<text text-anchor="middle" x="1496.5" y="-302.3" font-family="Times,serif" font-size="14.00">radvel_mod</text>
</a>
</g>
</g>
<!-- radvel_mod&#45;&gt;earthconstants_mod -->
<g id="edge28" class="edge">
<title>radvel_mod&#45;&gt;earthconstants_mod</title>
<path fill="none" stroke="black" d="M1503.87,-280.01C1516.49,-231.4 1535.53,-124.31 1476.5,-72 1438.62,-38.43 1103.71,-24.89 962.19,-20.63"/>
<ellipse fill="black" stroke="black" cx="1502.8" cy="-283.97" rx="4" ry="4"/>
</g>
<!-- slantprofilelatlon_mod -->
<g id="node30" class="node">
<title>slantprofilelatlon_mod</title>
<g id="a_node30"><a xlink:href="../modules/slantprofilelatlon_mod_rev.svg" xlink:title="slantprofilelatlon_mod">
<polygon fill="none" stroke="blue" points="1574.5,-396 1436.5,-396 1436.5,-360 1574.5,-360 1574.5,-396"/>
<text text-anchor="middle" x="1505.5" y="-374.3" font-family="Times,serif" font-size="14.00">slantprofilelatlon_mod</text>
</a>
</g>
</g>
<!-- slantprofilelatlon_mod&#45;&gt;earthconstants_mod -->
<g id="edge29" class="edge">
<title>slantprofilelatlon_mod&#45;&gt;earthconstants_mod</title>
<path fill="none" stroke="black" d="M1526.87,-353.31C1533.73,-344.62 1540.77,-334.36 1545.5,-324 1562.3,-287.21 1564.5,-275.45 1564.5,-235 1564.5,-235 1564.5,-235 1564.5,-161 1564.5,-113.05 1544.91,-96.19 1503.5,-72 1457.54,-45.15 1107.21,-27.65 962.12,-21.48"/>
<ellipse fill="black" stroke="black" cx="1524.23" cy="-356.53" rx="4" ry="4"/>
</g>
<!-- statetocolumn_mod -->
<g id="node31" class="node">
<title>statetocolumn_mod</title>
<g id="a_node31"><a xlink:href="../modules/statetocolumn_mod_rev.svg" xlink:title="statetocolumn_mod">
<polygon fill="none" stroke="blue" points="1612.5,-468 1488.5,-468 1488.5,-432 1612.5,-432 1612.5,-468"/>
<text text-anchor="middle" x="1550.5" y="-446.3" font-family="Times,serif" font-size="14.00">statetocolumn_mod</text>
</a>
</g>
</g>
<!-- statetocolumn_mod&#45;&gt;earthconstants_mod -->
<g id="edge30" class="edge">
<title>statetocolumn_mod&#45;&gt;earthconstants_mod</title>
<path fill="none" stroke="black" d="M1567.91,-424.99C1573.59,-416.22 1579.47,-405.99 1583.5,-396 1598.64,-358.49 1602.5,-347.45 1602.5,-307 1602.5,-307 1602.5,-307 1602.5,-161 1602.5,-113.05 1582.97,-96.08 1541.5,-72 1492.18,-43.36 1113.79,-26.71 962.1,-21.13"/>
<ellipse fill="black" stroke="black" cx="1565.66" cy="-428.35" rx="4" ry="4"/>
</g>
<!-- thinning_mod -->
<g id="node32" class="node">
<title>thinning_mod</title>
<g id="a_node32"><a xlink:href="../modules/thinning_mod_rev.svg" xlink:title="thinning_mod">
<polygon fill="none" stroke="blue" points="1668.5,-540 1576.5,-540 1576.5,-504 1668.5,-504 1668.5,-540"/>
<text text-anchor="middle" x="1622.5" y="-518.3" font-family="Times,serif" font-size="14.00">thinning_mod</text>
</a>
</g>
</g>
<!-- thinning_mod&#45;&gt;earthconstants_mod -->
<g id="edge31" class="edge">
<title>thinning_mod&#45;&gt;earthconstants_mod</title>
<path fill="none" stroke="black" d="M1627.71,-495.44C1633.03,-467.1 1640.5,-419.99 1640.5,-379 1640.5,-379 1640.5,-379 1640.5,-161 1640.5,-113.05 1621.02,-95.99 1579.5,-72 1526.79,-41.55 1120.04,-25.82 962.01,-20.81"/>
<ellipse fill="black" stroke="black" cx="1626.9" cy="-499.67" rx="4" ry="4"/>
</g>
<!-- tovs_nl_mod -->
<g id="node33" class="node">
<title>tovs_nl_mod</title>
<g id="a_node33"><a xlink:href="../modules/tovs_nl_mod_rev.svg" xlink:title="tovs_nl_mod">
<polygon fill="none" stroke="blue" points="1740,-612 1653,-612 1653,-576 1740,-576 1740,-612"/>
<text text-anchor="middle" x="1696.5" y="-590.3" font-family="Times,serif" font-size="14.00">tovs_nl_mod</text>
</a>
</g>
</g>
<!-- tovs_nl_mod&#45;&gt;earthconstants_mod -->
<g id="edge32" class="edge">
<title>tovs_nl_mod&#45;&gt;earthconstants_mod</title>
<path fill="none" stroke="black" d="M1696.5,-567.78C1696.5,-539.39 1696.5,-491.89 1696.5,-451 1696.5,-451 1696.5,-451 1696.5,-161 1696.5,-108.11 1664.91,-95.45 1617.5,-72 1559.55,-43.34 1126.38,-26.39 962.27,-20.94"/>
<ellipse fill="black" stroke="black" cx="1696.5" cy="-571.95" rx="4" ry="4"/>
</g>
<!-- varqc_mod -->
<g id="node34" class="node">
<title>varqc_mod</title>
<g id="a_node34"><a xlink:href="../modules/varqc_mod_rev.svg" xlink:title="varqc_mod">
<polygon fill="none" stroke="blue" points="1802,-108 1725,-108 1725,-72 1802,-72 1802,-108"/>
<text text-anchor="middle" x="1763.5" y="-86.3" font-family="Times,serif" font-size="14.00">varqc_mod</text>
</a>
</g>
</g>
<!-- varqc_mod&#45;&gt;earthconstants_mod -->
<g id="edge33" class="edge">
<title>varqc_mod&#45;&gt;earthconstants_mod</title>
<path fill="none" stroke="black" d="M1716.81,-73.34C1714.69,-72.85 1712.58,-72.39 1710.5,-72 1567.2,-44.76 1126.39,-26.95 962.09,-21.11"/>
<ellipse fill="black" stroke="black" cx="1721.12" cy="-74.45" rx="4" ry="4"/>
</g>
</g>
</svg>
