<?xml version="1.0" encoding="UTF-8" standalone="no"?>
<!DOCTYPE svg PUBLIC "-//W3C//DTD SVG 1.1//EN"
 "http://www.w3.org/Graphics/SVG/1.1/DTD/svg11.dtd">
<!-- Generated by graphviz version 3.0.0 (20220315.2325)
 -->
<!-- Title: enkf_mod Pages: 1 -->
<svg width="430pt" height="313pt"
 viewBox="0.00 0.00 430.00 313.00" xmlns="http://www.w3.org/2000/svg" xmlns:xlink="http://www.w3.org/1999/xlink">
<g id="graph0" class="graph" transform="scale(1 1) rotate(0) translate(4 309)">
<title>enkf_mod</title>
<polygon fill="white" stroke="transparent" points="-4,4 -4,-309 426,-309 426,4 -4,4"/>
<text text-anchor="middle" x="211" y="-289.8" font-family="Times,serif" font-size="14.00">Blue boxes indicate modules with reverse dependencies not shown</text>
<text text-anchor="middle" x="211" y="-274.8" font-family="Times,serif" font-size="14.00">Higher level reverse dependencies can be shown by clicking on a blue box</text>
<text text-anchor="middle" x="211" y="-259.8" font-family="Times,serif" font-size="14.00">Green boxes are programs</text>
<!-- enkf_mod -->
<g id="node1" class="node">
<title>enkf_mod</title>
<g id="a_node1"><a xlink:href="enkf_mod.html" xlink:title="enkf_mod">
<polygon fill="none" stroke="black" points="258.25,-36 185.25,-36 185.25,0 258.25,0 258.25,-36"/>
<text text-anchor="middle" x="221.75" y="-14.3" font-family="Times,serif" font-size="14.00">enkf_mod</text>
</a>
</g>
</g>
<!-- midas_midas_ensembleh -->
<g id="node2" class="node">
<title>midas_midas_ensembleh</title>
<g id="a_node2"><a xlink:href="../programs/midas_ensembleh.html" xlink:title="midas_midas_ensembleh">
<polygon fill="gray" stroke="green" points="193.75,-108 39.75,-108 39.75,-72 193.75,-72 193.75,-108"/>
<text text-anchor="middle" x="116.75" y="-86.3" font-family="Times,serif" font-size="14.00">midas_midas_ensembleh</text>
</a>
</g>
</g>
<!-- midas_midas_ensembleh&#45;&gt;enkf_mod -->
<g id="edge1" class="edge">
<title>midas_midas_ensembleh&#45;&gt;enkf_mod</title>
<path fill="none" stroke="black" d="M149.15,-67.4C164.19,-57.37 181.84,-45.61 195.97,-36.19"/>
<ellipse fill="black" stroke="black" cx="145.76" cy="-69.66" rx="4" ry="4"/>
</g>
<!-- midas_midas_letkf -->
<g id="node3" class="node">
<title>midas_midas_letkf</title>
<g id="a_node3"><a xlink:href="../programs/midas_letkf.html" xlink:title="midas_midas_letkf">
<polygon fill="gray" stroke="green" points="282.75,-180 160.75,-180 160.75,-144 282.75,-144 282.75,-180"/>
<text text-anchor="middle" x="221.75" y="-158.3" font-family="Times,serif" font-size="14.00">midas_midas_letkf</text>
</a>
</g>
</g>
<!-- midas_midas_letkf&#45;&gt;enkf_mod -->
<g id="edge2" class="edge">
<title>midas_midas_letkf&#45;&gt;enkf_mod</title>
<path fill="none" stroke="black" d="M221.75,-135.56C221.75,-106.86 221.75,-60.96 221.75,-36.19"/>
<ellipse fill="black" stroke="black" cx="221.75" cy="-139.87" rx="4" ry="4"/>
</g>
<!-- midas_midas_prepcma -->
<g id="node4" class="node">
<title>midas_midas_prepcma</title>
<g id="a_node4"><a xlink:href="../programs/midas_prepcma.html" xlink:title="midas_midas_prepcma">
<polygon fill="gray" stroke="green" points="382.25,-252 239.25,-252 239.25,-216 382.25,-216 382.25,-252"/>
<text text-anchor="middle" x="310.75" y="-230.3" font-family="Times,serif" font-size="14.00">midas_midas_prepcma</text>
</a>
</g>
</g>
<!-- midas_midas_prepcma&#45;&gt;enkf_mod -->
<g id="edge3" class="edge">
<title>midas_midas_prepcma&#45;&gt;enkf_mod</title>
<path fill="none" stroke="black" d="M307.39,-207.52C304.51,-189.4 299.55,-164.71 291.75,-144 276.4,-103.27 249.33,-59.81 233.73,-36.39"/>
<ellipse fill="black" stroke="black" cx="308.05" cy="-211.88" rx="4" ry="4"/>
</g>
</g>
</svg>
