<?xml version="1.0" encoding="UTF-8" standalone="no"?>
<!DOCTYPE svg PUBLIC "-//W3C//DTD SVG 1.1//EN"
 "http://www.w3.org/Graphics/SVG/1.1/DTD/svg11.dtd">
<!-- Generated by graphviz version 3.0.0 (20220315.2325)
 -->
<!-- Title: enkf_mod Pages: 1 -->
<svg width="1059pt" height="673pt"
 viewBox="0.00 0.00 1058.50 673.00" xmlns="http://www.w3.org/2000/svg" xmlns:xlink="http://www.w3.org/1999/xlink">
<g id="graph0" class="graph" transform="scale(1 1) rotate(0) translate(4 669)">
<title>enkf_mod</title>
<polygon fill="white" stroke="transparent" points="-4,4 -4,-669 1054.5,-669 1054.5,4 -4,4"/>
<text text-anchor="middle" x="525.25" y="-37.8" font-family="Times,serif" font-size="14.00">Red boxes indicate modules with dependencies not shown</text>
<text text-anchor="middle" x="525.25" y="-22.8" font-family="Times,serif" font-size="14.00">Lower level dependencies can be shown by clicking on a red box</text>
<text text-anchor="middle" x="525.25" y="-7.8" font-family="Times,serif" font-size="14.00">Shaded boxes indicate modules with no dependencies</text>
<!-- enkf_mod -->
<g id="node1" class="node">
<title>enkf_mod</title>
<g id="a_node1"><a xlink:href="enkf_mod.html" xlink:title="enkf_mod">
<polygon fill="none" stroke="black" points="590,-665 517,-665 517,-629 590,-629 590,-665"/>
<text text-anchor="middle" x="553.5" y="-643.3" font-family="Times,serif" font-size="14.00">enkf_mod</text>
</a>
</g>
</g>
<!-- calcheightandpressure_mod -->
<g id="node2" class="node">
<title>calcheightandpressure_mod</title>
<g id="a_node2"><a xlink:href="../modules/calcheightandpressure_mod.svg" xlink:title="calcheightandpressure_mod">
<polygon fill="none" stroke="red" points="167,-593 0,-593 0,-557 167,-557 167,-593"/>
<text text-anchor="middle" x="83.5" y="-571.3" font-family="Times,serif" font-size="14.00">calcheightandpressure_mod</text>
</a>
</g>
</g>
<!-- enkf_mod&#45;&gt;calcheightandpressure_mod -->
<g id="edge1" class="edge">
<title>enkf_mod&#45;&gt;calcheightandpressure_mod</title>
<path fill="none" stroke="black" d="M516.91,-641.2C450.02,-632.34 303.56,-612.52 180.5,-593 179.4,-592.83 178.3,-592.65 177.19,-592.47"/>
<polygon fill="black" stroke="black" points="177.5,-588.98 167.07,-590.82 176.38,-595.89 177.5,-588.98"/>
</g>
<!-- codeprecision_mod -->
<g id="node3" class="node">
<title>codeprecision_mod</title>
<g id="a_node3"><a xlink:href="codeprecision_mod.html" xlink:title="codeprecision_mod">
<polygon fill="gray" stroke="black" points="229.5,-521 107.5,-521 107.5,-485 229.5,-485 229.5,-521"/>
<text text-anchor="middle" x="168.5" y="-499.3" font-family="Times,serif" font-size="14.00">codeprecision_mod</text>
</a>
</g>
</g>
<!-- enkf_mod&#45;&gt;codeprecision_mod -->
<g id="edge2" class="edge">
<title>enkf_mod&#45;&gt;codeprecision_mod</title>
<path fill="none" stroke="black" d="M516.95,-642.91C445.38,-636.36 289.7,-619.45 243.5,-593 217.38,-578.05 196.26,-550.36 183.17,-529.83"/>
<polygon fill="black" stroke="black" points="186.11,-527.93 177.9,-521.24 180.15,-531.59 186.11,-527.93"/>
</g>
<!-- codtyp_mod -->
<g id="node4" class="node">
<title>codtyp_mod</title>
<g id="a_node4"><a xlink:href="../modules/codtyp_mod.svg" xlink:title="codtyp_mod">
<polygon fill="none" stroke="red" points="267.5,-449 183.5,-449 183.5,-413 267.5,-413 267.5,-449"/>
<text text-anchor="middle" x="225.5" y="-427.3" font-family="Times,serif" font-size="14.00">codtyp_mod</text>
</a>
</g>
</g>
<!-- enkf_mod&#45;&gt;codtyp_mod -->
<g id="edge3" class="edge">
<title>enkf_mod&#45;&gt;codtyp_mod</title>
<path fill="none" stroke="black" d="M516.77,-643.33C450.89,-637.82 316.26,-623.14 281.5,-593 271.05,-583.94 245.98,-502.2 233.23,-458.8"/>
<polygon fill="black" stroke="black" points="236.58,-457.78 230.42,-449.16 229.86,-459.74 236.58,-457.78"/>
</g>
<!-- ensembleobservations_mod -->
<g id="node5" class="node">
<title>ensembleobservations_mod</title>
<g id="a_node5"><a xlink:href="../modules/ensembleobservations_mod.svg" xlink:title="ensembleobservations_mod">
<polygon fill="none" stroke="red" points="305.5,-377 139.5,-377 139.5,-341 305.5,-341 305.5,-377"/>
<text text-anchor="middle" x="222.5" y="-355.3" font-family="Times,serif" font-size="14.00">ensembleobservations_mod</text>
</a>
</g>
</g>
<!-- enkf_mod&#45;&gt;ensembleobservations_mod -->
<g id="edge4" class="edge">
<title>enkf_mod&#45;&gt;ensembleobservations_mod</title>
<path fill="none" stroke="black" d="M516.76,-642.39C458.09,-635.87 347.05,-620.23 319.5,-593 261,-535.18 316.98,-484.6 276.5,-413 270.45,-402.3 261.61,-392.34 252.82,-384.01"/>
<polygon fill="black" stroke="black" points="254.96,-381.22 245.19,-377.13 250.27,-386.42 254.96,-381.22"/>
</g>
<!-- ensemblestatevector_mod -->
<g id="node6" class="node">
<title>ensemblestatevector_mod</title>
<g id="a_node6"><a xlink:href="../modules/ensemblestatevector_mod.svg" xlink:title="ensemblestatevector_mod">
<polygon fill="none" stroke="red" points="343.5,-305 187.5,-305 187.5,-269 343.5,-269 343.5,-305"/>
<text text-anchor="middle" x="265.5" y="-283.3" font-family="Times,serif" font-size="14.00">ensemblestatevector_mod</text>
</a>
</g>
</g>
<!-- enkf_mod&#45;&gt;ensemblestatevector_mod -->
<g id="edge5" class="edge">
<title>enkf_mod&#45;&gt;ensemblestatevector_mod</title>
<path fill="none" stroke="black" d="M516.73,-646.44C472.82,-644.91 399.98,-635.51 357.5,-593 328.54,-564.02 333.5,-544.97 333.5,-504 333.5,-504 333.5,-504 333.5,-430 333.5,-389.55 333.12,-376.91 314.5,-341 309.11,-330.61 301.13,-320.74 293.17,-312.41"/>
<polygon fill="black" stroke="black" points="295.49,-309.78 285.94,-305.21 290.56,-314.74 295.49,-309.78"/>
</g>
<!-- gridstatevector_mod -->
<g id="node7" class="node">
<title>gridstatevector_mod</title>
<g id="a_node7"><a xlink:href="../modules/gridstatevector_mod.svg" xlink:title="gridstatevector_mod">
<polygon fill="none" stroke="red" points="381,-233 254,-233 254,-197 381,-197 381,-233"/>
<text text-anchor="middle" x="317.5" y="-211.3" font-family="Times,serif" font-size="14.00">gridstatevector_mod</text>
</a>
</g>
</g>
<!-- enkf_mod&#45;&gt;gridstatevector_mod -->
<g id="edge6" class="edge">
<title>enkf_mod&#45;&gt;gridstatevector_mod</title>
<path fill="none" stroke="black" d="M516.9,-643.45C481.02,-638.98 427.23,-626.7 395.5,-593 367.42,-563.17 371.5,-544.97 371.5,-504 371.5,-504 371.5,-504 371.5,-358 371.5,-317.55 368.14,-306.3 352.5,-269 348.51,-259.49 342.77,-249.86 337.08,-241.46"/>
<polygon fill="black" stroke="black" points="339.88,-239.36 331.25,-233.21 334.17,-243.4 339.88,-239.36"/>
</g>
<!-- gridvariabletransforms_mod -->
<g id="node8" class="node">
<title>gridvariabletransforms_mod</title>
<g id="a_node8"><a xlink:href="../modules/gridvariabletransforms_mod.svg" xlink:title="gridvariabletransforms_mod">
<polygon fill="none" stroke="red" points="419.5,-161 249.5,-161 249.5,-125 419.5,-125 419.5,-161"/>
<text text-anchor="middle" x="334.5" y="-139.3" font-family="Times,serif" font-size="14.00">gridvariabletransforms_mod</text>
</a>
</g>
</g>
<!-- enkf_mod&#45;&gt;gridvariabletransforms_mod -->
<g id="edge7" class="edge">
<title>enkf_mod&#45;&gt;gridvariabletransforms_mod</title>
<path fill="none" stroke="black" d="M516.95,-638.73C490.16,-631.55 454.86,-617.89 433.5,-593 406.82,-561.91 409.5,-544.97 409.5,-504 409.5,-504 409.5,-504 409.5,-286 409.5,-245.46 409.38,-232.33 389.5,-197 383.35,-186.08 374.25,-175.99 365.2,-167.62"/>
<polygon fill="black" stroke="black" points="367.51,-164.98 357.69,-161.01 362.88,-170.24 367.51,-164.98"/>
</g>
<!-- horizontalcoord_mod -->
<g id="node9" class="node">
<title>horizontalcoord_mod</title>
<g id="a_node9"><a xlink:href="../modules/horizontalcoord_mod.svg" xlink:title="horizontalcoord_mod">
<polygon fill="none" stroke="red" points="514,-89 381,-89 381,-53 514,-53 514,-89"/>
<text text-anchor="middle" x="447.5" y="-67.3" font-family="Times,serif" font-size="14.00">horizontalcoord_mod</text>
</a>
</g>
</g>
<!-- enkf_mod&#45;&gt;horizontalcoord_mod -->
<g id="edge8" class="edge">
<title>enkf_mod&#45;&gt;horizontalcoord_mod</title>
<path fill="none" stroke="black" d="M516.76,-631.89C499,-623.25 478.88,-610.45 466.5,-593 443.1,-560.01 447.5,-544.45 447.5,-504 447.5,-504 447.5,-504 447.5,-214 447.5,-174 447.5,-127.65 447.5,-99.08"/>
<polygon fill="black" stroke="black" points="451,-99.05 447.5,-89.05 444,-99.05 451,-99.05"/>
</g>
<!-- localizationfunction_mod -->
<g id="node10" class="node">
<title>localizationfunction_mod</title>
<g id="a_node10"><a xlink:href="../modules/localizationfunction_mod.svg" xlink:title="localizationfunction_mod">
<polygon fill="none" stroke="red" points="631,-593 476,-593 476,-557 631,-557 631,-593"/>
<text text-anchor="middle" x="553.5" y="-571.3" font-family="Times,serif" font-size="14.00">localizationfunction_mod</text>
</a>
</g>
</g>
<!-- enkf_mod&#45;&gt;localizationfunction_mod -->
<g id="edge9" class="edge">
<title>enkf_mod&#45;&gt;localizationfunction_mod</title>
<path fill="none" stroke="black" d="M553.5,-628.7C553.5,-620.98 553.5,-611.71 553.5,-603.11"/>
<polygon fill="black" stroke="black" points="557,-603.1 553.5,-593.1 550,-603.1 557,-603.1"/>
</g>
<!-- mathphysconstants_mod -->
<g id="node11" class="node">
<title>mathphysconstants_mod</title>
<g id="a_node11"><a xlink:href="mathphysconstants_mod.html" xlink:title="mathphysconstants_mod">
<polygon fill="gray" stroke="black" points="669.5,-521 519.5,-521 519.5,-485 669.5,-485 669.5,-521"/>
<text text-anchor="middle" x="594.5" y="-499.3" font-family="Times,serif" font-size="14.00">mathphysconstants_mod</text>
</a>
</g>
</g>
<!-- enkf_mod&#45;&gt;mathphysconstants_mod -->
<g id="edge10" class="edge">
<title>enkf_mod&#45;&gt;mathphysconstants_mod</title>
<path fill="none" stroke="black" d="M590.06,-633.4C608.39,-625.02 628.9,-611.99 639.5,-593 647.3,-579.03 645.02,-572.02 639.5,-557 635.72,-546.7 628.94,-537.02 621.78,-528.84"/>
<polygon fill="black" stroke="black" points="624.27,-526.38 614.88,-521.47 619.16,-531.16 624.27,-526.38"/>
</g>
<!-- midasmpi_mod -->
<g id="node12" class="node">
<title>midasmpi_mod</title>
<g id="a_node12"><a xlink:href="../modules/midasmpi_mod.svg" xlink:title="midasmpi_mod">
<polygon fill="none" stroke="red" points="707,-449 606,-449 606,-413 707,-413 707,-449"/>
<text text-anchor="middle" x="656.5" y="-427.3" font-family="Times,serif" font-size="14.00">midasmpi_mod</text>
</a>
</g>
</g>
<!-- enkf_mod&#45;&gt;midasmpi_mod -->
<g id="edge11" class="edge">
<title>enkf_mod&#45;&gt;midasmpi_mod</title>
<path fill="none" stroke="black" d="M590.11,-635.27C612.22,-627.03 639.35,-613.52 656.5,-593 687.91,-555.41 688.07,-533.04 678.5,-485 676.71,-476.01 673.36,-466.64 669.81,-458.32"/>
<polygon fill="black" stroke="black" points="672.96,-456.77 665.63,-449.12 666.58,-459.67 672.96,-456.77"/>
</g>
<!-- obsspacedata_mod -->
<g id="node13" class="node">
<title>obsspacedata_mod</title>
<g id="a_node13"><a xlink:href="../modules/obsspacedata_mod.svg" xlink:title="obsspacedata_mod">
<polygon fill="none" stroke="red" points="745.5,-377 627.5,-377 627.5,-341 745.5,-341 745.5,-377"/>
<text text-anchor="middle" x="686.5" y="-355.3" font-family="Times,serif" font-size="14.00">obsspacedata_mod</text>
</a>
</g>
</g>
<!-- enkf_mod&#45;&gt;obsspacedata_mod -->
<g id="edge12" class="edge">
<title>enkf_mod&#45;&gt;obsspacedata_mod</title>
<path fill="none" stroke="black" d="M590.04,-640.39C619.3,-633.96 659.17,-620.52 682.5,-593 735.09,-530.96 735.65,-491.8 715.5,-413 713.12,-403.7 708.74,-394.27 704.08,-386"/>
<polygon fill="black" stroke="black" points="706.96,-383.99 698.81,-377.22 700.96,-387.59 706.96,-383.99"/>
</g>
<!-- timecoord_mod -->
<g id="node14" class="node">
<title>timecoord_mod</title>
<g id="a_node14"><a xlink:href="../modules/timecoord_mod.svg" xlink:title="timecoord_mod">
<polygon fill="none" stroke="red" points="783.5,-305 681.5,-305 681.5,-269 783.5,-269 783.5,-305"/>
<text text-anchor="middle" x="732.5" y="-283.3" font-family="Times,serif" font-size="14.00">timecoord_mod</text>
</a>
</g>
</g>
<!-- enkf_mod&#45;&gt;timecoord_mod -->
<g id="edge13" class="edge">
<title>enkf_mod&#45;&gt;timecoord_mod</title>
<path fill="none" stroke="black" d="M590.32,-639.67C652.95,-626.56 773.5,-590.15 773.5,-504 773.5,-504 773.5,-504 773.5,-430 773.5,-388.41 757.06,-342.56 745,-314.51"/>
<polygon fill="black" stroke="black" points="748.05,-312.75 740.8,-305.03 741.65,-315.59 748.05,-312.75"/>
</g>
<!-- tovs_nl_mod -->
<g id="node15" class="node">
<title>tovs_nl_mod</title>
<g id="a_node15"><a xlink:href="../modules/tovs_nl_mod.svg" xlink:title="tovs_nl_mod">
<polygon fill="none" stroke="red" points="821,-233 734,-233 734,-197 821,-197 821,-233"/>
<text text-anchor="middle" x="777.5" y="-211.3" font-family="Times,serif" font-size="14.00">tovs_nl_mod</text>
</a>
</g>
</g>
<!-- enkf_mod&#45;&gt;tovs_nl_mod -->
<g id="edge14" class="edge">
<title>enkf_mod&#45;&gt;tovs_nl_mod</title>
<path fill="none" stroke="black" d="M590.19,-642.67C661.42,-633.98 811.5,-603.83 811.5,-504 811.5,-504 811.5,-504 811.5,-358 811.5,-316.91 797.87,-270.92 787.87,-242.72"/>
<polygon fill="black" stroke="black" points="791.1,-241.36 784.38,-233.17 784.53,-243.76 791.1,-241.36"/>
</g>
<!-- utilities_mod -->
<g id="node16" class="node">
<title>utilities_mod</title>
<g id="a_node16"><a xlink:href="../modules/utilities_mod.svg" xlink:title="utilities_mod">
<polygon fill="none" stroke="red" points="876.5,-161 788.5,-161 788.5,-125 876.5,-125 876.5,-161"/>
<text text-anchor="middle" x="832.5" y="-139.3" font-family="Times,serif" font-size="14.00">utilities_mod</text>
</a>
</g>
</g>
<!-- enkf_mod&#45;&gt;utilities_mod -->
<g id="edge15" class="edge">
<title>enkf_mod&#45;&gt;utilities_mod</title>
<path fill="none" stroke="black" d="M590.09,-644.94C669.29,-640.49 849.5,-617.85 849.5,-504 849.5,-504 849.5,-504 849.5,-286 849.5,-245.93 842.74,-199.95 837.75,-171.43"/>
<polygon fill="black" stroke="black" points="841.16,-170.63 835.94,-161.41 834.27,-171.87 841.16,-170.63"/>
</g>
<!-- varnamelist_mod -->
<g id="node17" class="node">
<title>varnamelist_mod</title>
<g id="a_node17"><a xlink:href="../modules/varnamelist_mod.svg" xlink:title="varnamelist_mod">
<polygon fill="none" stroke="red" points="959.5,-89 849.5,-89 849.5,-53 959.5,-53 959.5,-89"/>
<text text-anchor="middle" x="904.5" y="-67.3" font-family="Times,serif" font-size="14.00">varnamelist_mod</text>
</a>
</g>
</g>
<!-- enkf_mod&#45;&gt;varnamelist_mod -->
<g id="edge16" class="edge">
<title>enkf_mod&#45;&gt;varnamelist_mod</title>
<path fill="none" stroke="black" d="M590.15,-646.53C645.71,-645.75 752.89,-637.9 829.5,-593 874.13,-566.84 904.5,-555.73 904.5,-504 904.5,-504 904.5,-504 904.5,-214 904.5,-174 904.5,-127.65 904.5,-99.08"/>
<polygon fill="black" stroke="black" points="908,-99.05 904.5,-89.05 901,-99.05 908,-99.05"/>
</g>
<!-- verticalcoord_mod -->
<g id="node18" class="node">
<title>verticalcoord_mod</title>
<g id="a_node18"><a xlink:href="../modules/verticalcoord_mod.svg" xlink:title="verticalcoord_mod">
<polygon fill="none" stroke="red" points="1050.5,-593 932.5,-593 932.5,-557 1050.5,-557 1050.5,-593"/>
<text text-anchor="middle" x="991.5" y="-571.3" font-family="Times,serif" font-size="14.00">verticalcoord_mod</text>
</a>
</g>
</g>
<!-- enkf_mod&#45;&gt;verticalcoord_mod -->
<g id="edge17" class="edge">
<title>enkf_mod&#45;&gt;verticalcoord_mod</title>
<path fill="none" stroke="black" d="M590.19,-641.72C656.18,-633.78 799.11,-615.53 918.5,-593 919.76,-592.76 921.03,-592.52 922.31,-592.27"/>
<polygon fill="black" stroke="black" points="923.13,-595.67 932.23,-590.25 921.73,-588.81 923.13,-595.67"/>
</g>
</g>
</svg>
