<?xml version="1.0" encoding="UTF-8" standalone="no"?>
<!DOCTYPE svg PUBLIC "-//W3C//DTD SVG 1.1//EN"
 "http://www.w3.org/Graphics/SVG/1.1/DTD/svg11.dtd">
<!-- Generated by graphviz version 3.0.0 (20220315.2325)
 -->
<!-- Title: ensembleobservations_mod Pages: 1 -->
<svg width="517pt" height="673pt"
 viewBox="0.00 0.00 516.50 673.00" xmlns="http://www.w3.org/2000/svg" xmlns:xlink="http://www.w3.org/1999/xlink">
<g id="graph0" class="graph" transform="scale(1 1) rotate(0) translate(4 669)">
<title>ensembleobservations_mod</title>
<polygon fill="white" stroke="transparent" points="-4,4 -4,-669 512.5,-669 512.5,4 -4,4"/>
<text text-anchor="middle" x="254.25" y="-649.8" font-family="Times,serif" font-size="14.00">Blue boxes indicate modules with reverse dependencies not shown</text>
<text text-anchor="middle" x="254.25" y="-634.8" font-family="Times,serif" font-size="14.00">Higher level reverse dependencies can be shown by clicking on a blue box</text>
<text text-anchor="middle" x="254.25" y="-619.8" font-family="Times,serif" font-size="14.00">Green boxes are programs</text>
<!-- ensembleobservations_mod -->
<g id="node1" class="node">
<title>ensembleobservations_mod</title>
<g id="a_node1"><a xlink:href="ensembleobservations_mod.html" xlink:title="ensembleobservations_mod">
<polygon fill="none" stroke="black" points="302.5,-36 136.5,-36 136.5,0 302.5,0 302.5,-36"/>
<text text-anchor="middle" x="219.5" y="-14.3" font-family="Times,serif" font-size="14.00">ensembleobservations_mod</text>
</a>
</g>
</g>
<!-- enkf_mod -->
<g id="node2" class="node">
<title>enkf_mod</title>
<g id="a_node2"><a xlink:href="../modules/enkf_mod_rev.svg" xlink:title="enkf_mod">
<polygon fill="none" stroke="blue" points="73,-108 0,-108 0,-72 73,-72 73,-108"/>
<text text-anchor="middle" x="36.5" y="-86.3" font-family="Times,serif" font-size="14.00">enkf_mod</text>
</a>
</g>
</g>
<!-- enkf_mod&#45;&gt;ensembleobservations_mod -->
<g id="edge1" class="edge">
<title>enkf_mod&#45;&gt;ensembleobservations_mod</title>
<path fill="none" stroke="black" d="M80.9,-72.02C109.42,-61.11 146.32,-46.99 174.88,-36.07"/>
<ellipse fill="black" stroke="black" cx="76.83" cy="-73.57" rx="4" ry="4"/>
</g>
<!-- obsdiagfiles_mod -->
<g id="node3" class="node">
<title>obsdiagfiles_mod</title>
<g id="a_node3"><a xlink:href="../modules/obsdiagfiles_mod_rev.svg" xlink:title="obsdiagfiles_mod">
<polygon fill="none" stroke="blue" points="134.5,-180 22.5,-180 22.5,-144 134.5,-144 134.5,-180"/>
<text text-anchor="middle" x="78.5" y="-158.3" font-family="Times,serif" font-size="14.00">obsdiagfiles_mod</text>
</a>
</g>
</g>
<!-- obsdiagfiles_mod&#45;&gt;ensembleobservations_mod -->
<g id="edge2" class="edge">
<title>obsdiagfiles_mod&#45;&gt;ensembleobservations_mod</title>
<path fill="none" stroke="black" d="M94.88,-136.79C108.16,-118.05 128,-91.99 148.5,-72 162.16,-58.68 179.24,-45.83 193.23,-36.12"/>
<ellipse fill="black" stroke="black" cx="92.24" cy="-140.56" rx="4" ry="4"/>
</g>
<!-- obsfiles_mod -->
<g id="node4" class="node">
<title>obsfiles_mod</title>
<g id="a_node4"><a xlink:href="../modules/obsfiles_mod_rev.svg" xlink:title="obsfiles_mod">
<polygon fill="none" stroke="blue" points="172,-252 83,-252 83,-216 172,-216 172,-252"/>
<text text-anchor="middle" x="127.5" y="-230.3" font-family="Times,serif" font-size="14.00">obsfiles_mod</text>
</a>
</g>
</g>
<!-- obsfiles_mod&#45;&gt;ensembleobservations_mod -->
<g id="edge3" class="edge">
<title>obsfiles_mod&#45;&gt;ensembleobservations_mod</title>
<path fill="none" stroke="black" d="M135.03,-207.56C145,-175.26 163.97,-118.17 186.5,-72 192.59,-59.53 200.84,-46.28 207.56,-36.15"/>
<ellipse fill="black" stroke="black" cx="133.75" cy="-211.78" rx="4" ry="4"/>
</g>
<!-- ominusf_mod -->
<g id="node5" class="node">
<title>ominusf_mod</title>
<g id="a_node5"><a xlink:href="../modules/ominusf_mod_rev.svg" xlink:title="ominusf_mod">
<polygon fill="none" stroke="blue" points="210,-324 117,-324 117,-288 210,-288 210,-324"/>
<text text-anchor="middle" x="163.5" y="-302.3" font-family="Times,serif" font-size="14.00">ominusf_mod</text>
</a>
</g>
</g>
<!-- ominusf_mod&#45;&gt;ensembleobservations_mod -->
<g id="edge4" class="edge">
<title>ominusf_mod&#45;&gt;ensembleobservations_mod</title>
<path fill="none" stroke="black" d="M172.25,-280.28C175.16,-271.44 178.23,-261.35 180.5,-252 199.85,-172.29 212.77,-74.91 217.5,-36.13"/>
<ellipse fill="black" stroke="black" cx="170.92" cy="-284.2" rx="4" ry="4"/>
</g>
<!-- sqlitefiles_mod -->
<g id="node6" class="node">
<title>sqlitefiles_mod</title>
<g id="a_node6"><a xlink:href="../modules/sqlitefiles_mod_rev.svg" xlink:title="sqlitefiles_mod">
<polygon fill="none" stroke="blue" points="248,-396 149,-396 149,-360 248,-360 248,-396"/>
<text text-anchor="middle" x="198.5" y="-374.3" font-family="Times,serif" font-size="14.00">sqlitefiles_mod</text>
</a>
</g>
</g>
<!-- sqlitefiles_mod&#45;&gt;ensembleobservations_mod -->
<g id="edge5" class="edge">
<title>sqlitefiles_mod&#45;&gt;ensembleobservations_mod</title>
<path fill="none" stroke="black" d="M209.93,-352.28C221.75,-324.4 238.5,-277.43 238.5,-235 238.5,-235 238.5,-235 238.5,-161 238.5,-115.73 228.9,-63.06 223.34,-36.39"/>
<ellipse fill="black" stroke="black" cx="208.19" cy="-356.28" rx="4" ry="4"/>
</g>
<!-- midas_midas_ensembleh -->
<g id="node7" class="node">
<title>midas_midas_ensembleh</title>
<g id="a_node7"><a xlink:href="../programs/midas_ensembleh.html" xlink:title="midas_midas_ensembleh">
<polygon fill="gray" stroke="green" points="320.5,-468 166.5,-468 166.5,-432 320.5,-432 320.5,-468"/>
<text text-anchor="middle" x="243.5" y="-446.3" font-family="Times,serif" font-size="14.00">midas_midas_ensembleh</text>
</a>
</g>
</g>
<!-- midas_midas_ensembleh&#45;&gt;ensembleobservations_mod -->
<g id="edge6" class="edge">
<title>midas_midas_ensembleh&#45;&gt;ensembleobservations_mod</title>
<path fill="none" stroke="black" d="M252.93,-424.09C262.68,-396.05 276.5,-348.93 276.5,-307 276.5,-307 276.5,-307 276.5,-161 276.5,-112.92 248.01,-61.84 231.31,-36.04"/>
<ellipse fill="black" stroke="black" cx="251.52" cy="-428.04" rx="4" ry="4"/>
</g>
<!-- midas_midas_letkf -->
<g id="node8" class="node">
<title>midas_midas_letkf</title>
<g id="a_node8"><a xlink:href="../programs/midas_letkf.html" xlink:title="midas_midas_letkf">
<polygon fill="gray" stroke="green" points="409.5,-540 287.5,-540 287.5,-504 409.5,-504 409.5,-540"/>
<text text-anchor="middle" x="348.5" y="-518.3" font-family="Times,serif" font-size="14.00">midas_midas_letkf</text>
</a>
</g>
</g>
<!-- midas_midas_letkf&#45;&gt;ensembleobservations_mod -->
<g id="edge7" class="edge">
<title>midas_midas_letkf&#45;&gt;ensembleobservations_mod</title>
<path fill="none" stroke="black" d="M348.5,-495.78C348.5,-467.39 348.5,-419.89 348.5,-379 348.5,-379 348.5,-379 348.5,-161 348.5,-103.55 289.93,-59.05 251.72,-36.13"/>
<ellipse fill="black" stroke="black" cx="348.5" cy="-499.95" rx="4" ry="4"/>
</g>
<!-- midas_midas_ominusf -->
<g id="node9" class="node">
<title>midas_midas_ominusf</title>
<g id="a_node9"><a xlink:href="../programs/midas_ominusf.html" xlink:title="midas_midas_ominusf">
<polygon fill="gray" stroke="green" points="508.5,-612 366.5,-612 366.5,-576 508.5,-576 508.5,-612"/>
<text text-anchor="middle" x="437.5" y="-590.3" font-family="Times,serif" font-size="14.00">midas_midas_ominusf</text>
</a>
</g>
</g>
<!-- midas_midas_ominusf&#45;&gt;ensembleobservations_mod -->
<g id="edge8" class="edge">
<title>midas_midas_ominusf&#45;&gt;ensembleobservations_mod</title>
<path fill="none" stroke="black" d="M437.5,-567.78C437.5,-539.39 437.5,-491.89 437.5,-451 437.5,-451 437.5,-451 437.5,-161 437.5,-92.12 360.14,-54.91 297.59,-36.09"/>
<ellipse fill="black" stroke="black" cx="437.5" cy="-571.95" rx="4" ry="4"/>
</g>
</g>
</svg>
