<?xml version="1.0" encoding="UTF-8" standalone="no"?>
<!DOCTYPE svg PUBLIC "-//W3C//DTD SVG 1.1//EN"
 "http://www.w3.org/Graphics/SVG/1.1/DTD/svg11.dtd">
<!-- Generated by graphviz version 3.0.0 (20220315.2325)
 -->
<!-- Title: ensembleobservations_mod Pages: 1 -->
<svg width="705pt" height="673pt"
 viewBox="0.00 0.00 705.00 673.00" xmlns="http://www.w3.org/2000/svg" xmlns:xlink="http://www.w3.org/1999/xlink">
<g id="graph0" class="graph" transform="scale(1 1) rotate(0) translate(4 669)">
<title>ensembleobservations_mod</title>
<polygon fill="white" stroke="transparent" points="-4,4 -4,-669 701,-669 701,4 -4,4"/>
<text text-anchor="middle" x="348.5" y="-37.8" font-family="Times,serif" font-size="14.00">Red boxes indicate modules with dependencies not shown</text>
<text text-anchor="middle" x="348.5" y="-22.8" font-family="Times,serif" font-size="14.00">Lower level dependencies can be shown by clicking on a red box</text>
<text text-anchor="middle" x="348.5" y="-7.8" font-family="Times,serif" font-size="14.00">Shaded boxes indicate modules with no dependencies</text>
<!-- ensembleobservations_mod -->
<g id="node1" class="node">
<title>ensembleobservations_mod</title>
<g id="a_node1"><a xlink:href="ensembleobservations_mod.html" xlink:title="ensembleobservations_mod">
<polygon fill="none" stroke="black" points="377,-665 211,-665 211,-629 377,-629 377,-665"/>
<text text-anchor="middle" x="294" y="-643.3" font-family="Times,serif" font-size="14.00">ensembleobservations_mod</text>
</a>
</g>
</g>
<!-- bufr_mod -->
<g id="node2" class="node">
<title>bufr_mod</title>
<g id="a_node2"><a xlink:href="bufr_mod.html" xlink:title="bufr_mod">
<polygon fill="gray" stroke="black" points="70,-593 0,-593 0,-557 70,-557 70,-593"/>
<text text-anchor="middle" x="35" y="-571.3" font-family="Times,serif" font-size="14.00">bufr_mod</text>
</a>
</g>
</g>
<!-- ensembleobservations_mod&#45;&gt;bufr_mod -->
<g id="edge1" class="edge">
<title>ensembleobservations_mod&#45;&gt;bufr_mod</title>
<path fill="none" stroke="black" d="M219.71,-628.91C179.34,-619.21 128.67,-606.36 84,-593 82.6,-592.58 81.18,-592.15 79.74,-591.7"/>
<polygon fill="black" stroke="black" points="80.8,-588.36 70.21,-588.63 78.65,-595.03 80.8,-588.36"/>
</g>
<!-- codeprecision_mod -->
<g id="node3" class="node">
<title>codeprecision_mod</title>
<g id="a_node3"><a xlink:href="codeprecision_mod.html" xlink:title="codeprecision_mod">
<polygon fill="gray" stroke="black" points="133,-521 11,-521 11,-485 133,-485 133,-521"/>
<text text-anchor="middle" x="72" y="-499.3" font-family="Times,serif" font-size="14.00">codeprecision_mod</text>
</a>
</g>
</g>
<!-- ensembleobservations_mod&#45;&gt;codeprecision_mod -->
<g id="edge2" class="edge">
<title>ensembleobservations_mod&#45;&gt;codeprecision_mod</title>
<path fill="none" stroke="black" d="M223.81,-628.95C198.21,-620.67 169.93,-608.97 147,-593 122.7,-576.08 101.64,-549.36 88.08,-529.61"/>
<polygon fill="black" stroke="black" points="90.85,-527.46 82.39,-521.09 85.03,-531.35 90.85,-527.46"/>
</g>
<!-- columndata_mod -->
<g id="node4" class="node">
<title>columndata_mod</title>
<g id="a_node4"><a xlink:href="../modules/columndata_mod.svg" xlink:title="columndata_mod">
<polygon fill="none" stroke="red" points="170.5,-449 59.5,-449 59.5,-413 170.5,-413 170.5,-449"/>
<text text-anchor="middle" x="115" y="-427.3" font-family="Times,serif" font-size="14.00">columndata_mod</text>
</a>
</g>
</g>
<!-- ensembleobservations_mod&#45;&gt;columndata_mod -->
<g id="edge3" class="edge">
<title>ensembleobservations_mod&#45;&gt;columndata_mod</title>
<path fill="none" stroke="black" d="M239.82,-628.97C220.48,-620.67 199.82,-608.96 185,-593 149.84,-555.15 163.3,-532.07 142,-485 138.04,-476.25 133.39,-466.86 129.08,-458.46"/>
<polygon fill="black" stroke="black" points="132.13,-456.73 124.41,-449.47 125.92,-459.96 132.13,-456.73"/>
</g>
<!-- earthconstants_mod -->
<g id="node5" class="node">
<title>earthconstants_mod</title>
<g id="a_node5"><a xlink:href="../modules/earthconstants_mod.svg" xlink:title="earthconstants_mod">
<polygon fill="none" stroke="red" points="208.5,-377 83.5,-377 83.5,-341 208.5,-341 208.5,-377"/>
<text text-anchor="middle" x="146" y="-355.3" font-family="Times,serif" font-size="14.00">earthconstants_mod</text>
</a>
</g>
</g>
<!-- ensembleobservations_mod&#45;&gt;earthconstants_mod -->
<g id="edge4" class="edge">
<title>ensembleobservations_mod&#45;&gt;earthconstants_mod</title>
<path fill="none" stroke="black" d="M262,-628.9C248.08,-619.94 232.76,-607.75 223,-593 177.55,-524.32 210.94,-488.91 179,-413 175.11,-403.76 169.72,-394.27 164.42,-385.92"/>
<polygon fill="black" stroke="black" points="167.22,-383.8 158.79,-377.38 161.37,-387.66 167.22,-383.8"/>
</g>
<!-- kdtree2_mod -->
<g id="node6" class="node">
<title>kdtree2_mod</title>
<g id="a_node6"><a xlink:href="../modules/kdtree2_mod.svg" xlink:title="kdtree2_mod">
<polygon fill="none" stroke="red" points="247,-305 159,-305 159,-269 247,-269 247,-305"/>
<text text-anchor="middle" x="203" y="-283.3" font-family="Times,serif" font-size="14.00">kdtree2_mod</text>
</a>
</g>
</g>
<!-- ensembleobservations_mod&#45;&gt;kdtree2_mod -->
<g id="edge5" class="edge">
<title>ensembleobservations_mod&#45;&gt;kdtree2_mod</title>
<path fill="none" stroke="black" d="M281.33,-628.57C274.53,-618.56 266.45,-605.52 261,-593 244.66,-555.43 237,-544.97 237,-504 237,-504 237,-504 237,-430 237,-388.91 223.37,-342.92 213.37,-314.72"/>
<polygon fill="black" stroke="black" points="216.6,-313.36 209.88,-305.17 210.03,-315.76 216.6,-313.36"/>
</g>
<!-- mathphysconstants_mod -->
<g id="node7" class="node">
<title>mathphysconstants_mod</title>
<g id="a_node7"><a xlink:href="mathphysconstants_mod.html" xlink:title="mathphysconstants_mod">
<polygon fill="gray" stroke="black" points="285,-233 135,-233 135,-197 285,-197 285,-233"/>
<text text-anchor="middle" x="210" y="-211.3" font-family="Times,serif" font-size="14.00">mathphysconstants_mod</text>
</a>
</g>
</g>
<!-- ensembleobservations_mod&#45;&gt;mathphysconstants_mod -->
<g id="edge6" class="edge">
<title>ensembleobservations_mod&#45;&gt;mathphysconstants_mod</title>
<path fill="none" stroke="black" d="M290.16,-628.61C284.6,-601.94 275,-549.27 275,-504 275,-504 275,-504 275,-358 275,-317.55 274.05,-305.2 256,-269 250.97,-258.92 243.58,-249.21 236.18,-240.91"/>
<polygon fill="black" stroke="black" points="238.56,-238.33 229.16,-233.43 233.45,-243.12 238.56,-238.33"/>
</g>
<!-- midasmpi_mod -->
<g id="node8" class="node">
<title>midasmpi_mod</title>
<g id="a_node8"><a xlink:href="../modules/midasmpi_mod.svg" xlink:title="midasmpi_mod">
<polygon fill="none" stroke="red" points="322.5,-161 221.5,-161 221.5,-125 322.5,-125 322.5,-161"/>
<text text-anchor="middle" x="272" y="-139.3" font-family="Times,serif" font-size="14.00">midasmpi_mod</text>
</a>
</g>
</g>
<!-- ensembleobservations_mod&#45;&gt;midasmpi_mod -->
<g id="edge7" class="edge">
<title>ensembleobservations_mod&#45;&gt;midasmpi_mod</title>
<path fill="none" stroke="black" d="M297.84,-628.61C303.4,-601.94 313,-549.27 313,-504 313,-504 313,-504 313,-286 313,-244.41 296.56,-198.56 284.5,-170.51"/>
<polygon fill="black" stroke="black" points="287.55,-168.75 280.3,-161.03 281.15,-171.59 287.55,-168.75"/>
</g>
<!-- obsspacedata_mod -->
<g id="node9" class="node">
<title>obsspacedata_mod</title>
<g id="a_node9"><a xlink:href="../modules/obsspacedata_mod.svg" xlink:title="obsspacedata_mod">
<polygon fill="none" stroke="red" points="410,-89 292,-89 292,-53 410,-53 410,-89"/>
<text text-anchor="middle" x="351" y="-67.3" font-family="Times,serif" font-size="14.00">obsspacedata_mod</text>
</a>
</g>
</g>
<!-- ensembleobservations_mod&#45;&gt;obsspacedata_mod -->
<g id="edge8" class="edge">
<title>ensembleobservations_mod&#45;&gt;obsspacedata_mod</title>
<path fill="none" stroke="black" d="M305.81,-628.96C322.51,-603.16 351,-552.08 351,-504 351,-504 351,-504 351,-214 351,-174 351,-127.65 351,-99.08"/>
<polygon fill="black" stroke="black" points="354.5,-99.05 351,-89.05 347.5,-99.05 354.5,-99.05"/>
</g>
<!-- oceanmask_mod -->
<g id="node10" class="node">
<title>oceanmask_mod</title>
<g id="a_node10"><a xlink:href="../modules/oceanmask_mod.svg" xlink:title="oceanmask_mod">
<polygon fill="none" stroke="red" points="486.5,-593 379.5,-593 379.5,-557 486.5,-557 486.5,-593"/>
<text text-anchor="middle" x="433" y="-571.3" font-family="Times,serif" font-size="14.00">oceanmask_mod</text>
</a>
</g>
</g>
<!-- ensembleobservations_mod&#45;&gt;oceanmask_mod -->
<g id="edge9" class="edge">
<title>ensembleobservations_mod&#45;&gt;oceanmask_mod</title>
<path fill="none" stroke="black" d="M328,-628.88C346.6,-619.51 369.83,-607.81 389.71,-597.8"/>
<polygon fill="black" stroke="black" points="391.51,-600.81 398.87,-593.19 388.36,-594.56 391.51,-600.81"/>
</g>
<!-- randomnumber_mod -->
<g id="node11" class="node">
<title>randomnumber_mod</title>
<g id="a_node11"><a xlink:href="randomnumber_mod.html" xlink:title="randomnumber_mod">
<polygon fill="gray" stroke="black" points="552.5,-521 421.5,-521 421.5,-485 552.5,-485 552.5,-521"/>
<text text-anchor="middle" x="487" y="-499.3" font-family="Times,serif" font-size="14.00">randomnumber_mod</text>
</a>
</g>
</g>
<!-- ensembleobservations_mod&#45;&gt;randomnumber_mod -->
<g id="edge10" class="edge">
<title>ensembleobservations_mod&#45;&gt;randomnumber_mod</title>
<path fill="none" stroke="black" d="M377.11,-634.46C425.66,-625.83 480.21,-612.19 495,-593 508.55,-575.42 504.45,-549.69 498.21,-530.42"/>
<polygon fill="black" stroke="black" points="501.5,-529.23 494.83,-521 494.91,-531.6 501.5,-529.23"/>
</g>
<!-- tovs_nl_mod -->
<g id="node12" class="node">
<title>tovs_nl_mod</title>
<g id="a_node12"><a xlink:href="../modules/tovs_nl_mod.svg" xlink:title="tovs_nl_mod">
<polygon fill="none" stroke="red" points="624.5,-449 537.5,-449 537.5,-413 624.5,-413 624.5,-449"/>
<text text-anchor="middle" x="581" y="-427.3" font-family="Times,serif" font-size="14.00">tovs_nl_mod</text>
</a>
</g>
</g>
<!-- ensembleobservations_mod&#45;&gt;tovs_nl_mod -->
<g id="edge11" class="edge">
<title>ensembleobservations_mod&#45;&gt;tovs_nl_mod</title>
<path fill="none" stroke="black" d="M377.14,-640.7C421.12,-634.45 474.11,-621.14 514,-593 558.02,-561.94 573.21,-496.28 578.39,-459.12"/>
<polygon fill="black" stroke="black" points="581.88,-459.36 579.65,-449.01 574.94,-458.5 581.88,-459.36"/>
</g>
<!-- utilities_mod -->
<g id="node13" class="node">
<title>utilities_mod</title>
<g id="a_node13"><a xlink:href="../modules/utilities_mod.svg" xlink:title="utilities_mod">
<polygon fill="none" stroke="red" points="697,-377 609,-377 609,-341 697,-341 697,-377"/>
<text text-anchor="middle" x="653" y="-355.3" font-family="Times,serif" font-size="14.00">utilities_mod</text>
</a>
</g>
</g>
<!-- ensembleobservations_mod&#45;&gt;utilities_mod -->
<g id="edge12" class="edge">
<title>ensembleobservations_mod&#45;&gt;utilities_mod</title>
<path fill="none" stroke="black" d="M377.09,-644.67C429.16,-640.12 495.37,-627.21 544,-593 614.1,-543.69 640.36,-437.36 649.11,-387.22"/>
<polygon fill="black" stroke="black" points="652.6,-387.57 650.76,-377.14 645.69,-386.44 652.6,-387.57"/>
</g>
</g>
</svg>
