<?xml version="1.0" encoding="UTF-8" standalone="no"?>
<!DOCTYPE svg PUBLIC "-//W3C//DTD SVG 1.1//EN"
 "http://www.w3.org/Graphics/SVG/1.1/DTD/svg11.dtd">
<!-- Generated by graphviz version 3.0.0 (20220315.2325)
 -->
<!-- Title: ensemblestatevector_mod Pages: 1 -->
<svg width="838pt" height="673pt"
 viewBox="0.00 0.00 837.50 673.00" xmlns="http://www.w3.org/2000/svg" xmlns:xlink="http://www.w3.org/1999/xlink">
<g id="graph0" class="graph" transform="scale(1 1) rotate(0) translate(4 669)">
<title>ensemblestatevector_mod</title>
<polygon fill="white" stroke="transparent" points="-4,4 -4,-669 833.5,-669 833.5,4 -4,4"/>
<text text-anchor="middle" x="414.75" y="-37.8" font-family="Times,serif" font-size="14.00">Red boxes indicate modules with dependencies not shown</text>
<text text-anchor="middle" x="414.75" y="-22.8" font-family="Times,serif" font-size="14.00">Lower level dependencies can be shown by clicking on a red box</text>
<text text-anchor="middle" x="414.75" y="-7.8" font-family="Times,serif" font-size="14.00">Shaded boxes indicate modules with no dependencies</text>
<!-- ensemblestatevector_mod -->
<g id="node1" class="node">
<title>ensemblestatevector_mod</title>
<g id="a_node1"><a xlink:href="ensemblestatevector_mod.html" xlink:title="ensemblestatevector_mod">
<polygon fill="none" stroke="black" points="451.5,-665 295.5,-665 295.5,-629 451.5,-629 451.5,-665"/>
<text text-anchor="middle" x="373.5" y="-643.3" font-family="Times,serif" font-size="14.00">ensemblestatevector_mod</text>
</a>
</g>
</g>
<!-- analysisgrid_mod -->
<g id="node2" class="node">
<title>analysisgrid_mod</title>
<g id="a_node2"><a xlink:href="../modules/analysisgrid_mod.svg" xlink:title="analysisgrid_mod">
<polygon fill="none" stroke="red" points="111,-593 0,-593 0,-557 111,-557 111,-593"/>
<text text-anchor="middle" x="55.5" y="-571.3" font-family="Times,serif" font-size="14.00">analysisgrid_mod</text>
</a>
</g>
</g>
<!-- ensemblestatevector_mod&#45;&gt;analysisgrid_mod -->
<g id="edge1" class="edge">
<title>ensemblestatevector_mod&#45;&gt;analysisgrid_mod</title>
<path fill="none" stroke="black" d="M295.47,-629.9C246.57,-619.67 182.27,-605.96 125.5,-593 124.05,-592.67 122.59,-592.33 121.11,-591.99"/>
<polygon fill="black" stroke="black" points="121.79,-588.56 111.25,-589.69 120.19,-595.37 121.79,-588.56"/>
</g>
<!-- codeprecision_mod -->
<g id="node3" class="node">
<title>codeprecision_mod</title>
<g id="a_node3"><a xlink:href="codeprecision_mod.html" xlink:title="codeprecision_mod">
<polygon fill="gray" stroke="black" points="174.5,-521 52.5,-521 52.5,-485 174.5,-485 174.5,-521"/>
<text text-anchor="middle" x="113.5" y="-499.3" font-family="Times,serif" font-size="14.00">codeprecision_mod</text>
</a>
</g>
</g>
<!-- ensemblestatevector_mod&#45;&gt;codeprecision_mod -->
<g id="edge2" class="edge">
<title>ensemblestatevector_mod&#45;&gt;codeprecision_mod</title>
<path fill="none" stroke="black" d="M295.39,-634.28C260.65,-626.48 220.47,-613.71 188.5,-593 163.5,-576.81 142.42,-549.75 129.04,-529.71"/>
<polygon fill="black" stroke="black" points="131.81,-527.56 123.44,-521.06 125.94,-531.36 131.81,-527.56"/>
</g>
<!-- filenames_mod -->
<g id="node4" class="node">
<title>filenames_mod</title>
<g id="a_node4"><a xlink:href="../modules/filenames_mod.svg" xlink:title="filenames_mod">
<polygon fill="none" stroke="red" points="212,-449 113,-449 113,-413 212,-413 212,-449"/>
<text text-anchor="middle" x="162.5" y="-427.3" font-family="Times,serif" font-size="14.00">filenames_mod</text>
</a>
</g>
</g>
<!-- ensemblestatevector_mod&#45;&gt;filenames_mod -->
<g id="edge3" class="edge">
<title>ensemblestatevector_mod&#45;&gt;filenames_mod</title>
<path fill="none" stroke="black" d="M295.32,-631.12C270.82,-623.22 245.31,-611.21 226.5,-593 226.18,-592.69 191.21,-504.47 173.1,-458.77"/>
<polygon fill="black" stroke="black" points="176.24,-457.2 169.31,-449.19 169.74,-459.77 176.24,-457.2"/>
</g>
<!-- gridstatevectorfileio_mod -->
<g id="node5" class="node">
<title>gridstatevectorfileio_mod</title>
<g id="a_node5"><a xlink:href="../modules/gridstatevectorfileio_mod.svg" xlink:title="gridstatevectorfileio_mod">
<polygon fill="none" stroke="red" points="250,-377 95,-377 95,-341 250,-341 250,-377"/>
<text text-anchor="middle" x="172.5" y="-355.3" font-family="Times,serif" font-size="14.00">gridstatevectorfileio_mod</text>
</a>
</g>
</g>
<!-- ensemblestatevector_mod&#45;&gt;gridstatevectorfileio_mod -->
<g id="edge4" class="edge">
<title>ensemblestatevector_mod&#45;&gt;gridstatevectorfileio_mod</title>
<path fill="none" stroke="black" d="M315.56,-628.94C296.85,-620.81 277.58,-609.21 264.5,-593 212.78,-528.91 259.1,-485.75 220.5,-413 215.06,-402.76 207.21,-392.93 199.42,-384.59"/>
<polygon fill="black" stroke="black" points="201.85,-382.07 192.35,-377.37 196.84,-386.96 201.85,-382.07"/>
</g>
<!-- gridstatevector_mod -->
<g id="node6" class="node">
<title>gridstatevector_mod</title>
<g id="a_node6"><a xlink:href="../modules/gridstatevector_mod.svg" xlink:title="gridstatevector_mod">
<polygon fill="none" stroke="red" points="288,-305 161,-305 161,-269 288,-269 288,-305"/>
<text text-anchor="middle" x="224.5" y="-283.3" font-family="Times,serif" font-size="14.00">gridstatevector_mod</text>
</a>
</g>
</g>
<!-- ensemblestatevector_mod&#45;&gt;gridstatevector_mod -->
<g id="edge5" class="edge">
<title>ensemblestatevector_mod&#45;&gt;gridstatevector_mod</title>
<path fill="none" stroke="black" d="M341.65,-628.8C327.77,-619.82 312.44,-607.63 302.5,-593 279.49,-559.11 278.5,-544.97 278.5,-504 278.5,-504 278.5,-504 278.5,-430 278.5,-389.46 274.13,-378.41 258.5,-341 254.56,-331.57 248.96,-321.95 243.44,-313.55"/>
<polygon fill="black" stroke="black" points="246.33,-311.57 237.79,-305.29 240.55,-315.52 246.33,-311.57"/>
</g>
<!-- horizontalcoord_mod -->
<g id="node7" class="node">
<title>horizontalcoord_mod</title>
<g id="a_node7"><a xlink:href="../modules/horizontalcoord_mod.svg" xlink:title="horizontalcoord_mod">
<polygon fill="none" stroke="red" points="326,-233 193,-233 193,-197 326,-197 326,-233"/>
<text text-anchor="middle" x="259.5" y="-211.3" font-family="Times,serif" font-size="14.00">horizontalcoord_mod</text>
</a>
</g>
</g>
<!-- ensemblestatevector_mod&#45;&gt;horizontalcoord_mod -->
<g id="edge6" class="edge">
<title>ensemblestatevector_mod&#45;&gt;horizontalcoord_mod</title>
<path fill="none" stroke="black" d="M360.83,-628.57C354.03,-618.56 345.95,-605.52 340.5,-593 324.16,-555.43 316.5,-544.97 316.5,-504 316.5,-504 316.5,-504 316.5,-358 316.5,-317.46 312.86,-306.1 296.5,-269 292.27,-259.4 286.19,-249.74 280.18,-241.35"/>
<polygon fill="black" stroke="black" points="282.81,-239.02 274.02,-233.11 277.21,-243.22 282.81,-239.02"/>
</g>
<!-- interpolation_mod -->
<g id="node8" class="node">
<title>interpolation_mod</title>
<g id="a_node8"><a xlink:href="../modules/interpolation_mod.svg" xlink:title="interpolation_mod">
<polygon fill="none" stroke="red" points="364.5,-161 248.5,-161 248.5,-125 364.5,-125 364.5,-161"/>
<text text-anchor="middle" x="306.5" y="-139.3" font-family="Times,serif" font-size="14.00">interpolation_mod</text>
</a>
</g>
</g>
<!-- ensemblestatevector_mod&#45;&gt;interpolation_mod -->
<g id="edge7" class="edge">
<title>ensemblestatevector_mod&#45;&gt;interpolation_mod</title>
<path fill="none" stroke="black" d="M369.66,-628.61C364.1,-601.94 354.5,-549.27 354.5,-504 354.5,-504 354.5,-504 354.5,-286 354.5,-245.46 348.54,-235.03 334.5,-197 331.15,-187.92 326.54,-178.44 322.02,-170.06"/>
<polygon fill="black" stroke="black" points="324.97,-168.15 317.04,-161.13 318.86,-171.57 324.97,-168.15"/>
</g>
<!-- midasmpi_mod -->
<g id="node9" class="node">
<title>midasmpi_mod</title>
<g id="a_node9"><a xlink:href="../modules/midasmpi_mod.svg" xlink:title="midasmpi_mod">
<polygon fill="none" stroke="red" points="443,-89 342,-89 342,-53 443,-53 443,-89"/>
<text text-anchor="middle" x="392.5" y="-67.3" font-family="Times,serif" font-size="14.00">midasmpi_mod</text>
</a>
</g>
</g>
<!-- ensemblestatevector_mod&#45;&gt;midasmpi_mod -->
<g id="edge8" class="edge">
<title>ensemblestatevector_mod&#45;&gt;midasmpi_mod</title>
<path fill="none" stroke="black" d="M377.34,-628.61C382.9,-601.94 392.5,-549.27 392.5,-504 392.5,-504 392.5,-504 392.5,-214 392.5,-174 392.5,-127.65 392.5,-99.08"/>
<polygon fill="black" stroke="black" points="396,-99.05 392.5,-89.05 389,-99.05 396,-99.05"/>
</g>
<!-- oceanmask_mod -->
<g id="node10" class="node">
<title>oceanmask_mod</title>
<g id="a_node10"><a xlink:href="../modules/oceanmask_mod.svg" xlink:title="oceanmask_mod">
<polygon fill="none" stroke="red" points="528,-593 421,-593 421,-557 528,-557 528,-593"/>
<text text-anchor="middle" x="474.5" y="-571.3" font-family="Times,serif" font-size="14.00">oceanmask_mod</text>
</a>
</g>
</g>
<!-- ensemblestatevector_mod&#45;&gt;oceanmask_mod -->
<g id="edge9" class="edge">
<title>ensemblestatevector_mod&#45;&gt;oceanmask_mod</title>
<path fill="none" stroke="black" d="M398.21,-628.88C411.17,-619.89 427.23,-608.76 441.27,-599.03"/>
<polygon fill="black" stroke="black" points="443.47,-601.76 449.7,-593.19 439.48,-596.01 443.47,-601.76"/>
</g>
<!-- ramdisk_mod -->
<g id="node11" class="node">
<title>ramdisk_mod</title>
<g id="a_node11"><a xlink:href="../modules/ramdisk_mod.svg" xlink:title="ramdisk_mod">
<polygon fill="none" stroke="red" points="566,-521 475,-521 475,-485 566,-485 566,-521"/>
<text text-anchor="middle" x="520.5" y="-499.3" font-family="Times,serif" font-size="14.00">ramdisk_mod</text>
</a>
</g>
</g>
<!-- ensemblestatevector_mod&#45;&gt;ramdisk_mod -->
<g id="edge10" class="edge">
<title>ensemblestatevector_mod&#45;&gt;ramdisk_mod</title>
<path fill="none" stroke="black" d="M451.61,-640.15C483.27,-633.48 516.91,-619.96 536.5,-593 549.68,-574.85 543.17,-549.24 534.84,-530.15"/>
<polygon fill="black" stroke="black" points="537.99,-528.64 530.54,-521.1 531.67,-531.64 537.99,-528.64"/>
</g>
<!-- timecoord_mod -->
<g id="node12" class="node">
<title>timecoord_mod</title>
<g id="a_node12"><a xlink:href="../modules/timecoord_mod.svg" xlink:title="timecoord_mod">
<polygon fill="none" stroke="red" points="604.5,-449 502.5,-449 502.5,-413 604.5,-413 604.5,-449"/>
<text text-anchor="middle" x="553.5" y="-427.3" font-family="Times,serif" font-size="14.00">timecoord_mod</text>
</a>
</g>
</g>
<!-- ensemblestatevector_mod&#45;&gt;timecoord_mod -->
<g id="edge11" class="edge">
<title>ensemblestatevector_mod&#45;&gt;timecoord_mod</title>
<path fill="none" stroke="black" d="M451.85,-640.22C487.48,-633.69 527.6,-620.28 554.5,-593 588.78,-558.24 583.65,-532.95 574.5,-485 572.79,-476.06 569.6,-466.7 566.21,-458.37"/>
<polygon fill="black" stroke="black" points="569.41,-456.95 562.22,-449.17 562.99,-459.73 569.41,-456.95"/>
</g>
<!-- utilities_mod -->
<g id="node13" class="node">
<title>utilities_mod</title>
<g id="a_node13"><a xlink:href="../modules/utilities_mod.svg" xlink:title="utilities_mod">
<polygon fill="none" stroke="red" points="659.5,-377 571.5,-377 571.5,-341 659.5,-341 659.5,-377"/>
<text text-anchor="middle" x="615.5" y="-355.3" font-family="Times,serif" font-size="14.00">utilities_mod</text>
</a>
</g>
</g>
<!-- ensemblestatevector_mod&#45;&gt;utilities_mod -->
<g id="edge12" class="edge">
<title>ensemblestatevector_mod&#45;&gt;utilities_mod</title>
<path fill="none" stroke="black" d="M451.59,-634.62C502.38,-625.65 562.4,-611.56 580.5,-593 634.79,-537.32 627.75,-435.83 620.53,-387.29"/>
<polygon fill="black" stroke="black" points="623.95,-386.54 618.91,-377.22 617.04,-387.65 623.95,-386.54"/>
</g>
<!-- varnamelist_mod -->
<g id="node14" class="node">
<title>varnamelist_mod</title>
<g id="a_node14"><a xlink:href="../modules/varnamelist_mod.svg" xlink:title="varnamelist_mod">
<polygon fill="none" stroke="red" points="742.5,-305 632.5,-305 632.5,-269 742.5,-269 742.5,-305"/>
<text text-anchor="middle" x="687.5" y="-283.3" font-family="Times,serif" font-size="14.00">varnamelist_mod</text>
</a>
</g>
</g>
<!-- ensemblestatevector_mod&#45;&gt;varnamelist_mod -->
<g id="edge13" class="edge">
<title>ensemblestatevector_mod&#45;&gt;varnamelist_mod</title>
<path fill="none" stroke="black" d="M451.52,-643.51C544.52,-635.88 687.5,-607.35 687.5,-504 687.5,-504 687.5,-504 687.5,-430 687.5,-390 687.5,-343.65 687.5,-315.08"/>
<polygon fill="black" stroke="black" points="691,-315.05 687.5,-305.05 684,-315.05 691,-315.05"/>
</g>
<!-- verticalcoord_mod -->
<g id="node15" class="node">
<title>verticalcoord_mod</title>
<g id="a_node15"><a xlink:href="../modules/verticalcoord_mod.svg" xlink:title="verticalcoord_mod">
<polygon fill="none" stroke="red" points="829.5,-233 711.5,-233 711.5,-197 829.5,-197 829.5,-233"/>
<text text-anchor="middle" x="770.5" y="-211.3" font-family="Times,serif" font-size="14.00">verticalcoord_mod</text>
</a>
</g>
</g>
<!-- ensemblestatevector_mod&#45;&gt;verticalcoord_mod -->
<g id="edge14" class="edge">
<title>ensemblestatevector_mod&#45;&gt;verticalcoord_mod</title>
<path fill="none" stroke="black" d="M451.51,-643.64C513.59,-639.11 601.24,-626.62 670.5,-593 724.02,-567.02 770.5,-563.5 770.5,-504 770.5,-504 770.5,-504 770.5,-358 770.5,-318 770.5,-271.65 770.5,-243.08"/>
<polygon fill="black" stroke="black" points="774,-243.05 770.5,-233.05 767,-243.05 774,-243.05"/>
</g>
</g>
</svg>
