<?xml version="1.0" encoding="UTF-8" standalone="no"?>
<!DOCTYPE svg PUBLIC "-//W3C//DTD SVG 1.1//EN"
 "http://www.w3.org/Graphics/SVG/1.1/DTD/svg11.dtd">
<!-- Generated by graphviz version 3.0.0 (20220315.2325)
 -->
<!-- Title: ensemblestatevector_mod Pages: 1 -->
<svg width="1230pt" height="673pt"
 viewBox="0.00 0.00 1229.50 673.00" xmlns="http://www.w3.org/2000/svg" xmlns:xlink="http://www.w3.org/1999/xlink">
<g id="graph0" class="graph" transform="scale(1 1) rotate(0) translate(4 669)">
<title>ensemblestatevector_mod</title>
<polygon fill="white" stroke="transparent" points="-4,4 -4,-669 1225.5,-669 1225.5,4 -4,4"/>
<text text-anchor="middle" x="610.75" y="-649.8" font-family="Times,serif" font-size="14.00">Blue boxes indicate modules with reverse dependencies not shown</text>
<text text-anchor="middle" x="610.75" y="-634.8" font-family="Times,serif" font-size="14.00">Higher level reverse dependencies can be shown by clicking on a blue box</text>
<text text-anchor="middle" x="610.75" y="-619.8" font-family="Times,serif" font-size="14.00">Green boxes are programs</text>
<!-- ensemblestatevector_mod -->
<g id="node1" class="node">
<title>ensemblestatevector_mod</title>
<g id="a_node1"><a xlink:href="ensemblestatevector_mod.html" xlink:title="ensemblestatevector_mod">
<polygon fill="none" stroke="black" points="684.5,-36 528.5,-36 528.5,0 684.5,0 684.5,-36"/>
<text text-anchor="middle" x="606.5" y="-14.3" font-family="Times,serif" font-size="14.00">ensemblestatevector_mod</text>
</a>
</g>
</g>
<!-- advection_mod -->
<g id="node2" class="node">
<title>advection_mod</title>
<g id="a_node2"><a xlink:href="../modules/advection_mod_rev.svg" xlink:title="advection_mod">
<polygon fill="none" stroke="blue" points="99,-108 0,-108 0,-72 99,-72 99,-108"/>
<text text-anchor="middle" x="49.5" y="-86.3" font-family="Times,serif" font-size="14.00">advection_mod</text>
</a>
</g>
</g>
<!-- advection_mod&#45;&gt;ensemblestatevector_mod -->
<g id="edge1" class="edge">
<title>advection_mod&#45;&gt;ensemblestatevector_mod</title>
<path fill="none" stroke="black" d="M107.34,-73.21C109.41,-72.78 111.47,-72.38 113.5,-72 258.66,-45.08 430.58,-30.44 528.27,-23.71"/>
<ellipse fill="black" stroke="black" cx="103.2" cy="-74.13" rx="4" ry="4"/>
</g>
<!-- bmatrix1dvar_mod -->
<g id="node3" class="node">
<title>bmatrix1dvar_mod</title>
<g id="a_node3"><a xlink:href="../modules/bmatrix1dvar_mod_rev.svg" xlink:title="bmatrix1dvar_mod">
<polygon fill="none" stroke="blue" points="162,-180 43,-180 43,-144 162,-144 162,-180"/>
<text text-anchor="middle" x="102.5" y="-158.3" font-family="Times,serif" font-size="14.00">bmatrix1dvar_mod</text>
</a>
</g>
</g>
<!-- bmatrix1dvar_mod&#45;&gt;ensemblestatevector_mod -->
<g id="edge2" class="edge">
<title>bmatrix1dvar_mod&#45;&gt;ensemblestatevector_mod</title>
<path fill="none" stroke="black" d="M115.48,-136.88C128.12,-115.97 149.37,-86.82 176.5,-72 235.42,-39.82 421.23,-26.75 528.33,-21.78"/>
<ellipse fill="black" stroke="black" cx="113.4" cy="-140.44" rx="4" ry="4"/>
</g>
<!-- bmatrixensemble_mod -->
<g id="node4" class="node">
<title>bmatrixensemble_mod</title>
<g id="a_node4"><a xlink:href="../modules/bmatrixensemble_mod_rev.svg" xlink:title="bmatrixensemble_mod">
<polygon fill="none" stroke="blue" points="200.5,-252 60.5,-252 60.5,-216 200.5,-216 200.5,-252"/>
<text text-anchor="middle" x="130.5" y="-230.3" font-family="Times,serif" font-size="14.00">bmatrixensemble_mod</text>
</a>
</g>
</g>
<!-- bmatrixensemble_mod&#45;&gt;ensemblestatevector_mod -->
<g id="edge3" class="edge">
<title>bmatrixensemble_mod&#45;&gt;ensemblestatevector_mod</title>
<path fill="none" stroke="black" d="M150.53,-209.22C157.4,-200.39 164.78,-190.06 170.5,-180 196.1,-134.94 173.53,-103.74 214.5,-72 262.07,-35.15 428.22,-23.91 528.3,-20.49"/>
<ellipse fill="black" stroke="black" cx="147.91" cy="-212.52" rx="4" ry="4"/>
</g>
<!-- calcstatsglb_mod -->
<g id="node5" class="node">
<title>calcstatsglb_mod</title>
<g id="a_node5"><a xlink:href="../modules/calcstatsglb_mod_rev.svg" xlink:title="calcstatsglb_mod">
<polygon fill="none" stroke="blue" points="238.5,-324 128.5,-324 128.5,-288 238.5,-288 238.5,-324"/>
<text text-anchor="middle" x="183.5" y="-302.3" font-family="Times,serif" font-size="14.00">calcstatsglb_mod</text>
</a>
</g>
</g>
<!-- calcstatsglb_mod&#45;&gt;ensemblestatevector_mod -->
<g id="edge4" class="edge">
<title>calcstatsglb_mod&#45;&gt;ensemblestatevector_mod</title>
<path fill="none" stroke="black" d="M196.97,-280.42C201.4,-271.64 206.07,-261.55 209.5,-252 237.34,-174.6 191.9,-127.61 252.5,-72 291.65,-36.08 436.45,-24.5 528.28,-20.77"/>
<ellipse fill="black" stroke="black" cx="195.01" cy="-284.21" rx="4" ry="4"/>
</g>
<!-- calcstatslam_mod -->
<g id="node6" class="node">
<title>calcstatslam_mod</title>
<g id="a_node6"><a xlink:href="../modules/calcstatslam_mod_rev.svg" xlink:title="calcstatslam_mod">
<polygon fill="none" stroke="blue" points="276,-396 163,-396 163,-360 276,-360 276,-396"/>
<text text-anchor="middle" x="219.5" y="-374.3" font-family="Times,serif" font-size="14.00">calcstatslam_mod</text>
</a>
</g>
</g>
<!-- calcstatslam_mod&#45;&gt;ensemblestatevector_mod -->
<g id="edge5" class="edge">
<title>calcstatslam_mod&#45;&gt;ensemblestatevector_mod</title>
<path fill="none" stroke="black" d="M234.07,-352.84C238.9,-344.01 243.95,-333.78 247.5,-324 261.3,-285.98 266.5,-275.45 266.5,-235 266.5,-235 266.5,-235 266.5,-161 266.5,-120.03 260.16,-99.53 290.5,-72 324.54,-41.12 446.31,-28.02 528.36,-22.62"/>
<ellipse fill="black" stroke="black" cx="232.06" cy="-356.41" rx="4" ry="4"/>
</g>
<!-- enkf_mod -->
<g id="node7" class="node">
<title>enkf_mod</title>
<g id="a_node7"><a xlink:href="../modules/enkf_mod_rev.svg" xlink:title="enkf_mod">
<polygon fill="none" stroke="blue" points="314,-468 241,-468 241,-432 314,-432 314,-468"/>
<text text-anchor="middle" x="277.5" y="-446.3" font-family="Times,serif" font-size="14.00">enkf_mod</text>
</a>
</g>
</g>
<!-- enkf_mod&#45;&gt;ensemblestatevector_mod -->
<g id="edge6" class="edge">
<title>enkf_mod&#45;&gt;ensemblestatevector_mod</title>
<path fill="none" stroke="black" d="M285.22,-423.96C293.2,-395.8 304.5,-348.57 304.5,-307 304.5,-307 304.5,-307 304.5,-161 304.5,-120.03 298.47,-99.86 328.5,-72 357,-45.56 456.5,-31.56 528.32,-24.72"/>
<ellipse fill="black" stroke="black" cx="284.08" cy="-427.87" rx="4" ry="4"/>
</g>
<!-- enspostprocess_mod -->
<g id="node8" class="node">
<title>enspostprocess_mod</title>
<g id="a_node8"><a xlink:href="../modules/enspostprocess_mod_rev.svg" xlink:title="enspostprocess_mod">
<polygon fill="none" stroke="blue" points="352.5,-540 224.5,-540 224.5,-504 352.5,-504 352.5,-540"/>
<text text-anchor="middle" x="288.5" y="-518.3" font-family="Times,serif" font-size="14.00">enspostprocess_mod</text>
</a>
</g>
</g>
<!-- enspostprocess_mod&#45;&gt;ensemblestatevector_mod -->
<g id="edge7" class="edge">
<title>enspostprocess_mod&#45;&gt;ensemblestatevector_mod</title>
<path fill="none" stroke="black" d="M306.4,-497.03C312.25,-488.26 318.31,-478.03 322.5,-468 338.13,-430.59 342.5,-419.54 342.5,-379 342.5,-379 342.5,-379 342.5,-161 342.5,-120.03 336.87,-100.29 366.5,-72 389.57,-49.97 467.54,-35.6 528.43,-27.45"/>
<ellipse fill="black" stroke="black" cx="304.06" cy="-500.42" rx="4" ry="4"/>
</g>
<!-- gridbinning_mod -->
<g id="node9" class="node">
<title>gridbinning_mod</title>
<g id="a_node9"><a xlink:href="../modules/gridbinning_mod_rev.svg" xlink:title="gridbinning_mod">
<polygon fill="none" stroke="blue" points="435.5,-612 325.5,-612 325.5,-576 435.5,-576 435.5,-612"/>
<text text-anchor="middle" x="380.5" y="-590.3" font-family="Times,serif" font-size="14.00">gridbinning_mod</text>
</a>
</g>
</g>
<!-- gridbinning_mod&#45;&gt;ensemblestatevector_mod -->
<g id="edge8" class="edge">
<title>gridbinning_mod&#45;&gt;ensemblestatevector_mod</title>
<path fill="none" stroke="black" d="M380.5,-567.78C380.5,-539.39 380.5,-491.89 380.5,-451 380.5,-451 380.5,-451 380.5,-161 380.5,-120.55 371.48,-101.17 399.5,-72 417.46,-53.3 477.49,-39.23 528.32,-30.3"/>
<ellipse fill="black" stroke="black" cx="380.5" cy="-571.95" rx="4" ry="4"/>
</g>
<!-- gridvariabletransforms_mod -->
<g id="node10" class="node">
<title>gridvariabletransforms_mod</title>
<g id="a_node10"><a xlink:href="../modules/gridvariabletransforms_mod_rev.svg" xlink:title="gridvariabletransforms_mod">
<polygon fill="none" stroke="blue" points="578.5,-108 408.5,-108 408.5,-72 578.5,-72 578.5,-108"/>
<text text-anchor="middle" x="493.5" y="-86.3" font-family="Times,serif" font-size="14.00">gridvariabletransforms_mod</text>
</a>
</g>
</g>
<!-- gridvariabletransforms_mod&#45;&gt;ensemblestatevector_mod -->
<g id="edge9" class="edge">
<title>gridvariabletransforms_mod&#45;&gt;ensemblestatevector_mod</title>
<path fill="none" stroke="black" d="M528.36,-67.4C544.56,-57.37 563.55,-45.61 578.75,-36.19"/>
<ellipse fill="black" stroke="black" cx="524.54" cy="-69.77" rx="4" ry="4"/>
</g>
<!-- humiditylimits_mod -->
<g id="node11" class="node">
<title>humiditylimits_mod</title>
<g id="a_node11"><a xlink:href="../modules/humiditylimits_mod_rev.svg" xlink:title="humiditylimits_mod">
<polygon fill="none" stroke="blue" points="616.5,-180 488.5,-180 488.5,-144 616.5,-144 616.5,-180"/>
<text text-anchor="middle" x="552.5" y="-158.3" font-family="Times,serif" font-size="14.00">humiditylimits_mod</text>
</a>
</g>
</g>
<!-- humiditylimits_mod&#45;&gt;ensemblestatevector_mod -->
<g id="edge10" class="edge">
<title>humiditylimits_mod&#45;&gt;ensemblestatevector_mod</title>
<path fill="none" stroke="black" d="M571.01,-137.12C577.04,-128.36 583.26,-118.11 587.5,-108 597.46,-84.25 602.44,-54.66 604.74,-36.3"/>
<ellipse fill="black" stroke="black" cx="568.57" cy="-140.53" rx="4" ry="4"/>
</g>
<!-- localization_mod -->
<g id="node12" class="node">
<title>localization_mod</title>
<g id="a_node12"><a xlink:href="../modules/localization_mod_rev.svg" xlink:title="localization_mod">
<polygon fill="none" stroke="blue" points="654.5,-252 544.5,-252 544.5,-216 654.5,-216 654.5,-252"/>
<text text-anchor="middle" x="599.5" y="-230.3" font-family="Times,serif" font-size="14.00">localization_mod</text>
</a>
</g>
</g>
<!-- localization_mod&#45;&gt;ensemblestatevector_mod -->
<g id="edge11" class="edge">
<title>localization_mod&#45;&gt;ensemblestatevector_mod</title>
<path fill="none" stroke="black" d="M614.47,-208.39C618.94,-199.73 623.24,-189.73 625.5,-180 637.46,-128.46 621.61,-65.79 612.34,-36.13"/>
<ellipse fill="black" stroke="black" cx="612.45" cy="-212.1" rx="4" ry="4"/>
</g>
<!-- localizationspectral_mod -->
<g id="node13" class="node">
<title>localizationspectral_mod</title>
<g id="a_node13"><a xlink:href="../modules/localizationspectral_mod_rev.svg" xlink:title="localizationspectral_mod">
<polygon fill="none" stroke="blue" points="692.5,-324 540.5,-324 540.5,-288 692.5,-288 692.5,-324"/>
<text text-anchor="middle" x="616.5" y="-302.3" font-family="Times,serif" font-size="14.00">localizationspectral_mod</text>
</a>
</g>
</g>
<!-- localizationspectral_mod&#45;&gt;ensemblestatevector_mod -->
<g id="edge12" class="edge">
<title>localizationspectral_mod&#45;&gt;ensemblestatevector_mod</title>
<path fill="none" stroke="black" d="M643.81,-281.61C651.71,-273.17 659.33,-262.99 663.5,-252 669.18,-237.04 664.82,-231.95 663.5,-216 658.15,-151.34 662.42,-132.7 639.5,-72 634.68,-59.22 626.61,-46.18 619.65,-36.24"/>
<ellipse fill="black" stroke="black" cx="640.58" cy="-284.86" rx="4" ry="4"/>
</g>
<!-- menetrierdiag_mod -->
<g id="node14" class="node">
<title>menetrierdiag_mod</title>
<g id="a_node14"><a xlink:href="../modules/menetrierdiag_mod_rev.svg" xlink:title="menetrierdiag_mod">
<polygon fill="none" stroke="blue" points="730.5,-396 608.5,-396 608.5,-360 730.5,-360 730.5,-396"/>
<text text-anchor="middle" x="669.5" y="-374.3" font-family="Times,serif" font-size="14.00">menetrierdiag_mod</text>
</a>
</g>
</g>
<!-- menetrierdiag_mod&#45;&gt;ensemblestatevector_mod -->
<g id="edge13" class="edge">
<title>menetrierdiag_mod&#45;&gt;ensemblestatevector_mod</title>
<path fill="none" stroke="black" d="M686.52,-352.66C691.98,-343.95 697.61,-333.84 701.5,-324 716.38,-286.39 720.5,-275.45 720.5,-235 720.5,-235 720.5,-235 720.5,-161 720.5,-105.67 667.23,-59.63 633.52,-36.04"/>
<ellipse fill="black" stroke="black" cx="684.19" cy="-356.26" rx="4" ry="4"/>
</g>
<!-- ominusf_mod -->
<g id="node15" class="node">
<title>ominusf_mod</title>
<g id="a_node15"><a xlink:href="../modules/ominusf_mod_rev.svg" xlink:title="ominusf_mod">
<polygon fill="none" stroke="blue" points="768,-468 675,-468 675,-432 768,-432 768,-468"/>
<text text-anchor="middle" x="721.5" y="-446.3" font-family="Times,serif" font-size="14.00">ominusf_mod</text>
</a>
</g>
</g>
<!-- ominusf_mod&#45;&gt;ensemblestatevector_mod -->
<g id="edge14" class="edge">
<title>ominusf_mod&#45;&gt;ensemblestatevector_mod</title>
<path fill="none" stroke="black" d="M732.07,-424.19C743.01,-396.24 758.5,-349.2 758.5,-307 758.5,-307 758.5,-307 758.5,-161 758.5,-100.15 692.65,-57.88 647.63,-36.1"/>
<ellipse fill="black" stroke="black" cx="730.48" cy="-428.17" rx="4" ry="4"/>
</g>
<!-- midas_midas_adjointtest -->
<g id="node16" class="node">
<title>midas_midas_adjointtest</title>
<g id="a_node16"><a xlink:href="../programs/midas_adjointtest.html" xlink:title="midas_midas_adjointtest">
<polygon fill="gray" stroke="green" points="806.5,-540 654.5,-540 654.5,-504 806.5,-504 806.5,-540"/>
<text text-anchor="middle" x="730.5" y="-518.3" font-family="Times,serif" font-size="14.00">midas_midas_adjointtest</text>
</a>
</g>
</g>
<!-- midas_midas_adjointtest&#45;&gt;ensemblestatevector_mod -->
<g id="edge15" class="edge">
<title>midas_midas_adjointtest&#45;&gt;ensemblestatevector_mod</title>
<path fill="none" stroke="black" d="M755.24,-497.58C763.08,-488.96 771.11,-478.68 776.5,-468 794.79,-431.82 796.5,-419.54 796.5,-379 796.5,-379 796.5,-379 796.5,-161 796.5,-95.01 722.05,-55.99 666.36,-36.04"/>
<ellipse fill="black" stroke="black" cx="752.35" cy="-500.64" rx="4" ry="4"/>
</g>
<!-- midas_midas_diagbmatrix -->
<g id="node17" class="node">
<title>midas_midas_diagbmatrix</title>
<g id="a_node17"><a xlink:href="../programs/midas_diagbmatrix.html" xlink:title="midas_midas_diagbmatrix">
<polygon fill="gray" stroke="green" points="915,-612 754,-612 754,-576 915,-576 915,-612"/>
<text text-anchor="middle" x="834.5" y="-590.3" font-family="Times,serif" font-size="14.00">midas_midas_diagbmatrix</text>
</a>
</g>
</g>
<!-- midas_midas_diagbmatrix&#45;&gt;ensemblestatevector_mod -->
<g id="edge16" class="edge">
<title>midas_midas_diagbmatrix&#45;&gt;ensemblestatevector_mod</title>
<path fill="none" stroke="black" d="M834.5,-567.78C834.5,-539.39 834.5,-491.89 834.5,-451 834.5,-451 834.5,-451 834.5,-161 834.5,-88.6 750.65,-51.79 684.65,-34.03"/>
<ellipse fill="black" stroke="black" cx="834.5" cy="-571.95" rx="4" ry="4"/>
</g>
<!-- midas_midas_ensembleh -->
<g id="node18" class="node">
<title>midas_midas_ensembleh</title>
<g id="a_node18"><a xlink:href="../programs/midas_ensembleh.html" xlink:title="midas_midas_ensembleh">
<polygon fill="gray" stroke="green" points="1016.5,-108 862.5,-108 862.5,-72 1016.5,-72 1016.5,-108"/>
<text text-anchor="middle" x="939.5" y="-86.3" font-family="Times,serif" font-size="14.00">midas_midas_ensembleh</text>
</a>
</g>
</g>
<!-- midas_midas_ensembleh&#45;&gt;ensemblestatevector_mod -->
<g id="edge17" class="edge">
<title>midas_midas_ensembleh&#45;&gt;ensemblestatevector_mod</title>
<path fill="none" stroke="black" d="M854.34,-71.1C802.09,-60.12 735.68,-46.16 684.76,-35.45"/>
<ellipse fill="black" stroke="black" cx="858.35" cy="-71.94" rx="4" ry="4"/>
</g>
<!-- midas_midas_enspostprocess -->
<g id="node19" class="node">
<title>midas_midas_enspostprocess</title>
<g id="a_node19"><a xlink:href="../programs/midas_enspostprocess.html" xlink:title="midas_midas_enspostprocess">
<polygon fill="gray" stroke="green" points="1132.5,-180 956.5,-180 956.5,-144 1132.5,-144 1132.5,-180"/>
<text text-anchor="middle" x="1044.5" y="-158.3" font-family="Times,serif" font-size="14.00">midas_midas_enspostprocess</text>
</a>
</g>
</g>
<!-- midas_midas_enspostprocess&#45;&gt;ensemblestatevector_mod -->
<g id="edge18" class="edge">
<title>midas_midas_enspostprocess&#45;&gt;ensemblestatevector_mod</title>
<path fill="none" stroke="black" d="M1046.4,-135.6C1046.41,-115.37 1042.81,-87.9 1025.5,-72 977.25,-27.66 792.1,-19.4 684.75,-18.45"/>
<ellipse fill="black" stroke="black" cx="1046.3" cy="-139.77" rx="4" ry="4"/>
</g>
<!-- midas_midas_letkf -->
<g id="node20" class="node">
<title>midas_midas_letkf</title>
<g id="a_node20"><a xlink:href="../programs/midas_letkf.html" xlink:title="midas_midas_letkf">
<polygon fill="gray" stroke="green" points="1221.5,-252 1099.5,-252 1099.5,-216 1221.5,-216 1221.5,-252"/>
<text text-anchor="middle" x="1160.5" y="-230.3" font-family="Times,serif" font-size="14.00">midas_midas_letkf</text>
</a>
</g>
</g>
<!-- midas_midas_letkf&#45;&gt;ensemblestatevector_mod -->
<g id="edge19" class="edge">
<title>midas_midas_letkf&#45;&gt;ensemblestatevector_mod</title>
<path fill="none" stroke="black" d="M1159.72,-207.84C1158.1,-189 1153.6,-163.26 1141.5,-144 1113.68,-99.74 1096.87,-91.83 1048.5,-72 984.41,-45.72 793.37,-30.26 684.58,-23.35"/>
<ellipse fill="black" stroke="black" cx="1160.01" cy="-211.98" rx="4" ry="4"/>
</g>
</g>
</svg>
