<?xml version="1.0" encoding="UTF-8" standalone="no"?>
<!DOCTYPE svg PUBLIC "-//W3C//DTD SVG 1.1//EN"
 "http://www.w3.org/Graphics/SVG/1.1/DTD/svg11.dtd">
<!-- Generated by graphviz version 3.0.0 (20220315.2325)
 -->
<!-- Title: enspostprocess_mod Pages: 1 -->
<svg width="1133pt" height="673pt"
 viewBox="0.00 0.00 1132.50 673.00" xmlns="http://www.w3.org/2000/svg" xmlns:xlink="http://www.w3.org/1999/xlink">
<g id="graph0" class="graph" transform="scale(1 1) rotate(0) translate(4 669)">
<title>enspostprocess_mod</title>
<polygon fill="white" stroke="transparent" points="-4,4 -4,-669 1128.5,-669 1128.5,4 -4,4"/>
<text text-anchor="middle" x="562.25" y="-37.8" font-family="Times,serif" font-size="14.00">Red boxes indicate modules with dependencies not shown</text>
<text text-anchor="middle" x="562.25" y="-22.8" font-family="Times,serif" font-size="14.00">Lower level dependencies can be shown by clicking on a red box</text>
<text text-anchor="middle" x="562.25" y="-7.8" font-family="Times,serif" font-size="14.00">Shaded boxes indicate modules with no dependencies</text>
<!-- enspostprocess_mod -->
<g id="node1" class="node">
<title>enspostprocess_mod</title>
<g id="a_node1"><a xlink:href="enspostprocess_mod.html" xlink:title="enspostprocess_mod">
<polygon fill="none" stroke="black" points="674.5,-665 546.5,-665 546.5,-629 674.5,-629 674.5,-665"/>
<text text-anchor="middle" x="610.5" y="-643.3" font-family="Times,serif" font-size="14.00">enspostprocess_mod</text>
</a>
</g>
</g>
<!-- bmatrix_mod -->
<g id="node2" class="node">
<title>bmatrix_mod</title>
<g id="a_node2"><a xlink:href="../modules/bmatrix_mod.svg" xlink:title="bmatrix_mod">
<polygon fill="none" stroke="red" points="92,-593 3,-593 3,-557 92,-557 92,-593"/>
<text text-anchor="middle" x="47.5" y="-571.3" font-family="Times,serif" font-size="14.00">bmatrix_mod</text>
</a>
</g>
</g>
<!-- enspostprocess_mod&#45;&gt;bmatrix_mod -->
<g id="edge1" class="edge">
<title>enspostprocess_mod&#45;&gt;bmatrix_mod</title>
<path fill="none" stroke="black" d="M546.32,-642.87C450.03,-637.36 262.8,-623.49 106.5,-593 105.03,-592.71 103.54,-592.41 102.04,-592.08"/>
<polygon fill="black" stroke="black" points="102.61,-588.62 92.08,-589.74 101.01,-595.43 102.61,-588.62"/>
</g>
<!-- calcheightandpressure_mod -->
<g id="node3" class="node">
<title>calcheightandpressure_mod</title>
<g id="a_node3"><a xlink:href="../modules/calcheightandpressure_mod.svg" xlink:title="calcheightandpressure_mod">
<polygon fill="none" stroke="red" points="167,-521 0,-521 0,-485 167,-485 167,-521"/>
<text text-anchor="middle" x="83.5" y="-499.3" font-family="Times,serif" font-size="14.00">calcheightandpressure_mod</text>
</a>
</g>
</g>
<!-- enspostprocess_mod&#45;&gt;calcheightandpressure_mod -->
<g id="edge2" class="edge">
<title>enspostprocess_mod&#45;&gt;calcheightandpressure_mod</title>
<path fill="none" stroke="black" d="M546.29,-642.88C442.76,-637.05 244.1,-622.36 180.5,-593 148.99,-578.45 120.74,-549.85 102.96,-528.99"/>
<polygon fill="black" stroke="black" points="105.53,-526.6 96.45,-521.14 100.14,-531.07 105.53,-526.6"/>
</g>
<!-- clib_interfaces_mod -->
<g id="node4" class="node">
<title>clib_interfaces_mod</title>
<g id="a_node4"><a xlink:href="clib_interfaces_mod.html" xlink:title="clib_interfaces_mod">
<polygon fill="gray" stroke="black" points="204,-449 77,-449 77,-413 204,-413 204,-449"/>
<text text-anchor="middle" x="140.5" y="-427.3" font-family="Times,serif" font-size="14.00">clib_interfaces_mod</text>
</a>
</g>
</g>
<!-- enspostprocess_mod&#45;&gt;clib_interfaces_mod -->
<g id="edge3" class="edge">
<title>enspostprocess_mod&#45;&gt;clib_interfaces_mod</title>
<path fill="none" stroke="black" d="M546.34,-645C448.52,-642.23 268.22,-631.84 218.5,-593 177.78,-561.2 199.42,-530.8 175.5,-485 170.65,-475.71 164.58,-466.02 158.86,-457.5"/>
<polygon fill="black" stroke="black" points="161.65,-455.38 153.1,-449.12 155.88,-459.34 161.65,-455.38"/>
</g>
<!-- controlvector_mod -->
<g id="node5" class="node">
<title>controlvector_mod</title>
<g id="a_node5"><a xlink:href="../modules/controlvector_mod.svg" xlink:title="controlvector_mod">
<polygon fill="none" stroke="red" points="242.5,-377 124.5,-377 124.5,-341 242.5,-341 242.5,-377"/>
<text text-anchor="middle" x="183.5" y="-355.3" font-family="Times,serif" font-size="14.00">controlvector_mod</text>
</a>
</g>
</g>
<!-- enspostprocess_mod&#45;&gt;controlvector_mod -->
<g id="edge4" class="edge">
<title>enspostprocess_mod&#45;&gt;controlvector_mod</title>
<path fill="none" stroke="black" d="M546.35,-644.73C456.04,-641.59 297.81,-630.71 256.5,-593 195.67,-537.48 242.3,-489.78 212.5,-413 208.97,-403.91 204.18,-394.43 199.51,-386.04"/>
<polygon fill="black" stroke="black" points="202.39,-384.03 194.36,-377.11 196.32,-387.52 202.39,-384.03"/>
</g>
<!-- ensemblestatevector_mod -->
<g id="node6" class="node">
<title>ensemblestatevector_mod</title>
<g id="a_node6"><a xlink:href="../modules/ensemblestatevector_mod.svg" xlink:title="ensemblestatevector_mod">
<polygon fill="none" stroke="red" points="280.5,-305 124.5,-305 124.5,-269 280.5,-269 280.5,-305"/>
<text text-anchor="middle" x="202.5" y="-283.3" font-family="Times,serif" font-size="14.00">ensemblestatevector_mod</text>
</a>
</g>
</g>
<!-- enspostprocess_mod&#45;&gt;ensemblestatevector_mod -->
<g id="edge5" class="edge">
<title>enspostprocess_mod&#45;&gt;ensemblestatevector_mod</title>
<path fill="none" stroke="black" d="M546.44,-643.26C464.98,-638.46 330.55,-625.7 294.5,-593 264.16,-565.47 270.5,-544.97 270.5,-504 270.5,-504 270.5,-504 270.5,-430 270.5,-389.55 270.12,-376.91 251.5,-341 246.11,-330.61 238.13,-320.74 230.17,-312.41"/>
<polygon fill="black" stroke="black" points="232.49,-309.78 222.94,-305.21 227.56,-314.74 232.49,-309.78"/>
</g>
<!-- filenames_mod -->
<g id="node7" class="node">
<title>filenames_mod</title>
<g id="a_node7"><a xlink:href="../modules/filenames_mod.svg" xlink:title="filenames_mod">
<polygon fill="none" stroke="red" points="318,-233 219,-233 219,-197 318,-197 318,-233"/>
<text text-anchor="middle" x="268.5" y="-211.3" font-family="Times,serif" font-size="14.00">filenames_mod</text>
</a>
</g>
</g>
<!-- enspostprocess_mod&#45;&gt;filenames_mod -->
<g id="edge6" class="edge">
<title>enspostprocess_mod&#45;&gt;filenames_mod</title>
<path fill="none" stroke="black" d="M546.23,-641.55C474.01,-635.25 362.89,-621.19 332.5,-593 302.47,-565.14 308.5,-544.97 308.5,-504 308.5,-504 308.5,-504 308.5,-358 308.5,-316.48 292.46,-270.61 280.7,-242.54"/>
<polygon fill="black" stroke="black" points="283.77,-240.84 276.59,-233.05 277.35,-243.62 283.77,-240.84"/>
</g>
<!-- gridstatevectorfileio_mod -->
<g id="node8" class="node">
<title>gridstatevectorfileio_mod</title>
<g id="a_node8"><a xlink:href="../modules/gridstatevectorfileio_mod.svg" xlink:title="gridstatevectorfileio_mod">
<polygon fill="none" stroke="red" points="356,-161 201,-161 201,-125 356,-125 356,-161"/>
<text text-anchor="middle" x="278.5" y="-139.3" font-family="Times,serif" font-size="14.00">gridstatevectorfileio_mod</text>
</a>
</g>
</g>
<!-- enspostprocess_mod&#45;&gt;gridstatevectorfileio_mod -->
<g id="edge7" class="edge">
<title>enspostprocess_mod&#45;&gt;gridstatevectorfileio_mod</title>
<path fill="none" stroke="black" d="M546.43,-639.36C484.14,-631.62 395.38,-616.76 370.5,-593 340.87,-564.71 346.5,-544.97 346.5,-504 346.5,-504 346.5,-504 346.5,-286 346.5,-245.46 345.17,-232.99 326.5,-197 321.16,-186.71 313.33,-176.87 305.53,-168.52"/>
<polygon fill="black" stroke="black" points="307.96,-166 298.45,-161.31 302.96,-170.9 307.96,-166"/>
</g>
<!-- gridstatevector_mod -->
<g id="node9" class="node">
<title>gridstatevector_mod</title>
<g id="a_node9"><a xlink:href="../modules/gridstatevector_mod.svg" xlink:title="gridstatevector_mod">
<polygon fill="none" stroke="red" points="448,-89 321,-89 321,-53 448,-53 448,-89"/>
<text text-anchor="middle" x="384.5" y="-67.3" font-family="Times,serif" font-size="14.00">gridstatevector_mod</text>
</a>
</g>
</g>
<!-- enspostprocess_mod&#45;&gt;gridstatevector_mod -->
<g id="edge8" class="edge">
<title>enspostprocess_mod&#45;&gt;gridstatevector_mod</title>
<path fill="none" stroke="black" d="M546.48,-637.1C493.26,-628.4 423.16,-613.47 403.5,-593 375.48,-563.83 384.5,-544.45 384.5,-504 384.5,-504 384.5,-504 384.5,-214 384.5,-174 384.5,-127.65 384.5,-99.08"/>
<polygon fill="black" stroke="black" points="388,-99.05 384.5,-89.05 381,-99.05 388,-99.05"/>
</g>
<!-- gridvariabletransforms_mod -->
<g id="node10" class="node">
<title>gridvariabletransforms_mod</title>
<g id="a_node10"><a xlink:href="../modules/gridvariabletransforms_mod.svg" xlink:title="gridvariabletransforms_mod">
<polygon fill="none" stroke="red" points="582.5,-593 412.5,-593 412.5,-557 582.5,-557 582.5,-593"/>
<text text-anchor="middle" x="497.5" y="-571.3" font-family="Times,serif" font-size="14.00">gridvariabletransforms_mod</text>
</a>
</g>
</g>
<!-- enspostprocess_mod&#45;&gt;gridvariabletransforms_mod -->
<g id="edge9" class="edge">
<title>enspostprocess_mod&#45;&gt;gridvariabletransforms_mod</title>
<path fill="none" stroke="black" d="M582.86,-628.88C568.08,-619.72 549.71,-608.34 533.8,-598.48"/>
<polygon fill="black" stroke="black" points="535.59,-595.48 525.25,-593.19 531.91,-601.43 535.59,-595.48"/>
</g>
<!-- horizontalcoord_mod -->
<g id="node11" class="node">
<title>horizontalcoord_mod</title>
<g id="a_node11"><a xlink:href="../modules/horizontalcoord_mod.svg" xlink:title="horizontalcoord_mod">
<polygon fill="none" stroke="red" points="620,-521 487,-521 487,-485 620,-485 620,-521"/>
<text text-anchor="middle" x="553.5" y="-499.3" font-family="Times,serif" font-size="14.00">horizontalcoord_mod</text>
</a>
</g>
</g>
<!-- enspostprocess_mod&#45;&gt;horizontalcoord_mod -->
<g id="edge10" class="edge">
<title>enspostprocess_mod&#45;&gt;horizontalcoord_mod</title>
<path fill="none" stroke="black" d="M608.96,-628.96C606.83,-610.56 601.98,-580.7 591.5,-557 587.17,-547.21 580.86,-537.43 574.62,-528.98"/>
<polygon fill="black" stroke="black" points="577.36,-526.8 568.48,-521.03 571.82,-531.08 577.36,-526.8"/>
</g>
<!-- humiditylimits_mod -->
<g id="node12" class="node">
<title>humiditylimits_mod</title>
<g id="a_node12"><a xlink:href="../modules/humiditylimits_mod.svg" xlink:title="humiditylimits_mod">
<polygon fill="none" stroke="red" points="658.5,-449 530.5,-449 530.5,-413 658.5,-413 658.5,-449"/>
<text text-anchor="middle" x="594.5" y="-427.3" font-family="Times,serif" font-size="14.00">humiditylimits_mod</text>
</a>
</g>
</g>
<!-- enspostprocess_mod&#45;&gt;humiditylimits_mod -->
<g id="edge11" class="edge">
<title>enspostprocess_mod&#45;&gt;humiditylimits_mod</title>
<path fill="none" stroke="black" d="M616.78,-628.7C626.7,-598.78 643.38,-535.74 628.5,-485 625.7,-475.45 620.59,-465.98 615.17,-457.76"/>
<polygon fill="black" stroke="black" points="617.88,-455.52 609.25,-449.37 612.15,-459.56 617.88,-455.52"/>
</g>
<!-- interpolation_mod -->
<g id="node13" class="node">
<title>interpolation_mod</title>
<g id="a_node13"><a xlink:href="../modules/interpolation_mod.svg" xlink:title="interpolation_mod">
<polygon fill="none" stroke="red" points="696.5,-377 580.5,-377 580.5,-341 696.5,-341 696.5,-377"/>
<text text-anchor="middle" x="638.5" y="-355.3" font-family="Times,serif" font-size="14.00">interpolation_mod</text>
</a>
</g>
</g>
<!-- enspostprocess_mod&#45;&gt;interpolation_mod -->
<g id="edge12" class="edge">
<title>enspostprocess_mod&#45;&gt;interpolation_mod</title>
<path fill="none" stroke="black" d="M624.1,-628.84C631.28,-618.91 639.59,-605.87 644.5,-593 667.6,-532.44 662.37,-513.61 667.5,-449 668.77,-433.05 671.46,-428.5 667.5,-413 665.12,-403.7 660.74,-394.27 656.08,-386"/>
<polygon fill="black" stroke="black" points="658.96,-383.99 650.81,-377.22 652.96,-387.59 658.96,-383.99"/>
</g>
<!-- mathphysconstants_mod -->
<g id="node14" class="node">
<title>mathphysconstants_mod</title>
<g id="a_node14"><a xlink:href="mathphysconstants_mod.html" xlink:title="mathphysconstants_mod">
<polygon fill="gray" stroke="black" points="734.5,-305 584.5,-305 584.5,-269 734.5,-269 734.5,-305"/>
<text text-anchor="middle" x="659.5" y="-283.3" font-family="Times,serif" font-size="14.00">mathphysconstants_mod</text>
</a>
</g>
</g>
<!-- enspostprocess_mod&#45;&gt;mathphysconstants_mod -->
<g id="edge13" class="edge">
<title>enspostprocess_mod&#45;&gt;mathphysconstants_mod</title>
<path fill="none" stroke="black" d="M637.52,-628.96C671.23,-605.37 724.5,-559.33 724.5,-504 724.5,-504 724.5,-504 724.5,-430 724.5,-389.55 723.55,-377.2 705.5,-341 700.47,-330.92 693.08,-321.21 685.68,-312.91"/>
<polygon fill="black" stroke="black" points="688.06,-310.33 678.66,-305.43 682.95,-315.12 688.06,-310.33"/>
</g>
<!-- midasmpi_mod -->
<g id="node15" class="node">
<title>midasmpi_mod</title>
<g id="a_node15"><a xlink:href="../modules/midasmpi_mod.svg" xlink:title="midasmpi_mod">
<polygon fill="none" stroke="red" points="772,-233 671,-233 671,-197 772,-197 772,-233"/>
<text text-anchor="middle" x="721.5" y="-211.3" font-family="Times,serif" font-size="14.00">midasmpi_mod</text>
</a>
</g>
</g>
<!-- enspostprocess_mod&#45;&gt;midasmpi_mod -->
<g id="edge14" class="edge">
<title>enspostprocess_mod&#45;&gt;midasmpi_mod</title>
<path fill="none" stroke="black" d="M651.63,-628.9C696.65,-607.12 762.5,-564.85 762.5,-504 762.5,-504 762.5,-504 762.5,-358 762.5,-316.41 746.06,-270.56 734,-242.51"/>
<polygon fill="black" stroke="black" points="737.05,-240.75 729.8,-233.03 730.65,-243.59 737.05,-240.75"/>
</g>
<!-- randomnumber_mod -->
<g id="node16" class="node">
<title>randomnumber_mod</title>
<g id="a_node16"><a xlink:href="randomnumber_mod.html" xlink:title="randomnumber_mod">
<polygon fill="gray" stroke="black" points="810,-161 679,-161 679,-125 810,-125 810,-161"/>
<text text-anchor="middle" x="744.5" y="-139.3" font-family="Times,serif" font-size="14.00">randomnumber_mod</text>
</a>
</g>
</g>
<!-- enspostprocess_mod&#45;&gt;randomnumber_mod -->
<g id="edge15" class="edge">
<title>enspostprocess_mod&#45;&gt;randomnumber_mod</title>
<path fill="none" stroke="black" d="M670.36,-628.96C726.05,-609.01 800.5,-569.99 800.5,-504 800.5,-504 800.5,-504 800.5,-286 800.5,-245.46 796.62,-234.2 780.5,-197 776.36,-187.46 770.45,-177.81 764.6,-169.41"/>
<polygon fill="black" stroke="black" points="767.32,-167.2 758.61,-161.17 761.66,-171.32 767.32,-167.2"/>
</g>
<!-- timecoord_mod -->
<g id="node17" class="node">
<title>timecoord_mod</title>
<g id="a_node17"><a xlink:href="../modules/timecoord_mod.svg" xlink:title="timecoord_mod">
<polygon fill="none" stroke="red" points="889.5,-89 787.5,-89 787.5,-53 889.5,-53 889.5,-89"/>
<text text-anchor="middle" x="838.5" y="-67.3" font-family="Times,serif" font-size="14.00">timecoord_mod</text>
</a>
</g>
</g>
<!-- enspostprocess_mod&#45;&gt;timecoord_mod -->
<g id="edge16" class="edge">
<title>enspostprocess_mod&#45;&gt;timecoord_mod</title>
<path fill="none" stroke="black" d="M674.62,-634.54C742.05,-618.36 838.5,-581.64 838.5,-504 838.5,-504 838.5,-504 838.5,-214 838.5,-174 838.5,-127.65 838.5,-99.08"/>
<polygon fill="black" stroke="black" points="842,-99.05 838.5,-89.05 835,-99.05 842,-99.05"/>
</g>
<!-- utilities_mod -->
<g id="node18" class="node">
<title>utilities_mod</title>
<g id="a_node18"><a xlink:href="../modules/utilities_mod.svg" xlink:title="utilities_mod">
<polygon fill="none" stroke="red" points="954.5,-593 866.5,-593 866.5,-557 954.5,-557 954.5,-593"/>
<text text-anchor="middle" x="910.5" y="-571.3" font-family="Times,serif" font-size="14.00">utilities_mod</text>
</a>
</g>
</g>
<!-- enspostprocess_mod&#45;&gt;utilities_mod -->
<g id="edge17" class="edge">
<title>enspostprocess_mod&#45;&gt;utilities_mod</title>
<path fill="none" stroke="black" d="M674.73,-633.2C723.67,-623.14 792.6,-608.32 852.5,-593 853.76,-592.68 855.03,-592.35 856.31,-592.01"/>
<polygon fill="black" stroke="black" points="857.52,-595.31 866.25,-589.31 855.69,-588.55 857.52,-595.31"/>
</g>
<!-- varnamelist_mod -->
<g id="node19" class="node">
<title>varnamelist_mod</title>
<g id="a_node19"><a xlink:href="../modules/varnamelist_mod.svg" xlink:title="varnamelist_mod">
<polygon fill="none" stroke="red" points="1037.5,-521 927.5,-521 927.5,-485 1037.5,-485 1037.5,-521"/>
<text text-anchor="middle" x="982.5" y="-499.3" font-family="Times,serif" font-size="14.00">varnamelist_mod</text>
</a>
</g>
</g>
<!-- enspostprocess_mod&#45;&gt;varnamelist_mod -->
<g id="edge18" class="edge">
<title>enspostprocess_mod&#45;&gt;varnamelist_mod</title>
<path fill="none" stroke="black" d="M674.62,-644.86C764.86,-641.89 922.87,-631.21 963.5,-593 980.08,-577.4 984.02,-551.16 984.29,-531.21"/>
<polygon fill="black" stroke="black" points="987.79,-531.1 984.13,-521.15 980.79,-531.21 987.79,-531.1"/>
</g>
<!-- verticalcoord_mod -->
<g id="node20" class="node">
<title>verticalcoord_mod</title>
<g id="a_node20"><a xlink:href="../modules/verticalcoord_mod.svg" xlink:title="verticalcoord_mod">
<polygon fill="none" stroke="red" points="1124.5,-449 1006.5,-449 1006.5,-413 1124.5,-413 1124.5,-449"/>
<text text-anchor="middle" x="1065.5" y="-427.3" font-family="Times,serif" font-size="14.00">verticalcoord_mod</text>
</a>
</g>
</g>
<!-- enspostprocess_mod&#45;&gt;verticalcoord_mod -->
<g id="edge19" class="edge">
<title>enspostprocess_mod&#45;&gt;verticalcoord_mod</title>
<path fill="none" stroke="black" d="M674.6,-642.52C767.54,-636.54 934.3,-622.06 986.5,-593 1022.89,-572.74 1028.29,-558.46 1046.5,-521 1055.97,-501.52 1060.75,-477.38 1063.14,-459.16"/>
<polygon fill="black" stroke="black" points="1066.62,-459.53 1064.29,-449.19 1059.67,-458.72 1066.62,-459.53"/>
</g>
</g>
</svg>
