<?xml version="1.0" encoding="UTF-8" standalone="no"?>
<!DOCTYPE svg PUBLIC "-//W3C//DTD SVG 1.1//EN"
 "http://www.w3.org/Graphics/SVG/1.1/DTD/svg11.dtd">
<!-- Generated by graphviz version 3.0.0 (20220315.2325)
 -->
<!-- Title: enspostprocess_mod Pages: 1 -->
<svg width="430pt" height="241pt"
 viewBox="0.00 0.00 430.00 241.00" xmlns="http://www.w3.org/2000/svg" xmlns:xlink="http://www.w3.org/1999/xlink">
<g id="graph0" class="graph" transform="scale(1 1) rotate(0) translate(4 237)">
<title>enspostprocess_mod</title>
<polygon fill="white" stroke="transparent" points="-4,4 -4,-237 426,-237 426,4 -4,4"/>
<text text-anchor="middle" x="211" y="-217.8" font-family="Times,serif" font-size="14.00">Blue boxes indicate modules with reverse dependencies not shown</text>
<text text-anchor="middle" x="211" y="-202.8" font-family="Times,serif" font-size="14.00">Higher level reverse dependencies can be shown by clicking on a blue box</text>
<text text-anchor="middle" x="211" y="-187.8" font-family="Times,serif" font-size="14.00">Green boxes are programs</text>
<!-- enspostprocess_mod -->
<g id="node1" class="node">
<title>enspostprocess_mod</title>
<g id="a_node1"><a xlink:href="enspostprocess_mod.html" xlink:title="enspostprocess_mod">
<polygon fill="none" stroke="black" points="288.5,-36 160.5,-36 160.5,0 288.5,0 288.5,-36"/>
<text text-anchor="middle" x="224.5" y="-14.3" font-family="Times,serif" font-size="14.00">enspostprocess_mod</text>
</a>
</g>
</g>
<!-- midas_midas_enspostprocess -->
<g id="node2" class="node">
<title>midas_midas_enspostprocess</title>
<g id="a_node2"><a xlink:href="../programs/midas_enspostprocess.html" xlink:title="midas_midas_enspostprocess">
<polygon fill="gray" stroke="green" points="254.5,-108 78.5,-108 78.5,-72 254.5,-72 254.5,-108"/>
<text text-anchor="middle" x="166.5" y="-86.3" font-family="Times,serif" font-size="14.00">midas_midas_enspostprocess</text>
</a>
</g>
</g>
<!-- midas_midas_enspostprocess&#45;&gt;enspostprocess_mod -->
<g id="edge1" class="edge">
<title>midas_midas_enspostprocess&#45;&gt;enspostprocess_mod</title>
<path fill="none" stroke="black" d="M186.13,-65.31C194.06,-55.73 203.05,-44.89 210.33,-36.1"/>
<ellipse fill="black" stroke="black" cx="183.39" cy="-68.62" rx="4" ry="4"/>
</g>
<!-- midas_midas_letkf -->
<g id="node3" class="node">
<title>midas_midas_letkf</title>
<g id="a_node3"><a xlink:href="../programs/midas_letkf.html" xlink:title="midas_midas_letkf">
<polygon fill="gray" stroke="green" points="343.5,-180 221.5,-180 221.5,-144 343.5,-144 343.5,-180"/>
<text text-anchor="middle" x="282.5" y="-158.3" font-family="Times,serif" font-size="14.00">midas_midas_letkf</text>
</a>
</g>
</g>
<!-- midas_midas_letkf&#45;&gt;enspostprocess_mod -->
<g id="edge2" class="edge">
<title>midas_midas_letkf&#45;&gt;enspostprocess_mod</title>
<path fill="none" stroke="black" d="M279.97,-135.53C277.46,-117.23 272.63,-92.31 263.5,-72 257.69,-59.08 248.36,-46.24 240.28,-36.44"/>
<ellipse fill="black" stroke="black" cx="280.52" cy="-139.97" rx="4" ry="4"/>
</g>
</g>
</svg>
