<?xml version="1.0" encoding="UTF-8" standalone="no"?>
<!DOCTYPE svg PUBLIC "-//W3C//DTD SVG 1.1//EN"
 "http://www.w3.org/Graphics/SVG/1.1/DTD/svg11.dtd">
<!-- Generated by graphviz version 3.0.0 (20220315.2325)
 -->
<!-- Title: filenames_mod Pages: 1 -->
<svg width="379pt" height="385pt"
 viewBox="0.00 0.00 379.00 385.00" xmlns="http://www.w3.org/2000/svg" xmlns:xlink="http://www.w3.org/1999/xlink">
<g id="graph0" class="graph" transform="scale(1 1) rotate(0) translate(4 381)">
<title>filenames_mod</title>
<polygon fill="white" stroke="transparent" points="-4,4 -4,-381 375,-381 375,4 -4,4"/>
<text text-anchor="middle" x="185.5" y="-37.8" font-family="Times,serif" font-size="14.00">Red boxes indicate modules with dependencies not shown</text>
<text text-anchor="middle" x="185.5" y="-22.8" font-family="Times,serif" font-size="14.00">Lower level dependencies can be shown by clicking on a red box</text>
<text text-anchor="middle" x="185.5" y="-7.8" font-family="Times,serif" font-size="14.00">Shaded boxes indicate modules with no dependencies</text>
<!-- filenames_mod -->
<g id="node1" class="node">
<title>filenames_mod</title>
<g id="a_node1"><a xlink:href="filenames_mod.html" xlink:title="filenames_mod">
<polygon fill="none" stroke="black" points="260.25,-377 161.25,-377 161.25,-341 260.25,-341 260.25,-377"/>
<text text-anchor="middle" x="210.75" y="-355.3" font-family="Times,serif" font-size="14.00">filenames_mod</text>
</a>
</g>
</g>
<!-- clib_interfaces_mod -->
<g id="node2" class="node">
<title>clib_interfaces_mod</title>
<g id="a_node2"><a xlink:href="clib_interfaces_mod.html" xlink:title="clib_interfaces_mod">
<polygon fill="gray" stroke="black" points="145.25,-305 18.25,-305 18.25,-269 145.25,-269 145.25,-305"/>
<text text-anchor="middle" x="81.75" y="-283.3" font-family="Times,serif" font-size="14.00">clib_interfaces_mod</text>
</a>
</g>
</g>
<!-- filenames_mod&#45;&gt;clib_interfaces_mod -->
<g id="edge1" class="edge">
<title>filenames_mod&#45;&gt;clib_interfaces_mod</title>
<path fill="none" stroke="black" d="M179.19,-340.88C162.09,-331.6 140.77,-320.03 122.43,-310.08"/>
<polygon fill="black" stroke="black" points="123.89,-306.88 113.43,-305.19 120.55,-313.04 123.89,-306.88"/>
</g>
<!-- ramdisk_mod -->
<g id="node3" class="node">
<title>ramdisk_mod</title>
<g id="a_node3"><a xlink:href="../modules/ramdisk_mod.svg" xlink:title="ramdisk_mod">
<polygon fill="none" stroke="red" points="201.25,-233 110.25,-233 110.25,-197 201.25,-197 201.25,-233"/>
<text text-anchor="middle" x="155.75" y="-211.3" font-family="Times,serif" font-size="14.00">ramdisk_mod</text>
</a>
</g>
</g>
<!-- filenames_mod&#45;&gt;ramdisk_mod -->
<g id="edge2" class="edge">
<title>filenames_mod&#45;&gt;ramdisk_mod</title>
<path fill="none" stroke="black" d="M204.12,-340.87C194.66,-316.46 177.22,-271.43 166.07,-242.64"/>
<polygon fill="black" stroke="black" points="169.28,-241.25 162.41,-233.19 162.76,-243.78 169.28,-241.25"/>
</g>
<!-- timecoord_mod -->
<g id="node4" class="node">
<title>timecoord_mod</title>
<g id="a_node4"><a xlink:href="../modules/timecoord_mod.svg" xlink:title="timecoord_mod">
<polygon fill="none" stroke="red" points="280.75,-161 178.75,-161 178.75,-125 280.75,-125 280.75,-161"/>
<text text-anchor="middle" x="229.75" y="-139.3" font-family="Times,serif" font-size="14.00">timecoord_mod</text>
</a>
</g>
</g>
<!-- filenames_mod&#45;&gt;timecoord_mod -->
<g id="edge3" class="edge">
<title>filenames_mod&#45;&gt;timecoord_mod</title>
<path fill="none" stroke="black" d="M212.27,-340.85C215.56,-303.83 223.34,-216.18 227.32,-171.39"/>
<polygon fill="black" stroke="black" points="230.82,-171.5 228.22,-161.23 223.85,-170.88 230.82,-171.5"/>
</g>
<!-- utilities_mod -->
<g id="node5" class="node">
<title>utilities_mod</title>
<g id="a_node5"><a xlink:href="../modules/utilities_mod.svg" xlink:title="utilities_mod">
<polygon fill="none" stroke="red" points="352.75,-89 264.75,-89 264.75,-53 352.75,-53 352.75,-89"/>
<text text-anchor="middle" x="308.75" y="-67.3" font-family="Times,serif" font-size="14.00">utilities_mod</text>
</a>
</g>
</g>
<!-- filenames_mod&#45;&gt;utilities_mod -->
<g id="edge4" class="edge">
<title>filenames_mod&#45;&gt;utilities_mod</title>
<path fill="none" stroke="black" d="M218.74,-340.96C234.29,-307.26 268.91,-229.38 289.75,-161 295.96,-140.63 300.9,-117.04 304.18,-99.26"/>
<polygon fill="black" stroke="black" points="307.65,-99.74 305.96,-89.28 300.76,-98.51 307.65,-99.74"/>
</g>
</g>
</svg>
