<?xml version="1.0" encoding="UTF-8" standalone="no"?>
<!DOCTYPE svg PUBLIC "-//W3C//DTD SVG 1.1//EN"
 "http://www.w3.org/Graphics/SVG/1.1/DTD/svg11.dtd">
<!-- Generated by graphviz version 3.0.0 (20220315.2325)
 -->
<!-- Title: filenames_mod Pages: 1 -->
<svg width="806pt" height="673pt"
 viewBox="0.00 0.00 805.50 673.00" xmlns="http://www.w3.org/2000/svg" xmlns:xlink="http://www.w3.org/1999/xlink">
<g id="graph0" class="graph" transform="scale(1 1) rotate(0) translate(4 669)">
<title>filenames_mod</title>
<polygon fill="white" stroke="transparent" points="-4,4 -4,-669 801.5,-669 801.5,4 -4,4"/>
<text text-anchor="middle" x="398.75" y="-649.8" font-family="Times,serif" font-size="14.00">Blue boxes indicate modules with reverse dependencies not shown</text>
<text text-anchor="middle" x="398.75" y="-634.8" font-family="Times,serif" font-size="14.00">Higher level reverse dependencies can be shown by clicking on a blue box</text>
<text text-anchor="middle" x="398.75" y="-619.8" font-family="Times,serif" font-size="14.00">Green boxes are programs</text>
<!-- filenames_mod -->
<g id="node1" class="node">
<title>filenames_mod</title>
<g id="a_node1"><a xlink:href="filenames_mod.html" xlink:title="filenames_mod">
<polygon fill="none" stroke="black" points="379,-36 280,-36 280,0 379,0 379,-36"/>
<text text-anchor="middle" x="329.5" y="-14.3" font-family="Times,serif" font-size="14.00">filenames_mod</text>
</a>
</g>
</g>
<!-- bmatrix1dvar_mod -->
<g id="node2" class="node">
<title>bmatrix1dvar_mod</title>
<g id="a_node2"><a xlink:href="../modules/bmatrix1dvar_mod_rev.svg" xlink:title="bmatrix1dvar_mod">
<polygon fill="none" stroke="blue" points="119,-108 0,-108 0,-72 119,-72 119,-108"/>
<text text-anchor="middle" x="59.5" y="-86.3" font-family="Times,serif" font-size="14.00">bmatrix1dvar_mod</text>
</a>
</g>
</g>
<!-- bmatrix1dvar_mod&#45;&gt;filenames_mod -->
<g id="edge1" class="edge">
<title>bmatrix1dvar_mod&#45;&gt;filenames_mod</title>
<path fill="none" stroke="black" d="M126.85,-71.54C174.23,-59.25 236.6,-43.08 279.57,-31.95"/>
<ellipse fill="black" stroke="black" cx="122.96" cy="-72.55" rx="4" ry="4"/>
</g>
<!-- bmatrixensemble_mod -->
<g id="node3" class="node">
<title>bmatrixensemble_mod</title>
<g id="a_node3"><a xlink:href="../modules/bmatrixensemble_mod_rev.svg" xlink:title="bmatrixensemble_mod">
<polygon fill="none" stroke="blue" points="187.5,-180 47.5,-180 47.5,-144 187.5,-144 187.5,-180"/>
<text text-anchor="middle" x="117.5" y="-158.3" font-family="Times,serif" font-size="14.00">bmatrixensemble_mod</text>
</a>
</g>
</g>
<!-- bmatrixensemble_mod&#45;&gt;filenames_mod -->
<g id="edge2" class="edge">
<title>bmatrixensemble_mod&#45;&gt;filenames_mod</title>
<path fill="none" stroke="black" d="M134.99,-137.53C150.63,-117.88 175.09,-90.2 201.5,-72 225.36,-55.55 255.12,-42.85 279.94,-34"/>
<ellipse fill="black" stroke="black" cx="132.5" cy="-140.71" rx="4" ry="4"/>
</g>
<!-- calcstatsglb_mod -->
<g id="node4" class="node">
<title>calcstatsglb_mod</title>
<g id="a_node4"><a xlink:href="../modules/calcstatsglb_mod_rev.svg" xlink:title="calcstatsglb_mod">
<polygon fill="none" stroke="blue" points="225.5,-252 115.5,-252 115.5,-216 225.5,-216 225.5,-252"/>
<text text-anchor="middle" x="170.5" y="-230.3" font-family="Times,serif" font-size="14.00">calcstatsglb_mod</text>
</a>
</g>
</g>
<!-- calcstatsglb_mod&#45;&gt;filenames_mod -->
<g id="edge3" class="edge">
<title>calcstatsglb_mod&#45;&gt;filenames_mod</title>
<path fill="none" stroke="black" d="M182.86,-208.8C187.32,-199.82 192.28,-189.52 196.5,-180 217.45,-132.77 205.87,-111.22 239.5,-72 252.6,-56.72 271.26,-44.73 288.2,-36.04"/>
<ellipse fill="black" stroke="black" cx="181.06" cy="-212.4" rx="4" ry="4"/>
</g>
<!-- ensemblestatevector_mod -->
<g id="node5" class="node">
<title>ensemblestatevector_mod</title>
<g id="a_node5"><a xlink:href="../modules/ensemblestatevector_mod_rev.svg" xlink:title="ensemblestatevector_mod">
<polygon fill="none" stroke="blue" points="263.5,-324 107.5,-324 107.5,-288 263.5,-288 263.5,-324"/>
<text text-anchor="middle" x="185.5" y="-302.3" font-family="Times,serif" font-size="14.00">ensemblestatevector_mod</text>
</a>
</g>
</g>
<!-- ensemblestatevector_mod&#45;&gt;filenames_mod -->
<g id="edge4" class="edge">
<title>ensemblestatevector_mod&#45;&gt;filenames_mod</title>
<path fill="none" stroke="black" d="M211.56,-282.03C219.98,-273.38 228.65,-262.96 234.5,-252 273.23,-179.44 237.69,-143.98 277.5,-72 285.11,-58.24 297.28,-45.56 307.93,-36.05"/>
<ellipse fill="black" stroke="black" cx="208.65" cy="-284.91" rx="4" ry="4"/>
</g>
<!-- enspostprocess_mod -->
<g id="node6" class="node">
<title>enspostprocess_mod</title>
<g id="a_node6"><a xlink:href="../modules/enspostprocess_mod_rev.svg" xlink:title="enspostprocess_mod">
<polygon fill="none" stroke="blue" points="301.5,-396 173.5,-396 173.5,-360 301.5,-360 301.5,-396"/>
<text text-anchor="middle" x="237.5" y="-374.3" font-family="Times,serif" font-size="14.00">enspostprocess_mod</text>
</a>
</g>
</g>
<!-- enspostprocess_mod&#45;&gt;filenames_mod -->
<g id="edge5" class="edge">
<title>enspostprocess_mod&#45;&gt;filenames_mod</title>
<path fill="none" stroke="black" d="M256.01,-353.12C262.04,-344.36 268.26,-334.11 272.5,-324 288.14,-286.7 291.5,-275.45 291.5,-235 291.5,-235 291.5,-235 291.5,-161 291.5,-114.55 310.71,-62.38 321.81,-36.09"/>
<ellipse fill="black" stroke="black" cx="253.57" cy="-356.53" rx="4" ry="4"/>
</g>
<!-- ominusf_mod -->
<g id="node7" class="node">
<title>ominusf_mod</title>
<g id="a_node7"><a xlink:href="../modules/ominusf_mod_rev.svg" xlink:title="ominusf_mod">
<polygon fill="none" stroke="blue" points="339,-468 246,-468 246,-432 339,-432 339,-468"/>
<text text-anchor="middle" x="292.5" y="-446.3" font-family="Times,serif" font-size="14.00">ominusf_mod</text>
</a>
</g>
</g>
<!-- ominusf_mod&#45;&gt;filenames_mod -->
<g id="edge6" class="edge">
<title>ominusf_mod&#45;&gt;filenames_mod</title>
<path fill="none" stroke="black" d="M303.07,-424.19C314.01,-396.24 329.5,-349.2 329.5,-307 329.5,-307 329.5,-307 329.5,-161 329.5,-115.89 329.5,-62.71 329.5,-36.05"/>
<ellipse fill="black" stroke="black" cx="301.48" cy="-428.17" rx="4" ry="4"/>
</g>
<!-- midas_midas_calcstats -->
<g id="node8" class="node">
<title>midas_midas_calcstats</title>
<g id="a_node8"><a xlink:href="../programs/midas_calcstats.html" xlink:title="midas_midas_calcstats">
<polygon fill="gray" stroke="green" points="377.5,-540 235.5,-540 235.5,-504 377.5,-504 377.5,-540"/>
<text text-anchor="middle" x="306.5" y="-518.3" font-family="Times,serif" font-size="14.00">midas_midas_calcstats</text>
</a>
</g>
</g>
<!-- midas_midas_calcstats&#45;&gt;filenames_mod -->
<g id="edge7" class="edge">
<title>midas_midas_calcstats&#45;&gt;filenames_mod</title>
<path fill="none" stroke="black" d="M328.36,-497.36C335.38,-488.67 342.61,-478.4 347.5,-468 364.76,-431.31 367.5,-419.54 367.5,-379 367.5,-379 367.5,-379 367.5,-161 367.5,-114.55 348.29,-62.38 337.19,-36.09"/>
<ellipse fill="black" stroke="black" cx="325.63" cy="-500.6" rx="4" ry="4"/>
</g>
<!-- midas_midas_ensembleh -->
<g id="node9" class="node">
<title>midas_midas_ensembleh</title>
<g id="a_node9"><a xlink:href="../programs/midas_ensembleh.html" xlink:title="midas_midas_ensembleh">
<polygon fill="gray" stroke="green" points="482.5,-612 328.5,-612 328.5,-576 482.5,-576 482.5,-612"/>
<text text-anchor="middle" x="405.5" y="-590.3" font-family="Times,serif" font-size="14.00">midas_midas_ensembleh</text>
</a>
</g>
</g>
<!-- midas_midas_ensembleh&#45;&gt;filenames_mod -->
<g id="edge8" class="edge">
<title>midas_midas_ensembleh&#45;&gt;filenames_mod</title>
<path fill="none" stroke="black" d="M405.5,-567.78C405.5,-539.39 405.5,-491.89 405.5,-451 405.5,-451 405.5,-451 405.5,-161 405.5,-110.95 368.34,-61.47 345.99,-36.23"/>
<ellipse fill="black" stroke="black" cx="405.5" cy="-571.95" rx="4" ry="4"/>
</g>
<!-- midas_midas_enspostprocess -->
<g id="node10" class="node">
<title>midas_midas_enspostprocess</title>
<g id="a_node10"><a xlink:href="../programs/midas_enspostprocess.html" xlink:title="midas_midas_enspostprocess">
<polygon fill="gray" stroke="green" points="609.5,-108 433.5,-108 433.5,-72 609.5,-72 609.5,-108"/>
<text text-anchor="middle" x="521.5" y="-86.3" font-family="Times,serif" font-size="14.00">midas_midas_enspostprocess</text>
</a>
</g>
</g>
<!-- midas_midas_enspostprocess&#45;&gt;filenames_mod -->
<g id="edge9" class="edge">
<title>midas_midas_enspostprocess&#45;&gt;filenames_mod</title>
<path fill="none" stroke="black" d="M466.65,-69C438.11,-58.6 403.59,-46.01 376.32,-36.07"/>
<ellipse fill="black" stroke="black" cx="470.77" cy="-70.51" rx="4" ry="4"/>
</g>
<!-- midas_midas_letkf -->
<g id="node11" class="node">
<title>midas_midas_letkf</title>
<g id="a_node11"><a xlink:href="../programs/midas_letkf.html" xlink:title="midas_midas_letkf">
<polygon fill="gray" stroke="green" points="698.5,-180 576.5,-180 576.5,-144 698.5,-144 698.5,-180"/>
<text text-anchor="middle" x="637.5" y="-158.3" font-family="Times,serif" font-size="14.00">midas_midas_letkf</text>
</a>
</g>
</g>
<!-- midas_midas_letkf&#45;&gt;filenames_mod -->
<g id="edge10" class="edge">
<title>midas_midas_letkf&#45;&gt;filenames_mod</title>
<path fill="none" stroke="black" d="M639.17,-135.85C639.04,-115.77 635.36,-88.38 618.5,-72 585.11,-39.57 452.46,-26.44 379.03,-21.58"/>
<ellipse fill="black" stroke="black" cx="639.1" cy="-139.95" rx="4" ry="4"/>
</g>
<!-- midas_midas_ominusf -->
<g id="node12" class="node">
<title>midas_midas_ominusf</title>
<g id="a_node12"><a xlink:href="../programs/midas_ominusf.html" xlink:title="midas_midas_ominusf">
<polygon fill="gray" stroke="green" points="797.5,-252 655.5,-252 655.5,-216 797.5,-216 797.5,-252"/>
<text text-anchor="middle" x="726.5" y="-230.3" font-family="Times,serif" font-size="14.00">midas_midas_ominusf</text>
</a>
</g>
</g>
<!-- midas_midas_ominusf&#45;&gt;filenames_mod -->
<g id="edge11" class="edge">
<title>midas_midas_ominusf&#45;&gt;filenames_mod</title>
<path fill="none" stroke="black" d="M724.68,-207.72C722.52,-189.22 717.8,-163.97 707.5,-144 687.6,-105.42 679.63,-92.76 641.5,-72 597.11,-47.83 455.35,-31.02 379.12,-23.48"/>
<ellipse fill="black" stroke="black" cx="725.09" cy="-211.72" rx="4" ry="4"/>
</g>
</g>
</svg>
