<?xml version="1.0" encoding="UTF-8" standalone="no"?>
<!DOCTYPE svg PUBLIC "-//W3C//DTD SVG 1.1//EN"
 "http://www.w3.org/Graphics/SVG/1.1/DTD/svg11.dtd">
<!-- Generated by graphviz version 3.0.0 (20220315.2325)
 -->
<!-- Title: fsoi_mod Pages: 1 -->
<svg width="1237pt" height="673pt"
 viewBox="0.00 0.00 1237.00 673.00" xmlns="http://www.w3.org/2000/svg" xmlns:xlink="http://www.w3.org/1999/xlink">
<g id="graph0" class="graph" transform="scale(1 1) rotate(0) translate(4 669)">
<title>fsoi_mod</title>
<polygon fill="white" stroke="transparent" points="-4,4 -4,-669 1233,-669 1233,4 -4,4"/>
<text text-anchor="middle" x="614.5" y="-37.8" font-family="Times,serif" font-size="14.00">Red boxes indicate modules with dependencies not shown</text>
<text text-anchor="middle" x="614.5" y="-22.8" font-family="Times,serif" font-size="14.00">Lower level dependencies can be shown by clicking on a red box</text>
<text text-anchor="middle" x="614.5" y="-7.8" font-family="Times,serif" font-size="14.00">Shaded boxes indicate modules with no dependencies</text>
<!-- fsoi_mod -->
<g id="node1" class="node">
<title>fsoi_mod</title>
<g id="a_node1"><a xlink:href="fsoi_mod.html" xlink:title="fsoi_mod">
<polygon fill="none" stroke="black" points="669,-665 601,-665 601,-629 669,-629 669,-665"/>
<text text-anchor="middle" x="635" y="-643.3" font-family="Times,serif" font-size="14.00">fsoi_mod</text>
</a>
</g>
</g>
<!-- bmatrixensemble_mod -->
<g id="node2" class="node">
<title>bmatrixensemble_mod</title>
<g id="a_node2"><a xlink:href="../modules/bmatrixensemble_mod.svg" xlink:title="bmatrixensemble_mod">
<polygon fill="none" stroke="red" points="140,-593 0,-593 0,-557 140,-557 140,-593"/>
<text text-anchor="middle" x="70" y="-571.3" font-family="Times,serif" font-size="14.00">bmatrixensemble_mod</text>
</a>
</g>
</g>
<!-- fsoi_mod&#45;&gt;bmatrixensemble_mod -->
<g id="edge1" class="edge">
<title>fsoi_mod&#45;&gt;bmatrixensemble_mod</title>
<path fill="none" stroke="black" d="M600.74,-643.29C521.71,-636.81 320.64,-618.99 154,-593 152.72,-592.8 151.43,-592.59 150.13,-592.38"/>
<polygon fill="black" stroke="black" points="150.49,-588.89 140.04,-590.67 149.31,-595.79 150.49,-588.89"/>
</g>
<!-- bmatrix_mod -->
<g id="node3" class="node">
<title>bmatrix_mod</title>
<g id="a_node3"><a xlink:href="../modules/bmatrix_mod.svg" xlink:title="bmatrix_mod">
<polygon fill="none" stroke="red" points="194.5,-521 105.5,-521 105.5,-485 194.5,-485 194.5,-521"/>
<text text-anchor="middle" x="150" y="-499.3" font-family="Times,serif" font-size="14.00">bmatrix_mod</text>
</a>
</g>
</g>
<!-- fsoi_mod&#45;&gt;bmatrix_mod -->
<g id="edge2" class="edge">
<title>fsoi_mod&#45;&gt;bmatrix_mod</title>
<path fill="none" stroke="black" d="M600.72,-645.37C511.48,-643.16 274.42,-633.52 209,-593 185.6,-578.5 169.5,-550.88 160.1,-530.24"/>
<polygon fill="black" stroke="black" points="163.3,-528.84 156.13,-521.04 156.87,-531.6 163.3,-528.84"/>
</g>
<!-- calcheightandpressure_mod -->
<g id="node4" class="node">
<title>calcheightandpressure_mod</title>
<g id="a_node4"><a xlink:href="../modules/calcheightandpressure_mod.svg" xlink:title="calcheightandpressure_mod">
<polygon fill="none" stroke="red" points="233.5,-449 66.5,-449 66.5,-413 233.5,-413 233.5,-449"/>
<text text-anchor="middle" x="150" y="-427.3" font-family="Times,serif" font-size="14.00">calcheightandpressure_mod</text>
</a>
</g>
</g>
<!-- fsoi_mod&#45;&gt;calcheightandpressure_mod -->
<g id="edge3" class="edge">
<title>fsoi_mod&#45;&gt;calcheightandpressure_mod</title>
<path fill="none" stroke="black" d="M600.88,-645.6C516.69,-643.97 301.92,-635.61 247,-593 206.05,-561.23 231.67,-528.18 203,-485 196.1,-474.6 186.93,-464.56 178.16,-456.06"/>
<polygon fill="black" stroke="black" points="180.32,-453.29 170.62,-449.02 175.54,-458.4 180.32,-453.29"/>
</g>
<!-- codeprecision_mod -->
<g id="node5" class="node">
<title>codeprecision_mod</title>
<g id="a_node5"><a xlink:href="codeprecision_mod.html" xlink:title="codeprecision_mod">
<polygon fill="gray" stroke="black" points="271,-377 149,-377 149,-341 271,-341 271,-377"/>
<text text-anchor="middle" x="210" y="-355.3" font-family="Times,serif" font-size="14.00">codeprecision_mod</text>
</a>
</g>
</g>
<!-- fsoi_mod&#45;&gt;codeprecision_mod -->
<g id="edge4" class="edge">
<title>fsoi_mod&#45;&gt;codeprecision_mod</title>
<path fill="none" stroke="black" d="M600.95,-645.53C522.2,-643.72 330.7,-635 285,-593 224.44,-537.34 273.18,-489.11 242,-413 238.23,-403.8 233,-394.32 227.87,-385.98"/>
<polygon fill="black" stroke="black" points="230.74,-383.97 222.4,-377.43 224.84,-387.74 230.74,-383.97"/>
</g>
<!-- columndata_mod -->
<g id="node6" class="node">
<title>columndata_mod</title>
<g id="a_node6"><a xlink:href="../modules/columndata_mod.svg" xlink:title="columndata_mod">
<polygon fill="none" stroke="red" points="308.5,-305 197.5,-305 197.5,-269 308.5,-269 308.5,-305"/>
<text text-anchor="middle" x="253" y="-283.3" font-family="Times,serif" font-size="14.00">columndata_mod</text>
</a>
</g>
</g>
<!-- fsoi_mod&#45;&gt;columndata_mod -->
<g id="edge5" class="edge">
<title>fsoi_mod&#45;&gt;columndata_mod</title>
<path fill="none" stroke="black" d="M600.96,-644.73C528.71,-641.34 363.35,-629.68 323,-593 292.69,-565.44 299,-544.97 299,-504 299,-504 299,-504 299,-430 299,-389.55 293.52,-379.12 280,-341 276.79,-331.95 272.35,-322.48 268,-314.09"/>
<polygon fill="black" stroke="black" points="271.01,-312.3 263.19,-305.16 264.85,-315.62 271.01,-312.3"/>
</g>
<!-- controlvector_mod -->
<g id="node7" class="node">
<title>controlvector_mod</title>
<g id="a_node7"><a xlink:href="../modules/controlvector_mod.svg" xlink:title="controlvector_mod">
<polygon fill="none" stroke="red" points="347,-233 229,-233 229,-197 347,-197 347,-233"/>
<text text-anchor="middle" x="288" y="-211.3" font-family="Times,serif" font-size="14.00">controlvector_mod</text>
</a>
</g>
</g>
<!-- fsoi_mod&#45;&gt;controlvector_mod -->
<g id="edge6" class="edge">
<title>fsoi_mod&#45;&gt;controlvector_mod</title>
<path fill="none" stroke="black" d="M600.88,-643.83C535.38,-638.98 395.46,-625.05 361,-593 331,-565.1 337,-544.97 337,-504 337,-504 337,-504 337,-358 337,-317.46 331.31,-306.93 317,-269 313.56,-259.87 308.79,-250.38 304.11,-242"/>
<polygon fill="black" stroke="black" points="306.99,-239.98 298.94,-233.08 300.93,-243.49 306.99,-239.98"/>
</g>
<!-- costfunction_mod -->
<g id="node8" class="node">
<title>costfunction_mod</title>
<g id="a_node8"><a xlink:href="../modules/costfunction_mod.svg" xlink:title="costfunction_mod">
<polygon fill="none" stroke="red" points="385,-161 271,-161 271,-125 385,-125 385,-161"/>
<text text-anchor="middle" x="328" y="-139.3" font-family="Times,serif" font-size="14.00">costfunction_mod</text>
</a>
</g>
</g>
<!-- fsoi_mod&#45;&gt;costfunction_mod -->
<g id="edge7" class="edge">
<title>fsoi_mod&#45;&gt;costfunction_mod</title>
<path fill="none" stroke="black" d="M600.85,-642.65C542.63,-636.26 427.65,-620.46 399,-593 369.42,-564.65 375,-544.97 375,-504 375,-504 375,-504 375,-286 375,-245.55 369.8,-235.02 356,-197 352.7,-187.9 348.1,-178.42 343.58,-170.03"/>
<polygon fill="black" stroke="black" points="346.53,-168.13 338.59,-161.11 340.42,-171.55 346.53,-168.13"/>
</g>
<!-- gridstatevectorfileio_mod -->
<g id="node9" class="node">
<title>gridstatevectorfileio_mod</title>
<g id="a_node9"><a xlink:href="../modules/gridstatevectorfileio_mod.svg" xlink:title="gridstatevectorfileio_mod">
<polygon fill="none" stroke="red" points="490.5,-89 335.5,-89 335.5,-53 490.5,-53 490.5,-89"/>
<text text-anchor="middle" x="413" y="-67.3" font-family="Times,serif" font-size="14.00">gridstatevectorfileio_mod</text>
</a>
</g>
</g>
<!-- fsoi_mod&#45;&gt;gridstatevectorfileio_mod -->
<g id="edge8" class="edge">
<title>fsoi_mod&#45;&gt;gridstatevectorfileio_mod</title>
<path fill="none" stroke="black" d="M600.93,-641.47C549.38,-633.91 455.09,-617.16 432,-593 404.05,-563.76 413,-544.45 413,-504 413,-504 413,-504 413,-214 413,-174 413,-127.65 413,-99.08"/>
<polygon fill="black" stroke="black" points="416.5,-99.05 413,-89.05 409.5,-99.05 416.5,-99.05"/>
</g>
<!-- gridstatevector_mod -->
<g id="node10" class="node">
<title>gridstatevector_mod</title>
<g id="a_node10"><a xlink:href="../modules/gridstatevector_mod.svg" xlink:title="gridstatevector_mod">
<polygon fill="none" stroke="red" points="568.5,-593 441.5,-593 441.5,-557 568.5,-557 568.5,-593"/>
<text text-anchor="middle" x="505" y="-571.3" font-family="Times,serif" font-size="14.00">gridstatevector_mod</text>
</a>
</g>
</g>
<!-- fsoi_mod&#45;&gt;gridstatevector_mod -->
<g id="edge9" class="edge">
<title>fsoi_mod&#45;&gt;gridstatevector_mod</title>
<path fill="none" stroke="black" d="M603.2,-628.88C585.89,-619.55 564.28,-607.92 545.74,-597.94"/>
<polygon fill="black" stroke="black" points="547.39,-594.85 536.92,-593.19 544.07,-601.01 547.39,-594.85"/>
</g>
<!-- horizontalcoord_mod -->
<g id="node11" class="node">
<title>horizontalcoord_mod</title>
<g id="a_node11"><a xlink:href="../modules/horizontalcoord_mod.svg" xlink:title="horizontalcoord_mod">
<polygon fill="none" stroke="red" points="606.5,-521 473.5,-521 473.5,-485 606.5,-485 606.5,-521"/>
<text text-anchor="middle" x="540" y="-499.3" font-family="Times,serif" font-size="14.00">horizontalcoord_mod</text>
</a>
</g>
</g>
<!-- fsoi_mod&#45;&gt;horizontalcoord_mod -->
<g id="edge10" class="edge">
<title>fsoi_mod&#45;&gt;horizontalcoord_mod</title>
<path fill="none" stroke="black" d="M624.04,-628.83C612.5,-610.83 593.71,-581.77 577,-557 570.88,-547.93 564.06,-538.08 557.95,-529.36"/>
<polygon fill="black" stroke="black" points="560.75,-527.26 552.14,-521.09 555.02,-531.28 560.75,-527.26"/>
</g>
<!-- mathphysconstants_mod -->
<g id="node12" class="node">
<title>mathphysconstants_mod</title>
<g id="a_node12"><a xlink:href="mathphysconstants_mod.html" xlink:title="mathphysconstants_mod">
<polygon fill="gray" stroke="black" points="645,-449 495,-449 495,-413 645,-413 645,-449"/>
<text text-anchor="middle" x="570" y="-427.3" font-family="Times,serif" font-size="14.00">mathphysconstants_mod</text>
</a>
</g>
</g>
<!-- fsoi_mod&#45;&gt;mathphysconstants_mod -->
<g id="edge11" class="edge">
<title>fsoi_mod&#45;&gt;mathphysconstants_mod</title>
<path fill="none" stroke="black" d="M636.01,-628.7C637.1,-598.27 636.4,-533.74 615,-485 610.51,-474.78 603.4,-465.03 596.14,-456.74"/>
<polygon fill="black" stroke="black" points="598.58,-454.23 589.21,-449.28 593.45,-458.99 598.58,-454.23"/>
</g>
<!-- midasmpi_mod -->
<g id="node13" class="node">
<title>midasmpi_mod</title>
<g id="a_node13"><a xlink:href="../modules/midasmpi_mod.svg" xlink:title="midasmpi_mod">
<polygon fill="none" stroke="red" points="682.5,-377 581.5,-377 581.5,-341 682.5,-341 682.5,-377"/>
<text text-anchor="middle" x="632" y="-355.3" font-family="Times,serif" font-size="14.00">midasmpi_mod</text>
</a>
</g>
</g>
<!-- fsoi_mod&#45;&gt;midasmpi_mod -->
<g id="edge12" class="edge">
<title>fsoi_mod&#45;&gt;midasmpi_mod</title>
<path fill="none" stroke="black" d="M640.67,-628.54C643.72,-618.3 647.22,-605.05 649,-593 660.68,-513.83 669.64,-491.49 654,-413 652.21,-404.01 648.86,-394.64 645.31,-386.32"/>
<polygon fill="black" stroke="black" points="648.46,-384.77 641.13,-377.12 642.08,-387.67 648.46,-384.77"/>
</g>
<!-- obsoperators_mod -->
<g id="node14" class="node">
<title>obsoperators_mod</title>
<g id="a_node14"><a xlink:href="../modules/obsoperators_mod.svg" xlink:title="obsoperators_mod">
<polygon fill="none" stroke="red" points="721,-305 605,-305 605,-269 721,-269 721,-305"/>
<text text-anchor="middle" x="663" y="-283.3" font-family="Times,serif" font-size="14.00">obsoperators_mod</text>
</a>
</g>
</g>
<!-- fsoi_mod&#45;&gt;obsoperators_mod -->
<g id="edge13" class="edge">
<title>fsoi_mod&#45;&gt;obsoperators_mod</title>
<path fill="none" stroke="black" d="M651.49,-628.77C673.84,-603.53 711,-554.05 711,-504 711,-504 711,-504 711,-430 711,-389.46 705.04,-379.03 691,-341 687.65,-331.92 683.04,-322.44 678.52,-314.06"/>
<polygon fill="black" stroke="black" points="681.47,-312.15 673.54,-305.13 675.36,-315.57 681.47,-312.15"/>
</g>
<!-- obsspacedata_mod -->
<g id="node15" class="node">
<title>obsspacedata_mod</title>
<g id="a_node15"><a xlink:href="../modules/obsspacedata_mod.svg" xlink:title="obsspacedata_mod">
<polygon fill="none" stroke="red" points="759,-233 641,-233 641,-197 759,-197 759,-233"/>
<text text-anchor="middle" x="700" y="-211.3" font-family="Times,serif" font-size="14.00">obsspacedata_mod</text>
</a>
</g>
</g>
<!-- fsoi_mod&#45;&gt;obsspacedata_mod -->
<g id="edge14" class="edge">
<title>fsoi_mod&#45;&gt;obsspacedata_mod</title>
<path fill="none" stroke="black" d="M662.02,-628.96C695.73,-605.37 749,-559.33 749,-504 749,-504 749,-504 749,-358 749,-317.55 744.35,-306.82 730,-269 726.47,-259.71 721.49,-250.09 716.6,-241.65"/>
<polygon fill="black" stroke="black" points="719.56,-239.77 711.4,-233.01 713.56,-243.38 719.56,-239.77"/>
</g>
<!-- quasinewton_mod -->
<g id="node16" class="node">
<title>quasinewton_mod</title>
<g id="a_node16"><a xlink:href="../modules/quasinewton_mod.svg" xlink:title="quasinewton_mod">
<polygon fill="none" stroke="red" points="797,-161 681,-161 681,-125 797,-125 797,-161"/>
<text text-anchor="middle" x="739" y="-139.3" font-family="Times,serif" font-size="14.00">quasinewton_mod</text>
</a>
</g>
</g>
<!-- fsoi_mod&#45;&gt;quasinewton_mod -->
<g id="edge15" class="edge">
<title>fsoi_mod&#45;&gt;quasinewton_mod</title>
<path fill="none" stroke="black" d="M669.11,-632.21C713.93,-611.58 787,-568.1 787,-504 787,-504 787,-504 787,-286 787,-245.55 782.08,-234.92 768,-197 764.6,-187.86 759.85,-178.36 755.17,-169.98"/>
<polygon fill="black" stroke="black" points="758.04,-167.95 750,-161.06 751.99,-171.47 758.04,-167.95"/>
</g>
<!-- rmatrix_mod -->
<g id="node17" class="node">
<title>rmatrix_mod</title>
<g id="a_node17"><a xlink:href="../modules/rmatrix_mod.svg" xlink:title="rmatrix_mod">
<polygon fill="none" stroke="red" points="868.5,-89 781.5,-89 781.5,-53 868.5,-53 868.5,-89"/>
<text text-anchor="middle" x="825" y="-67.3" font-family="Times,serif" font-size="14.00">rmatrix_mod</text>
</a>
</g>
</g>
<!-- fsoi_mod&#45;&gt;rmatrix_mod -->
<g id="edge16" class="edge">
<title>fsoi_mod&#45;&gt;rmatrix_mod</title>
<path fill="none" stroke="black" d="M669.41,-637.27C724.16,-621.07 825,-580.8 825,-504 825,-504 825,-504 825,-214 825,-174 825,-127.65 825,-99.08"/>
<polygon fill="black" stroke="black" points="828.5,-99.05 825,-89.05 821.5,-99.05 828.5,-99.05"/>
</g>
<!-- statetocolumn_mod -->
<g id="node18" class="node">
<title>statetocolumn_mod</title>
<g id="a_node18"><a xlink:href="../modules/statetocolumn_mod.svg" xlink:title="statetocolumn_mod">
<polygon fill="none" stroke="red" points="977,-593 853,-593 853,-557 977,-557 977,-593"/>
<text text-anchor="middle" x="915" y="-571.3" font-family="Times,serif" font-size="14.00">statetocolumn_mod</text>
</a>
</g>
</g>
<!-- fsoi_mod&#45;&gt;statetocolumn_mod -->
<g id="edge17" class="edge">
<title>fsoi_mod&#45;&gt;statetocolumn_mod</title>
<path fill="none" stroke="black" d="M669.05,-637.49C712.02,-626.75 787.04,-607.99 842.97,-594.01"/>
<polygon fill="black" stroke="black" points="843.97,-597.37 852.82,-591.54 842.27,-590.57 843.97,-597.37"/>
</g>
<!-- timecoord_mod -->
<g id="node19" class="node">
<title>timecoord_mod</title>
<g id="a_node19"><a xlink:href="../modules/timecoord_mod.svg" xlink:title="timecoord_mod">
<polygon fill="none" stroke="red" points="1015,-521 913,-521 913,-485 1015,-485 1015,-521"/>
<text text-anchor="middle" x="964" y="-499.3" font-family="Times,serif" font-size="14.00">timecoord_mod</text>
</a>
</g>
</g>
<!-- fsoi_mod&#45;&gt;timecoord_mod -->
<g id="edge18" class="edge">
<title>fsoi_mod&#45;&gt;timecoord_mod</title>
<path fill="none" stroke="black" d="M669.25,-646.22C749.37,-645.93 945.3,-640.3 986,-593 1001.05,-575.5 991.99,-549.26 981.3,-529.81"/>
<polygon fill="black" stroke="black" points="984.29,-527.97 976.19,-521.13 978.25,-531.53 984.29,-527.97"/>
</g>
<!-- tovs_nl_mod -->
<g id="node20" class="node">
<title>tovs_nl_mod</title>
<g id="a_node20"><a xlink:href="../modules/tovs_nl_mod.svg" xlink:title="tovs_nl_mod">
<polygon fill="none" stroke="red" points="1069.5,-449 982.5,-449 982.5,-413 1069.5,-413 1069.5,-449"/>
<text text-anchor="middle" x="1026" y="-427.3" font-family="Times,serif" font-size="14.00">tovs_nl_mod</text>
</a>
</g>
</g>
<!-- fsoi_mod&#45;&gt;tovs_nl_mod -->
<g id="edge19" class="edge">
<title>fsoi_mod&#45;&gt;tovs_nl_mod</title>
<path fill="none" stroke="black" d="M669.25,-645.71C751.05,-644.31 954.61,-636.43 1004,-593 1041.5,-560.02 1037.66,-495.67 1031.72,-459.1"/>
<polygon fill="black" stroke="black" points="1035.14,-458.36 1029.94,-449.14 1028.25,-459.6 1035.14,-458.36"/>
</g>
<!-- utilities_mod -->
<g id="node21" class="node">
<title>utilities_mod</title>
<g id="a_node21"><a xlink:href="../modules/utilities_mod.svg" xlink:title="utilities_mod">
<polygon fill="none" stroke="red" points="1142,-377 1054,-377 1054,-341 1142,-341 1142,-377"/>
<text text-anchor="middle" x="1098" y="-355.3" font-family="Times,serif" font-size="14.00">utilities_mod</text>
</a>
</g>
</g>
<!-- fsoi_mod&#45;&gt;utilities_mod -->
<g id="edge20" class="edge">
<title>fsoi_mod&#45;&gt;utilities_mod</title>
<path fill="none" stroke="black" d="M669.28,-645.91C754.93,-645 975.36,-638.21 1030,-593 1092.03,-541.68 1099.35,-437.19 1099.07,-387.47"/>
<polygon fill="black" stroke="black" points="1102.56,-387.12 1098.89,-377.18 1095.56,-387.24 1102.56,-387.12"/>
</g>
<!-- verticalcoord_mod -->
<g id="node22" class="node">
<title>verticalcoord_mod</title>
<g id="a_node22"><a xlink:href="../modules/verticalcoord_mod.svg" xlink:title="verticalcoord_mod">
<polygon fill="none" stroke="red" points="1229,-305 1111,-305 1111,-269 1229,-269 1229,-305"/>
<text text-anchor="middle" x="1170" y="-283.3" font-family="Times,serif" font-size="14.00">verticalcoord_mod</text>
</a>
</g>
</g>
<!-- fsoi_mod&#45;&gt;verticalcoord_mod -->
<g id="edge21" class="edge">
<title>fsoi_mod&#45;&gt;verticalcoord_mod</title>
<path fill="none" stroke="black" d="M669.24,-644.15C757.27,-639.03 989.52,-622.98 1060,-593 1117.87,-568.39 1170,-566.89 1170,-504 1170,-504 1170,-504 1170,-430 1170,-390 1170,-343.65 1170,-315.08"/>
<polygon fill="black" stroke="black" points="1173.5,-315.05 1170,-305.05 1166.5,-315.05 1173.5,-315.05"/>
</g>
</g>
</svg>
