<?xml version="1.0" encoding="UTF-8" standalone="no"?>
<!DOCTYPE svg PUBLIC "-//W3C//DTD SVG 1.1//EN"
 "http://www.w3.org/Graphics/SVG/1.1/DTD/svg11.dtd">
<!-- Generated by graphviz version 3.0.0 (20220315.2325)
 -->
<!-- Title: getgridposition_mod Pages: 1 -->
<svg width="430pt" height="241pt"
 viewBox="0.00 0.00 430.00 241.00" xmlns="http://www.w3.org/2000/svg" xmlns:xlink="http://www.w3.org/1999/xlink">
<g id="graph0" class="graph" transform="scale(1 1) rotate(0) translate(4 237)">
<title>getgridposition_mod</title>
<polygon fill="white" stroke="transparent" points="-4,4 -4,-237 426,-237 426,4 -4,4"/>
<text text-anchor="middle" x="211" y="-217.8" font-family="Times,serif" font-size="14.00">Blue boxes indicate modules with reverse dependencies not shown</text>
<text text-anchor="middle" x="211" y="-202.8" font-family="Times,serif" font-size="14.00">Higher level reverse dependencies can be shown by clicking on a blue box</text>
<text text-anchor="middle" x="211" y="-187.8" font-family="Times,serif" font-size="14.00">Green boxes are programs</text>
<!-- getgridposition_mod -->
<g id="node1" class="node">
<title>getgridposition_mod</title>
<g id="a_node1"><a xlink:href="getgridposition_mod.html" xlink:title="getgridposition_mod">
<polygon fill="none" stroke="black" points="278.5,-36 149.5,-36 149.5,0 278.5,0 278.5,-36"/>
<text text-anchor="middle" x="214" y="-14.3" font-family="Times,serif" font-size="14.00">getgridposition_mod</text>
</a>
</g>
</g>
<!-- slantprofilelatlon_mod -->
<g id="node2" class="node">
<title>slantprofilelatlon_mod</title>
<g id="a_node2"><a xlink:href="../modules/slantprofilelatlon_mod_rev.svg" xlink:title="slantprofilelatlon_mod">
<polygon fill="none" stroke="blue" points="235,-108 97,-108 97,-72 235,-72 235,-108"/>
<text text-anchor="middle" x="166" y="-86.3" font-family="Times,serif" font-size="14.00">slantprofilelatlon_mod</text>
</a>
</g>
</g>
<!-- slantprofilelatlon_mod&#45;&gt;getgridposition_mod -->
<g id="edge1" class="edge">
<title>slantprofilelatlon_mod&#45;&gt;getgridposition_mod</title>
<path fill="none" stroke="black" d="M182.43,-65.03C188.95,-55.52 196.31,-44.8 202.27,-36.1"/>
<ellipse fill="black" stroke="black" cx="180.13" cy="-68.4" rx="4" ry="4"/>
</g>
<!-- statetocolumn_mod -->
<g id="node3" class="node">
<title>statetocolumn_mod</title>
<g id="a_node3"><a xlink:href="../modules/statetocolumn_mod_rev.svg" xlink:title="statetocolumn_mod">
<polygon fill="none" stroke="blue" points="325,-180 201,-180 201,-144 325,-144 325,-180"/>
<text text-anchor="middle" x="263" y="-158.3" font-family="Times,serif" font-size="14.00">statetocolumn_mod</text>
</a>
</g>
</g>
<!-- statetocolumn_mod&#45;&gt;getgridposition_mod -->
<g id="edge2" class="edge">
<title>statetocolumn_mod&#45;&gt;getgridposition_mod</title>
<path fill="none" stroke="black" d="M259.67,-135.51C256.8,-117.39 251.85,-92.69 244,-72 239.2,-59.35 231.7,-46.1 225.4,-36.01"/>
<ellipse fill="black" stroke="black" cx="260.32" cy="-139.87" rx="4" ry="4"/>
</g>
</g>
</svg>
