<?xml version="1.0" encoding="UTF-8" standalone="no"?>
<!DOCTYPE svg PUBLIC "-//W3C//DTD SVG 1.1//EN"
 "http://www.w3.org/Graphics/SVG/1.1/DTD/svg11.dtd">
<!-- Generated by graphviz version 3.0.0 (20220315.2325)
 -->
<!-- Title: getgridposition_mod Pages: 1 -->
<svg width="379pt" height="385pt"
 viewBox="0.00 0.00 379.00 385.00" xmlns="http://www.w3.org/2000/svg" xmlns:xlink="http://www.w3.org/1999/xlink">
<g id="graph0" class="graph" transform="scale(1 1) rotate(0) translate(4 381)">
<title>getgridposition_mod</title>
<polygon fill="white" stroke="transparent" points="-4,4 -4,-381 375,-381 375,4 -4,4"/>
<text text-anchor="middle" x="185.5" y="-37.8" font-family="Times,serif" font-size="14.00">Red boxes indicate modules with dependencies not shown</text>
<text text-anchor="middle" x="185.5" y="-22.8" font-family="Times,serif" font-size="14.00">Lower level dependencies can be shown by clicking on a red box</text>
<text text-anchor="middle" x="185.5" y="-7.8" font-family="Times,serif" font-size="14.00">Shaded boxes indicate modules with no dependencies</text>
<!-- getgridposition_mod -->
<g id="node1" class="node">
<title>getgridposition_mod</title>
<g id="a_node1"><a xlink:href="getgridposition_mod.html" xlink:title="getgridposition_mod">
<polygon fill="none" stroke="black" points="250,-377 121,-377 121,-341 250,-341 250,-377"/>
<text text-anchor="middle" x="185.5" y="-355.3" font-family="Times,serif" font-size="14.00">getgridposition_mod</text>
</a>
</g>
</g>
<!-- kdtree2_mod -->
<g id="node2" class="node">
<title>kdtree2_mod</title>
<g id="a_node2"><a xlink:href="../modules/kdtree2_mod.svg" xlink:title="kdtree2_mod">
<polygon fill="none" stroke="red" points="106.5,-305 18.5,-305 18.5,-269 106.5,-269 106.5,-305"/>
<text text-anchor="middle" x="62.5" y="-283.3" font-family="Times,serif" font-size="14.00">kdtree2_mod</text>
</a>
</g>
</g>
<!-- getgridposition_mod&#45;&gt;kdtree2_mod -->
<g id="edge1" class="edge">
<title>getgridposition_mod&#45;&gt;kdtree2_mod</title>
<path fill="none" stroke="black" d="M155.41,-340.88C139.18,-331.64 118.96,-320.13 101.53,-310.21"/>
<polygon fill="black" stroke="black" points="103.13,-307.09 92.7,-305.19 99.66,-313.18 103.13,-307.09"/>
</g>
<!-- mathphysconstants_mod -->
<g id="node3" class="node">
<title>mathphysconstants_mod</title>
<g id="a_node3"><a xlink:href="mathphysconstants_mod.html" xlink:title="mathphysconstants_mod">
<polygon fill="gray" stroke="black" points="183.5,-233 33.5,-233 33.5,-197 183.5,-197 183.5,-233"/>
<text text-anchor="middle" x="108.5" y="-211.3" font-family="Times,serif" font-size="14.00">mathphysconstants_mod</text>
</a>
</g>
</g>
<!-- getgridposition_mod&#45;&gt;mathphysconstants_mod -->
<g id="edge2" class="edge">
<title>getgridposition_mod&#45;&gt;mathphysconstants_mod</title>
<path fill="none" stroke="black" d="M176.21,-340.87C162.92,-316.35 138.34,-271.03 122.74,-242.26"/>
<polygon fill="black" stroke="black" points="125.66,-240.31 117.82,-233.19 119.51,-243.65 125.66,-240.31"/>
</g>
<!-- physicsfunctions_mod -->
<g id="node4" class="node">
<title>physicsfunctions_mod</title>
<g id="a_node4"><a xlink:href="../modules/physicsfunctions_mod.svg" xlink:title="physicsfunctions_mod">
<polygon fill="none" stroke="red" points="280.5,-161 142.5,-161 142.5,-125 280.5,-125 280.5,-161"/>
<text text-anchor="middle" x="211.5" y="-139.3" font-family="Times,serif" font-size="14.00">physicsfunctions_mod</text>
</a>
</g>
</g>
<!-- getgridposition_mod&#45;&gt;physicsfunctions_mod -->
<g id="edge3" class="edge">
<title>getgridposition_mod&#45;&gt;physicsfunctions_mod</title>
<path fill="none" stroke="black" d="M187.58,-340.85C192.08,-303.83 202.73,-216.18 208.17,-171.39"/>
<polygon fill="black" stroke="black" points="211.67,-171.58 209.41,-161.23 204.73,-170.74 211.67,-171.58"/>
</g>
<!-- utilities_mod -->
<g id="node5" class="node">
<title>utilities_mod</title>
<g id="a_node5"><a xlink:href="../modules/utilities_mod.svg" xlink:title="utilities_mod">
<polygon fill="none" stroke="red" points="352.5,-89 264.5,-89 264.5,-53 352.5,-53 352.5,-89"/>
<text text-anchor="middle" x="308.5" y="-67.3" font-family="Times,serif" font-size="14.00">utilities_mod</text>
</a>
</g>
</g>
<!-- getgridposition_mod&#45;&gt;utilities_mod -->
<g id="edge4" class="edge">
<title>getgridposition_mod&#45;&gt;utilities_mod</title>
<path fill="none" stroke="black" d="M196.67,-340.83C217.86,-307.51 264.04,-231.17 289.5,-161 296.81,-140.86 301.71,-117.08 304.7,-99.17"/>
<polygon fill="black" stroke="black" points="308.18,-99.54 306.28,-89.12 301.26,-98.45 308.18,-99.54"/>
</g>
</g>
</svg>
