<?xml version="1.0" encoding="UTF-8" standalone="no"?>
<!DOCTYPE svg PUBLIC "-//W3C//DTD SVG 1.1//EN"
 "http://www.w3.org/Graphics/SVG/1.1/DTD/svg11.dtd">
<!-- Generated by graphviz version 3.0.0 (20220315.2325)
 -->
<!-- Title: globalspectraltransform_mod Pages: 1 -->
<svg width="416pt" height="457pt"
 viewBox="0.00 0.00 416.00 457.00" xmlns="http://www.w3.org/2000/svg" xmlns:xlink="http://www.w3.org/1999/xlink">
<g id="graph0" class="graph" transform="scale(1 1) rotate(0) translate(4 453)">
<title>globalspectraltransform_mod</title>
<polygon fill="white" stroke="transparent" points="-4,4 -4,-453 412,-453 412,4 -4,4"/>
<text text-anchor="middle" x="204" y="-37.8" font-family="Times,serif" font-size="14.00">Red boxes indicate modules with dependencies not shown</text>
<text text-anchor="middle" x="204" y="-22.8" font-family="Times,serif" font-size="14.00">Lower level dependencies can be shown by clicking on a red box</text>
<text text-anchor="middle" x="204" y="-7.8" font-family="Times,serif" font-size="14.00">Shaded boxes indicate modules with no dependencies</text>
<!-- globalspectraltransform_mod -->
<g id="node1" class="node">
<title>globalspectraltransform_mod</title>
<g id="a_node1"><a xlink:href="globalspectraltransform_mod.html" xlink:title="globalspectraltransform_mod">
<polygon fill="none" stroke="black" points="302,-449 126,-449 126,-413 302,-413 302,-449"/>
<text text-anchor="middle" x="214" y="-427.3" font-family="Times,serif" font-size="14.00">globalspectraltransform_mod</text>
</a>
</g>
</g>
<!-- codeprecision_mod -->
<g id="node2" class="node">
<title>codeprecision_mod</title>
<g id="a_node2"><a xlink:href="codeprecision_mod.html" xlink:title="codeprecision_mod">
<polygon fill="gray" stroke="black" points="122,-377 0,-377 0,-341 122,-341 122,-377"/>
<text text-anchor="middle" x="61" y="-355.3" font-family="Times,serif" font-size="14.00">codeprecision_mod</text>
</a>
</g>
</g>
<!-- globalspectraltransform_mod&#45;&gt;codeprecision_mod -->
<g id="edge1" class="edge">
<title>globalspectraltransform_mod&#45;&gt;codeprecision_mod</title>
<path fill="none" stroke="black" d="M176.57,-412.88C155.75,-403.35 129.65,-391.41 107.52,-381.28"/>
<polygon fill="black" stroke="black" points="108.86,-378.05 98.31,-377.07 105.94,-384.41 108.86,-378.05"/>
</g>
<!-- earthconstants_mod -->
<g id="node3" class="node">
<title>earthconstants_mod</title>
<g id="a_node3"><a xlink:href="../modules/earthconstants_mod.svg" xlink:title="earthconstants_mod">
<polygon fill="none" stroke="red" points="185.5,-305 60.5,-305 60.5,-269 185.5,-269 185.5,-305"/>
<text text-anchor="middle" x="123" y="-283.3" font-family="Times,serif" font-size="14.00">earthconstants_mod</text>
</a>
</g>
</g>
<!-- globalspectraltransform_mod&#45;&gt;earthconstants_mod -->
<g id="edge2" class="edge">
<title>globalspectraltransform_mod&#45;&gt;earthconstants_mod</title>
<path fill="none" stroke="black" d="M203.02,-412.87C187.24,-388.24 158.01,-342.64 139.59,-313.88"/>
<polygon fill="black" stroke="black" points="142.36,-311.72 134.02,-305.19 136.46,-315.5 142.36,-311.72"/>
</g>
<!-- mathphysconstants_mod -->
<g id="node4" class="node">
<title>mathphysconstants_mod</title>
<g id="a_node4"><a xlink:href="mathphysconstants_mod.html" xlink:title="mathphysconstants_mod">
<polygon fill="gray" stroke="black" points="257,-233 107,-233 107,-197 257,-197 257,-233"/>
<text text-anchor="middle" x="182" y="-211.3" font-family="Times,serif" font-size="14.00">mathphysconstants_mod</text>
</a>
</g>
</g>
<!-- globalspectraltransform_mod&#45;&gt;mathphysconstants_mod -->
<g id="edge3" class="edge">
<title>globalspectraltransform_mod&#45;&gt;mathphysconstants_mod</title>
<path fill="none" stroke="black" d="M212.45,-413C209.63,-383.54 203.12,-321.16 194,-269 192.51,-260.51 190.56,-251.32 188.66,-243.02"/>
<polygon fill="black" stroke="black" points="192.02,-242.03 186.32,-233.1 185.21,-243.64 192.02,-242.03"/>
</g>
<!-- midasmpi_mod -->
<g id="node5" class="node">
<title>midasmpi_mod</title>
<g id="a_node5"><a xlink:href="../modules/midasmpi_mod.svg" xlink:title="midasmpi_mod">
<polygon fill="none" stroke="red" points="335.5,-161 234.5,-161 234.5,-125 335.5,-125 335.5,-161"/>
<text text-anchor="middle" x="285" y="-139.3" font-family="Times,serif" font-size="14.00">midasmpi_mod</text>
</a>
</g>
</g>
<!-- globalspectraltransform_mod&#45;&gt;midasmpi_mod -->
<g id="edge4" class="edge">
<title>globalspectraltransform_mod&#45;&gt;midasmpi_mod</title>
<path fill="none" stroke="black" d="M218.8,-412.94C228.31,-378.87 250.03,-299.92 266,-233 270.92,-212.38 275.9,-188.93 279.53,-171.28"/>
<polygon fill="black" stroke="black" points="283.03,-171.61 281.6,-161.12 276.17,-170.22 283.03,-171.61"/>
</g>
<!-- utilities_mod -->
<g id="node6" class="node">
<title>utilities_mod</title>
<g id="a_node6"><a xlink:href="../modules/utilities_mod.svg" xlink:title="utilities_mod">
<polygon fill="none" stroke="red" points="408,-89 320,-89 320,-53 408,-53 408,-89"/>
<text text-anchor="middle" x="364" y="-67.3" font-family="Times,serif" font-size="14.00">utilities_mod</text>
</a>
</g>
</g>
<!-- globalspectraltransform_mod&#45;&gt;utilities_mod -->
<g id="edge5" class="edge">
<title>globalspectraltransform_mod&#45;&gt;utilities_mod</title>
<path fill="none" stroke="black" d="M254.2,-412.94C298.63,-391.08 364,-348.6 364,-288 364,-288 364,-288 364,-214 364,-174 364,-127.65 364,-99.08"/>
<polygon fill="black" stroke="black" points="367.5,-99.05 364,-89.05 360.5,-99.05 367.5,-99.05"/>
</g>
</g>
</svg>
