<?xml version="1.0" encoding="UTF-8" standalone="no"?>
<!DOCTYPE svg PUBLIC "-//W3C//DTD SVG 1.1//EN"
 "http://www.w3.org/Graphics/SVG/1.1/DTD/svg11.dtd">
<!-- Generated by graphviz version 3.0.0 (20220315.2325)
 -->
<!-- Title: globalspectraltransform_mod Pages: 1 -->
<svg width="567pt" height="601pt"
 viewBox="0.00 0.00 567.00 601.00" xmlns="http://www.w3.org/2000/svg" xmlns:xlink="http://www.w3.org/1999/xlink">
<g id="graph0" class="graph" transform="scale(1 1) rotate(0) translate(4 597)">
<title>globalspectraltransform_mod</title>
<polygon fill="white" stroke="transparent" points="-4,4 -4,-597 563,-597 563,4 -4,4"/>
<text text-anchor="middle" x="279.5" y="-577.8" font-family="Times,serif" font-size="14.00">Blue boxes indicate modules with reverse dependencies not shown</text>
<text text-anchor="middle" x="279.5" y="-562.8" font-family="Times,serif" font-size="14.00">Higher level reverse dependencies can be shown by clicking on a blue box</text>
<text text-anchor="middle" x="279.5" y="-547.8" font-family="Times,serif" font-size="14.00">Green boxes are programs</text>
<!-- globalspectraltransform_mod -->
<g id="node1" class="node">
<title>globalspectraltransform_mod</title>
<g id="a_node1"><a xlink:href="globalspectraltransform_mod.html" xlink:title="globalspectraltransform_mod">
<polygon fill="none" stroke="black" points="359,-36 183,-36 183,0 359,0 359,-36"/>
<text text-anchor="middle" x="271" y="-14.3" font-family="Times,serif" font-size="14.00">globalspectraltransform_mod</text>
</a>
</g>
</g>
<!-- bcovarsetupchem_mod -->
<g id="node2" class="node">
<title>bcovarsetupchem_mod</title>
<g id="a_node2"><a xlink:href="../modules/bcovarsetupchem_mod_rev.svg" xlink:title="bcovarsetupchem_mod">
<polygon fill="none" stroke="blue" points="142,-108 0,-108 0,-72 142,-72 142,-108"/>
<text text-anchor="middle" x="71" y="-86.3" font-family="Times,serif" font-size="14.00">bcovarsetupchem_mod</text>
</a>
</g>
</g>
<!-- bcovarsetupchem_mod&#45;&gt;globalspectraltransform_mod -->
<g id="edge1" class="edge">
<title>bcovarsetupchem_mod&#45;&gt;globalspectraltransform_mod</title>
<path fill="none" stroke="black" d="M127.5,-69.23C157.31,-58.79 193.52,-46.12 222.11,-36.11"/>
<ellipse fill="black" stroke="black" cx="123.45" cy="-70.64" rx="4" ry="4"/>
</g>
<!-- bmatrixchem_mod -->
<g id="node3" class="node">
<title>bmatrixchem_mod</title>
<g id="a_node3"><a xlink:href="../modules/bmatrixchem_mod_rev.svg" xlink:title="bmatrixchem_mod">
<polygon fill="none" stroke="blue" points="204.5,-180 85.5,-180 85.5,-144 204.5,-144 204.5,-180"/>
<text text-anchor="middle" x="145" y="-158.3" font-family="Times,serif" font-size="14.00">bmatrixchem_mod</text>
</a>
</g>
</g>
<!-- bmatrixchem_mod&#45;&gt;globalspectraltransform_mod -->
<g id="edge2" class="edge">
<title>bmatrixchem_mod&#45;&gt;globalspectraltransform_mod</title>
<path fill="none" stroke="black" d="M163.6,-137.57C178.27,-119.36 199.44,-93.65 219,-72 230.06,-59.76 243.06,-46.51 253.3,-36.32"/>
<ellipse fill="black" stroke="black" cx="161.01" cy="-140.8" rx="4" ry="4"/>
</g>
<!-- bmatrixensemble_mod -->
<g id="node4" class="node">
<title>bmatrixensemble_mod</title>
<g id="a_node4"><a xlink:href="../modules/bmatrixensemble_mod_rev.svg" xlink:title="bmatrixensemble_mod">
<polygon fill="none" stroke="blue" points="243,-252 103,-252 103,-216 243,-216 243,-252"/>
<text text-anchor="middle" x="173" y="-230.3" font-family="Times,serif" font-size="14.00">bmatrixensemble_mod</text>
</a>
</g>
</g>
<!-- bmatrixensemble_mod&#45;&gt;globalspectraltransform_mod -->
<g id="edge3" class="edge">
<title>bmatrixensemble_mod&#45;&gt;globalspectraltransform_mod</title>
<path fill="none" stroke="black" d="M193.26,-209.34C200.15,-200.53 207.49,-190.18 213,-180 239.73,-130.62 258.61,-66.4 266.65,-36.16"/>
<ellipse fill="black" stroke="black" cx="190.62" cy="-212.64" rx="4" ry="4"/>
</g>
<!-- bmatrixhi_mod -->
<g id="node5" class="node">
<title>bmatrixhi_mod</title>
<g id="a_node5"><a xlink:href="../modules/bmatrixhi_mod_rev.svg" xlink:title="bmatrixhi_mod">
<polygon fill="none" stroke="blue" points="281,-324 181,-324 181,-288 281,-288 281,-324"/>
<text text-anchor="middle" x="231" y="-302.3" font-family="Times,serif" font-size="14.00">bmatrixhi_mod</text>
</a>
</g>
</g>
<!-- bmatrixhi_mod&#45;&gt;globalspectraltransform_mod -->
<g id="edge4" class="edge">
<title>bmatrixhi_mod&#45;&gt;globalspectraltransform_mod</title>
<path fill="none" stroke="black" d="M242.6,-280.15C246.2,-271.43 249.8,-261.45 252,-252 270.45,-172.95 271.67,-75.21 271.32,-36.22"/>
<ellipse fill="black" stroke="black" cx="240.92" cy="-284.08" rx="4" ry="4"/>
</g>
<!-- calcstatsglb_mod -->
<g id="node6" class="node">
<title>calcstatsglb_mod</title>
<g id="a_node6"><a xlink:href="../modules/calcstatsglb_mod_rev.svg" xlink:title="calcstatsglb_mod">
<polygon fill="none" stroke="blue" points="342,-396 232,-396 232,-360 342,-360 342,-396"/>
<text text-anchor="middle" x="287" y="-374.3" font-family="Times,serif" font-size="14.00">calcstatsglb_mod</text>
</a>
</g>
</g>
<!-- calcstatsglb_mod&#45;&gt;globalspectraltransform_mod -->
<g id="edge5" class="edge">
<title>calcstatsglb_mod&#45;&gt;globalspectraltransform_mod</title>
<path fill="none" stroke="black" d="M293.37,-351.5C299.87,-323.22 309,-276.15 309,-235 309,-235 309,-235 309,-161 309,-114.55 289.79,-62.38 278.69,-36.09"/>
<ellipse fill="black" stroke="black" cx="292.37" cy="-355.75" rx="4" ry="4"/>
</g>
<!-- gridvariabletransforms_mod -->
<g id="node7" class="node">
<title>gridvariabletransforms_mod</title>
<g id="a_node7"><a xlink:href="../modules/gridvariabletransforms_mod_rev.svg" xlink:title="gridvariabletransforms_mod">
<polygon fill="none" stroke="blue" points="455,-468 285,-468 285,-432 455,-432 455,-468"/>
<text text-anchor="middle" x="370" y="-446.3" font-family="Times,serif" font-size="14.00">gridvariabletransforms_mod</text>
</a>
</g>
</g>
<!-- gridvariabletransforms_mod&#45;&gt;globalspectraltransform_mod -->
<g id="edge6" class="edge">
<title>gridvariabletransforms_mod&#45;&gt;globalspectraltransform_mod</title>
<path fill="none" stroke="black" d="M370,-423.78C370,-395.39 370,-347.89 370,-307 370,-307 370,-307 370,-161 370,-107.81 322.67,-60.29 293.46,-36.03"/>
<ellipse fill="black" stroke="black" cx="370" cy="-427.95" rx="4" ry="4"/>
</g>
<!-- localizationspectral_mod -->
<g id="node8" class="node">
<title>localizationspectral_mod</title>
<g id="a_node8"><a xlink:href="../modules/localizationspectral_mod_rev.svg" xlink:title="localizationspectral_mod">
<polygon fill="none" stroke="blue" points="559,-540 407,-540 407,-504 559,-504 559,-540"/>
<text text-anchor="middle" x="483" y="-518.3" font-family="Times,serif" font-size="14.00">localizationspectral_mod</text>
</a>
</g>
</g>
<!-- localizationspectral_mod&#45;&gt;globalspectraltransform_mod -->
<g id="edge7" class="edge">
<title>localizationspectral_mod&#45;&gt;globalspectraltransform_mod</title>
<path fill="none" stroke="black" d="M483,-495.78C483,-467.39 483,-419.89 483,-379 483,-379 483,-379 483,-161 483,-92.67 406.03,-55.13 344.85,-36.08"/>
<ellipse fill="black" stroke="black" cx="483" cy="-499.95" rx="4" ry="4"/>
</g>
</g>
</svg>
