<?xml version="1.0" encoding="UTF-8" standalone="no"?>
<!DOCTYPE svg PUBLIC "-//W3C//DTD SVG 1.1//EN"
 "http://www.w3.org/Graphics/SVG/1.1/DTD/svg11.dtd">
<!-- Generated by graphviz version 3.0.0 (20220315.2325)
 -->
<!-- Title: gps_mod Pages: 1 -->
<svg width="550pt" height="601pt"
 viewBox="0.00 0.00 550.00 601.00" xmlns="http://www.w3.org/2000/svg" xmlns:xlink="http://www.w3.org/1999/xlink">
<g id="graph0" class="graph" transform="scale(1 1) rotate(0) translate(4 597)">
<title>gps_mod</title>
<polygon fill="white" stroke="transparent" points="-4,4 -4,-597 546,-597 546,4 -4,4"/>
<text text-anchor="middle" x="271" y="-577.8" font-family="Times,serif" font-size="14.00">Blue boxes indicate modules with reverse dependencies not shown</text>
<text text-anchor="middle" x="271" y="-562.8" font-family="Times,serif" font-size="14.00">Higher level reverse dependencies can be shown by clicking on a blue box</text>
<text text-anchor="middle" x="271" y="-547.8" font-family="Times,serif" font-size="14.00">Green boxes are programs</text>
<!-- gps_mod -->
<g id="node1" class="node">
<title>gps_mod</title>
<g id="a_node1"><a xlink:href="gps_mod.html" xlink:title="gps_mod">
<polygon fill="none" stroke="black" points="316.5,-36 250.5,-36 250.5,0 316.5,0 316.5,-36"/>
<text text-anchor="middle" x="283.5" y="-14.3" font-family="Times,serif" font-size="14.00">gps_mod</text>
</a>
</g>
</g>
<!-- backgroundcheck_mod -->
<g id="node2" class="node">
<title>backgroundcheck_mod</title>
<g id="a_node2"><a xlink:href="../modules/backgroundcheck_mod_rev.svg" xlink:title="backgroundcheck_mod">
<polygon fill="none" stroke="blue" points="143,-108 0,-108 0,-72 143,-72 143,-108"/>
<text text-anchor="middle" x="71.5" y="-86.3" font-family="Times,serif" font-size="14.00">backgroundcheck_mod</text>
</a>
</g>
</g>
<!-- backgroundcheck_mod&#45;&gt;gps_mod -->
<g id="edge1" class="edge">
<title>backgroundcheck_mod&#45;&gt;gps_mod</title>
<path fill="none" stroke="black" d="M131.15,-69.3C169.7,-56.58 218.42,-40.49 250.25,-29.98"/>
<ellipse fill="black" stroke="black" cx="126.89" cy="-70.71" rx="4" ry="4"/>
</g>
<!-- calcheightandpressure_mod -->
<g id="node3" class="node">
<title>calcheightandpressure_mod</title>
<g id="a_node3"><a xlink:href="../modules/calcheightandpressure_mod_rev.svg" xlink:title="calcheightandpressure_mod">
<polygon fill="none" stroke="blue" points="218,-180 51,-180 51,-144 218,-144 218,-180"/>
<text text-anchor="middle" x="134.5" y="-158.3" font-family="Times,serif" font-size="14.00">calcheightandpressure_mod</text>
</a>
</g>
</g>
<!-- calcheightandpressure_mod&#45;&gt;gps_mod -->
<g id="edge2" class="edge">
<title>calcheightandpressure_mod&#45;&gt;gps_mod</title>
<path fill="none" stroke="black" d="M158.52,-138.11C188.39,-109.65 238.69,-61.71 265.46,-36.19"/>
<ellipse fill="black" stroke="black" cx="155.37" cy="-141.11" rx="4" ry="4"/>
</g>
<!-- innovation_mod -->
<g id="node4" class="node">
<title>innovation_mod</title>
<g id="a_node4"><a xlink:href="../modules/innovation_mod_rev.svg" xlink:title="innovation_mod">
<polygon fill="none" stroke="blue" points="255.5,-252 151.5,-252 151.5,-216 255.5,-216 255.5,-252"/>
<text text-anchor="middle" x="203.5" y="-230.3" font-family="Times,serif" font-size="14.00">innovation_mod</text>
</a>
</g>
</g>
<!-- innovation_mod&#45;&gt;gps_mod -->
<g id="edge3" class="edge">
<title>innovation_mod&#45;&gt;gps_mod</title>
<path fill="none" stroke="black" d="M214.56,-208.49C218.47,-199.57 222.81,-189.39 226.5,-180 246.91,-128.13 268.08,-65.61 277.89,-36.06"/>
<ellipse fill="black" stroke="black" cx="212.88" cy="-212.28" rx="4" ry="4"/>
</g>
<!-- obserrors_mod -->
<g id="node5" class="node">
<title>obserrors_mod</title>
<g id="a_node5"><a xlink:href="../modules/obserrors_mod_rev.svg" xlink:title="obserrors_mod">
<polygon fill="none" stroke="blue" points="293.5,-324 195.5,-324 195.5,-288 293.5,-288 293.5,-324"/>
<text text-anchor="middle" x="244.5" y="-302.3" font-family="Times,serif" font-size="14.00">obserrors_mod</text>
</a>
</g>
</g>
<!-- obserrors_mod&#45;&gt;gps_mod -->
<g id="edge4" class="edge">
<title>obserrors_mod&#45;&gt;gps_mod</title>
<path fill="none" stroke="black" d="M255.54,-280.1C258.96,-271.37 262.39,-261.4 264.5,-252 282.3,-172.8 283.88,-75.14 283.73,-36.2"/>
<ellipse fill="black" stroke="black" cx="253.94" cy="-284.01" rx="4" ry="4"/>
</g>
<!-- obsfilter_mod -->
<g id="node6" class="node">
<title>obsfilter_mod</title>
<g id="a_node6"><a xlink:href="../modules/obsfilter_mod_rev.svg" xlink:title="obsfilter_mod">
<polygon fill="none" stroke="blue" points="349.5,-396 257.5,-396 257.5,-360 349.5,-360 349.5,-396"/>
<text text-anchor="middle" x="303.5" y="-374.3" font-family="Times,serif" font-size="14.00">obsfilter_mod</text>
</a>
</g>
</g>
<!-- obsfilter_mod&#45;&gt;gps_mod -->
<g id="edge5" class="edge">
<title>obsfilter_mod&#45;&gt;gps_mod</title>
<path fill="none" stroke="black" d="M308.71,-351.44C314.03,-323.1 321.5,-275.99 321.5,-235 321.5,-235 321.5,-235 321.5,-161 321.5,-114.55 302.29,-62.38 291.19,-36.09"/>
<ellipse fill="black" stroke="black" cx="307.9" cy="-355.67" rx="4" ry="4"/>
</g>
<!-- obsoperators_mod -->
<g id="node7" class="node">
<title>obsoperators_mod</title>
<g id="a_node7"><a xlink:href="../modules/obsoperators_mod_rev.svg" xlink:title="obsoperators_mod">
<polygon fill="none" stroke="blue" points="435.5,-468 319.5,-468 319.5,-432 435.5,-432 435.5,-468"/>
<text text-anchor="middle" x="377.5" y="-446.3" font-family="Times,serif" font-size="14.00">obsoperators_mod</text>
</a>
</g>
</g>
<!-- obsoperators_mod&#45;&gt;gps_mod -->
<g id="edge6" class="edge">
<title>obsoperators_mod&#45;&gt;gps_mod</title>
<path fill="none" stroke="black" d="M377.5,-423.78C377.5,-395.39 377.5,-347.89 377.5,-307 377.5,-307 377.5,-307 377.5,-161 377.5,-108.67 332.56,-60.82 304.83,-36.27"/>
<ellipse fill="black" stroke="black" cx="377.5" cy="-427.95" rx="4" ry="4"/>
</g>
<!-- obsspaceerrorstddev_mod -->
<g id="node8" class="node">
<title>obsspaceerrorstddev_mod</title>
<g id="a_node8"><a xlink:href="../modules/obsspaceerrorstddev_mod_rev.svg" xlink:title="obsspaceerrorstddev_mod">
<polygon fill="none" stroke="blue" points="542,-540 385,-540 385,-504 542,-504 542,-540"/>
<text text-anchor="middle" x="463.5" y="-518.3" font-family="Times,serif" font-size="14.00">obsspaceerrorstddev_mod</text>
</a>
</g>
</g>
<!-- obsspaceerrorstddev_mod&#45;&gt;gps_mod -->
<g id="edge7" class="edge">
<title>obsspaceerrorstddev_mod&#45;&gt;gps_mod</title>
<path fill="none" stroke="black" d="M463.5,-495.78C463.5,-467.39 463.5,-419.89 463.5,-379 463.5,-379 463.5,-379 463.5,-161 463.5,-86.97 368.48,-45.55 316.51,-28.44"/>
<ellipse fill="black" stroke="black" cx="463.5" cy="-499.95" rx="4" ry="4"/>
</g>
</g>
</svg>
