<?xml version="1.0" encoding="UTF-8" standalone="no"?>
<!DOCTYPE svg PUBLIC "-//W3C//DTD SVG 1.1//EN"
 "http://www.w3.org/Graphics/SVG/1.1/DTD/svg11.dtd">
<!-- Generated by graphviz version 3.0.0 (20220315.2325)
 -->
<!-- Title: gps_mod Pages: 1 -->
<svg width="379pt" height="385pt"
 viewBox="0.00 0.00 379.00 385.00" xmlns="http://www.w3.org/2000/svg" xmlns:xlink="http://www.w3.org/1999/xlink">
<g id="graph0" class="graph" transform="scale(1 1) rotate(0) translate(4 381)">
<title>gps_mod</title>
<polygon fill="white" stroke="transparent" points="-4,4 -4,-381 375,-381 375,4 -4,4"/>
<text text-anchor="middle" x="185.5" y="-37.8" font-family="Times,serif" font-size="14.00">Red boxes indicate modules with dependencies not shown</text>
<text text-anchor="middle" x="185.5" y="-22.8" font-family="Times,serif" font-size="14.00">Lower level dependencies can be shown by clicking on a red box</text>
<text text-anchor="middle" x="185.5" y="-7.8" font-family="Times,serif" font-size="14.00">Shaded boxes indicate modules with no dependencies</text>
<!-- gps_mod -->
<g id="node1" class="node">
<title>gps_mod</title>
<g id="a_node1"><a xlink:href="gps_mod.html" xlink:title="gps_mod">
<polygon fill="none" stroke="black" points="246.25,-377 180.25,-377 180.25,-341 246.25,-341 246.25,-377"/>
<text text-anchor="middle" x="213.25" y="-355.3" font-family="Times,serif" font-size="14.00">gps_mod</text>
</a>
</g>
</g>
<!-- earthconstants_mod -->
<g id="node2" class="node">
<title>earthconstants_mod</title>
<g id="a_node2"><a xlink:href="../modules/earthconstants_mod.svg" xlink:title="earthconstants_mod">
<polygon fill="none" stroke="red" points="133.75,-305 8.75,-305 8.75,-269 133.75,-269 133.75,-305"/>
<text text-anchor="middle" x="71.25" y="-283.3" font-family="Times,serif" font-size="14.00">earthconstants_mod</text>
</a>
</g>
</g>
<!-- gps_mod&#45;&gt;earthconstants_mod -->
<g id="edge1" class="edge">
<title>gps_mod&#45;&gt;earthconstants_mod</title>
<path fill="none" stroke="black" d="M179.96,-341.59C160.53,-332.01 135.81,-319.82 114.85,-309.49"/>
<polygon fill="black" stroke="black" points="116.33,-306.32 105.82,-305.04 113.24,-312.6 116.33,-306.32"/>
</g>
<!-- mathphysconstants_mod -->
<g id="node3" class="node">
<title>mathphysconstants_mod</title>
<g id="a_node3"><a xlink:href="mathphysconstants_mod.html" xlink:title="mathphysconstants_mod">
<polygon fill="gray" stroke="black" points="211.25,-233 61.25,-233 61.25,-197 211.25,-197 211.25,-233"/>
<text text-anchor="middle" x="136.25" y="-211.3" font-family="Times,serif" font-size="14.00">mathphysconstants_mod</text>
</a>
</g>
</g>
<!-- gps_mod&#45;&gt;mathphysconstants_mod -->
<g id="edge2" class="edge">
<title>gps_mod&#45;&gt;mathphysconstants_mod</title>
<path fill="none" stroke="black" d="M203.96,-340.87C190.67,-316.35 166.09,-271.03 150.49,-242.26"/>
<polygon fill="black" stroke="black" points="153.41,-240.31 145.57,-233.19 147.26,-243.65 153.41,-240.31"/>
</g>
<!-- midasmpi_mod -->
<g id="node4" class="node">
<title>midasmpi_mod</title>
<g id="a_node4"><a xlink:href="../modules/midasmpi_mod.svg" xlink:title="midasmpi_mod">
<polygon fill="none" stroke="red" points="289.75,-161 188.75,-161 188.75,-125 289.75,-125 289.75,-161"/>
<text text-anchor="middle" x="239.25" y="-139.3" font-family="Times,serif" font-size="14.00">midasmpi_mod</text>
</a>
</g>
</g>
<!-- gps_mod&#45;&gt;midasmpi_mod -->
<g id="edge3" class="edge">
<title>gps_mod&#45;&gt;midasmpi_mod</title>
<path fill="none" stroke="black" d="M215.33,-340.85C219.83,-303.83 230.48,-216.18 235.92,-171.39"/>
<polygon fill="black" stroke="black" points="239.42,-171.58 237.16,-161.23 232.48,-170.74 239.42,-171.58"/>
</g>
<!-- utilities_mod -->
<g id="node5" class="node">
<title>utilities_mod</title>
<g id="a_node5"><a xlink:href="../modules/utilities_mod.svg" xlink:title="utilities_mod">
<polygon fill="none" stroke="red" points="362.25,-89 274.25,-89 274.25,-53 362.25,-53 362.25,-89"/>
<text text-anchor="middle" x="318.25" y="-67.3" font-family="Times,serif" font-size="14.00">utilities_mod</text>
</a>
</g>
</g>
<!-- gps_mod&#45;&gt;utilities_mod -->
<g id="edge4" class="edge">
<title>gps_mod&#45;&gt;utilities_mod</title>
<path fill="none" stroke="black" d="M222.17,-340.8C239.33,-307.12 277.15,-229.75 299.25,-161 305.77,-140.73 310.69,-117.13 313.89,-99.33"/>
<polygon fill="black" stroke="black" points="317.36,-99.78 315.61,-89.33 310.46,-98.59 317.36,-99.78"/>
</g>
</g>
</svg>
