<?xml version="1.0" encoding="UTF-8" standalone="no"?>
<!DOCTYPE svg PUBLIC "-//W3C//DTD SVG 1.1//EN"
 "http://www.w3.org/Graphics/SVG/1.1/DTD/svg11.dtd">
<!-- Generated by graphviz version 3.0.0 (20220315.2325)
 -->
<!-- Title: gridstatevectorfileio_mod Pages: 1 -->
<svg width="768pt" height="673pt"
 viewBox="0.00 0.00 768.00 673.00" xmlns="http://www.w3.org/2000/svg" xmlns:xlink="http://www.w3.org/1999/xlink">
<g id="graph0" class="graph" transform="scale(1 1) rotate(0) translate(4 669)">
<title>gridstatevectorfileio_mod</title>
<polygon fill="white" stroke="transparent" points="-4,4 -4,-669 764,-669 764,4 -4,4"/>
<text text-anchor="middle" x="380" y="-37.8" font-family="Times,serif" font-size="14.00">Red boxes indicate modules with dependencies not shown</text>
<text text-anchor="middle" x="380" y="-22.8" font-family="Times,serif" font-size="14.00">Lower level dependencies can be shown by clicking on a red box</text>
<text text-anchor="middle" x="380" y="-7.8" font-family="Times,serif" font-size="14.00">Shaded boxes indicate modules with no dependencies</text>
<!-- gridstatevectorfileio_mod -->
<g id="node1" class="node">
<title>gridstatevectorfileio_mod</title>
<g id="a_node1"><a xlink:href="gridstatevectorfileio_mod.html" xlink:title="gridstatevectorfileio_mod">
<polygon fill="none" stroke="black" points="425.5,-665 270.5,-665 270.5,-629 425.5,-629 425.5,-665"/>
<text text-anchor="middle" x="348" y="-643.3" font-family="Times,serif" font-size="14.00">gridstatevectorfileio_mod</text>
</a>
</g>
</g>
<!-- codeprecision_mod -->
<g id="node2" class="node">
<title>codeprecision_mod</title>
<g id="a_node2"><a xlink:href="codeprecision_mod.html" xlink:title="codeprecision_mod">
<polygon fill="gray" stroke="black" points="122,-593 0,-593 0,-557 122,-557 122,-593"/>
<text text-anchor="middle" x="61" y="-571.3" font-family="Times,serif" font-size="14.00">codeprecision_mod</text>
</a>
</g>
</g>
<!-- gridstatevectorfileio_mod&#45;&gt;codeprecision_mod -->
<g id="edge1" class="edge">
<title>gridstatevectorfileio_mod&#45;&gt;codeprecision_mod</title>
<path fill="none" stroke="black" d="M278.16,-628.97C233.89,-618.17 176.78,-604.24 132.24,-593.38"/>
<polygon fill="black" stroke="black" points="132.91,-589.94 122.36,-590.97 131.25,-596.74 132.91,-589.94"/>
</g>
<!-- gridstatevector_mod -->
<g id="node3" class="node">
<title>gridstatevector_mod</title>
<g id="a_node3"><a xlink:href="../modules/gridstatevector_mod.svg" xlink:title="gridstatevector_mod">
<polygon fill="none" stroke="red" points="186.5,-521 59.5,-521 59.5,-485 186.5,-485 186.5,-521"/>
<text text-anchor="middle" x="123" y="-499.3" font-family="Times,serif" font-size="14.00">gridstatevector_mod</text>
</a>
</g>
</g>
<!-- gridstatevectorfileio_mod&#45;&gt;gridstatevector_mod -->
<g id="edge2" class="edge">
<title>gridstatevectorfileio_mod&#45;&gt;gridstatevector_mod</title>
<path fill="none" stroke="black" d="M278.72,-628.95C252.94,-620.63 224.31,-608.9 201,-593 176.01,-575.96 153.97,-549.08 139.75,-529.32"/>
<polygon fill="black" stroke="black" points="142.57,-527.25 133.96,-521.07 136.84,-531.27 142.57,-527.25"/>
</g>
<!-- horizontalcoord_mod -->
<g id="node4" class="node">
<title>horizontalcoord_mod</title>
<g id="a_node4"><a xlink:href="../modules/horizontalcoord_mod.svg" xlink:title="horizontalcoord_mod">
<polygon fill="none" stroke="red" points="224.5,-449 91.5,-449 91.5,-413 224.5,-413 224.5,-449"/>
<text text-anchor="middle" x="158" y="-427.3" font-family="Times,serif" font-size="14.00">horizontalcoord_mod</text>
</a>
</g>
</g>
<!-- gridstatevectorfileio_mod&#45;&gt;horizontalcoord_mod -->
<g id="edge3" class="edge">
<title>gridstatevectorfileio_mod&#45;&gt;horizontalcoord_mod</title>
<path fill="none" stroke="black" d="M293.89,-628.91C274.55,-620.6 253.89,-608.9 239,-593 203.57,-555.17 219.77,-530.53 195,-485 189.85,-475.54 183.36,-465.72 177.26,-457.14"/>
<polygon fill="black" stroke="black" points="180.07,-455.06 171.35,-449.04 174.42,-459.18 180.07,-455.06"/>
</g>
<!-- interpolation_mod -->
<g id="node5" class="node">
<title>interpolation_mod</title>
<g id="a_node5"><a xlink:href="../modules/interpolation_mod.svg" xlink:title="interpolation_mod">
<polygon fill="none" stroke="red" points="263,-377 147,-377 147,-341 263,-341 263,-377"/>
<text text-anchor="middle" x="205" y="-355.3" font-family="Times,serif" font-size="14.00">interpolation_mod</text>
</a>
</g>
</g>
<!-- gridstatevectorfileio_mod&#45;&gt;interpolation_mod -->
<g id="edge4" class="edge">
<title>gridstatevectorfileio_mod&#45;&gt;interpolation_mod</title>
<path fill="none" stroke="black" d="M316,-628.9C302.08,-619.94 286.76,-607.75 277,-593 231.55,-524.32 262.23,-489.99 233,-413 229.56,-403.95 224.93,-394.48 220.42,-386.09"/>
<polygon fill="black" stroke="black" points="223.37,-384.2 215.45,-377.16 217.25,-387.6 223.37,-384.2"/>
</g>
<!-- mathphysconstants_mod -->
<g id="node6" class="node">
<title>mathphysconstants_mod</title>
<g id="a_node6"><a xlink:href="mathphysconstants_mod.html" xlink:title="mathphysconstants_mod">
<polygon fill="gray" stroke="black" points="301,-305 151,-305 151,-269 301,-269 301,-305"/>
<text text-anchor="middle" x="226" y="-283.3" font-family="Times,serif" font-size="14.00">mathphysconstants_mod</text>
</a>
</g>
</g>
<!-- gridstatevectorfileio_mod&#45;&gt;mathphysconstants_mod -->
<g id="edge5" class="edge">
<title>gridstatevectorfileio_mod&#45;&gt;mathphysconstants_mod</title>
<path fill="none" stroke="black" d="M335.33,-628.57C328.53,-618.56 320.45,-605.52 315,-593 298.66,-555.43 291,-544.97 291,-504 291,-504 291,-504 291,-430 291,-389.55 290.05,-377.2 272,-341 266.97,-330.92 259.58,-321.21 252.18,-312.91"/>
<polygon fill="black" stroke="black" points="254.56,-310.33 245.16,-305.43 249.45,-315.12 254.56,-310.33"/>
</g>
<!-- midasmpi_mod -->
<g id="node7" class="node">
<title>midasmpi_mod</title>
<g id="a_node7"><a xlink:href="../modules/midasmpi_mod.svg" xlink:title="midasmpi_mod">
<polygon fill="none" stroke="red" points="338.5,-233 237.5,-233 237.5,-197 338.5,-197 338.5,-233"/>
<text text-anchor="middle" x="288" y="-211.3" font-family="Times,serif" font-size="14.00">midasmpi_mod</text>
</a>
</g>
</g>
<!-- gridstatevectorfileio_mod&#45;&gt;midasmpi_mod -->
<g id="edge6" class="edge">
<title>gridstatevectorfileio_mod&#45;&gt;midasmpi_mod</title>
<path fill="none" stroke="black" d="M344.16,-628.61C338.6,-601.94 329,-549.27 329,-504 329,-504 329,-504 329,-358 329,-316.41 312.56,-270.56 300.5,-242.51"/>
<polygon fill="black" stroke="black" points="303.55,-240.75 296.3,-233.03 297.15,-243.59 303.55,-240.75"/>
</g>
<!-- oceanmask_mod -->
<g id="node8" class="node">
<title>oceanmask_mod</title>
<g id="a_node8"><a xlink:href="../modules/oceanmask_mod.svg" xlink:title="oceanmask_mod">
<polygon fill="none" stroke="red" points="376.5,-161 269.5,-161 269.5,-125 376.5,-125 376.5,-161"/>
<text text-anchor="middle" x="323" y="-139.3" font-family="Times,serif" font-size="14.00">oceanmask_mod</text>
</a>
</g>
</g>
<!-- gridstatevectorfileio_mod&#45;&gt;oceanmask_mod -->
<g id="edge7" class="edge">
<title>gridstatevectorfileio_mod&#45;&gt;oceanmask_mod</title>
<path fill="none" stroke="black" d="M351.84,-628.61C357.4,-601.94 367,-549.27 367,-504 367,-504 367,-504 367,-286 367,-244.21 349.4,-198.48 336.46,-170.51"/>
<polygon fill="black" stroke="black" points="339.58,-168.92 332.12,-161.39 333.26,-171.93 339.58,-168.92"/>
</g>
<!-- ramdisk_mod -->
<g id="node9" class="node">
<title>ramdisk_mod</title>
<g id="a_node9"><a xlink:href="../modules/ramdisk_mod.svg" xlink:title="ramdisk_mod">
<polygon fill="none" stroke="red" points="450.5,-89 359.5,-89 359.5,-53 450.5,-53 450.5,-89"/>
<text text-anchor="middle" x="405" y="-67.3" font-family="Times,serif" font-size="14.00">ramdisk_mod</text>
</a>
</g>
</g>
<!-- gridstatevectorfileio_mod&#45;&gt;ramdisk_mod -->
<g id="edge8" class="edge">
<title>gridstatevectorfileio_mod&#45;&gt;ramdisk_mod</title>
<path fill="none" stroke="black" d="M359.81,-628.96C376.51,-603.16 405,-552.08 405,-504 405,-504 405,-504 405,-214 405,-174 405,-127.65 405,-99.08"/>
<polygon fill="black" stroke="black" points="408.5,-99.05 405,-89.05 401.5,-99.05 408.5,-99.05"/>
</g>
<!-- timecoord_mod -->
<g id="node10" class="node">
<title>timecoord_mod</title>
<g id="a_node10"><a xlink:href="../modules/timecoord_mod.svg" xlink:title="timecoord_mod">
<polygon fill="none" stroke="red" points="535,-593 433,-593 433,-557 535,-557 535,-593"/>
<text text-anchor="middle" x="484" y="-571.3" font-family="Times,serif" font-size="14.00">timecoord_mod</text>
</a>
</g>
</g>
<!-- gridstatevectorfileio_mod&#45;&gt;timecoord_mod -->
<g id="edge9" class="edge">
<title>gridstatevectorfileio_mod&#45;&gt;timecoord_mod</title>
<path fill="none" stroke="black" d="M381.27,-628.88C399.46,-619.51 422.19,-607.81 441.64,-597.8"/>
<polygon fill="black" stroke="black" points="443.31,-600.88 450.6,-593.19 440.11,-594.65 443.31,-600.88"/>
</g>
<!-- utilities_mod -->
<g id="node11" class="node">
<title>utilities_mod</title>
<g id="a_node11"><a xlink:href="../modules/utilities_mod.svg" xlink:title="utilities_mod">
<polygon fill="none" stroke="red" points="590,-521 502,-521 502,-485 590,-485 590,-521"/>
<text text-anchor="middle" x="546" y="-499.3" font-family="Times,serif" font-size="14.00">utilities_mod</text>
</a>
</g>
</g>
<!-- gridstatevectorfileio_mod&#45;&gt;utilities_mod -->
<g id="edge10" class="edge">
<title>gridstatevectorfileio_mod&#45;&gt;utilities_mod</title>
<path fill="none" stroke="black" d="M425.5,-634.71C473.62,-625.95 529.05,-612.08 544,-593 557.51,-575.75 556.67,-550.32 553.23,-531.05"/>
<polygon fill="black" stroke="black" points="556.62,-530.14 551.13,-521.07 549.77,-531.58 556.62,-530.14"/>
</g>
<!-- varnamelist_mod -->
<g id="node12" class="node">
<title>varnamelist_mod</title>
<g id="a_node12"><a xlink:href="../modules/varnamelist_mod.svg" xlink:title="varnamelist_mod">
<polygon fill="none" stroke="red" points="673,-449 563,-449 563,-413 673,-413 673,-449"/>
<text text-anchor="middle" x="618" y="-427.3" font-family="Times,serif" font-size="14.00">varnamelist_mod</text>
</a>
</g>
</g>
<!-- gridstatevectorfileio_mod&#45;&gt;varnamelist_mod -->
<g id="edge11" class="edge">
<title>gridstatevectorfileio_mod&#45;&gt;varnamelist_mod</title>
<path fill="none" stroke="black" d="M425.61,-642.98C470.29,-637.62 525.1,-624.42 564,-593 604.42,-560.35 614.78,-496.33 617.31,-459.62"/>
<polygon fill="black" stroke="black" points="620.83,-459.34 617.87,-449.17 613.84,-458.97 620.83,-459.34"/>
</g>
<!-- verticalcoord_mod -->
<g id="node13" class="node">
<title>verticalcoord_mod</title>
<g id="a_node13"><a xlink:href="../modules/verticalcoord_mod.svg" xlink:title="verticalcoord_mod">
<polygon fill="none" stroke="red" points="760,-377 642,-377 642,-341 760,-341 760,-377"/>
<text text-anchor="middle" x="701" y="-355.3" font-family="Times,serif" font-size="14.00">verticalcoord_mod</text>
</a>
</g>
</g>
<!-- gridstatevectorfileio_mod&#45;&gt;verticalcoord_mod -->
<g id="edge12" class="edge">
<title>gridstatevectorfileio_mod&#45;&gt;verticalcoord_mod</title>
<path fill="none" stroke="black" d="M425.76,-644.62C477.32,-640.21 544.22,-627.47 593,-593 662.88,-543.62 688.68,-437.33 697.22,-387.21"/>
<polygon fill="black" stroke="black" points="700.71,-387.55 698.83,-377.13 693.8,-386.45 700.71,-387.55"/>
</g>
</g>
</svg>
