<?xml version="1.0" encoding="UTF-8" standalone="no"?>
<!DOCTYPE svg PUBLIC "-//W3C//DTD SVG 1.1//EN"
 "http://www.w3.org/Graphics/SVG/1.1/DTD/svg11.dtd">
<!-- Generated by graphviz version 3.0.0 (20220315.2325)
 -->
<!-- Title: gridvariabletransforms_mod Pages: 1 -->
<svg width="1056pt" height="673pt"
 viewBox="0.00 0.00 1055.50 673.00" xmlns="http://www.w3.org/2000/svg" xmlns:xlink="http://www.w3.org/1999/xlink">
<g id="graph0" class="graph" transform="scale(1 1) rotate(0) translate(4 669)">
<title>gridvariabletransforms_mod</title>
<polygon fill="white" stroke="transparent" points="-4,4 -4,-669 1051.5,-669 1051.5,4 -4,4"/>
<text text-anchor="middle" x="523.75" y="-37.8" font-family="Times,serif" font-size="14.00">Red boxes indicate modules with dependencies not shown</text>
<text text-anchor="middle" x="523.75" y="-22.8" font-family="Times,serif" font-size="14.00">Lower level dependencies can be shown by clicking on a red box</text>
<text text-anchor="middle" x="523.75" y="-7.8" font-family="Times,serif" font-size="14.00">Shaded boxes indicate modules with no dependencies</text>
<!-- gridvariabletransforms_mod -->
<g id="node1" class="node">
<title>gridvariabletransforms_mod</title>
<g id="a_node1"><a xlink:href="gridvariabletransforms_mod.html" xlink:title="gridvariabletransforms_mod">
<polygon fill="none" stroke="black" points="631.5,-665 461.5,-665 461.5,-629 631.5,-629 631.5,-665"/>
<text text-anchor="middle" x="546.5" y="-643.3" font-family="Times,serif" font-size="14.00">gridvariabletransforms_mod</text>
</a>
</g>
</g>
<!-- analysisgrid_mod -->
<g id="node2" class="node">
<title>analysisgrid_mod</title>
<g id="a_node2"><a xlink:href="../modules/analysisgrid_mod.svg" xlink:title="analysisgrid_mod">
<polygon fill="none" stroke="red" points="111,-593 0,-593 0,-557 111,-557 111,-593"/>
<text text-anchor="middle" x="55.5" y="-571.3" font-family="Times,serif" font-size="14.00">analysisgrid_mod</text>
</a>
</g>
</g>
<!-- gridvariabletransforms_mod&#45;&gt;analysisgrid_mod -->
<g id="edge1" class="edge">
<title>gridvariabletransforms_mod&#45;&gt;analysisgrid_mod</title>
<path fill="none" stroke="black" d="M461.4,-638.14C376.05,-629.58 241.06,-614.24 125.5,-593 124.04,-592.73 122.56,-592.45 121.08,-592.16"/>
<polygon fill="black" stroke="black" points="121.66,-588.71 111.16,-590.12 120.25,-595.56 121.66,-588.71"/>
</g>
<!-- calcheightandpressure_mod -->
<g id="node3" class="node">
<title>calcheightandpressure_mod</title>
<g id="a_node3"><a xlink:href="../modules/calcheightandpressure_mod.svg" xlink:title="calcheightandpressure_mod">
<polygon fill="none" stroke="red" points="187,-521 20,-521 20,-485 187,-485 187,-521"/>
<text text-anchor="middle" x="103.5" y="-499.3" font-family="Times,serif" font-size="14.00">calcheightandpressure_mod</text>
</a>
</g>
</g>
<!-- gridvariabletransforms_mod&#45;&gt;calcheightandpressure_mod -->
<g id="edge2" class="edge">
<title>gridvariabletransforms_mod&#45;&gt;calcheightandpressure_mod</title>
<path fill="none" stroke="black" d="M461.17,-638.66C374,-630.14 245.29,-614.48 200.5,-593 169.39,-578.08 141.24,-549.81 123.38,-529.12"/>
<polygon fill="black" stroke="black" points="125.94,-526.73 116.83,-521.33 120.58,-531.24 125.94,-526.73"/>
</g>
<!-- codeprecision_mod -->
<g id="node4" class="node">
<title>codeprecision_mod</title>
<g id="a_node4"><a xlink:href="codeprecision_mod.html" xlink:title="codeprecision_mod">
<polygon fill="gray" stroke="black" points="224.5,-449 102.5,-449 102.5,-413 224.5,-413 224.5,-449"/>
<text text-anchor="middle" x="163.5" y="-427.3" font-family="Times,serif" font-size="14.00">codeprecision_mod</text>
</a>
</g>
</g>
<!-- gridvariabletransforms_mod&#45;&gt;codeprecision_mod -->
<g id="edge3" class="edge">
<title>gridvariabletransforms_mod&#45;&gt;codeprecision_mod</title>
<path fill="none" stroke="black" d="M461.41,-640.61C382.36,-633.98 271.96,-620.12 238.5,-593 198.36,-560.47 218.48,-531.27 195.5,-485 191.01,-475.95 185.5,-466.4 180.33,-457.94"/>
<polygon fill="black" stroke="black" points="183.17,-455.89 174.91,-449.26 177.23,-459.6 183.17,-455.89"/>
</g>
<!-- earthconstants_mod -->
<g id="node5" class="node">
<title>earthconstants_mod</title>
<g id="a_node5"><a xlink:href="../modules/earthconstants_mod.svg" xlink:title="earthconstants_mod">
<polygon fill="none" stroke="red" points="262,-377 137,-377 137,-341 262,-341 262,-377"/>
<text text-anchor="middle" x="199.5" y="-355.3" font-family="Times,serif" font-size="14.00">earthconstants_mod</text>
</a>
</g>
</g>
<!-- gridvariabletransforms_mod&#45;&gt;earthconstants_mod -->
<g id="edge4" class="edge">
<title>gridvariabletransforms_mod&#45;&gt;earthconstants_mod</title>
<path fill="none" stroke="black" d="M461.31,-639.24C392.37,-632.02 302.6,-618.06 276.5,-593 217.17,-536.03 265.71,-488.68 233.5,-413 229.5,-403.59 223.88,-393.99 218.36,-385.58"/>
<polygon fill="black" stroke="black" points="221.25,-383.6 212.72,-377.32 215.47,-387.55 221.25,-383.6"/>
</g>
<!-- ensemblestatevector_mod -->
<g id="node6" class="node">
<title>ensemblestatevector_mod</title>
<g id="a_node6"><a xlink:href="../modules/ensemblestatevector_mod.svg" xlink:title="ensemblestatevector_mod">
<polygon fill="none" stroke="red" points="300.5,-305 144.5,-305 144.5,-269 300.5,-269 300.5,-305"/>
<text text-anchor="middle" x="222.5" y="-283.3" font-family="Times,serif" font-size="14.00">ensemblestatevector_mod</text>
</a>
</g>
</g>
<!-- gridvariabletransforms_mod&#45;&gt;ensemblestatevector_mod -->
<g id="edge5" class="edge">
<title>gridvariabletransforms_mod&#45;&gt;ensemblestatevector_mod</title>
<path fill="none" stroke="black" d="M461.43,-635.84C404.22,-627.32 335.57,-613.26 314.5,-593 284.97,-564.6 290.5,-544.97 290.5,-504 290.5,-504 290.5,-504 290.5,-430 290.5,-389.46 289.17,-376.99 270.5,-341 265.16,-330.71 257.33,-320.87 249.53,-312.52"/>
<polygon fill="black" stroke="black" points="251.96,-310 242.45,-305.31 246.96,-314.9 251.96,-310"/>
</g>
<!-- globalspectraltransform_mod -->
<g id="node7" class="node">
<title>globalspectraltransform_mod</title>
<g id="a_node7"><a xlink:href="../modules/globalspectraltransform_mod.svg" xlink:title="globalspectraltransform_mod">
<polygon fill="none" stroke="red" points="338.5,-233 162.5,-233 162.5,-197 338.5,-197 338.5,-233"/>
<text text-anchor="middle" x="250.5" y="-211.3" font-family="Times,serif" font-size="14.00">globalspectraltransform_mod</text>
</a>
</g>
</g>
<!-- gridvariabletransforms_mod&#45;&gt;globalspectraltransform_mod -->
<g id="edge6" class="edge">
<title>gridvariabletransforms_mod&#45;&gt;globalspectraltransform_mod</title>
<path fill="none" stroke="black" d="M461.06,-641.44C423.24,-635.14 380.97,-621.56 352.5,-593 323.58,-563.98 328.5,-544.97 328.5,-504 328.5,-504 328.5,-504 328.5,-358 328.5,-317.55 329.76,-304.01 309.5,-269 303.09,-257.92 293.55,-247.9 284.01,-239.63"/>
<polygon fill="black" stroke="black" points="286.01,-236.74 276.05,-233.11 281.57,-242.15 286.01,-236.74"/>
</g>
<!-- gridstatevectorfileio_mod -->
<g id="node8" class="node">
<title>gridstatevectorfileio_mod</title>
<g id="a_node8"><a xlink:href="../modules/gridstatevectorfileio_mod.svg" xlink:title="gridstatevectorfileio_mod">
<polygon fill="none" stroke="red" points="376,-161 221,-161 221,-125 376,-125 376,-161"/>
<text text-anchor="middle" x="298.5" y="-139.3" font-family="Times,serif" font-size="14.00">gridstatevectorfileio_mod</text>
</a>
</g>
</g>
<!-- gridvariabletransforms_mod&#45;&gt;gridstatevectorfileio_mod -->
<g id="edge7" class="edge">
<title>gridvariabletransforms_mod&#45;&gt;gridstatevectorfileio_mod</title>
<path fill="none" stroke="black" d="M461.47,-633.12C435.64,-625.36 409.19,-612.92 390.5,-593 362.47,-563.12 366.5,-544.97 366.5,-504 366.5,-504 366.5,-504 366.5,-286 366.5,-245.55 366.12,-232.91 347.5,-197 342.11,-186.61 334.13,-176.74 326.17,-168.41"/>
<polygon fill="black" stroke="black" points="328.49,-165.78 318.94,-161.21 323.56,-170.74 328.49,-165.78"/>
</g>
<!-- gridstatevector_mod -->
<g id="node9" class="node">
<title>gridstatevector_mod</title>
<g id="a_node9"><a xlink:href="../modules/gridstatevector_mod.svg" xlink:title="gridstatevector_mod">
<polygon fill="none" stroke="red" points="468,-89 341,-89 341,-53 468,-53 468,-89"/>
<text text-anchor="middle" x="404.5" y="-67.3" font-family="Times,serif" font-size="14.00">gridstatevector_mod</text>
</a>
</g>
</g>
<!-- gridvariabletransforms_mod&#45;&gt;gridstatevector_mod -->
<g id="edge8" class="edge">
<title>gridvariabletransforms_mod&#45;&gt;gridstatevector_mod</title>
<path fill="none" stroke="black" d="M476.45,-628.98C456.77,-621.03 437.07,-609.54 423.5,-593 397.84,-561.73 404.5,-544.45 404.5,-504 404.5,-504 404.5,-504 404.5,-214 404.5,-174 404.5,-127.65 404.5,-99.08"/>
<polygon fill="black" stroke="black" points="408,-99.05 404.5,-89.05 401,-99.05 408,-99.05"/>
</g>
<!-- horizontalcoord_mod -->
<g id="node10" class="node">
<title>horizontalcoord_mod</title>
<g id="a_node10"><a xlink:href="../modules/horizontalcoord_mod.svg" xlink:title="horizontalcoord_mod">
<polygon fill="none" stroke="red" points="566,-593 433,-593 433,-557 566,-557 566,-593"/>
<text text-anchor="middle" x="499.5" y="-571.3" font-family="Times,serif" font-size="14.00">horizontalcoord_mod</text>
</a>
</g>
</g>
<!-- gridvariabletransforms_mod&#45;&gt;horizontalcoord_mod -->
<g id="edge9" class="edge">
<title>gridvariabletransforms_mod&#45;&gt;horizontalcoord_mod</title>
<path fill="none" stroke="black" d="M534.88,-628.7C529.36,-620.47 522.65,-610.48 516.57,-601.42"/>
<polygon fill="black" stroke="black" points="519.46,-599.46 510.98,-593.1 513.65,-603.36 519.46,-599.46"/>
</g>
<!-- humiditylimits_mod -->
<g id="node11" class="node">
<title>humiditylimits_mod</title>
<g id="a_node11"><a xlink:href="../modules/humiditylimits_mod.svg" xlink:title="humiditylimits_mod">
<polygon fill="none" stroke="red" points="604.5,-521 476.5,-521 476.5,-485 604.5,-485 604.5,-521"/>
<text text-anchor="middle" x="540.5" y="-499.3" font-family="Times,serif" font-size="14.00">humiditylimits_mod</text>
</a>
</g>
</g>
<!-- gridvariabletransforms_mod&#45;&gt;humiditylimits_mod -->
<g id="edge10" class="edge">
<title>gridvariabletransforms_mod&#45;&gt;humiditylimits_mod</title>
<path fill="none" stroke="black" d="M558.39,-628.72C564.51,-618.76 571.34,-605.73 574.5,-593 578.35,-577.47 579,-572.35 574.5,-557 571.7,-547.45 566.59,-537.98 561.17,-529.76"/>
<polygon fill="black" stroke="black" points="563.88,-527.52 555.25,-521.37 558.15,-531.56 563.88,-527.52"/>
</g>
<!-- interpolation_mod -->
<g id="node12" class="node">
<title>interpolation_mod</title>
<g id="a_node12"><a xlink:href="../modules/interpolation_mod.svg" xlink:title="interpolation_mod">
<polygon fill="none" stroke="red" points="642.5,-449 526.5,-449 526.5,-413 642.5,-413 642.5,-449"/>
<text text-anchor="middle" x="584.5" y="-427.3" font-family="Times,serif" font-size="14.00">interpolation_mod</text>
</a>
</g>
</g>
<!-- gridvariabletransforms_mod&#45;&gt;interpolation_mod -->
<g id="edge11" class="edge">
<title>gridvariabletransforms_mod&#45;&gt;interpolation_mod</title>
<path fill="none" stroke="black" d="M563.85,-628.63C572.83,-618.85 583.38,-606.01 590.5,-593 606.64,-563.54 608.33,-554.19 613.5,-521 615.96,-505.19 617.46,-500.5 613.5,-485 611.12,-475.7 606.74,-466.27 602.08,-458"/>
<polygon fill="black" stroke="black" points="604.96,-455.99 596.81,-449.22 598.96,-459.59 604.96,-455.99"/>
</g>
<!-- lamspectraltransform_mod -->
<g id="node13" class="node">
<title>lamspectraltransform_mod</title>
<g id="a_node13"><a xlink:href="../modules/lamspectraltransform_mod.svg" xlink:title="lamspectraltransform_mod">
<polygon fill="none" stroke="red" points="680.5,-377 518.5,-377 518.5,-341 680.5,-341 680.5,-377"/>
<text text-anchor="middle" x="599.5" y="-355.3" font-family="Times,serif" font-size="14.00">lamspectraltransform_mod</text>
</a>
</g>
</g>
<!-- gridvariabletransforms_mod&#45;&gt;lamspectraltransform_mod -->
<g id="edge12" class="edge">
<title>gridvariabletransforms_mod&#45;&gt;lamspectraltransform_mod</title>
<path fill="none" stroke="black" d="M575.42,-628.82C588.49,-619.7 603.09,-607.39 612.5,-593 648.8,-537.51 642.76,-514.73 651.5,-449 653.61,-433.14 657.55,-427.81 651.5,-413 647.01,-402.02 639.03,-392.08 630.65,-383.86"/>
<polygon fill="black" stroke="black" points="632.99,-381.26 623.25,-377.09 628.26,-386.42 632.99,-381.26"/>
</g>
<!-- mathphysconstants_mod -->
<g id="node14" class="node">
<title>mathphysconstants_mod</title>
<g id="a_node14"><a xlink:href="mathphysconstants_mod.html" xlink:title="mathphysconstants_mod">
<polygon fill="gray" stroke="black" points="718.5,-305 568.5,-305 568.5,-269 718.5,-269 718.5,-305"/>
<text text-anchor="middle" x="643.5" y="-283.3" font-family="Times,serif" font-size="14.00">mathphysconstants_mod</text>
</a>
</g>
</g>
<!-- gridvariabletransforms_mod&#45;&gt;mathphysconstants_mod -->
<g id="edge13" class="edge">
<title>gridvariabletransforms_mod&#45;&gt;mathphysconstants_mod</title>
<path fill="none" stroke="black" d="M592.06,-628.9C639.97,-607.61 708.5,-566.27 708.5,-504 708.5,-504 708.5,-504 708.5,-430 708.5,-389.55 707.55,-377.2 689.5,-341 684.47,-330.92 677.08,-321.21 669.68,-312.91"/>
<polygon fill="black" stroke="black" points="672.06,-310.33 662.66,-305.43 666.95,-315.12 672.06,-310.33"/>
</g>
<!-- midasmpi_mod -->
<g id="node15" class="node">
<title>midasmpi_mod</title>
<g id="a_node15"><a xlink:href="../modules/midasmpi_mod.svg" xlink:title="midasmpi_mod">
<polygon fill="none" stroke="red" points="756,-233 655,-233 655,-197 756,-197 756,-233"/>
<text text-anchor="middle" x="705.5" y="-211.3" font-family="Times,serif" font-size="14.00">midasmpi_mod</text>
</a>
</g>
</g>
<!-- gridvariabletransforms_mod&#45;&gt;midasmpi_mod -->
<g id="edge14" class="edge">
<title>gridvariabletransforms_mod&#45;&gt;midasmpi_mod</title>
<path fill="none" stroke="black" d="M612.26,-628.99C670.56,-609.48 746.5,-571.18 746.5,-504 746.5,-504 746.5,-504 746.5,-358 746.5,-316.41 730.06,-270.56 718,-242.51"/>
<polygon fill="black" stroke="black" points="721.05,-240.75 713.8,-233.03 714.65,-243.59 721.05,-240.75"/>
</g>
<!-- timecoord_mod -->
<g id="node16" class="node">
<title>timecoord_mod</title>
<g id="a_node16"><a xlink:href="../modules/timecoord_mod.svg" xlink:title="timecoord_mod">
<polygon fill="none" stroke="red" points="794.5,-161 692.5,-161 692.5,-125 794.5,-125 794.5,-161"/>
<text text-anchor="middle" x="743.5" y="-139.3" font-family="Times,serif" font-size="14.00">timecoord_mod</text>
</a>
</g>
</g>
<!-- gridvariabletransforms_mod&#45;&gt;timecoord_mod -->
<g id="edge15" class="edge">
<title>gridvariabletransforms_mod&#45;&gt;timecoord_mod</title>
<path fill="none" stroke="black" d="M631.75,-631.12C700.04,-613.72 784.5,-577.38 784.5,-504 784.5,-504 784.5,-504 784.5,-286 784.5,-244.41 768.06,-198.56 756,-170.51"/>
<polygon fill="black" stroke="black" points="759.05,-168.75 751.8,-161.03 752.65,-171.59 759.05,-168.75"/>
</g>
<!-- utilities_mod -->
<g id="node17" class="node">
<title>utilities_mod</title>
<g id="a_node17"><a xlink:href="../modules/utilities_mod.svg" xlink:title="utilities_mod">
<polygon fill="none" stroke="red" points="866.5,-89 778.5,-89 778.5,-53 866.5,-53 866.5,-89"/>
<text text-anchor="middle" x="822.5" y="-67.3" font-family="Times,serif" font-size="14.00">utilities_mod</text>
</a>
</g>
</g>
<!-- gridvariabletransforms_mod&#45;&gt;utilities_mod -->
<g id="edge16" class="edge">
<title>gridvariabletransforms_mod&#45;&gt;utilities_mod</title>
<path fill="none" stroke="black" d="M631.56,-637.81C712.66,-624.76 822.5,-591.03 822.5,-504 822.5,-504 822.5,-504 822.5,-214 822.5,-174 822.5,-127.65 822.5,-99.08"/>
<polygon fill="black" stroke="black" points="826,-99.05 822.5,-89.05 819,-99.05 826,-99.05"/>
</g>
<!-- varnamelist_mod -->
<g id="node18" class="node">
<title>varnamelist_mod</title>
<g id="a_node18"><a xlink:href="../modules/varnamelist_mod.svg" xlink:title="varnamelist_mod">
<polygon fill="none" stroke="red" points="960.5,-593 850.5,-593 850.5,-557 960.5,-557 960.5,-593"/>
<text text-anchor="middle" x="905.5" y="-571.3" font-family="Times,serif" font-size="14.00">varnamelist_mod</text>
</a>
</g>
</g>
<!-- gridvariabletransforms_mod&#45;&gt;varnamelist_mod -->
<g id="edge17" class="edge">
<title>gridvariabletransforms_mod&#45;&gt;varnamelist_mod</title>
<path fill="none" stroke="black" d="M631.79,-631.82C689.71,-621.84 767.94,-607.7 836.5,-593 837.76,-592.73 839.02,-592.46 840.3,-592.18"/>
<polygon fill="black" stroke="black" points="841.22,-595.55 850.21,-589.94 839.68,-588.73 841.22,-595.55"/>
</g>
<!-- verticalcoord_mod -->
<g id="node19" class="node">
<title>verticalcoord_mod</title>
<g id="a_node19"><a xlink:href="../modules/verticalcoord_mod.svg" xlink:title="verticalcoord_mod">
<polygon fill="none" stroke="red" points="1047.5,-521 929.5,-521 929.5,-485 1047.5,-485 1047.5,-521"/>
<text text-anchor="middle" x="988.5" y="-499.3" font-family="Times,serif" font-size="14.00">verticalcoord_mod</text>
</a>
</g>
</g>
<!-- gridvariabletransforms_mod&#45;&gt;verticalcoord_mod -->
<g id="edge18" class="edge">
<title>gridvariabletransforms_mod&#45;&gt;verticalcoord_mod</title>
<path fill="none" stroke="black" d="M631.95,-646.6C741.12,-645.5 921.72,-636.85 969.5,-593 986.27,-577.61 990.18,-551.34 990.4,-531.32"/>
<polygon fill="black" stroke="black" points="993.9,-531.17 990.21,-521.23 986.9,-531.3 993.9,-531.17"/>
</g>
</g>
</svg>
