<?xml version="1.0" encoding="UTF-8" standalone="no"?>
<!DOCTYPE svg PUBLIC "-//W3C//DTD SVG 1.1//EN"
 "http://www.w3.org/Graphics/SVG/1.1/DTD/svg11.dtd">
<!-- Generated by graphviz version 3.0.0 (20220315.2325)
 -->
<!-- Title: gridstatevectorfileio_mod Pages: 1 -->
<svg width="1861pt" height="673pt"
 viewBox="0.00 0.00 1861.00 673.00" xmlns="http://www.w3.org/2000/svg" xmlns:xlink="http://www.w3.org/1999/xlink">
<g id="graph0" class="graph" transform="scale(1 1) rotate(0) translate(4 669)">
<title>gridstatevectorfileio_mod</title>
<polygon fill="white" stroke="transparent" points="-4,4 -4,-669 1857,-669 1857,4 -4,4"/>
<text text-anchor="middle" x="926.5" y="-649.8" font-family="Times,serif" font-size="14.00">Blue boxes indicate modules with reverse dependencies not shown</text>
<text text-anchor="middle" x="926.5" y="-634.8" font-family="Times,serif" font-size="14.00">Higher level reverse dependencies can be shown by clicking on a blue box</text>
<text text-anchor="middle" x="926.5" y="-619.8" font-family="Times,serif" font-size="14.00">Green boxes are programs</text>
<!-- gridstatevectorfileio_mod -->
<g id="node1" class="node">
<title>gridstatevectorfileio_mod</title>
<g id="a_node1"><a xlink:href="gridstatevectorfileio_mod.html" xlink:title="gridstatevectorfileio_mod">
<polygon fill="none" stroke="black" points="991,-36 836,-36 836,0 991,0 991,-36"/>
<text text-anchor="middle" x="913.5" y="-14.3" font-family="Times,serif" font-size="14.00">gridstatevectorfileio_mod</text>
</a>
</g>
</g>
<!-- advection_mod -->
<g id="node2" class="node">
<title>advection_mod</title>
<g id="a_node2"><a xlink:href="../modules/advection_mod_rev.svg" xlink:title="advection_mod">
<polygon fill="none" stroke="blue" points="99,-108 0,-108 0,-72 99,-72 99,-108"/>
<text text-anchor="middle" x="49.5" y="-86.3" font-family="Times,serif" font-size="14.00">advection_mod</text>
</a>
</g>
</g>
<!-- advection_mod&#45;&gt;gridstatevectorfileio_mod -->
<g id="edge1" class="edge">
<title>advection_mod&#45;&gt;gridstatevectorfileio_mod</title>
<path fill="none" stroke="black" d="M107.32,-73.11C109.4,-72.71 111.47,-72.33 113.5,-72 376.01,-28.86 692.46,-20.59 835.99,-19.17"/>
<ellipse fill="black" stroke="black" cx="103.18" cy="-73.97" rx="4" ry="4"/>
</g>
<!-- analysiserroroi_mod -->
<g id="node3" class="node">
<title>analysiserroroi_mod</title>
<g id="a_node3"><a xlink:href="../modules/analysiserroroi_mod_rev.svg" xlink:title="analysiserroroi_mod">
<polygon fill="none" stroke="blue" points="164,-180 37,-180 37,-144 164,-144 164,-180"/>
<text text-anchor="middle" x="100.5" y="-158.3" font-family="Times,serif" font-size="14.00">analysiserroroi_mod</text>
</a>
</g>
</g>
<!-- analysiserroroi_mod&#45;&gt;gridstatevectorfileio_mod -->
<g id="edge2" class="edge">
<title>analysiserroroi_mod&#45;&gt;gridstatevectorfileio_mod</title>
<path fill="none" stroke="black" d="M114.09,-136.89C127.48,-115.72 150.03,-86.16 178.5,-72 236.24,-43.28 658.96,-26.92 835.92,-21.27"/>
<ellipse fill="black" stroke="black" cx="111.83" cy="-140.58" rx="4" ry="4"/>
</g>
<!-- bgckocean_mod -->
<g id="node4" class="node">
<title>bgckocean_mod</title>
<g id="a_node4"><a xlink:href="../modules/bgckocean_mod_rev.svg" xlink:title="bgckocean_mod">
<polygon fill="none" stroke="blue" points="202,-252 97,-252 97,-216 202,-216 202,-252"/>
<text text-anchor="middle" x="149.5" y="-230.3" font-family="Times,serif" font-size="14.00">bgckocean_mod</text>
</a>
</g>
</g>
<!-- bgckocean_mod&#45;&gt;gridstatevectorfileio_mod -->
<g id="edge3" class="edge">
<title>bgckocean_mod&#45;&gt;gridstatevectorfileio_mod</title>
<path fill="none" stroke="black" d="M160.32,-208.39C164.2,-199.47 168.59,-189.3 172.5,-180 192.6,-132.22 174.62,-102.53 216.5,-72 265.59,-36.21 664.36,-23.98 835.72,-20.35"/>
<ellipse fill="black" stroke="black" cx="158.66" cy="-212.19" rx="4" ry="4"/>
</g>
<!-- biascorrectionsat_mod -->
<g id="node5" class="node">
<title>biascorrectionsat_mod</title>
<g id="a_node5"><a xlink:href="../modules/biascorrectionsat_mod_rev.svg" xlink:title="biascorrectionsat_mod">
<polygon fill="none" stroke="blue" points="240,-324 101,-324 101,-288 240,-288 240,-324"/>
<text text-anchor="middle" x="170.5" y="-302.3" font-family="Times,serif" font-size="14.00">biascorrectionsat_mod</text>
</a>
</g>
</g>
<!-- biascorrectionsat_mod&#45;&gt;gridstatevectorfileio_mod -->
<g id="edge4" class="edge">
<title>biascorrectionsat_mod&#45;&gt;gridstatevectorfileio_mod</title>
<path fill="none" stroke="black" d="M191.7,-281.23C198.54,-272.53 205.62,-262.29 210.5,-252 245.81,-177.6 191.81,-125.41 254.5,-72 297.91,-35.01 671.13,-23.51 835.88,-20.22"/>
<ellipse fill="black" stroke="black" cx="189.07" cy="-284.46" rx="4" ry="4"/>
</g>
<!-- bmatrix1dvar_mod -->
<g id="node6" class="node">
<title>bmatrix1dvar_mod</title>
<g id="a_node6"><a xlink:href="../modules/bmatrix1dvar_mod_rev.svg" xlink:title="bmatrix1dvar_mod">
<polygon fill="none" stroke="blue" points="278,-396 159,-396 159,-360 278,-360 278,-396"/>
<text text-anchor="middle" x="218.5" y="-374.3" font-family="Times,serif" font-size="14.00">bmatrix1dvar_mod</text>
</a>
</g>
</g>
<!-- bmatrix1dvar_mod&#45;&gt;gridstatevectorfileio_mod -->
<g id="edge5" class="edge">
<title>bmatrix1dvar_mod&#45;&gt;gridstatevectorfileio_mod</title>
<path fill="none" stroke="black" d="M234.11,-352.93C239.29,-344.11 244.7,-333.87 248.5,-324 263.09,-286.17 268.5,-275.54 268.5,-235 268.5,-235 268.5,-235 268.5,-161 268.5,-120.03 261.07,-98.28 292.5,-72 333.36,-37.84 678.65,-24.88 835.96,-20.71"/>
<ellipse fill="black" stroke="black" cx="231.92" cy="-356.55" rx="4" ry="4"/>
</g>
<!-- bmatrixdiff_mod -->
<g id="node7" class="node">
<title>bmatrixdiff_mod</title>
<g id="a_node7"><a xlink:href="../modules/bmatrixdiff_mod_rev.svg" xlink:title="bmatrixdiff_mod">
<polygon fill="none" stroke="blue" points="316.5,-468 208.5,-468 208.5,-432 316.5,-432 316.5,-468"/>
<text text-anchor="middle" x="262.5" y="-446.3" font-family="Times,serif" font-size="14.00">bmatrixdiff_mod</text>
</a>
</g>
</g>
<!-- bmatrixdiff_mod&#45;&gt;gridstatevectorfileio_mod -->
<g id="edge6" class="edge">
<title>bmatrixdiff_mod&#45;&gt;gridstatevectorfileio_mod</title>
<path fill="none" stroke="black" d="M275.12,-424.3C288.12,-396.52 306.5,-349.7 306.5,-307 306.5,-307 306.5,-307 306.5,-161 306.5,-120.03 299.14,-98.36 330.5,-72 368.38,-40.16 686.02,-26.09 835.85,-21.18"/>
<ellipse fill="black" stroke="black" cx="273.35" cy="-428" rx="4" ry="4"/>
</g>
<!-- bmatrixensemble_mod -->
<g id="node8" class="node">
<title>bmatrixensemble_mod</title>
<g id="a_node8"><a xlink:href="../modules/bmatrixensemble_mod_rev.svg" xlink:title="bmatrixensemble_mod">
<polygon fill="none" stroke="blue" points="354.5,-540 214.5,-540 214.5,-504 354.5,-504 354.5,-540"/>
<text text-anchor="middle" x="284.5" y="-518.3" font-family="Times,serif" font-size="14.00">bmatrixensemble_mod</text>
</a>
</g>
</g>
<!-- bmatrixensemble_mod&#45;&gt;gridstatevectorfileio_mod -->
<g id="edge7" class="edge">
<title>bmatrixensemble_mod&#45;&gt;gridstatevectorfileio_mod</title>
<path fill="none" stroke="black" d="M306.42,-497.39C313.45,-488.7 320.66,-478.43 325.5,-468 342.52,-431.31 344.5,-419.45 344.5,-379 344.5,-379 344.5,-379 344.5,-161 344.5,-120.03 337.22,-98.46 368.5,-72 403.43,-42.45 693.99,-27.37 835.99,-21.71"/>
<ellipse fill="black" stroke="black" cx="303.69" cy="-500.63" rx="4" ry="4"/>
</g>
<!-- calcstatsglb_mod -->
<g id="node9" class="node">
<title>calcstatsglb_mod</title>
<g id="a_node9"><a xlink:href="../modules/calcstatsglb_mod_rev.svg" xlink:title="calcstatsglb_mod">
<polygon fill="none" stroke="blue" points="437.5,-612 327.5,-612 327.5,-576 437.5,-576 437.5,-612"/>
<text text-anchor="middle" x="382.5" y="-590.3" font-family="Times,serif" font-size="14.00">calcstatsglb_mod</text>
</a>
</g>
</g>
<!-- calcstatsglb_mod&#45;&gt;gridstatevectorfileio_mod -->
<g id="edge8" class="edge">
<title>calcstatsglb_mod&#45;&gt;gridstatevectorfileio_mod</title>
<path fill="none" stroke="black" d="M382.5,-567.78C382.5,-539.39 382.5,-491.89 382.5,-451 382.5,-451 382.5,-451 382.5,-161 382.5,-120.46 372.2,-98.93 402.5,-72 434.21,-43.82 701.01,-28.25 835.97,-22.12"/>
<ellipse fill="black" stroke="black" cx="382.5" cy="-571.95" rx="4" ry="4"/>
</g>
<!-- calcstatslam_mod -->
<g id="node10" class="node">
<title>calcstatslam_mod</title>
<g id="a_node10"><a xlink:href="../modules/calcstatslam_mod_rev.svg" xlink:title="calcstatslam_mod">
<polygon fill="none" stroke="blue" points="524,-108 411,-108 411,-72 524,-72 524,-108"/>
<text text-anchor="middle" x="467.5" y="-86.3" font-family="Times,serif" font-size="14.00">calcstatslam_mod</text>
</a>
</g>
</g>
<!-- calcstatslam_mod&#45;&gt;gridstatevectorfileio_mod -->
<g id="edge9" class="edge">
<title>calcstatslam_mod&#45;&gt;gridstatevectorfileio_mod</title>
<path fill="none" stroke="black" d="M532.38,-73.2C534.44,-72.79 536.48,-72.38 538.5,-72 640.72,-52.58 759.86,-36.92 835.94,-27.79"/>
<ellipse fill="black" stroke="black" cx="528.28" cy="-74.06" rx="4" ry="4"/>
</g>
<!-- diffusion_mod -->
<g id="node11" class="node">
<title>diffusion_mod</title>
<g id="a_node11"><a xlink:href="../modules/diffusion_mod_rev.svg" xlink:title="diffusion_mod">
<polygon fill="none" stroke="blue" points="562,-180 467,-180 467,-144 562,-144 562,-180"/>
<text text-anchor="middle" x="514.5" y="-158.3" font-family="Times,serif" font-size="14.00">diffusion_mod</text>
</a>
</g>
</g>
<!-- diffusion_mod&#45;&gt;gridstatevectorfileio_mod -->
<g id="edge10" class="edge">
<title>diffusion_mod&#45;&gt;gridstatevectorfileio_mod</title>
<path fill="none" stroke="black" d="M524.94,-136.24C535.01,-115.57 552.3,-87.15 576.5,-72 618.61,-45.65 750.24,-31.07 835.98,-24.16"/>
<ellipse fill="black" stroke="black" cx="523.13" cy="-140.11" rx="4" ry="4"/>
</g>
<!-- ensemblestatevector_mod -->
<g id="node12" class="node">
<title>ensemblestatevector_mod</title>
<g id="a_node12"><a xlink:href="../modules/ensemblestatevector_mod_rev.svg" xlink:title="ensemblestatevector_mod">
<polygon fill="none" stroke="blue" points="600.5,-252 444.5,-252 444.5,-216 600.5,-216 600.5,-252"/>
<text text-anchor="middle" x="522.5" y="-230.3" font-family="Times,serif" font-size="14.00">ensemblestatevector_mod</text>
</a>
</g>
</g>
<!-- ensemblestatevector_mod&#45;&gt;gridstatevectorfileio_mod -->
<g id="edge11" class="edge">
<title>ensemblestatevector_mod&#45;&gt;gridstatevectorfileio_mod</title>
<path fill="none" stroke="black" d="M547.28,-209.95C555.74,-201.16 564.77,-190.68 571.5,-180 599.06,-136.3 574.45,-104.63 614.5,-72 647.66,-44.99 758.89,-30.92 835.91,-24.25"/>
<ellipse fill="black" stroke="black" cx="544.35" cy="-212.9" rx="4" ry="4"/>
</g>
<!-- enspostprocess_mod -->
<g id="node13" class="node">
<title>enspostprocess_mod</title>
<g id="a_node13"><a xlink:href="../modules/enspostprocess_mod_rev.svg" xlink:title="enspostprocess_mod">
<polygon fill="none" stroke="blue" points="638.5,-324 510.5,-324 510.5,-288 638.5,-288 638.5,-324"/>
<text text-anchor="middle" x="574.5" y="-302.3" font-family="Times,serif" font-size="14.00">enspostprocess_mod</text>
</a>
</g>
</g>
<!-- enspostprocess_mod&#45;&gt;gridstatevectorfileio_mod -->
<g id="edge12" class="edge">
<title>enspostprocess_mod&#45;&gt;gridstatevectorfileio_mod</title>
<path fill="none" stroke="black" d="M592.87,-281.06C598.89,-272.3 605.14,-262.06 609.5,-252 642.22,-176.54 593.36,-129.16 652.5,-72 678.27,-47.1 768.51,-32.92 835.71,-25.61"/>
<ellipse fill="black" stroke="black" cx="590.45" cy="-284.48" rx="4" ry="4"/>
</g>
<!-- fsoi_mod -->
<g id="node14" class="node">
<title>fsoi_mod</title>
<g id="a_node14"><a xlink:href="../modules/fsoi_mod_rev.svg" xlink:title="fsoi_mod">
<polygon fill="none" stroke="blue" points="676.5,-396 608.5,-396 608.5,-360 676.5,-360 676.5,-396"/>
<text text-anchor="middle" x="642.5" y="-374.3" font-family="Times,serif" font-size="14.00">fsoi_mod</text>
</a>
</g>
</g>
<!-- fsoi_mod&#45;&gt;gridstatevectorfileio_mod -->
<g id="edge13" class="edge">
<title>fsoi_mod&#45;&gt;gridstatevectorfileio_mod</title>
<path fill="none" stroke="black" d="M649.36,-351.9C656.45,-323.69 666.5,-276.42 666.5,-235 666.5,-235 666.5,-235 666.5,-161 666.5,-120.03 661.1,-100.53 690.5,-72 711.2,-51.91 780,-37.57 835.76,-28.92"/>
<ellipse fill="black" stroke="black" cx="648.35" cy="-355.8" rx="4" ry="4"/>
</g>
<!-- gridbinning_mod -->
<g id="node15" class="node">
<title>gridbinning_mod</title>
<g id="a_node15"><a xlink:href="../modules/gridbinning_mod_rev.svg" xlink:title="gridbinning_mod">
<polygon fill="none" stroke="blue" points="714.5,-468 604.5,-468 604.5,-432 714.5,-432 714.5,-468"/>
<text text-anchor="middle" x="659.5" y="-446.3" font-family="Times,serif" font-size="14.00">gridbinning_mod</text>
</a>
</g>
</g>
<!-- gridbinning_mod&#45;&gt;gridstatevectorfileio_mod -->
<g id="edge14" class="edge">
<title>gridbinning_mod&#45;&gt;gridstatevectorfileio_mod</title>
<path fill="none" stroke="black" d="M673.1,-424.47C677.54,-415.69 682.18,-405.59 685.5,-396 698.73,-357.78 704.5,-347.45 704.5,-307 704.5,-307 704.5,-307 704.5,-161 704.5,-120.03 699.76,-101.19 728.5,-72 756.51,-43.55 798.68,-30.11 835.69,-23.87"/>
<ellipse fill="black" stroke="black" cx="671.13" cy="-428.25" rx="4" ry="4"/>
</g>
<!-- gridvariabletransforms_mod -->
<g id="node16" class="node">
<title>gridvariabletransforms_mod</title>
<g id="a_node16"><a xlink:href="../modules/gridvariabletransforms_mod_rev.svg" xlink:title="gridvariabletransforms_mod">
<polygon fill="none" stroke="blue" points="752.5,-540 582.5,-540 582.5,-504 752.5,-504 752.5,-540"/>
<text text-anchor="middle" x="667.5" y="-518.3" font-family="Times,serif" font-size="14.00">gridvariabletransforms_mod</text>
</a>
</g>
</g>
<!-- gridvariabletransforms_mod&#45;&gt;gridstatevectorfileio_mod -->
<g id="edge15" class="edge">
<title>gridvariabletransforms_mod&#45;&gt;gridstatevectorfileio_mod</title>
<path fill="none" stroke="black" d="M697.7,-498.54C707.28,-489.98 717.05,-479.49 723.5,-468 743.3,-432.73 742.5,-419.45 742.5,-379 742.5,-379 742.5,-379 742.5,-161 742.5,-120.03 738.75,-102.14 766.5,-72 784.69,-52.24 810.8,-39.84 835.97,-32.06"/>
<ellipse fill="black" stroke="black" cx="694.5" cy="-501.28" rx="4" ry="4"/>
</g>
<!-- increment_mod -->
<g id="node17" class="node">
<title>increment_mod</title>
<g id="a_node17"><a xlink:href="../modules/increment_mod_rev.svg" xlink:title="increment_mod">
<polygon fill="none" stroke="blue" points="831,-612 730,-612 730,-576 831,-576 831,-612"/>
<text text-anchor="middle" x="780.5" y="-590.3" font-family="Times,serif" font-size="14.00">increment_mod</text>
</a>
</g>
</g>
<!-- increment_mod&#45;&gt;gridstatevectorfileio_mod -->
<g id="edge16" class="edge">
<title>increment_mod&#45;&gt;gridstatevectorfileio_mod</title>
<path fill="none" stroke="black" d="M780.5,-567.78C780.5,-539.39 780.5,-491.89 780.5,-451 780.5,-451 780.5,-451 780.5,-161 780.5,-120.46 775.11,-103.61 800.5,-72 813.59,-55.7 832.87,-44.15 851.81,-36.1"/>
<ellipse fill="black" stroke="black" cx="780.5" cy="-571.95" rx="4" ry="4"/>
</g>
<!-- minimization_mod -->
<g id="node18" class="node">
<title>minimization_mod</title>
<g id="a_node18"><a xlink:href="../modules/minimization_mod_rev.svg" xlink:title="minimization_mod">
<polygon fill="none" stroke="blue" points="930,-108 809,-108 809,-72 930,-72 930,-108"/>
<text text-anchor="middle" x="869.5" y="-86.3" font-family="Times,serif" font-size="14.00">minimization_mod</text>
</a>
</g>
</g>
<!-- minimization_mod&#45;&gt;gridstatevectorfileio_mod -->
<g id="edge17" class="edge">
<title>minimization_mod&#45;&gt;gridstatevectorfileio_mod</title>
<path fill="none" stroke="black" d="M884.74,-64.76C890.67,-55.32 897.33,-44.72 902.75,-36.1"/>
<ellipse fill="black" stroke="black" cx="882.51" cy="-68.31" rx="4" ry="4"/>
</g>
<!-- obserrors_mod -->
<g id="node19" class="node">
<title>obserrors_mod</title>
<g id="a_node19"><a xlink:href="../modules/obserrors_mod_rev.svg" xlink:title="obserrors_mod">
<polygon fill="none" stroke="blue" points="968.5,-180 870.5,-180 870.5,-144 968.5,-144 968.5,-180"/>
<text text-anchor="middle" x="919.5" y="-158.3" font-family="Times,serif" font-size="14.00">obserrors_mod</text>
</a>
</g>
</g>
<!-- obserrors_mod&#45;&gt;gridstatevectorfileio_mod -->
<g id="edge18" class="edge">
<title>obserrors_mod&#45;&gt;gridstatevectorfileio_mod</title>
<path fill="none" stroke="black" d="M930.97,-136.19C934.43,-127.47 937.77,-117.48 939.5,-108 942.37,-92.26 943.12,-87.59 939.5,-72 936.58,-59.42 930.24,-46.38 924.55,-36.39"/>
<ellipse fill="black" stroke="black" cx="929.35" cy="-140.1" rx="4" ry="4"/>
</g>
<!-- oceanbackground_mod -->
<g id="node20" class="node">
<title>oceanbackground_mod</title>
<g id="a_node20"><a xlink:href="../modules/oceanbackground_mod_rev.svg" xlink:title="oceanbackground_mod">
<polygon fill="none" stroke="blue" points="1006,-252 863,-252 863,-216 1006,-216 1006,-252"/>
<text text-anchor="middle" x="934.5" y="-230.3" font-family="Times,serif" font-size="14.00">oceanbackground_mod</text>
</a>
</g>
</g>
<!-- oceanbackground_mod&#45;&gt;gridstatevectorfileio_mod -->
<g id="edge19" class="edge">
<title>oceanbackground_mod&#45;&gt;gridstatevectorfileio_mod</title>
<path fill="none" stroke="black" d="M958.95,-209.91C966.38,-201.31 973.61,-190.96 977.5,-180 982.85,-164.92 979.96,-159.81 977.5,-144 972.33,-110.81 970.13,-101.74 954.5,-72 947.68,-59.02 937.64,-45.98 929.21,-36.08"/>
<ellipse fill="black" stroke="black" cx="956.23" cy="-212.88" rx="4" ry="4"/>
</g>
<!-- oceanobservations_mod -->
<g id="node21" class="node">
<title>oceanobservations_mod</title>
<g id="a_node21"><a xlink:href="../modules/oceanobservations_mod_rev.svg" xlink:title="oceanobservations_mod">
<polygon fill="none" stroke="blue" points="1044.5,-324 898.5,-324 898.5,-288 1044.5,-288 1044.5,-324"/>
<text text-anchor="middle" x="971.5" y="-302.3" font-family="Times,serif" font-size="14.00">oceanobservations_mod</text>
</a>
</g>
</g>
<!-- oceanobservations_mod&#45;&gt;gridstatevectorfileio_mod -->
<g id="edge20" class="edge">
<title>oceanobservations_mod&#45;&gt;gridstatevectorfileio_mod</title>
<path fill="none" stroke="black" d="M996.51,-282C1004.11,-273.41 1011.51,-263.04 1015.5,-252 1020.93,-236.95 1017.66,-231.85 1015.5,-216 1006.53,-150.19 1011.19,-128.02 975.5,-72 966.45,-57.79 952.41,-45.34 939.99,-36.08"/>
<ellipse fill="black" stroke="black" cx="993.7" cy="-284.99" rx="4" ry="4"/>
</g>
<!-- ominusf_mod -->
<g id="node22" class="node">
<title>ominusf_mod</title>
<g id="a_node22"><a xlink:href="../modules/ominusf_mod_rev.svg" xlink:title="ominusf_mod">
<polygon fill="none" stroke="blue" points="1082,-396 989,-396 989,-360 1082,-360 1082,-396"/>
<text text-anchor="middle" x="1035.5" y="-374.3" font-family="Times,serif" font-size="14.00">ominusf_mod</text>
</a>
</g>
</g>
<!-- ominusf_mod&#45;&gt;gridstatevectorfileio_mod -->
<g id="edge21" class="edge">
<title>ominusf_mod&#45;&gt;gridstatevectorfileio_mod</title>
<path fill="none" stroke="black" d="M1046.07,-352.19C1057.01,-324.24 1072.5,-277.2 1072.5,-235 1072.5,-235 1072.5,-235 1072.5,-161 1072.5,-99.19 1004.84,-57.6 957.79,-36.14"/>
<ellipse fill="black" stroke="black" cx="1044.48" cy="-356.17" rx="4" ry="4"/>
</g>
<!-- sstbias_mod -->
<g id="node23" class="node">
<title>sstbias_mod</title>
<g id="a_node23"><a xlink:href="../modules/sstbias_mod_rev.svg" xlink:title="sstbias_mod">
<polygon fill="none" stroke="blue" points="1120,-468 1037,-468 1037,-432 1120,-432 1120,-468"/>
<text text-anchor="middle" x="1078.5" y="-446.3" font-family="Times,serif" font-size="14.00">sstbias_mod</text>
</a>
</g>
</g>
<!-- sstbias_mod&#45;&gt;gridstatevectorfileio_mod -->
<g id="edge22" class="edge">
<title>sstbias_mod&#45;&gt;gridstatevectorfileio_mod</title>
<path fill="none" stroke="black" d="M1087.64,-424.06C1097.1,-396 1110.5,-348.86 1110.5,-307 1110.5,-307 1110.5,-307 1110.5,-161 1110.5,-94.18 1034.98,-55.67 977.46,-36.02"/>
<ellipse fill="black" stroke="black" cx="1086.28" cy="-428.01" rx="4" ry="4"/>
</g>
<!-- thinning_mod -->
<g id="node24" class="node">
<title>thinning_mod</title>
<g id="a_node24"><a xlink:href="../modules/thinning_mod_rev.svg" xlink:title="thinning_mod">
<polygon fill="none" stroke="blue" points="1158.5,-540 1066.5,-540 1066.5,-504 1158.5,-504 1158.5,-540"/>
<text text-anchor="middle" x="1112.5" y="-518.3" font-family="Times,serif" font-size="14.00">thinning_mod</text>
</a>
</g>
</g>
<!-- thinning_mod&#45;&gt;gridstatevectorfileio_mod -->
<g id="edge23" class="edge">
<title>thinning_mod&#45;&gt;gridstatevectorfileio_mod</title>
<path fill="none" stroke="black" d="M1122.79,-496.16C1133.43,-468.19 1148.5,-421.13 1148.5,-379 1148.5,-379 1148.5,-379 1148.5,-161 1148.5,-85.92 1059.55,-49.48 991.1,-32.55"/>
<ellipse fill="black" stroke="black" cx="1121.24" cy="-500.14" rx="4" ry="4"/>
</g>
<!-- midas_midas_diagbmatrix -->
<g id="node25" class="node">
<title>midas_midas_diagbmatrix</title>
<g id="a_node25"><a xlink:href="../programs/midas_diagbmatrix.html" xlink:title="midas_midas_diagbmatrix">
<polygon fill="gray" stroke="green" points="1267,-612 1106,-612 1106,-576 1267,-576 1267,-612"/>
<text text-anchor="middle" x="1186.5" y="-590.3" font-family="Times,serif" font-size="14.00">midas_midas_diagbmatrix</text>
</a>
</g>
</g>
<!-- midas_midas_diagbmatrix&#45;&gt;gridstatevectorfileio_mod -->
<g id="edge24" class="edge">
<title>midas_midas_diagbmatrix&#45;&gt;gridstatevectorfileio_mod</title>
<path fill="none" stroke="black" d="M1186.5,-567.78C1186.5,-539.39 1186.5,-491.89 1186.5,-451 1186.5,-451 1186.5,-451 1186.5,-161 1186.5,-72.32 1071.71,-38.94 991,-26.43"/>
<ellipse fill="black" stroke="black" cx="1186.5" cy="-571.95" rx="4" ry="4"/>
</g>
<!-- midas_midas_diaghbht -->
<g id="node26" class="node">
<title>midas_midas_diaghbht</title>
<g id="a_node26"><a xlink:href="../programs/midas_diaghbht.html" xlink:title="midas_midas_diaghbht">
<polygon fill="gray" stroke="green" points="1358,-108 1215,-108 1215,-72 1358,-72 1358,-108"/>
<text text-anchor="middle" x="1286.5" y="-86.3" font-family="Times,serif" font-size="14.00">midas_midas_diaghbht</text>
</a>
</g>
</g>
<!-- midas_midas_diaghbht&#45;&gt;gridstatevectorfileio_mod -->
<g id="edge25" class="edge">
<title>midas_midas_diaghbht&#45;&gt;gridstatevectorfileio_mod</title>
<path fill="none" stroke="black" d="M1206.65,-73.18C1204.58,-72.78 1202.53,-72.39 1200.5,-72 1129.71,-58.47 1048.97,-43.61 991.2,-33.08"/>
<ellipse fill="black" stroke="black" cx="1210.79" cy="-73.98" rx="4" ry="4"/>
</g>
<!-- midas_midas_ensembleh -->
<g id="node27" class="node">
<title>midas_midas_ensembleh</title>
<g id="a_node27"><a xlink:href="../programs/midas_ensembleh.html" xlink:title="midas_midas_ensembleh">
<polygon fill="gray" stroke="green" points="1396.5,-180 1242.5,-180 1242.5,-144 1396.5,-144 1396.5,-180"/>
<text text-anchor="middle" x="1319.5" y="-158.3" font-family="Times,serif" font-size="14.00">midas_midas_ensembleh</text>
</a>
</g>
</g>
<!-- midas_midas_ensembleh&#45;&gt;gridstatevectorfileio_mod -->
<g id="edge26" class="edge">
<title>midas_midas_ensembleh&#45;&gt;gridstatevectorfileio_mod</title>
<path fill="none" stroke="black" d="M1346.21,-138.14C1365.4,-119 1385.06,-91.73 1367.5,-72 1342.97,-44.44 1114.42,-28.95 991.27,-22.54"/>
<ellipse fill="black" stroke="black" cx="1343.2" cy="-141.04" rx="4" ry="4"/>
</g>
<!-- midas_midas_enspostprocess -->
<g id="node28" class="node">
<title>midas_midas_enspostprocess</title>
<g id="a_node28"><a xlink:href="../programs/midas_enspostprocess.html" xlink:title="midas_midas_enspostprocess">
<polygon fill="gray" stroke="green" points="1434.5,-252 1258.5,-252 1258.5,-216 1434.5,-216 1434.5,-252"/>
<text text-anchor="middle" x="1346.5" y="-230.3" font-family="Times,serif" font-size="14.00">midas_midas_enspostprocess</text>
</a>
</g>
</g>
<!-- midas_midas_enspostprocess&#45;&gt;gridstatevectorfileio_mod -->
<g id="edge27" class="edge">
<title>midas_midas_enspostprocess&#45;&gt;gridstatevectorfileio_mod</title>
<path fill="none" stroke="black" d="M1380.79,-210.7C1390.64,-202.36 1400.16,-191.97 1405.5,-180 1425.41,-135.34 1421.91,-103.48 1384.5,-72 1355.05,-47.21 1117,-30.35 991.04,-23.06"/>
<ellipse fill="black" stroke="black" cx="1377.43" cy="-213.38" rx="4" ry="4"/>
</g>
<!-- midas_midas_gencoeff -->
<g id="node29" class="node">
<title>midas_midas_gencoeff</title>
<g id="a_node29"><a xlink:href="../programs/midas_gencoeff.html" xlink:title="midas_midas_gencoeff">
<polygon fill="gray" stroke="green" points="1472,-324 1329,-324 1329,-288 1472,-288 1472,-324"/>
<text text-anchor="middle" x="1400.5" y="-302.3" font-family="Times,serif" font-size="14.00">midas_midas_gencoeff</text>
</a>
</g>
</g>
<!-- midas_midas_gencoeff&#45;&gt;gridstatevectorfileio_mod -->
<g id="edge28" class="edge">
<title>midas_midas_gencoeff&#45;&gt;gridstatevectorfileio_mod</title>
<path fill="none" stroke="black" d="M1424.95,-281.91C1432.38,-273.31 1439.61,-262.96 1443.5,-252 1463.01,-197 1447.61,-103.57 1412.5,-72 1381.83,-44.42 1123.47,-28.64 991.07,-22.3"/>
<ellipse fill="black" stroke="black" cx="1422.23" cy="-284.88" rx="4" ry="4"/>
</g>
<!-- midas_midas_letkf -->
<g id="node30" class="node">
<title>midas_midas_letkf</title>
<g id="a_node30"><a xlink:href="../programs/midas_letkf.html" xlink:title="midas_midas_letkf">
<polygon fill="gray" stroke="green" points="1510.5,-396 1388.5,-396 1388.5,-360 1510.5,-360 1510.5,-396"/>
<text text-anchor="middle" x="1449.5" y="-374.3" font-family="Times,serif" font-size="14.00">midas_midas_letkf</text>
</a>
</g>
</g>
<!-- midas_midas_letkf&#45;&gt;gridstatevectorfileio_mod -->
<g id="edge29" class="edge">
<title>midas_midas_letkf&#45;&gt;gridstatevectorfileio_mod</title>
<path fill="none" stroke="black" d="M1466.52,-352.66C1471.98,-343.95 1477.61,-333.84 1481.5,-324 1496.38,-286.39 1500.5,-275.45 1500.5,-235 1500.5,-235 1500.5,-235 1500.5,-161 1500.5,-112.54 1479.37,-96.41 1437.5,-72 1363.64,-28.94 1118.09,-20.51 991.08,-19.09"/>
<ellipse fill="black" stroke="black" cx="1464.19" cy="-356.26" rx="4" ry="4"/>
</g>
<!-- midas_midas_obsimpact -->
<g id="node31" class="node">
<title>midas_midas_obsimpact</title>
<g id="a_node31"><a xlink:href="../programs/midas_obsimpact.html" xlink:title="midas_midas_obsimpact">
<polygon fill="gray" stroke="green" points="1548.5,-468 1396.5,-468 1396.5,-432 1548.5,-432 1548.5,-468"/>
<text text-anchor="middle" x="1472.5" y="-446.3" font-family="Times,serif" font-size="14.00">midas_midas_obsimpact</text>
</a>
</g>
</g>
<!-- midas_midas_obsimpact&#45;&gt;gridstatevectorfileio_mod -->
<g id="edge30" class="edge">
<title>midas_midas_obsimpact&#45;&gt;gridstatevectorfileio_mod</title>
<path fill="none" stroke="black" d="M1497.86,-425.69C1505.87,-417.08 1514.05,-406.78 1519.5,-396 1537.74,-359.9 1538.5,-347.45 1538.5,-307 1538.5,-307 1538.5,-307 1538.5,-161 1538.5,-112.28 1516.76,-96.24 1474.5,-72 1394.09,-25.88 1125.33,-19 991.12,-18.53"/>
<ellipse fill="black" stroke="black" cx="1494.87" cy="-428.77" rx="4" ry="4"/>
</g>
<!-- midas_midas_obsselection -->
<g id="node32" class="node">
<title>midas_midas_obsselection</title>
<g id="a_node32"><a xlink:href="../programs/midas_obsselection.html" xlink:title="midas_midas_obsselection">
<polygon fill="gray" stroke="green" points="1586,-540 1423,-540 1423,-504 1586,-504 1586,-540"/>
<text text-anchor="middle" x="1504.5" y="-518.3" font-family="Times,serif" font-size="14.00">midas_midas_obsselection</text>
</a>
</g>
</g>
<!-- midas_midas_obsselection&#45;&gt;gridstatevectorfileio_mod -->
<g id="edge31" class="edge">
<title>midas_midas_obsselection&#45;&gt;gridstatevectorfileio_mod</title>
<path fill="none" stroke="black" d="M1532.84,-498.49C1541.98,-489.86 1551.33,-479.35 1557.5,-468 1576.82,-432.46 1576.5,-419.45 1576.5,-379 1576.5,-379 1576.5,-379 1576.5,-161 1576.5,-112.02 1554.15,-96.09 1511.5,-72 1424.49,-22.85 1132.33,-17.6 991.15,-18.05"/>
<ellipse fill="black" stroke="black" cx="1529.86" cy="-501.18" rx="4" ry="4"/>
</g>
<!-- midas_midas_randompert -->
<g id="node33" class="node">
<title>midas_midas_randompert</title>
<g id="a_node33"><a xlink:href="../programs/midas_randompert.html" xlink:title="midas_midas_randompert">
<polygon fill="gray" stroke="green" points="1694,-612 1535,-612 1535,-576 1694,-576 1694,-612"/>
<text text-anchor="middle" x="1614.5" y="-590.3" font-family="Times,serif" font-size="14.00">midas_midas_randompert</text>
</a>
</g>
</g>
<!-- midas_midas_randompert&#45;&gt;gridstatevectorfileio_mod -->
<g id="edge32" class="edge">
<title>midas_midas_randompert&#45;&gt;gridstatevectorfileio_mod</title>
<path fill="none" stroke="black" d="M1614.5,-567.78C1614.5,-539.39 1614.5,-491.89 1614.5,-451 1614.5,-451 1614.5,-451 1614.5,-161 1614.5,-112.02 1592.21,-95.98 1549.5,-72 1501.86,-45.25 1150.05,-28.26 991.09,-21.87"/>
<ellipse fill="black" stroke="black" cx="1614.5" cy="-571.95" rx="4" ry="4"/>
</g>
<!-- midas_midas_var1d -->
<g id="node34" class="node">
<title>midas_midas_var1d</title>
<g id="a_node34"><a xlink:href="../programs/midas_var1d.html" xlink:title="midas_midas_var1d">
<polygon fill="gray" stroke="green" points="1768.5,-108 1642.5,-108 1642.5,-72 1768.5,-72 1768.5,-108"/>
<text text-anchor="middle" x="1705.5" y="-86.3" font-family="Times,serif" font-size="14.00">midas_midas_var1d</text>
</a>
</g>
</g>
<!-- midas_midas_var1d&#45;&gt;gridstatevectorfileio_mod -->
<g id="edge33" class="edge">
<title>midas_midas_var1d&#45;&gt;gridstatevectorfileio_mod</title>
<path fill="none" stroke="black" d="M1634,-72.85C1632.15,-72.55 1630.32,-72.27 1628.5,-72 1398.2,-38.22 1122.84,-25.51 991.14,-21.11"/>
<ellipse fill="black" stroke="black" cx="1638.24" cy="-73.59" rx="4" ry="4"/>
</g>
<!-- midas_midas_var -->
<g id="node35" class="node">
<title>midas_midas_var</title>
<g id="a_node35"><a xlink:href="../programs/midas_var.html" xlink:title="midas_midas_var">
<polygon fill="gray" stroke="green" points="1853,-180 1740,-180 1740,-144 1853,-144 1853,-180"/>
<text text-anchor="middle" x="1796.5" y="-158.3" font-family="Times,serif" font-size="14.00">midas_midas_var</text>
</a>
</g>
</g>
<!-- midas_midas_var&#45;&gt;gridstatevectorfileio_mod -->
<g id="edge34" class="edge">
<title>midas_midas_var&#45;&gt;gridstatevectorfileio_mod</title>
<path fill="none" stroke="black" d="M1798.66,-135.66C1798.88,-115.22 1795.41,-87.42 1777.5,-72 1718.71,-21.38 1192.59,-17.94 991.32,-18.5"/>
<ellipse fill="black" stroke="black" cx="1798.52" cy="-139.91" rx="4" ry="4"/>
</g>
</g>
</svg>
