<?xml version="1.0" encoding="UTF-8" standalone="no"?>
<!DOCTYPE svg PUBLIC "-//W3C//DTD SVG 1.1//EN"
 "http://www.w3.org/Graphics/SVG/1.1/DTD/svg11.dtd">
<!-- Generated by graphviz version 3.0.0 (20220315.2325)
 -->
<!-- Title: gridstatevector_mod Pages: 1 -->
<svg width="767pt" height="673pt"
 viewBox="0.00 0.00 767.00 673.00" xmlns="http://www.w3.org/2000/svg" xmlns:xlink="http://www.w3.org/1999/xlink">
<g id="graph0" class="graph" transform="scale(1 1) rotate(0) translate(4 669)">
<title>gridstatevector_mod</title>
<polygon fill="white" stroke="transparent" points="-4,4 -4,-669 763,-669 763,4 -4,4"/>
<text text-anchor="middle" x="379.5" y="-37.8" font-family="Times,serif" font-size="14.00">Red boxes indicate modules with dependencies not shown</text>
<text text-anchor="middle" x="379.5" y="-22.8" font-family="Times,serif" font-size="14.00">Lower level dependencies can be shown by clicking on a red box</text>
<text text-anchor="middle" x="379.5" y="-7.8" font-family="Times,serif" font-size="14.00">Shaded boxes indicate modules with no dependencies</text>
<!-- gridstatevector_mod -->
<g id="node1" class="node">
<title>gridstatevector_mod</title>
<g id="a_node1"><a xlink:href="gridstatevector_mod.html" xlink:title="gridstatevector_mod">
<polygon fill="none" stroke="black" points="410.5,-665 283.5,-665 283.5,-629 410.5,-629 410.5,-665"/>
<text text-anchor="middle" x="347" y="-643.3" font-family="Times,serif" font-size="14.00">gridstatevector_mod</text>
</a>
</g>
</g>
<!-- codeprecision_mod -->
<g id="node2" class="node">
<title>codeprecision_mod</title>
<g id="a_node2"><a xlink:href="codeprecision_mod.html" xlink:title="codeprecision_mod">
<polygon fill="gray" stroke="black" points="122,-593 0,-593 0,-557 122,-557 122,-593"/>
<text text-anchor="middle" x="61" y="-571.3" font-family="Times,serif" font-size="14.00">codeprecision_mod</text>
</a>
</g>
</g>
<!-- gridstatevector_mod&#45;&gt;codeprecision_mod -->
<g id="edge1" class="edge">
<title>gridstatevector_mod&#45;&gt;codeprecision_mod</title>
<path fill="none" stroke="black" d="M283.17,-630.38C238.39,-619.42 178.47,-604.75 132.15,-593.41"/>
<polygon fill="black" stroke="black" points="132.73,-589.95 122.18,-590.97 131.06,-596.75 132.73,-589.95"/>
</g>
<!-- earthconstants_mod -->
<g id="node3" class="node">
<title>earthconstants_mod</title>
<g id="a_node3"><a xlink:href="../modules/earthconstants_mod.svg" xlink:title="earthconstants_mod">
<polygon fill="none" stroke="red" points="185.5,-521 60.5,-521 60.5,-485 185.5,-485 185.5,-521"/>
<text text-anchor="middle" x="123" y="-499.3" font-family="Times,serif" font-size="14.00">earthconstants_mod</text>
</a>
</g>
</g>
<!-- gridstatevector_mod&#45;&gt;earthconstants_mod -->
<g id="edge2" class="edge">
<title>gridstatevector_mod&#45;&gt;earthconstants_mod</title>
<path fill="none" stroke="black" d="M283.2,-630.77C256.03,-622.39 224.93,-610.12 200,-593 175.21,-575.97 153.46,-549.1 139.46,-529.33"/>
<polygon fill="black" stroke="black" points="142.33,-527.32 133.77,-521.08 136.57,-531.3 142.33,-527.32"/>
</g>
<!-- horizontalcoord_mod -->
<g id="node4" class="node">
<title>horizontalcoord_mod</title>
<g id="a_node4"><a xlink:href="../modules/horizontalcoord_mod.svg" xlink:title="horizontalcoord_mod">
<polygon fill="none" stroke="red" points="223.5,-449 90.5,-449 90.5,-413 223.5,-413 223.5,-449"/>
<text text-anchor="middle" x="157" y="-427.3" font-family="Times,serif" font-size="14.00">horizontalcoord_mod</text>
</a>
</g>
</g>
<!-- gridstatevector_mod&#45;&gt;horizontalcoord_mod -->
<g id="edge3" class="edge">
<title>gridstatevector_mod&#45;&gt;horizontalcoord_mod</title>
<path fill="none" stroke="black" d="M292.89,-628.91C273.55,-620.6 252.89,-608.9 238,-593 202.57,-555.17 218.77,-530.53 194,-485 188.85,-475.54 182.36,-465.72 176.26,-457.14"/>
<polygon fill="black" stroke="black" points="179.07,-455.06 170.35,-449.04 173.42,-459.18 179.07,-455.06"/>
</g>
<!-- mathphysconstants_mod -->
<g id="node5" class="node">
<title>mathphysconstants_mod</title>
<g id="a_node5"><a xlink:href="mathphysconstants_mod.html" xlink:title="mathphysconstants_mod">
<polygon fill="gray" stroke="black" points="262,-377 112,-377 112,-341 262,-341 262,-377"/>
<text text-anchor="middle" x="187" y="-355.3" font-family="Times,serif" font-size="14.00">mathphysconstants_mod</text>
</a>
</g>
</g>
<!-- gridstatevector_mod&#45;&gt;mathphysconstants_mod -->
<g id="edge4" class="edge">
<title>gridstatevector_mod&#45;&gt;mathphysconstants_mod</title>
<path fill="none" stroke="black" d="M315,-628.9C301.08,-619.94 285.76,-607.75 276,-593 230.55,-524.32 269.43,-486.36 232,-413 226.84,-402.9 219.41,-393.07 212.07,-384.68"/>
<polygon fill="black" stroke="black" points="214.47,-382.11 205.13,-377.11 209.3,-386.84 214.47,-382.11"/>
</g>
<!-- message_mod -->
<g id="node6" class="node">
<title>message_mod</title>
<g id="a_node6"><a xlink:href="../modules/message_mod.svg" xlink:title="message_mod">
<polygon fill="none" stroke="red" points="299.5,-305 206.5,-305 206.5,-269 299.5,-269 299.5,-305"/>
<text text-anchor="middle" x="253" y="-283.3" font-family="Times,serif" font-size="14.00">message_mod</text>
</a>
</g>
</g>
<!-- gridstatevector_mod&#45;&gt;message_mod -->
<g id="edge5" class="edge">
<title>gridstatevector_mod&#45;&gt;message_mod</title>
<path fill="none" stroke="black" d="M334.33,-628.57C327.53,-618.56 319.45,-605.52 314,-593 297.66,-555.43 290,-544.97 290,-504 290,-504 290,-504 290,-430 290,-388.71 275.17,-342.77 264.28,-314.63"/>
<polygon fill="black" stroke="black" points="267.44,-313.11 260.49,-305.11 260.94,-315.7 267.44,-313.11"/>
</g>
<!-- midasmpi_mod -->
<g id="node7" class="node">
<title>midasmpi_mod</title>
<g id="a_node7"><a xlink:href="../modules/midasmpi_mod.svg" xlink:title="midasmpi_mod">
<polygon fill="none" stroke="red" points="337.5,-233 236.5,-233 236.5,-197 337.5,-197 337.5,-233"/>
<text text-anchor="middle" x="287" y="-211.3" font-family="Times,serif" font-size="14.00">midasmpi_mod</text>
</a>
</g>
</g>
<!-- gridstatevector_mod&#45;&gt;midasmpi_mod -->
<g id="edge6" class="edge">
<title>gridstatevector_mod&#45;&gt;midasmpi_mod</title>
<path fill="none" stroke="black" d="M343.16,-628.61C337.6,-601.94 328,-549.27 328,-504 328,-504 328,-504 328,-358 328,-316.41 311.56,-270.56 299.5,-242.51"/>
<polygon fill="black" stroke="black" points="302.55,-240.75 295.3,-233.03 296.15,-243.59 302.55,-240.75"/>
</g>
<!-- oceanmask_mod -->
<g id="node8" class="node">
<title>oceanmask_mod</title>
<g id="a_node8"><a xlink:href="../modules/oceanmask_mod.svg" xlink:title="oceanmask_mod">
<polygon fill="none" stroke="red" points="375.5,-161 268.5,-161 268.5,-125 375.5,-125 375.5,-161"/>
<text text-anchor="middle" x="322" y="-139.3" font-family="Times,serif" font-size="14.00">oceanmask_mod</text>
</a>
</g>
</g>
<!-- gridstatevector_mod&#45;&gt;oceanmask_mod -->
<g id="edge7" class="edge">
<title>gridstatevector_mod&#45;&gt;oceanmask_mod</title>
<path fill="none" stroke="black" d="M350.84,-628.61C356.4,-601.94 366,-549.27 366,-504 366,-504 366,-504 366,-286 366,-244.21 348.4,-198.48 335.46,-170.51"/>
<polygon fill="black" stroke="black" points="338.58,-168.92 331.12,-161.39 332.26,-171.93 338.58,-168.92"/>
</g>
<!-- physicsfunctions_mod -->
<g id="node9" class="node">
<title>physicsfunctions_mod</title>
<g id="a_node9"><a xlink:href="../modules/physicsfunctions_mod.svg" xlink:title="physicsfunctions_mod">
<polygon fill="none" stroke="red" points="473,-89 335,-89 335,-53 473,-53 473,-89"/>
<text text-anchor="middle" x="404" y="-67.3" font-family="Times,serif" font-size="14.00">physicsfunctions_mod</text>
</a>
</g>
</g>
<!-- gridstatevector_mod&#45;&gt;physicsfunctions_mod -->
<g id="edge8" class="edge">
<title>gridstatevector_mod&#45;&gt;physicsfunctions_mod</title>
<path fill="none" stroke="black" d="M358.81,-628.96C375.51,-603.16 404,-552.08 404,-504 404,-504 404,-504 404,-214 404,-174 404,-127.65 404,-99.08"/>
<polygon fill="black" stroke="black" points="407.5,-99.05 404,-89.05 400.5,-99.05 407.5,-99.05"/>
</g>
<!-- timecoord_mod -->
<g id="node10" class="node">
<title>timecoord_mod</title>
<g id="a_node10"><a xlink:href="../modules/timecoord_mod.svg" xlink:title="timecoord_mod">
<polygon fill="none" stroke="red" points="534,-593 432,-593 432,-557 534,-557 534,-593"/>
<text text-anchor="middle" x="483" y="-571.3" font-family="Times,serif" font-size="14.00">timecoord_mod</text>
</a>
</g>
</g>
<!-- gridstatevector_mod&#45;&gt;timecoord_mod -->
<g id="edge9" class="edge">
<title>gridstatevector_mod&#45;&gt;timecoord_mod</title>
<path fill="none" stroke="black" d="M380.27,-628.88C398.46,-619.51 421.19,-607.81 440.64,-597.8"/>
<polygon fill="black" stroke="black" points="442.31,-600.88 449.6,-593.19 439.11,-594.65 442.31,-600.88"/>
</g>
<!-- utilities_mod -->
<g id="node11" class="node">
<title>utilities_mod</title>
<g id="a_node11"><a xlink:href="../modules/utilities_mod.svg" xlink:title="utilities_mod">
<polygon fill="none" stroke="red" points="589,-521 501,-521 501,-485 589,-485 589,-521"/>
<text text-anchor="middle" x="545" y="-499.3" font-family="Times,serif" font-size="14.00">utilities_mod</text>
</a>
</g>
</g>
<!-- gridstatevector_mod&#45;&gt;utilities_mod -->
<g id="edge10" class="edge">
<title>gridstatevector_mod&#45;&gt;utilities_mod</title>
<path fill="none" stroke="black" d="M410.59,-637.14C461.34,-628.62 526.59,-613.95 543,-593 556.51,-575.75 555.67,-550.32 552.23,-531.05"/>
<polygon fill="black" stroke="black" points="555.62,-530.14 550.13,-521.07 548.77,-531.58 555.62,-530.14"/>
</g>
<!-- varnamelist_mod -->
<g id="node12" class="node">
<title>varnamelist_mod</title>
<g id="a_node12"><a xlink:href="../modules/varnamelist_mod.svg" xlink:title="varnamelist_mod">
<polygon fill="none" stroke="red" points="672,-449 562,-449 562,-413 672,-413 672,-449"/>
<text text-anchor="middle" x="617" y="-427.3" font-family="Times,serif" font-size="14.00">varnamelist_mod</text>
</a>
</g>
</g>
<!-- gridstatevector_mod&#45;&gt;varnamelist_mod -->
<g id="edge11" class="edge">
<title>gridstatevector_mod&#45;&gt;varnamelist_mod</title>
<path fill="none" stroke="black" d="M410.51,-644.46C457.25,-640.25 519.9,-627.82 563,-593 603.42,-560.35 613.78,-496.33 616.31,-459.62"/>
<polygon fill="black" stroke="black" points="619.83,-459.34 616.87,-449.17 612.84,-458.97 619.83,-459.34"/>
</g>
<!-- verticalcoord_mod -->
<g id="node13" class="node">
<title>verticalcoord_mod</title>
<g id="a_node13"><a xlink:href="../modules/verticalcoord_mod.svg" xlink:title="verticalcoord_mod">
<polygon fill="none" stroke="red" points="759,-377 641,-377 641,-341 759,-341 759,-377"/>
<text text-anchor="middle" x="700" y="-355.3" font-family="Times,serif" font-size="14.00">verticalcoord_mod</text>
</a>
</g>
</g>
<!-- gridstatevector_mod&#45;&gt;verticalcoord_mod -->
<g id="edge12" class="edge">
<title>gridstatevector_mod&#45;&gt;verticalcoord_mod</title>
<path fill="none" stroke="black" d="M410.54,-645.66C463.49,-642.43 538.6,-630.73 592,-593 661.88,-543.62 687.68,-437.33 696.22,-387.21"/>
<polygon fill="black" stroke="black" points="699.71,-387.55 697.83,-377.13 692.8,-386.45 699.71,-387.55"/>
</g>
</g>
</svg>
