<?xml version="1.0" encoding="UTF-8" standalone="no"?>
<!DOCTYPE svg PUBLIC "-//W3C//DTD SVG 1.1//EN"
 "http://www.w3.org/Graphics/SVG/1.1/DTD/svg11.dtd">
<!-- Generated by graphviz version 3.0.0 (20220315.2325)
 -->
<!-- Title: gridstatevector_mod Pages: 1 -->
<svg width="3106pt" height="673pt"
 viewBox="0.00 0.00 3106.00 673.00" xmlns="http://www.w3.org/2000/svg" xmlns:xlink="http://www.w3.org/1999/xlink">
<g id="graph0" class="graph" transform="scale(1 1) rotate(0) translate(4 669)">
<title>gridstatevector_mod</title>
<polygon fill="white" stroke="transparent" points="-4,4 -4,-669 3102,-669 3102,4 -4,4"/>
<text text-anchor="middle" x="1549" y="-649.8" font-family="Times,serif" font-size="14.00">Blue boxes indicate modules with reverse dependencies not shown</text>
<text text-anchor="middle" x="1549" y="-634.8" font-family="Times,serif" font-size="14.00">Higher level reverse dependencies can be shown by clicking on a blue box</text>
<text text-anchor="middle" x="1549" y="-619.8" font-family="Times,serif" font-size="14.00">Green boxes are programs</text>
<!-- gridstatevector_mod -->
<g id="node1" class="node">
<title>gridstatevector_mod</title>
<g id="a_node1"><a xlink:href="gridstatevector_mod.html" xlink:title="gridstatevector_mod">
<polygon fill="none" stroke="black" points="1584,-36 1457,-36 1457,0 1584,0 1584,-36"/>
<text text-anchor="middle" x="1520.5" y="-14.3" font-family="Times,serif" font-size="14.00">gridstatevector_mod</text>
</a>
</g>
</g>
<!-- advection_mod -->
<g id="node2" class="node">
<title>advection_mod</title>
<g id="a_node2"><a xlink:href="../modules/advection_mod_rev.svg" xlink:title="advection_mod">
<polygon fill="none" stroke="blue" points="99,-108 0,-108 0,-72 99,-72 99,-108"/>
<text text-anchor="middle" x="49.5" y="-86.3" font-family="Times,serif" font-size="14.00">advection_mod</text>
</a>
</g>
</g>
<!-- advection_mod&#45;&gt;gridstatevector_mod -->
<g id="edge1" class="edge">
<title>advection_mod&#45;&gt;gridstatevector_mod</title>
<path fill="none" stroke="black" d="M107.31,-73.03C109.39,-72.65 111.46,-72.31 113.5,-72 377.91,-32.41 1217.78,-21.78 1456.59,-19.52"/>
<ellipse fill="black" stroke="black" cx="103.16" cy="-73.86" rx="4" ry="4"/>
</g>
<!-- analysiserroroi_mod -->
<g id="node3" class="node">
<title>analysiserroroi_mod</title>
<g id="a_node3"><a xlink:href="../modules/analysiserroroi_mod_rev.svg" xlink:title="analysiserroroi_mod">
<polygon fill="none" stroke="blue" points="164,-180 37,-180 37,-144 164,-144 164,-180"/>
<text text-anchor="middle" x="100.5" y="-158.3" font-family="Times,serif" font-size="14.00">analysiserroroi_mod</text>
</a>
</g>
</g>
<!-- analysiserroroi_mod&#45;&gt;gridstatevector_mod -->
<g id="edge2" class="edge">
<title>analysiserroroi_mod&#45;&gt;gridstatevector_mod</title>
<path fill="none" stroke="black" d="M113.81,-136.95C127.1,-115.62 149.68,-85.76 178.5,-72 294.5,-16.63 1206.28,-17.32 1456.93,-18.58"/>
<ellipse fill="black" stroke="black" cx="111.73" cy="-140.4" rx="4" ry="4"/>
</g>
<!-- bcovarsetupchem_mod -->
<g id="node4" class="node">
<title>bcovarsetupchem_mod</title>
<g id="a_node4"><a xlink:href="../modules/bcovarsetupchem_mod_rev.svg" xlink:title="bcovarsetupchem_mod">
<polygon fill="none" stroke="blue" points="202.5,-252 60.5,-252 60.5,-216 202.5,-216 202.5,-252"/>
<text text-anchor="middle" x="131.5" y="-230.3" font-family="Times,serif" font-size="14.00">bcovarsetupchem_mod</text>
</a>
</g>
</g>
<!-- bcovarsetupchem_mod&#45;&gt;gridstatevector_mod -->
<g id="edge3" class="edge">
<title>bcovarsetupchem_mod&#45;&gt;gridstatevector_mod</title>
<path fill="none" stroke="black" d="M152.06,-209.28C159.11,-200.46 166.67,-190.12 172.5,-180 198.37,-135.09 174.08,-101.79 216.5,-72 267.72,-36.03 1202.32,-22.67 1456.91,-19.68"/>
<ellipse fill="black" stroke="black" cx="149.35" cy="-212.61" rx="4" ry="4"/>
</g>
<!-- bgckocean_mod -->
<g id="node5" class="node">
<title>bgckocean_mod</title>
<g id="a_node5"><a xlink:href="../modules/bgckocean_mod_rev.svg" xlink:title="bgckocean_mod">
<polygon fill="none" stroke="blue" points="240,-324 135,-324 135,-288 240,-288 240,-324"/>
<text text-anchor="middle" x="187.5" y="-302.3" font-family="Times,serif" font-size="14.00">bgckocean_mod</text>
</a>
</g>
</g>
<!-- bgckocean_mod&#45;&gt;gridstatevector_mod -->
<g id="edge4" class="edge">
<title>bgckocean_mod&#45;&gt;gridstatevector_mod</title>
<path fill="none" stroke="black" d="M199.85,-280.32C203.94,-271.53 208.26,-261.46 211.5,-252 238.14,-174.18 191.02,-124.3 254.5,-72 301.3,-33.45 1206.71,-21.99 1456.92,-19.55"/>
<ellipse fill="black" stroke="black" cx="198.08" cy="-284.06" rx="4" ry="4"/>
</g>
<!-- biascorrectionsat_mod -->
<g id="node6" class="node">
<title>biascorrectionsat_mod</title>
<g id="a_node6"><a xlink:href="../modules/biascorrectionsat_mod_rev.svg" xlink:title="biascorrectionsat_mod">
<polygon fill="none" stroke="blue" points="278,-396 139,-396 139,-360 278,-360 278,-396"/>
<text text-anchor="middle" x="208.5" y="-374.3" font-family="Times,serif" font-size="14.00">biascorrectionsat_mod</text>
</a>
</g>
</g>
<!-- biascorrectionsat_mod&#45;&gt;gridstatevector_mod -->
<g id="edge5" class="edge">
<title>biascorrectionsat_mod&#45;&gt;gridstatevector_mod</title>
<path fill="none" stroke="black" d="M229.81,-353.28C236.66,-344.59 243.71,-334.34 248.5,-324 265.54,-287.21 268.5,-275.54 268.5,-235 268.5,-235 268.5,-235 268.5,-161 268.5,-120.03 260.52,-97.61 292.5,-72 338.28,-35.34 1211.3,-22.56 1456.78,-19.68"/>
<ellipse fill="black" stroke="black" cx="227.18" cy="-356.51" rx="4" ry="4"/>
</g>
<!-- bmatrix1dvar_mod -->
<g id="node7" class="node">
<title>bmatrix1dvar_mod</title>
<g id="a_node7"><a xlink:href="../modules/bmatrix1dvar_mod_rev.svg" xlink:title="bmatrix1dvar_mod">
<polygon fill="none" stroke="blue" points="316,-468 197,-468 197,-432 316,-432 316,-468"/>
<text text-anchor="middle" x="256.5" y="-446.3" font-family="Times,serif" font-size="14.00">bmatrix1dvar_mod</text>
</a>
</g>
</g>
<!-- bmatrix1dvar_mod&#45;&gt;gridstatevector_mod -->
<g id="edge6" class="edge">
<title>bmatrix1dvar_mod&#45;&gt;gridstatevector_mod</title>
<path fill="none" stroke="black" d="M272.11,-424.93C277.29,-416.11 282.7,-405.87 286.5,-396 301.09,-358.17 306.5,-347.54 306.5,-307 306.5,-307 306.5,-307 306.5,-161 306.5,-120.03 298.54,-97.63 330.5,-72 374.71,-36.54 1216.06,-22.94 1456.7,-19.77"/>
<ellipse fill="black" stroke="black" cx="269.92" cy="-428.55" rx="4" ry="4"/>
</g>
<!-- bmatrixchem_mod -->
<g id="node8" class="node">
<title>bmatrixchem_mod</title>
<g id="a_node8"><a xlink:href="../modules/bmatrixchem_mod_rev.svg" xlink:title="bmatrixchem_mod">
<polygon fill="none" stroke="blue" points="354,-540 235,-540 235,-504 354,-504 354,-540"/>
<text text-anchor="middle" x="294.5" y="-518.3" font-family="Times,serif" font-size="14.00">bmatrixchem_mod</text>
</a>
</g>
</g>
<!-- bmatrixchem_mod&#45;&gt;gridstatevector_mod -->
<g id="edge7" class="edge">
<title>bmatrixchem_mod&#45;&gt;gridstatevector_mod</title>
<path fill="none" stroke="black" d="M310.11,-496.93C315.29,-488.11 320.7,-477.87 324.5,-468 339.09,-430.17 344.5,-419.54 344.5,-379 344.5,-379 344.5,-379 344.5,-161 344.5,-120.03 336.56,-97.66 368.5,-72 411.16,-37.74 1221.14,-23.34 1456.73,-19.87"/>
<ellipse fill="black" stroke="black" cx="307.92" cy="-500.55" rx="4" ry="4"/>
</g>
<!-- bmatrixdiff_mod -->
<g id="node9" class="node">
<title>bmatrixdiff_mod</title>
<g id="a_node9"><a xlink:href="../modules/bmatrixdiff_mod_rev.svg" xlink:title="bmatrixdiff_mod">
<polygon fill="none" stroke="blue" points="436.5,-612 328.5,-612 328.5,-576 436.5,-576 436.5,-612"/>
<text text-anchor="middle" x="382.5" y="-590.3" font-family="Times,serif" font-size="14.00">bmatrixdiff_mod</text>
</a>
</g>
</g>
<!-- bmatrixdiff_mod&#45;&gt;gridstatevector_mod -->
<g id="edge8" class="edge">
<title>bmatrixdiff_mod&#45;&gt;gridstatevector_mod</title>
<path fill="none" stroke="black" d="M382.5,-567.78C382.5,-539.39 382.5,-491.89 382.5,-451 382.5,-451 382.5,-451 382.5,-161 382.5,-120.55 370.67,-98.18 401.5,-72 441.92,-37.68 1225.85,-23.37 1456.92,-19.88"/>
<ellipse fill="black" stroke="black" cx="382.5" cy="-571.95" rx="4" ry="4"/>
</g>
<!-- bmatrixensemble_mod -->
<g id="node10" class="node">
<title>bmatrixensemble_mod</title>
<g id="a_node10"><a xlink:href="../modules/bmatrixensemble_mod_rev.svg" xlink:title="bmatrixensemble_mod">
<polygon fill="none" stroke="blue" points="550.5,-108 410.5,-108 410.5,-72 550.5,-72 550.5,-108"/>
<text text-anchor="middle" x="480.5" y="-86.3" font-family="Times,serif" font-size="14.00">bmatrixensemble_mod</text>
</a>
</g>
</g>
<!-- bmatrixensemble_mod&#45;&gt;gridstatevector_mod -->
<g id="edge9" class="edge">
<title>bmatrixensemble_mod&#45;&gt;gridstatevector_mod</title>
<path fill="none" stroke="black" d="M558.43,-72.83C560.47,-72.53 562.5,-72.26 564.5,-72 898.58,-29.16 1302.72,-20.93 1456.72,-19.36"/>
<ellipse fill="black" stroke="black" cx="554.45" cy="-73.44" rx="4" ry="4"/>
</g>
<!-- bmatrixhi_mod -->
<g id="node11" class="node">
<title>bmatrixhi_mod</title>
<g id="a_node11"><a xlink:href="../modules/bmatrixhi_mod_rev.svg" xlink:title="bmatrixhi_mod">
<polygon fill="none" stroke="blue" points="588.5,-180 488.5,-180 488.5,-144 588.5,-144 588.5,-180"/>
<text text-anchor="middle" x="538.5" y="-158.3" font-family="Times,serif" font-size="14.00">bmatrixhi_mod</text>
</a>
</g>
</g>
<!-- bmatrixhi_mod&#45;&gt;gridstatevector_mod -->
<g id="edge10" class="edge">
<title>bmatrixhi_mod&#45;&gt;gridstatevector_mod</title>
<path fill="none" stroke="black" d="M548.81,-136.26C559.06,-115.15 576.95,-86.04 602.5,-72 676.87,-31.13 1260.97,-21.59 1456.77,-19.53"/>
<ellipse fill="black" stroke="black" cx="547.07" cy="-140.01" rx="4" ry="4"/>
</g>
<!-- bmatrix_mod -->
<g id="node12" class="node">
<title>bmatrix_mod</title>
<g id="a_node12"><a xlink:href="../modules/bmatrix_mod_rev.svg" xlink:title="bmatrix_mod">
<polygon fill="none" stroke="blue" points="626,-252 537,-252 537,-216 626,-216 626,-252"/>
<text text-anchor="middle" x="581.5" y="-230.3" font-family="Times,serif" font-size="14.00">bmatrix_mod</text>
</a>
</g>
</g>
<!-- bmatrix_mod&#45;&gt;gridstatevector_mod -->
<g id="edge11" class="edge">
<title>bmatrix_mod&#45;&gt;gridstatevector_mod</title>
<path fill="none" stroke="black" d="M589.03,-207.94C602.22,-164.83 629.17,-80.43 640.5,-72 705.53,-23.59 1265.7,-19.01 1456.88,-18.87"/>
<ellipse fill="black" stroke="black" cx="587.82" cy="-211.9" rx="4" ry="4"/>
</g>
<!-- calcheightandpressure_mod -->
<g id="node13" class="node">
<title>calcheightandpressure_mod</title>
<g id="a_node13"><a xlink:href="../modules/calcheightandpressure_mod_rev.svg" xlink:title="calcheightandpressure_mod">
<polygon fill="none" stroke="blue" points="665,-324 498,-324 498,-288 665,-288 665,-324"/>
<text text-anchor="middle" x="581.5" y="-302.3" font-family="Times,serif" font-size="14.00">calcheightandpressure_mod</text>
</a>
</g>
</g>
<!-- calcheightandpressure_mod&#45;&gt;gridstatevector_mod -->
<g id="edge12" class="edge">
<title>calcheightandpressure_mod&#45;&gt;gridstatevector_mod</title>
<path fill="none" stroke="black" d="M609.65,-282.38C618.78,-273.75 628.17,-263.26 634.5,-252 674.89,-180.23 615.35,-124.86 678.5,-72 737.71,-22.44 1270.7,-18.56 1456.76,-18.74"/>
<ellipse fill="black" stroke="black" cx="606.69" cy="-285.08" rx="4" ry="4"/>
</g>
<!-- calcstatsglb_mod -->
<g id="node14" class="node">
<title>calcstatsglb_mod</title>
<g id="a_node14"><a xlink:href="../modules/calcstatsglb_mod_rev.svg" xlink:title="calcstatsglb_mod">
<polygon fill="none" stroke="blue" points="702.5,-396 592.5,-396 592.5,-360 702.5,-360 702.5,-396"/>
<text text-anchor="middle" x="647.5" y="-374.3" font-family="Times,serif" font-size="14.00">calcstatsglb_mod</text>
</a>
</g>
</g>
<!-- calcstatsglb_mod&#45;&gt;gridstatevector_mod -->
<g id="edge13" class="edge">
<title>calcstatsglb_mod&#45;&gt;gridstatevector_mod</title>
<path fill="none" stroke="black" d="M661.1,-352.47C665.54,-343.69 670.18,-333.59 673.5,-324 686.73,-285.78 692.5,-275.45 692.5,-235 692.5,-235 692.5,-235 692.5,-161 692.5,-120.03 684.82,-97.97 716.5,-72 773.23,-25.5 1276.73,-19.62 1456.81,-19.01"/>
<ellipse fill="black" stroke="black" cx="659.13" cy="-356.25" rx="4" ry="4"/>
</g>
<!-- calcstatslam_mod -->
<g id="node15" class="node">
<title>calcstatslam_mod</title>
<g id="a_node15"><a xlink:href="../modules/calcstatslam_mod_rev.svg" xlink:title="calcstatslam_mod">
<polygon fill="none" stroke="blue" points="740,-468 627,-468 627,-432 740,-432 740,-468"/>
<text text-anchor="middle" x="683.5" y="-446.3" font-family="Times,serif" font-size="14.00">calcstatslam_mod</text>
</a>
</g>
</g>
<!-- calcstatslam_mod&#45;&gt;gridstatevector_mod -->
<g id="edge14" class="edge">
<title>calcstatslam_mod&#45;&gt;gridstatevector_mod</title>
<path fill="none" stroke="black" d="M698.07,-424.84C702.9,-416.01 707.95,-405.78 711.5,-396 725.3,-357.98 730.5,-347.45 730.5,-307 730.5,-307 730.5,-307 730.5,-161 730.5,-120.03 722.86,-98.02 754.5,-72 808.17,-27.86 1282.53,-20.47 1456.71,-19.24"/>
<ellipse fill="black" stroke="black" cx="696.06" cy="-428.41" rx="4" ry="4"/>
</g>
<!-- diffusion_mod -->
<g id="node16" class="node">
<title>diffusion_mod</title>
<g id="a_node16"><a xlink:href="../modules/diffusion_mod_rev.svg" xlink:title="diffusion_mod">
<polygon fill="none" stroke="blue" points="778,-540 683,-540 683,-504 778,-504 778,-540"/>
<text text-anchor="middle" x="730.5" y="-518.3" font-family="Times,serif" font-size="14.00">diffusion_mod</text>
</a>
</g>
</g>
<!-- diffusion_mod&#45;&gt;gridstatevector_mod -->
<g id="edge15" class="edge">
<title>diffusion_mod&#45;&gt;gridstatevector_mod</title>
<path fill="none" stroke="black" d="M741.36,-496.22C752.59,-468.29 768.5,-421.27 768.5,-379 768.5,-379 768.5,-379 768.5,-161 768.5,-120.03 760.9,-98.08 792.5,-72 843.14,-30.2 1288.92,-21.35 1456.86,-19.49"/>
<ellipse fill="black" stroke="black" cx="739.71" cy="-500.21" rx="4" ry="4"/>
</g>
<!-- enkf_mod -->
<g id="node17" class="node">
<title>enkf_mod</title>
<g id="a_node17"><a xlink:href="../modules/enkf_mod_rev.svg" xlink:title="enkf_mod">
<polygon fill="none" stroke="blue" points="843,-612 770,-612 770,-576 843,-576 843,-612"/>
<text text-anchor="middle" x="806.5" y="-590.3" font-family="Times,serif" font-size="14.00">enkf_mod</text>
</a>
</g>
</g>
<!-- enkf_mod&#45;&gt;gridstatevector_mod -->
<g id="edge16" class="edge">
<title>enkf_mod&#45;&gt;gridstatevector_mod</title>
<path fill="none" stroke="black" d="M806.5,-567.78C806.5,-539.39 806.5,-491.89 806.5,-451 806.5,-451 806.5,-451 806.5,-161 806.5,-120.55 795.05,-98.62 825.5,-72 872.45,-30.96 1294.37,-21.65 1456.99,-19.58"/>
<ellipse fill="black" stroke="black" cx="806.5" cy="-571.95" rx="4" ry="4"/>
</g>
<!-- ensemblestatevector_mod -->
<g id="node18" class="node">
<title>ensemblestatevector_mod</title>
<g id="a_node18"><a xlink:href="../modules/ensemblestatevector_mod_rev.svg" xlink:title="ensemblestatevector_mod">
<polygon fill="none" stroke="blue" points="990.5,-108 834.5,-108 834.5,-72 990.5,-72 990.5,-108"/>
<text text-anchor="middle" x="912.5" y="-86.3" font-family="Times,serif" font-size="14.00">ensemblestatevector_mod</text>
</a>
</g>
</g>
<!-- ensemblestatevector_mod&#45;&gt;gridstatevector_mod -->
<g id="edge17" class="edge">
<title>ensemblestatevector_mod&#45;&gt;gridstatevector_mod</title>
<path fill="none" stroke="black" d="M998.96,-72.82C1000.82,-72.54 1002.67,-72.26 1004.5,-72 1166.74,-48.72 1359.1,-31.75 1456.75,-23.89"/>
<ellipse fill="black" stroke="black" cx="994.68" cy="-73.49" rx="4" ry="4"/>
</g>
<!-- enspostprocess_mod -->
<g id="node19" class="node">
<title>enspostprocess_mod</title>
<g id="a_node19"><a xlink:href="../modules/enspostprocess_mod_rev.svg" xlink:title="enspostprocess_mod">
<polygon fill="none" stroke="blue" points="1028.5,-180 900.5,-180 900.5,-144 1028.5,-144 1028.5,-180"/>
<text text-anchor="middle" x="964.5" y="-158.3" font-family="Times,serif" font-size="14.00">enspostprocess_mod</text>
</a>
</g>
</g>
<!-- enspostprocess_mod&#45;&gt;gridstatevector_mod -->
<g id="edge18" class="edge">
<title>enspostprocess_mod&#45;&gt;gridstatevector_mod</title>
<path fill="none" stroke="black" d="M978.46,-136.78C991.96,-115.81 1014.47,-86.62 1042.5,-72 1113.1,-35.17 1343.88,-23.8 1456.93,-20.4"/>
<ellipse fill="black" stroke="black" cx="976.18" cy="-140.43" rx="4" ry="4"/>
</g>
<!-- fsoi_mod -->
<g id="node20" class="node">
<title>fsoi_mod</title>
<g id="a_node20"><a xlink:href="../modules/fsoi_mod_rev.svg" xlink:title="fsoi_mod">
<polygon fill="none" stroke="blue" points="1066.5,-252 998.5,-252 998.5,-216 1066.5,-216 1066.5,-252"/>
<text text-anchor="middle" x="1032.5" y="-230.3" font-family="Times,serif" font-size="14.00">fsoi_mod</text>
</a>
</g>
</g>
<!-- fsoi_mod&#45;&gt;gridstatevector_mod -->
<g id="edge19" class="edge">
<title>fsoi_mod&#45;&gt;gridstatevector_mod</title>
<path fill="none" stroke="black" d="M1036.57,-207.86C1043.7,-167.15 1059.68,-89.55 1080.5,-72 1136.02,-25.2 1348.86,-18.6 1456.85,-18.36"/>
<ellipse fill="black" stroke="black" cx="1035.86" cy="-212.01" rx="4" ry="4"/>
</g>
<!-- gridbinning_mod -->
<g id="node21" class="node">
<title>gridbinning_mod</title>
<g id="a_node21"><a xlink:href="../modules/gridbinning_mod_rev.svg" xlink:title="gridbinning_mod">
<polygon fill="none" stroke="blue" points="1104.5,-324 994.5,-324 994.5,-288 1104.5,-288 1104.5,-324"/>
<text text-anchor="middle" x="1049.5" y="-302.3" font-family="Times,serif" font-size="14.00">gridbinning_mod</text>
</a>
</g>
</g>
<!-- gridbinning_mod&#45;&gt;gridstatevector_mod -->
<g id="edge20" class="edge">
<title>gridbinning_mod&#45;&gt;gridstatevector_mod</title>
<path fill="none" stroke="black" d="M1062.97,-280.42C1067.4,-271.64 1072.07,-261.55 1075.5,-252 1103.34,-174.6 1057.41,-127.08 1118.5,-72 1166.99,-28.28 1356.28,-20.09 1456.86,-18.9"/>
<ellipse fill="black" stroke="black" cx="1061.01" cy="-284.21" rx="4" ry="4"/>
</g>
<!-- gridstatevectorfileio_mod -->
<g id="node22" class="node">
<title>gridstatevectorfileio_mod</title>
<g id="a_node22"><a xlink:href="../modules/gridstatevectorfileio_mod_rev.svg" xlink:title="gridstatevectorfileio_mod">
<polygon fill="none" stroke="blue" points="1142,-396 987,-396 987,-360 1142,-360 1142,-396"/>
<text text-anchor="middle" x="1064.5" y="-374.3" font-family="Times,serif" font-size="14.00">gridstatevectorfileio_mod</text>
</a>
</g>
</g>
<!-- gridstatevectorfileio_mod&#45;&gt;gridstatevector_mod -->
<g id="edge21" class="edge">
<title>gridstatevectorfileio_mod&#45;&gt;gridstatevector_mod</title>
<path fill="none" stroke="black" d="M1090.71,-354.11C1099.15,-345.46 1107.78,-335.03 1113.5,-324 1132.12,-288.09 1132.5,-275.45 1132.5,-235 1132.5,-235 1132.5,-235 1132.5,-161 1132.5,-120.03 1125.86,-99.2 1156.5,-72 1199.84,-33.53 1364.69,-22.97 1456.97,-20.08"/>
<ellipse fill="black" stroke="black" cx="1087.79" cy="-356.99" rx="4" ry="4"/>
</g>
<!-- gridvariabletransforms_mod -->
<g id="node23" class="node">
<title>gridvariabletransforms_mod</title>
<g id="a_node23"><a xlink:href="../modules/gridvariabletransforms_mod_rev.svg" xlink:title="gridvariabletransforms_mod">
<polygon fill="none" stroke="blue" points="1180.5,-468 1010.5,-468 1010.5,-432 1180.5,-432 1180.5,-468"/>
<text text-anchor="middle" x="1095.5" y="-446.3" font-family="Times,serif" font-size="14.00">gridvariabletransforms_mod</text>
</a>
</g>
</g>
<!-- gridvariabletransforms_mod&#45;&gt;gridstatevector_mod -->
<g id="edge22" class="edge">
<title>gridvariabletransforms_mod&#45;&gt;gridstatevector_mod</title>
<path fill="none" stroke="black" d="M1124.85,-426.63C1134.33,-418.01 1144.05,-407.47 1150.5,-396 1170.38,-360.67 1170.5,-347.54 1170.5,-307 1170.5,-307 1170.5,-307 1170.5,-161 1170.5,-120.03 1164.09,-99.45 1194.5,-72 1232.12,-38.05 1373.19,-25.71 1456.93,-21.33"/>
<ellipse fill="black" stroke="black" cx="1121.7" cy="-429.37" rx="4" ry="4"/>
</g>
<!-- humiditylimits_mod -->
<g id="node24" class="node">
<title>humiditylimits_mod</title>
<g id="a_node24"><a xlink:href="../modules/humiditylimits_mod_rev.svg" xlink:title="humiditylimits_mod">
<polygon fill="none" stroke="blue" points="1218.5,-540 1090.5,-540 1090.5,-504 1218.5,-504 1218.5,-540"/>
<text text-anchor="middle" x="1154.5" y="-518.3" font-family="Times,serif" font-size="14.00">humiditylimits_mod</text>
</a>
</g>
</g>
<!-- humiditylimits_mod&#45;&gt;gridstatevector_mod -->
<g id="edge23" class="edge">
<title>humiditylimits_mod&#45;&gt;gridstatevector_mod</title>
<path fill="none" stroke="black" d="M1173.01,-497.12C1179.04,-488.36 1185.26,-478.11 1189.5,-468 1205.14,-430.7 1208.5,-419.45 1208.5,-379 1208.5,-379 1208.5,-379 1208.5,-161 1208.5,-120.03 1202.38,-99.77 1232.5,-72 1264.46,-42.54 1382.23,-28.79 1456.9,-22.91"/>
<ellipse fill="black" stroke="black" cx="1170.57" cy="-500.53" rx="4" ry="4"/>
</g>
<!-- increment_mod -->
<g id="node25" class="node">
<title>increment_mod</title>
<g id="a_node25"><a xlink:href="../modules/increment_mod_rev.svg" xlink:title="increment_mod">
<polygon fill="none" stroke="blue" points="1297,-612 1196,-612 1196,-576 1297,-576 1297,-612"/>
<text text-anchor="middle" x="1246.5" y="-590.3" font-family="Times,serif" font-size="14.00">increment_mod</text>
</a>
</g>
</g>
<!-- increment_mod&#45;&gt;gridstatevector_mod -->
<g id="edge24" class="edge">
<title>increment_mod&#45;&gt;gridstatevector_mod</title>
<path fill="none" stroke="black" d="M1246.5,-567.78C1246.5,-539.39 1246.5,-491.89 1246.5,-451 1246.5,-451 1246.5,-451 1246.5,-161 1246.5,-120.55 1236.82,-100.52 1265.5,-72 1291.95,-45.69 1390.24,-31.28 1456.77,-24.36"/>
<ellipse fill="black" stroke="black" cx="1246.5" cy="-571.95" rx="4" ry="4"/>
</g>
<!-- innovation_mod -->
<g id="node26" class="node">
<title>innovation_mod</title>
<g id="a_node26"><a xlink:href="../modules/innovation_mod_rev.svg" xlink:title="innovation_mod">
<polygon fill="none" stroke="blue" points="1378.5,-108 1274.5,-108 1274.5,-72 1378.5,-72 1378.5,-108"/>
<text text-anchor="middle" x="1326.5" y="-86.3" font-family="Times,serif" font-size="14.00">innovation_mod</text>
</a>
</g>
</g>
<!-- innovation_mod&#45;&gt;gridstatevector_mod -->
<g id="edge25" class="edge">
<title>innovation_mod&#45;&gt;gridstatevector_mod</title>
<path fill="none" stroke="black" d="M1381.55,-69.14C1410.46,-58.71 1445.52,-46.05 1473.2,-36.07"/>
<ellipse fill="black" stroke="black" cx="1377.72" cy="-70.52" rx="4" ry="4"/>
</g>
<!-- interpolation_mod -->
<g id="node27" class="node">
<title>interpolation_mod</title>
<g id="a_node27"><a xlink:href="../modules/interpolation_mod_rev.svg" xlink:title="interpolation_mod">
<polygon fill="none" stroke="blue" points="1416.5,-180 1300.5,-180 1300.5,-144 1416.5,-144 1416.5,-180"/>
<text text-anchor="middle" x="1358.5" y="-158.3" font-family="Times,serif" font-size="14.00">interpolation_mod</text>
</a>
</g>
</g>
<!-- interpolation_mod&#45;&gt;gridstatevector_mod -->
<g id="edge26" class="edge">
<title>interpolation_mod&#45;&gt;gridstatevector_mod</title>
<path fill="none" stroke="black" d="M1374.28,-137.04C1387.68,-117.89 1408.24,-91.18 1430.5,-72 1446.84,-57.91 1467.44,-45.47 1484.8,-36.19"/>
<ellipse fill="black" stroke="black" cx="1371.94" cy="-140.43" rx="4" ry="4"/>
</g>
<!-- lambmatrixhi_mod -->
<g id="node28" class="node">
<title>lambmatrixhi_mod</title>
<g id="a_node28"><a xlink:href="../modules/lambmatrixhi_mod_rev.svg" xlink:title="lambmatrixhi_mod">
<polygon fill="none" stroke="blue" points="1454.5,-252 1334.5,-252 1334.5,-216 1454.5,-216 1454.5,-252"/>
<text text-anchor="middle" x="1394.5" y="-230.3" font-family="Times,serif" font-size="14.00">lambmatrixhi_mod</text>
</a>
</g>
</g>
<!-- lambmatrixhi_mod&#45;&gt;gridstatevector_mod -->
<g id="edge27" class="edge">
<title>lambmatrixhi_mod&#45;&gt;gridstatevector_mod</title>
<path fill="none" stroke="black" d="M1409.8,-208.62C1415.07,-199.76 1420.82,-189.58 1425.5,-180 1448.16,-133.57 1440.3,-115.29 1468.5,-72 1477.22,-58.61 1489.7,-45.75 1500.24,-36.06"/>
<ellipse fill="black" stroke="black" cx="1407.58" cy="-212.27" rx="4" ry="4"/>
</g>
<!-- menetrierdiag_mod -->
<g id="node29" class="node">
<title>menetrierdiag_mod</title>
<g id="a_node29"><a xlink:href="../modules/menetrierdiag_mod_rev.svg" xlink:title="menetrierdiag_mod">
<polygon fill="none" stroke="blue" points="1492.5,-324 1370.5,-324 1370.5,-288 1492.5,-288 1492.5,-324"/>
<text text-anchor="middle" x="1431.5" y="-302.3" font-family="Times,serif" font-size="14.00">menetrierdiag_mod</text>
</a>
</g>
</g>
<!-- menetrierdiag_mod&#45;&gt;gridstatevector_mod -->
<g id="edge28" class="edge">
<title>menetrierdiag_mod&#45;&gt;gridstatevector_mod</title>
<path fill="none" stroke="black" d="M1448.39,-280.61C1453.83,-271.89 1459.49,-261.79 1463.5,-252 1494.68,-175.89 1486.44,-151.77 1506.5,-72 1509.52,-60 1513.08,-46.52 1515.86,-36.16"/>
<ellipse fill="black" stroke="black" cx="1446.07" cy="-284.21" rx="4" ry="4"/>
</g>
<!-- minimization_mod -->
<g id="node30" class="node">
<title>minimization_mod</title>
<g id="a_node30"><a xlink:href="../modules/minimization_mod_rev.svg" xlink:title="minimization_mod">
<polygon fill="none" stroke="blue" points="1530,-396 1409,-396 1409,-360 1530,-360 1530,-396"/>
<text text-anchor="middle" x="1469.5" y="-374.3" font-family="Times,serif" font-size="14.00">minimization_mod</text>
</a>
</g>
</g>
<!-- minimization_mod&#45;&gt;gridstatevector_mod -->
<g id="edge29" class="edge">
<title>minimization_mod&#45;&gt;gridstatevector_mod</title>
<path fill="none" stroke="black" d="M1486.52,-352.66C1491.98,-343.95 1497.61,-333.84 1501.5,-324 1516.38,-286.39 1520.5,-275.45 1520.5,-235 1520.5,-235 1520.5,-235 1520.5,-161 1520.5,-115.89 1520.5,-62.71 1520.5,-36.05"/>
<ellipse fill="black" stroke="black" cx="1484.19" cy="-356.26" rx="4" ry="4"/>
</g>
<!-- obserrors_mod -->
<g id="node31" class="node">
<title>obserrors_mod</title>
<g id="a_node31"><a xlink:href="../modules/obserrors_mod_rev.svg" xlink:title="obserrors_mod">
<polygon fill="none" stroke="blue" points="1568.5,-468 1470.5,-468 1470.5,-432 1568.5,-432 1568.5,-468"/>
<text text-anchor="middle" x="1519.5" y="-446.3" font-family="Times,serif" font-size="14.00">obserrors_mod</text>
</a>
</g>
</g>
<!-- obserrors_mod&#45;&gt;gridstatevector_mod -->
<g id="edge30" class="edge">
<title>obserrors_mod&#45;&gt;gridstatevector_mod</title>
<path fill="none" stroke="black" d="M1530.64,-424.25C1542.17,-396.35 1558.5,-349.35 1558.5,-307 1558.5,-307 1558.5,-307 1558.5,-161 1558.5,-114.55 1539.29,-62.38 1528.19,-36.09"/>
<ellipse fill="black" stroke="black" cx="1528.95" cy="-428.24" rx="4" ry="4"/>
</g>
<!-- obsspacediag_mod -->
<g id="node32" class="node">
<title>obsspacediag_mod</title>
<g id="a_node32"><a xlink:href="../modules/obsspacediag_mod_rev.svg" xlink:title="obsspacediag_mod">
<polygon fill="none" stroke="blue" points="1606,-540 1487,-540 1487,-504 1606,-504 1606,-540"/>
<text text-anchor="middle" x="1546.5" y="-518.3" font-family="Times,serif" font-size="14.00">obsspacediag_mod</text>
</a>
</g>
</g>
<!-- obsspacediag_mod&#45;&gt;gridstatevector_mod -->
<g id="edge31" class="edge">
<title>obsspacediag_mod&#45;&gt;gridstatevector_mod</title>
<path fill="none" stroke="black" d="M1562.96,-496.6C1568.25,-487.88 1573.71,-477.78 1577.5,-468 1592.12,-430.29 1596.5,-419.45 1596.5,-379 1596.5,-379 1596.5,-379 1596.5,-161 1596.5,-110.95 1559.34,-61.47 1536.99,-36.23"/>
<ellipse fill="black" stroke="black" cx="1560.73" cy="-500.18" rx="4" ry="4"/>
</g>
<!-- obsspaceerrorstddev_mod -->
<g id="node33" class="node">
<title>obsspaceerrorstddev_mod</title>
<g id="a_node33"><a xlink:href="../modules/obsspaceerrorstddev_mod_rev.svg" xlink:title="obsspaceerrorstddev_mod">
<polygon fill="none" stroke="blue" points="1713,-612 1556,-612 1556,-576 1713,-576 1713,-612"/>
<text text-anchor="middle" x="1634.5" y="-590.3" font-family="Times,serif" font-size="14.00">obsspaceerrorstddev_mod</text>
</a>
</g>
</g>
<!-- obsspaceerrorstddev_mod&#45;&gt;gridstatevector_mod -->
<g id="edge32" class="edge">
<title>obsspaceerrorstddev_mod&#45;&gt;gridstatevector_mod</title>
<path fill="none" stroke="black" d="M1634.5,-567.78C1634.5,-539.39 1634.5,-491.89 1634.5,-451 1634.5,-451 1634.5,-451 1634.5,-161 1634.5,-105.67 1581.23,-59.63 1547.52,-36.04"/>
<ellipse fill="black" stroke="black" cx="1634.5" cy="-571.95" rx="4" ry="4"/>
</g>
<!-- oceanbackground_mod -->
<g id="node34" class="node">
<title>oceanbackground_mod</title>
<g id="a_node34"><a xlink:href="../modules/oceanbackground_mod_rev.svg" xlink:title="oceanbackground_mod">
<polygon fill="none" stroke="blue" points="1806,-108 1663,-108 1663,-72 1806,-72 1806,-108"/>
<text text-anchor="middle" x="1734.5" y="-86.3" font-family="Times,serif" font-size="14.00">oceanbackground_mod</text>
</a>
</g>
</g>
<!-- oceanbackground_mod&#45;&gt;gridstatevector_mod -->
<g id="edge33" class="edge">
<title>oceanbackground_mod&#45;&gt;gridstatevector_mod</title>
<path fill="none" stroke="black" d="M1674.45,-69.36C1642.48,-58.9 1603.53,-46.16 1572.81,-36.11"/>
<ellipse fill="black" stroke="black" cx="1678.62" cy="-70.72" rx="4" ry="4"/>
</g>
<!-- oceanobservations_mod -->
<g id="node35" class="node">
<title>oceanobservations_mod</title>
<g id="a_node35"><a xlink:href="../modules/oceanobservations_mod_rev.svg" xlink:title="oceanobservations_mod">
<polygon fill="none" stroke="blue" points="1844.5,-180 1698.5,-180 1698.5,-144 1844.5,-144 1844.5,-180"/>
<text text-anchor="middle" x="1771.5" y="-158.3" font-family="Times,serif" font-size="14.00">oceanobservations_mod</text>
</a>
</g>
</g>
<!-- oceanobservations_mod&#45;&gt;gridstatevector_mod -->
<g id="edge34" class="edge">
<title>oceanobservations_mod&#45;&gt;gridstatevector_mod</title>
<path fill="none" stroke="black" d="M1796.3,-137.69C1813.61,-118.6 1830.91,-91.64 1814.5,-72 1785.73,-37.58 1661.58,-25.48 1584.1,-21.25"/>
<ellipse fill="black" stroke="black" cx="1793.23" cy="-140.93" rx="4" ry="4"/>
</g>
<!-- ominusf_mod -->
<g id="node36" class="node">
<title>ominusf_mod</title>
<g id="a_node36"><a xlink:href="../modules/ominusf_mod_rev.svg" xlink:title="ominusf_mod">
<polygon fill="none" stroke="blue" points="1882,-252 1789,-252 1789,-216 1882,-216 1882,-252"/>
<text text-anchor="middle" x="1835.5" y="-230.3" font-family="Times,serif" font-size="14.00">ominusf_mod</text>
</a>
</g>
</g>
<!-- ominusf_mod&#45;&gt;gridstatevector_mod -->
<g id="edge35" class="edge">
<title>ominusf_mod&#45;&gt;gridstatevector_mod</title>
<path fill="none" stroke="black" d="M1845.83,-208.09C1848.95,-199.36 1851.95,-189.4 1853.5,-180 1861.47,-131.75 1869.02,-104.52 1832.5,-72 1796.65,-40.07 1664.36,-27.04 1584,-21.98"/>
<ellipse fill="black" stroke="black" cx="1844.38" cy="-211.96" rx="4" ry="4"/>
</g>
<!-- sstbias_mod -->
<g id="node37" class="node">
<title>sstbias_mod</title>
<g id="a_node37"><a xlink:href="../modules/sstbias_mod_rev.svg" xlink:title="sstbias_mod">
<polygon fill="none" stroke="blue" points="1920,-324 1837,-324 1837,-288 1920,-288 1920,-324"/>
<text text-anchor="middle" x="1878.5" y="-302.3" font-family="Times,serif" font-size="14.00">sstbias_mod</text>
</a>
</g>
</g>
<!-- sstbias_mod&#45;&gt;gridstatevector_mod -->
<g id="edge36" class="edge">
<title>sstbias_mod&#45;&gt;gridstatevector_mod</title>
<path fill="none" stroke="black" d="M1885.81,-279.98C1898.18,-231.77 1916.68,-126.01 1859.5,-72 1820.85,-35.49 1671.28,-24.13 1584.27,-20.59"/>
<ellipse fill="black" stroke="black" cx="1884.77" cy="-283.88" rx="4" ry="4"/>
</g>
<!-- statetocolumn_mod -->
<g id="node38" class="node">
<title>statetocolumn_mod</title>
<g id="a_node38"><a xlink:href="../modules/statetocolumn_mod_rev.svg" xlink:title="statetocolumn_mod">
<polygon fill="none" stroke="blue" points="1958.5,-396 1834.5,-396 1834.5,-360 1958.5,-360 1958.5,-396"/>
<text text-anchor="middle" x="1896.5" y="-374.3" font-family="Times,serif" font-size="14.00">statetocolumn_mod</text>
</a>
</g>
</g>
<!-- statetocolumn_mod&#45;&gt;gridstatevector_mod -->
<g id="edge37" class="edge">
<title>statetocolumn_mod&#45;&gt;gridstatevector_mod</title>
<path fill="none" stroke="black" d="M1913.46,-352.64C1918.91,-343.92 1924.55,-333.82 1928.5,-324 1943.62,-286.38 1948.5,-275.54 1948.5,-235 1948.5,-235 1948.5,-235 1948.5,-161 1948.5,-112.79 1927.52,-97.32 1886.5,-72 1837.19,-41.56 1675.47,-27.7 1584.36,-22.17"/>
<ellipse fill="black" stroke="black" cx="1911.14" cy="-356.24" rx="4" ry="4"/>
</g>
<!-- thinning_mod -->
<g id="node39" class="node">
<title>thinning_mod</title>
<g id="a_node39"><a xlink:href="../modules/thinning_mod_rev.svg" xlink:title="thinning_mod">
<polygon fill="none" stroke="blue" points="1996.5,-468 1904.5,-468 1904.5,-432 1996.5,-432 1996.5,-468"/>
<text text-anchor="middle" x="1950.5" y="-446.3" font-family="Times,serif" font-size="14.00">thinning_mod</text>
</a>
</g>
</g>
<!-- thinning_mod&#45;&gt;gridstatevector_mod -->
<g id="edge38" class="edge">
<title>thinning_mod&#45;&gt;gridstatevector_mod</title>
<path fill="none" stroke="black" d="M1960.79,-424.16C1971.43,-396.19 1986.5,-349.13 1986.5,-307 1986.5,-307 1986.5,-307 1986.5,-161 1986.5,-112.79 1965.69,-97.05 1924.5,-72 1868.74,-38.09 1683.51,-25.53 1584.39,-21.16"/>
<ellipse fill="black" stroke="black" cx="1959.24" cy="-428.14" rx="4" ry="4"/>
</g>
<!-- var1d_mod -->
<g id="node40" class="node">
<title>var1d_mod</title>
<g id="a_node40"><a xlink:href="../modules/var1d_mod_rev.svg" xlink:title="var1d_mod">
<polygon fill="none" stroke="blue" points="2034,-540 1957,-540 1957,-504 2034,-504 2034,-540"/>
<text text-anchor="middle" x="1995.5" y="-518.3" font-family="Times,serif" font-size="14.00">var1d_mod</text>
</a>
</g>
</g>
<!-- var1d_mod&#45;&gt;gridstatevector_mod -->
<g id="edge39" class="edge">
<title>var1d_mod&#45;&gt;gridstatevector_mod</title>
<path fill="none" stroke="black" d="M2003.79,-496C2012.36,-467.87 2024.5,-420.68 2024.5,-379 2024.5,-379 2024.5,-379 2024.5,-161 2024.5,-112.79 2003.83,-96.82 1962.5,-72 1900.22,-34.6 1691.04,-23.55 1584.31,-20.31"/>
<ellipse fill="black" stroke="black" cx="2002.56" cy="-499.93" rx="4" ry="4"/>
</g>
<!-- midas_midas_adjointtest -->
<g id="node41" class="node">
<title>midas_midas_adjointtest</title>
<g id="a_node41"><a xlink:href="../programs/midas_adjointtest.html" xlink:title="midas_midas_adjointtest">
<polygon fill="gray" stroke="green" points="2138.5,-612 1986.5,-612 1986.5,-576 2138.5,-576 2138.5,-612"/>
<text text-anchor="middle" x="2062.5" y="-590.3" font-family="Times,serif" font-size="14.00">midas_midas_adjointtest</text>
</a>
</g>
</g>
<!-- midas_midas_adjointtest&#45;&gt;gridstatevector_mod -->
<g id="edge40" class="edge">
<title>midas_midas_adjointtest&#45;&gt;gridstatevector_mod</title>
<path fill="none" stroke="black" d="M2062.5,-567.78C2062.5,-539.39 2062.5,-491.89 2062.5,-451 2062.5,-451 2062.5,-451 2062.5,-161 2062.5,-112.79 2041.94,-96.63 2000.5,-72 1931.67,-31.1 1698.35,-21.73 1584.31,-19.6"/>
<ellipse fill="black" stroke="black" cx="2062.5" cy="-571.95" rx="4" ry="4"/>
</g>
<!-- midas_midas_analysiserroroi -->
<g id="node42" class="node">
<title>midas_midas_analysiserroroi</title>
<g id="a_node42"><a xlink:href="../programs/midas_analysiserroroi.html" xlink:title="midas_midas_analysiserroroi">
<polygon fill="gray" stroke="green" points="2266.5,-108 2090.5,-108 2090.5,-72 2266.5,-72 2266.5,-108"/>
<text text-anchor="middle" x="2178.5" y="-86.3" font-family="Times,serif" font-size="14.00">midas_midas_analysiserroroi</text>
</a>
</g>
</g>
<!-- midas_midas_analysiserroroi&#45;&gt;gridstatevector_mod -->
<g id="edge41" class="edge">
<title>midas_midas_analysiserroroi&#45;&gt;gridstatevector_mod</title>
<path fill="none" stroke="black" d="M2082.08,-72.75C2080.21,-72.49 2078.34,-72.24 2076.5,-72 1898.63,-48.73 1687.48,-31.41 1584.03,-23.6"/>
<ellipse fill="black" stroke="black" cx="2086.41" cy="-73.36" rx="4" ry="4"/>
</g>
<!-- midas_midas_calcstats -->
<g id="node43" class="node">
<title>midas_midas_calcstats</title>
<g id="a_node43"><a xlink:href="../programs/midas_calcstats.html" xlink:title="midas_midas_calcstats">
<polygon fill="gray" stroke="green" points="2304.5,-180 2162.5,-180 2162.5,-144 2304.5,-144 2304.5,-180"/>
<text text-anchor="middle" x="2233.5" y="-158.3" font-family="Times,serif" font-size="14.00">midas_midas_calcstats</text>
</a>
</g>
</g>
<!-- midas_midas_calcstats&#45;&gt;gridstatevector_mod -->
<g id="edge42" class="edge">
<title>midas_midas_calcstats&#45;&gt;gridstatevector_mod</title>
<path fill="none" stroke="black" d="M2257.89,-137.77C2275.39,-118.33 2293.06,-90.83 2275.5,-72 2228.8,-21.9 1757.35,-18.25 1584.01,-18.62"/>
<ellipse fill="black" stroke="black" cx="2254.99" cy="-140.86" rx="4" ry="4"/>
</g>
<!-- midas_midas_diagbmatrix -->
<g id="node44" class="node">
<title>midas_midas_diagbmatrix</title>
<g id="a_node44"><a xlink:href="../programs/midas_diagbmatrix.html" xlink:title="midas_midas_diagbmatrix">
<polygon fill="gray" stroke="green" points="2342,-252 2181,-252 2181,-216 2342,-216 2342,-252"/>
<text text-anchor="middle" x="2261.5" y="-230.3" font-family="Times,serif" font-size="14.00">midas_midas_diagbmatrix</text>
</a>
</g>
</g>
<!-- midas_midas_diagbmatrix&#45;&gt;gridstatevector_mod -->
<g id="edge43" class="edge">
<title>midas_midas_diagbmatrix&#45;&gt;gridstatevector_mod</title>
<path fill="none" stroke="black" d="M2291.37,-210.37C2300.21,-201.92 2308.79,-191.54 2313.5,-180 2331.97,-134.81 2331.33,-102.85 2293.5,-72 2239.1,-27.63 1759.43,-20.38 1584.22,-19.22"/>
<ellipse fill="black" stroke="black" cx="2288.22" cy="-213.23" rx="4" ry="4"/>
</g>
<!-- midas_midas_diaghbht -->
<g id="node45" class="node">
<title>midas_midas_diaghbht</title>
<g id="a_node45"><a xlink:href="../programs/midas_diaghbht.html" xlink:title="midas_midas_diaghbht">
<polygon fill="gray" stroke="green" points="2380,-324 2237,-324 2237,-288 2380,-288 2380,-324"/>
<text text-anchor="middle" x="2308.5" y="-302.3" font-family="Times,serif" font-size="14.00">midas_midas_diaghbht</text>
</a>
</g>
</g>
<!-- midas_midas_diaghbht&#45;&gt;gridstatevector_mod -->
<g id="edge44" class="edge">
<title>midas_midas_diaghbht&#45;&gt;gridstatevector_mod</title>
<path fill="none" stroke="black" d="M2332.6,-281.57C2339.79,-273.01 2346.75,-262.78 2350.5,-252 2369.54,-197.31 2357.37,-103.4 2321.5,-72 2266.51,-23.86 1763.91,-19.03 1584.1,-18.85"/>
<ellipse fill="black" stroke="black" cx="2329.76" cy="-284.76" rx="4" ry="4"/>
</g>
<!-- midas_midas_ensembleh -->
<g id="node46" class="node">
<title>midas_midas_ensembleh</title>
<g id="a_node46"><a xlink:href="../programs/midas_ensembleh.html" xlink:title="midas_midas_ensembleh">
<polygon fill="gray" stroke="green" points="2418.5,-396 2264.5,-396 2264.5,-360 2418.5,-360 2418.5,-396"/>
<text text-anchor="middle" x="2341.5" y="-374.3" font-family="Times,serif" font-size="14.00">midas_midas_ensembleh</text>
</a>
</g>
</g>
<!-- midas_midas_ensembleh&#45;&gt;gridstatevector_mod -->
<g id="edge45" class="edge">
<title>midas_midas_ensembleh&#45;&gt;gridstatevector_mod</title>
<path fill="none" stroke="black" d="M2366.79,-353.66C2374.8,-345.04 2383,-334.75 2388.5,-324 2406.98,-287.91 2408.5,-275.54 2408.5,-235 2408.5,-235 2408.5,-235 2408.5,-161 2408.5,-113.05 2389.19,-95.7 2347.5,-72 2281.8,-34.65 1766.79,-22.91 1584.32,-19.9"/>
<ellipse fill="black" stroke="black" cx="2363.81" cy="-356.74" rx="4" ry="4"/>
</g>
<!-- midas_midas_enspostprocess -->
<g id="node47" class="node">
<title>midas_midas_enspostprocess</title>
<g id="a_node47"><a xlink:href="../programs/midas_enspostprocess.html" xlink:title="midas_midas_enspostprocess">
<polygon fill="gray" stroke="green" points="2456.5,-468 2280.5,-468 2280.5,-432 2456.5,-432 2456.5,-468"/>
<text text-anchor="middle" x="2368.5" y="-446.3" font-family="Times,serif" font-size="14.00">midas_midas_enspostprocess</text>
</a>
</g>
</g>
<!-- midas_midas_enspostprocess&#45;&gt;gridstatevector_mod -->
<g id="edge46" class="edge">
<title>midas_midas_enspostprocess&#45;&gt;gridstatevector_mod</title>
<path fill="none" stroke="black" d="M2400.29,-426.84C2410.4,-418.3 2420.7,-407.74 2427.5,-396 2447.76,-360.99 2446.5,-347.45 2446.5,-307 2446.5,-307 2446.5,-307 2446.5,-161 2446.5,-113.05 2427.22,-95.64 2385.5,-72 2316.37,-32.82 1772.31,-22.21 1584.22,-19.7"/>
<ellipse fill="black" stroke="black" cx="2397.16" cy="-429.38" rx="4" ry="4"/>
</g>
<!-- midas_midas_extractbmatrixfor1dvar -->
<g id="node48" class="node">
<title>midas_midas_extractbmatrixfor1dvar</title>
<g id="a_node48"><a xlink:href="../programs/midas_extractbmatrixfor1dvar.html" xlink:title="midas_midas_extractbmatrixfor1dvar">
<polygon fill="gray" stroke="green" points="2494,-540 2273,-540 2273,-504 2494,-504 2494,-540"/>
<text text-anchor="middle" x="2383.5" y="-518.3" font-family="Times,serif" font-size="14.00">midas_midas_extractbmatrixfor1dvar</text>
</a>
</g>
</g>
<!-- midas_midas_extractbmatrixfor1dvar&#45;&gt;gridstatevector_mod -->
<g id="edge47" class="edge">
<title>midas_midas_extractbmatrixfor1dvar&#45;&gt;gridstatevector_mod</title>
<path fill="none" stroke="black" d="M2429.73,-499.86C2443.09,-491.67 2456.49,-481.07 2465.5,-468 2488.46,-434.7 2484.5,-419.45 2484.5,-379 2484.5,-379 2484.5,-379 2484.5,-161 2484.5,-113.05 2465.25,-95.59 2423.5,-72 2350.95,-31.01 1777.97,-21.56 1584.25,-19.52"/>
<ellipse fill="black" stroke="black" cx="2426.22" cy="-501.91" rx="4" ry="4"/>
</g>
<!-- midas_midas_gencoeff -->
<g id="node49" class="node">
<title>midas_midas_gencoeff</title>
<g id="a_node49"><a xlink:href="../programs/midas_gencoeff.html" xlink:title="midas_midas_gencoeff">
<polygon fill="gray" stroke="green" points="2594,-612 2451,-612 2451,-576 2594,-576 2594,-612"/>
<text text-anchor="middle" x="2522.5" y="-590.3" font-family="Times,serif" font-size="14.00">midas_midas_gencoeff</text>
</a>
</g>
</g>
<!-- midas_midas_gencoeff&#45;&gt;gridstatevector_mod -->
<g id="edge48" class="edge">
<title>midas_midas_gencoeff&#45;&gt;gridstatevector_mod</title>
<path fill="none" stroke="black" d="M2522.5,-567.78C2522.5,-539.39 2522.5,-491.89 2522.5,-451 2522.5,-451 2522.5,-451 2522.5,-161 2522.5,-113.05 2503.28,-95.54 2461.5,-72 2385.5,-29.18 1783.16,-20.92 1584.1,-19.36"/>
<ellipse fill="black" stroke="black" cx="2522.5" cy="-571.95" rx="4" ry="4"/>
</g>
<!-- midas_midas_letkf -->
<g id="node50" class="node">
<title>midas_midas_letkf</title>
<g id="a_node50"><a xlink:href="../programs/midas_letkf.html" xlink:title="midas_midas_letkf">
<polygon fill="gray" stroke="green" points="2672.5,-108 2550.5,-108 2550.5,-72 2672.5,-72 2672.5,-108"/>
<text text-anchor="middle" x="2611.5" y="-86.3" font-family="Times,serif" font-size="14.00">midas_midas_letkf</text>
</a>
</g>
</g>
<!-- midas_midas_letkf&#45;&gt;gridstatevector_mod -->
<g id="edge49" class="edge">
<title>midas_midas_letkf&#45;&gt;gridstatevector_mod</title>
<path fill="none" stroke="black" d="M2542.04,-72.82C2540.17,-72.53 2538.33,-72.25 2536.5,-72 2178.92,-22.52 1744.74,-18.26 1584.16,-18.56"/>
<ellipse fill="black" stroke="black" cx="2546.32" cy="-73.55" rx="4" ry="4"/>
</g>
<!-- midas_midas_obsimpact -->
<g id="node51" class="node">
<title>midas_midas_obsimpact</title>
<g id="a_node51"><a xlink:href="../programs/midas_obsimpact.html" xlink:title="midas_midas_obsimpact">
<polygon fill="gray" stroke="green" points="2710.5,-180 2558.5,-180 2558.5,-144 2710.5,-144 2710.5,-180"/>
<text text-anchor="middle" x="2634.5" y="-158.3" font-family="Times,serif" font-size="14.00">midas_midas_obsimpact</text>
</a>
</g>
</g>
<!-- midas_midas_obsimpact&#45;&gt;gridstatevector_mod -->
<g id="edge50" class="edge">
<title>midas_midas_obsimpact&#45;&gt;gridstatevector_mod</title>
<path fill="none" stroke="black" d="M2660.8,-138.13C2680.01,-118.74 2699.77,-91.12 2681.5,-72 2643.37,-32.08 1821.76,-21.68 1584.26,-19.5"/>
<ellipse fill="black" stroke="black" cx="2657.77" cy="-141.07" rx="4" ry="4"/>
</g>
<!-- midas_midas_obsselection -->
<g id="node52" class="node">
<title>midas_midas_obsselection</title>
<g id="a_node52"><a xlink:href="../programs/midas_obsselection.html" xlink:title="midas_midas_obsselection">
<polygon fill="gray" stroke="green" points="2748,-252 2585,-252 2585,-216 2748,-216 2748,-252"/>
<text text-anchor="middle" x="2666.5" y="-230.3" font-family="Times,serif" font-size="14.00">midas_midas_obsselection</text>
</a>
</g>
</g>
<!-- midas_midas_obsselection&#45;&gt;gridstatevector_mod -->
<g id="edge51" class="edge">
<title>midas_midas_obsselection&#45;&gt;gridstatevector_mod</title>
<path fill="none" stroke="black" d="M2697.16,-210.26C2706.09,-201.85 2714.73,-191.53 2719.5,-180 2738.18,-134.9 2737.69,-102.41 2699.5,-72 2655.59,-37.04 1823.04,-23.1 1584.11,-19.81"/>
<ellipse fill="black" stroke="black" cx="2693.96" cy="-213.11" rx="4" ry="4"/>
</g>
<!-- midas_midas_pseudosstobs -->
<g id="node53" class="node">
<title>midas_midas_pseudosstobs</title>
<g id="a_node53"><a xlink:href="../programs/midas_pseudosstobs.html" xlink:title="midas_midas_pseudosstobs">
<polygon fill="gray" stroke="green" points="2787,-324 2620,-324 2620,-288 2787,-288 2787,-324"/>
<text text-anchor="middle" x="2703.5" y="-302.3" font-family="Times,serif" font-size="14.00">midas_midas_pseudosstobs</text>
</a>
</g>
</g>
<!-- midas_midas_pseudosstobs&#45;&gt;gridstatevector_mod -->
<g id="edge52" class="edge">
<title>midas_midas_pseudosstobs&#45;&gt;gridstatevector_mod</title>
<path fill="none" stroke="black" d="M2734.16,-282.26C2743.09,-273.85 2751.73,-263.53 2756.5,-252 2778.26,-199.47 2774.46,-112.2 2727.5,-72 2683.76,-34.55 1826.7,-22.35 1584.03,-19.64"/>
<ellipse fill="black" stroke="black" cx="2730.96" cy="-285.11" rx="4" ry="4"/>
</g>
<!-- midas_midas_randompert -->
<g id="node54" class="node">
<title>midas_midas_randompert</title>
<g id="a_node54"><a xlink:href="../programs/midas_randompert.html" xlink:title="midas_midas_randompert">
<polygon fill="gray" stroke="green" points="2825,-396 2666,-396 2666,-360 2825,-360 2825,-396"/>
<text text-anchor="middle" x="2745.5" y="-374.3" font-family="Times,serif" font-size="14.00">midas_midas_randompert</text>
</a>
</g>
</g>
<!-- midas_midas_randompert&#45;&gt;gridstatevector_mod -->
<g id="edge53" class="edge">
<title>midas_midas_randompert&#45;&gt;gridstatevector_mod</title>
<path fill="none" stroke="black" d="M2772.25,-354.19C2780.86,-345.55 2789.67,-335.1 2795.5,-324 2814.3,-288.19 2814.5,-275.45 2814.5,-235 2814.5,-235 2814.5,-235 2814.5,-161 2814.5,-113.54 2796.82,-95.34 2755.5,-72 2704.14,-42.99 1829.96,-24.72 1584.27,-20.14"/>
<ellipse fill="black" stroke="black" cx="2769.24" cy="-357.09" rx="4" ry="4"/>
</g>
<!-- midas_midas_sstbias -->
<g id="node55" class="node">
<title>midas_midas_sstbias</title>
<g id="a_node55"><a xlink:href="../programs/midas_sstbias.html" xlink:title="midas_midas_sstbias">
<polygon fill="gray" stroke="green" points="2862.5,-468 2730.5,-468 2730.5,-432 2862.5,-432 2862.5,-468"/>
<text text-anchor="middle" x="2796.5" y="-446.3" font-family="Times,serif" font-size="14.00">midas_midas_sstbias</text>
</a>
</g>
</g>
<!-- midas_midas_sstbias&#45;&gt;gridstatevector_mod -->
<g id="edge54" class="edge">
<title>midas_midas_sstbias&#45;&gt;gridstatevector_mod</title>
<path fill="none" stroke="black" d="M2815.91,-425.52C2822.35,-416.71 2829.01,-406.33 2833.5,-396 2849.62,-358.9 2852.5,-347.45 2852.5,-307 2852.5,-307 2852.5,-307 2852.5,-161 2852.5,-113.3 2834.14,-95.27 2792.5,-72 2739.32,-42.28 1834.07,-24.44 1584.03,-20.06"/>
<ellipse fill="black" stroke="black" cx="2813.49" cy="-428.72" rx="4" ry="4"/>
</g>
<!-- midas_midas_ssttrial -->
<g id="node56" class="node">
<title>midas_midas_ssttrial</title>
<g id="a_node56"><a xlink:href="../programs/midas_ssttrial.html" xlink:title="midas_midas_ssttrial">
<polygon fill="gray" stroke="green" points="2928.5,-540 2796.5,-540 2796.5,-504 2928.5,-504 2928.5,-540"/>
<text text-anchor="middle" x="2862.5" y="-518.3" font-family="Times,serif" font-size="14.00">midas_midas_ssttrial</text>
</a>
</g>
</g>
<!-- midas_midas_ssttrial&#45;&gt;gridstatevector_mod -->
<g id="edge55" class="edge">
<title>midas_midas_ssttrial&#45;&gt;gridstatevector_mod</title>
<path fill="none" stroke="black" d="M2870.5,-495.98C2878.78,-467.83 2890.5,-420.62 2890.5,-379 2890.5,-379 2890.5,-379 2890.5,-161 2890.5,-113.05 2871.46,-95.21 2829.5,-72 2774.52,-41.59 1838.93,-24.19 1584.13,-20"/>
<ellipse fill="black" stroke="black" cx="2869.32" cy="-499.9" rx="4" ry="4"/>
</g>
<!-- midas_midas_var1d -->
<g id="node57" class="node">
<title>midas_midas_var1d</title>
<g id="a_node57"><a xlink:href="../programs/midas_var1d.html" xlink:title="midas_midas_var1d">
<polygon fill="gray" stroke="green" points="3019.5,-612 2893.5,-612 2893.5,-576 3019.5,-576 3019.5,-612"/>
<text text-anchor="middle" x="2956.5" y="-590.3" font-family="Times,serif" font-size="14.00">midas_midas_var1d</text>
</a>
</g>
</g>
<!-- midas_midas_var1d&#45;&gt;gridstatevector_mod -->
<g id="edge56" class="edge">
<title>midas_midas_var1d&#45;&gt;gridstatevector_mod</title>
<path fill="none" stroke="black" d="M2956.5,-567.78C2956.5,-539.39 2956.5,-491.89 2956.5,-451 2956.5,-451 2956.5,-451 2956.5,-161 2956.5,-105.06 2918.75,-94.42 2867.5,-72 2749.3,-20.3 1835.4,-18.34 1584.21,-18.79"/>
<ellipse fill="black" stroke="black" cx="2956.5" cy="-571.95" rx="4" ry="4"/>
</g>
<!-- midas_midas_var -->
<g id="node58" class="node">
<title>midas_midas_var</title>
<g id="a_node58"><a xlink:href="../programs/midas_var.html" xlink:title="midas_midas_var">
<polygon fill="gray" stroke="green" points="3098,-108 2985,-108 2985,-72 3098,-72 3098,-108"/>
<text text-anchor="middle" x="3041.5" y="-86.3" font-family="Times,serif" font-size="14.00">midas_midas_var</text>
</a>
</g>
</g>
<!-- midas_midas_var&#45;&gt;gridstatevector_mod -->
<g id="edge57" class="edge">
<title>midas_midas_var&#45;&gt;gridstatevector_mod</title>
<path fill="none" stroke="black" d="M2976.67,-72.93C2974.59,-72.59 2972.53,-72.28 2970.5,-72 2696.74,-34.6 1827.38,-22.38 1584.23,-19.65"/>
<ellipse fill="black" stroke="black" cx="2980.78" cy="-73.66" rx="4" ry="4"/>
</g>
</g>
</svg>
