<?xml version="1.0" encoding="UTF-8" standalone="no"?>
<!DOCTYPE svg PUBLIC "-//W3C//DTD SVG 1.1//EN"
 "http://www.w3.org/Graphics/SVG/1.1/DTD/svg11.dtd">
<!-- Generated by graphviz version 3.0.0 (20220315.2325)
 -->
<!-- Title: gridbinning_mod Pages: 1 -->
<svg width="430pt" height="313pt"
 viewBox="0.00 0.00 430.00 313.00" xmlns="http://www.w3.org/2000/svg" xmlns:xlink="http://www.w3.org/1999/xlink">
<g id="graph0" class="graph" transform="scale(1 1) rotate(0) translate(4 309)">
<title>gridbinning_mod</title>
<polygon fill="white" stroke="transparent" points="-4,4 -4,-309 426,-309 426,4 -4,4"/>
<text text-anchor="middle" x="211" y="-289.8" font-family="Times,serif" font-size="14.00">Blue boxes indicate modules with reverse dependencies not shown</text>
<text text-anchor="middle" x="211" y="-274.8" font-family="Times,serif" font-size="14.00">Higher level reverse dependencies can be shown by clicking on a blue box</text>
<text text-anchor="middle" x="211" y="-259.8" font-family="Times,serif" font-size="14.00">Green boxes are programs</text>
<!-- gridbinning_mod -->
<g id="node1" class="node">
<title>gridbinning_mod</title>
<g id="a_node1"><a xlink:href="gridbinning_mod.html" xlink:title="gridbinning_mod">
<polygon fill="none" stroke="black" points="280.25,-36 170.25,-36 170.25,0 280.25,0 280.25,-36"/>
<text text-anchor="middle" x="225.25" y="-14.3" font-family="Times,serif" font-size="14.00">gridbinning_mod</text>
</a>
</g>
</g>
<!-- bmatrixensemble_mod -->
<g id="node2" class="node">
<title>bmatrixensemble_mod</title>
<g id="a_node2"><a xlink:href="../modules/bmatrixensemble_mod_rev.svg" xlink:title="bmatrixensemble_mod">
<polygon fill="none" stroke="blue" points="197.25,-108 57.25,-108 57.25,-72 197.25,-72 197.25,-108"/>
<text text-anchor="middle" x="127.25" y="-86.3" font-family="Times,serif" font-size="14.00">bmatrixensemble_mod</text>
</a>
</g>
</g>
<!-- bmatrixensemble_mod&#45;&gt;gridbinning_mod -->
<g id="edge1" class="edge">
<title>bmatrixensemble_mod&#45;&gt;gridbinning_mod</title>
<path fill="none" stroke="black" d="M157.87,-67.13C171.83,-57.16 188.12,-45.52 201.18,-36.19"/>
<ellipse fill="black" stroke="black" cx="154.48" cy="-69.55" rx="4" ry="4"/>
</g>
<!-- calcstatsglb_mod -->
<g id="node3" class="node">
<title>calcstatsglb_mod</title>
<g id="a_node3"><a xlink:href="../modules/calcstatsglb_mod_rev.svg" xlink:title="calcstatsglb_mod">
<polygon fill="none" stroke="blue" points="280.25,-180 170.25,-180 170.25,-144 280.25,-144 280.25,-180"/>
<text text-anchor="middle" x="225.25" y="-158.3" font-family="Times,serif" font-size="14.00">calcstatsglb_mod</text>
</a>
</g>
</g>
<!-- calcstatsglb_mod&#45;&gt;gridbinning_mod -->
<g id="edge2" class="edge">
<title>calcstatsglb_mod&#45;&gt;gridbinning_mod</title>
<path fill="none" stroke="black" d="M225.25,-135.56C225.25,-106.86 225.25,-60.96 225.25,-36.19"/>
<ellipse fill="black" stroke="black" cx="225.25" cy="-139.87" rx="4" ry="4"/>
</g>
<!-- calcstatslam_mod -->
<g id="node4" class="node">
<title>calcstatslam_mod</title>
<g id="a_node4"><a xlink:href="../modules/calcstatslam_mod_rev.svg" xlink:title="calcstatslam_mod">
<polygon fill="none" stroke="blue" points="364.75,-252 251.75,-252 251.75,-216 364.75,-216 364.75,-252"/>
<text text-anchor="middle" x="308.25" y="-230.3" font-family="Times,serif" font-size="14.00">calcstatslam_mod</text>
</a>
</g>
</g>
<!-- calcstatslam_mod&#45;&gt;gridbinning_mod -->
<g id="edge3" class="edge">
<title>calcstatslam_mod&#45;&gt;gridbinning_mod</title>
<path fill="none" stroke="black" d="M304.65,-207.61C301.66,-189.53 296.67,-164.85 289.25,-144 274.87,-103.57 250.01,-59.65 235.88,-36.15"/>
<ellipse fill="black" stroke="black" cx="305.34" cy="-211.95" rx="4" ry="4"/>
</g>
</g>
</svg>
