<?xml version="1.0" encoding="UTF-8" standalone="no"?>
<!DOCTYPE svg PUBLIC "-//W3C//DTD SVG 1.1//EN"
 "http://www.w3.org/Graphics/SVG/1.1/DTD/svg11.dtd">
<!-- Generated by graphviz version 3.0.0 (20220315.2325)
 -->
<!-- Title: gridvariabletransforms_mod Pages: 1 -->
<svg width="1056pt" height="673pt"
 viewBox="0.00 0.00 1056.00 673.00" xmlns="http://www.w3.org/2000/svg" xmlns:xlink="http://www.w3.org/1999/xlink">
<g id="graph0" class="graph" transform="scale(1 1) rotate(0) translate(4 669)">
<title>gridvariabletransforms_mod</title>
<polygon fill="white" stroke="transparent" points="-4,4 -4,-669 1052,-669 1052,4 -4,4"/>
<text text-anchor="middle" x="524" y="-649.8" font-family="Times,serif" font-size="14.00">Blue boxes indicate modules with reverse dependencies not shown</text>
<text text-anchor="middle" x="524" y="-634.8" font-family="Times,serif" font-size="14.00">Higher level reverse dependencies can be shown by clicking on a blue box</text>
<text text-anchor="middle" x="524" y="-619.8" font-family="Times,serif" font-size="14.00">Green boxes are programs</text>
<!-- gridvariabletransforms_mod -->
<g id="node1" class="node">
<title>gridvariabletransforms_mod</title>
<g id="a_node1"><a xlink:href="gridvariabletransforms_mod.html" xlink:title="gridvariabletransforms_mod">
<polygon fill="none" stroke="black" points="622.5,-36 452.5,-36 452.5,0 622.5,0 622.5,-36"/>
<text text-anchor="middle" x="537.5" y="-14.3" font-family="Times,serif" font-size="14.00">gridvariabletransforms_mod</text>
</a>
</g>
</g>
<!-- bmatrixchem_mod -->
<g id="node2" class="node">
<title>bmatrixchem_mod</title>
<g id="a_node2"><a xlink:href="../modules/bmatrixchem_mod_rev.svg" xlink:title="bmatrixchem_mod">
<polygon fill="none" stroke="blue" points="119,-108 0,-108 0,-72 119,-72 119,-108"/>
<text text-anchor="middle" x="59.5" y="-86.3" font-family="Times,serif" font-size="14.00">bmatrixchem_mod</text>
</a>
</g>
</g>
<!-- bmatrixchem_mod&#45;&gt;gridvariabletransforms_mod -->
<g id="edge1" class="edge">
<title>bmatrixchem_mod&#45;&gt;gridvariabletransforms_mod</title>
<path fill="none" stroke="black" d="M127.3,-73.16C129.38,-72.75 131.46,-72.37 133.5,-72 242.98,-52.29 370.4,-36.8 452.41,-27.78"/>
<ellipse fill="black" stroke="black" cx="123.1" cy="-73.99" rx="4" ry="4"/>
</g>
<!-- bmatrixensemble_mod -->
<g id="node3" class="node">
<title>bmatrixensemble_mod</title>
<g id="a_node3"><a xlink:href="../modules/bmatrixensemble_mod_rev.svg" xlink:title="bmatrixensemble_mod">
<polygon fill="none" stroke="blue" points="187.5,-180 47.5,-180 47.5,-144 187.5,-144 187.5,-180"/>
<text text-anchor="middle" x="117.5" y="-158.3" font-family="Times,serif" font-size="14.00">bmatrixensemble_mod</text>
</a>
</g>
</g>
<!-- bmatrixensemble_mod&#45;&gt;gridvariabletransforms_mod -->
<g id="edge2" class="edge">
<title>bmatrixensemble_mod&#45;&gt;gridvariabletransforms_mod</title>
<path fill="none" stroke="black" d="M133.2,-136.99C148.16,-116.23 172.63,-87.23 201.5,-72 243.87,-49.65 367.5,-34.34 452.37,-26.13"/>
<ellipse fill="black" stroke="black" cx="130.8" cy="-140.41" rx="4" ry="4"/>
</g>
<!-- bmatrixhi_mod -->
<g id="node4" class="node">
<title>bmatrixhi_mod</title>
<g id="a_node4"><a xlink:href="../modules/bmatrixhi_mod_rev.svg" xlink:title="bmatrixhi_mod">
<polygon fill="none" stroke="blue" points="225.5,-252 125.5,-252 125.5,-216 225.5,-216 225.5,-252"/>
<text text-anchor="middle" x="175.5" y="-230.3" font-family="Times,serif" font-size="14.00">bmatrixhi_mod</text>
</a>
</g>
</g>
<!-- bmatrixhi_mod&#45;&gt;gridvariabletransforms_mod -->
<g id="edge3" class="edge">
<title>bmatrixhi_mod&#45;&gt;gridvariabletransforms_mod</title>
<path fill="none" stroke="black" d="M185.34,-208.18C203.25,-163.05 239.32,-72.14 239.5,-72 271.41,-45.97 375.97,-31.94 452.25,-24.98"/>
<ellipse fill="black" stroke="black" cx="183.8" cy="-212.07" rx="4" ry="4"/>
</g>
<!-- calcstatsglb_mod -->
<g id="node5" class="node">
<title>calcstatsglb_mod</title>
<g id="a_node5"><a xlink:href="../modules/calcstatsglb_mod_rev.svg" xlink:title="calcstatsglb_mod">
<polygon fill="none" stroke="blue" points="263.5,-324 153.5,-324 153.5,-288 263.5,-288 263.5,-324"/>
<text text-anchor="middle" x="208.5" y="-302.3" font-family="Times,serif" font-size="14.00">calcstatsglb_mod</text>
</a>
</g>
</g>
<!-- calcstatsglb_mod&#45;&gt;gridvariabletransforms_mod -->
<g id="edge4" class="edge">
<title>calcstatsglb_mod&#45;&gt;gridvariabletransforms_mod</title>
<path fill="none" stroke="black" d="M221.97,-280.42C226.4,-271.64 231.07,-261.55 234.5,-252 262.34,-174.6 218.38,-129.18 277.5,-72 302.21,-48.1 386.48,-34.05 452.47,-26.49"/>
<ellipse fill="black" stroke="black" cx="220.01" cy="-284.21" rx="4" ry="4"/>
</g>
<!-- calcstatslam_mod -->
<g id="node6" class="node">
<title>calcstatslam_mod</title>
<g id="a_node6"><a xlink:href="../modules/calcstatslam_mod_rev.svg" xlink:title="calcstatslam_mod">
<polygon fill="none" stroke="blue" points="301,-396 188,-396 188,-360 301,-360 301,-396"/>
<text text-anchor="middle" x="244.5" y="-374.3" font-family="Times,serif" font-size="14.00">calcstatslam_mod</text>
</a>
</g>
</g>
<!-- calcstatslam_mod&#45;&gt;gridvariabletransforms_mod -->
<g id="edge5" class="edge">
<title>calcstatslam_mod&#45;&gt;gridvariabletransforms_mod</title>
<path fill="none" stroke="black" d="M259.07,-352.84C263.9,-344.01 268.95,-333.78 272.5,-324 286.3,-285.98 291.5,-275.45 291.5,-235 291.5,-235 291.5,-235 291.5,-161 291.5,-120.03 286.11,-100.55 315.5,-72 335.15,-52.92 398.32,-38.99 452.27,-30.21"/>
<ellipse fill="black" stroke="black" cx="257.06" cy="-356.41" rx="4" ry="4"/>
</g>
<!-- enkf_mod -->
<g id="node7" class="node">
<title>enkf_mod</title>
<g id="a_node7"><a xlink:href="../modules/enkf_mod_rev.svg" xlink:title="enkf_mod">
<polygon fill="none" stroke="blue" points="339,-468 266,-468 266,-432 339,-432 339,-468"/>
<text text-anchor="middle" x="302.5" y="-446.3" font-family="Times,serif" font-size="14.00">enkf_mod</text>
</a>
</g>
</g>
<!-- enkf_mod&#45;&gt;gridvariabletransforms_mod -->
<g id="edge6" class="edge">
<title>enkf_mod&#45;&gt;gridvariabletransforms_mod</title>
<path fill="none" stroke="black" d="M310.22,-423.96C318.2,-395.8 329.5,-348.57 329.5,-307 329.5,-307 329.5,-307 329.5,-161 329.5,-120.03 324.78,-101.22 353.5,-72 379.37,-45.69 417.4,-32.23 452.18,-25.42"/>
<ellipse fill="black" stroke="black" cx="309.08" cy="-427.87" rx="4" ry="4"/>
</g>
<!-- enspostprocess_mod -->
<g id="node8" class="node">
<title>enspostprocess_mod</title>
<g id="a_node8"><a xlink:href="../modules/enspostprocess_mod_rev.svg" xlink:title="enspostprocess_mod">
<polygon fill="none" stroke="blue" points="377.5,-540 249.5,-540 249.5,-504 377.5,-504 377.5,-540"/>
<text text-anchor="middle" x="313.5" y="-518.3" font-family="Times,serif" font-size="14.00">enspostprocess_mod</text>
</a>
</g>
</g>
<!-- enspostprocess_mod&#45;&gt;gridvariabletransforms_mod -->
<g id="edge7" class="edge">
<title>enspostprocess_mod&#45;&gt;gridvariabletransforms_mod</title>
<path fill="none" stroke="black" d="M331.4,-497.03C337.25,-488.26 343.31,-478.03 347.5,-468 363.13,-430.59 367.5,-419.54 367.5,-379 367.5,-379 367.5,-379 367.5,-161 367.5,-120.03 363.79,-102.17 391.5,-72 407.55,-54.52 429.82,-42.8 452.14,-34.94"/>
<ellipse fill="black" stroke="black" cx="329.06" cy="-500.42" rx="4" ry="4"/>
</g>
<!-- increment_mod -->
<g id="node9" class="node">
<title>increment_mod</title>
<g id="a_node9"><a xlink:href="../modules/increment_mod_rev.svg" xlink:title="increment_mod">
<polygon fill="none" stroke="blue" points="456,-612 355,-612 355,-576 456,-576 456,-612"/>
<text text-anchor="middle" x="405.5" y="-590.3" font-family="Times,serif" font-size="14.00">increment_mod</text>
</a>
</g>
</g>
<!-- increment_mod&#45;&gt;gridvariabletransforms_mod -->
<g id="edge8" class="edge">
<title>increment_mod&#45;&gt;gridvariabletransforms_mod</title>
<path fill="none" stroke="black" d="M405.5,-567.78C405.5,-539.39 405.5,-491.89 405.5,-451 405.5,-451 405.5,-451 405.5,-161 405.5,-120.55 399.34,-103.67 424.5,-72 437.51,-55.63 456.76,-44.07 475.71,-36.02"/>
<ellipse fill="black" stroke="black" cx="405.5" cy="-571.95" rx="4" ry="4"/>
</g>
<!-- lambmatrixhi_mod -->
<g id="node10" class="node">
<title>lambmatrixhi_mod</title>
<g id="a_node10"><a xlink:href="../modules/lambmatrixhi_mod_rev.svg" xlink:title="lambmatrixhi_mod">
<polygon fill="none" stroke="blue" points="553.5,-108 433.5,-108 433.5,-72 553.5,-72 553.5,-108"/>
<text text-anchor="middle" x="493.5" y="-86.3" font-family="Times,serif" font-size="14.00">lambmatrixhi_mod</text>
</a>
</g>
</g>
<!-- lambmatrixhi_mod&#45;&gt;gridvariabletransforms_mod -->
<g id="edge9" class="edge">
<title>lambmatrixhi_mod&#45;&gt;gridvariabletransforms_mod</title>
<path fill="none" stroke="black" d="M508.74,-64.76C514.67,-55.32 521.33,-44.72 526.75,-36.1"/>
<ellipse fill="black" stroke="black" cx="506.51" cy="-68.31" rx="4" ry="4"/>
</g>
<!-- statetocolumn_mod -->
<g id="node11" class="node">
<title>statetocolumn_mod</title>
<g id="a_node11"><a xlink:href="../modules/statetocolumn_mod_rev.svg" xlink:title="statetocolumn_mod">
<polygon fill="none" stroke="blue" points="591.5,-180 467.5,-180 467.5,-144 591.5,-144 591.5,-180"/>
<text text-anchor="middle" x="529.5" y="-158.3" font-family="Times,serif" font-size="14.00">statetocolumn_mod</text>
</a>
</g>
</g>
<!-- statetocolumn_mod&#45;&gt;gridvariabletransforms_mod -->
<g id="edge10" class="edge">
<title>statetocolumn_mod&#45;&gt;gridvariabletransforms_mod</title>
<path fill="none" stroke="black" d="M548.39,-136.98C554.08,-128.34 559.58,-118.2 562.5,-108 566.9,-92.62 566,-87.61 562.5,-72 559.7,-59.49 553.6,-46.46 548.13,-36.44"/>
<ellipse fill="black" stroke="black" cx="546.1" cy="-140.28" rx="4" ry="4"/>
</g>
<!-- midas_midas_adjointtest -->
<g id="node12" class="node">
<title>midas_midas_adjointtest</title>
<g id="a_node12"><a xlink:href="../programs/midas_adjointtest.html" xlink:title="midas_midas_adjointtest">
<polygon fill="gray" stroke="green" points="629.5,-252 477.5,-252 477.5,-216 629.5,-216 629.5,-252"/>
<text text-anchor="middle" x="553.5" y="-230.3" font-family="Times,serif" font-size="14.00">midas_midas_adjointtest</text>
</a>
</g>
</g>
<!-- midas_midas_adjointtest&#45;&gt;gridvariabletransforms_mod -->
<g id="edge11" class="edge">
<title>midas_midas_adjointtest&#45;&gt;gridvariabletransforms_mod</title>
<path fill="none" stroke="black" d="M580.81,-209.61C588.71,-201.17 596.33,-190.99 600.5,-180 606.18,-165.04 602.86,-159.82 600.5,-144 595.56,-110.91 593.88,-101.72 578.5,-72 571.76,-58.98 561.73,-45.94 553.27,-36.05"/>
<ellipse fill="black" stroke="black" cx="577.58" cy="-212.86" rx="4" ry="4"/>
</g>
<!-- midas_midas_diagbmatrix -->
<g id="node13" class="node">
<title>midas_midas_diagbmatrix</title>
<g id="a_node13"><a xlink:href="../programs/midas_diagbmatrix.html" xlink:title="midas_midas_diagbmatrix">
<polygon fill="gray" stroke="green" points="667,-324 506,-324 506,-288 667,-288 667,-324"/>
<text text-anchor="middle" x="586.5" y="-302.3" font-family="Times,serif" font-size="14.00">midas_midas_diagbmatrix</text>
</a>
</g>
</g>
<!-- midas_midas_diagbmatrix&#45;&gt;gridvariabletransforms_mod -->
<g id="edge12" class="edge">
<title>midas_midas_diagbmatrix&#45;&gt;gridvariabletransforms_mod</title>
<path fill="none" stroke="black" d="M616.37,-282.37C625.21,-273.92 633.79,-263.54 638.5,-252 644.55,-237.19 640.56,-231.87 638.5,-216 629.98,-150.36 635.92,-127.91 600.5,-72 591.47,-57.75 577.38,-45.38 564.82,-36.18"/>
<ellipse fill="black" stroke="black" cx="613.22" cy="-285.23" rx="4" ry="4"/>
</g>
<!-- midas_midas_diaghbht -->
<g id="node14" class="node">
<title>midas_midas_diaghbht</title>
<g id="a_node14"><a xlink:href="../programs/midas_diaghbht.html" xlink:title="midas_midas_diaghbht">
<polygon fill="gray" stroke="green" points="705,-396 562,-396 562,-360 705,-360 705,-396"/>
<text text-anchor="middle" x="633.5" y="-374.3" font-family="Times,serif" font-size="14.00">midas_midas_diaghbht</text>
</a>
</g>
</g>
<!-- midas_midas_diaghbht&#45;&gt;gridvariabletransforms_mod -->
<g id="edge13" class="edge">
<title>midas_midas_diaghbht&#45;&gt;gridvariabletransforms_mod</title>
<path fill="none" stroke="black" d="M655.9,-353.43C663.1,-344.75 670.5,-334.47 675.5,-324 692.97,-287.42 695.5,-275.54 695.5,-235 695.5,-235 695.5,-235 695.5,-161 695.5,-99.22 627.86,-57.5 581.09,-36.03"/>
<ellipse fill="black" stroke="black" cx="653.09" cy="-356.7" rx="4" ry="4"/>
</g>
<!-- midas_midas_extractbmatrixfor1dvar -->
<g id="node15" class="node">
<title>midas_midas_extractbmatrixfor1dvar</title>
<g id="a_node15"><a xlink:href="../programs/midas_extractbmatrixfor1dvar.html" xlink:title="midas_midas_extractbmatrixfor1dvar">
<polygon fill="gray" stroke="green" points="743,-468 522,-468 522,-432 743,-432 743,-468"/>
<text text-anchor="middle" x="632.5" y="-446.3" font-family="Times,serif" font-size="14.00">midas_midas_extractbmatrixfor1dvar</text>
</a>
</g>
</g>
<!-- midas_midas_extractbmatrixfor1dvar&#45;&gt;gridvariabletransforms_mod -->
<g id="edge14" class="edge">
<title>midas_midas_extractbmatrixfor1dvar&#45;&gt;gridvariabletransforms_mod</title>
<path fill="none" stroke="black" d="M678.45,-427.47C691.52,-419.31 704.61,-408.82 713.5,-396 736.6,-362.68 733.5,-347.54 733.5,-307 733.5,-307 733.5,-307 733.5,-161 733.5,-94.29 658.13,-55.71 600.86,-36.03"/>
<ellipse fill="black" stroke="black" cx="674.65" cy="-429.73" rx="4" ry="4"/>
</g>
<!-- midas_midas_obsimpact -->
<g id="node16" class="node">
<title>midas_midas_obsimpact</title>
<g id="a_node16"><a xlink:href="../programs/midas_obsimpact.html" xlink:title="midas_midas_obsimpact">
<polygon fill="gray" stroke="green" points="781.5,-540 629.5,-540 629.5,-504 781.5,-504 781.5,-540"/>
<text text-anchor="middle" x="705.5" y="-518.3" font-family="Times,serif" font-size="14.00">midas_midas_obsimpact</text>
</a>
</g>
</g>
<!-- midas_midas_obsimpact&#45;&gt;gridvariabletransforms_mod -->
<g id="edge15" class="edge">
<title>midas_midas_obsimpact&#45;&gt;gridvariabletransforms_mod</title>
<path fill="none" stroke="black" d="M730.24,-497.58C738.08,-488.96 746.11,-478.68 751.5,-468 769.79,-431.82 771.5,-419.54 771.5,-379 771.5,-379 771.5,-379 771.5,-161 771.5,-89.01 689.55,-52.49 622.64,-34.68"/>
<ellipse fill="black" stroke="black" cx="727.35" cy="-500.64" rx="4" ry="4"/>
</g>
<!-- midas_midas_randompert -->
<g id="node17" class="node">
<title>midas_midas_randompert</title>
<g id="a_node17"><a xlink:href="../programs/midas_randompert.html" xlink:title="midas_midas_randompert">
<polygon fill="gray" stroke="green" points="889,-612 730,-612 730,-576 889,-576 889,-612"/>
<text text-anchor="middle" x="809.5" y="-590.3" font-family="Times,serif" font-size="14.00">midas_midas_randompert</text>
</a>
</g>
</g>
<!-- midas_midas_randompert&#45;&gt;gridvariabletransforms_mod -->
<g id="edge16" class="edge">
<title>midas_midas_randompert&#45;&gt;gridvariabletransforms_mod</title>
<path fill="none" stroke="black" d="M809.5,-567.78C809.5,-539.39 809.5,-491.89 809.5,-451 809.5,-451 809.5,-451 809.5,-161 809.5,-75.5 702.58,-41.39 622.82,-27.85"/>
<ellipse fill="black" stroke="black" cx="809.5" cy="-571.95" rx="4" ry="4"/>
</g>
<!-- midas_midas_var1d -->
<g id="node18" class="node">
<title>midas_midas_var1d</title>
<g id="a_node18"><a xlink:href="../programs/midas_var1d.html" xlink:title="midas_midas_var1d">
<polygon fill="gray" stroke="green" points="963.5,-108 837.5,-108 837.5,-72 963.5,-72 963.5,-108"/>
<text text-anchor="middle" x="900.5" y="-86.3" font-family="Times,serif" font-size="14.00">midas_midas_var1d</text>
</a>
</g>
</g>
<!-- midas_midas_var1d&#45;&gt;gridvariabletransforms_mod -->
<g id="edge17" class="edge">
<title>midas_midas_var1d&#45;&gt;gridvariabletransforms_mod</title>
<path fill="none" stroke="black" d="M828.96,-73.12C827.12,-72.74 825.3,-72.37 823.5,-72 756.2,-58.34 679.68,-44.23 622.75,-34.01"/>
<ellipse fill="black" stroke="black" cx="833.17" cy="-74" rx="4" ry="4"/>
</g>
<!-- midas_midas_var -->
<g id="node19" class="node">
<title>midas_midas_var</title>
<g id="a_node19"><a xlink:href="../programs/midas_var.html" xlink:title="midas_midas_var">
<polygon fill="gray" stroke="green" points="1048,-180 935,-180 935,-144 1048,-144 1048,-180"/>
<text text-anchor="middle" x="991.5" y="-158.3" font-family="Times,serif" font-size="14.00">midas_midas_var</text>
</a>
</g>
</g>
<!-- midas_midas_var&#45;&gt;gridvariabletransforms_mod -->
<g id="edge18" class="edge">
<title>midas_midas_var&#45;&gt;gridvariabletransforms_mod</title>
<path fill="none" stroke="black" d="M993.42,-135.58C993.45,-115.34 989.84,-87.86 972.5,-72 922.96,-26.69 734.95,-18.66 622.96,-18.05"/>
<ellipse fill="black" stroke="black" cx="993.32" cy="-139.75" rx="4" ry="4"/>
</g>
</g>
</svg>
