<?xml version="1.0" encoding="UTF-8" standalone="no"?>
<!DOCTYPE svg PUBLIC "-//W3C//DTD SVG 1.1//EN"
 "http://www.w3.org/Graphics/SVG/1.1/DTD/svg11.dtd">
<!-- Generated by graphviz version 3.0.0 (20220315.2325)
 -->
<!-- Title: gridbinning_mod Pages: 1 -->
<svg width="521pt" height="601pt"
 viewBox="0.00 0.00 521.00 601.00" xmlns="http://www.w3.org/2000/svg" xmlns:xlink="http://www.w3.org/1999/xlink">
<g id="graph0" class="graph" transform="scale(1 1) rotate(0) translate(4 597)">
<title>gridbinning_mod</title>
<polygon fill="white" stroke="transparent" points="-4,4 -4,-597 517,-597 517,4 -4,4"/>
<text text-anchor="middle" x="256.5" y="-37.8" font-family="Times,serif" font-size="14.00">Red boxes indicate modules with dependencies not shown</text>
<text text-anchor="middle" x="256.5" y="-22.8" font-family="Times,serif" font-size="14.00">Lower level dependencies can be shown by clicking on a red box</text>
<text text-anchor="middle" x="256.5" y="-7.8" font-family="Times,serif" font-size="14.00">Shaded boxes indicate modules with no dependencies</text>
<!-- gridbinning_mod -->
<g id="node1" class="node">
<title>gridbinning_mod</title>
<g id="a_node1"><a xlink:href="gridbinning_mod.html" xlink:title="gridbinning_mod">
<polygon fill="none" stroke="black" points="349,-593 239,-593 239,-557 349,-557 349,-593"/>
<text text-anchor="middle" x="294" y="-571.3" font-family="Times,serif" font-size="14.00">gridbinning_mod</text>
</a>
</g>
</g>
<!-- ensemblestatevector_mod -->
<g id="node2" class="node">
<title>ensemblestatevector_mod</title>
<g id="a_node2"><a xlink:href="../modules/ensemblestatevector_mod.svg" xlink:title="ensemblestatevector_mod">
<polygon fill="none" stroke="red" points="156,-521 0,-521 0,-485 156,-485 156,-521"/>
<text text-anchor="middle" x="78" y="-499.3" font-family="Times,serif" font-size="14.00">ensemblestatevector_mod</text>
</a>
</g>
</g>
<!-- gridbinning_mod&#45;&gt;ensemblestatevector_mod -->
<g id="edge1" class="edge">
<title>gridbinning_mod&#45;&gt;ensemblestatevector_mod</title>
<path fill="none" stroke="black" d="M241.44,-556.97C210.99,-547.1 172.49,-534.62 140.5,-524.25"/>
<polygon fill="black" stroke="black" points="141.39,-520.86 130.8,-521.11 139.23,-527.52 141.39,-520.86"/>
</g>
<!-- gridstatevectorfileio_mod -->
<g id="node3" class="node">
<title>gridstatevectorfileio_mod</title>
<g id="a_node3"><a xlink:href="../modules/gridstatevectorfileio_mod.svg" xlink:title="gridstatevectorfileio_mod">
<polygon fill="none" stroke="red" points="227.5,-449 72.5,-449 72.5,-413 227.5,-413 227.5,-449"/>
<text text-anchor="middle" x="150" y="-427.3" font-family="Times,serif" font-size="14.00">gridstatevectorfileio_mod</text>
</a>
</g>
</g>
<!-- gridbinning_mod&#45;&gt;gridstatevectorfileio_mod -->
<g id="edge2" class="edge">
<title>gridbinning_mod&#45;&gt;gridstatevectorfileio_mod</title>
<path fill="none" stroke="black" d="M276.63,-556.87C251.22,-531.82 203.8,-485.05 174.75,-456.41"/>
<polygon fill="black" stroke="black" points="177.01,-453.72 167.43,-449.19 172.09,-458.7 177.01,-453.72"/>
</g>
<!-- gridstatevector_mod -->
<g id="node4" class="node">
<title>gridstatevector_mod</title>
<g id="a_node4"><a xlink:href="../modules/gridstatevector_mod.svg" xlink:title="gridstatevector_mod">
<polygon fill="none" stroke="red" points="265.5,-377 138.5,-377 138.5,-341 265.5,-341 265.5,-377"/>
<text text-anchor="middle" x="202" y="-355.3" font-family="Times,serif" font-size="14.00">gridstatevector_mod</text>
</a>
</g>
</g>
<!-- gridbinning_mod&#45;&gt;gridstatevector_mod -->
<g id="edge3" class="edge">
<title>gridbinning_mod&#45;&gt;gridstatevector_mod</title>
<path fill="none" stroke="black" d="M289.13,-556.56C280.4,-526.44 260.7,-463.1 236,-413 231.41,-403.69 225.54,-393.99 219.98,-385.47"/>
<polygon fill="black" stroke="black" points="222.84,-383.44 214.36,-377.09 217.02,-387.34 222.84,-383.44"/>
</g>
<!-- horizontalcoord_mod -->
<g id="node5" class="node">
<title>horizontalcoord_mod</title>
<g id="a_node5"><a xlink:href="../modules/horizontalcoord_mod.svg" xlink:title="horizontalcoord_mod">
<polygon fill="none" stroke="red" points="303.5,-305 170.5,-305 170.5,-269 303.5,-269 303.5,-305"/>
<text text-anchor="middle" x="237" y="-283.3" font-family="Times,serif" font-size="14.00">horizontalcoord_mod</text>
</a>
</g>
</g>
<!-- gridbinning_mod&#45;&gt;horizontalcoord_mod -->
<g id="edge4" class="edge">
<title>gridbinning_mod&#45;&gt;horizontalcoord_mod</title>
<path fill="none" stroke="black" d="M295.48,-556.98C298.27,-517.61 301.79,-417.73 274,-341 270.48,-331.29 264.71,-321.71 258.76,-313.43"/>
<polygon fill="black" stroke="black" points="261.43,-311.15 252.59,-305.31 255.86,-315.38 261.43,-311.15"/>
</g>
<!-- midasmpi_mod -->
<g id="node6" class="node">
<title>midasmpi_mod</title>
<g id="a_node6"><a xlink:href="../modules/midasmpi_mod.svg" xlink:title="midasmpi_mod">
<polygon fill="none" stroke="red" points="361.5,-233 260.5,-233 260.5,-197 361.5,-197 361.5,-233"/>
<text text-anchor="middle" x="311" y="-211.3" font-family="Times,serif" font-size="14.00">midasmpi_mod</text>
</a>
</g>
</g>
<!-- gridbinning_mod&#45;&gt;midasmpi_mod -->
<g id="edge5" class="edge">
<title>gridbinning_mod&#45;&gt;midasmpi_mod</title>
<path fill="none" stroke="black" d="M301.69,-556.91C312.79,-530.62 332,-478.45 332,-432 332,-432 332,-432 332,-358 332,-317.78 323.65,-271.84 317.49,-243.37"/>
<polygon fill="black" stroke="black" points="320.85,-242.36 315.25,-233.37 314.01,-243.89 320.85,-242.36"/>
</g>
<!-- timecoord_mod -->
<g id="node7" class="node">
<title>timecoord_mod</title>
<g id="a_node7"><a xlink:href="../modules/timecoord_mod.svg" xlink:title="timecoord_mod">
<polygon fill="none" stroke="red" points="441,-161 339,-161 339,-125 441,-125 441,-161"/>
<text text-anchor="middle" x="390" y="-139.3" font-family="Times,serif" font-size="14.00">timecoord_mod</text>
</a>
</g>
</g>
<!-- gridbinning_mod&#45;&gt;timecoord_mod -->
<g id="edge6" class="edge">
<title>gridbinning_mod&#45;&gt;timecoord_mod</title>
<path fill="none" stroke="black" d="M315.78,-556.83C344.11,-532.39 390,-484.67 390,-432 390,-432 390,-432 390,-286 390,-246 390,-199.65 390,-171.08"/>
<polygon fill="black" stroke="black" points="393.5,-171.05 390,-161.05 386.5,-171.05 393.5,-171.05"/>
</g>
<!-- utilities_mod -->
<g id="node8" class="node">
<title>utilities_mod</title>
<g id="a_node8"><a xlink:href="../modules/utilities_mod.svg" xlink:title="utilities_mod">
<polygon fill="none" stroke="red" points="513,-89 425,-89 425,-53 513,-53 513,-89"/>
<text text-anchor="middle" x="469" y="-67.3" font-family="Times,serif" font-size="14.00">utilities_mod</text>
</a>
</g>
</g>
<!-- gridbinning_mod&#45;&gt;utilities_mod -->
<g id="edge7" class="edge">
<title>gridbinning_mod&#45;&gt;utilities_mod</title>
<path fill="none" stroke="black" d="M346.03,-556.84C397.62,-536.15 469,-495.97 469,-432 469,-432 469,-432 469,-214 469,-174 469,-127.65 469,-99.08"/>
<polygon fill="black" stroke="black" points="472.5,-99.05 469,-89.05 465.5,-99.05 472.5,-99.05"/>
</g>
</g>
</svg>
