<?xml version="1.0" encoding="UTF-8" standalone="no"?>
<!DOCTYPE svg PUBLIC "-//W3C//DTD SVG 1.1//EN"
 "http://www.w3.org/Graphics/SVG/1.1/DTD/svg11.dtd">
<!-- Generated by graphviz version 3.0.0 (20220315.2325)
 -->
<!-- Title: horizontalcoord_mod Pages: 1 -->
<svg width="465pt" height="529pt"
 viewBox="0.00 0.00 464.50 529.00" xmlns="http://www.w3.org/2000/svg" xmlns:xlink="http://www.w3.org/1999/xlink">
<g id="graph0" class="graph" transform="scale(1 1) rotate(0) translate(4 525)">
<title>horizontalcoord_mod</title>
<polygon fill="white" stroke="transparent" points="-4,4 -4,-525 460.5,-525 460.5,4 -4,4"/>
<text text-anchor="middle" x="228.25" y="-37.8" font-family="Times,serif" font-size="14.00">Red boxes indicate modules with dependencies not shown</text>
<text text-anchor="middle" x="228.25" y="-22.8" font-family="Times,serif" font-size="14.00">Lower level dependencies can be shown by clicking on a red box</text>
<text text-anchor="middle" x="228.25" y="-7.8" font-family="Times,serif" font-size="14.00">Shaded boxes indicate modules with no dependencies</text>
<!-- horizontalcoord_mod -->
<g id="node1" class="node">
<title>horizontalcoord_mod</title>
<g id="a_node1"><a xlink:href="horizontalcoord_mod.html" xlink:title="horizontalcoord_mod">
<polygon fill="none" stroke="black" points="309,-521 176,-521 176,-485 309,-485 309,-521"/>
<text text-anchor="middle" x="242.5" y="-499.3" font-family="Times,serif" font-size="14.00">horizontalcoord_mod</text>
</a>
</g>
</g>
<!-- earthconstants_mod -->
<g id="node2" class="node">
<title>earthconstants_mod</title>
<g id="a_node2"><a xlink:href="../modules/earthconstants_mod.svg" xlink:title="earthconstants_mod">
<polygon fill="none" stroke="red" points="125,-449 0,-449 0,-413 125,-413 125,-449"/>
<text text-anchor="middle" x="62.5" y="-427.3" font-family="Times,serif" font-size="14.00">earthconstants_mod</text>
</a>
</g>
</g>
<!-- horizontalcoord_mod&#45;&gt;earthconstants_mod -->
<g id="edge1" class="edge">
<title>horizontalcoord_mod&#45;&gt;earthconstants_mod</title>
<path fill="none" stroke="black" d="M198.47,-484.88C173.53,-475.18 142.16,-462.98 115.84,-452.74"/>
<polygon fill="black" stroke="black" points="116.98,-449.43 106.39,-449.07 114.44,-455.95 116.98,-449.43"/>
</g>
<!-- mathphysconstants_mod -->
<g id="node3" class="node">
<title>mathphysconstants_mod</title>
<g id="a_node3"><a xlink:href="mathphysconstants_mod.html" xlink:title="mathphysconstants_mod">
<polygon fill="gray" stroke="black" points="195.5,-377 45.5,-377 45.5,-341 195.5,-341 195.5,-377"/>
<text text-anchor="middle" x="120.5" y="-355.3" font-family="Times,serif" font-size="14.00">mathphysconstants_mod</text>
</a>
</g>
</g>
<!-- horizontalcoord_mod&#45;&gt;mathphysconstants_mod -->
<g id="edge2" class="edge">
<title>horizontalcoord_mod&#45;&gt;mathphysconstants_mod</title>
<path fill="none" stroke="black" d="M227.78,-484.87C206.44,-460.03 166.76,-413.85 142.1,-385.14"/>
<polygon fill="black" stroke="black" points="144.44,-382.49 135.27,-377.19 139.13,-387.06 144.44,-382.49"/>
</g>
<!-- midasmpi_mod -->
<g id="node4" class="node">
<title>midasmpi_mod</title>
<g id="a_node4"><a xlink:href="../modules/midasmpi_mod.svg" xlink:title="midasmpi_mod">
<polygon fill="none" stroke="red" points="233,-305 132,-305 132,-269 233,-269 233,-305"/>
<text text-anchor="middle" x="182.5" y="-283.3" font-family="Times,serif" font-size="14.00">midasmpi_mod</text>
</a>
</g>
</g>
<!-- horizontalcoord_mod&#45;&gt;midasmpi_mod -->
<g id="edge3" class="edge">
<title>horizontalcoord_mod&#45;&gt;midasmpi_mod</title>
<path fill="none" stroke="black" d="M239.4,-484.83C233.82,-455.12 221.11,-392.38 204.5,-341 201.68,-332.28 198.05,-322.98 194.55,-314.65"/>
<polygon fill="black" stroke="black" points="197.73,-313.2 190.56,-305.4 191.31,-315.97 197.73,-313.2"/>
</g>
<!-- physicsfunctions_mod -->
<g id="node5" class="node">
<title>physicsfunctions_mod</title>
<g id="a_node5"><a xlink:href="../modules/physicsfunctions_mod.svg" xlink:title="physicsfunctions_mod">
<polygon fill="none" stroke="red" points="301.5,-233 163.5,-233 163.5,-197 301.5,-197 301.5,-233"/>
<text text-anchor="middle" x="232.5" y="-211.3" font-family="Times,serif" font-size="14.00">physicsfunctions_mod</text>
</a>
</g>
</g>
<!-- horizontalcoord_mod&#45;&gt;physicsfunctions_mod -->
<g id="edge4" class="edge">
<title>horizontalcoord_mod&#45;&gt;physicsfunctions_mod</title>
<path fill="none" stroke="black" d="M243.39,-485C245.21,-446.47 248.58,-349.59 241.5,-269 240.75,-260.5 239.39,-251.32 237.95,-243.02"/>
<polygon fill="black" stroke="black" points="241.38,-242.29 236.12,-233.1 234.49,-243.56 241.38,-242.29"/>
</g>
<!-- utilities_mod -->
<g id="node6" class="node">
<title>utilities_mod</title>
<g id="a_node6"><a xlink:href="../modules/utilities_mod.svg" xlink:title="utilities_mod">
<polygon fill="none" stroke="red" points="373.5,-161 285.5,-161 285.5,-125 373.5,-125 373.5,-161"/>
<text text-anchor="middle" x="329.5" y="-139.3" font-family="Times,serif" font-size="14.00">utilities_mod</text>
</a>
</g>
</g>
<!-- horizontalcoord_mod&#45;&gt;utilities_mod -->
<g id="edge5" class="edge">
<title>horizontalcoord_mod&#45;&gt;utilities_mod</title>
<path fill="none" stroke="black" d="M261.81,-484.82C287.44,-460.01 329.5,-411.46 329.5,-360 329.5,-360 329.5,-360 329.5,-286 329.5,-246 329.5,-199.65 329.5,-171.08"/>
<polygon fill="black" stroke="black" points="333,-171.05 329.5,-161.05 326,-171.05 333,-171.05"/>
</g>
<!-- varnamelist_mod -->
<g id="node7" class="node">
<title>varnamelist_mod</title>
<g id="a_node7"><a xlink:href="../modules/varnamelist_mod.svg" xlink:title="varnamelist_mod">
<polygon fill="none" stroke="red" points="456.5,-89 346.5,-89 346.5,-53 456.5,-53 456.5,-89"/>
<text text-anchor="middle" x="401.5" y="-67.3" font-family="Times,serif" font-size="14.00">varnamelist_mod</text>
</a>
</g>
</g>
<!-- horizontalcoord_mod&#45;&gt;varnamelist_mod -->
<g id="edge6" class="edge">
<title>horizontalcoord_mod&#45;&gt;varnamelist_mod</title>
<path fill="none" stroke="black" d="M286.79,-484.86C333.84,-463.4 401.5,-421.81 401.5,-360 401.5,-360 401.5,-360 401.5,-214 401.5,-174 401.5,-127.65 401.5,-99.08"/>
<polygon fill="black" stroke="black" points="405,-99.05 401.5,-89.05 398,-99.05 405,-99.05"/>
</g>
</g>
</svg>
