<?xml version="1.0" encoding="UTF-8" standalone="no"?>
<!DOCTYPE svg PUBLIC "-//W3C//DTD SVG 1.1//EN"
 "http://www.w3.org/Graphics/SVG/1.1/DTD/svg11.dtd">
<!-- Generated by graphviz version 3.0.0 (20220315.2325)
 -->
<!-- Title: humiditylimits_mod Pages: 1 -->
<svg width="628pt" height="673pt"
 viewBox="0.00 0.00 627.50 673.00" xmlns="http://www.w3.org/2000/svg" xmlns:xlink="http://www.w3.org/1999/xlink">
<g id="graph0" class="graph" transform="scale(1 1) rotate(0) translate(4 669)">
<title>humiditylimits_mod</title>
<polygon fill="white" stroke="transparent" points="-4,4 -4,-669 623.5,-669 623.5,4 -4,4"/>
<text text-anchor="middle" x="309.75" y="-37.8" font-family="Times,serif" font-size="14.00">Red boxes indicate modules with dependencies not shown</text>
<text text-anchor="middle" x="309.75" y="-22.8" font-family="Times,serif" font-size="14.00">Lower level dependencies can be shown by clicking on a red box</text>
<text text-anchor="middle" x="309.75" y="-7.8" font-family="Times,serif" font-size="14.00">Shaded boxes indicate modules with no dependencies</text>
<!-- humiditylimits_mod -->
<g id="node1" class="node">
<title>humiditylimits_mod</title>
<g id="a_node1"><a xlink:href="humiditylimits_mod.html" xlink:title="humiditylimits_mod">
<polygon fill="none" stroke="black" points="406.5,-665 278.5,-665 278.5,-629 406.5,-629 406.5,-665"/>
<text text-anchor="middle" x="342.5" y="-643.3" font-family="Times,serif" font-size="14.00">humiditylimits_mod</text>
</a>
</g>
</g>
<!-- calcheightandpressure_mod -->
<g id="node2" class="node">
<title>calcheightandpressure_mod</title>
<g id="a_node2"><a xlink:href="../modules/calcheightandpressure_mod.svg" xlink:title="calcheightandpressure_mod">
<polygon fill="none" stroke="red" points="167,-593 0,-593 0,-557 167,-557 167,-593"/>
<text text-anchor="middle" x="83.5" y="-571.3" font-family="Times,serif" font-size="14.00">calcheightandpressure_mod</text>
</a>
</g>
</g>
<!-- humiditylimits_mod&#45;&gt;calcheightandpressure_mod -->
<g id="edge1" class="edge">
<title>humiditylimits_mod&#45;&gt;calcheightandpressure_mod</title>
<path fill="none" stroke="black" d="M279.47,-628.97C242.34,-618.93 195.2,-606.19 156.47,-595.72"/>
<polygon fill="black" stroke="black" points="157.38,-592.34 146.81,-593.11 155.55,-599.1 157.38,-592.34"/>
</g>
<!-- ensemblestatevector_mod -->
<g id="node3" class="node">
<title>ensemblestatevector_mod</title>
<g id="a_node3"><a xlink:href="../modules/ensemblestatevector_mod.svg" xlink:title="ensemblestatevector_mod">
<polygon fill="none" stroke="red" points="238.5,-521 82.5,-521 82.5,-485 238.5,-485 238.5,-521"/>
<text text-anchor="middle" x="160.5" y="-499.3" font-family="Times,serif" font-size="14.00">ensemblestatevector_mod</text>
</a>
</g>
</g>
<!-- humiditylimits_mod&#45;&gt;ensemblestatevector_mod -->
<g id="edge2" class="edge">
<title>humiditylimits_mod&#45;&gt;ensemblestatevector_mod</title>
<path fill="none" stroke="black" d="M309.24,-628.89C291.72,-619.27 270.25,-606.51 252.5,-593 226.97,-573.57 200.97,-547.75 183.16,-528.92"/>
<polygon fill="black" stroke="black" points="185.44,-526.24 176.05,-521.32 180.32,-531.02 185.44,-526.24"/>
</g>
<!-- gridstatevector_mod -->
<g id="node4" class="node">
<title>gridstatevector_mod</title>
<g id="a_node4"><a xlink:href="../modules/gridstatevector_mod.svg" xlink:title="gridstatevector_mod">
<polygon fill="none" stroke="red" points="276,-449 149,-449 149,-413 276,-413 276,-449"/>
<text text-anchor="middle" x="212.5" y="-427.3" font-family="Times,serif" font-size="14.00">gridstatevector_mod</text>
</a>
</g>
</g>
<!-- humiditylimits_mod&#45;&gt;gridstatevector_mod -->
<g id="edge3" class="edge">
<title>humiditylimits_mod&#45;&gt;gridstatevector_mod</title>
<path fill="none" stroke="black" d="M322.24,-628.94C311.7,-619.25 299.22,-606.39 290.5,-593 262.3,-549.71 271.42,-530.8 247.5,-485 242.65,-475.71 236.58,-466.02 230.86,-457.5"/>
<polygon fill="black" stroke="black" points="233.65,-455.38 225.1,-449.12 227.88,-459.34 233.65,-455.38"/>
</g>
<!-- mathphysconstants_mod -->
<g id="node5" class="node">
<title>mathphysconstants_mod</title>
<g id="a_node5"><a xlink:href="mathphysconstants_mod.html" xlink:title="mathphysconstants_mod">
<polygon fill="gray" stroke="black" points="314.5,-377 164.5,-377 164.5,-341 314.5,-341 314.5,-377"/>
<text text-anchor="middle" x="239.5" y="-355.3" font-family="Times,serif" font-size="14.00">mathphysconstants_mod</text>
</a>
</g>
</g>
<!-- humiditylimits_mod&#45;&gt;mathphysconstants_mod -->
<g id="edge4" class="edge">
<title>humiditylimits_mod&#45;&gt;mathphysconstants_mod</title>
<path fill="none" stroke="black" d="M337.88,-628.84C335.11,-618.47 331.55,-604.99 328.5,-593 308.2,-513.18 321.93,-486.36 284.5,-413 279.34,-402.9 271.91,-393.07 264.57,-384.68"/>
<polygon fill="black" stroke="black" points="266.97,-382.11 257.63,-377.11 261.8,-386.84 266.97,-382.11"/>
</g>
<!-- midasmpi_mod -->
<g id="node6" class="node">
<title>midasmpi_mod</title>
<g id="a_node6"><a xlink:href="../modules/midasmpi_mod.svg" xlink:title="midasmpi_mod">
<polygon fill="none" stroke="red" points="352,-305 251,-305 251,-269 352,-269 352,-305"/>
<text text-anchor="middle" x="301.5" y="-283.3" font-family="Times,serif" font-size="14.00">midasmpi_mod</text>
</a>
</g>
</g>
<!-- humiditylimits_mod&#45;&gt;midasmpi_mod -->
<g id="edge5" class="edge">
<title>humiditylimits_mod&#45;&gt;midasmpi_mod</title>
<path fill="none" stroke="black" d="M342.5,-628.95C342.5,-602.29 342.5,-549.11 342.5,-504 342.5,-504 342.5,-504 342.5,-430 342.5,-388.41 326.06,-342.56 314,-314.51"/>
<polygon fill="black" stroke="black" points="317.05,-312.75 309.8,-305.03 310.65,-315.59 317.05,-312.75"/>
</g>
<!-- physicsfunctions_mod -->
<g id="node7" class="node">
<title>physicsfunctions_mod</title>
<g id="a_node7"><a xlink:href="../modules/physicsfunctions_mod.svg" xlink:title="physicsfunctions_mod">
<polygon fill="none" stroke="red" points="390.5,-233 252.5,-233 252.5,-197 390.5,-197 390.5,-233"/>
<text text-anchor="middle" x="321.5" y="-211.3" font-family="Times,serif" font-size="14.00">physicsfunctions_mod</text>
</a>
</g>
</g>
<!-- humiditylimits_mod&#45;&gt;physicsfunctions_mod -->
<g id="edge6" class="edge">
<title>humiditylimits_mod&#45;&gt;physicsfunctions_mod</title>
<path fill="none" stroke="black" d="M350.19,-628.91C361.29,-602.62 380.5,-550.45 380.5,-504 380.5,-504 380.5,-504 380.5,-358 380.5,-317.46 377.32,-305.89 360.5,-269 356.09,-259.33 349.74,-249.69 343.44,-241.34"/>
<polygon fill="black" stroke="black" points="346.17,-239.15 337.23,-233.46 340.67,-243.48 346.17,-239.15"/>
</g>
<!-- utilities_mod -->
<g id="node8" class="node">
<title>utilities_mod</title>
<g id="a_node8"><a xlink:href="../modules/utilities_mod.svg" xlink:title="utilities_mod">
<polygon fill="none" stroke="red" points="445.5,-161 357.5,-161 357.5,-125 445.5,-125 445.5,-161"/>
<text text-anchor="middle" x="401.5" y="-139.3" font-family="Times,serif" font-size="14.00">utilities_mod</text>
</a>
</g>
</g>
<!-- humiditylimits_mod&#45;&gt;utilities_mod -->
<g id="edge7" class="edge">
<title>humiditylimits_mod&#45;&gt;utilities_mod</title>
<path fill="none" stroke="black" d="M358.99,-628.77C381.34,-603.53 418.5,-554.05 418.5,-504 418.5,-504 418.5,-504 418.5,-286 418.5,-245.93 411.74,-199.95 406.75,-171.43"/>
<polygon fill="black" stroke="black" points="410.16,-170.63 404.94,-161.41 403.27,-171.87 410.16,-170.63"/>
</g>
<!-- varnamelist_mod -->
<g id="node9" class="node">
<title>varnamelist_mod</title>
<g id="a_node9"><a xlink:href="../modules/varnamelist_mod.svg" xlink:title="varnamelist_mod">
<polygon fill="none" stroke="red" points="528.5,-89 418.5,-89 418.5,-53 528.5,-53 528.5,-89"/>
<text text-anchor="middle" x="473.5" y="-67.3" font-family="Times,serif" font-size="14.00">varnamelist_mod</text>
</a>
</g>
</g>
<!-- humiditylimits_mod&#45;&gt;varnamelist_mod -->
<g id="edge8" class="edge">
<title>humiditylimits_mod&#45;&gt;varnamelist_mod</title>
<path fill="none" stroke="black" d="M375.56,-628.8C414.36,-605.96 473.5,-561.69 473.5,-504 473.5,-504 473.5,-504 473.5,-214 473.5,-174 473.5,-127.65 473.5,-99.08"/>
<polygon fill="black" stroke="black" points="477,-99.05 473.5,-89.05 470,-99.05 477,-99.05"/>
</g>
<!-- verticalcoord_mod -->
<g id="node10" class="node">
<title>verticalcoord_mod</title>
<g id="a_node10"><a xlink:href="../modules/verticalcoord_mod.svg" xlink:title="verticalcoord_mod">
<polygon fill="none" stroke="red" points="619.5,-593 501.5,-593 501.5,-557 619.5,-557 619.5,-593"/>
<text text-anchor="middle" x="560.5" y="-571.3" font-family="Times,serif" font-size="14.00">verticalcoord_mod</text>
</a>
</g>
</g>
<!-- humiditylimits_mod&#45;&gt;verticalcoord_mod -->
<g id="edge9" class="edge">
<title>humiditylimits_mod&#45;&gt;verticalcoord_mod</title>
<path fill="none" stroke="black" d="M395.55,-628.97C426.27,-619.1 465.14,-606.62 497.42,-596.25"/>
<polygon fill="black" stroke="black" points="498.76,-599.5 507.21,-593.11 496.62,-592.84 498.76,-599.5"/>
</g>
</g>
</svg>
