<?xml version="1.0" encoding="UTF-8" standalone="no"?>
<!DOCTYPE svg PUBLIC "-//W3C//DTD SVG 1.1//EN"
 "http://www.w3.org/Graphics/SVG/1.1/DTD/svg11.dtd">
<!-- Generated by graphviz version 3.0.0 (20220315.2325)
 -->
<!-- Title: humiditylimits_mod Pages: 1 -->
<svg width="548pt" height="673pt"
 viewBox="0.00 0.00 547.50 673.00" xmlns="http://www.w3.org/2000/svg" xmlns:xlink="http://www.w3.org/1999/xlink">
<g id="graph0" class="graph" transform="scale(1 1) rotate(0) translate(4 669)">
<title>humiditylimits_mod</title>
<polygon fill="white" stroke="transparent" points="-4,4 -4,-669 543.5,-669 543.5,4 -4,4"/>
<text text-anchor="middle" x="269.75" y="-649.8" font-family="Times,serif" font-size="14.00">Blue boxes indicate modules with reverse dependencies not shown</text>
<text text-anchor="middle" x="269.75" y="-634.8" font-family="Times,serif" font-size="14.00">Higher level reverse dependencies can be shown by clicking on a blue box</text>
<text text-anchor="middle" x="269.75" y="-619.8" font-family="Times,serif" font-size="14.00">Green boxes are programs</text>
<!-- humiditylimits_mod -->
<g id="node1" class="node">
<title>humiditylimits_mod</title>
<g id="a_node1"><a xlink:href="humiditylimits_mod.html" xlink:title="humiditylimits_mod">
<polygon fill="none" stroke="black" points="354,-36 226,-36 226,0 354,0 354,-36"/>
<text text-anchor="middle" x="290" y="-14.3" font-family="Times,serif" font-size="14.00">humiditylimits_mod</text>
</a>
</g>
</g>
<!-- bmatrixensemble_mod -->
<g id="node2" class="node">
<title>bmatrixensemble_mod</title>
<g id="a_node2"><a xlink:href="../modules/bmatrixensemble_mod_rev.svg" xlink:title="bmatrixensemble_mod">
<polygon fill="none" stroke="blue" points="140,-108 0,-108 0,-72 140,-72 140,-108"/>
<text text-anchor="middle" x="70" y="-86.3" font-family="Times,serif" font-size="14.00">bmatrixensemble_mod</text>
</a>
</g>
</g>
<!-- bmatrixensemble_mod&#45;&gt;humiditylimits_mod -->
<g id="edge1" class="edge">
<title>bmatrixensemble_mod&#45;&gt;humiditylimits_mod</title>
<path fill="none" stroke="black" d="M131.31,-69.49C164.26,-59.01 204.51,-46.2 236.22,-36.11"/>
<ellipse fill="black" stroke="black" cx="127.35" cy="-70.75" rx="4" ry="4"/>
</g>
<!-- enspostprocess_mod -->
<g id="node3" class="node">
<title>enspostprocess_mod</title>
<g id="a_node3"><a xlink:href="../modules/enspostprocess_mod_rev.svg" xlink:title="enspostprocess_mod">
<polygon fill="none" stroke="blue" points="205,-180 77,-180 77,-144 205,-144 205,-180"/>
<text text-anchor="middle" x="141" y="-158.3" font-family="Times,serif" font-size="14.00">enspostprocess_mod</text>
</a>
</g>
</g>
<!-- enspostprocess_mod&#45;&gt;humiditylimits_mod -->
<g id="edge2" class="edge">
<title>enspostprocess_mod&#45;&gt;humiditylimits_mod</title>
<path fill="none" stroke="black" d="M159.33,-137.47C174.41,-118.79 196.83,-92.5 219,-72 233.12,-58.95 250.38,-46.01 264.34,-36.18"/>
<ellipse fill="black" stroke="black" cx="156.62" cy="-140.86" rx="4" ry="4"/>
</g>
<!-- gridvariabletransforms_mod -->
<g id="node4" class="node">
<title>gridvariabletransforms_mod</title>
<g id="a_node4"><a xlink:href="../modules/gridvariabletransforms_mod_rev.svg" xlink:title="gridvariabletransforms_mod">
<polygon fill="none" stroke="blue" points="243,-252 73,-252 73,-216 243,-216 243,-252"/>
<text text-anchor="middle" x="158" y="-230.3" font-family="Times,serif" font-size="14.00">gridvariabletransforms_mod</text>
</a>
</g>
</g>
<!-- gridvariabletransforms_mod&#45;&gt;humiditylimits_mod -->
<g id="edge3" class="edge">
<title>gridvariabletransforms_mod&#45;&gt;humiditylimits_mod</title>
<path fill="none" stroke="black" d="M186.41,-210.52C196.12,-201.78 206.42,-191.18 214,-180 243,-137.24 233.7,-118.11 257,-72 263.26,-59.62 271.51,-46.37 278.19,-36.21"/>
<ellipse fill="black" stroke="black" cx="183.17" cy="-213.35" rx="4" ry="4"/>
</g>
<!-- increment_mod -->
<g id="node5" class="node">
<title>increment_mod</title>
<g id="a_node5"><a xlink:href="../modules/increment_mod_rev.svg" xlink:title="increment_mod">
<polygon fill="none" stroke="blue" points="280.5,-324 179.5,-324 179.5,-288 280.5,-288 280.5,-324"/>
<text text-anchor="middle" x="230" y="-302.3" font-family="Times,serif" font-size="14.00">increment_mod</text>
</a>
</g>
</g>
<!-- increment_mod&#45;&gt;humiditylimits_mod -->
<g id="edge4" class="edge">
<title>increment_mod&#45;&gt;humiditylimits_mod</title>
<path fill="none" stroke="black" d="M241.62,-280.35C245.4,-271.56 249.3,-261.49 252,-252 274.46,-173.17 285.02,-75.3 288.56,-36.25"/>
<ellipse fill="black" stroke="black" cx="240" cy="-284.04" rx="4" ry="4"/>
</g>
<!-- innovation_mod -->
<g id="node6" class="node">
<title>innovation_mod</title>
<g id="a_node6"><a xlink:href="../modules/innovation_mod_rev.svg" xlink:title="innovation_mod">
<polygon fill="none" stroke="blue" points="319,-396 215,-396 215,-360 319,-360 319,-396"/>
<text text-anchor="middle" x="267" y="-374.3" font-family="Times,serif" font-size="14.00">innovation_mod</text>
</a>
</g>
</g>
<!-- innovation_mod&#45;&gt;humiditylimits_mod -->
<g id="edge5" class="edge">
<title>innovation_mod&#45;&gt;humiditylimits_mod</title>
<path fill="none" stroke="black" d="M278.84,-352.69C291.26,-324.92 309,-277.77 309,-235 309,-235 309,-235 309,-161 309,-115.73 299.4,-63.06 293.84,-36.39"/>
<ellipse fill="black" stroke="black" cx="277.16" cy="-356.36" rx="4" ry="4"/>
</g>
<!-- statetocolumn_mod -->
<g id="node7" class="node">
<title>statetocolumn_mod</title>
<g id="a_node7"><a xlink:href="../modules/statetocolumn_mod_rev.svg" xlink:title="statetocolumn_mod">
<polygon fill="none" stroke="blue" points="383,-468 259,-468 259,-432 383,-432 383,-468"/>
<text text-anchor="middle" x="321" y="-446.3" font-family="Times,serif" font-size="14.00">statetocolumn_mod</text>
</a>
</g>
</g>
<!-- statetocolumn_mod&#45;&gt;humiditylimits_mod -->
<g id="edge6" class="edge">
<title>statetocolumn_mod&#45;&gt;humiditylimits_mod</title>
<path fill="none" stroke="black" d="M328.43,-423.94C336.11,-395.76 347,-348.52 347,-307 347,-307 347,-307 347,-161 347,-112.92 318.51,-61.84 301.81,-36.04"/>
<ellipse fill="black" stroke="black" cx="327.34" cy="-427.85" rx="4" ry="4"/>
</g>
<!-- tovs_nl_mod -->
<g id="node8" class="node">
<title>tovs_nl_mod</title>
<g id="a_node8"><a xlink:href="../modules/tovs_nl_mod_rev.svg" xlink:title="tovs_nl_mod">
<polygon fill="none" stroke="blue" points="454.5,-540 367.5,-540 367.5,-504 454.5,-504 454.5,-540"/>
<text text-anchor="middle" x="411" y="-518.3" font-family="Times,serif" font-size="14.00">tovs_nl_mod</text>
</a>
</g>
</g>
<!-- tovs_nl_mod&#45;&gt;humiditylimits_mod -->
<g id="edge7" class="edge">
<title>tovs_nl_mod&#45;&gt;humiditylimits_mod</title>
<path fill="none" stroke="black" d="M411,-495.78C411,-467.39 411,-419.89 411,-379 411,-379 411,-379 411,-161 411,-104.64 355.1,-59.3 319.29,-36.03"/>
<ellipse fill="black" stroke="black" cx="411" cy="-499.95" rx="4" ry="4"/>
</g>
<!-- midas_midas_var -->
<g id="node9" class="node">
<title>midas_midas_var</title>
<g id="a_node9"><a xlink:href="../programs/midas_var.html" xlink:title="midas_midas_var">
<polygon fill="gray" stroke="green" points="539.5,-612 426.5,-612 426.5,-576 539.5,-576 539.5,-612"/>
<text text-anchor="middle" x="483" y="-590.3" font-family="Times,serif" font-size="14.00">midas_midas_var</text>
</a>
</g>
</g>
<!-- midas_midas_var&#45;&gt;humiditylimits_mod -->
<g id="edge8" class="edge">
<title>midas_midas_var&#45;&gt;humiditylimits_mod</title>
<path fill="none" stroke="black" d="M483,-567.78C483,-539.39 483,-491.89 483,-451 483,-451 483,-451 483,-161 483,-94.65 408.08,-55.86 351.6,-36.04"/>
<ellipse fill="black" stroke="black" cx="483" cy="-571.95" rx="4" ry="4"/>
</g>
</g>
</svg>
