<?xml version="1.0" encoding="UTF-8" standalone="no"?>
<!DOCTYPE svg PUBLIC "-//W3C//DTD SVG 1.1//EN"
 "http://www.w3.org/Graphics/SVG/1.1/DTD/svg11.dtd">
<!-- Generated by graphviz version 3.0.0 (20220315.2325)
 -->
<!-- Title: increment_mod Pages: 1 -->
<svg width="430pt" height="241pt"
 viewBox="0.00 0.00 430.00 241.00" xmlns="http://www.w3.org/2000/svg" xmlns:xlink="http://www.w3.org/1999/xlink">
<g id="graph0" class="graph" transform="scale(1 1) rotate(0) translate(4 237)">
<title>increment_mod</title>
<polygon fill="white" stroke="transparent" points="-4,4 -4,-237 426,-237 426,4 -4,4"/>
<text text-anchor="middle" x="211" y="-217.8" font-family="Times,serif" font-size="14.00">Blue boxes indicate modules with reverse dependencies not shown</text>
<text text-anchor="middle" x="211" y="-202.8" font-family="Times,serif" font-size="14.00">Higher level reverse dependencies can be shown by clicking on a blue box</text>
<text text-anchor="middle" x="211" y="-187.8" font-family="Times,serif" font-size="14.00">Green boxes are programs</text>
<!-- increment_mod -->
<g id="node1" class="node">
<title>increment_mod</title>
<g id="a_node1"><a xlink:href="increment_mod.html" xlink:title="increment_mod">
<polygon fill="none" stroke="black" points="264.25,-36 163.25,-36 163.25,0 264.25,0 264.25,-36"/>
<text text-anchor="middle" x="213.75" y="-14.3" font-family="Times,serif" font-size="14.00">increment_mod</text>
</a>
</g>
</g>
<!-- midas_midas_var1d -->
<g id="node2" class="node">
<title>midas_midas_var1d</title>
<g id="a_node2"><a xlink:href="../programs/midas_var1d.html" xlink:title="midas_midas_var1d">
<polygon fill="gray" stroke="green" points="231.75,-108 105.75,-108 105.75,-72 231.75,-72 231.75,-108"/>
<text text-anchor="middle" x="168.75" y="-86.3" font-family="Times,serif" font-size="14.00">midas_midas_var1d</text>
</a>
</g>
</g>
<!-- midas_midas_var1d&#45;&gt;increment_mod -->
<g id="edge1" class="edge">
<title>midas_midas_var1d&#45;&gt;increment_mod</title>
<path fill="none" stroke="black" d="M184.34,-64.76C190.4,-55.32 197.22,-44.72 202.75,-36.1"/>
<ellipse fill="black" stroke="black" cx="182.04" cy="-68.33" rx="4" ry="4"/>
</g>
<!-- midas_midas_var -->
<g id="node3" class="node">
<title>midas_midas_var</title>
<g id="a_node3"><a xlink:href="../programs/midas_var.html" xlink:title="midas_midas_var">
<polygon fill="gray" stroke="green" points="316.25,-180 203.25,-180 203.25,-144 316.25,-144 316.25,-180"/>
<text text-anchor="middle" x="259.75" y="-158.3" font-family="Times,serif" font-size="14.00">midas_midas_var</text>
</a>
</g>
</g>
<!-- midas_midas_var&#45;&gt;increment_mod -->
<g id="edge2" class="edge">
<title>midas_midas_var&#45;&gt;increment_mod</title>
<path fill="none" stroke="black" d="M256.14,-135.61C253.14,-117.54 248.15,-92.86 240.75,-72 236.33,-59.54 229.58,-46.29 223.94,-36.16"/>
<ellipse fill="black" stroke="black" cx="256.83" cy="-139.96" rx="4" ry="4"/>
</g>
</g>
</svg>
