<?xml version="1.0" encoding="UTF-8" standalone="no"?>
<!DOCTYPE svg PUBLIC "-//W3C//DTD SVG 1.1//EN"
 "http://www.w3.org/Graphics/SVG/1.1/DTD/svg11.dtd">
<!-- Generated by graphviz version 3.0.0 (20220315.2325)
 -->
<!-- Title: increment_mod Pages: 1 -->
<svg width="802pt" height="673pt"
 viewBox="0.00 0.00 801.50 673.00" xmlns="http://www.w3.org/2000/svg" xmlns:xlink="http://www.w3.org/1999/xlink">
<g id="graph0" class="graph" transform="scale(1 1) rotate(0) translate(4 669)">
<title>increment_mod</title>
<polygon fill="white" stroke="transparent" points="-4,4 -4,-669 797.5,-669 797.5,4 -4,4"/>
<text text-anchor="middle" x="396.75" y="-37.8" font-family="Times,serif" font-size="14.00">Red boxes indicate modules with dependencies not shown</text>
<text text-anchor="middle" x="396.75" y="-22.8" font-family="Times,serif" font-size="14.00">Lower level dependencies can be shown by clicking on a red box</text>
<text text-anchor="middle" x="396.75" y="-7.8" font-family="Times,serif" font-size="14.00">Shaded boxes indicate modules with no dependencies</text>
<!-- increment_mod -->
<g id="node1" class="node">
<title>increment_mod</title>
<g id="a_node1"><a xlink:href="increment_mod.html" xlink:title="increment_mod">
<polygon fill="none" stroke="black" points="402,-665 301,-665 301,-629 402,-629 402,-665"/>
<text text-anchor="middle" x="351.5" y="-643.3" font-family="Times,serif" font-size="14.00">increment_mod</text>
</a>
</g>
</g>
<!-- bmatrix_mod -->
<g id="node2" class="node">
<title>bmatrix_mod</title>
<g id="a_node2"><a xlink:href="../modules/bmatrix_mod.svg" xlink:title="bmatrix_mod">
<polygon fill="none" stroke="red" points="89,-593 0,-593 0,-557 89,-557 89,-593"/>
<text text-anchor="middle" x="44.5" y="-571.3" font-family="Times,serif" font-size="14.00">bmatrix_mod</text>
</a>
</g>
</g>
<!-- increment_mod&#45;&gt;bmatrix_mod -->
<g id="edge1" class="edge">
<title>increment_mod&#45;&gt;bmatrix_mod</title>
<path fill="none" stroke="black" d="M300.91,-636.27C250.63,-626.34 171.4,-610.02 103.5,-593 102.05,-592.64 100.57,-592.26 99.09,-591.88"/>
<polygon fill="black" stroke="black" points="99.75,-588.43 89.19,-589.23 97.95,-595.19 99.75,-588.43"/>
</g>
<!-- codeprecision_mod -->
<g id="node3" class="node">
<title>codeprecision_mod</title>
<g id="a_node3"><a xlink:href="codeprecision_mod.html" xlink:title="codeprecision_mod">
<polygon fill="gray" stroke="black" points="152.5,-521 30.5,-521 30.5,-485 152.5,-485 152.5,-521"/>
<text text-anchor="middle" x="91.5" y="-499.3" font-family="Times,serif" font-size="14.00">codeprecision_mod</text>
</a>
</g>
</g>
<!-- increment_mod&#45;&gt;codeprecision_mod -->
<g id="edge2" class="edge">
<title>increment_mod&#45;&gt;codeprecision_mod</title>
<path fill="none" stroke="black" d="M300.66,-639.67C261.48,-632.94 207.3,-619.43 166.5,-593 141.5,-576.81 120.42,-549.75 107.04,-529.71"/>
<polygon fill="black" stroke="black" points="109.81,-527.56 101.44,-521.06 103.94,-531.36 109.81,-527.56"/>
</g>
<!-- gridstatevectorfileio_mod -->
<g id="node4" class="node">
<title>gridstatevectorfileio_mod</title>
<g id="a_node4"><a xlink:href="../modules/gridstatevectorfileio_mod.svg" xlink:title="gridstatevectorfileio_mod">
<polygon fill="none" stroke="red" points="190,-449 35,-449 35,-413 190,-413 190,-449"/>
<text text-anchor="middle" x="112.5" y="-427.3" font-family="Times,serif" font-size="14.00">gridstatevectorfileio_mod</text>
</a>
</g>
</g>
<!-- increment_mod&#45;&gt;gridstatevectorfileio_mod -->
<g id="edge3" class="edge">
<title>increment_mod&#45;&gt;gridstatevectorfileio_mod</title>
<path fill="none" stroke="black" d="M300.96,-638.59C269.68,-631.62 230.62,-618.28 204.5,-593 167.37,-557.07 189.06,-528.7 161.5,-485 155.15,-474.94 146.78,-465.05 138.75,-456.59"/>
<polygon fill="black" stroke="black" points="141.04,-453.93 131.54,-449.26 136.05,-458.84 141.04,-453.93"/>
</g>
<!-- gridstatevector_mod -->
<g id="node5" class="node">
<title>gridstatevector_mod</title>
<g id="a_node5"><a xlink:href="../modules/gridstatevector_mod.svg" xlink:title="gridstatevector_mod">
<polygon fill="none" stroke="red" points="228,-377 101,-377 101,-341 228,-341 228,-377"/>
<text text-anchor="middle" x="164.5" y="-355.3" font-family="Times,serif" font-size="14.00">gridstatevector_mod</text>
</a>
</g>
</g>
<!-- increment_mod&#45;&gt;gridstatevector_mod -->
<g id="edge4" class="edge">
<title>increment_mod&#45;&gt;gridstatevector_mod</title>
<path fill="none" stroke="black" d="M300.88,-631.97C280.01,-623.78 257.3,-611.34 242.5,-593 190.78,-528.91 230.95,-488.69 198.5,-413 194.47,-403.6 188.85,-394 183.33,-385.59"/>
<polygon fill="black" stroke="black" points="186.22,-383.62 177.7,-377.33 180.44,-387.56 186.22,-383.62"/>
</g>
<!-- gridvariabletransforms_mod -->
<g id="node6" class="node">
<title>gridvariabletransforms_mod</title>
<g id="a_node6"><a xlink:href="../modules/gridvariabletransforms_mod.svg" xlink:title="gridvariabletransforms_mod">
<polygon fill="none" stroke="red" points="266.5,-305 96.5,-305 96.5,-269 266.5,-269 266.5,-305"/>
<text text-anchor="middle" x="181.5" y="-283.3" font-family="Times,serif" font-size="14.00">gridvariabletransforms_mod</text>
</a>
</g>
</g>
<!-- increment_mod&#45;&gt;gridvariabletransforms_mod -->
<g id="edge5" class="edge">
<title>increment_mod&#45;&gt;gridvariabletransforms_mod</title>
<path fill="none" stroke="black" d="M319.65,-628.8C305.77,-619.82 290.44,-607.63 280.5,-593 257.49,-559.11 256.5,-544.97 256.5,-504 256.5,-504 256.5,-504 256.5,-430 256.5,-389.46 256.38,-376.33 236.5,-341 230.35,-330.08 221.25,-319.99 212.2,-311.62"/>
<polygon fill="black" stroke="black" points="214.51,-308.98 204.69,-305.01 209.88,-314.24 214.51,-308.98"/>
</g>
<!-- horizontalcoord_mod -->
<g id="node7" class="node">
<title>horizontalcoord_mod</title>
<g id="a_node7"><a xlink:href="../modules/horizontalcoord_mod.svg" xlink:title="horizontalcoord_mod">
<polygon fill="none" stroke="red" points="304,-233 171,-233 171,-197 304,-197 304,-233"/>
<text text-anchor="middle" x="237.5" y="-211.3" font-family="Times,serif" font-size="14.00">horizontalcoord_mod</text>
</a>
</g>
</g>
<!-- increment_mod&#45;&gt;horizontalcoord_mod -->
<g id="edge6" class="edge">
<title>increment_mod&#45;&gt;horizontalcoord_mod</title>
<path fill="none" stroke="black" d="M338.83,-628.57C332.03,-618.56 323.95,-605.52 318.5,-593 302.16,-555.43 294.5,-544.97 294.5,-504 294.5,-504 294.5,-504 294.5,-358 294.5,-317.55 291.85,-305.99 275.5,-269 271.17,-259.21 264.86,-249.43 258.62,-240.98"/>
<polygon fill="black" stroke="black" points="261.36,-238.8 252.48,-233.03 255.82,-243.08 261.36,-238.8"/>
</g>
<!-- humiditylimits_mod -->
<g id="node8" class="node">
<title>humiditylimits_mod</title>
<g id="a_node8"><a xlink:href="../modules/humiditylimits_mod.svg" xlink:title="humiditylimits_mod">
<polygon fill="none" stroke="red" points="342.5,-161 214.5,-161 214.5,-125 342.5,-125 342.5,-161"/>
<text text-anchor="middle" x="278.5" y="-139.3" font-family="Times,serif" font-size="14.00">humiditylimits_mod</text>
</a>
</g>
</g>
<!-- increment_mod&#45;&gt;humiditylimits_mod -->
<g id="edge7" class="edge">
<title>increment_mod&#45;&gt;humiditylimits_mod</title>
<path fill="none" stroke="black" d="M347.66,-628.61C342.1,-601.94 332.5,-549.27 332.5,-504 332.5,-504 332.5,-504 332.5,-286 332.5,-245.46 328.13,-234.41 312.5,-197 308.56,-187.57 302.96,-177.95 297.44,-169.55"/>
<polygon fill="black" stroke="black" points="300.33,-167.57 291.79,-161.29 294.55,-171.52 300.33,-167.57"/>
</g>
<!-- interpolation_mod -->
<g id="node9" class="node">
<title>interpolation_mod</title>
<g id="a_node9"><a xlink:href="../modules/interpolation_mod.svg" xlink:title="interpolation_mod">
<polygon fill="none" stroke="red" points="428.5,-89 312.5,-89 312.5,-53 428.5,-53 428.5,-89"/>
<text text-anchor="middle" x="370.5" y="-67.3" font-family="Times,serif" font-size="14.00">interpolation_mod</text>
</a>
</g>
</g>
<!-- increment_mod&#45;&gt;interpolation_mod -->
<g id="edge8" class="edge">
<title>increment_mod&#45;&gt;interpolation_mod</title>
<path fill="none" stroke="black" d="M355.34,-628.61C360.9,-601.94 370.5,-549.27 370.5,-504 370.5,-504 370.5,-504 370.5,-214 370.5,-174 370.5,-127.65 370.5,-99.08"/>
<polygon fill="black" stroke="black" points="374,-99.05 370.5,-89.05 367,-99.05 374,-99.05"/>
</g>
<!-- message_mod -->
<g id="node10" class="node">
<title>message_mod</title>
<g id="a_node10"><a xlink:href="../modules/message_mod.svg" xlink:title="message_mod">
<polygon fill="none" stroke="red" points="492,-593 399,-593 399,-557 492,-557 492,-593"/>
<text text-anchor="middle" x="445.5" y="-571.3" font-family="Times,serif" font-size="14.00">message_mod</text>
</a>
</g>
</g>
<!-- increment_mod&#45;&gt;message_mod -->
<g id="edge9" class="edge">
<title>increment_mod&#45;&gt;message_mod</title>
<path fill="none" stroke="black" d="M374.74,-628.7C386.69,-619.8 401.42,-608.82 414.35,-599.2"/>
<polygon fill="black" stroke="black" points="416.6,-601.88 422.53,-593.1 412.42,-596.27 416.6,-601.88"/>
</g>
<!-- midasmpi_mod -->
<g id="node11" class="node">
<title>midasmpi_mod</title>
<g id="a_node11"><a xlink:href="../modules/midasmpi_mod.svg" xlink:title="midasmpi_mod">
<polygon fill="none" stroke="red" points="530,-521 429,-521 429,-485 530,-485 530,-521"/>
<text text-anchor="middle" x="479.5" y="-499.3" font-family="Times,serif" font-size="14.00">midasmpi_mod</text>
</a>
</g>
</g>
<!-- increment_mod&#45;&gt;midasmpi_mod -->
<g id="edge10" class="edge">
<title>increment_mod&#45;&gt;midasmpi_mod</title>
<path fill="none" stroke="black" d="M402.27,-642.5C436.16,-637.22 478.42,-624.29 500.5,-593 513.5,-574.58 505.61,-549.21 496.02,-530.27"/>
<polygon fill="black" stroke="black" points="498.97,-528.37 491.1,-521.28 492.83,-531.73 498.97,-528.37"/>
</g>
<!-- timecoord_mod -->
<g id="node12" class="node">
<title>timecoord_mod</title>
<g id="a_node12"><a xlink:href="../modules/timecoord_mod.svg" xlink:title="timecoord_mod">
<polygon fill="none" stroke="red" points="568.5,-449 466.5,-449 466.5,-413 568.5,-413 568.5,-449"/>
<text text-anchor="middle" x="517.5" y="-427.3" font-family="Times,serif" font-size="14.00">timecoord_mod</text>
</a>
</g>
</g>
<!-- increment_mod&#45;&gt;timecoord_mod -->
<g id="edge11" class="edge">
<title>increment_mod&#45;&gt;timecoord_mod</title>
<path fill="none" stroke="black" d="M402.35,-642.49C439.4,-637.27 488.2,-624.42 518.5,-593 552.38,-557.86 547.65,-532.95 538.5,-485 536.79,-476.06 533.6,-466.7 530.21,-458.37"/>
<polygon fill="black" stroke="black" points="533.41,-456.95 526.22,-449.17 526.99,-459.73 533.41,-456.95"/>
</g>
<!-- utilities_mod -->
<g id="node13" class="node">
<title>utilities_mod</title>
<g id="a_node13"><a xlink:href="../modules/utilities_mod.svg" xlink:title="utilities_mod">
<polygon fill="none" stroke="red" points="623.5,-377 535.5,-377 535.5,-341 623.5,-341 623.5,-377"/>
<text text-anchor="middle" x="579.5" y="-355.3" font-family="Times,serif" font-size="14.00">utilities_mod</text>
</a>
</g>
</g>
<!-- increment_mod&#45;&gt;utilities_mod -->
<g id="edge12" class="edge">
<title>increment_mod&#45;&gt;utilities_mod</title>
<path fill="none" stroke="black" d="M402.23,-645.81C445.96,-642.82 507.72,-631.39 544.5,-593 598.3,-536.85 591.5,-435.59 584.43,-387.19"/>
<polygon fill="black" stroke="black" points="587.86,-386.49 582.85,-377.16 580.95,-387.58 587.86,-386.49"/>
</g>
<!-- varnamelist_mod -->
<g id="node14" class="node">
<title>varnamelist_mod</title>
<g id="a_node14"><a xlink:href="../modules/varnamelist_mod.svg" xlink:title="varnamelist_mod">
<polygon fill="none" stroke="red" points="706.5,-305 596.5,-305 596.5,-269 706.5,-269 706.5,-305"/>
<text text-anchor="middle" x="651.5" y="-283.3" font-family="Times,serif" font-size="14.00">varnamelist_mod</text>
</a>
</g>
</g>
<!-- increment_mod&#45;&gt;varnamelist_mod -->
<g id="edge13" class="edge">
<title>increment_mod&#45;&gt;varnamelist_mod</title>
<path fill="none" stroke="black" d="M402.05,-644.31C487.55,-638.47 651.5,-613.05 651.5,-504 651.5,-504 651.5,-504 651.5,-430 651.5,-390 651.5,-343.65 651.5,-315.08"/>
<polygon fill="black" stroke="black" points="655,-315.05 651.5,-305.05 648,-315.05 655,-315.05"/>
</g>
<!-- verticalcoord_mod -->
<g id="node15" class="node">
<title>verticalcoord_mod</title>
<g id="a_node15"><a xlink:href="../modules/verticalcoord_mod.svg" xlink:title="verticalcoord_mod">
<polygon fill="none" stroke="red" points="793.5,-233 675.5,-233 675.5,-197 793.5,-197 793.5,-233"/>
<text text-anchor="middle" x="734.5" y="-211.3" font-family="Times,serif" font-size="14.00">verticalcoord_mod</text>
</a>
</g>
</g>
<!-- increment_mod&#45;&gt;verticalcoord_mod -->
<g id="edge14" class="edge">
<title>increment_mod&#45;&gt;verticalcoord_mod</title>
<path fill="none" stroke="black" d="M402.21,-644.4C460.48,-640.8 557.69,-629.31 632.5,-593 686.62,-566.73 734.5,-564.16 734.5,-504 734.5,-504 734.5,-504 734.5,-358 734.5,-318 734.5,-271.65 734.5,-243.08"/>
<polygon fill="black" stroke="black" points="738,-243.05 734.5,-233.05 731,-243.05 738,-243.05"/>
</g>
</g>
</svg>
