<?xml version="1.0" encoding="UTF-8" standalone="no"?>
<!DOCTYPE svg PUBLIC "-//W3C//DTD SVG 1.1//EN"
 "http://www.w3.org/Graphics/SVG/1.1/DTD/svg11.dtd">
<!-- Generated by graphviz version 3.0.0 (20220315.2325)
 -->
<!-- Title: innovation_mod Pages: 1 -->
<svg width="738pt" height="673pt"
 viewBox="0.00 0.00 737.50 673.00" xmlns="http://www.w3.org/2000/svg" xmlns:xlink="http://www.w3.org/1999/xlink">
<g id="graph0" class="graph" transform="scale(1 1) rotate(0) translate(4 669)">
<title>innovation_mod</title>
<polygon fill="white" stroke="transparent" points="-4,4 -4,-669 733.5,-669 733.5,4 -4,4"/>
<text text-anchor="middle" x="364.75" y="-649.8" font-family="Times,serif" font-size="14.00">Blue boxes indicate modules with reverse dependencies not shown</text>
<text text-anchor="middle" x="364.75" y="-634.8" font-family="Times,serif" font-size="14.00">Higher level reverse dependencies can be shown by clicking on a blue box</text>
<text text-anchor="middle" x="364.75" y="-619.8" font-family="Times,serif" font-size="14.00">Green boxes are programs</text>
<!-- innovation_mod -->
<g id="node1" class="node">
<title>innovation_mod</title>
<g id="a_node1"><a xlink:href="innovation_mod.html" xlink:title="innovation_mod">
<polygon fill="none" stroke="black" points="370,-36 266,-36 266,0 370,0 370,-36"/>
<text text-anchor="middle" x="318" y="-14.3" font-family="Times,serif" font-size="14.00">innovation_mod</text>
</a>
</g>
</g>
<!-- ominusf_mod -->
<g id="node2" class="node">
<title>ominusf_mod</title>
<g id="a_node2"><a xlink:href="../modules/ominusf_mod_rev.svg" xlink:title="ominusf_mod">
<polygon fill="none" stroke="blue" points="98.5,-108 5.5,-108 5.5,-72 98.5,-72 98.5,-108"/>
<text text-anchor="middle" x="52" y="-86.3" font-family="Times,serif" font-size="14.00">ominusf_mod</text>
</a>
</g>
</g>
<!-- ominusf_mod&#45;&gt;innovation_mod -->
<g id="edge1" class="edge">
<title>ominusf_mod&#45;&gt;innovation_mod</title>
<path fill="none" stroke="black" d="M106.32,-73.8C108.58,-73.19 110.81,-72.59 113,-72 164.83,-58.08 224.22,-42.8 265.69,-32.24"/>
<ellipse fill="black" stroke="black" cx="102.46" cy="-74.86" rx="4" ry="4"/>
</g>
<!-- midas_midas_analysiserroroi -->
<g id="node3" class="node">
<title>midas_midas_analysiserroroi</title>
<g id="a_node3"><a xlink:href="../programs/midas_analysiserroroi.html" xlink:title="midas_midas_analysiserroroi">
<polygon fill="gray" stroke="green" points="176,-180 0,-180 0,-144 176,-144 176,-180"/>
<text text-anchor="middle" x="88" y="-158.3" font-family="Times,serif" font-size="14.00">midas_midas_analysiserroroi</text>
</a>
</g>
</g>
<!-- midas_midas_analysiserroroi&#45;&gt;innovation_mod -->
<g id="edge2" class="edge">
<title>midas_midas_analysiserroroi&#45;&gt;innovation_mod</title>
<path fill="none" stroke="black" d="M110.05,-137.94C129.63,-118.43 159.77,-90.74 190,-72 213.71,-57.3 242.22,-45.04 266.3,-36.02"/>
<ellipse fill="black" stroke="black" cx="107.14" cy="-140.87" rx="4" ry="4"/>
</g>
<!-- midas_midas_diaghbht -->
<g id="node4" class="node">
<title>midas_midas_diaghbht</title>
<g id="a_node4"><a xlink:href="../programs/midas_diaghbht.html" xlink:title="midas_midas_diaghbht">
<polygon fill="gray" stroke="green" points="213.5,-252 70.5,-252 70.5,-216 213.5,-216 213.5,-252"/>
<text text-anchor="middle" x="142" y="-230.3" font-family="Times,serif" font-size="14.00">midas_midas_diaghbht</text>
</a>
</g>
</g>
<!-- midas_midas_diaghbht&#45;&gt;innovation_mod -->
<g id="edge3" class="edge">
<title>midas_midas_diaghbht&#45;&gt;innovation_mod</title>
<path fill="none" stroke="black" d="M163.46,-209.7C170.92,-200.83 178.92,-190.36 185,-180 211.13,-135.43 194.37,-111.22 228,-72 241.1,-56.72 259.76,-44.73 276.7,-36.04"/>
<ellipse fill="black" stroke="black" cx="160.77" cy="-212.81" rx="4" ry="4"/>
</g>
<!-- midas_midas_ensembleh -->
<g id="node5" class="node">
<title>midas_midas_ensembleh</title>
<g id="a_node5"><a xlink:href="../programs/midas_ensembleh.html" xlink:title="midas_midas_ensembleh">
<polygon fill="gray" stroke="green" points="252,-324 98,-324 98,-288 252,-288 252,-324"/>
<text text-anchor="middle" x="175" y="-302.3" font-family="Times,serif" font-size="14.00">midas_midas_ensembleh</text>
</a>
</g>
</g>
<!-- midas_midas_ensembleh&#45;&gt;innovation_mod -->
<g id="edge4" class="edge">
<title>midas_midas_ensembleh&#45;&gt;innovation_mod</title>
<path fill="none" stroke="black" d="M200.18,-281.6C208.18,-272.98 216.4,-262.69 222,-252 260.22,-179.05 225.95,-143.96 266,-72 273.65,-58.26 285.82,-45.58 296.46,-36.07"/>
<ellipse fill="black" stroke="black" cx="197.2" cy="-284.68" rx="4" ry="4"/>
</g>
<!-- midas_midas_gencoeff -->
<g id="node6" class="node">
<title>midas_midas_gencoeff</title>
<g id="a_node6"><a xlink:href="../programs/midas_gencoeff.html" xlink:title="midas_midas_gencoeff">
<polygon fill="gray" stroke="green" points="289.5,-396 146.5,-396 146.5,-360 289.5,-360 289.5,-396"/>
<text text-anchor="middle" x="218" y="-374.3" font-family="Times,serif" font-size="14.00">midas_midas_gencoeff</text>
</a>
</g>
</g>
<!-- midas_midas_gencoeff&#45;&gt;innovation_mod -->
<g id="edge5" class="edge">
<title>midas_midas_gencoeff&#45;&gt;innovation_mod</title>
<path fill="none" stroke="black" d="M240.8,-353.79C248.24,-345.07 255.9,-334.67 261,-324 278.45,-287.51 280,-275.45 280,-235 280,-235 280,-235 280,-161 280,-114.55 299.21,-62.38 310.31,-36.09"/>
<ellipse fill="black" stroke="black" cx="238.1" cy="-356.84" rx="4" ry="4"/>
</g>
<!-- midas_midas_letkf -->
<g id="node7" class="node">
<title>midas_midas_letkf</title>
<g id="a_node7"><a xlink:href="../programs/midas_letkf.html" xlink:title="midas_midas_letkf">
<polygon fill="gray" stroke="green" points="328,-468 206,-468 206,-432 328,-432 328,-468"/>
<text text-anchor="middle" x="267" y="-446.3" font-family="Times,serif" font-size="14.00">midas_midas_letkf</text>
</a>
</g>
</g>
<!-- midas_midas_letkf&#45;&gt;innovation_mod -->
<g id="edge6" class="edge">
<title>midas_midas_letkf&#45;&gt;innovation_mod</title>
<path fill="none" stroke="black" d="M283.4,-424.58C288.68,-415.85 294.16,-405.76 298,-396 312.85,-358.28 318,-347.54 318,-307 318,-307 318,-307 318,-161 318,-115.89 318,-62.71 318,-36.05"/>
<ellipse fill="black" stroke="black" cx="281.17" cy="-428.15" rx="4" ry="4"/>
</g>
<!-- midas_midas_obsimpact -->
<g id="node8" class="node">
<title>midas_midas_obsimpact</title>
<g id="a_node8"><a xlink:href="../programs/midas_obsimpact.html" xlink:title="midas_midas_obsimpact">
<polygon fill="gray" stroke="green" points="366,-540 214,-540 214,-504 366,-504 366,-540"/>
<text text-anchor="middle" x="290" y="-518.3" font-family="Times,serif" font-size="14.00">midas_midas_obsimpact</text>
</a>
</g>
</g>
<!-- midas_midas_obsimpact&#45;&gt;innovation_mod -->
<g id="edge7" class="edge">
<title>midas_midas_obsimpact&#45;&gt;innovation_mod</title>
<path fill="none" stroke="black" d="M315.36,-497.69C323.37,-489.08 331.55,-478.78 337,-468 355.24,-431.9 356,-419.45 356,-379 356,-379 356,-379 356,-161 356,-114.55 336.79,-62.38 325.69,-36.09"/>
<ellipse fill="black" stroke="black" cx="312.37" cy="-500.77" rx="4" ry="4"/>
</g>
<!-- midas_midas_obsselection -->
<g id="node9" class="node">
<title>midas_midas_obsselection</title>
<g id="a_node9"><a xlink:href="../programs/midas_obsselection.html" xlink:title="midas_midas_obsselection">
<polygon fill="gray" stroke="green" points="475.5,-612 312.5,-612 312.5,-576 475.5,-576 475.5,-612"/>
<text text-anchor="middle" x="394" y="-590.3" font-family="Times,serif" font-size="14.00">midas_midas_obsselection</text>
</a>
</g>
</g>
<!-- midas_midas_obsselection&#45;&gt;innovation_mod -->
<g id="edge8" class="edge">
<title>midas_midas_obsselection&#45;&gt;innovation_mod</title>
<path fill="none" stroke="black" d="M394,-567.78C394,-539.39 394,-491.89 394,-451 394,-451 394,-451 394,-161 394,-110.95 356.84,-61.47 334.49,-36.23"/>
<ellipse fill="black" stroke="black" cx="394" cy="-571.95" rx="4" ry="4"/>
</g>
<!-- midas_midas_sstbias -->
<g id="node10" class="node">
<title>midas_midas_sstbias</title>
<g id="a_node10"><a xlink:href="../programs/midas_sstbias.html" xlink:title="midas_midas_sstbias">
<polygon fill="gray" stroke="green" points="554,-108 422,-108 422,-72 554,-72 554,-108"/>
<text text-anchor="middle" x="488" y="-86.3" font-family="Times,serif" font-size="14.00">midas_midas_sstbias</text>
</a>
</g>
</g>
<!-- midas_midas_sstbias&#45;&gt;innovation_mod -->
<g id="edge9" class="edge">
<title>midas_midas_sstbias&#45;&gt;innovation_mod</title>
<path fill="none" stroke="black" d="M438.79,-68.74C413.64,-58.38 383.39,-45.93 359.45,-36.07"/>
<ellipse fill="black" stroke="black" cx="442.71" cy="-70.35" rx="4" ry="4"/>
</g>
<!-- midas_midas_var1d -->
<g id="node11" class="node">
<title>midas_midas_var1d</title>
<g id="a_node11"><a xlink:href="../programs/midas_var1d.html" xlink:title="midas_midas_var1d">
<polygon fill="gray" stroke="green" points="645,-180 519,-180 519,-144 645,-144 645,-180"/>
<text text-anchor="middle" x="582" y="-158.3" font-family="Times,serif" font-size="14.00">midas_midas_var1d</text>
</a>
</g>
</g>
<!-- midas_midas_var1d&#45;&gt;innovation_mod -->
<g id="edge10" class="edge">
<title>midas_midas_var1d&#45;&gt;innovation_mod</title>
<path fill="none" stroke="black" d="M583.52,-135.63C583.28,-115.67 579.5,-88.54 563,-72 536.42,-45.35 433.88,-30.51 370.18,-23.7"/>
<ellipse fill="black" stroke="black" cx="583.48" cy="-139.7" rx="4" ry="4"/>
</g>
<!-- midas_midas_var -->
<g id="node12" class="node">
<title>midas_midas_var</title>
<g id="a_node12"><a xlink:href="../programs/midas_var.html" xlink:title="midas_midas_var">
<polygon fill="gray" stroke="green" points="729.5,-252 616.5,-252 616.5,-216 729.5,-216 729.5,-252"/>
<text text-anchor="middle" x="673" y="-230.3" font-family="Times,serif" font-size="14.00">midas_midas_var</text>
</a>
</g>
</g>
<!-- midas_midas_var&#45;&gt;innovation_mod -->
<g id="edge11" class="edge">
<title>midas_midas_var&#45;&gt;innovation_mod</title>
<path fill="none" stroke="black" d="M671.27,-207.67C669.15,-189.15 664.45,-163.89 654,-144 633.53,-105.03 624.53,-93.28 586,-72 517.7,-34.28 426.52,-23.15 370.06,-20.02"/>
<ellipse fill="black" stroke="black" cx="671.67" cy="-211.69" rx="4" ry="4"/>
</g>
</g>
</svg>
