<?xml version="1.0" encoding="UTF-8" standalone="no"?>
<!DOCTYPE svg PUBLIC "-//W3C//DTD SVG 1.1//EN"
 "http://www.w3.org/Graphics/SVG/1.1/DTD/svg11.dtd">
<!-- Generated by graphviz version 3.0.0 (20220315.2325)
 -->
<!-- Title: innovation_mod Pages: 1 -->
<svg width="1573pt" height="673pt"
 viewBox="0.00 0.00 1572.50 673.00" xmlns="http://www.w3.org/2000/svg" xmlns:xlink="http://www.w3.org/1999/xlink">
<g id="graph0" class="graph" transform="scale(1 1) rotate(0) translate(4 669)">
<title>innovation_mod</title>
<polygon fill="white" stroke="transparent" points="-4,4 -4,-669 1568.5,-669 1568.5,4 -4,4"/>
<text text-anchor="middle" x="782.25" y="-37.8" font-family="Times,serif" font-size="14.00">Red boxes indicate modules with dependencies not shown</text>
<text text-anchor="middle" x="782.25" y="-22.8" font-family="Times,serif" font-size="14.00">Lower level dependencies can be shown by clicking on a red box</text>
<text text-anchor="middle" x="782.25" y="-7.8" font-family="Times,serif" font-size="14.00">Shaded boxes indicate modules with no dependencies</text>
<!-- innovation_mod -->
<g id="node1" class="node">
<title>innovation_mod</title>
<g id="a_node1"><a xlink:href="innovation_mod.html" xlink:title="innovation_mod">
<polygon fill="none" stroke="black" points="834.5,-665 730.5,-665 730.5,-629 834.5,-629 834.5,-665"/>
<text text-anchor="middle" x="782.5" y="-643.3" font-family="Times,serif" font-size="14.00">innovation_mod</text>
</a>
</g>
</g>
<!-- biascorrectionsat_mod -->
<g id="node2" class="node">
<title>biascorrectionsat_mod</title>
<g id="a_node2"><a xlink:href="../modules/biascorrectionsat_mod.svg" xlink:title="biascorrectionsat_mod">
<polygon fill="none" stroke="red" points="139,-593 0,-593 0,-557 139,-557 139,-593"/>
<text text-anchor="middle" x="69.5" y="-571.3" font-family="Times,serif" font-size="14.00">biascorrectionsat_mod</text>
</a>
</g>
</g>
<!-- innovation_mod&#45;&gt;biascorrectionsat_mod -->
<g id="edge1" class="edge">
<title>innovation_mod&#45;&gt;biascorrectionsat_mod</title>
<path fill="none" stroke="black" d="M730.49,-643.66C622.53,-638.34 366.41,-623.41 153.5,-593 152.03,-592.79 150.54,-592.57 149.05,-592.34"/>
<polygon fill="black" stroke="black" points="149.5,-588.87 139.06,-590.72 148.38,-595.78 149.5,-588.87"/>
</g>
<!-- bufr_mod -->
<g id="node3" class="node">
<title>bufr_mod</title>
<g id="a_node3"><a xlink:href="bufr_mod.html" xlink:title="bufr_mod">
<polygon fill="gray" stroke="black" points="190.5,-521 120.5,-521 120.5,-485 190.5,-485 190.5,-521"/>
<text text-anchor="middle" x="155.5" y="-499.3" font-family="Times,serif" font-size="14.00">bufr_mod</text>
</a>
</g>
</g>
<!-- innovation_mod&#45;&gt;bufr_mod -->
<g id="edge2" class="edge">
<title>innovation_mod&#45;&gt;bufr_mod</title>
<path fill="none" stroke="black" d="M730.42,-644C596.57,-638.46 247.98,-621.45 204.5,-593 182.78,-578.79 169.84,-551.51 162.77,-530.88"/>
<polygon fill="black" stroke="black" points="166.02,-529.57 159.67,-521.09 159.35,-531.68 166.02,-529.57"/>
</g>
<!-- columndata_mod -->
<g id="node4" class="node">
<title>columndata_mod</title>
<g id="a_node4"><a xlink:href="../modules/columndata_mod.svg" xlink:title="columndata_mod">
<polygon fill="none" stroke="red" points="228,-449 117,-449 117,-413 228,-413 228,-449"/>
<text text-anchor="middle" x="172.5" y="-427.3" font-family="Times,serif" font-size="14.00">columndata_mod</text>
</a>
</g>
</g>
<!-- innovation_mod&#45;&gt;columndata_mod -->
<g id="edge3" class="edge">
<title>innovation_mod&#45;&gt;columndata_mod</title>
<path fill="none" stroke="black" d="M730.4,-643.94C602.57,-638.47 280.99,-621.95 242.5,-593 201.21,-561.95 220.8,-532.07 199.5,-485 195.54,-476.25 190.89,-466.86 186.58,-458.46"/>
<polygon fill="black" stroke="black" points="189.63,-456.73 181.91,-449.47 183.42,-459.96 189.63,-456.73"/>
</g>
<!-- columnvariabletransforms_mod -->
<g id="node5" class="node">
<title>columnvariabletransforms_mod</title>
<g id="a_node5"><a xlink:href="../modules/columnvariabletransforms_mod.svg" xlink:title="columnvariabletransforms_mod">
<polygon fill="none" stroke="red" points="266,-377 77,-377 77,-341 266,-341 266,-377"/>
<text text-anchor="middle" x="171.5" y="-355.3" font-family="Times,serif" font-size="14.00">columnvariabletransforms_mod</text>
</a>
</g>
</g>
<!-- innovation_mod&#45;&gt;columnvariabletransforms_mod -->
<g id="edge4" class="edge">
<title>innovation_mod&#45;&gt;columnvariabletransforms_mod</title>
<path fill="none" stroke="black" d="M730.27,-643.85C608.57,-638.36 313.91,-622.19 280.5,-593 218.48,-538.81 280.47,-482.63 236.5,-413 229.32,-401.63 218.87,-391.57 208.43,-383.35"/>
<polygon fill="black" stroke="black" points="210.24,-380.34 200.13,-377.17 206.06,-385.95 210.24,-380.34"/>
</g>
<!-- costfunction_mod -->
<g id="node6" class="node">
<title>costfunction_mod</title>
<g id="a_node6"><a xlink:href="../modules/costfunction_mod.svg" xlink:title="costfunction_mod">
<polygon fill="none" stroke="red" points="304.5,-305 190.5,-305 190.5,-269 304.5,-269 304.5,-305"/>
<text text-anchor="middle" x="247.5" y="-283.3" font-family="Times,serif" font-size="14.00">costfunction_mod</text>
</a>
</g>
</g>
<!-- innovation_mod&#45;&gt;costfunction_mod -->
<g id="edge5" class="edge">
<title>innovation_mod&#45;&gt;costfunction_mod</title>
<path fill="none" stroke="black" d="M730.45,-643.32C615.81,-636.96 349.27,-619.48 318.5,-593 287.45,-566.28 294.5,-544.97 294.5,-504 294.5,-504 294.5,-504 294.5,-430 294.5,-389.46 288.25,-379.14 274.5,-341 271.24,-331.97 266.79,-322.5 262.44,-314.11"/>
<polygon fill="black" stroke="black" points="265.45,-312.33 257.64,-305.17 259.29,-315.64 265.45,-312.33"/>
</g>
<!-- gps_mod -->
<g id="node7" class="node">
<title>gps_mod</title>
<g id="a_node7"><a xlink:href="../modules/gps_mod.svg" xlink:title="gps_mod">
<polygon fill="none" stroke="red" points="342.5,-233 276.5,-233 276.5,-197 342.5,-197 342.5,-233"/>
<text text-anchor="middle" x="309.5" y="-211.3" font-family="Times,serif" font-size="14.00">gps_mod</text>
</a>
</g>
</g>
<!-- innovation_mod&#45;&gt;gps_mod -->
<g id="edge6" class="edge">
<title>innovation_mod&#45;&gt;gps_mod</title>
<path fill="none" stroke="black" d="M730.42,-646.53C629.25,-646.46 411.27,-640.61 356.5,-593 325.58,-566.12 332.5,-544.97 332.5,-504 332.5,-504 332.5,-504 332.5,-358 332.5,-317.7 323.36,-271.78 316.6,-243.34"/>
<polygon fill="black" stroke="black" points="319.93,-242.22 314.15,-233.34 313.13,-243.89 319.93,-242.22"/>
</g>
<!-- gridstatevector_mod -->
<g id="node8" class="node">
<title>gridstatevector_mod</title>
<g id="a_node8"><a xlink:href="../modules/gridstatevector_mod.svg" xlink:title="gridstatevector_mod">
<polygon fill="none" stroke="red" points="380,-161 253,-161 253,-125 380,-125 380,-161"/>
<text text-anchor="middle" x="316.5" y="-139.3" font-family="Times,serif" font-size="14.00">gridstatevector_mod</text>
</a>
</g>
</g>
<!-- innovation_mod&#45;&gt;gridstatevector_mod -->
<g id="edge7" class="edge">
<title>innovation_mod&#45;&gt;gridstatevector_mod</title>
<path fill="none" stroke="black" d="M730.33,-645.79C636.24,-644.33 443.37,-636 394.5,-593 363.74,-565.94 370.5,-544.97 370.5,-504 370.5,-504 370.5,-504 370.5,-286 370.5,-245.55 367.14,-234.3 351.5,-197 347.51,-187.49 341.77,-177.86 336.08,-169.46"/>
<polygon fill="black" stroke="black" points="338.88,-167.36 330.25,-161.21 333.17,-171.4 338.88,-167.36"/>
</g>
<!-- horizontalcoord_mod -->
<g id="node9" class="node">
<title>horizontalcoord_mod</title>
<g id="a_node9"><a xlink:href="../modules/horizontalcoord_mod.svg" xlink:title="horizontalcoord_mod">
<polygon fill="none" stroke="red" points="475,-89 342,-89 342,-53 475,-53 475,-89"/>
<text text-anchor="middle" x="408.5" y="-67.3" font-family="Times,serif" font-size="14.00">horizontalcoord_mod</text>
</a>
</g>
</g>
<!-- innovation_mod&#45;&gt;horizontalcoord_mod -->
<g id="edge8" class="edge">
<title>innovation_mod&#45;&gt;horizontalcoord_mod</title>
<path fill="none" stroke="black" d="M730.4,-645.28C642.54,-642.95 470.3,-633.22 427.5,-593 398.03,-565.3 408.5,-544.45 408.5,-504 408.5,-504 408.5,-504 408.5,-214 408.5,-174 408.5,-127.65 408.5,-99.08"/>
<polygon fill="black" stroke="black" points="412,-99.05 408.5,-89.05 405,-99.05 412,-99.05"/>
</g>
<!-- humiditylimits_mod -->
<g id="node10" class="node">
<title>humiditylimits_mod</title>
<g id="a_node10"><a xlink:href="../modules/humiditylimits_mod.svg" xlink:title="humiditylimits_mod">
<polygon fill="none" stroke="red" points="564.5,-593 436.5,-593 436.5,-557 564.5,-557 564.5,-593"/>
<text text-anchor="middle" x="500.5" y="-571.3" font-family="Times,serif" font-size="14.00">humiditylimits_mod</text>
</a>
</g>
</g>
<!-- innovation_mod&#45;&gt;humiditylimits_mod -->
<g id="edge9" class="edge">
<title>innovation_mod&#45;&gt;humiditylimits_mod</title>
<path fill="none" stroke="black" d="M730.45,-633.08C686.68,-622.21 623.57,-606.55 574.54,-594.38"/>
<polygon fill="black" stroke="black" points="575.16,-590.93 564.62,-591.92 573.48,-597.72 575.16,-590.93"/>
</g>
<!-- interpolation_mod -->
<g id="node11" class="node">
<title>interpolation_mod</title>
<g id="a_node11"><a xlink:href="../modules/interpolation_mod.svg" xlink:title="interpolation_mod">
<polygon fill="none" stroke="red" points="602.5,-521 486.5,-521 486.5,-485 602.5,-485 602.5,-521"/>
<text text-anchor="middle" x="544.5" y="-499.3" font-family="Times,serif" font-size="14.00">interpolation_mod</text>
</a>
</g>
</g>
<!-- innovation_mod&#45;&gt;interpolation_mod -->
<g id="edge10" class="edge">
<title>innovation_mod&#45;&gt;interpolation_mod</title>
<path fill="none" stroke="black" d="M730.42,-637.46C695.85,-629.93 650.71,-616.4 616.5,-593 592.46,-576.56 572.35,-549.77 559.54,-529.88"/>
<polygon fill="black" stroke="black" points="562.45,-527.92 554.19,-521.28 556.51,-531.62 562.45,-527.92"/>
</g>
<!-- mathphysconstants_mod -->
<g id="node12" class="node">
<title>mathphysconstants_mod</title>
<g id="a_node12"><a xlink:href="mathphysconstants_mod.html" xlink:title="mathphysconstants_mod">
<polygon fill="gray" stroke="black" points="640.5,-449 490.5,-449 490.5,-413 640.5,-413 640.5,-449"/>
<text text-anchor="middle" x="565.5" y="-427.3" font-family="Times,serif" font-size="14.00">mathphysconstants_mod</text>
</a>
</g>
</g>
<!-- innovation_mod&#45;&gt;mathphysconstants_mod -->
<g id="edge11" class="edge">
<title>innovation_mod&#45;&gt;mathphysconstants_mod</title>
<path fill="none" stroke="black" d="M730.31,-634.61C704.65,-626.69 674.94,-613.72 654.5,-593 618.22,-556.22 638.37,-529.13 611.5,-485 605.55,-475.22 597.77,-465.48 590.3,-457.07"/>
<polygon fill="black" stroke="black" points="592.65,-454.45 583.31,-449.45 587.49,-459.18 592.65,-454.45"/>
</g>
<!-- message_mod -->
<g id="node13" class="node">
<title>message_mod</title>
<g id="a_node13"><a xlink:href="../modules/message_mod.svg" xlink:title="message_mod">
<polygon fill="none" stroke="red" points="678,-377 585,-377 585,-341 678,-341 678,-377"/>
<text text-anchor="middle" x="631.5" y="-355.3" font-family="Times,serif" font-size="14.00">message_mod</text>
</a>
</g>
</g>
<!-- innovation_mod&#45;&gt;message_mod -->
<g id="edge12" class="edge">
<title>innovation_mod&#45;&gt;message_mod</title>
<path fill="none" stroke="black" d="M738.25,-628.89C721.65,-620.42 704.03,-608.6 692.5,-593 643.61,-526.86 672.31,-492.03 649.5,-413 647.01,-404.37 643.97,-395.06 641.11,-386.69"/>
<polygon fill="black" stroke="black" points="644.34,-385.35 637.74,-377.06 637.73,-387.65 644.34,-385.35"/>
</g>
<!-- midasmpi_mod -->
<g id="node14" class="node">
<title>midasmpi_mod</title>
<g id="a_node14"><a xlink:href="../modules/midasmpi_mod.svg" xlink:title="midasmpi_mod">
<polygon fill="none" stroke="red" points="716,-305 615,-305 615,-269 716,-269 716,-305"/>
<text text-anchor="middle" x="665.5" y="-283.3" font-family="Times,serif" font-size="14.00">midasmpi_mod</text>
</a>
</g>
</g>
<!-- innovation_mod&#45;&gt;midasmpi_mod -->
<g id="edge13" class="edge">
<title>innovation_mod&#45;&gt;midasmpi_mod</title>
<path fill="none" stroke="black" d="M761.09,-628.86C750.49,-619.33 738.31,-606.65 730.5,-593 710.16,-557.44 706.5,-544.97 706.5,-504 706.5,-504 706.5,-504 706.5,-430 706.5,-388.41 690.06,-342.56 678,-314.51"/>
<polygon fill="black" stroke="black" points="681.05,-312.75 673.8,-305.03 674.65,-315.59 681.05,-312.75"/>
</g>
<!-- multi_ir_bgck_mod -->
<g id="node15" class="node">
<title>multi_ir_bgck_mod</title>
<g id="a_node15"><a xlink:href="../modules/multi_ir_bgck_mod.svg" xlink:title="multi_ir_bgck_mod">
<polygon fill="none" stroke="red" points="754,-233 629,-233 629,-197 754,-197 754,-233"/>
<text text-anchor="middle" x="691.5" y="-211.3" font-family="Times,serif" font-size="14.00">multi_ir_bgck_mod</text>
</a>
</g>
</g>
<!-- innovation_mod&#45;&gt;multi_ir_bgck_mod -->
<g id="edge14" class="edge">
<title>innovation_mod&#45;&gt;multi_ir_bgck_mod</title>
<path fill="none" stroke="black" d="M774.81,-628.91C763.71,-602.62 744.5,-550.45 744.5,-504 744.5,-504 744.5,-504 744.5,-358 744.5,-317.46 739.88,-306.51 724.5,-269 720.7,-259.72 715.33,-250.22 710.03,-241.88"/>
<polygon fill="black" stroke="black" points="712.82,-239.75 704.38,-233.34 706.98,-243.62 712.82,-239.75"/>
</g>
<!-- obserrors_mod -->
<g id="node16" class="node">
<title>obserrors_mod</title>
<g id="a_node16"><a xlink:href="../modules/obserrors_mod.svg" xlink:title="obserrors_mod">
<polygon fill="none" stroke="red" points="792.5,-161 694.5,-161 694.5,-125 792.5,-125 792.5,-161"/>
<text text-anchor="middle" x="743.5" y="-139.3" font-family="Times,serif" font-size="14.00">obserrors_mod</text>
</a>
</g>
</g>
<!-- innovation_mod&#45;&gt;obserrors_mod -->
<g id="edge15" class="edge">
<title>innovation_mod&#45;&gt;obserrors_mod</title>
<path fill="none" stroke="black" d="M782.5,-628.95C782.5,-602.29 782.5,-549.11 782.5,-504 782.5,-504 782.5,-504 782.5,-286 782.5,-244.56 766.86,-198.67 755.39,-170.58"/>
<polygon fill="black" stroke="black" points="758.5,-168.93 751.39,-161.07 752.05,-171.65 758.5,-168.93"/>
</g>
<!-- obsfiles_mod -->
<g id="node17" class="node">
<title>obsfiles_mod</title>
<g id="a_node17"><a xlink:href="../modules/obsfiles_mod.svg" xlink:title="obsfiles_mod">
<polygon fill="none" stroke="red" points="865,-89 776,-89 776,-53 865,-53 865,-89"/>
<text text-anchor="middle" x="820.5" y="-67.3" font-family="Times,serif" font-size="14.00">obsfiles_mod</text>
</a>
</g>
</g>
<!-- innovation_mod&#45;&gt;obsfiles_mod -->
<g id="edge16" class="edge">
<title>innovation_mod&#45;&gt;obsfiles_mod</title>
<path fill="none" stroke="black" d="M790.19,-628.91C801.29,-602.62 820.5,-550.45 820.5,-504 820.5,-504 820.5,-504 820.5,-214 820.5,-174 820.5,-127.65 820.5,-99.08"/>
<polygon fill="black" stroke="black" points="824,-99.05 820.5,-89.05 817,-99.05 824,-99.05"/>
</g>
<!-- obsfilter_mod -->
<g id="node18" class="node">
<title>obsfilter_mod</title>
<g id="a_node18"><a xlink:href="../modules/obsfilter_mod.svg" xlink:title="obsfilter_mod">
<polygon fill="none" stroke="red" points="940.5,-593 848.5,-593 848.5,-557 940.5,-557 940.5,-593"/>
<text text-anchor="middle" x="894.5" y="-571.3" font-family="Times,serif" font-size="14.00">obsfilter_mod</text>
</a>
</g>
</g>
<!-- innovation_mod&#45;&gt;obsfilter_mod -->
<g id="edge17" class="edge">
<title>innovation_mod&#45;&gt;obsfilter_mod</title>
<path fill="none" stroke="black" d="M809.9,-628.88C824.41,-619.81 842.42,-608.55 858.09,-598.76"/>
<polygon fill="black" stroke="black" points="860.37,-601.46 867,-593.19 856.66,-595.52 860.37,-601.46"/>
</g>
<!-- obsoperators_mod -->
<g id="node19" class="node">
<title>obsoperators_mod</title>
<g id="a_node19"><a xlink:href="../modules/obsoperators_mod.svg" xlink:title="obsoperators_mod">
<polygon fill="none" stroke="red" points="978.5,-521 862.5,-521 862.5,-485 978.5,-485 978.5,-521"/>
<text text-anchor="middle" x="920.5" y="-499.3" font-family="Times,serif" font-size="14.00">obsoperators_mod</text>
</a>
</g>
</g>
<!-- innovation_mod&#45;&gt;obsoperators_mod -->
<g id="edge18" class="edge">
<title>innovation_mod&#45;&gt;obsoperators_mod</title>
<path fill="none" stroke="black" d="M834.77,-644.82C873.34,-640.87 923.45,-628.59 949.5,-593 963.25,-574.21 952.52,-548.56 940.41,-529.63"/>
<polygon fill="black" stroke="black" points="943.17,-527.47 934.64,-521.19 937.39,-531.42 943.17,-527.47"/>
</g>
<!-- obsspacedata_mod -->
<g id="node20" class="node">
<title>obsspacedata_mod</title>
<g id="a_node20"><a xlink:href="../modules/obsspacedata_mod.svg" xlink:title="obsspacedata_mod">
<polygon fill="none" stroke="red" points="1016.5,-449 898.5,-449 898.5,-413 1016.5,-413 1016.5,-449"/>
<text text-anchor="middle" x="957.5" y="-427.3" font-family="Times,serif" font-size="14.00">obsspacedata_mod</text>
</a>
</g>
</g>
<!-- innovation_mod&#45;&gt;obsspacedata_mod -->
<g id="edge19" class="edge">
<title>innovation_mod&#45;&gt;obsspacedata_mod</title>
<path fill="none" stroke="black" d="M834.9,-644.4C876.29,-640.33 932.68,-628.11 967.5,-593 1001.88,-558.34 999.93,-532.21 987.5,-485 985.01,-475.54 980.4,-465.99 975.53,-457.66"/>
<polygon fill="black" stroke="black" points="978.49,-455.79 970.23,-449.15 972.55,-459.49 978.49,-455.79"/>
</g>
<!-- obstimeinterp_mod -->
<g id="node21" class="node">
<title>obstimeinterp_mod</title>
<g id="a_node21"><a xlink:href="../modules/obstimeinterp_mod.svg" xlink:title="obstimeinterp_mod">
<polygon fill="none" stroke="red" points="1054.5,-377 932.5,-377 932.5,-341 1054.5,-341 1054.5,-377"/>
<text text-anchor="middle" x="993.5" y="-355.3" font-family="Times,serif" font-size="14.00">obstimeinterp_mod</text>
</a>
</g>
</g>
<!-- innovation_mod&#45;&gt;obstimeinterp_mod -->
<g id="edge20" class="edge">
<title>innovation_mod&#45;&gt;obstimeinterp_mod</title>
<path fill="none" stroke="black" d="M834.56,-639.34C889.96,-631.2 972.6,-615.63 994.5,-593 1050.95,-534.66 1047.28,-491.2 1025.5,-413 1022.83,-403.42 1017.91,-393.84 1012.72,-385.51"/>
<polygon fill="black" stroke="black" points="1015.52,-383.41 1007.06,-377.03 1009.7,-387.29 1015.52,-383.41"/>
</g>
<!-- randomnumber_mod -->
<g id="node22" class="node">
<title>randomnumber_mod</title>
<g id="a_node22"><a xlink:href="randomnumber_mod.html" xlink:title="randomnumber_mod">
<polygon fill="gray" stroke="black" points="1092,-305 961,-305 961,-269 1092,-269 1092,-305"/>
<text text-anchor="middle" x="1026.5" y="-283.3" font-family="Times,serif" font-size="14.00">randomnumber_mod</text>
</a>
</g>
</g>
<!-- innovation_mod&#45;&gt;randomnumber_mod -->
<g id="edge21" class="edge">
<title>innovation_mod&#45;&gt;randomnumber_mod</title>
<path fill="none" stroke="black" d="M834.76,-644.2C920.71,-638.13 1082.5,-612.33 1082.5,-504 1082.5,-504 1082.5,-504 1082.5,-430 1082.5,-389.55 1079.62,-378.1 1063.5,-341 1059.32,-331.38 1053.25,-321.71 1047.24,-313.32"/>
<polygon fill="black" stroke="black" points="1049.87,-310.99 1041.07,-305.09 1044.27,-315.19 1049.87,-310.99"/>
</g>
<!-- rmatrix_mod -->
<g id="node23" class="node">
<title>rmatrix_mod</title>
<g id="a_node23"><a xlink:href="../modules/rmatrix_mod.svg" xlink:title="rmatrix_mod">
<polygon fill="none" stroke="red" points="1130,-233 1043,-233 1043,-197 1130,-197 1130,-233"/>
<text text-anchor="middle" x="1086.5" y="-211.3" font-family="Times,serif" font-size="14.00">rmatrix_mod</text>
</a>
</g>
</g>
<!-- innovation_mod&#45;&gt;rmatrix_mod -->
<g id="edge22" class="edge">
<title>innovation_mod&#45;&gt;rmatrix_mod</title>
<path fill="none" stroke="black" d="M834.57,-646.74C929.38,-645.07 1120.5,-626.52 1120.5,-504 1120.5,-504 1120.5,-504 1120.5,-358 1120.5,-316.91 1106.87,-270.92 1096.87,-242.72"/>
<polygon fill="black" stroke="black" points="1100.1,-241.36 1093.38,-233.17 1093.53,-243.76 1100.1,-241.36"/>
</g>
<!-- statetocolumn_mod -->
<g id="node24" class="node">
<title>statetocolumn_mod</title>
<g id="a_node24"><a xlink:href="../modules/statetocolumn_mod.svg" xlink:title="statetocolumn_mod">
<polygon fill="none" stroke="red" points="1168.5,-161 1044.5,-161 1044.5,-125 1168.5,-125 1168.5,-161"/>
<text text-anchor="middle" x="1106.5" y="-139.3" font-family="Times,serif" font-size="14.00">statetocolumn_mod</text>
</a>
</g>
</g>
<!-- innovation_mod&#45;&gt;statetocolumn_mod -->
<g id="edge23" class="edge">
<title>innovation_mod&#45;&gt;statetocolumn_mod</title>
<path fill="none" stroke="black" d="M834.74,-642.45C913.64,-636.25 1058.55,-621.31 1101.5,-593 1140.72,-567.14 1158.5,-550.97 1158.5,-504 1158.5,-504 1158.5,-504 1158.5,-286 1158.5,-245.46 1153.62,-234.62 1138.5,-197 1134.79,-187.77 1129.58,-178.29 1124.44,-169.94"/>
<polygon fill="black" stroke="black" points="1127.31,-167.93 1118.97,-161.4 1121.42,-171.71 1127.31,-167.93"/>
</g>
<!-- timecoord_mod -->
<g id="node25" class="node">
<title>timecoord_mod</title>
<g id="a_node25"><a xlink:href="../modules/timecoord_mod.svg" xlink:title="timecoord_mod">
<polygon fill="none" stroke="red" points="1247.5,-89 1145.5,-89 1145.5,-53 1247.5,-53 1247.5,-89"/>
<text text-anchor="middle" x="1196.5" y="-67.3" font-family="Times,serif" font-size="14.00">timecoord_mod</text>
</a>
</g>
</g>
<!-- innovation_mod&#45;&gt;timecoord_mod -->
<g id="edge24" class="edge">
<title>innovation_mod&#45;&gt;timecoord_mod</title>
<path fill="none" stroke="black" d="M834.56,-643.38C920.69,-638.22 1088.22,-624.37 1137.5,-593 1177.54,-567.52 1196.5,-551.46 1196.5,-504 1196.5,-504 1196.5,-504 1196.5,-214 1196.5,-174 1196.5,-127.65 1196.5,-99.08"/>
<polygon fill="black" stroke="black" points="1200,-99.05 1196.5,-89.05 1193,-99.05 1200,-99.05"/>
</g>
<!-- tovs_nl_mod -->
<g id="node26" class="node">
<title>tovs_nl_mod</title>
<g id="a_node26"><a xlink:href="../modules/tovs_nl_mod.svg" xlink:title="tovs_nl_mod">
<polygon fill="none" stroke="red" points="1312,-593 1225,-593 1225,-557 1312,-557 1312,-593"/>
<text text-anchor="middle" x="1268.5" y="-571.3" font-family="Times,serif" font-size="14.00">tovs_nl_mod</text>
</a>
</g>
</g>
<!-- innovation_mod&#45;&gt;tovs_nl_mod -->
<g id="edge25" class="edge">
<title>innovation_mod&#45;&gt;tovs_nl_mod</title>
<path fill="none" stroke="black" d="M834.66,-642.28C915.71,-635.88 1076.51,-620.74 1210.5,-593 1211.98,-592.69 1213.47,-592.37 1214.98,-592.03"/>
<polygon fill="black" stroke="black" points="1216.11,-595.35 1224.99,-589.58 1214.44,-588.56 1216.11,-595.35"/>
</g>
<!-- utilities_mod -->
<g id="node27" class="node">
<title>utilities_mod</title>
<g id="a_node27"><a xlink:href="../modules/utilities_mod.svg" xlink:title="utilities_mod">
<polygon fill="none" stroke="red" points="1350.5,-521 1262.5,-521 1262.5,-485 1350.5,-485 1350.5,-521"/>
<text text-anchor="middle" x="1306.5" y="-499.3" font-family="Times,serif" font-size="14.00">utilities_mod</text>
</a>
</g>
</g>
<!-- innovation_mod&#45;&gt;utilities_mod -->
<g id="edge26" class="edge">
<title>innovation_mod&#45;&gt;utilities_mod</title>
<path fill="none" stroke="black" d="M834.67,-644.76C963.43,-641.16 1288.24,-628.6 1320.5,-593 1335.76,-576.17 1329.2,-549.79 1320.66,-530.11"/>
<polygon fill="black" stroke="black" points="1323.83,-528.62 1316.4,-521.06 1317.5,-531.6 1323.83,-528.62"/>
</g>
<!-- varnamelist_mod -->
<g id="node28" class="node">
<title>varnamelist_mod</title>
<g id="a_node28"><a xlink:href="../modules/varnamelist_mod.svg" xlink:title="varnamelist_mod">
<polygon fill="none" stroke="red" points="1410.5,-449 1300.5,-449 1300.5,-413 1410.5,-413 1410.5,-449"/>
<text text-anchor="middle" x="1355.5" y="-427.3" font-family="Times,serif" font-size="14.00">varnamelist_mod</text>
</a>
</g>
</g>
<!-- innovation_mod&#45;&gt;varnamelist_mod -->
<g id="edge27" class="edge">
<title>innovation_mod&#45;&gt;varnamelist_mod</title>
<path fill="none" stroke="black" d="M834.51,-644.37C965.49,-639.8 1301.25,-625.05 1339.5,-593 1377.71,-560.98 1370.63,-495.98 1362.69,-459.11"/>
<polygon fill="black" stroke="black" points="1366.03,-458.02 1360.36,-449.08 1359.21,-459.61 1366.03,-458.02"/>
</g>
<!-- varqc_mod -->
<g id="node29" class="node">
<title>varqc_mod</title>
<g id="a_node29"><a xlink:href="../modules/varqc_mod.svg" xlink:title="varqc_mod">
<polygon fill="none" stroke="red" points="1477,-377 1400,-377 1400,-341 1477,-341 1477,-377"/>
<text text-anchor="middle" x="1438.5" y="-355.3" font-family="Times,serif" font-size="14.00">varqc_mod</text>
</a>
</g>
</g>
<!-- innovation_mod&#45;&gt;varqc_mod -->
<g id="edge28" class="edge">
<title>innovation_mod&#45;&gt;varqc_mod</title>
<path fill="none" stroke="black" d="M834.78,-644.39C970.02,-639.79 1323.77,-624.81 1365.5,-593 1430.2,-543.68 1438.92,-437.36 1439.23,-387.22"/>
<polygon fill="black" stroke="black" points="1442.73,-387.12 1439.18,-377.13 1435.73,-387.15 1442.73,-387.12"/>
</g>
<!-- verticalcoord_mod -->
<g id="node30" class="node">
<title>verticalcoord_mod</title>
<g id="a_node30"><a xlink:href="../modules/verticalcoord_mod.svg" xlink:title="verticalcoord_mod">
<polygon fill="none" stroke="red" points="1564.5,-305 1446.5,-305 1446.5,-269 1564.5,-269 1564.5,-305"/>
<text text-anchor="middle" x="1505.5" y="-283.3" font-family="Times,serif" font-size="14.00">verticalcoord_mod</text>
</a>
</g>
</g>
<!-- innovation_mod&#45;&gt;verticalcoord_mod -->
<g id="edge29" class="edge">
<title>innovation_mod&#45;&gt;verticalcoord_mod</title>
<path fill="none" stroke="black" d="M834.79,-646.84C1000.86,-648.13 1505.5,-640.79 1505.5,-504 1505.5,-504 1505.5,-504 1505.5,-430 1505.5,-390 1505.5,-343.65 1505.5,-315.08"/>
<polygon fill="black" stroke="black" points="1509,-315.05 1505.5,-305.05 1502,-315.05 1509,-315.05"/>
</g>
</g>
</svg>
