<?xml version="1.0" encoding="UTF-8" standalone="no"?>
<!DOCTYPE svg PUBLIC "-//W3C//DTD SVG 1.1//EN"
 "http://www.w3.org/Graphics/SVG/1.1/DTD/svg11.dtd">
<!-- Generated by graphviz version 3.0.0 (20220315.2325)
 -->
<!-- Title: interpolation_mod Pages: 1 -->
<svg width="740pt" height="673pt"
 viewBox="0.00 0.00 739.50 673.00" xmlns="http://www.w3.org/2000/svg" xmlns:xlink="http://www.w3.org/1999/xlink">
<g id="graph0" class="graph" transform="scale(1 1) rotate(0) translate(4 669)">
<title>interpolation_mod</title>
<polygon fill="white" stroke="transparent" points="-4,4 -4,-669 735.5,-669 735.5,4 -4,4"/>
<text text-anchor="middle" x="365.75" y="-37.8" font-family="Times,serif" font-size="14.00">Red boxes indicate modules with dependencies not shown</text>
<text text-anchor="middle" x="365.75" y="-22.8" font-family="Times,serif" font-size="14.00">Lower level dependencies can be shown by clicking on a red box</text>
<text text-anchor="middle" x="365.75" y="-7.8" font-family="Times,serif" font-size="14.00">Shaded boxes indicate modules with no dependencies</text>
<!-- interpolation_mod -->
<g id="node1" class="node">
<title>interpolation_mod</title>
<g id="a_node1"><a xlink:href="interpolation_mod.html" xlink:title="interpolation_mod">
<polygon fill="none" stroke="black" points="427.5,-665 311.5,-665 311.5,-629 427.5,-629 427.5,-665"/>
<text text-anchor="middle" x="369.5" y="-643.3" font-family="Times,serif" font-size="14.00">interpolation_mod</text>
</a>
</g>
</g>
<!-- calcheightandpressure_mod -->
<g id="node2" class="node">
<title>calcheightandpressure_mod</title>
<g id="a_node2"><a xlink:href="../modules/calcheightandpressure_mod.svg" xlink:title="calcheightandpressure_mod">
<polygon fill="none" stroke="red" points="167,-593 0,-593 0,-557 167,-557 167,-593"/>
<text text-anchor="middle" x="83.5" y="-571.3" font-family="Times,serif" font-size="14.00">calcheightandpressure_mod</text>
</a>
</g>
</g>
<!-- interpolation_mod&#45;&gt;calcheightandpressure_mod -->
<g id="edge1" class="edge">
<title>interpolation_mod&#45;&gt;calcheightandpressure_mod</title>
<path fill="none" stroke="black" d="M311.28,-631.75C268.51,-621.28 209.9,-606.94 162.85,-595.42"/>
<polygon fill="black" stroke="black" points="163.54,-591.99 152.99,-593.01 161.87,-598.79 163.54,-591.99"/>
</g>
<!-- columndata_mod -->
<g id="node3" class="node">
<title>columndata_mod</title>
<g id="a_node3"><a xlink:href="../modules/columndata_mod.svg" xlink:title="columndata_mod">
<polygon fill="none" stroke="red" points="227,-521 116,-521 116,-485 227,-485 227,-521"/>
<text text-anchor="middle" x="171.5" y="-499.3" font-family="Times,serif" font-size="14.00">columndata_mod</text>
</a>
</g>
</g>
<!-- interpolation_mod&#45;&gt;columndata_mod -->
<g id="edge2" class="edge">
<title>interpolation_mod&#45;&gt;columndata_mod</title>
<path fill="none" stroke="black" d="M311.38,-629.07C288.22,-620.57 262.2,-608.69 241.5,-593 218.78,-575.78 199.33,-549.51 186.75,-529.96"/>
<polygon fill="black" stroke="black" points="189.57,-527.87 181.3,-521.25 183.63,-531.58 189.57,-527.87"/>
</g>
<!-- gridstatevector_mod -->
<g id="node4" class="node">
<title>gridstatevector_mod</title>
<g id="a_node4"><a xlink:href="../modules/gridstatevector_mod.svg" xlink:title="gridstatevector_mod">
<polygon fill="none" stroke="red" points="265,-449 138,-449 138,-413 265,-413 265,-449"/>
<text text-anchor="middle" x="201.5" y="-427.3" font-family="Times,serif" font-size="14.00">gridstatevector_mod</text>
</a>
</g>
</g>
<!-- interpolation_mod&#45;&gt;gridstatevector_mod -->
<g id="edge3" class="edge">
<title>interpolation_mod&#45;&gt;gridstatevector_mod</title>
<path fill="none" stroke="black" d="M328.26,-628.91C311.33,-620.21 292.66,-608.23 279.5,-593 245.61,-553.79 259.37,-531.01 235.5,-485 230.72,-475.78 224.8,-466.11 219.25,-457.58"/>
<polygon fill="black" stroke="black" points="222.12,-455.57 213.67,-449.18 216.29,-459.45 222.12,-455.57"/>
</g>
<!-- horizontalcoord_mod -->
<g id="node5" class="node">
<title>horizontalcoord_mod</title>
<g id="a_node5"><a xlink:href="../modules/horizontalcoord_mod.svg" xlink:title="horizontalcoord_mod">
<polygon fill="none" stroke="red" points="303,-377 170,-377 170,-341 303,-341 303,-377"/>
<text text-anchor="middle" x="236.5" y="-355.3" font-family="Times,serif" font-size="14.00">horizontalcoord_mod</text>
</a>
</g>
</g>
<!-- interpolation_mod&#45;&gt;horizontalcoord_mod -->
<g id="edge4" class="edge">
<title>interpolation_mod&#45;&gt;horizontalcoord_mod</title>
<path fill="none" stroke="black" d="M347.96,-628.93C337.32,-619.42 325.15,-606.74 317.5,-593 277.45,-521.04 307.43,-488.04 273.5,-413 269.18,-403.44 263.07,-393.79 257.07,-385.39"/>
<polygon fill="black" stroke="black" points="259.71,-383.08 250.93,-377.15 254.1,-387.26 259.71,-383.08"/>
</g>
<!-- kdtree2_mod -->
<g id="node6" class="node">
<title>kdtree2_mod</title>
<g id="a_node6"><a xlink:href="../modules/kdtree2_mod.svg" xlink:title="kdtree2_mod">
<polygon fill="none" stroke="red" points="341.5,-305 253.5,-305 253.5,-269 341.5,-269 341.5,-305"/>
<text text-anchor="middle" x="297.5" y="-283.3" font-family="Times,serif" font-size="14.00">kdtree2_mod</text>
</a>
</g>
</g>
<!-- interpolation_mod&#45;&gt;kdtree2_mod -->
<g id="edge5" class="edge">
<title>interpolation_mod&#45;&gt;kdtree2_mod</title>
<path fill="none" stroke="black" d="M361.81,-628.91C350.71,-602.62 331.5,-550.45 331.5,-504 331.5,-504 331.5,-504 331.5,-430 331.5,-388.91 317.87,-342.92 307.87,-314.72"/>
<polygon fill="black" stroke="black" points="311.1,-313.36 304.38,-305.17 304.53,-315.76 311.1,-313.36"/>
</g>
<!-- mathphysconstants_mod -->
<g id="node7" class="node">
<title>mathphysconstants_mod</title>
<g id="a_node7"><a xlink:href="mathphysconstants_mod.html" xlink:title="mathphysconstants_mod">
<polygon fill="gray" stroke="black" points="379.5,-233 229.5,-233 229.5,-197 379.5,-197 379.5,-233"/>
<text text-anchor="middle" x="304.5" y="-211.3" font-family="Times,serif" font-size="14.00">mathphysconstants_mod</text>
</a>
</g>
</g>
<!-- interpolation_mod&#45;&gt;mathphysconstants_mod -->
<g id="edge6" class="edge">
<title>interpolation_mod&#45;&gt;mathphysconstants_mod</title>
<path fill="none" stroke="black" d="M369.5,-628.95C369.5,-602.29 369.5,-549.11 369.5,-504 369.5,-504 369.5,-504 369.5,-358 369.5,-317.55 368.55,-305.2 350.5,-269 345.47,-258.92 338.08,-249.21 330.68,-240.91"/>
<polygon fill="black" stroke="black" points="333.06,-238.33 323.66,-233.43 327.95,-243.12 333.06,-238.33"/>
</g>
<!-- message_mod -->
<g id="node8" class="node">
<title>message_mod</title>
<g id="a_node8"><a xlink:href="../modules/message_mod.svg" xlink:title="message_mod">
<polygon fill="none" stroke="red" points="417,-161 324,-161 324,-125 417,-125 417,-161"/>
<text text-anchor="middle" x="370.5" y="-139.3" font-family="Times,serif" font-size="14.00">message_mod</text>
</a>
</g>
</g>
<!-- interpolation_mod&#45;&gt;message_mod -->
<g id="edge7" class="edge">
<title>interpolation_mod&#45;&gt;message_mod</title>
<path fill="none" stroke="black" d="M377.19,-628.91C388.29,-602.62 407.5,-550.45 407.5,-504 407.5,-504 407.5,-504 407.5,-286 407.5,-244.71 392.67,-198.77 381.78,-170.63"/>
<polygon fill="black" stroke="black" points="384.94,-169.11 377.99,-161.11 378.44,-171.7 384.94,-169.11"/>
</g>
<!-- midasmpi_mod -->
<g id="node9" class="node">
<title>midasmpi_mod</title>
<g id="a_node9"><a xlink:href="../modules/midasmpi_mod.svg" xlink:title="midasmpi_mod">
<polygon fill="none" stroke="red" points="496,-89 395,-89 395,-53 496,-53 496,-89"/>
<text text-anchor="middle" x="445.5" y="-67.3" font-family="Times,serif" font-size="14.00">midasmpi_mod</text>
</a>
</g>
</g>
<!-- interpolation_mod&#45;&gt;midasmpi_mod -->
<g id="edge8" class="edge">
<title>interpolation_mod&#45;&gt;midasmpi_mod</title>
<path fill="none" stroke="black" d="M385.99,-628.77C408.34,-603.53 445.5,-554.05 445.5,-504 445.5,-504 445.5,-504 445.5,-214 445.5,-174 445.5,-127.65 445.5,-99.08"/>
<polygon fill="black" stroke="black" points="449,-99.05 445.5,-89.05 442,-99.05 449,-99.05"/>
</g>
<!-- utilities_mod -->
<g id="node10" class="node">
<title>utilities_mod</title>
<g id="a_node10"><a xlink:href="../modules/utilities_mod.svg" xlink:title="utilities_mod">
<polygon fill="none" stroke="red" points="561.5,-593 473.5,-593 473.5,-557 561.5,-557 561.5,-593"/>
<text text-anchor="middle" x="517.5" y="-571.3" font-family="Times,serif" font-size="14.00">utilities_mod</text>
</a>
</g>
</g>
<!-- interpolation_mod&#45;&gt;utilities_mod -->
<g id="edge9" class="edge">
<title>interpolation_mod&#45;&gt;utilities_mod</title>
<path fill="none" stroke="black" d="M405.7,-628.88C425.76,-619.39 450.87,-607.51 472.21,-597.42"/>
<polygon fill="black" stroke="black" points="473.87,-600.51 481.41,-593.07 470.88,-594.18 473.87,-600.51"/>
</g>
<!-- varnamelist_mod -->
<g id="node11" class="node">
<title>varnamelist_mod</title>
<g id="a_node11"><a xlink:href="../modules/varnamelist_mod.svg" xlink:title="varnamelist_mod">
<polygon fill="none" stroke="red" points="644.5,-521 534.5,-521 534.5,-485 644.5,-485 644.5,-521"/>
<text text-anchor="middle" x="589.5" y="-499.3" font-family="Times,serif" font-size="14.00">varnamelist_mod</text>
</a>
</g>
</g>
<!-- interpolation_mod&#45;&gt;varnamelist_mod -->
<g id="edge10" class="edge">
<title>interpolation_mod&#45;&gt;varnamelist_mod</title>
<path fill="none" stroke="black" d="M427.66,-637.55C479.78,-628.79 550.95,-613.5 570.5,-593 586.05,-576.7 590.17,-550.94 590.77,-531.32"/>
<polygon fill="black" stroke="black" points="594.27,-531.16 590.79,-521.16 587.27,-531.15 594.27,-531.16"/>
</g>
<!-- verticalcoord_mod -->
<g id="node12" class="node">
<title>verticalcoord_mod</title>
<g id="a_node12"><a xlink:href="../modules/verticalcoord_mod.svg" xlink:title="verticalcoord_mod">
<polygon fill="none" stroke="red" points="731.5,-449 613.5,-449 613.5,-413 731.5,-413 731.5,-449"/>
<text text-anchor="middle" x="672.5" y="-427.3" font-family="Times,serif" font-size="14.00">verticalcoord_mod</text>
</a>
</g>
</g>
<!-- interpolation_mod&#45;&gt;verticalcoord_mod -->
<g id="edge11" class="edge">
<title>interpolation_mod&#45;&gt;verticalcoord_mod</title>
<path fill="none" stroke="black" d="M427.65,-642.39C475.29,-637.15 542.87,-624.34 593.5,-593 628.92,-571.08 635.29,-558.46 653.5,-521 662.97,-501.52 667.75,-477.38 670.14,-459.16"/>
<polygon fill="black" stroke="black" points="673.62,-459.53 671.29,-449.19 666.67,-458.72 673.62,-459.53"/>
</g>
</g>
</svg>
