<?xml version="1.0" encoding="UTF-8" standalone="no"?>
<!DOCTYPE svg PUBLIC "-//W3C//DTD SVG 1.1//EN"
 "http://www.w3.org/Graphics/SVG/1.1/DTD/svg11.dtd">
<!-- Generated by graphviz version 3.0.0 (20220315.2325)
 -->
<!-- Title: interpolation_mod Pages: 1 -->
<svg width="622pt" height="673pt"
 viewBox="0.00 0.00 621.50 673.00" xmlns="http://www.w3.org/2000/svg" xmlns:xlink="http://www.w3.org/1999/xlink">
<g id="graph0" class="graph" transform="scale(1 1) rotate(0) translate(4 669)">
<title>interpolation_mod</title>
<polygon fill="white" stroke="transparent" points="-4,4 -4,-669 617.5,-669 617.5,4 -4,4"/>
<text text-anchor="middle" x="306.75" y="-649.8" font-family="Times,serif" font-size="14.00">Blue boxes indicate modules with reverse dependencies not shown</text>
<text text-anchor="middle" x="306.75" y="-634.8" font-family="Times,serif" font-size="14.00">Higher level reverse dependencies can be shown by clicking on a blue box</text>
<text text-anchor="middle" x="306.75" y="-619.8" font-family="Times,serif" font-size="14.00">Green boxes are programs</text>
<!-- interpolation_mod -->
<g id="node1" class="node">
<title>interpolation_mod</title>
<g id="a_node1"><a xlink:href="interpolation_mod.html" xlink:title="interpolation_mod">
<polygon fill="none" stroke="black" points="353,-36 237,-36 237,0 353,0 353,-36"/>
<text text-anchor="middle" x="295" y="-14.3" font-family="Times,serif" font-size="14.00">interpolation_mod</text>
</a>
</g>
</g>
<!-- bmatrixhi_mod -->
<g id="node2" class="node">
<title>bmatrixhi_mod</title>
<g id="a_node2"><a xlink:href="../modules/bmatrixhi_mod_rev.svg" xlink:title="bmatrixhi_mod">
<polygon fill="none" stroke="blue" points="100,-108 0,-108 0,-72 100,-72 100,-108"/>
<text text-anchor="middle" x="50" y="-86.3" font-family="Times,serif" font-size="14.00">bmatrixhi_mod</text>
</a>
</g>
</g>
<!-- bmatrixhi_mod&#45;&gt;interpolation_mod -->
<g id="edge1" class="edge">
<title>bmatrixhi_mod&#45;&gt;interpolation_mod</title>
<path fill="none" stroke="black" d="M108.26,-72.35C147.08,-61.26 197.9,-46.74 236.72,-35.65"/>
<ellipse fill="black" stroke="black" cx="104.02" cy="-73.57" rx="4" ry="4"/>
</g>
<!-- ensemblestatevector_mod -->
<g id="node3" class="node">
<title>ensemblestatevector_mod</title>
<g id="a_node3"><a xlink:href="../modules/ensemblestatevector_mod_rev.svg" xlink:title="ensemblestatevector_mod">
<polygon fill="none" stroke="blue" points="172,-180 16,-180 16,-144 172,-144 172,-180"/>
<text text-anchor="middle" x="94" y="-158.3" font-family="Times,serif" font-size="14.00">ensemblestatevector_mod</text>
</a>
</g>
</g>
<!-- ensemblestatevector_mod&#45;&gt;interpolation_mod -->
<g id="edge2" class="edge">
<title>ensemblestatevector_mod&#45;&gt;interpolation_mod</title>
<path fill="none" stroke="black" d="M113.97,-137.96C131.55,-118.64 158.57,-91.2 186,-72 206.43,-57.7 231.3,-45.28 252.12,-36.07"/>
<ellipse fill="black" stroke="black" cx="111.28" cy="-140.95" rx="4" ry="4"/>
</g>
<!-- enspostprocess_mod -->
<g id="node4" class="node">
<title>enspostprocess_mod</title>
<g id="a_node4"><a xlink:href="../modules/enspostprocess_mod_rev.svg" xlink:title="enspostprocess_mod">
<polygon fill="none" stroke="blue" points="210,-252 82,-252 82,-216 210,-216 210,-252"/>
<text text-anchor="middle" x="146" y="-230.3" font-family="Times,serif" font-size="14.00">enspostprocess_mod</text>
</a>
</g>
</g>
<!-- enspostprocess_mod&#45;&gt;interpolation_mod -->
<g id="edge3" class="edge">
<title>enspostprocess_mod&#45;&gt;interpolation_mod</title>
<path fill="none" stroke="black" d="M163.29,-209.1C169.31,-200.2 175.84,-189.87 181,-180 204.92,-134.2 192.56,-113 224,-72 235.05,-57.6 250.99,-45.21 264.98,-36.04"/>
<ellipse fill="black" stroke="black" cx="160.87" cy="-212.59" rx="4" ry="4"/>
</g>
<!-- gridstatevectorfileio_mod -->
<g id="node5" class="node">
<title>gridstatevectorfileio_mod</title>
<g id="a_node5"><a xlink:href="../modules/gridstatevectorfileio_mod_rev.svg" xlink:title="gridstatevectorfileio_mod">
<polygon fill="none" stroke="blue" points="247.5,-324 92.5,-324 92.5,-288 247.5,-288 247.5,-324"/>
<text text-anchor="middle" x="170" y="-302.3" font-family="Times,serif" font-size="14.00">gridstatevectorfileio_mod</text>
</a>
</g>
</g>
<!-- gridstatevectorfileio_mod&#45;&gt;interpolation_mod -->
<g id="edge4" class="edge">
<title>gridstatevectorfileio_mod&#45;&gt;interpolation_mod</title>
<path fill="none" stroke="black" d="M196.06,-282.03C204.48,-273.38 213.15,-262.96 219,-252 257.73,-179.44 230.3,-147.9 262,-72 267.26,-59.4 275.34,-46.36 282.19,-36.37"/>
<ellipse fill="black" stroke="black" cx="193.15" cy="-284.91" rx="4" ry="4"/>
</g>
<!-- gridvariabletransforms_mod -->
<g id="node6" class="node">
<title>gridvariabletransforms_mod</title>
<g id="a_node6"><a xlink:href="../modules/gridvariabletransforms_mod_rev.svg" xlink:title="gridvariabletransforms_mod">
<polygon fill="none" stroke="blue" points="286,-396 116,-396 116,-360 286,-360 286,-396"/>
<text text-anchor="middle" x="201" y="-374.3" font-family="Times,serif" font-size="14.00">gridvariabletransforms_mod</text>
</a>
</g>
</g>
<!-- gridvariabletransforms_mod&#45;&gt;interpolation_mod -->
<g id="edge5" class="edge">
<title>gridvariabletransforms_mod&#45;&gt;interpolation_mod</title>
<path fill="none" stroke="black" d="M231.2,-354.54C240.78,-345.98 250.55,-335.49 257,-324 276.8,-288.73 276,-275.45 276,-235 276,-235 276,-235 276,-161 276,-115.73 285.6,-63.06 291.16,-36.39"/>
<ellipse fill="black" stroke="black" cx="228" cy="-357.28" rx="4" ry="4"/>
</g>
<!-- increment_mod -->
<g id="node7" class="node">
<title>increment_mod</title>
<g id="a_node7"><a xlink:href="../modules/increment_mod_rev.svg" xlink:title="increment_mod">
<polygon fill="none" stroke="blue" points="323.5,-468 222.5,-468 222.5,-432 323.5,-432 323.5,-468"/>
<text text-anchor="middle" x="273" y="-446.3" font-family="Times,serif" font-size="14.00">increment_mod</text>
</a>
</g>
</g>
<!-- increment_mod&#45;&gt;interpolation_mod -->
<g id="edge6" class="edge">
<title>increment_mod&#45;&gt;interpolation_mod</title>
<path fill="none" stroke="black" d="M284.56,-424.66C296.69,-396.86 314,-349.69 314,-307 314,-307 314,-307 314,-161 314,-115.73 304.4,-63.06 298.84,-36.39"/>
<ellipse fill="black" stroke="black" cx="282.93" cy="-428.32" rx="4" ry="4"/>
</g>
<!-- innovation_mod -->
<g id="node8" class="node">
<title>innovation_mod</title>
<g id="a_node8"><a xlink:href="../modules/innovation_mod_rev.svg" xlink:title="innovation_mod">
<polygon fill="none" stroke="blue" points="362,-540 258,-540 258,-504 362,-504 362,-540"/>
<text text-anchor="middle" x="310" y="-518.3" font-family="Times,serif" font-size="14.00">innovation_mod</text>
</a>
</g>
</g>
<!-- innovation_mod&#45;&gt;interpolation_mod -->
<g id="edge7" class="edge">
<title>innovation_mod&#45;&gt;interpolation_mod</title>
<path fill="none" stroke="black" d="M321.84,-496.69C334.26,-468.92 352,-421.77 352,-379 352,-379 352,-379 352,-161 352,-112.92 323.51,-61.84 306.81,-36.04"/>
<ellipse fill="black" stroke="black" cx="320.16" cy="-500.36" rx="4" ry="4"/>
</g>
<!-- lambmatrixhi_mod -->
<g id="node9" class="node">
<title>lambmatrixhi_mod</title>
<g id="a_node9"><a xlink:href="../modules/lambmatrixhi_mod_rev.svg" xlink:title="lambmatrixhi_mod">
<polygon fill="none" stroke="blue" points="450,-612 330,-612 330,-576 450,-576 450,-612"/>
<text text-anchor="middle" x="390" y="-590.3" font-family="Times,serif" font-size="14.00">lambmatrixhi_mod</text>
</a>
</g>
</g>
<!-- lambmatrixhi_mod&#45;&gt;interpolation_mod -->
<g id="edge8" class="edge">
<title>lambmatrixhi_mod&#45;&gt;interpolation_mod</title>
<path fill="none" stroke="black" d="M390,-567.78C390,-539.39 390,-491.89 390,-451 390,-451 390,-451 390,-161 390,-108.5 344.59,-60.72 316.56,-36.22"/>
<ellipse fill="black" stroke="black" cx="390" cy="-571.95" rx="4" ry="4"/>
</g>
<!-- tovs_nl_mod -->
<g id="node10" class="node">
<title>tovs_nl_mod</title>
<g id="a_node10"><a xlink:href="../modules/tovs_nl_mod_rev.svg" xlink:title="tovs_nl_mod">
<polygon fill="none" stroke="blue" points="505.5,-108 418.5,-108 418.5,-72 505.5,-72 505.5,-108"/>
<text text-anchor="middle" x="462" y="-86.3" font-family="Times,serif" font-size="14.00">tovs_nl_mod</text>
</a>
</g>
</g>
<!-- tovs_nl_mod&#45;&gt;interpolation_mod -->
<g id="edge9" class="edge">
<title>tovs_nl_mod&#45;&gt;interpolation_mod</title>
<path fill="none" stroke="black" d="M413.66,-68.74C388.96,-58.38 359.24,-45.93 335.72,-36.07"/>
<ellipse fill="black" stroke="black" cx="417.46" cy="-70.33" rx="4" ry="4"/>
</g>
<!-- midas_midas_randompert -->
<g id="node11" class="node">
<title>midas_midas_randompert</title>
<g id="a_node11"><a xlink:href="../programs/midas_randompert.html" xlink:title="midas_midas_randompert">
<polygon fill="gray" stroke="green" points="613.5,-180 454.5,-180 454.5,-144 613.5,-144 613.5,-180"/>
<text text-anchor="middle" x="534" y="-158.3" font-family="Times,serif" font-size="14.00">midas_midas_randompert</text>
</a>
</g>
</g>
<!-- midas_midas_randompert&#45;&gt;interpolation_mod -->
<g id="edge10" class="edge">
<title>midas_midas_randompert&#45;&gt;interpolation_mod</title>
<path fill="none" stroke="black" d="M535.42,-135.74C535.11,-115.83 531.3,-88.73 515,-72 492.79,-49.21 410.59,-34.04 353.22,-25.97"/>
<ellipse fill="black" stroke="black" cx="535.39" cy="-139.78" rx="4" ry="4"/>
</g>
</g>
</svg>
