<?xml version="1.0" encoding="UTF-8" standalone="no"?>
<!DOCTYPE svg PUBLIC "-//W3C//DTD SVG 1.1//EN"
 "http://www.w3.org/Graphics/SVG/1.1/DTD/svg11.dtd">
<!-- Generated by graphviz version 3.0.0 (20220315.2325)
 -->
<!-- Title: kdtree2_mod Pages: 1 -->
<svg width="547pt" height="673pt"
 viewBox="0.00 0.00 546.50 673.00" xmlns="http://www.w3.org/2000/svg" xmlns:xlink="http://www.w3.org/1999/xlink">
<g id="graph0" class="graph" transform="scale(1 1) rotate(0) translate(4 669)">
<title>kdtree2_mod</title>
<polygon fill="white" stroke="transparent" points="-4,4 -4,-669 542.5,-669 542.5,4 -4,4"/>
<text text-anchor="middle" x="269.25" y="-649.8" font-family="Times,serif" font-size="14.00">Blue boxes indicate modules with reverse dependencies not shown</text>
<text text-anchor="middle" x="269.25" y="-634.8" font-family="Times,serif" font-size="14.00">Higher level reverse dependencies can be shown by clicking on a blue box</text>
<text text-anchor="middle" x="269.25" y="-619.8" font-family="Times,serif" font-size="14.00">Green boxes are programs</text>
<!-- kdtree2_mod -->
<g id="node1" class="node">
<title>kdtree2_mod</title>
<g id="a_node1"><a xlink:href="kdtree2_mod.html" xlink:title="kdtree2_mod">
<polygon fill="none" stroke="black" points="332.5,-36 244.5,-36 244.5,0 332.5,0 332.5,-36"/>
<text text-anchor="middle" x="288.5" y="-14.3" font-family="Times,serif" font-size="14.00">kdtree2_mod</text>
</a>
</g>
</g>
<!-- analysiserroroi_mod -->
<g id="node2" class="node">
<title>analysiserroroi_mod</title>
<g id="a_node2"><a xlink:href="../modules/analysiserroroi_mod_rev.svg" xlink:title="analysiserroroi_mod">
<polygon fill="none" stroke="blue" points="127,-108 0,-108 0,-72 127,-72 127,-108"/>
<text text-anchor="middle" x="63.5" y="-86.3" font-family="Times,serif" font-size="14.00">analysiserroroi_mod</text>
</a>
</g>
</g>
<!-- analysiserroroi_mod&#45;&gt;kdtree2_mod -->
<g id="edge1" class="edge">
<title>analysiserroroi_mod&#45;&gt;kdtree2_mod</title>
<path fill="none" stroke="black" d="M126.13,-69.51C163.77,-57.81 210.73,-43.2 244.45,-32.7"/>
<ellipse fill="black" stroke="black" cx="122.07" cy="-70.78" rx="4" ry="4"/>
</g>
<!-- burpread_mod -->
<g id="node3" class="node">
<title>burpread_mod</title>
<g id="a_node3"><a xlink:href="../modules/burpread_mod_rev.svg" xlink:title="burpread_mod">
<polygon fill="none" stroke="blue" points="184,-180 89,-180 89,-144 184,-144 184,-180"/>
<text text-anchor="middle" x="136.5" y="-158.3" font-family="Times,serif" font-size="14.00">burpread_mod</text>
</a>
</g>
</g>
<!-- burpread_mod&#45;&gt;kdtree2_mod -->
<g id="edge2" class="edge">
<title>burpread_mod&#45;&gt;kdtree2_mod</title>
<path fill="none" stroke="black" d="M149.36,-136.99C160.51,-117.76 178.04,-90.95 198.5,-72 214.06,-57.58 234.2,-45.27 251.48,-36.15"/>
<ellipse fill="black" stroke="black" cx="147.38" cy="-140.48" rx="4" ry="4"/>
</g>
<!-- ensembleobservations_mod -->
<g id="node4" class="node">
<title>ensembleobservations_mod</title>
<g id="a_node4"><a xlink:href="../modules/ensembleobservations_mod_rev.svg" xlink:title="ensembleobservations_mod">
<polygon fill="none" stroke="blue" points="222.5,-252 56.5,-252 56.5,-216 222.5,-216 222.5,-252"/>
<text text-anchor="middle" x="139.5" y="-230.3" font-family="Times,serif" font-size="14.00">ensembleobservations_mod</text>
</a>
</g>
</g>
<!-- ensembleobservations_mod&#45;&gt;kdtree2_mod -->
<g id="edge3" class="edge">
<title>ensembleobservations_mod&#45;&gt;kdtree2_mod</title>
<path fill="none" stroke="black" d="M166.07,-210.47C175.31,-201.66 185.18,-191.03 192.5,-180 221.17,-136.82 208.04,-115.32 236.5,-72 245.28,-58.64 257.75,-45.79 268.28,-36.09"/>
<ellipse fill="black" stroke="black" cx="163.06" cy="-213.26" rx="4" ry="4"/>
</g>
<!-- getgridposition_mod -->
<g id="node5" class="node">
<title>getgridposition_mod</title>
<g id="a_node5"><a xlink:href="../modules/getgridposition_mod_rev.svg" xlink:title="getgridposition_mod">
<polygon fill="none" stroke="blue" points="260,-324 131,-324 131,-288 260,-288 260,-324"/>
<text text-anchor="middle" x="195.5" y="-302.3" font-family="Times,serif" font-size="14.00">getgridposition_mod</text>
</a>
</g>
</g>
<!-- getgridposition_mod&#45;&gt;kdtree2_mod -->
<g id="edge4" class="edge">
<title>getgridposition_mod&#45;&gt;kdtree2_mod</title>
<path fill="none" stroke="black" d="M214.42,-281.13C220.61,-272.37 227.04,-262.12 231.5,-252 264.71,-176.75 254.44,-151.77 274.5,-72 277.52,-60 281.08,-46.52 283.86,-36.16"/>
<ellipse fill="black" stroke="black" cx="211.9" cy="-284.57" rx="4" ry="4"/>
</g>
<!-- interpolation_mod -->
<g id="node6" class="node">
<title>interpolation_mod</title>
<g id="a_node6"><a xlink:href="../modules/interpolation_mod_rev.svg" xlink:title="interpolation_mod">
<polygon fill="none" stroke="blue" points="298.5,-396 182.5,-396 182.5,-360 298.5,-360 298.5,-396"/>
<text text-anchor="middle" x="240.5" y="-374.3" font-family="Times,serif" font-size="14.00">interpolation_mod</text>
</a>
</g>
</g>
<!-- interpolation_mod&#45;&gt;kdtree2_mod -->
<g id="edge5" class="edge">
<title>interpolation_mod&#45;&gt;kdtree2_mod</title>
<path fill="none" stroke="black" d="M255.01,-352.82C259.84,-343.99 264.9,-333.76 268.5,-324 282.54,-285.97 288.5,-275.54 288.5,-235 288.5,-235 288.5,-235 288.5,-161 288.5,-115.89 288.5,-62.71 288.5,-36.05"/>
<ellipse fill="black" stroke="black" cx="253" cy="-356.39" rx="4" ry="4"/>
</g>
<!-- oceanmask_mod -->
<g id="node7" class="node">
<title>oceanmask_mod</title>
<g id="a_node7"><a xlink:href="../modules/oceanmask_mod_rev.svg" xlink:title="oceanmask_mod">
<polygon fill="none" stroke="blue" points="336,-468 229,-468 229,-432 336,-432 336,-468"/>
<text text-anchor="middle" x="282.5" y="-446.3" font-family="Times,serif" font-size="14.00">oceanmask_mod</text>
</a>
</g>
</g>
<!-- oceanmask_mod&#45;&gt;kdtree2_mod -->
<g id="edge6" class="edge">
<title>oceanmask_mod&#45;&gt;kdtree2_mod</title>
<path fill="none" stroke="black" d="M295.54,-424.42C299.81,-415.63 304.28,-405.54 307.5,-396 320.44,-357.68 326.5,-347.45 326.5,-307 326.5,-307 326.5,-307 326.5,-161 326.5,-114.55 307.29,-62.38 296.19,-36.09"/>
<ellipse fill="black" stroke="black" cx="293.66" cy="-428.18" rx="4" ry="4"/>
</g>
<!-- sstbias_mod -->
<g id="node8" class="node">
<title>sstbias_mod</title>
<g id="a_node8"><a xlink:href="../modules/sstbias_mod_rev.svg" xlink:title="sstbias_mod">
<polygon fill="none" stroke="blue" points="390,-540 307,-540 307,-504 390,-504 390,-540"/>
<text text-anchor="middle" x="348.5" y="-518.3" font-family="Times,serif" font-size="14.00">sstbias_mod</text>
</a>
</g>
</g>
<!-- sstbias_mod&#45;&gt;kdtree2_mod -->
<g id="edge7" class="edge">
<title>sstbias_mod&#45;&gt;kdtree2_mod</title>
<path fill="none" stroke="black" d="M353.13,-495.41C357.86,-467.06 364.5,-419.92 364.5,-379 364.5,-379 364.5,-379 364.5,-161 364.5,-110.95 327.34,-61.47 304.99,-36.23"/>
<ellipse fill="black" stroke="black" cx="352.41" cy="-499.64" rx="4" ry="4"/>
</g>
<!-- statetocolumn_mod -->
<g id="node9" class="node">
<title>statetocolumn_mod</title>
<g id="a_node9"><a xlink:href="../modules/statetocolumn_mod_rev.svg" xlink:title="statetocolumn_mod">
<polygon fill="none" stroke="blue" points="480.5,-612 356.5,-612 356.5,-576 480.5,-576 480.5,-612"/>
<text text-anchor="middle" x="418.5" y="-590.3" font-family="Times,serif" font-size="14.00">statetocolumn_mod</text>
</a>
</g>
</g>
<!-- statetocolumn_mod&#45;&gt;kdtree2_mod -->
<g id="edge8" class="edge">
<title>statetocolumn_mod&#45;&gt;kdtree2_mod</title>
<path fill="none" stroke="black" d="M418.5,-567.78C418.5,-539.39 418.5,-491.89 418.5,-451 418.5,-451 418.5,-451 418.5,-161 418.5,-103.34 359.47,-58.91 320.97,-36.06"/>
<ellipse fill="black" stroke="black" cx="418.5" cy="-571.95" rx="4" ry="4"/>
</g>
<!-- thinning_mod -->
<g id="node10" class="node">
<title>thinning_mod</title>
<g id="a_node10"><a xlink:href="../modules/thinning_mod_rev.svg" xlink:title="thinning_mod">
<polygon fill="none" stroke="blue" points="538.5,-108 446.5,-108 446.5,-72 538.5,-72 538.5,-108"/>
<text text-anchor="middle" x="492.5" y="-86.3" font-family="Times,serif" font-size="14.00">thinning_mod</text>
</a>
</g>
</g>
<!-- thinning_mod&#45;&gt;kdtree2_mod -->
<g id="edge9" class="edge">
<title>thinning_mod&#45;&gt;kdtree2_mod</title>
<path fill="none" stroke="black" d="M438.69,-70.53C405.6,-59.18 363.74,-44.82 332.62,-34.14"/>
<ellipse fill="black" stroke="black" cx="442.68" cy="-71.91" rx="4" ry="4"/>
</g>
</g>
</svg>
