<?xml version="1.0" encoding="UTF-8" standalone="no"?>
<!DOCTYPE svg PUBLIC "-//W3C//DTD SVG 1.1//EN"
 "http://www.w3.org/Graphics/SVG/1.1/DTD/svg11.dtd">
<!-- Generated by graphviz version 3.0.0 (20220315.2325)
 -->
<!-- Title: kdtree2_precision_mod Pages: 1 -->
<svg width="430pt" height="241pt"
 viewBox="0.00 0.00 430.00 241.00" xmlns="http://www.w3.org/2000/svg" xmlns:xlink="http://www.w3.org/1999/xlink">
<g id="graph0" class="graph" transform="scale(1 1) rotate(0) translate(4 237)">
<title>kdtree2_precision_mod</title>
<polygon fill="white" stroke="transparent" points="-4,4 -4,-237 426,-237 426,4 -4,4"/>
<text text-anchor="middle" x="211" y="-217.8" font-family="Times,serif" font-size="14.00">Blue boxes indicate modules with reverse dependencies not shown</text>
<text text-anchor="middle" x="211" y="-202.8" font-family="Times,serif" font-size="14.00">Higher level reverse dependencies can be shown by clicking on a blue box</text>
<text text-anchor="middle" x="211" y="-187.8" font-family="Times,serif" font-size="14.00">Green boxes are programs</text>
<!-- kdtree2_precision_mod -->
<g id="node1" class="node">
<title>kdtree2_precision_mod</title>
<g id="a_node1"><a xlink:href="kdtree2_precision_mod.html" xlink:title="kdtree2_precision_mod">
<polygon fill="none" stroke="black" points="304,-36 160,-36 160,0 304,0 304,-36"/>
<text text-anchor="middle" x="232" y="-14.3" font-family="Times,serif" font-size="14.00">kdtree2_precision_mod</text>
</a>
</g>
</g>
<!-- kdtree2_priority_queue_mod -->
<g id="node2" class="node">
<title>kdtree2_priority_queue_mod</title>
<g id="a_node2"><a xlink:href="../modules/kdtree2_priority_queue_mod_rev.svg" xlink:title="kdtree2_priority_queue_mod">
<polygon fill="none" stroke="blue" points="262,-108 88,-108 88,-72 262,-72 262,-108"/>
<text text-anchor="middle" x="175" y="-86.3" font-family="Times,serif" font-size="14.00">kdtree2_priority_queue_mod</text>
</a>
</g>
</g>
<!-- kdtree2_priority_queue_mod&#45;&gt;kdtree2_precision_mod -->
<g id="edge1" class="edge">
<title>kdtree2_priority_queue_mod&#45;&gt;kdtree2_precision_mod</title>
<path fill="none" stroke="black" d="M194.29,-65.31C202.09,-55.73 210.92,-44.89 218.07,-36.1"/>
<ellipse fill="black" stroke="black" cx="191.62" cy="-68.59" rx="4" ry="4"/>
</g>
<!-- kdtree2_mod -->
<g id="node3" class="node">
<title>kdtree2_mod</title>
<g id="a_node3"><a xlink:href="../modules/kdtree2_mod_rev.svg" xlink:title="kdtree2_mod">
<polygon fill="none" stroke="blue" points="334,-180 246,-180 246,-144 334,-144 334,-180"/>
<text text-anchor="middle" x="290" y="-158.3" font-family="Times,serif" font-size="14.00">kdtree2_mod</text>
</a>
</g>
</g>
<!-- kdtree2_mod&#45;&gt;kdtree2_precision_mod -->
<g id="edge2" class="edge">
<title>kdtree2_mod&#45;&gt;kdtree2_precision_mod</title>
<path fill="none" stroke="black" d="M287.47,-135.53C284.96,-117.23 280.13,-92.31 271,-72 265.19,-59.08 255.86,-46.24 247.78,-36.44"/>
<ellipse fill="black" stroke="black" cx="288.02" cy="-139.97" rx="4" ry="4"/>
</g>
</g>
</svg>
