<?xml version="1.0" encoding="UTF-8" standalone="no"?>
<!DOCTYPE svg PUBLIC "-//W3C//DTD SVG 1.1//EN"
 "http://www.w3.org/Graphics/SVG/1.1/DTD/svg11.dtd">
<!-- Generated by graphviz version 3.0.0 (20220315.2325)
 -->
<!-- Title: kdtree2_mod Pages: 1 -->
<svg width="396pt" height="385pt"
 viewBox="0.00 0.00 395.50 385.00" xmlns="http://www.w3.org/2000/svg" xmlns:xlink="http://www.w3.org/1999/xlink">
<g id="graph0" class="graph" transform="scale(1 1) rotate(0) translate(4 381)">
<title>kdtree2_mod</title>
<polygon fill="white" stroke="transparent" points="-4,4 -4,-381 391.5,-381 391.5,4 -4,4"/>
<text text-anchor="middle" x="193.75" y="-37.8" font-family="Times,serif" font-size="14.00">Red boxes indicate modules with dependencies not shown</text>
<text text-anchor="middle" x="193.75" y="-22.8" font-family="Times,serif" font-size="14.00">Lower level dependencies can be shown by clicking on a red box</text>
<text text-anchor="middle" x="193.75" y="-7.8" font-family="Times,serif" font-size="14.00">Shaded boxes indicate modules with no dependencies</text>
<!-- kdtree2_mod -->
<g id="node1" class="node">
<title>kdtree2_mod</title>
<g id="a_node1"><a xlink:href="kdtree2_mod.html" xlink:title="kdtree2_mod">
<polygon fill="none" stroke="black" points="247.5,-377 159.5,-377 159.5,-341 247.5,-341 247.5,-377"/>
<text text-anchor="middle" x="203.5" y="-355.3" font-family="Times,serif" font-size="14.00">kdtree2_mod</text>
</a>
</g>
</g>
<!-- earthconstants_mod -->
<g id="node2" class="node">
<title>earthconstants_mod</title>
<g id="a_node2"><a xlink:href="../modules/earthconstants_mod.svg" xlink:title="earthconstants_mod">
<polygon fill="none" stroke="red" points="125,-305 0,-305 0,-269 125,-269 125,-305"/>
<text text-anchor="middle" x="62.5" y="-283.3" font-family="Times,serif" font-size="14.00">earthconstants_mod</text>
</a>
</g>
</g>
<!-- kdtree2_mod&#45;&gt;earthconstants_mod -->
<g id="edge1" class="edge">
<title>kdtree2_mod&#45;&gt;earthconstants_mod</title>
<path fill="none" stroke="black" d="M169.01,-340.88C150.06,-331.47 126.37,-319.71 106.14,-309.67"/>
<polygon fill="black" stroke="black" points="107.64,-306.5 97.13,-305.19 104.53,-312.77 107.64,-306.5"/>
</g>
<!-- kdtree2_precision_mod -->
<g id="node3" class="node">
<title>kdtree2_precision_mod</title>
<g id="a_node3"><a xlink:href="kdtree2_precision_mod.html" xlink:title="kdtree2_precision_mod">
<polygon fill="gray" stroke="black" points="200.5,-233 56.5,-233 56.5,-197 200.5,-197 200.5,-233"/>
<text text-anchor="middle" x="128.5" y="-211.3" font-family="Times,serif" font-size="14.00">kdtree2_precision_mod</text>
</a>
</g>
</g>
<!-- kdtree2_mod&#45;&gt;kdtree2_precision_mod -->
<g id="edge2" class="edge">
<title>kdtree2_mod&#45;&gt;kdtree2_precision_mod</title>
<path fill="none" stroke="black" d="M194.45,-340.87C181.5,-316.35 157.57,-271.03 142.37,-242.26"/>
<polygon fill="black" stroke="black" points="145.34,-240.4 137.58,-233.19 139.15,-243.67 145.34,-240.4"/>
</g>
<!-- kdtree2_priority_queue_mod -->
<g id="node4" class="node">
<title>kdtree2_priority_queue_mod</title>
<g id="a_node4"><a xlink:href="../modules/kdtree2_priority_queue_mod.svg" xlink:title="kdtree2_priority_queue_mod">
<polygon fill="none" stroke="red" points="315.5,-161 141.5,-161 141.5,-125 315.5,-125 315.5,-161"/>
<text text-anchor="middle" x="228.5" y="-139.3" font-family="Times,serif" font-size="14.00">kdtree2_priority_queue_mod</text>
</a>
</g>
</g>
<!-- kdtree2_mod&#45;&gt;kdtree2_priority_queue_mod -->
<g id="edge3" class="edge">
<title>kdtree2_mod&#45;&gt;kdtree2_priority_queue_mod</title>
<path fill="none" stroke="black" d="M205.5,-340.85C209.83,-303.83 220.07,-216.18 225.3,-171.39"/>
<polygon fill="black" stroke="black" points="228.8,-171.57 226.49,-161.23 221.85,-170.76 228.8,-171.57"/>
</g>
<!-- utilities_mod -->
<g id="node5" class="node">
<title>utilities_mod</title>
<g id="a_node5"><a xlink:href="../modules/utilities_mod.svg" xlink:title="utilities_mod">
<polygon fill="none" stroke="red" points="387.5,-89 299.5,-89 299.5,-53 387.5,-53 387.5,-89"/>
<text text-anchor="middle" x="343.5" y="-67.3" font-family="Times,serif" font-size="14.00">utilities_mod</text>
</a>
</g>
</g>
<!-- kdtree2_mod&#45;&gt;utilities_mod -->
<g id="edge4" class="edge">
<title>kdtree2_mod&#45;&gt;utilities_mod</title>
<path fill="none" stroke="black" d="M216.84,-340.89C241.84,-307.98 295.8,-232.74 324.5,-161 332.46,-141.11 337.32,-117.31 340.13,-99.33"/>
<polygon fill="black" stroke="black" points="343.62,-99.63 341.59,-89.24 336.69,-98.63 343.62,-99.63"/>
</g>
</g>
</svg>
