<?xml version="1.0" encoding="UTF-8" standalone="no"?>
<!DOCTYPE svg PUBLIC "-//W3C//DTD SVG 1.1//EN"
 "http://www.w3.org/Graphics/SVG/1.1/DTD/svg11.dtd">
<!-- Generated by graphviz version 3.0.0 (20220315.2325)
 -->
<!-- Title: lambmatrixhi_mod Pages: 1 -->
<svg width="430pt" height="241pt"
 viewBox="0.00 0.00 430.00 241.00" xmlns="http://www.w3.org/2000/svg" xmlns:xlink="http://www.w3.org/1999/xlink">
<g id="graph0" class="graph" transform="scale(1 1) rotate(0) translate(4 237)">
<title>lambmatrixhi_mod</title>
<polygon fill="white" stroke="transparent" points="-4,4 -4,-237 426,-237 426,4 -4,4"/>
<text text-anchor="middle" x="211" y="-217.8" font-family="Times,serif" font-size="14.00">Blue boxes indicate modules with reverse dependencies not shown</text>
<text text-anchor="middle" x="211" y="-202.8" font-family="Times,serif" font-size="14.00">Higher level reverse dependencies can be shown by clicking on a blue box</text>
<text text-anchor="middle" x="211" y="-187.8" font-family="Times,serif" font-size="14.00">Green boxes are programs</text>
<!-- lambmatrixhi_mod -->
<g id="node1" class="node">
<title>lambmatrixhi_mod</title>
<g id="a_node1"><a xlink:href="lambmatrixhi_mod.html" xlink:title="lambmatrixhi_mod">
<polygon fill="none" stroke="black" points="254.75,-36 134.75,-36 134.75,0 254.75,0 254.75,-36"/>
<text text-anchor="middle" x="194.75" y="-14.3" font-family="Times,serif" font-size="14.00">lambmatrixhi_mod</text>
</a>
</g>
</g>
<!-- bmatrix_mod -->
<g id="node2" class="node">
<title>bmatrix_mod</title>
<g id="a_node2"><a xlink:href="../modules/bmatrix_mod_rev.svg" xlink:title="bmatrix_mod">
<polygon fill="none" stroke="blue" points="203.25,-108 114.25,-108 114.25,-72 203.25,-72 203.25,-108"/>
<text text-anchor="middle" x="158.75" y="-86.3" font-family="Times,serif" font-size="14.00">bmatrix_mod</text>
</a>
</g>
</g>
<!-- bmatrix_mod&#45;&gt;lambmatrixhi_mod -->
<g id="edge1" class="edge">
<title>bmatrix_mod&#45;&gt;lambmatrixhi_mod</title>
<path fill="none" stroke="black" d="M171.36,-64.48C176.18,-55.11 181.57,-44.64 185.95,-36.1"/>
<ellipse fill="black" stroke="black" cx="169.48" cy="-68.14" rx="4" ry="4"/>
</g>
<!-- midas_midas_adjointtest -->
<g id="node3" class="node">
<title>midas_midas_adjointtest</title>
<g id="a_node3"><a xlink:href="../programs/midas_adjointtest.html" xlink:title="midas_midas_adjointtest">
<polygon fill="gray" stroke="green" points="307.75,-180 155.75,-180 155.75,-144 307.75,-144 307.75,-180"/>
<text text-anchor="middle" x="231.75" y="-158.3" font-family="Times,serif" font-size="14.00">midas_midas_adjointtest</text>
</a>
</g>
</g>
<!-- midas_midas_adjointtest&#45;&gt;lambmatrixhi_mod -->
<g id="edge2" class="edge">
<title>midas_midas_adjointtest&#45;&gt;lambmatrixhi_mod</title>
<path fill="none" stroke="black" d="M226.68,-135.62C222.95,-117.73 217.54,-93.27 211.75,-72 208.45,-59.88 204.12,-46.4 200.65,-36.07"/>
<ellipse fill="black" stroke="black" cx="227.56" cy="-139.91" rx="4" ry="4"/>
</g>
</g>
</svg>
