<?xml version="1.0" encoding="UTF-8" standalone="no"?>
<!DOCTYPE svg PUBLIC "-//W3C//DTD SVG 1.1//EN"
 "http://www.w3.org/Graphics/SVG/1.1/DTD/svg11.dtd">
<!-- Generated by graphviz version 3.0.0 (20220315.2325)
 -->
<!-- Title: lambmatrixhi_mod Pages: 1 -->
<svg width="628pt" height="673pt"
 viewBox="0.00 0.00 627.50 673.00" xmlns="http://www.w3.org/2000/svg" xmlns:xlink="http://www.w3.org/1999/xlink">
<g id="graph0" class="graph" transform="scale(1 1) rotate(0) translate(4 669)">
<title>lambmatrixhi_mod</title>
<polygon fill="white" stroke="transparent" points="-4,4 -4,-669 623.5,-669 623.5,4 -4,4"/>
<text text-anchor="middle" x="309.75" y="-37.8" font-family="Times,serif" font-size="14.00">Red boxes indicate modules with dependencies not shown</text>
<text text-anchor="middle" x="309.75" y="-22.8" font-family="Times,serif" font-size="14.00">Lower level dependencies can be shown by clicking on a red box</text>
<text text-anchor="middle" x="309.75" y="-7.8" font-family="Times,serif" font-size="14.00">Shaded boxes indicate modules with no dependencies</text>
<!-- lambmatrixhi_mod -->
<g id="node1" class="node">
<title>lambmatrixhi_mod</title>
<g id="a_node1"><a xlink:href="lambmatrixhi_mod.html" xlink:title="lambmatrixhi_mod">
<polygon fill="none" stroke="black" points="359.5,-665 239.5,-665 239.5,-629 359.5,-629 359.5,-665"/>
<text text-anchor="middle" x="299.5" y="-643.3" font-family="Times,serif" font-size="14.00">lambmatrixhi_mod</text>
</a>
</g>
</g>
<!-- analysisgrid_mod -->
<g id="node2" class="node">
<title>analysisgrid_mod</title>
<g id="a_node2"><a xlink:href="../modules/analysisgrid_mod.svg" xlink:title="analysisgrid_mod">
<polygon fill="none" stroke="red" points="111,-593 0,-593 0,-557 111,-557 111,-593"/>
<text text-anchor="middle" x="55.5" y="-571.3" font-family="Times,serif" font-size="14.00">analysisgrid_mod</text>
</a>
</g>
</g>
<!-- lambmatrixhi_mod&#45;&gt;analysisgrid_mod -->
<g id="edge1" class="edge">
<title>lambmatrixhi_mod&#45;&gt;analysisgrid_mod</title>
<path fill="none" stroke="black" d="M240.12,-628.97C204.12,-618.64 158.14,-605.45 121.08,-594.81"/>
<polygon fill="black" stroke="black" points="121.94,-591.42 111.37,-592.03 120.01,-598.15 121.94,-591.42"/>
</g>
<!-- gridstatevector_mod -->
<g id="node3" class="node">
<title>gridstatevector_mod</title>
<g id="a_node3"><a xlink:href="../modules/gridstatevector_mod.svg" xlink:title="gridstatevector_mod">
<polygon fill="none" stroke="red" points="176,-521 49,-521 49,-485 176,-485 176,-521"/>
<text text-anchor="middle" x="112.5" y="-499.3" font-family="Times,serif" font-size="14.00">gridstatevector_mod</text>
</a>
</g>
</g>
<!-- lambmatrixhi_mod&#45;&gt;gridstatevector_mod -->
<g id="edge2" class="edge">
<title>lambmatrixhi_mod&#45;&gt;gridstatevector_mod</title>
<path fill="none" stroke="black" d="M254.5,-628.95C233.89,-619.97 209.82,-607.74 190.5,-593 166.74,-574.87 144.8,-548.6 130.28,-529.3"/>
<polygon fill="black" stroke="black" points="133.09,-527.22 124.34,-521.24 127.45,-531.37 133.09,-527.22"/>
</g>
<!-- gridvariabletransforms_mod -->
<g id="node4" class="node">
<title>gridvariabletransforms_mod</title>
<g id="a_node4"><a xlink:href="../modules/gridvariabletransforms_mod.svg" xlink:title="gridvariabletransforms_mod">
<polygon fill="none" stroke="red" points="214.5,-449 44.5,-449 44.5,-413 214.5,-413 214.5,-449"/>
<text text-anchor="middle" x="129.5" y="-427.3" font-family="Times,serif" font-size="14.00">gridvariabletransforms_mod</text>
</a>
</g>
</g>
<!-- lambmatrixhi_mod&#45;&gt;gridvariabletransforms_mod -->
<g id="edge3" class="edge">
<title>lambmatrixhi_mod&#45;&gt;gridvariabletransforms_mod</title>
<path fill="none" stroke="black" d="M269.53,-628.92C255.56,-619.74 239.6,-607.36 228.5,-593 196.79,-552 213.57,-527.91 184.5,-485 177.35,-474.45 167.82,-464.35 158.7,-455.85"/>
<polygon fill="black" stroke="black" points="160.98,-453.2 151.2,-449.12 156.3,-458.4 160.98,-453.2"/>
</g>
<!-- horizontalcoord_mod -->
<g id="node5" class="node">
<title>horizontalcoord_mod</title>
<g id="a_node5"><a xlink:href="../modules/horizontalcoord_mod.svg" xlink:title="horizontalcoord_mod">
<polygon fill="none" stroke="red" points="252,-377 119,-377 119,-341 252,-341 252,-377"/>
<text text-anchor="middle" x="185.5" y="-355.3" font-family="Times,serif" font-size="14.00">horizontalcoord_mod</text>
</a>
</g>
</g>
<!-- lambmatrixhi_mod&#45;&gt;horizontalcoord_mod -->
<g id="edge4" class="edge">
<title>lambmatrixhi_mod&#45;&gt;horizontalcoord_mod</title>
<path fill="none" stroke="black" d="M286.69,-628.63C279.84,-618.64 271.76,-605.6 266.5,-593 234.8,-517.1 257.66,-487.82 223.5,-413 219.06,-403.27 212.72,-393.5 206.48,-385.04"/>
<polygon fill="black" stroke="black" points="209.23,-382.88 200.36,-377.08 203.68,-387.14 209.23,-382.88"/>
</g>
<!-- interpolation_mod -->
<g id="node6" class="node">
<title>interpolation_mod</title>
<g id="a_node6"><a xlink:href="../modules/interpolation_mod.svg" xlink:title="interpolation_mod">
<polygon fill="none" stroke="red" points="290.5,-305 174.5,-305 174.5,-269 290.5,-269 290.5,-305"/>
<text text-anchor="middle" x="232.5" y="-283.3" font-family="Times,serif" font-size="14.00">interpolation_mod</text>
</a>
</g>
</g>
<!-- lambmatrixhi_mod&#45;&gt;interpolation_mod -->
<g id="edge5" class="edge">
<title>lambmatrixhi_mod&#45;&gt;interpolation_mod</title>
<path fill="none" stroke="black" d="M295.66,-628.61C290.1,-601.94 280.5,-549.27 280.5,-504 280.5,-504 280.5,-504 280.5,-430 280.5,-389.46 274.54,-379.03 260.5,-341 257.15,-331.92 252.54,-322.44 248.02,-314.06"/>
<polygon fill="black" stroke="black" points="250.97,-312.15 243.04,-305.13 244.86,-315.57 250.97,-312.15"/>
</g>
<!-- lamspectraltransform_mod -->
<g id="node7" class="node">
<title>lamspectraltransform_mod</title>
<g id="a_node7"><a xlink:href="../modules/lamspectraltransform_mod.svg" xlink:title="lamspectraltransform_mod">
<polygon fill="none" stroke="red" points="328.5,-233 166.5,-233 166.5,-197 328.5,-197 328.5,-233"/>
<text text-anchor="middle" x="247.5" y="-211.3" font-family="Times,serif" font-size="14.00">lamspectraltransform_mod</text>
</a>
</g>
</g>
<!-- lambmatrixhi_mod&#45;&gt;lamspectraltransform_mod -->
<g id="edge6" class="edge">
<title>lambmatrixhi_mod&#45;&gt;lamspectraltransform_mod</title>
<path fill="none" stroke="black" d="M303.34,-628.61C308.9,-601.94 318.5,-549.27 318.5,-504 318.5,-504 318.5,-504 318.5,-358 318.5,-317.55 318.65,-304.63 299.5,-269 293.79,-258.37 285.3,-248.43 276.84,-240.1"/>
<polygon fill="black" stroke="black" points="279.17,-237.48 269.47,-233.21 274.38,-242.6 279.17,-237.48"/>
</g>
<!-- midasmpi_mod -->
<g id="node8" class="node">
<title>midasmpi_mod</title>
<g id="a_node8"><a xlink:href="../modules/midasmpi_mod.svg" xlink:title="midasmpi_mod">
<polygon fill="none" stroke="red" points="366,-161 265,-161 265,-125 366,-125 366,-161"/>
<text text-anchor="middle" x="315.5" y="-139.3" font-family="Times,serif" font-size="14.00">midasmpi_mod</text>
</a>
</g>
</g>
<!-- lambmatrixhi_mod&#45;&gt;midasmpi_mod -->
<g id="edge7" class="edge">
<title>lambmatrixhi_mod&#45;&gt;midasmpi_mod</title>
<path fill="none" stroke="black" d="M311.31,-628.96C328.01,-603.16 356.5,-552.08 356.5,-504 356.5,-504 356.5,-504 356.5,-286 356.5,-244.41 340.06,-198.56 328,-170.51"/>
<polygon fill="black" stroke="black" points="331.05,-168.75 323.8,-161.03 324.65,-171.59 331.05,-168.75"/>
</g>
<!-- utilities_mod -->
<g id="node9" class="node">
<title>utilities_mod</title>
<g id="a_node9"><a xlink:href="../modules/utilities_mod.svg" xlink:title="utilities_mod">
<polygon fill="none" stroke="red" points="438.5,-89 350.5,-89 350.5,-53 438.5,-53 438.5,-89"/>
<text text-anchor="middle" x="394.5" y="-67.3" font-family="Times,serif" font-size="14.00">utilities_mod</text>
</a>
</g>
</g>
<!-- lambmatrixhi_mod&#45;&gt;utilities_mod -->
<g id="edge8" class="edge">
<title>lambmatrixhi_mod&#45;&gt;utilities_mod</title>
<path fill="none" stroke="black" d="M321.06,-628.78C349.09,-604.28 394.5,-556.5 394.5,-504 394.5,-504 394.5,-504 394.5,-214 394.5,-174 394.5,-127.65 394.5,-99.08"/>
<polygon fill="black" stroke="black" points="398,-99.05 394.5,-89.05 391,-99.05 398,-99.05"/>
</g>
<!-- varnamelist_mod -->
<g id="node10" class="node">
<title>varnamelist_mod</title>
<g id="a_node10"><a xlink:href="../modules/varnamelist_mod.svg" xlink:title="varnamelist_mod">
<polygon fill="none" stroke="red" points="532.5,-593 422.5,-593 422.5,-557 532.5,-557 532.5,-593"/>
<text text-anchor="middle" x="477.5" y="-571.3" font-family="Times,serif" font-size="14.00">varnamelist_mod</text>
</a>
</g>
</g>
<!-- lambmatrixhi_mod&#45;&gt;varnamelist_mod -->
<g id="edge9" class="edge">
<title>lambmatrixhi_mod&#45;&gt;varnamelist_mod</title>
<path fill="none" stroke="black" d="M343.04,-628.88C367.7,-619.18 398.72,-606.98 424.75,-596.74"/>
<polygon fill="black" stroke="black" points="426.07,-599.99 434.1,-593.07 423.51,-593.47 426.07,-599.99"/>
</g>
<!-- verticalcoord_mod -->
<g id="node11" class="node">
<title>verticalcoord_mod</title>
<g id="a_node11"><a xlink:href="../modules/verticalcoord_mod.svg" xlink:title="verticalcoord_mod">
<polygon fill="none" stroke="red" points="619.5,-521 501.5,-521 501.5,-485 619.5,-485 619.5,-521"/>
<text text-anchor="middle" x="560.5" y="-499.3" font-family="Times,serif" font-size="14.00">verticalcoord_mod</text>
</a>
</g>
</g>
<!-- lambmatrixhi_mod&#45;&gt;verticalcoord_mod -->
<g id="edge10" class="edge">
<title>lambmatrixhi_mod&#45;&gt;verticalcoord_mod</title>
<path fill="none" stroke="black" d="M359.72,-640.24C422.89,-632.95 516.44,-618.19 541.5,-593 557.39,-577.03 561.47,-551.24 561.97,-531.52"/>
<polygon fill="black" stroke="black" points="565.47,-531.28 561.93,-521.29 558.47,-531.3 565.47,-531.28"/>
</g>
</g>
</svg>
