<?xml version="1.0" encoding="UTF-8" standalone="no"?>
<!DOCTYPE svg PUBLIC "-//W3C//DTD SVG 1.1//EN"
 "http://www.w3.org/Graphics/SVG/1.1/DTD/svg11.dtd">
<!-- Generated by graphviz version 3.0.0 (20220315.2325)
 -->
<!-- Title: lamspectraltransform_mod Pages: 1 -->
<svg width="477pt" height="457pt"
 viewBox="0.00 0.00 477.00 457.00" xmlns="http://www.w3.org/2000/svg" xmlns:xlink="http://www.w3.org/1999/xlink">
<g id="graph0" class="graph" transform="scale(1 1) rotate(0) translate(4 453)">
<title>lamspectraltransform_mod</title>
<polygon fill="white" stroke="transparent" points="-4,4 -4,-453 473,-453 473,4 -4,4"/>
<text text-anchor="middle" x="234.5" y="-433.8" font-family="Times,serif" font-size="14.00">Blue boxes indicate modules with reverse dependencies not shown</text>
<text text-anchor="middle" x="234.5" y="-418.8" font-family="Times,serif" font-size="14.00">Higher level reverse dependencies can be shown by clicking on a blue box</text>
<text text-anchor="middle" x="234.5" y="-403.8" font-family="Times,serif" font-size="14.00">Green boxes are programs</text>
<!-- lamspectraltransform_mod -->
<g id="node1" class="node">
<title>lamspectraltransform_mod</title>
<g id="a_node1"><a xlink:href="lamspectraltransform_mod.html" xlink:title="lamspectraltransform_mod">
<polygon fill="none" stroke="black" points="310,-36 148,-36 148,0 310,0 310,-36"/>
<text text-anchor="middle" x="229" y="-14.3" font-family="Times,serif" font-size="14.00">lamspectraltransform_mod</text>
</a>
</g>
</g>
<!-- bmatrixensemble_mod -->
<g id="node2" class="node">
<title>bmatrixensemble_mod</title>
<g id="a_node2"><a xlink:href="../modules/bmatrixensemble_mod_rev.svg" xlink:title="bmatrixensemble_mod">
<polygon fill="none" stroke="blue" points="140,-108 0,-108 0,-72 140,-72 140,-108"/>
<text text-anchor="middle" x="70" y="-86.3" font-family="Times,serif" font-size="14.00">bmatrixensemble_mod</text>
</a>
</g>
</g>
<!-- bmatrixensemble_mod&#45;&gt;lamspectraltransform_mod -->
<g id="edge1" class="edge">
<title>bmatrixensemble_mod&#45;&gt;lamspectraltransform_mod</title>
<path fill="none" stroke="black" d="M116.33,-68.6C139.79,-58.28 167.94,-45.88 190.23,-36.07"/>
<ellipse fill="black" stroke="black" cx="112.56" cy="-70.26" rx="4" ry="4"/>
</g>
<!-- calcstatslam_mod -->
<g id="node3" class="node">
<title>calcstatslam_mod</title>
<g id="a_node3"><a xlink:href="../modules/calcstatslam_mod_rev.svg" xlink:title="calcstatslam_mod">
<polygon fill="none" stroke="blue" points="200.5,-180 87.5,-180 87.5,-144 200.5,-144 200.5,-180"/>
<text text-anchor="middle" x="144" y="-158.3" font-family="Times,serif" font-size="14.00">calcstatslam_mod</text>
</a>
</g>
</g>
<!-- calcstatslam_mod&#45;&gt;lamspectraltransform_mod -->
<g id="edge2" class="edge">
<title>calcstatslam_mod&#45;&gt;lamspectraltransform_mod</title>
<path fill="none" stroke="black" d="M158.57,-136.66C175.7,-108.05 203.69,-61.28 218.71,-36.19"/>
<ellipse fill="black" stroke="black" cx="156.31" cy="-140.44" rx="4" ry="4"/>
</g>
<!-- gridvariabletransforms_mod -->
<g id="node4" class="node">
<title>gridvariabletransforms_mod</title>
<g id="a_node4"><a xlink:href="../modules/gridvariabletransforms_mod_rev.svg" xlink:title="gridvariabletransforms_mod">
<polygon fill="none" stroke="blue" points="277,-252 107,-252 107,-216 277,-216 277,-252"/>
<text text-anchor="middle" x="192" y="-230.3" font-family="Times,serif" font-size="14.00">gridvariabletransforms_mod</text>
</a>
</g>
</g>
<!-- gridvariabletransforms_mod&#45;&gt;lamspectraltransform_mod -->
<g id="edge3" class="edge">
<title>gridvariabletransforms_mod&#45;&gt;lamspectraltransform_mod</title>
<path fill="none" stroke="black" d="M201.1,-207.92C203.99,-199.18 206.96,-189.25 209,-180 220.4,-128.29 225.84,-65.7 227.93,-36.1"/>
<ellipse fill="black" stroke="black" cx="199.79" cy="-211.77" rx="4" ry="4"/>
</g>
<!-- lambmatrixhi_mod -->
<g id="node5" class="node">
<title>lambmatrixhi_mod</title>
<g id="a_node5"><a xlink:href="../modules/lambmatrixhi_mod_rev.svg" xlink:title="lambmatrixhi_mod">
<polygon fill="none" stroke="blue" points="365,-324 245,-324 245,-288 365,-288 365,-324"/>
<text text-anchor="middle" x="305" y="-302.3" font-family="Times,serif" font-size="14.00">lambmatrixhi_mod</text>
</a>
</g>
</g>
<!-- lambmatrixhi_mod&#45;&gt;lamspectraltransform_mod -->
<g id="edge4" class="edge">
<title>lambmatrixhi_mod&#45;&gt;lamspectraltransform_mod</title>
<path fill="none" stroke="black" d="M300.09,-279.65C296.51,-261.79 291.36,-237.33 286,-216 269.14,-148.83 244.99,-70.01 234.37,-36.02"/>
<ellipse fill="black" stroke="black" cx="300.94" cy="-283.93" rx="4" ry="4"/>
</g>
<!-- localizationspectral_mod -->
<g id="node6" class="node">
<title>localizationspectral_mod</title>
<g id="a_node6"><a xlink:href="../modules/localizationspectral_mod_rev.svg" xlink:title="localizationspectral_mod">
<polygon fill="none" stroke="blue" points="469,-396 317,-396 317,-360 469,-360 469,-396"/>
<text text-anchor="middle" x="393" y="-374.3" font-family="Times,serif" font-size="14.00">localizationspectral_mod</text>
</a>
</g>
</g>
<!-- localizationspectral_mod&#45;&gt;lamspectraltransform_mod -->
<g id="edge5" class="edge">
<title>localizationspectral_mod&#45;&gt;lamspectraltransform_mod</title>
<path fill="none" stroke="black" d="M393,-351.78C393,-323.39 393,-275.89 393,-235 393,-235 393,-235 393,-161 393,-98.48 324.04,-57.33 275.56,-36.13"/>
<ellipse fill="black" stroke="black" cx="393" cy="-355.95" rx="4" ry="4"/>
</g>
</g>
</svg>
