<?xml version="1.0" encoding="UTF-8" standalone="no"?>
<!DOCTYPE svg PUBLIC "-//W3C//DTD SVG 1.1//EN"
 "http://www.w3.org/Graphics/SVG/1.1/DTD/svg11.dtd">
<!-- Generated by graphviz version 3.0.0 (20220315.2325)
 -->
<!-- Title: localizationfunction_mod Pages: 1 -->
<svg width="516pt" height="601pt"
 viewBox="0.00 0.00 516.00 601.00" xmlns="http://www.w3.org/2000/svg" xmlns:xlink="http://www.w3.org/1999/xlink">
<g id="graph0" class="graph" transform="scale(1 1) rotate(0) translate(4 597)">
<title>localizationfunction_mod</title>
<polygon fill="white" stroke="transparent" points="-4,4 -4,-597 512,-597 512,4 -4,4"/>
<text text-anchor="middle" x="254" y="-577.8" font-family="Times,serif" font-size="14.00">Blue boxes indicate modules with reverse dependencies not shown</text>
<text text-anchor="middle" x="254" y="-562.8" font-family="Times,serif" font-size="14.00">Higher level reverse dependencies can be shown by clicking on a blue box</text>
<text text-anchor="middle" x="254" y="-547.8" font-family="Times,serif" font-size="14.00">Green boxes are programs</text>
<!-- localizationfunction_mod -->
<g id="node1" class="node">
<title>localizationfunction_mod</title>
<g id="a_node1"><a xlink:href="localizationfunction_mod.html" xlink:title="localizationfunction_mod">
<polygon fill="none" stroke="black" points="346,-36 191,-36 191,0 346,0 346,-36"/>
<text text-anchor="middle" x="268.5" y="-14.3" font-family="Times,serif" font-size="14.00">localizationfunction_mod</text>
</a>
</g>
</g>
<!-- biascorrectionsat_mod -->
<g id="node2" class="node">
<title>biascorrectionsat_mod</title>
<g id="a_node2"><a xlink:href="../modules/biascorrectionsat_mod_rev.svg" xlink:title="biascorrectionsat_mod">
<polygon fill="none" stroke="blue" points="139,-108 0,-108 0,-72 139,-72 139,-108"/>
<text text-anchor="middle" x="69.5" y="-86.3" font-family="Times,serif" font-size="14.00">biascorrectionsat_mod</text>
</a>
</g>
</g>
<!-- biascorrectionsat_mod&#45;&gt;localizationfunction_mod -->
<g id="edge1" class="edge">
<title>biascorrectionsat_mod&#45;&gt;localizationfunction_mod</title>
<path fill="none" stroke="black" d="M125.72,-69.23C155.37,-58.79 191.41,-46.12 219.86,-36.11"/>
<ellipse fill="black" stroke="black" cx="121.7" cy="-70.64" rx="4" ry="4"/>
</g>
<!-- bmatrix1dvar_mod -->
<g id="node3" class="node">
<title>bmatrix1dvar_mod</title>
<g id="a_node3"><a xlink:href="../modules/bmatrix1dvar_mod_rev.svg" xlink:title="bmatrix1dvar_mod">
<polygon fill="none" stroke="blue" points="202,-180 83,-180 83,-144 202,-144 202,-180"/>
<text text-anchor="middle" x="142.5" y="-158.3" font-family="Times,serif" font-size="14.00">bmatrix1dvar_mod</text>
</a>
</g>
</g>
<!-- bmatrix1dvar_mod&#45;&gt;localizationfunction_mod -->
<g id="edge2" class="edge">
<title>bmatrix1dvar_mod&#45;&gt;localizationfunction_mod</title>
<path fill="none" stroke="black" d="M161.1,-137.57C175.77,-119.36 196.94,-93.65 216.5,-72 227.56,-59.76 240.56,-46.51 250.8,-36.32"/>
<ellipse fill="black" stroke="black" cx="158.51" cy="-140.8" rx="4" ry="4"/>
</g>
<!-- calcstatslam_mod -->
<g id="node4" class="node">
<title>calcstatslam_mod</title>
<g id="a_node4"><a xlink:href="../modules/calcstatslam_mod_rev.svg" xlink:title="calcstatslam_mod">
<polygon fill="none" stroke="blue" points="240,-252 127,-252 127,-216 240,-216 240,-252"/>
<text text-anchor="middle" x="183.5" y="-230.3" font-family="Times,serif" font-size="14.00">calcstatslam_mod</text>
</a>
</g>
</g>
<!-- calcstatslam_mod&#45;&gt;localizationfunction_mod -->
<g id="edge3" class="edge">
<title>calcstatslam_mod&#45;&gt;localizationfunction_mod</title>
<path fill="none" stroke="black" d="M196.79,-208.5C201.38,-199.64 206.4,-189.48 210.5,-180 232.69,-128.74 253.57,-65.94 263.09,-36.19"/>
<ellipse fill="black" stroke="black" cx="194.92" cy="-212.06" rx="4" ry="4"/>
</g>
<!-- enkf_mod -->
<g id="node5" class="node">
<title>enkf_mod</title>
<g id="a_node5"><a xlink:href="../modules/enkf_mod_rev.svg" xlink:title="enkf_mod">
<polygon fill="none" stroke="blue" points="278,-324 205,-324 205,-288 278,-288 278,-324"/>
<text text-anchor="middle" x="241.5" y="-302.3" font-family="Times,serif" font-size="14.00">enkf_mod</text>
</a>
</g>
</g>
<!-- enkf_mod&#45;&gt;localizationfunction_mod -->
<g id="edge4" class="edge">
<title>enkf_mod&#45;&gt;localizationfunction_mod</title>
<path fill="none" stroke="black" d="M245.06,-279.83C246.25,-271.03 247.51,-261.09 248.5,-252 257.27,-171.48 264.52,-74.96 267.29,-36.27"/>
<ellipse fill="black" stroke="black" cx="244.51" cy="-283.88" rx="4" ry="4"/>
</g>
<!-- localizationspectral_mod -->
<g id="node6" class="node">
<title>localizationspectral_mod</title>
<g id="a_node6"><a xlink:href="../modules/localizationspectral_mod_rev.svg" xlink:title="localizationspectral_mod">
<polygon fill="none" stroke="blue" points="349.5,-396 197.5,-396 197.5,-360 349.5,-360 349.5,-396"/>
<text text-anchor="middle" x="273.5" y="-374.3" font-family="Times,serif" font-size="14.00">localizationspectral_mod</text>
</a>
</g>
</g>
<!-- localizationspectral_mod&#45;&gt;localizationfunction_mod -->
<g id="edge5" class="edge">
<title>localizationspectral_mod&#45;&gt;localizationfunction_mod</title>
<path fill="none" stroke="black" d="M282.93,-352.09C292.68,-324.05 306.5,-276.93 306.5,-235 306.5,-235 306.5,-235 306.5,-161 306.5,-114.55 287.29,-62.38 276.19,-36.09"/>
<ellipse fill="black" stroke="black" cx="281.52" cy="-356.04" rx="4" ry="4"/>
</g>
<!-- menetrierdiag_mod -->
<g id="node7" class="node">
<title>menetrierdiag_mod</title>
<g id="a_node7"><a xlink:href="../modules/menetrierdiag_mod_rev.svg" xlink:title="menetrierdiag_mod">
<polygon fill="none" stroke="blue" points="438.5,-468 316.5,-468 316.5,-432 438.5,-432 438.5,-468"/>
<text text-anchor="middle" x="377.5" y="-446.3" font-family="Times,serif" font-size="14.00">menetrierdiag_mod</text>
</a>
</g>
</g>
<!-- menetrierdiag_mod&#45;&gt;localizationfunction_mod -->
<g id="edge6" class="edge">
<title>menetrierdiag_mod&#45;&gt;localizationfunction_mod</title>
<path fill="none" stroke="black" d="M377.5,-423.78C377.5,-395.39 377.5,-347.89 377.5,-307 377.5,-307 377.5,-307 377.5,-161 377.5,-106.46 326.27,-59.96 294.06,-36.11"/>
<ellipse fill="black" stroke="black" cx="377.5" cy="-427.95" rx="4" ry="4"/>
</g>
<!-- sstbias_mod -->
<g id="node8" class="node">
<title>sstbias_mod</title>
<g id="a_node8"><a xlink:href="../modules/sstbias_mod_rev.svg" xlink:title="sstbias_mod">
<polygon fill="none" stroke="blue" points="508,-540 425,-540 425,-504 508,-504 508,-540"/>
<text text-anchor="middle" x="466.5" y="-518.3" font-family="Times,serif" font-size="14.00">sstbias_mod</text>
</a>
</g>
</g>
<!-- sstbias_mod&#45;&gt;localizationfunction_mod -->
<g id="edge7" class="edge">
<title>sstbias_mod&#45;&gt;localizationfunction_mod</title>
<path fill="none" stroke="black" d="M466.5,-495.78C466.5,-467.39 466.5,-419.89 466.5,-379 466.5,-379 466.5,-379 466.5,-161 466.5,-94.06 390.84,-55.62 333.06,-36.02"/>
<ellipse fill="black" stroke="black" cx="466.5" cy="-499.95" rx="4" ry="4"/>
</g>
</g>
</svg>
