<?xml version="1.0" encoding="UTF-8" standalone="no"?>
<!DOCTYPE svg PUBLIC "-//W3C//DTD SVG 1.1//EN"
 "http://www.w3.org/Graphics/SVG/1.1/DTD/svg11.dtd">
<!-- Generated by graphviz version 3.0.0 (20220315.2325)
 -->
<!-- Title: localization_mod Pages: 1 -->
<svg width="485pt" height="529pt"
 viewBox="0.00 0.00 485.00 529.00" xmlns="http://www.w3.org/2000/svg" xmlns:xlink="http://www.w3.org/1999/xlink">
<g id="graph0" class="graph" transform="scale(1 1) rotate(0) translate(4 525)">
<title>localization_mod</title>
<polygon fill="white" stroke="transparent" points="-4,4 -4,-525 481,-525 481,4 -4,4"/>
<text text-anchor="middle" x="238.5" y="-37.8" font-family="Times,serif" font-size="14.00">Red boxes indicate modules with dependencies not shown</text>
<text text-anchor="middle" x="238.5" y="-22.8" font-family="Times,serif" font-size="14.00">Lower level dependencies can be shown by clicking on a red box</text>
<text text-anchor="middle" x="238.5" y="-7.8" font-family="Times,serif" font-size="14.00">Shaded boxes indicate modules with no dependencies</text>
<!-- localization_mod -->
<g id="node1" class="node">
<title>localization_mod</title>
<g id="a_node1"><a xlink:href="localization_mod.html" xlink:title="localization_mod">
<polygon fill="none" stroke="black" points="324,-521 214,-521 214,-485 324,-485 324,-521"/>
<text text-anchor="middle" x="269" y="-499.3" font-family="Times,serif" font-size="14.00">localization_mod</text>
</a>
</g>
</g>
<!-- ensemblestatevector_mod -->
<g id="node2" class="node">
<title>ensemblestatevector_mod</title>
<g id="a_node2"><a xlink:href="../modules/ensemblestatevector_mod.svg" xlink:title="ensemblestatevector_mod">
<polygon fill="none" stroke="red" points="156,-449 0,-449 0,-413 156,-413 156,-449"/>
<text text-anchor="middle" x="78" y="-427.3" font-family="Times,serif" font-size="14.00">ensemblestatevector_mod</text>
</a>
</g>
</g>
<!-- localization_mod&#45;&gt;ensemblestatevector_mod -->
<g id="edge1" class="edge">
<title>localization_mod&#45;&gt;ensemblestatevector_mod</title>
<path fill="none" stroke="black" d="M222.28,-484.88C195.7,-475.14 162.24,-462.87 134.23,-452.61"/>
<polygon fill="black" stroke="black" points="135.17,-449.22 124.57,-449.07 132.76,-455.8 135.17,-449.22"/>
</g>
<!-- horizontalcoord_mod -->
<g id="node3" class="node">
<title>horizontalcoord_mod</title>
<g id="a_node3"><a xlink:href="../modules/horizontalcoord_mod.svg" xlink:title="horizontalcoord_mod">
<polygon fill="none" stroke="red" points="221.5,-377 88.5,-377 88.5,-341 221.5,-341 221.5,-377"/>
<text text-anchor="middle" x="155" y="-355.3" font-family="Times,serif" font-size="14.00">horizontalcoord_mod</text>
</a>
</g>
</g>
<!-- localization_mod&#45;&gt;horizontalcoord_mod -->
<g id="edge2" class="edge">
<title>localization_mod&#45;&gt;horizontalcoord_mod</title>
<path fill="none" stroke="black" d="M255.25,-484.87C235.31,-460.03 198.23,-413.85 175.18,-385.14"/>
<polygon fill="black" stroke="black" points="177.79,-382.8 168.8,-377.19 172.33,-387.18 177.79,-382.8"/>
</g>
<!-- localizationspectral_mod -->
<g id="node4" class="node">
<title>localizationspectral_mod</title>
<g id="a_node4"><a xlink:href="../modules/localizationspectral_mod.svg" xlink:title="localizationspectral_mod">
<polygon fill="none" stroke="red" points="260,-305 108,-305 108,-269 260,-269 260,-305"/>
<text text-anchor="middle" x="184" y="-283.3" font-family="Times,serif" font-size="14.00">localizationspectral_mod</text>
</a>
</g>
</g>
<!-- localization_mod&#45;&gt;localizationspectral_mod -->
<g id="edge3" class="edge">
<title>localization_mod&#45;&gt;localizationspectral_mod</title>
<path fill="none" stroke="black" d="M267.5,-484.62C264.3,-454.04 254.92,-389.31 230,-341 224.7,-330.72 217,-320.78 209.42,-312.33"/>
<polygon fill="black" stroke="black" points="211.95,-309.92 202.55,-305.03 206.85,-314.72 211.95,-309.92"/>
</g>
<!-- midasmpi_mod -->
<g id="node5" class="node">
<title>midasmpi_mod</title>
<g id="a_node5"><a xlink:href="../modules/midasmpi_mod.svg" xlink:title="midasmpi_mod">
<polygon fill="none" stroke="red" points="317.5,-233 216.5,-233 216.5,-197 317.5,-197 317.5,-233"/>
<text text-anchor="middle" x="267" y="-211.3" font-family="Times,serif" font-size="14.00">midasmpi_mod</text>
</a>
</g>
</g>
<!-- localization_mod&#45;&gt;midasmpi_mod -->
<g id="edge4" class="edge">
<title>localization_mod&#45;&gt;midasmpi_mod</title>
<path fill="none" stroke="black" d="M271.03,-484.84C272.15,-474.48 273.44,-461 274,-449 277.5,-374.65 272.36,-286.87 269.18,-243.33"/>
<polygon fill="black" stroke="black" points="272.67,-242.96 268.43,-233.25 265.69,-243.49 272.67,-242.96"/>
</g>
<!-- utilities_mod -->
<g id="node6" class="node">
<title>utilities_mod</title>
<g id="a_node6"><a xlink:href="../modules/utilities_mod.svg" xlink:title="utilities_mod">
<polygon fill="none" stroke="red" points="390,-161 302,-161 302,-125 390,-125 390,-161"/>
<text text-anchor="middle" x="346" y="-139.3" font-family="Times,serif" font-size="14.00">utilities_mod</text>
</a>
</g>
</g>
<!-- localization_mod&#45;&gt;utilities_mod -->
<g id="edge5" class="edge">
<title>localization_mod&#45;&gt;utilities_mod</title>
<path fill="none" stroke="black" d="M285.71,-484.81C308.35,-459.62 346,-410.2 346,-360 346,-360 346,-360 346,-286 346,-246 346,-199.65 346,-171.08"/>
<polygon fill="black" stroke="black" points="349.5,-171.05 346,-161.05 342.5,-171.05 349.5,-171.05"/>
</g>
<!-- verticalcoord_mod -->
<g id="node7" class="node">
<title>verticalcoord_mod</title>
<g id="a_node7"><a xlink:href="../modules/verticalcoord_mod.svg" xlink:title="verticalcoord_mod">
<polygon fill="none" stroke="red" points="477,-89 359,-89 359,-53 477,-53 477,-89"/>
<text text-anchor="middle" x="418" y="-67.3" font-family="Times,serif" font-size="14.00">verticalcoord_mod</text>
</a>
</g>
</g>
<!-- localization_mod&#45;&gt;verticalcoord_mod -->
<g id="edge6" class="edge">
<title>localization_mod&#45;&gt;verticalcoord_mod</title>
<path fill="none" stroke="black" d="M308.93,-484.87C353.06,-462.93 418,-420.39 418,-360 418,-360 418,-360 418,-214 418,-174 418,-127.65 418,-99.08"/>
<polygon fill="black" stroke="black" points="421.5,-99.05 418,-89.05 414.5,-99.05 421.5,-99.05"/>
</g>
</g>
</svg>
