<?xml version="1.0" encoding="UTF-8" standalone="no"?>
<!DOCTYPE svg PUBLIC "-//W3C//DTD SVG 1.1//EN"
 "http://www.w3.org/Graphics/SVG/1.1/DTD/svg11.dtd">
<!-- Generated by graphviz version 3.0.0 (20220315.2325)
 -->
<!-- Title: localization_mod Pages: 1 -->
<svg width="430pt" height="313pt"
 viewBox="0.00 0.00 430.00 313.00" xmlns="http://www.w3.org/2000/svg" xmlns:xlink="http://www.w3.org/1999/xlink">
<g id="graph0" class="graph" transform="scale(1 1) rotate(0) translate(4 309)">
<title>localization_mod</title>
<polygon fill="white" stroke="transparent" points="-4,4 -4,-309 426,-309 426,4 -4,4"/>
<text text-anchor="middle" x="211" y="-289.8" font-family="Times,serif" font-size="14.00">Blue boxes indicate modules with reverse dependencies not shown</text>
<text text-anchor="middle" x="211" y="-274.8" font-family="Times,serif" font-size="14.00">Higher level reverse dependencies can be shown by clicking on a blue box</text>
<text text-anchor="middle" x="211" y="-259.8" font-family="Times,serif" font-size="14.00">Green boxes are programs</text>
<!-- localization_mod -->
<g id="node1" class="node">
<title>localization_mod</title>
<g id="a_node1"><a xlink:href="localization_mod.html" xlink:title="localization_mod">
<polygon fill="none" stroke="black" points="257.75,-36 147.75,-36 147.75,0 257.75,0 257.75,-36"/>
<text text-anchor="middle" x="202.75" y="-14.3" font-family="Times,serif" font-size="14.00">localization_mod</text>
</a>
</g>
</g>
<!-- bmatrixensemble_mod -->
<g id="node2" class="node">
<title>bmatrixensemble_mod</title>
<g id="a_node2"><a xlink:href="../modules/bmatrixensemble_mod_rev.svg" xlink:title="bmatrixensemble_mod">
<polygon fill="none" stroke="blue" points="174.75,-108 34.75,-108 34.75,-72 174.75,-72 174.75,-108"/>
<text text-anchor="middle" x="104.75" y="-86.3" font-family="Times,serif" font-size="14.00">bmatrixensemble_mod</text>
</a>
</g>
</g>
<!-- bmatrixensemble_mod&#45;&gt;localization_mod -->
<g id="edge1" class="edge">
<title>bmatrixensemble_mod&#45;&gt;localization_mod</title>
<path fill="none" stroke="black" d="M135.37,-67.13C149.33,-57.16 165.62,-45.52 178.68,-36.19"/>
<ellipse fill="black" stroke="black" cx="131.98" cy="-69.55" rx="4" ry="4"/>
</g>
<!-- midas_midas_adjointtest -->
<g id="node3" class="node">
<title>midas_midas_adjointtest</title>
<g id="a_node3"><a xlink:href="../programs/midas_adjointtest.html" xlink:title="midas_midas_adjointtest">
<polygon fill="gray" stroke="green" points="278.75,-180 126.75,-180 126.75,-144 278.75,-144 278.75,-180"/>
<text text-anchor="middle" x="202.75" y="-158.3" font-family="Times,serif" font-size="14.00">midas_midas_adjointtest</text>
</a>
</g>
</g>
<!-- midas_midas_adjointtest&#45;&gt;localization_mod -->
<g id="edge2" class="edge">
<title>midas_midas_adjointtest&#45;&gt;localization_mod</title>
<path fill="none" stroke="black" d="M202.75,-135.56C202.75,-106.86 202.75,-60.96 202.75,-36.19"/>
<ellipse fill="black" stroke="black" cx="202.75" cy="-139.87" rx="4" ry="4"/>
</g>
<!-- midas_midas_diagbmatrix -->
<g id="node4" class="node">
<title>midas_midas_diagbmatrix</title>
<g id="a_node4"><a xlink:href="../programs/midas_diagbmatrix.html" xlink:title="midas_midas_diagbmatrix">
<polygon fill="gray" stroke="green" points="387.25,-252 226.25,-252 226.25,-216 387.25,-216 387.25,-252"/>
<text text-anchor="middle" x="306.75" y="-230.3" font-family="Times,serif" font-size="14.00">midas_midas_diagbmatrix</text>
</a>
</g>
</g>
<!-- midas_midas_diagbmatrix&#45;&gt;localization_mod -->
<g id="edge3" class="edge">
<title>midas_midas_diagbmatrix&#45;&gt;localization_mod</title>
<path fill="none" stroke="black" d="M303.94,-207.3C301.31,-189.08 296.44,-164.35 287.75,-144 269.81,-102.01 236.99,-59.35 217.8,-36.33"/>
<ellipse fill="black" stroke="black" cx="304.53" cy="-211.71" rx="4" ry="4"/>
</g>
</g>
</svg>
