<?xml version="1.0" encoding="UTF-8" standalone="no"?>
<!DOCTYPE svg PUBLIC "-//W3C//DTD SVG 1.1//EN"
 "http://www.w3.org/Graphics/SVG/1.1/DTD/svg11.dtd">
<!-- Generated by graphviz version 3.0.0 (20220315.2325)
 -->
<!-- Title: localizationspectral_mod Pages: 1 -->
<svg width="543pt" height="673pt"
 viewBox="0.00 0.00 542.50 673.00" xmlns="http://www.w3.org/2000/svg" xmlns:xlink="http://www.w3.org/1999/xlink">
<g id="graph0" class="graph" transform="scale(1 1) rotate(0) translate(4 669)">
<title>localizationspectral_mod</title>
<polygon fill="white" stroke="transparent" points="-4,4 -4,-669 538.5,-669 538.5,4 -4,4"/>
<text text-anchor="middle" x="267.25" y="-37.8" font-family="Times,serif" font-size="14.00">Red boxes indicate modules with dependencies not shown</text>
<text text-anchor="middle" x="267.25" y="-22.8" font-family="Times,serif" font-size="14.00">Lower level dependencies can be shown by clicking on a red box</text>
<text text-anchor="middle" x="267.25" y="-7.8" font-family="Times,serif" font-size="14.00">Shaded boxes indicate modules with no dependencies</text>
<!-- localizationspectral_mod -->
<g id="node1" class="node">
<title>localizationspectral_mod</title>
<g id="a_node1"><a xlink:href="localizationspectral_mod.html" xlink:title="localizationspectral_mod">
<polygon fill="none" stroke="black" points="358.5,-665 206.5,-665 206.5,-629 358.5,-629 358.5,-665"/>
<text text-anchor="middle" x="282.5" y="-643.3" font-family="Times,serif" font-size="14.00">localizationspectral_mod</text>
</a>
</g>
</g>
<!-- earthconstants_mod -->
<g id="node2" class="node">
<title>earthconstants_mod</title>
<g id="a_node2"><a xlink:href="../modules/earthconstants_mod.svg" xlink:title="earthconstants_mod">
<polygon fill="none" stroke="red" points="125,-593 0,-593 0,-557 125,-557 125,-593"/>
<text text-anchor="middle" x="62.5" y="-571.3" font-family="Times,serif" font-size="14.00">earthconstants_mod</text>
</a>
</g>
</g>
<!-- localizationspectral_mod&#45;&gt;earthconstants_mod -->
<g id="edge1" class="edge">
<title>localizationspectral_mod&#45;&gt;earthconstants_mod</title>
<path fill="none" stroke="black" d="M228.96,-628.97C197.96,-619.1 158.74,-606.62 126.16,-596.25"/>
<polygon fill="black" stroke="black" points="126.87,-592.81 116.28,-593.11 124.74,-599.48 126.87,-592.81"/>
</g>
<!-- ensemblestatevector_mod -->
<g id="node3" class="node">
<title>ensemblestatevector_mod</title>
<g id="a_node3"><a xlink:href="../modules/ensemblestatevector_mod.svg" xlink:title="ensemblestatevector_mod">
<polygon fill="none" stroke="red" points="197.5,-521 41.5,-521 41.5,-485 197.5,-485 197.5,-521"/>
<text text-anchor="middle" x="119.5" y="-499.3" font-family="Times,serif" font-size="14.00">ensemblestatevector_mod</text>
</a>
</g>
</g>
<!-- localizationspectral_mod&#45;&gt;ensemblestatevector_mod -->
<g id="edge2" class="edge">
<title>localizationspectral_mod&#45;&gt;ensemblestatevector_mod</title>
<path fill="none" stroke="black" d="M257.92,-628.83C243.97,-618.8 226.38,-605.66 211.5,-593 187.21,-572.33 161.25,-546.87 143.11,-528.48"/>
<polygon fill="black" stroke="black" points="145.35,-525.76 135.85,-521.07 140.35,-530.66 145.35,-525.76"/>
</g>
<!-- globalspectraltransform_mod -->
<g id="node4" class="node">
<title>globalspectraltransform_mod</title>
<g id="a_node4"><a xlink:href="../modules/globalspectraltransform_mod.svg" xlink:title="globalspectraltransform_mod">
<polygon fill="none" stroke="red" points="235.5,-449 59.5,-449 59.5,-413 235.5,-413 235.5,-449"/>
<text text-anchor="middle" x="147.5" y="-427.3" font-family="Times,serif" font-size="14.00">globalspectraltransform_mod</text>
</a>
</g>
</g>
<!-- localizationspectral_mod&#45;&gt;globalspectraltransform_mod -->
<g id="edge3" class="edge">
<title>localizationspectral_mod&#45;&gt;globalspectraltransform_mod</title>
<path fill="none" stroke="black" d="M270.69,-628.79C264.01,-618.63 255.76,-605.38 249.5,-593 226.2,-546.89 236.05,-527.38 206.5,-485 198.92,-474.13 188.7,-463.94 178.89,-455.45"/>
<polygon fill="black" stroke="black" points="181.1,-452.74 171.18,-449.04 176.62,-458.12 181.1,-452.74"/>
</g>
<!-- horizontalcoord_mod -->
<g id="node5" class="node">
<title>horizontalcoord_mod</title>
<g id="a_node5"><a xlink:href="../modules/horizontalcoord_mod.svg" xlink:title="horizontalcoord_mod">
<polygon fill="none" stroke="red" points="273,-377 140,-377 140,-341 273,-341 273,-377"/>
<text text-anchor="middle" x="206.5" y="-355.3" font-family="Times,serif" font-size="14.00">horizontalcoord_mod</text>
</a>
</g>
</g>
<!-- localizationspectral_mod&#45;&gt;horizontalcoord_mod -->
<g id="edge4" class="edge">
<title>localizationspectral_mod&#45;&gt;horizontalcoord_mod</title>
<path fill="none" stroke="black" d="M282.35,-628.9C281.44,-589.35 275.96,-489.14 244.5,-413 240.52,-403.37 234.49,-393.81 228.4,-385.52"/>
<polygon fill="black" stroke="black" points="231,-383.16 222.11,-377.39 225.46,-387.44 231,-383.16"/>
</g>
<!-- lamspectraltransform_mod -->
<g id="node6" class="node">
<title>lamspectraltransform_mod</title>
<g id="a_node6"><a xlink:href="../modules/lamspectraltransform_mod.svg" xlink:title="lamspectraltransform_mod">
<polygon fill="none" stroke="red" points="311.5,-305 149.5,-305 149.5,-269 311.5,-269 311.5,-305"/>
<text text-anchor="middle" x="230.5" y="-283.3" font-family="Times,serif" font-size="14.00">lamspectraltransform_mod</text>
</a>
</g>
</g>
<!-- localizationspectral_mod&#45;&gt;lamspectraltransform_mod -->
<g id="edge5" class="edge">
<title>localizationspectral_mod&#45;&gt;lamspectraltransform_mod</title>
<path fill="none" stroke="black" d="M286.34,-628.61C291.9,-601.94 301.5,-549.27 301.5,-504 301.5,-504 301.5,-504 301.5,-430 301.5,-389.46 300.71,-376.7 281.5,-341 275.79,-330.39 267.36,-320.4 258.99,-312.02"/>
<polygon fill="black" stroke="black" points="261.38,-309.45 251.72,-305.09 256.55,-314.52 261.38,-309.45"/>
</g>
<!-- localizationfunction_mod -->
<g id="node7" class="node">
<title>localizationfunction_mod</title>
<g id="a_node7"><a xlink:href="../modules/localizationfunction_mod.svg" xlink:title="localizationfunction_mod">
<polygon fill="none" stroke="red" points="383,-233 228,-233 228,-197 383,-197 383,-233"/>
<text text-anchor="middle" x="305.5" y="-211.3" font-family="Times,serif" font-size="14.00">localizationfunction_mod</text>
</a>
</g>
</g>
<!-- localizationspectral_mod&#45;&gt;localizationfunction_mod -->
<g id="edge6" class="edge">
<title>localizationspectral_mod&#45;&gt;localizationfunction_mod</title>
<path fill="none" stroke="black" d="M294.31,-628.96C311.01,-603.16 339.5,-552.08 339.5,-504 339.5,-504 339.5,-504 339.5,-358 339.5,-316.91 325.87,-270.92 315.87,-242.72"/>
<polygon fill="black" stroke="black" points="319.1,-241.36 312.38,-233.17 312.53,-243.76 319.1,-241.36"/>
</g>
<!-- midasmpi_mod -->
<g id="node8" class="node">
<title>midasmpi_mod</title>
<g id="a_node8"><a xlink:href="../modules/midasmpi_mod.svg" xlink:title="midasmpi_mod">
<polygon fill="none" stroke="red" points="462,-161 361,-161 361,-125 462,-125 462,-161"/>
<text text-anchor="middle" x="411.5" y="-139.3" font-family="Times,serif" font-size="14.00">midasmpi_mod</text>
</a>
</g>
</g>
<!-- localizationspectral_mod&#45;&gt;midasmpi_mod -->
<g id="edge7" class="edge">
<title>localizationspectral_mod&#45;&gt;midasmpi_mod</title>
<path fill="none" stroke="black" d="M314.72,-628.87C352.93,-605.95 411.5,-561.45 411.5,-504 411.5,-504 411.5,-504 411.5,-286 411.5,-246 411.5,-199.65 411.5,-171.08"/>
<polygon fill="black" stroke="black" points="415,-171.05 411.5,-161.05 408,-171.05 415,-171.05"/>
</g>
<!-- utilities_mod -->
<g id="node9" class="node">
<title>utilities_mod</title>
<g id="a_node9"><a xlink:href="../modules/utilities_mod.svg" xlink:title="utilities_mod">
<polygon fill="none" stroke="red" points="534.5,-89 446.5,-89 446.5,-53 534.5,-53 534.5,-89"/>
<text text-anchor="middle" x="490.5" y="-67.3" font-family="Times,serif" font-size="14.00">utilities_mod</text>
</a>
</g>
</g>
<!-- localizationspectral_mod&#45;&gt;utilities_mod -->
<g id="edge8" class="edge">
<title>localizationspectral_mod&#45;&gt;utilities_mod</title>
<path fill="none" stroke="black" d="M353.5,-628.96C413.76,-609.78 490.5,-571.99 490.5,-504 490.5,-504 490.5,-504 490.5,-214 490.5,-174 490.5,-127.65 490.5,-99.08"/>
<polygon fill="black" stroke="black" points="494,-99.05 490.5,-89.05 487,-99.05 494,-99.05"/>
</g>
</g>
</svg>
