<?xml version="1.0" encoding="UTF-8" standalone="no"?>
<!DOCTYPE svg PUBLIC "-//W3C//DTD SVG 1.1//EN"
 "http://www.w3.org/Graphics/SVG/1.1/DTD/svg11.dtd">
<!-- Generated by graphviz version 3.0.0 (20220315.2325)
 -->
<!-- Title: localizationfunction_mod Pages: 1 -->
<svg width="379pt" height="241pt"
 viewBox="0.00 0.00 379.00 241.00" xmlns="http://www.w3.org/2000/svg" xmlns:xlink="http://www.w3.org/1999/xlink">
<g id="graph0" class="graph" transform="scale(1 1) rotate(0) translate(4 237)">
<title>localizationfunction_mod</title>
<polygon fill="white" stroke="transparent" points="-4,4 -4,-237 375,-237 375,4 -4,4"/>
<text text-anchor="middle" x="185.5" y="-37.8" font-family="Times,serif" font-size="14.00">Red boxes indicate modules with dependencies not shown</text>
<text text-anchor="middle" x="185.5" y="-22.8" font-family="Times,serif" font-size="14.00">Lower level dependencies can be shown by clicking on a red box</text>
<text text-anchor="middle" x="185.5" y="-7.8" font-family="Times,serif" font-size="14.00">Shaded boxes indicate modules with no dependencies</text>
<!-- localizationfunction_mod -->
<g id="node1" class="node">
<title>localizationfunction_mod</title>
<g id="a_node1"><a xlink:href="localizationfunction_mod.html" xlink:title="localizationfunction_mod">
<polygon fill="none" stroke="black" points="271.75,-233 116.75,-233 116.75,-197 271.75,-197 271.75,-233"/>
<text text-anchor="middle" x="194.25" y="-211.3" font-family="Times,serif" font-size="14.00">localizationfunction_mod</text>
</a>
</g>
</g>
<!-- earthconstants_mod -->
<g id="node2" class="node">
<title>earthconstants_mod</title>
<g id="a_node2"><a xlink:href="../modules/earthconstants_mod.svg" xlink:title="earthconstants_mod">
<polygon fill="none" stroke="red" points="211.75,-161 86.75,-161 86.75,-125 211.75,-125 211.75,-161"/>
<text text-anchor="middle" x="149.25" y="-139.3" font-family="Times,serif" font-size="14.00">earthconstants_mod</text>
</a>
</g>
</g>
<!-- localizationfunction_mod&#45;&gt;earthconstants_mod -->
<g id="edge1" class="edge">
<title>localizationfunction_mod&#45;&gt;earthconstants_mod</title>
<path fill="none" stroke="black" d="M183.13,-196.7C177.89,-188.56 171.55,-178.69 165.77,-169.7"/>
<polygon fill="black" stroke="black" points="168.6,-167.62 160.25,-161.1 162.71,-171.41 168.6,-167.62"/>
</g>
<!-- utilities_mod -->
<g id="node3" class="node">
<title>utilities_mod</title>
<g id="a_node3"><a xlink:href="../modules/utilities_mod.svg" xlink:title="utilities_mod">
<polygon fill="none" stroke="red" points="284.25,-89 196.25,-89 196.25,-53 284.25,-53 284.25,-89"/>
<text text-anchor="middle" x="240.25" y="-67.3" font-family="Times,serif" font-size="14.00">utilities_mod</text>
</a>
</g>
</g>
<!-- localizationfunction_mod&#45;&gt;utilities_mod -->
<g id="edge2" class="edge">
<title>localizationfunction_mod&#45;&gt;utilities_mod</title>
<path fill="none" stroke="black" d="M204.44,-196.84C210.08,-186.71 216.83,-173.46 221.25,-161 228.41,-140.8 233.32,-117.03 236.35,-99.13"/>
<polygon fill="black" stroke="black" points="239.83,-99.52 237.96,-89.09 232.92,-98.41 239.83,-99.52"/>
</g>
</g>
</svg>
