<?xml version="1.0" encoding="UTF-8" standalone="no"?>
<!DOCTYPE svg PUBLIC "-//W3C//DTD SVG 1.1//EN"
 "http://www.w3.org/Graphics/SVG/1.1/DTD/svg11.dtd">
<!-- Generated by graphviz version 3.0.0 (20220315.2325)
 -->
<!-- Title: menetrierdiag_mod Pages: 1 -->
<svg width="430pt" height="241pt"
 viewBox="0.00 0.00 430.00 241.00" xmlns="http://www.w3.org/2000/svg" xmlns:xlink="http://www.w3.org/1999/xlink">
<g id="graph0" class="graph" transform="scale(1 1) rotate(0) translate(4 237)">
<title>menetrierdiag_mod</title>
<polygon fill="white" stroke="transparent" points="-4,4 -4,-237 426,-237 426,4 -4,4"/>
<text text-anchor="middle" x="211" y="-217.8" font-family="Times,serif" font-size="14.00">Blue boxes indicate modules with reverse dependencies not shown</text>
<text text-anchor="middle" x="211" y="-202.8" font-family="Times,serif" font-size="14.00">Higher level reverse dependencies can be shown by clicking on a blue box</text>
<text text-anchor="middle" x="211" y="-187.8" font-family="Times,serif" font-size="14.00">Green boxes are programs</text>
<!-- menetrierdiag_mod -->
<g id="node1" class="node">
<title>menetrierdiag_mod</title>
<g id="a_node1"><a xlink:href="menetrierdiag_mod.html" xlink:title="menetrierdiag_mod">
<polygon fill="none" stroke="black" points="270.75,-36 148.75,-36 148.75,0 270.75,0 270.75,-36"/>
<text text-anchor="middle" x="209.75" y="-14.3" font-family="Times,serif" font-size="14.00">menetrierdiag_mod</text>
</a>
</g>
</g>
<!-- calcstatsglb_mod -->
<g id="node2" class="node">
<title>calcstatsglb_mod</title>
<g id="a_node2"><a xlink:href="../modules/calcstatsglb_mod_rev.svg" xlink:title="calcstatsglb_mod">
<polygon fill="none" stroke="blue" points="223.75,-108 113.75,-108 113.75,-72 223.75,-72 223.75,-108"/>
<text text-anchor="middle" x="168.75" y="-86.3" font-family="Times,serif" font-size="14.00">calcstatsglb_mod</text>
</a>
</g>
</g>
<!-- calcstatsglb_mod&#45;&gt;menetrierdiag_mod -->
<g id="edge1" class="edge">
<title>calcstatsglb_mod&#45;&gt;menetrierdiag_mod</title>
<path fill="none" stroke="black" d="M182.95,-64.76C188.48,-55.32 194.69,-44.72 199.73,-36.1"/>
<ellipse fill="black" stroke="black" cx="180.91" cy="-68.25" rx="4" ry="4"/>
</g>
<!-- calcstatslam_mod -->
<g id="node3" class="node">
<title>calcstatslam_mod</title>
<g id="a_node3"><a xlink:href="../modules/calcstatslam_mod_rev.svg" xlink:title="calcstatslam_mod">
<polygon fill="none" stroke="blue" points="308.25,-180 195.25,-180 195.25,-144 308.25,-144 308.25,-180"/>
<text text-anchor="middle" x="251.75" y="-158.3" font-family="Times,serif" font-size="14.00">calcstatslam_mod</text>
</a>
</g>
</g>
<!-- calcstatslam_mod&#45;&gt;menetrierdiag_mod -->
<g id="edge2" class="edge">
<title>calcstatslam_mod&#45;&gt;menetrierdiag_mod</title>
<path fill="none" stroke="black" d="M247.68,-135.41C244.49,-117.43 239.46,-92.95 232.75,-72 228.83,-59.77 223.08,-46.52 218.31,-36.33"/>
<ellipse fill="black" stroke="black" cx="248.43" cy="-139.73" rx="4" ry="4"/>
</g>
</g>
</svg>
