<?xml version="1.0" encoding="UTF-8" standalone="no"?>
<!DOCTYPE svg PUBLIC "-//W3C//DTD SVG 1.1//EN"
 "http://www.w3.org/Graphics/SVG/1.1/DTD/svg11.dtd">
<!-- Generated by graphviz version 3.0.0 (20220315.2325)
 -->
<!-- Title: menetrierdiag_mod Pages: 1 -->
<svg width="583pt" height="673pt"
 viewBox="0.00 0.00 582.50 673.00" xmlns="http://www.w3.org/2000/svg" xmlns:xlink="http://www.w3.org/1999/xlink">
<g id="graph0" class="graph" transform="scale(1 1) rotate(0) translate(4 669)">
<title>menetrierdiag_mod</title>
<polygon fill="white" stroke="transparent" points="-4,4 -4,-669 578.5,-669 578.5,4 -4,4"/>
<text text-anchor="middle" x="287.25" y="-37.8" font-family="Times,serif" font-size="14.00">Red boxes indicate modules with dependencies not shown</text>
<text text-anchor="middle" x="287.25" y="-22.8" font-family="Times,serif" font-size="14.00">Lower level dependencies can be shown by clicking on a red box</text>
<text text-anchor="middle" x="287.25" y="-7.8" font-family="Times,serif" font-size="14.00">Shaded boxes indicate modules with no dependencies</text>
<!-- menetrierdiag_mod -->
<g id="node1" class="node">
<title>menetrierdiag_mod</title>
<g id="a_node1"><a xlink:href="menetrierdiag_mod.html" xlink:title="menetrierdiag_mod">
<polygon fill="none" stroke="black" points="362.5,-665 240.5,-665 240.5,-629 362.5,-629 362.5,-665"/>
<text text-anchor="middle" x="301.5" y="-643.3" font-family="Times,serif" font-size="14.00">menetrierdiag_mod</text>
</a>
</g>
</g>
<!-- earthconstants_mod -->
<g id="node2" class="node">
<title>earthconstants_mod</title>
<g id="a_node2"><a xlink:href="../modules/earthconstants_mod.svg" xlink:title="earthconstants_mod">
<polygon fill="none" stroke="red" points="125,-593 0,-593 0,-557 125,-557 125,-593"/>
<text text-anchor="middle" x="62.5" y="-571.3" font-family="Times,serif" font-size="14.00">earthconstants_mod</text>
</a>
</g>
</g>
<!-- menetrierdiag_mod&#45;&gt;earthconstants_mod -->
<g id="edge1" class="edge">
<title>menetrierdiag_mod&#45;&gt;earthconstants_mod</title>
<path fill="none" stroke="black" d="M243.34,-628.97C209.37,-619.01 166.32,-606.41 130.74,-595.99"/>
<polygon fill="black" stroke="black" points="131.5,-592.56 120.92,-593.11 129.53,-599.28 131.5,-592.56"/>
</g>
<!-- ensemblestatevector_mod -->
<g id="node3" class="node">
<title>ensemblestatevector_mod</title>
<g id="a_node3"><a xlink:href="../modules/ensemblestatevector_mod.svg" xlink:title="ensemblestatevector_mod">
<polygon fill="none" stroke="red" points="197.5,-521 41.5,-521 41.5,-485 197.5,-485 197.5,-521"/>
<text text-anchor="middle" x="119.5" y="-499.3" font-family="Times,serif" font-size="14.00">ensemblestatevector_mod</text>
</a>
</g>
</g>
<!-- menetrierdiag_mod&#45;&gt;ensemblestatevector_mod -->
<g id="edge2" class="edge">
<title>menetrierdiag_mod&#45;&gt;ensemblestatevector_mod</title>
<path fill="none" stroke="black" d="M268.24,-628.89C250.72,-619.27 229.25,-606.51 211.5,-593 185.97,-573.57 159.97,-547.75 142.16,-528.92"/>
<polygon fill="black" stroke="black" points="144.44,-526.24 135.05,-521.32 139.32,-531.02 144.44,-526.24"/>
</g>
<!-- gridstatevector_mod -->
<g id="node4" class="node">
<title>gridstatevector_mod</title>
<g id="a_node4"><a xlink:href="../modules/gridstatevector_mod.svg" xlink:title="gridstatevector_mod">
<polygon fill="none" stroke="red" points="235,-449 108,-449 108,-413 235,-413 235,-449"/>
<text text-anchor="middle" x="171.5" y="-427.3" font-family="Times,serif" font-size="14.00">gridstatevector_mod</text>
</a>
</g>
</g>
<!-- menetrierdiag_mod&#45;&gt;gridstatevector_mod -->
<g id="edge3" class="edge">
<title>menetrierdiag_mod&#45;&gt;gridstatevector_mod</title>
<path fill="none" stroke="black" d="M281.24,-628.94C270.7,-619.25 258.22,-606.39 249.5,-593 221.3,-549.71 230.42,-530.8 206.5,-485 201.65,-475.71 195.58,-466.02 189.86,-457.5"/>
<polygon fill="black" stroke="black" points="192.65,-455.38 184.1,-449.12 186.88,-459.34 192.65,-455.38"/>
</g>
<!-- horizontalcoord_mod -->
<g id="node5" class="node">
<title>horizontalcoord_mod</title>
<g id="a_node5"><a xlink:href="../modules/horizontalcoord_mod.svg" xlink:title="horizontalcoord_mod">
<polygon fill="none" stroke="red" points="273,-377 140,-377 140,-341 273,-341 273,-377"/>
<text text-anchor="middle" x="206.5" y="-355.3" font-family="Times,serif" font-size="14.00">horizontalcoord_mod</text>
</a>
</g>
</g>
<!-- menetrierdiag_mod&#45;&gt;horizontalcoord_mod -->
<g id="edge4" class="edge">
<title>menetrierdiag_mod&#45;&gt;horizontalcoord_mod</title>
<path fill="none" stroke="black" d="M296.88,-628.84C294.11,-618.47 290.55,-604.99 287.5,-593 267.2,-513.18 277.43,-488.04 243.5,-413 239.18,-403.44 233.07,-393.79 227.07,-385.39"/>
<polygon fill="black" stroke="black" points="229.71,-383.08 220.93,-377.15 224.1,-387.26 229.71,-383.08"/>
</g>
<!-- localizationfunction_mod -->
<g id="node6" class="node">
<title>localizationfunction_mod</title>
<g id="a_node6"><a xlink:href="../modules/localizationfunction_mod.svg" xlink:title="localizationfunction_mod">
<polygon fill="none" stroke="red" points="311,-305 156,-305 156,-269 311,-269 311,-305"/>
<text text-anchor="middle" x="233.5" y="-283.3" font-family="Times,serif" font-size="14.00">localizationfunction_mod</text>
</a>
</g>
</g>
<!-- menetrierdiag_mod&#45;&gt;localizationfunction_mod -->
<g id="edge5" class="edge">
<title>menetrierdiag_mod&#45;&gt;localizationfunction_mod</title>
<path fill="none" stroke="black" d="M301.5,-628.95C301.5,-602.29 301.5,-549.11 301.5,-504 301.5,-504 301.5,-504 301.5,-430 301.5,-389.46 300.17,-376.99 281.5,-341 276.16,-330.71 268.33,-320.87 260.53,-312.52"/>
<polygon fill="black" stroke="black" points="262.96,-310 253.45,-305.31 257.96,-314.9 262.96,-310"/>
</g>
<!-- midasmpi_mod -->
<g id="node7" class="node">
<title>midasmpi_mod</title>
<g id="a_node7"><a xlink:href="../modules/midasmpi_mod.svg" xlink:title="midasmpi_mod">
<polygon fill="none" stroke="red" points="349,-233 248,-233 248,-197 349,-197 349,-233"/>
<text text-anchor="middle" x="298.5" y="-211.3" font-family="Times,serif" font-size="14.00">midasmpi_mod</text>
</a>
</g>
</g>
<!-- menetrierdiag_mod&#45;&gt;midasmpi_mod -->
<g id="edge6" class="edge">
<title>menetrierdiag_mod&#45;&gt;midasmpi_mod</title>
<path fill="none" stroke="black" d="M309.19,-628.91C320.29,-602.62 339.5,-550.45 339.5,-504 339.5,-504 339.5,-504 339.5,-358 339.5,-316.41 323.06,-270.56 311,-242.51"/>
<polygon fill="black" stroke="black" points="314.05,-240.75 306.8,-233.03 307.65,-243.59 314.05,-240.75"/>
</g>
<!-- timecoord_mod -->
<g id="node8" class="node">
<title>timecoord_mod</title>
<g id="a_node8"><a xlink:href="../modules/timecoord_mod.svg" xlink:title="timecoord_mod">
<polygon fill="none" stroke="red" points="408.5,-161 306.5,-161 306.5,-125 408.5,-125 408.5,-161"/>
<text text-anchor="middle" x="357.5" y="-139.3" font-family="Times,serif" font-size="14.00">timecoord_mod</text>
</a>
</g>
</g>
<!-- menetrierdiag_mod&#45;&gt;timecoord_mod -->
<g id="edge7" class="edge">
<title>menetrierdiag_mod&#45;&gt;timecoord_mod</title>
<path fill="none" stroke="black" d="M317.99,-628.77C340.34,-603.53 377.5,-554.05 377.5,-504 377.5,-504 377.5,-504 377.5,-286 377.5,-245.82 369.55,-199.87 363.68,-171.39"/>
<polygon fill="black" stroke="black" points="367.05,-170.43 361.55,-161.38 360.2,-171.89 367.05,-170.43"/>
</g>
<!-- utilities_mod -->
<g id="node9" class="node">
<title>utilities_mod</title>
<g id="a_node9"><a xlink:href="../modules/utilities_mod.svg" xlink:title="utilities_mod">
<polygon fill="none" stroke="red" points="480.5,-89 392.5,-89 392.5,-53 480.5,-53 480.5,-89"/>
<text text-anchor="middle" x="436.5" y="-67.3" font-family="Times,serif" font-size="14.00">utilities_mod</text>
</a>
</g>
</g>
<!-- menetrierdiag_mod&#45;&gt;utilities_mod -->
<g id="edge8" class="edge">
<title>menetrierdiag_mod&#45;&gt;utilities_mod</title>
<path fill="none" stroke="black" d="M335.92,-628.87C375.91,-606.24 436.5,-562.34 436.5,-504 436.5,-504 436.5,-504 436.5,-214 436.5,-174 436.5,-127.65 436.5,-99.08"/>
<polygon fill="black" stroke="black" points="440,-99.05 436.5,-89.05 433,-99.05 440,-99.05"/>
</g>
<!-- varnamelist_mod -->
<g id="node10" class="node">
<title>varnamelist_mod</title>
<g id="a_node10"><a xlink:href="../modules/varnamelist_mod.svg" xlink:title="varnamelist_mod">
<polygon fill="none" stroke="red" points="574.5,-593 464.5,-593 464.5,-557 574.5,-557 574.5,-593"/>
<text text-anchor="middle" x="519.5" y="-571.3" font-family="Times,serif" font-size="14.00">varnamelist_mod</text>
</a>
</g>
</g>
<!-- menetrierdiag_mod&#45;&gt;varnamelist_mod -->
<g id="edge9" class="edge">
<title>menetrierdiag_mod&#45;&gt;varnamelist_mod</title>
<path fill="none" stroke="black" d="M354.55,-628.97C385.27,-619.1 424.14,-606.62 456.42,-596.25"/>
<polygon fill="black" stroke="black" points="457.76,-599.5 466.21,-593.11 455.62,-592.84 457.76,-599.5"/>
</g>
</g>
</svg>
