<?xml version="1.0" encoding="UTF-8" standalone="no"?>
<!DOCTYPE svg PUBLIC "-//W3C//DTD SVG 1.1//EN"
 "http://www.w3.org/Graphics/SVG/1.1/DTD/svg11.dtd">
<!-- Generated by graphviz version 3.0.0 (20220315.2325)
 -->
<!-- Title: message_mod Pages: 1 -->
<svg width="379pt" height="241pt"
 viewBox="0.00 0.00 379.00 241.00" xmlns="http://www.w3.org/2000/svg" xmlns:xlink="http://www.w3.org/1999/xlink">
<g id="graph0" class="graph" transform="scale(1 1) rotate(0) translate(4 237)">
<title>message_mod</title>
<polygon fill="white" stroke="transparent" points="-4,4 -4,-237 375,-237 375,4 -4,4"/>
<text text-anchor="middle" x="185.5" y="-37.8" font-family="Times,serif" font-size="14.00">Red boxes indicate modules with dependencies not shown</text>
<text text-anchor="middle" x="185.5" y="-22.8" font-family="Times,serif" font-size="14.00">Lower level dependencies can be shown by clicking on a red box</text>
<text text-anchor="middle" x="185.5" y="-7.8" font-family="Times,serif" font-size="14.00">Shaded boxes indicate modules with no dependencies</text>
<!-- message_mod -->
<g id="node1" class="node">
<title>message_mod</title>
<g id="a_node1"><a xlink:href="message_mod.html" xlink:title="message_mod">
<polygon fill="none" stroke="black" points="234.75,-233 141.75,-233 141.75,-197 234.75,-197 234.75,-233"/>
<text text-anchor="middle" x="188.25" y="-211.3" font-family="Times,serif" font-size="14.00">message_mod</text>
</a>
</g>
</g>
<!-- midasmpi_mod -->
<g id="node2" class="node">
<title>midasmpi_mod</title>
<g id="a_node2"><a xlink:href="../modules/midasmpi_mod.svg" xlink:title="midasmpi_mod">
<polygon fill="none" stroke="red" points="199.75,-161 98.75,-161 98.75,-125 199.75,-125 199.75,-161"/>
<text text-anchor="middle" x="149.25" y="-139.3" font-family="Times,serif" font-size="14.00">midasmpi_mod</text>
</a>
</g>
</g>
<!-- message_mod&#45;&gt;midasmpi_mod -->
<g id="edge1" class="edge">
<title>message_mod&#45;&gt;midasmpi_mod</title>
<path fill="none" stroke="black" d="M178.61,-196.7C174.12,-188.64 168.69,-178.89 163.73,-169.98"/>
<polygon fill="black" stroke="black" points="166.7,-168.14 158.78,-161.1 160.59,-171.54 166.7,-168.14"/>
</g>
<!-- utilities_mod -->
<g id="node3" class="node">
<title>utilities_mod</title>
<g id="a_node3"><a xlink:href="../modules/utilities_mod.svg" xlink:title="utilities_mod">
<polygon fill="none" stroke="red" points="272.25,-89 184.25,-89 184.25,-53 272.25,-53 272.25,-89"/>
<text text-anchor="middle" x="228.25" y="-67.3" font-family="Times,serif" font-size="14.00">utilities_mod</text>
</a>
</g>
</g>
<!-- message_mod&#45;&gt;utilities_mod -->
<g id="edge2" class="edge">
<title>message_mod&#45;&gt;utilities_mod</title>
<path fill="none" stroke="black" d="M196,-196.59C200.33,-186.38 205.58,-173.13 209.25,-161 215.42,-140.62 220.36,-117.02 223.65,-99.25"/>
<polygon fill="black" stroke="black" points="227.12,-99.74 225.44,-89.28 220.23,-98.5 227.12,-99.74"/>
</g>
</g>
</svg>
