<?xml version="1.0" encoding="UTF-8" standalone="no"?>
<!DOCTYPE svg PUBLIC "-//W3C//DTD SVG 1.1//EN"
 "http://www.w3.org/Graphics/SVG/1.1/DTD/svg11.dtd">
<!-- Generated by graphviz version 3.0.0 (20220315.2325)
 -->
<!-- Title: message_mod Pages: 1 -->
<svg width="701pt" height="673pt"
 viewBox="0.00 0.00 701.00 673.00" xmlns="http://www.w3.org/2000/svg" xmlns:xlink="http://www.w3.org/1999/xlink">
<g id="graph0" class="graph" transform="scale(1 1) rotate(0) translate(4 669)">
<title>message_mod</title>
<polygon fill="white" stroke="transparent" points="-4,4 -4,-669 697,-669 697,4 -4,4"/>
<text text-anchor="middle" x="346.5" y="-649.8" font-family="Times,serif" font-size="14.00">Blue boxes indicate modules with reverse dependencies not shown</text>
<text text-anchor="middle" x="346.5" y="-634.8" font-family="Times,serif" font-size="14.00">Higher level reverse dependencies can be shown by clicking on a blue box</text>
<text text-anchor="middle" x="346.5" y="-619.8" font-family="Times,serif" font-size="14.00">Green boxes are programs</text>
<!-- message_mod -->
<g id="node1" class="node">
<title>message_mod</title>
<g id="a_node1"><a xlink:href="message_mod.html" xlink:title="message_mod">
<polygon fill="none" stroke="black" points="356,-36 263,-36 263,0 356,0 356,-36"/>
<text text-anchor="middle" x="309.5" y="-14.3" font-family="Times,serif" font-size="14.00">message_mod</text>
</a>
</g>
</g>
<!-- analysiserroroi_mod -->
<g id="node2" class="node">
<title>analysiserroroi_mod</title>
<g id="a_node2"><a xlink:href="../modules/analysiserroroi_mod_rev.svg" xlink:title="analysiserroroi_mod">
<polygon fill="none" stroke="blue" points="127,-108 0,-108 0,-72 127,-72 127,-108"/>
<text text-anchor="middle" x="63.5" y="-86.3" font-family="Times,serif" font-size="14.00">analysiserroroi_mod</text>
</a>
</g>
</g>
<!-- analysiserroroi_mod&#45;&gt;message_mod -->
<g id="edge1" class="edge">
<title>analysiserroroi_mod&#45;&gt;message_mod</title>
<path fill="none" stroke="black" d="M131.31,-69.7C173.16,-57.8 225.75,-42.83 262.92,-32.25"/>
<ellipse fill="black" stroke="black" cx="127.21" cy="-70.87" rx="4" ry="4"/>
</g>
<!-- bgckocean_mod -->
<g id="node3" class="node">
<title>bgckocean_mod</title>
<g id="a_node3"><a xlink:href="../modules/bgckocean_mod_rev.svg" xlink:title="bgckocean_mod">
<polygon fill="none" stroke="blue" points="186,-180 81,-180 81,-144 186,-144 186,-180"/>
<text text-anchor="middle" x="133.5" y="-158.3" font-family="Times,serif" font-size="14.00">bgckocean_mod</text>
</a>
</g>
</g>
<!-- bgckocean_mod&#45;&gt;message_mod -->
<g id="edge2" class="edge">
<title>bgckocean_mod&#45;&gt;message_mod</title>
<path fill="none" stroke="black" d="M147.4,-136.59C159.44,-117.13 178.39,-90.21 200.5,-72 218.93,-56.82 242.45,-44.68 262.91,-35.87"/>
<ellipse fill="black" stroke="black" cx="145.19" cy="-140.23" rx="4" ry="4"/>
</g>
<!-- calcheightandpressure_mod -->
<g id="node4" class="node">
<title>calcheightandpressure_mod</title>
<g id="a_node4"><a xlink:href="../modules/calcheightandpressure_mod_rev.svg" xlink:title="calcheightandpressure_mod">
<polygon fill="none" stroke="blue" points="225,-252 58,-252 58,-216 225,-216 225,-252"/>
<text text-anchor="middle" x="141.5" y="-230.3" font-family="Times,serif" font-size="14.00">calcheightandpressure_mod</text>
</a>
</g>
</g>
<!-- calcheightandpressure_mod&#45;&gt;message_mod -->
<g id="edge3" class="edge">
<title>calcheightandpressure_mod&#45;&gt;message_mod</title>
<path fill="none" stroke="black" d="M168.07,-210.47C177.31,-201.66 187.18,-191.03 194.5,-180 223.17,-136.82 206.79,-113 238.5,-72 249.6,-57.64 265.56,-45.26 279.53,-36.08"/>
<ellipse fill="black" stroke="black" cx="165.06" cy="-213.26" rx="4" ry="4"/>
</g>
<!-- gridstatevector_mod -->
<g id="node5" class="node">
<title>gridstatevector_mod</title>
<g id="a_node5"><a xlink:href="../modules/gridstatevector_mod_rev.svg" xlink:title="gridstatevector_mod">
<polygon fill="none" stroke="blue" points="262,-324 135,-324 135,-288 262,-288 262,-324"/>
<text text-anchor="middle" x="198.5" y="-302.3" font-family="Times,serif" font-size="14.00">gridstatevector_mod</text>
</a>
</g>
</g>
<!-- gridstatevector_mod&#45;&gt;message_mod -->
<g id="edge4" class="edge">
<title>gridstatevector_mod&#45;&gt;message_mod</title>
<path fill="none" stroke="black" d="M216.87,-281.06C222.89,-272.3 229.14,-262.06 233.5,-252 266.22,-176.54 244.8,-147.9 276.5,-72 281.76,-59.4 289.84,-46.36 296.69,-36.37"/>
<ellipse fill="black" stroke="black" cx="214.45" cy="-284.48" rx="4" ry="4"/>
</g>
<!-- increment_mod -->
<g id="node6" class="node">
<title>increment_mod</title>
<g id="a_node6"><a xlink:href="../modules/increment_mod_rev.svg" xlink:title="increment_mod">
<polygon fill="none" stroke="blue" points="300,-396 199,-396 199,-360 300,-360 300,-396"/>
<text text-anchor="middle" x="249.5" y="-374.3" font-family="Times,serif" font-size="14.00">increment_mod</text>
</a>
</g>
</g>
<!-- increment_mod&#45;&gt;message_mod -->
<g id="edge5" class="edge">
<title>increment_mod&#45;&gt;message_mod</title>
<path fill="none" stroke="black" d="M261.06,-352.66C273.19,-324.86 290.5,-277.69 290.5,-235 290.5,-235 290.5,-235 290.5,-161 290.5,-115.73 300.1,-63.06 305.66,-36.39"/>
<ellipse fill="black" stroke="black" cx="259.43" cy="-356.32" rx="4" ry="4"/>
</g>
<!-- innovation_mod -->
<g id="node7" class="node">
<title>innovation_mod</title>
<g id="a_node7"><a xlink:href="../modules/innovation_mod_rev.svg" xlink:title="innovation_mod">
<polygon fill="none" stroke="blue" points="338.5,-468 234.5,-468 234.5,-432 338.5,-432 338.5,-468"/>
<text text-anchor="middle" x="286.5" y="-446.3" font-family="Times,serif" font-size="14.00">innovation_mod</text>
</a>
</g>
</g>
<!-- innovation_mod&#45;&gt;message_mod -->
<g id="edge6" class="edge">
<title>innovation_mod&#45;&gt;message_mod</title>
<path fill="none" stroke="black" d="M298.34,-424.69C310.76,-396.92 328.5,-349.77 328.5,-307 328.5,-307 328.5,-307 328.5,-161 328.5,-115.73 318.9,-63.06 313.34,-36.39"/>
<ellipse fill="black" stroke="black" cx="296.66" cy="-428.36" rx="4" ry="4"/>
</g>
<!-- interpolation_mod -->
<g id="node8" class="node">
<title>interpolation_mod</title>
<g id="a_node8"><a xlink:href="../modules/interpolation_mod_rev.svg" xlink:title="interpolation_mod">
<polygon fill="none" stroke="blue" points="376.5,-540 260.5,-540 260.5,-504 376.5,-504 376.5,-540"/>
<text text-anchor="middle" x="318.5" y="-518.3" font-family="Times,serif" font-size="14.00">interpolation_mod</text>
</a>
</g>
</g>
<!-- interpolation_mod&#45;&gt;message_mod -->
<g id="edge7" class="edge">
<title>interpolation_mod&#45;&gt;message_mod</title>
<path fill="none" stroke="black" d="M333.62,-496.9C338.63,-488.07 343.85,-477.83 347.5,-468 361.58,-430.08 366.5,-419.45 366.5,-379 366.5,-379 366.5,-379 366.5,-161 366.5,-112.92 338.01,-61.84 321.31,-36.04"/>
<ellipse fill="black" stroke="black" cx="331.52" cy="-500.49" rx="4" ry="4"/>
</g>
<!-- physicsfunctions_mod -->
<g id="node9" class="node">
<title>physicsfunctions_mod</title>
<g id="a_node9"><a xlink:href="../modules/physicsfunctions_mod_rev.svg" xlink:title="physicsfunctions_mod">
<polygon fill="none" stroke="blue" points="473.5,-612 335.5,-612 335.5,-576 473.5,-576 473.5,-612"/>
<text text-anchor="middle" x="404.5" y="-590.3" font-family="Times,serif" font-size="14.00">physicsfunctions_mod</text>
</a>
</g>
</g>
<!-- physicsfunctions_mod&#45;&gt;message_mod -->
<g id="edge8" class="edge">
<title>physicsfunctions_mod&#45;&gt;message_mod</title>
<path fill="none" stroke="black" d="M404.5,-567.78C404.5,-539.39 404.5,-491.89 404.5,-451 404.5,-451 404.5,-451 404.5,-161 404.5,-108.5 359.09,-60.72 331.06,-36.22"/>
<ellipse fill="black" stroke="black" cx="404.5" cy="-571.95" rx="4" ry="4"/>
</g>
<!-- midas_midas_analysiserroroi -->
<g id="node10" class="node">
<title>midas_midas_analysiserroroi</title>
<g id="a_node10"><a xlink:href="../programs/midas_analysiserroroi.html" xlink:title="midas_midas_analysiserroroi">
<polygon fill="gray" stroke="green" points="608.5,-108 432.5,-108 432.5,-72 608.5,-72 608.5,-108"/>
<text text-anchor="middle" x="520.5" y="-86.3" font-family="Times,serif" font-size="14.00">midas_midas_analysiserroroi</text>
</a>
</g>
</g>
<!-- midas_midas_analysiserroroi&#45;&gt;message_mod -->
<g id="edge9" class="edge">
<title>midas_midas_analysiserroroi&#45;&gt;message_mod</title>
<path fill="none" stroke="black" d="M461.3,-69.36C428,-58.31 387.01,-44.71 356.03,-34.44"/>
<ellipse fill="black" stroke="black" cx="465.36" cy="-70.71" rx="4" ry="4"/>
</g>
<!-- midas_midas_var -->
<g id="node11" class="node">
<title>midas_midas_var</title>
<g id="a_node11"><a xlink:href="../programs/midas_var.html" xlink:title="midas_midas_var">
<polygon fill="gray" stroke="green" points="693,-180 580,-180 580,-144 693,-144 693,-180"/>
<text text-anchor="middle" x="636.5" y="-158.3" font-family="Times,serif" font-size="14.00">midas_midas_var</text>
</a>
</g>
</g>
<!-- midas_midas_var&#45;&gt;message_mod -->
<g id="edge10" class="edge">
<title>midas_midas_var&#45;&gt;message_mod</title>
<path fill="none" stroke="black" d="M638.21,-135.8C638.11,-115.69 634.45,-88.28 617.5,-72 580.87,-36.8 433.04,-24.74 356.28,-20.8"/>
<ellipse fill="black" stroke="black" cx="638.14" cy="-139.92" rx="4" ry="4"/>
</g>
</g>
</svg>
