<?xml version="1.0" encoding="UTF-8" standalone="no"?>
<!DOCTYPE svg PUBLIC "-//W3C//DTD SVG 1.1//EN"
 "http://www.w3.org/Graphics/SVG/1.1/DTD/svg11.dtd">
<!-- Generated by graphviz version 3.0.0 (20220315.2325)
 -->
<!-- Title: minimization_mod Pages: 1 -->
<svg width="1310pt" height="673pt"
 viewBox="0.00 0.00 1309.50 673.00" xmlns="http://www.w3.org/2000/svg" xmlns:xlink="http://www.w3.org/1999/xlink">
<g id="graph0" class="graph" transform="scale(1 1) rotate(0) translate(4 669)">
<title>minimization_mod</title>
<polygon fill="white" stroke="transparent" points="-4,4 -4,-669 1305.5,-669 1305.5,4 -4,4"/>
<text text-anchor="middle" x="650.75" y="-37.8" font-family="Times,serif" font-size="14.00">Red boxes indicate modules with dependencies not shown</text>
<text text-anchor="middle" x="650.75" y="-22.8" font-family="Times,serif" font-size="14.00">Lower level dependencies can be shown by clicking on a red box</text>
<text text-anchor="middle" x="650.75" y="-7.8" font-family="Times,serif" font-size="14.00">Shaded boxes indicate modules with no dependencies</text>
<!-- minimization_mod -->
<g id="node1" class="node">
<title>minimization_mod</title>
<g id="a_node1"><a xlink:href="minimization_mod.html" xlink:title="minimization_mod">
<polygon fill="none" stroke="black" points="769,-665 648,-665 648,-629 769,-629 769,-665"/>
<text text-anchor="middle" x="708.5" y="-643.3" font-family="Times,serif" font-size="14.00">minimization_mod</text>
</a>
</g>
</g>
<!-- biascorrectionsat_mod -->
<g id="node2" class="node">
<title>biascorrectionsat_mod</title>
<g id="a_node2"><a xlink:href="../modules/biascorrectionsat_mod.svg" xlink:title="biascorrectionsat_mod">
<polygon fill="none" stroke="red" points="139,-593 0,-593 0,-557 139,-557 139,-593"/>
<text text-anchor="middle" x="69.5" y="-571.3" font-family="Times,serif" font-size="14.00">biascorrectionsat_mod</text>
</a>
</g>
</g>
<!-- minimization_mod&#45;&gt;biascorrectionsat_mod -->
<g id="edge1" class="edge">
<title>minimization_mod&#45;&gt;biascorrectionsat_mod</title>
<path fill="none" stroke="black" d="M647.89,-642.29C545.58,-635.57 332.3,-619.56 153.5,-593 152.03,-592.78 150.54,-592.55 149.05,-592.32"/>
<polygon fill="black" stroke="black" points="149.51,-588.85 139.07,-590.66 148.37,-595.75 149.51,-588.85"/>
</g>
<!-- bmatrix1dvar_mod -->
<g id="node3" class="node">
<title>bmatrix1dvar_mod</title>
<g id="a_node3"><a xlink:href="../modules/bmatrix1dvar_mod.svg" xlink:title="bmatrix1dvar_mod">
<polygon fill="none" stroke="red" points="202,-521 83,-521 83,-485 202,-485 202,-521"/>
<text text-anchor="middle" x="142.5" y="-499.3" font-family="Times,serif" font-size="14.00">bmatrix1dvar_mod</text>
</a>
</g>
</g>
<!-- minimization_mod&#45;&gt;bmatrix1dvar_mod -->
<g id="edge2" class="edge">
<title>minimization_mod&#45;&gt;bmatrix1dvar_mod</title>
<path fill="none" stroke="black" d="M647.94,-645.09C533.36,-642.46 289.75,-632.28 216.5,-593 189.97,-578.77 169.14,-550.71 156.44,-529.89"/>
<polygon fill="black" stroke="black" points="159.41,-528.04 151.33,-521.18 153.37,-531.58 159.41,-528.04"/>
</g>
<!-- bmatrix_mod -->
<g id="node4" class="node">
<title>bmatrix_mod</title>
<g id="a_node4"><a xlink:href="../modules/bmatrix_mod.svg" xlink:title="bmatrix_mod">
<polygon fill="none" stroke="red" points="240,-449 151,-449 151,-413 240,-413 240,-449"/>
<text text-anchor="middle" x="195.5" y="-427.3" font-family="Times,serif" font-size="14.00">bmatrix_mod</text>
</a>
</g>
</g>
<!-- minimization_mod&#45;&gt;bmatrix_mod -->
<g id="edge3" class="edge">
<title>minimization_mod&#45;&gt;bmatrix_mod</title>
<path fill="none" stroke="black" d="M647.92,-646.56C538.61,-646.37 314.16,-640.06 254.5,-593 243.57,-584.38 217.13,-502.44 203.66,-458.9"/>
<polygon fill="black" stroke="black" points="206.98,-457.76 200.69,-449.23 200.28,-459.81 206.98,-457.76"/>
</g>
<!-- codeprecision_mod -->
<g id="node5" class="node">
<title>codeprecision_mod</title>
<g id="a_node5"><a xlink:href="codeprecision_mod.html" xlink:title="codeprecision_mod">
<polygon fill="gray" stroke="black" points="278.5,-377 156.5,-377 156.5,-341 278.5,-341 278.5,-377"/>
<text text-anchor="middle" x="217.5" y="-355.3" font-family="Times,serif" font-size="14.00">codeprecision_mod</text>
</a>
</g>
</g>
<!-- minimization_mod&#45;&gt;codeprecision_mod -->
<g id="edge4" class="edge">
<title>minimization_mod&#45;&gt;codeprecision_mod</title>
<path fill="none" stroke="black" d="M647.66,-646.42C545.04,-645.84 343.68,-638.7 292.5,-593 231.07,-538.15 279.39,-489.34 248.5,-413 244.74,-403.71 239.56,-394.1 234.52,-385.65"/>
<polygon fill="black" stroke="black" points="237.4,-383.67 229.16,-377.01 231.45,-387.36 237.4,-383.67"/>
</g>
<!-- columndata_mod -->
<g id="node6" class="node">
<title>columndata_mod</title>
<g id="a_node6"><a xlink:href="../modules/columndata_mod.svg" xlink:title="columndata_mod">
<polygon fill="none" stroke="red" points="316,-305 205,-305 205,-269 316,-269 316,-305"/>
<text text-anchor="middle" x="260.5" y="-283.3" font-family="Times,serif" font-size="14.00">columndata_mod</text>
</a>
</g>
</g>
<!-- minimization_mod&#45;&gt;columndata_mod -->
<g id="edge5" class="edge">
<title>minimization_mod&#45;&gt;columndata_mod</title>
<path fill="none" stroke="black" d="M647.62,-645.38C552.91,-643.16 376.39,-633.52 330.5,-593 299.79,-565.88 306.5,-544.97 306.5,-504 306.5,-504 306.5,-504 306.5,-430 306.5,-389.55 301.02,-379.12 287.5,-341 284.29,-331.95 279.85,-322.48 275.5,-314.09"/>
<polygon fill="black" stroke="black" points="278.51,-312.3 270.69,-305.16 272.35,-315.62 278.51,-312.3"/>
</g>
<!-- columnvariabletransforms_mod -->
<g id="node7" class="node">
<title>columnvariabletransforms_mod</title>
<g id="a_node7"><a xlink:href="../modules/columnvariabletransforms_mod.svg" xlink:title="columnvariabletransforms_mod">
<polygon fill="none" stroke="red" points="354,-233 165,-233 165,-197 354,-197 354,-233"/>
<text text-anchor="middle" x="259.5" y="-211.3" font-family="Times,serif" font-size="14.00">columnvariabletransforms_mod</text>
</a>
</g>
</g>
<!-- minimization_mod&#45;&gt;columnvariabletransforms_mod -->
<g id="edge6" class="edge">
<title>minimization_mod&#45;&gt;columnvariabletransforms_mod</title>
<path fill="none" stroke="black" d="M647.7,-644.28C561.2,-640.58 408.64,-629 368.5,-593 338,-565.65 344.5,-544.97 344.5,-504 344.5,-504 344.5,-504 344.5,-358 344.5,-317.46 345.83,-303.48 324.5,-269 317.43,-257.57 307,-247.49 296.57,-239.27"/>
<polygon fill="black" stroke="black" points="298.37,-236.25 288.25,-233.09 294.19,-241.87 298.37,-236.25"/>
</g>
<!-- controlvector_mod -->
<g id="node8" class="node">
<title>controlvector_mod</title>
<g id="a_node8"><a xlink:href="../modules/controlvector_mod.svg" xlink:title="controlvector_mod">
<polygon fill="none" stroke="red" points="392.5,-161 274.5,-161 274.5,-125 392.5,-125 392.5,-161"/>
<text text-anchor="middle" x="333.5" y="-139.3" font-family="Times,serif" font-size="14.00">controlvector_mod</text>
</a>
</g>
</g>
<!-- minimization_mod&#45;&gt;controlvector_mod -->
<g id="edge7" class="edge">
<title>minimization_mod&#45;&gt;controlvector_mod</title>
<path fill="none" stroke="black" d="M647.92,-642.92C570.11,-637.73 440.98,-624.52 406.5,-593 376.26,-565.36 382.5,-544.97 382.5,-504 382.5,-504 382.5,-504 382.5,-286 382.5,-245.46 376.81,-234.93 362.5,-197 359.06,-187.87 354.29,-178.38 349.61,-170"/>
<polygon fill="black" stroke="black" points="352.49,-167.98 344.44,-161.08 346.43,-171.49 352.49,-167.98"/>
</g>
<!-- costfunction_mod -->
<g id="node9" class="node">
<title>costfunction_mod</title>
<g id="a_node9"><a xlink:href="../modules/costfunction_mod.svg" xlink:title="costfunction_mod">
<polygon fill="none" stroke="red" points="477.5,-89 363.5,-89 363.5,-53 477.5,-53 477.5,-89"/>
<text text-anchor="middle" x="420.5" y="-67.3" font-family="Times,serif" font-size="14.00">costfunction_mod</text>
</a>
</g>
</g>
<!-- minimization_mod&#45;&gt;costfunction_mod -->
<g id="edge8" class="edge">
<title>minimization_mod&#45;&gt;costfunction_mod</title>
<path fill="none" stroke="black" d="M647.89,-641.71C577.82,-635.48 468.38,-621.42 439.5,-593 410.67,-564.63 420.5,-544.45 420.5,-504 420.5,-504 420.5,-504 420.5,-214 420.5,-174 420.5,-127.65 420.5,-99.08"/>
<polygon fill="black" stroke="black" points="424,-99.05 420.5,-89.05 417,-99.05 424,-99.05"/>
</g>
<!-- gridstatevectorfileio_mod -->
<g id="node10" class="node">
<title>gridstatevectorfileio_mod</title>
<g id="a_node10"><a xlink:href="../modules/gridstatevectorfileio_mod.svg" xlink:title="gridstatevectorfileio_mod">
<polygon fill="none" stroke="red" points="604,-593 449,-593 449,-557 604,-557 604,-593"/>
<text text-anchor="middle" x="526.5" y="-571.3" font-family="Times,serif" font-size="14.00">gridstatevectorfileio_mod</text>
</a>
</g>
</g>
<!-- minimization_mod&#45;&gt;gridstatevectorfileio_mod -->
<g id="edge9" class="edge">
<title>minimization_mod&#45;&gt;gridstatevectorfileio_mod</title>
<path fill="none" stroke="black" d="M663.98,-628.88C638.77,-619.18 607.05,-606.98 580.43,-596.74"/>
<polygon fill="black" stroke="black" points="581.47,-593.39 570.88,-593.07 578.95,-599.92 581.47,-593.39"/>
</g>
<!-- gridstatevector_mod -->
<g id="node11" class="node">
<title>gridstatevector_mod</title>
<g id="a_node11"><a xlink:href="../modules/gridstatevector_mod.svg" xlink:title="gridstatevector_mod">
<polygon fill="none" stroke="red" points="642,-521 515,-521 515,-485 642,-485 642,-521"/>
<text text-anchor="middle" x="578.5" y="-499.3" font-family="Times,serif" font-size="14.00">gridstatevector_mod</text>
</a>
</g>
</g>
<!-- minimization_mod&#45;&gt;gridstatevector_mod -->
<g id="edge10" class="edge">
<title>minimization_mod&#45;&gt;gridstatevector_mod</title>
<path fill="none" stroke="black" d="M690.91,-628.57C680.72,-618.35 667.72,-605.1 656.5,-593 636.87,-571.84 615.3,-547.1 599.82,-529.08"/>
<polygon fill="black" stroke="black" points="602.33,-526.63 593.17,-521.32 597.02,-531.19 602.33,-526.63"/>
</g>
<!-- horizontalcoord_mod -->
<g id="node12" class="node">
<title>horizontalcoord_mod</title>
<g id="a_node12"><a xlink:href="../modules/horizontalcoord_mod.svg" xlink:title="horizontalcoord_mod">
<polygon fill="none" stroke="red" points="680,-449 547,-449 547,-413 680,-413 680,-449"/>
<text text-anchor="middle" x="613.5" y="-427.3" font-family="Times,serif" font-size="14.00">horizontalcoord_mod</text>
</a>
</g>
</g>
<!-- minimization_mod&#45;&gt;horizontalcoord_mod -->
<g id="edge11" class="edge">
<title>minimization_mod&#45;&gt;horizontalcoord_mod</title>
<path fill="none" stroke="black" d="M703.96,-628.94C695.62,-598.86 676.31,-534.87 650.5,-485 645.68,-475.68 639.44,-466.1 633.47,-457.69"/>
<polygon fill="black" stroke="black" points="636.14,-455.41 627.41,-449.41 630.49,-459.54 636.14,-455.41"/>
</g>
<!-- midasmpi_mod -->
<g id="node13" class="node">
<title>midasmpi_mod</title>
<g id="a_node13"><a xlink:href="../modules/midasmpi_mod.svg" xlink:title="midasmpi_mod">
<polygon fill="none" stroke="red" points="718,-377 617,-377 617,-341 718,-341 718,-377"/>
<text text-anchor="middle" x="667.5" y="-355.3" font-family="Times,serif" font-size="14.00">midasmpi_mod</text>
</a>
</g>
</g>
<!-- minimization_mod&#45;&gt;midasmpi_mod -->
<g id="edge12" class="edge">
<title>minimization_mod&#45;&gt;midasmpi_mod</title>
<path fill="none" stroke="black" d="M708.72,-628.78C708.86,-589.79 707.13,-492.04 688.5,-413 686.41,-404.14 683.11,-394.8 679.74,-386.47"/>
<polygon fill="black" stroke="black" points="682.95,-385.08 675.82,-377.25 676.51,-387.82 682.95,-385.08"/>
</g>
<!-- obsoperators_mod -->
<g id="node14" class="node">
<title>obsoperators_mod</title>
<g id="a_node14"><a xlink:href="../modules/obsoperators_mod.svg" xlink:title="obsoperators_mod">
<polygon fill="none" stroke="red" points="756.5,-305 640.5,-305 640.5,-269 756.5,-269 756.5,-305"/>
<text text-anchor="middle" x="698.5" y="-283.3" font-family="Times,serif" font-size="14.00">obsoperators_mod</text>
</a>
</g>
</g>
<!-- minimization_mod&#45;&gt;obsoperators_mod -->
<g id="edge13" class="edge">
<title>minimization_mod&#45;&gt;obsoperators_mod</title>
<path fill="none" stroke="black" d="M716.19,-628.91C727.29,-602.62 746.5,-550.45 746.5,-504 746.5,-504 746.5,-504 746.5,-430 746.5,-389.46 740.54,-379.03 726.5,-341 723.15,-331.92 718.54,-322.44 714.02,-314.06"/>
<polygon fill="black" stroke="black" points="716.97,-312.15 709.04,-305.13 710.86,-315.57 716.97,-312.15"/>
</g>
<!-- obsspacedata_mod -->
<g id="node15" class="node">
<title>obsspacedata_mod</title>
<g id="a_node15"><a xlink:href="../modules/obsspacedata_mod.svg" xlink:title="obsspacedata_mod">
<polygon fill="none" stroke="red" points="794.5,-233 676.5,-233 676.5,-197 794.5,-197 794.5,-233"/>
<text text-anchor="middle" x="735.5" y="-211.3" font-family="Times,serif" font-size="14.00">obsspacedata_mod</text>
</a>
</g>
</g>
<!-- minimization_mod&#45;&gt;obsspacedata_mod -->
<g id="edge14" class="edge">
<title>minimization_mod&#45;&gt;obsspacedata_mod</title>
<path fill="none" stroke="black" d="M724.99,-628.77C747.34,-603.53 784.5,-554.05 784.5,-504 784.5,-504 784.5,-504 784.5,-358 784.5,-317.55 779.85,-306.82 765.5,-269 761.97,-259.71 756.99,-250.09 752.1,-241.65"/>
<polygon fill="black" stroke="black" points="755.06,-239.77 746.9,-233.01 749.06,-243.38 755.06,-239.77"/>
</g>
<!-- obstimeinterp_mod -->
<g id="node16" class="node">
<title>obstimeinterp_mod</title>
<g id="a_node16"><a xlink:href="../modules/obstimeinterp_mod.svg" xlink:title="obstimeinterp_mod">
<polygon fill="none" stroke="red" points="832.5,-161 710.5,-161 710.5,-125 832.5,-125 832.5,-161"/>
<text text-anchor="middle" x="771.5" y="-139.3" font-family="Times,serif" font-size="14.00">obstimeinterp_mod</text>
</a>
</g>
</g>
<!-- minimization_mod&#45;&gt;obstimeinterp_mod -->
<g id="edge15" class="edge">
<title>minimization_mod&#45;&gt;obstimeinterp_mod</title>
<path fill="none" stroke="black" d="M735.52,-628.96C769.23,-605.37 822.5,-559.33 822.5,-504 822.5,-504 822.5,-504 822.5,-286 822.5,-245.55 818.38,-234.61 803.5,-197 799.84,-187.75 794.65,-178.26 789.5,-169.92"/>
<polygon fill="black" stroke="black" points="792.37,-167.9 784.02,-161.38 786.48,-171.68 792.37,-167.9"/>
</g>
<!-- quasinewton_mod -->
<g id="node17" class="node">
<title>quasinewton_mod</title>
<g id="a_node17"><a xlink:href="../modules/quasinewton_mod.svg" xlink:title="quasinewton_mod">
<polygon fill="none" stroke="red" points="918.5,-89 802.5,-89 802.5,-53 918.5,-53 918.5,-89"/>
<text text-anchor="middle" x="860.5" y="-67.3" font-family="Times,serif" font-size="14.00">quasinewton_mod</text>
</a>
</g>
</g>
<!-- minimization_mod&#45;&gt;quasinewton_mod -->
<g id="edge16" class="edge">
<title>minimization_mod&#45;&gt;quasinewton_mod</title>
<path fill="none" stroke="black" d="M749.63,-628.9C794.65,-607.12 860.5,-564.85 860.5,-504 860.5,-504 860.5,-504 860.5,-214 860.5,-174 860.5,-127.65 860.5,-99.08"/>
<polygon fill="black" stroke="black" points="864,-99.05 860.5,-89.05 857,-99.05 864,-99.05"/>
</g>
<!-- residual_mod -->
<g id="node18" class="node">
<title>residual_mod</title>
<g id="a_node18"><a xlink:href="../modules/residual_mod.svg" xlink:title="residual_mod">
<polygon fill="none" stroke="red" points="978.5,-593 888.5,-593 888.5,-557 978.5,-557 978.5,-593"/>
<text text-anchor="middle" x="933.5" y="-571.3" font-family="Times,serif" font-size="14.00">residual_mod</text>
</a>
</g>
</g>
<!-- minimization_mod&#45;&gt;residual_mod -->
<g id="edge17" class="edge">
<title>minimization_mod&#45;&gt;residual_mod</title>
<path fill="none" stroke="black" d="M763.25,-628.97C798.33,-618.05 843.68,-603.94 878.75,-593.03"/>
<polygon fill="black" stroke="black" points="879.85,-596.36 888.36,-590.04 877.77,-589.67 879.85,-596.36"/>
</g>
<!-- rmatrix_mod -->
<g id="node19" class="node">
<title>rmatrix_mod</title>
<g id="a_node19"><a xlink:href="../modules/rmatrix_mod.svg" xlink:title="rmatrix_mod">
<polygon fill="none" stroke="red" points="1016,-521 929,-521 929,-485 1016,-485 1016,-521"/>
<text text-anchor="middle" x="972.5" y="-499.3" font-family="Times,serif" font-size="14.00">rmatrix_mod</text>
</a>
</g>
</g>
<!-- minimization_mod&#45;&gt;rmatrix_mod -->
<g id="edge18" class="edge">
<title>minimization_mod&#45;&gt;rmatrix_mod</title>
<path fill="none" stroke="black" d="M769.21,-643.24C842.79,-638.47 960.34,-625.8 987.5,-593 1001.86,-575.65 995.37,-549.73 986.91,-530.33"/>
<polygon fill="black" stroke="black" points="990,-528.67 982.55,-521.13 983.67,-531.67 990,-528.67"/>
</g>
<!-- statetocolumn_mod -->
<g id="node20" class="node">
<title>statetocolumn_mod</title>
<g id="a_node20"><a xlink:href="../modules/statetocolumn_mod.svg" xlink:title="statetocolumn_mod">
<polygon fill="none" stroke="red" points="1054.5,-449 930.5,-449 930.5,-413 1054.5,-413 1054.5,-449"/>
<text text-anchor="middle" x="992.5" y="-427.3" font-family="Times,serif" font-size="14.00">statetocolumn_mod</text>
</a>
</g>
</g>
<!-- minimization_mod&#45;&gt;statetocolumn_mod -->
<g id="edge19" class="edge">
<title>minimization_mod&#45;&gt;statetocolumn_mod</title>
<path fill="none" stroke="black" d="M769.03,-642.86C845.97,-637.62 972.89,-624.37 1006.5,-593 1042.08,-559.8 1037.55,-531.88 1024.5,-485 1021.83,-475.42 1016.91,-465.84 1011.72,-457.51"/>
<polygon fill="black" stroke="black" points="1014.52,-455.41 1006.06,-449.03 1008.7,-459.29 1014.52,-455.41"/>
</g>
<!-- timecoord_mod -->
<g id="node21" class="node">
<title>timecoord_mod</title>
<g id="a_node21"><a xlink:href="../modules/timecoord_mod.svg" xlink:title="timecoord_mod">
<polygon fill="none" stroke="red" points="1092.5,-377 990.5,-377 990.5,-341 1092.5,-341 1092.5,-377"/>
<text text-anchor="middle" x="1041.5" y="-355.3" font-family="Times,serif" font-size="14.00">timecoord_mod</text>
</a>
</g>
</g>
<!-- minimization_mod&#45;&gt;timecoord_mod -->
<g id="edge20" class="edge">
<title>minimization_mod&#45;&gt;timecoord_mod</title>
<path fill="none" stroke="black" d="M769.34,-644.09C852.77,-640.16 996.59,-628.33 1033.5,-593 1092.09,-536.92 1079.35,-492.54 1063.5,-413 1061.71,-404.01 1058.36,-394.64 1054.81,-386.32"/>
<polygon fill="black" stroke="black" points="1057.96,-384.77 1050.63,-377.12 1051.58,-387.67 1057.96,-384.77"/>
</g>
<!-- utilities_mod -->
<g id="node22" class="node">
<title>utilities_mod</title>
<g id="a_node22"><a xlink:href="../modules/utilities_mod.svg" xlink:title="utilities_mod">
<polygon fill="none" stroke="red" points="1147.5,-305 1059.5,-305 1059.5,-269 1147.5,-269 1147.5,-305"/>
<text text-anchor="middle" x="1103.5" y="-283.3" font-family="Times,serif" font-size="14.00">utilities_mod</text>
</a>
</g>
</g>
<!-- minimization_mod&#45;&gt;utilities_mod -->
<g id="edge21" class="edge">
<title>minimization_mod&#45;&gt;utilities_mod</title>
<path fill="none" stroke="black" d="M769.3,-642.87C857.38,-637.34 1015.11,-623.43 1062.5,-593 1102.23,-567.49 1120.5,-551.21 1120.5,-504 1120.5,-504 1120.5,-504 1120.5,-430 1120.5,-389.93 1113.74,-343.95 1108.75,-315.43"/>
<polygon fill="black" stroke="black" points="1112.16,-314.63 1106.94,-305.41 1105.27,-315.87 1112.16,-314.63"/>
</g>
<!-- varqc_mod -->
<g id="node23" class="node">
<title>varqc_mod</title>
<g id="a_node23"><a xlink:href="../modules/varqc_mod.svg" xlink:title="varqc_mod">
<polygon fill="none" stroke="red" points="1214,-233 1137,-233 1137,-197 1214,-197 1214,-233"/>
<text text-anchor="middle" x="1175.5" y="-211.3" font-family="Times,serif" font-size="14.00">varqc_mod</text>
</a>
</g>
</g>
<!-- minimization_mod&#45;&gt;varqc_mod -->
<g id="edge22" class="edge">
<title>minimization_mod&#45;&gt;varqc_mod</title>
<path fill="none" stroke="black" d="M769.03,-642.98C864,-637.37 1042.92,-623.1 1098.5,-593 1144.49,-568.09 1175.5,-556.3 1175.5,-504 1175.5,-504 1175.5,-504 1175.5,-358 1175.5,-318 1175.5,-271.65 1175.5,-243.08"/>
<polygon fill="black" stroke="black" points="1179,-243.05 1175.5,-233.05 1172,-243.05 1179,-243.05"/>
</g>
<!-- verticalcoord_mod -->
<g id="node24" class="node">
<title>verticalcoord_mod</title>
<g id="a_node24"><a xlink:href="../modules/verticalcoord_mod.svg" xlink:title="verticalcoord_mod">
<polygon fill="none" stroke="red" points="1301.5,-161 1183.5,-161 1183.5,-125 1301.5,-125 1301.5,-161"/>
<text text-anchor="middle" x="1242.5" y="-139.3" font-family="Times,serif" font-size="14.00">verticalcoord_mod</text>
</a>
</g>
</g>
<!-- minimization_mod&#45;&gt;verticalcoord_mod -->
<g id="edge23" class="edge">
<title>minimization_mod&#45;&gt;verticalcoord_mod</title>
<path fill="none" stroke="black" d="M769.35,-642.99C872.4,-637.16 1076.38,-622.24 1141.5,-593 1196.08,-568.49 1242.5,-563.83 1242.5,-504 1242.5,-504 1242.5,-504 1242.5,-286 1242.5,-246 1242.5,-199.65 1242.5,-171.08"/>
<polygon fill="black" stroke="black" points="1246,-171.05 1242.5,-161.05 1239,-171.05 1246,-171.05"/>
</g>
</g>
</svg>
