<?xml version="1.0" encoding="UTF-8" standalone="no"?>
<!DOCTYPE svg PUBLIC "-//W3C//DTD SVG 1.1//EN"
 "http://www.w3.org/Graphics/SVG/1.1/DTD/svg11.dtd">
<!-- Generated by graphviz version 3.0.0 (20220315.2325)
 -->
<!-- Title: multi_ir_bgck_mod Pages: 1 -->
<svg width="430pt" height="241pt"
 viewBox="0.00 0.00 430.00 241.00" xmlns="http://www.w3.org/2000/svg" xmlns:xlink="http://www.w3.org/1999/xlink">
<g id="graph0" class="graph" transform="scale(1 1) rotate(0) translate(4 237)">
<title>multi_ir_bgck_mod</title>
<polygon fill="white" stroke="transparent" points="-4,4 -4,-237 426,-237 426,4 -4,4"/>
<text text-anchor="middle" x="211" y="-217.8" font-family="Times,serif" font-size="14.00">Blue boxes indicate modules with reverse dependencies not shown</text>
<text text-anchor="middle" x="211" y="-202.8" font-family="Times,serif" font-size="14.00">Higher level reverse dependencies can be shown by clicking on a blue box</text>
<text text-anchor="middle" x="211" y="-187.8" font-family="Times,serif" font-size="14.00">Green boxes are programs</text>
<!-- multi_ir_bgck_mod -->
<g id="node1" class="node">
<title>multi_ir_bgck_mod</title>
<g id="a_node1"><a xlink:href="multi_ir_bgck_mod.html" xlink:title="multi_ir_bgck_mod">
<polygon fill="none" stroke="black" points="258.75,-36 133.75,-36 133.75,0 258.75,0 258.75,-36"/>
<text text-anchor="middle" x="196.25" y="-14.3" font-family="Times,serif" font-size="14.00">multi_ir_bgck_mod</text>
</a>
</g>
</g>
<!-- innovation_mod -->
<g id="node2" class="node">
<title>innovation_mod</title>
<g id="a_node2"><a xlink:href="../modules/innovation_mod_rev.svg" xlink:title="innovation_mod">
<polygon fill="none" stroke="blue" points="208.25,-108 104.25,-108 104.25,-72 208.25,-72 208.25,-108"/>
<text text-anchor="middle" x="156.25" y="-86.3" font-family="Times,serif" font-size="14.00">innovation_mod</text>
</a>
</g>
</g>
<!-- innovation_mod&#45;&gt;multi_ir_bgck_mod -->
<g id="edge1" class="edge">
<title>innovation_mod&#45;&gt;multi_ir_bgck_mod</title>
<path fill="none" stroke="black" d="M170.26,-64.48C175.62,-55.11 181.6,-44.64 186.48,-36.1"/>
<ellipse fill="black" stroke="black" cx="168.12" cy="-68.22" rx="4" ry="4"/>
</g>
<!-- midas_midas_obsselection -->
<g id="node3" class="node">
<title>midas_midas_obsselection</title>
<g id="a_node3"><a xlink:href="../programs/midas_obsselection.html" xlink:title="midas_midas_obsselection">
<polygon fill="gray" stroke="green" points="317.75,-180 154.75,-180 154.75,-144 317.75,-144 317.75,-180"/>
<text text-anchor="middle" x="236.25" y="-158.3" font-family="Times,serif" font-size="14.00">midas_midas_obsselection</text>
</a>
</g>
</g>
<!-- midas_midas_obsselection&#45;&gt;multi_ir_bgck_mod -->
<g id="edge2" class="edge">
<title>midas_midas_obsselection&#45;&gt;multi_ir_bgck_mod</title>
<path fill="none" stroke="black" d="M231.97,-135.48C228.68,-117.53 223.62,-93.05 217.25,-72 213.58,-59.87 208.33,-46.62 204,-36.41"/>
<ellipse fill="black" stroke="black" cx="232.74" cy="-139.78" rx="4" ry="4"/>
</g>
</g>
</svg>
