<?xml version="1.0" encoding="UTF-8" standalone="no"?>
<!DOCTYPE svg PUBLIC "-//W3C//DTD SVG 1.1//EN"
 "http://www.w3.org/Graphics/SVG/1.1/DTD/svg11.dtd">
<!-- Generated by graphviz version 3.0.0 (20220315.2325)
 -->
<!-- Title: multi_ir_bgck_mod Pages: 1 -->
<svg width="476pt" height="601pt"
 viewBox="0.00 0.00 475.50 601.00" xmlns="http://www.w3.org/2000/svg" xmlns:xlink="http://www.w3.org/1999/xlink">
<g id="graph0" class="graph" transform="scale(1 1) rotate(0) translate(4 597)">
<title>multi_ir_bgck_mod</title>
<polygon fill="white" stroke="transparent" points="-4,4 -4,-597 471.5,-597 471.5,4 -4,4"/>
<text text-anchor="middle" x="233.75" y="-37.8" font-family="Times,serif" font-size="14.00">Red boxes indicate modules with dependencies not shown</text>
<text text-anchor="middle" x="233.75" y="-22.8" font-family="Times,serif" font-size="14.00">Lower level dependencies can be shown by clicking on a red box</text>
<text text-anchor="middle" x="233.75" y="-7.8" font-family="Times,serif" font-size="14.00">Shaded boxes indicate modules with no dependencies</text>
<!-- multi_ir_bgck_mod -->
<g id="node1" class="node">
<title>multi_ir_bgck_mod</title>
<g id="a_node1"><a xlink:href="multi_ir_bgck_mod.html" xlink:title="multi_ir_bgck_mod">
<polygon fill="none" stroke="black" points="310,-593 185,-593 185,-557 310,-557 310,-593"/>
<text text-anchor="middle" x="247.5" y="-571.3" font-family="Times,serif" font-size="14.00">multi_ir_bgck_mod</text>
</a>
</g>
</g>
<!-- columndata_mod -->
<g id="node2" class="node">
<title>columndata_mod</title>
<g id="a_node2"><a xlink:href="../modules/columndata_mod.svg" xlink:title="columndata_mod">
<polygon fill="none" stroke="red" points="111,-521 0,-521 0,-485 111,-485 111,-521"/>
<text text-anchor="middle" x="55.5" y="-499.3" font-family="Times,serif" font-size="14.00">columndata_mod</text>
</a>
</g>
</g>
<!-- multi_ir_bgck_mod&#45;&gt;columndata_mod -->
<g id="edge1" class="edge">
<title>multi_ir_bgck_mod&#45;&gt;columndata_mod</title>
<path fill="none" stroke="black" d="M200.53,-556.88C173.82,-547.14 140.18,-534.87 112.03,-524.61"/>
<polygon fill="black" stroke="black" points="112.91,-521.21 102.32,-521.07 110.51,-527.78 112.91,-521.21"/>
</g>
<!-- mathphysconstants_mod -->
<g id="node3" class="node">
<title>mathphysconstants_mod</title>
<g id="a_node3"><a xlink:href="mathphysconstants_mod.html" xlink:title="mathphysconstants_mod">
<polygon fill="gray" stroke="black" points="181.5,-449 31.5,-449 31.5,-413 181.5,-413 181.5,-449"/>
<text text-anchor="middle" x="106.5" y="-427.3" font-family="Times,serif" font-size="14.00">mathphysconstants_mod</text>
</a>
</g>
</g>
<!-- multi_ir_bgck_mod&#45;&gt;mathphysconstants_mod -->
<g id="edge2" class="edge">
<title>multi_ir_bgck_mod&#45;&gt;mathphysconstants_mod</title>
<path fill="none" stroke="black" d="M230.49,-556.87C205.61,-531.82 159.18,-485.05 130.73,-456.41"/>
<polygon fill="black" stroke="black" points="133.1,-453.82 123.57,-449.19 128.13,-458.75 133.1,-453.82"/>
</g>
<!-- midasmpi_mod -->
<g id="node4" class="node">
<title>midasmpi_mod</title>
<g id="a_node4"><a xlink:href="../modules/midasmpi_mod.svg" xlink:title="midasmpi_mod">
<polygon fill="none" stroke="red" points="219,-377 118,-377 118,-341 219,-341 219,-377"/>
<text text-anchor="middle" x="168.5" y="-355.3" font-family="Times,serif" font-size="14.00">midasmpi_mod</text>
</a>
</g>
</g>
<!-- multi_ir_bgck_mod&#45;&gt;midasmpi_mod -->
<g id="edge3" class="edge">
<title>multi_ir_bgck_mod&#45;&gt;midasmpi_mod</title>
<path fill="none" stroke="black" d="M241.8,-556.97C231.86,-527.47 210.49,-465.04 190.5,-413 187.16,-404.31 183.33,-394.9 179.81,-386.46"/>
<polygon fill="black" stroke="black" points="182.97,-384.95 175.87,-377.09 176.52,-387.67 182.97,-384.95"/>
</g>
<!-- obsspacedata_mod -->
<g id="node5" class="node">
<title>obsspacedata_mod</title>
<g id="a_node5"><a xlink:href="../modules/obsspacedata_mod.svg" xlink:title="obsspacedata_mod">
<polygon fill="none" stroke="red" points="257.5,-305 139.5,-305 139.5,-269 257.5,-269 257.5,-305"/>
<text text-anchor="middle" x="198.5" y="-283.3" font-family="Times,serif" font-size="14.00">obsspacedata_mod</text>
</a>
</g>
</g>
<!-- multi_ir_bgck_mod&#45;&gt;obsspacedata_mod -->
<g id="edge4" class="edge">
<title>multi_ir_bgck_mod&#45;&gt;obsspacedata_mod</title>
<path fill="none" stroke="black" d="M248.4,-556.88C249.97,-517.71 251.02,-418.93 227.5,-341 224.73,-331.81 220.23,-322.41 215.59,-314.13"/>
<polygon fill="black" stroke="black" points="218.49,-312.16 210.39,-305.33 212.46,-315.72 218.49,-312.16"/>
</g>
<!-- rttov_interfaces_mod -->
<g id="node6" class="node">
<title>rttov_interfaces_mod</title>
<g id="a_node6"><a xlink:href="rttov_interfaces_mod.html" xlink:title="rttov_interfaces_mod">
<polygon fill="gray" stroke="black" points="323.5,-233 191.5,-233 191.5,-197 323.5,-197 323.5,-233"/>
<text text-anchor="middle" x="257.5" y="-211.3" font-family="Times,serif" font-size="14.00">rttov_interfaces_mod</text>
</a>
</g>
</g>
<!-- multi_ir_bgck_mod&#45;&gt;rttov_interfaces_mod -->
<g id="edge5" class="edge">
<title>multi_ir_bgck_mod&#45;&gt;rttov_interfaces_mod</title>
<path fill="none" stroke="black" d="M255.19,-556.91C266.29,-530.62 285.5,-478.45 285.5,-432 285.5,-432 285.5,-432 285.5,-358 285.5,-317.27 274.27,-271.19 266.04,-242.86"/>
<polygon fill="black" stroke="black" points="269.39,-241.85 263.17,-233.27 262.68,-243.86 269.39,-241.85"/>
</g>
<!-- tovs_nl_mod -->
<g id="node7" class="node">
<title>tovs_nl_mod</title>
<g id="a_node7"><a xlink:href="../modules/tovs_nl_mod.svg" xlink:title="tovs_nl_mod">
<polygon fill="none" stroke="red" points="395,-161 308,-161 308,-125 395,-125 395,-161"/>
<text text-anchor="middle" x="351.5" y="-139.3" font-family="Times,serif" font-size="14.00">tovs_nl_mod</text>
</a>
</g>
</g>
<!-- multi_ir_bgck_mod&#45;&gt;tovs_nl_mod -->
<g id="edge6" class="edge">
<title>multi_ir_bgck_mod&#45;&gt;tovs_nl_mod</title>
<path fill="none" stroke="black" d="M271.62,-556.82C302.34,-532.73 351.5,-485.78 351.5,-432 351.5,-432 351.5,-432 351.5,-286 351.5,-246 351.5,-199.65 351.5,-171.08"/>
<polygon fill="black" stroke="black" points="355,-171.05 351.5,-161.05 348,-171.05 355,-171.05"/>
</g>
<!-- utilities_mod -->
<g id="node8" class="node">
<title>utilities_mod</title>
<g id="a_node8"><a xlink:href="../modules/utilities_mod.svg" xlink:title="utilities_mod">
<polygon fill="none" stroke="red" points="467.5,-89 379.5,-89 379.5,-53 467.5,-53 467.5,-89"/>
<text text-anchor="middle" x="423.5" y="-67.3" font-family="Times,serif" font-size="14.00">utilities_mod</text>
</a>
</g>
</g>
<!-- multi_ir_bgck_mod&#45;&gt;utilities_mod -->
<g id="edge7" class="edge">
<title>multi_ir_bgck_mod&#45;&gt;utilities_mod</title>
<path fill="none" stroke="black" d="M299.83,-556.92C351.71,-536.31 423.5,-496.19 423.5,-432 423.5,-432 423.5,-432 423.5,-214 423.5,-174 423.5,-127.65 423.5,-99.08"/>
<polygon fill="black" stroke="black" points="427,-99.05 423.5,-89.05 420,-99.05 427,-99.05"/>
</g>
</g>
</svg>
