<?xml version="1.0" encoding="UTF-8" standalone="no"?>
<!DOCTYPE svg PUBLIC "-//W3C//DTD SVG 1.1//EN"
 "http://www.w3.org/Graphics/SVG/1.1/DTD/svg11.dtd">
<!-- Generated by graphviz version 3.0.0 (20220315.2325)
 -->
<!-- Title: obscolumnnames_mod Pages: 1 -->
<svg width="430pt" height="241pt"
 viewBox="0.00 0.00 430.00 241.00" xmlns="http://www.w3.org/2000/svg" xmlns:xlink="http://www.w3.org/1999/xlink">
<g id="graph0" class="graph" transform="scale(1 1) rotate(0) translate(4 237)">
<title>obscolumnnames_mod</title>
<polygon fill="white" stroke="transparent" points="-4,4 -4,-237 426,-237 426,4 -4,4"/>
<text text-anchor="middle" x="211" y="-217.8" font-family="Times,serif" font-size="14.00">Blue boxes indicate modules with reverse dependencies not shown</text>
<text text-anchor="middle" x="211" y="-202.8" font-family="Times,serif" font-size="14.00">Higher level reverse dependencies can be shown by clicking on a blue box</text>
<text text-anchor="middle" x="211" y="-187.8" font-family="Times,serif" font-size="14.00">Green boxes are programs</text>
<!-- obscolumnnames_mod -->
<g id="node1" class="node">
<title>obscolumnnames_mod</title>
<g id="a_node1"><a xlink:href="obscolumnnames_mod.html" xlink:title="obscolumnnames_mod">
<polygon fill="none" stroke="black" points="284.5,-36 142.5,-36 142.5,0 284.5,0 284.5,-36"/>
<text text-anchor="middle" x="213.5" y="-14.3" font-family="Times,serif" font-size="14.00">obscolumnnames_mod</text>
</a>
</g>
</g>
<!-- obsdatacolumn_mod -->
<g id="node2" class="node">
<title>obsdatacolumn_mod</title>
<g id="a_node2"><a xlink:href="../modules/obsdatacolumn_mod_rev.svg" xlink:title="obsdatacolumn_mod">
<polygon fill="none" stroke="blue" points="232.5,-108 102.5,-108 102.5,-72 232.5,-72 232.5,-108"/>
<text text-anchor="middle" x="167.5" y="-86.3" font-family="Times,serif" font-size="14.00">obsdatacolumn_mod</text>
</a>
</g>
</g>
<!-- obsdatacolumn_mod&#45;&gt;obscolumnnames_mod -->
<g id="edge1" class="edge">
<title>obsdatacolumn_mod&#45;&gt;obscolumnnames_mod</title>
<path fill="none" stroke="black" d="M183.43,-64.76C189.64,-55.32 196.6,-44.72 202.26,-36.1"/>
<ellipse fill="black" stroke="black" cx="181.07" cy="-68.35" rx="4" ry="4"/>
</g>
<!-- obsspacedata_mod -->
<g id="node3" class="node">
<title>obsspacedata_mod</title>
<g id="a_node3"><a xlink:href="../modules/obsspacedata_mod_rev.svg" xlink:title="obsspacedata_mod">
<polygon fill="none" stroke="blue" points="319.5,-180 201.5,-180 201.5,-144 319.5,-144 319.5,-180"/>
<text text-anchor="middle" x="260.5" y="-158.3" font-family="Times,serif" font-size="14.00">obsspacedata_mod</text>
</a>
</g>
</g>
<!-- obsspacedata_mod&#45;&gt;obscolumnnames_mod -->
<g id="edge2" class="edge">
<title>obsspacedata_mod&#45;&gt;obscolumnnames_mod</title>
<path fill="none" stroke="black" d="M256.99,-135.58C254.03,-117.49 249.05,-92.8 241.5,-72 236.96,-59.48 229.96,-46.23 224.09,-36.11"/>
<ellipse fill="black" stroke="black" cx="257.66" cy="-139.93" rx="4" ry="4"/>
</g>
</g>
</svg>
