<?xml version="1.0" encoding="UTF-8" standalone="no"?>
<!DOCTYPE svg PUBLIC "-//W3C//DTD SVG 1.1//EN"
 "http://www.w3.org/Graphics/SVG/1.1/DTD/svg11.dtd">
<!-- Generated by graphviz version 3.0.0 (20220315.2325)
 -->
<!-- Title: obsdatacolumn_mod Pages: 1 -->
<svg width="379pt" height="241pt"
 viewBox="0.00 0.00 379.00 241.00" xmlns="http://www.w3.org/2000/svg" xmlns:xlink="http://www.w3.org/1999/xlink">
<g id="graph0" class="graph" transform="scale(1 1) rotate(0) translate(4 237)">
<title>obsdatacolumn_mod</title>
<polygon fill="white" stroke="transparent" points="-4,4 -4,-237 375,-237 375,4 -4,4"/>
<text text-anchor="middle" x="185.5" y="-37.8" font-family="Times,serif" font-size="14.00">Red boxes indicate modules with dependencies not shown</text>
<text text-anchor="middle" x="185.5" y="-22.8" font-family="Times,serif" font-size="14.00">Lower level dependencies can be shown by clicking on a red box</text>
<text text-anchor="middle" x="185.5" y="-7.8" font-family="Times,serif" font-size="14.00">Shaded boxes indicate modules with no dependencies</text>
<!-- obsdatacolumn_mod -->
<g id="node1" class="node">
<title>obsdatacolumn_mod</title>
<g id="a_node1"><a xlink:href="obsdatacolumn_mod.html" xlink:title="obsdatacolumn_mod">
<polygon fill="none" stroke="black" points="245,-233 115,-233 115,-197 245,-197 245,-233"/>
<text text-anchor="middle" x="180" y="-211.3" font-family="Times,serif" font-size="14.00">obsdatacolumn_mod</text>
</a>
</g>
</g>
<!-- codeprecision_mod -->
<g id="node2" class="node">
<title>codeprecision_mod</title>
<g id="a_node2"><a xlink:href="codeprecision_mod.html" xlink:title="codeprecision_mod">
<polygon fill="gray" stroke="black" points="197,-161 75,-161 75,-125 197,-125 197,-161"/>
<text text-anchor="middle" x="136" y="-139.3" font-family="Times,serif" font-size="14.00">codeprecision_mod</text>
</a>
</g>
</g>
<!-- obsdatacolumn_mod&#45;&gt;codeprecision_mod -->
<g id="edge1" class="edge">
<title>obsdatacolumn_mod&#45;&gt;codeprecision_mod</title>
<path fill="none" stroke="black" d="M169.12,-196.7C164.01,-188.56 157.8,-178.69 152.16,-169.7"/>
<polygon fill="black" stroke="black" points="155.04,-167.71 146.75,-161.1 149.11,-171.43 155.04,-167.71"/>
</g>
<!-- obscolumnnames_mod -->
<g id="node3" class="node">
<title>obscolumnnames_mod</title>
<g id="a_node3"><a xlink:href="obscolumnnames_mod.html" xlink:title="obscolumnnames_mod">
<polygon fill="gray" stroke="black" points="296,-89 154,-89 154,-53 296,-53 296,-89"/>
<text text-anchor="middle" x="225" y="-67.3" font-family="Times,serif" font-size="14.00">obscolumnnames_mod</text>
</a>
</g>
</g>
<!-- obsdatacolumn_mod&#45;&gt;obscolumnnames_mod -->
<g id="edge2" class="edge">
<title>obsdatacolumn_mod&#45;&gt;obscolumnnames_mod</title>
<path fill="none" stroke="black" d="M189.78,-196.8C195.21,-186.65 201.71,-173.4 206,-161 213.01,-140.75 217.92,-116.98 221,-99.1"/>
<polygon fill="black" stroke="black" points="224.48,-99.5 222.63,-89.07 217.57,-98.37 224.48,-99.5"/>
</g>
</g>
</svg>
