<?xml version="1.0" encoding="UTF-8" standalone="no"?>
<!DOCTYPE svg PUBLIC "-//W3C//DTD SVG 1.1//EN"
 "http://www.w3.org/Graphics/SVG/1.1/DTD/svg11.dtd">
<!-- Generated by graphviz version 3.0.0 (20220315.2325)
 -->
<!-- Title: obsdbfiles_mod Pages: 1 -->
<svg width="768pt" height="673pt"
 viewBox="0.00 0.00 768.00 673.00" xmlns="http://www.w3.org/2000/svg" xmlns:xlink="http://www.w3.org/1999/xlink">
<g id="graph0" class="graph" transform="scale(1 1) rotate(0) translate(4 669)">
<title>obsdbfiles_mod</title>
<polygon fill="white" stroke="transparent" points="-4,4 -4,-669 764,-669 764,4 -4,4"/>
<text text-anchor="middle" x="380" y="-37.8" font-family="Times,serif" font-size="14.00">Red boxes indicate modules with dependencies not shown</text>
<text text-anchor="middle" x="380" y="-22.8" font-family="Times,serif" font-size="14.00">Lower level dependencies can be shown by clicking on a red box</text>
<text text-anchor="middle" x="380" y="-7.8" font-family="Times,serif" font-size="14.00">Shaded boxes indicate modules with no dependencies</text>
<!-- obsdbfiles_mod -->
<g id="node1" class="node">
<title>obsdbfiles_mod</title>
<g id="a_node1"><a xlink:href="obsdbfiles_mod.html" xlink:title="obsdbfiles_mod">
<polygon fill="none" stroke="black" points="347,-665 245,-665 245,-629 347,-629 347,-665"/>
<text text-anchor="middle" x="296" y="-643.3" font-family="Times,serif" font-size="14.00">obsdbfiles_mod</text>
</a>
</g>
</g>
<!-- bufr_mod -->
<g id="node2" class="node">
<title>bufr_mod</title>
<g id="a_node2"><a xlink:href="bufr_mod.html" xlink:title="bufr_mod">
<polygon fill="gray" stroke="black" points="70,-593 0,-593 0,-557 70,-557 70,-593"/>
<text text-anchor="middle" x="35" y="-571.3" font-family="Times,serif" font-size="14.00">bufr_mod</text>
</a>
</g>
</g>
<!-- obsdbfiles_mod&#45;&gt;bufr_mod -->
<g id="edge1" class="edge">
<title>obsdbfiles_mod&#45;&gt;bufr_mod</title>
<path fill="none" stroke="black" d="M244.68,-634.52C201.53,-624.55 138.36,-609.19 84,-593 82.6,-592.58 81.18,-592.15 79.74,-591.7"/>
<polygon fill="black" stroke="black" points="80.8,-588.37 70.21,-588.63 78.65,-595.03 80.8,-588.37"/>
</g>
<!-- clib_interfaces_mod -->
<g id="node3" class="node">
<title>clib_interfaces_mod</title>
<g id="a_node3"><a xlink:href="clib_interfaces_mod.html" xlink:title="clib_interfaces_mod">
<polygon fill="gray" stroke="black" points="134.5,-521 7.5,-521 7.5,-485 134.5,-485 134.5,-521"/>
<text text-anchor="middle" x="71" y="-499.3" font-family="Times,serif" font-size="14.00">clib_interfaces_mod</text>
</a>
</g>
</g>
<!-- obsdbfiles_mod&#45;&gt;clib_interfaces_mod -->
<g id="edge2" class="edge">
<title>obsdbfiles_mod&#45;&gt;clib_interfaces_mod</title>
<path fill="none" stroke="black" d="M244.71,-634.37C215.01,-626.02 177.91,-612.72 149,-593 124.01,-575.96 101.97,-549.08 87.75,-529.32"/>
<polygon fill="black" stroke="black" points="90.57,-527.25 81.96,-521.07 84.84,-531.27 90.57,-527.25"/>
</g>
<!-- codeprecision_mod -->
<g id="node4" class="node">
<title>codeprecision_mod</title>
<g id="a_node4"><a xlink:href="codeprecision_mod.html" xlink:title="codeprecision_mod">
<polygon fill="gray" stroke="black" points="173,-449 51,-449 51,-413 173,-413 173,-449"/>
<text text-anchor="middle" x="112" y="-427.3" font-family="Times,serif" font-size="14.00">codeprecision_mod</text>
</a>
</g>
</g>
<!-- obsdbfiles_mod&#45;&gt;codeprecision_mod -->
<g id="edge3" class="edge">
<title>obsdbfiles_mod&#45;&gt;codeprecision_mod</title>
<path fill="none" stroke="black" d="M244.96,-630.2C224.76,-621.84 202.68,-609.74 187,-593 151.57,-555.17 165.92,-531.49 143,-485 138.57,-476.01 133.21,-466.48 128.21,-458.01"/>
<polygon fill="black" stroke="black" points="131.13,-456.08 122.97,-449.32 125.13,-459.69 131.13,-456.08"/>
</g>
<!-- codtyp_mod -->
<g id="node5" class="node">
<title>codtyp_mod</title>
<g id="a_node5"><a xlink:href="../modules/codtyp_mod.svg" xlink:title="codtyp_mod">
<polygon fill="none" stroke="red" points="211,-377 127,-377 127,-341 211,-341 211,-377"/>
<text text-anchor="middle" x="169" y="-355.3" font-family="Times,serif" font-size="14.00">codtyp_mod</text>
</a>
</g>
</g>
<!-- obsdbfiles_mod&#45;&gt;codtyp_mod -->
<g id="edge4" class="edge">
<title>obsdbfiles_mod&#45;&gt;codtyp_mod</title>
<path fill="none" stroke="black" d="M263.96,-628.92C250.04,-619.97 234.72,-607.78 225,-593 179.79,-524.29 201.35,-492.94 182,-413 179.96,-404.58 177.72,-395.42 175.68,-387.12"/>
<polygon fill="black" stroke="black" points="179.03,-386.05 173.24,-377.18 172.23,-387.73 179.03,-386.05"/>
</g>
<!-- mathphysconstants_mod -->
<g id="node6" class="node">
<title>mathphysconstants_mod</title>
<g id="a_node6"><a xlink:href="mathphysconstants_mod.html" xlink:title="mathphysconstants_mod">
<polygon fill="gray" stroke="black" points="249,-305 99,-305 99,-269 249,-269 249,-305"/>
<text text-anchor="middle" x="174" y="-283.3" font-family="Times,serif" font-size="14.00">mathphysconstants_mod</text>
</a>
</g>
</g>
<!-- obsdbfiles_mod&#45;&gt;mathphysconstants_mod -->
<g id="edge5" class="edge">
<title>obsdbfiles_mod&#45;&gt;mathphysconstants_mod</title>
<path fill="none" stroke="black" d="M283.33,-628.57C276.53,-618.56 268.45,-605.52 263,-593 246.66,-555.43 239,-544.97 239,-504 239,-504 239,-504 239,-430 239,-389.55 238.05,-377.2 220,-341 214.97,-330.92 207.58,-321.21 200.18,-312.91"/>
<polygon fill="black" stroke="black" points="202.56,-310.33 193.16,-305.43 197.45,-315.12 202.56,-310.33"/>
</g>
<!-- midasmpi_mod -->
<g id="node7" class="node">
<title>midasmpi_mod</title>
<g id="a_node7"><a xlink:href="../modules/midasmpi_mod.svg" xlink:title="midasmpi_mod">
<polygon fill="none" stroke="red" points="286.5,-233 185.5,-233 185.5,-197 286.5,-197 286.5,-233"/>
<text text-anchor="middle" x="236" y="-211.3" font-family="Times,serif" font-size="14.00">midasmpi_mod</text>
</a>
</g>
</g>
<!-- obsdbfiles_mod&#45;&gt;midasmpi_mod -->
<g id="edge6" class="edge">
<title>obsdbfiles_mod&#45;&gt;midasmpi_mod</title>
<path fill="none" stroke="black" d="M292.16,-628.61C286.6,-601.94 277,-549.27 277,-504 277,-504 277,-504 277,-358 277,-316.41 260.56,-270.56 248.5,-242.51"/>
<polygon fill="black" stroke="black" points="251.55,-240.75 244.3,-233.03 245.15,-243.59 251.55,-240.75"/>
</g>
<!-- obsspacedata_mod -->
<g id="node8" class="node">
<title>obsspacedata_mod</title>
<g id="a_node8"><a xlink:href="../modules/obsspacedata_mod.svg" xlink:title="obsspacedata_mod">
<polygon fill="none" stroke="red" points="325,-161 207,-161 207,-125 325,-125 325,-161"/>
<text text-anchor="middle" x="266" y="-139.3" font-family="Times,serif" font-size="14.00">obsspacedata_mod</text>
</a>
</g>
</g>
<!-- obsdbfiles_mod&#45;&gt;obsspacedata_mod -->
<g id="edge7" class="edge">
<title>obsdbfiles_mod&#45;&gt;obsspacedata_mod</title>
<path fill="none" stroke="black" d="M299.84,-628.61C305.4,-601.94 315,-549.27 315,-504 315,-504 315,-504 315,-286 315,-245.46 309.31,-234.93 295,-197 291.56,-187.87 286.79,-178.38 282.11,-170"/>
<polygon fill="black" stroke="black" points="284.99,-167.98 276.94,-161.08 278.93,-171.49 284.99,-167.98"/>
</g>
<!-- obsutil_mod -->
<g id="node9" class="node">
<title>obsutil_mod</title>
<g id="a_node9"><a xlink:href="../modules/obsutil_mod.svg" xlink:title="obsutil_mod">
<polygon fill="none" stroke="red" points="394.5,-89 311.5,-89 311.5,-53 394.5,-53 394.5,-89"/>
<text text-anchor="middle" x="353" y="-67.3" font-family="Times,serif" font-size="14.00">obsutil_mod</text>
</a>
</g>
</g>
<!-- obsdbfiles_mod&#45;&gt;obsutil_mod -->
<g id="edge8" class="edge">
<title>obsdbfiles_mod&#45;&gt;obsutil_mod</title>
<path fill="none" stroke="black" d="M307.81,-628.96C324.51,-603.16 353,-552.08 353,-504 353,-504 353,-504 353,-214 353,-174 353,-127.65 353,-99.08"/>
<polygon fill="black" stroke="black" points="356.5,-99.05 353,-89.05 349.5,-99.05 356.5,-99.05"/>
</g>
<!-- obsvariabletransforms_mod -->
<g id="node10" class="node">
<title>obsvariabletransforms_mod</title>
<g id="a_node10"><a xlink:href="../modules/obsvariabletransforms_mod.svg" xlink:title="obsvariabletransforms_mod">
<polygon fill="none" stroke="red" points="547,-593 381,-593 381,-557 547,-557 547,-593"/>
<text text-anchor="middle" x="464" y="-571.3" font-family="Times,serif" font-size="14.00">obsvariabletransforms_mod</text>
</a>
</g>
</g>
<!-- obsdbfiles_mod&#45;&gt;obsvariabletransforms_mod -->
<g id="edge9" class="edge">
<title>obsdbfiles_mod&#45;&gt;obsvariabletransforms_mod</title>
<path fill="none" stroke="black" d="M337.1,-628.88C360.17,-619.26 389.14,-607.19 413.57,-597.01"/>
<polygon fill="black" stroke="black" points="415.15,-600.15 423.04,-593.07 412.46,-593.68 415.15,-600.15"/>
</g>
<!-- sqliteutilities_mod -->
<g id="node11" class="node">
<title>sqliteutilities_mod</title>
<g id="a_node11"><a xlink:href="../modules/sqliteutilities_mod.svg" xlink:title="sqliteutilities_mod">
<polygon fill="none" stroke="red" points="608.5,-521 491.5,-521 491.5,-485 608.5,-485 608.5,-521"/>
<text text-anchor="middle" x="550" y="-499.3" font-family="Times,serif" font-size="14.00">sqliteutilities_mod</text>
</a>
</g>
</g>
<!-- obsdbfiles_mod&#45;&gt;sqliteutilities_mod -->
<g id="edge10" class="edge">
<title>obsdbfiles_mod&#45;&gt;sqliteutilities_mod</title>
<path fill="none" stroke="black" d="M347.05,-643.04C415.15,-637.9 530.14,-624.67 556,-593 570.01,-575.84 566.49,-550.07 560.66,-530.66"/>
<polygon fill="black" stroke="black" points="563.97,-529.54 557.47,-521.18 557.34,-531.77 563.97,-529.54"/>
</g>
<!-- timecoord_mod -->
<g id="node12" class="node">
<title>timecoord_mod</title>
<g id="a_node12"><a xlink:href="../modules/timecoord_mod.svg" xlink:title="timecoord_mod">
<polygon fill="none" stroke="red" points="688,-449 586,-449 586,-413 688,-413 688,-449"/>
<text text-anchor="middle" x="637" y="-427.3" font-family="Times,serif" font-size="14.00">timecoord_mod</text>
</a>
</g>
</g>
<!-- obsdbfiles_mod&#45;&gt;timecoord_mod -->
<g id="edge11" class="edge">
<title>obsdbfiles_mod&#45;&gt;timecoord_mod</title>
<path fill="none" stroke="black" d="M347.05,-641.38C417.26,-634.19 539.01,-618.43 575,-593 618.52,-562.24 631.5,-496.46 635.36,-459.2"/>
<polygon fill="black" stroke="black" points="638.86,-459.33 636.26,-449.06 631.89,-458.72 638.86,-459.33"/>
</g>
<!-- utilities_mod -->
<g id="node13" class="node">
<title>utilities_mod</title>
<g id="a_node13"><a xlink:href="../modules/utilities_mod.svg" xlink:title="utilities_mod">
<polygon fill="none" stroke="red" points="760,-377 672,-377 672,-341 760,-341 760,-377"/>
<text text-anchor="middle" x="716" y="-355.3" font-family="Times,serif" font-size="14.00">utilities_mod</text>
</a>
</g>
</g>
<!-- obsdbfiles_mod&#45;&gt;utilities_mod -->
<g id="edge12" class="edge">
<title>obsdbfiles_mod&#45;&gt;utilities_mod</title>
<path fill="none" stroke="black" d="M347.24,-642.22C423.82,-635.75 563.56,-620.51 605,-593 676.82,-545.32 703.38,-437.72 712.15,-387.18"/>
<polygon fill="black" stroke="black" points="715.65,-387.46 713.8,-377.03 708.74,-386.33 715.65,-387.46"/>
</g>
</g>
</svg>
