<?xml version="1.0" encoding="UTF-8" standalone="no"?>
<!DOCTYPE svg PUBLIC "-//W3C//DTD SVG 1.1//EN"
 "http://www.w3.org/Graphics/SVG/1.1/DTD/svg11.dtd">
<!-- Generated by graphviz version 3.0.0 (20220315.2325)
 -->
<!-- Title: obsdiagfiles_mod Pages: 1 -->
<svg width="533pt" height="673pt"
 viewBox="0.00 0.00 533.00 673.00" xmlns="http://www.w3.org/2000/svg" xmlns:xlink="http://www.w3.org/1999/xlink">
<g id="graph0" class="graph" transform="scale(1 1) rotate(0) translate(4 669)">
<title>obsdiagfiles_mod</title>
<polygon fill="white" stroke="transparent" points="-4,4 -4,-669 529,-669 529,4 -4,4"/>
<text text-anchor="middle" x="262.5" y="-37.8" font-family="Times,serif" font-size="14.00">Red boxes indicate modules with dependencies not shown</text>
<text text-anchor="middle" x="262.5" y="-22.8" font-family="Times,serif" font-size="14.00">Lower level dependencies can be shown by clicking on a red box</text>
<text text-anchor="middle" x="262.5" y="-7.8" font-family="Times,serif" font-size="14.00">Shaded boxes indicate modules with no dependencies</text>
<!-- obsdiagfiles_mod -->
<g id="node1" class="node">
<title>obsdiagfiles_mod</title>
<g id="a_node1"><a xlink:href="obsdiagfiles_mod.html" xlink:title="obsdiagfiles_mod">
<polygon fill="none" stroke="black" points="326,-665 214,-665 214,-629 326,-629 326,-665"/>
<text text-anchor="middle" x="270" y="-643.3" font-family="Times,serif" font-size="14.00">obsdiagfiles_mod</text>
</a>
</g>
</g>
<!-- codtyp_mod -->
<g id="node2" class="node">
<title>codtyp_mod</title>
<g id="a_node2"><a xlink:href="../modules/codtyp_mod.svg" xlink:title="codtyp_mod">
<polygon fill="none" stroke="red" points="92,-593 8,-593 8,-557 92,-557 92,-593"/>
<text text-anchor="middle" x="50" y="-571.3" font-family="Times,serif" font-size="14.00">codtyp_mod</text>
</a>
</g>
</g>
<!-- obsdiagfiles_mod&#45;&gt;codtyp_mod -->
<g id="edge1" class="edge">
<title>obsdiagfiles_mod&#45;&gt;codtyp_mod</title>
<path fill="none" stroke="black" d="M216.46,-628.97C181.62,-617.88 136.4,-603.49 101.89,-592.51"/>
<polygon fill="black" stroke="black" points="102.6,-589.06 92.01,-589.37 100.47,-595.73 102.6,-589.06"/>
</g>
<!-- ensembleobservations_mod -->
<g id="node3" class="node">
<title>ensembleobservations_mod</title>
<g id="a_node3"><a xlink:href="../modules/ensembleobservations_mod.svg" xlink:title="ensembleobservations_mod">
<polygon fill="none" stroke="red" points="166,-521 0,-521 0,-485 166,-485 166,-521"/>
<text text-anchor="middle" x="83" y="-499.3" font-family="Times,serif" font-size="14.00">ensembleobservations_mod</text>
</a>
</g>
</g>
<!-- obsdiagfiles_mod&#45;&gt;ensembleobservations_mod -->
<g id="edge2" class="edge">
<title>obsdiagfiles_mod&#45;&gt;ensembleobservations_mod</title>
<path fill="none" stroke="black" d="M237.3,-628.93C219.75,-619.23 198.07,-606.38 180,-593 153.36,-573.28 125.78,-547.34 106.87,-528.56"/>
<polygon fill="black" stroke="black" points="109.11,-525.85 99.57,-521.24 104.15,-530.79 109.11,-525.85"/>
</g>
<!-- mathphysconstants_mod -->
<g id="node4" class="node">
<title>mathphysconstants_mod</title>
<g id="a_node4"><a xlink:href="mathphysconstants_mod.html" xlink:title="mathphysconstants_mod">
<polygon fill="gray" stroke="black" points="204,-449 54,-449 54,-413 204,-413 204,-449"/>
<text text-anchor="middle" x="129" y="-427.3" font-family="Times,serif" font-size="14.00">mathphysconstants_mod</text>
</a>
</g>
</g>
<!-- obsdiagfiles_mod&#45;&gt;mathphysconstants_mod -->
<g id="edge3" class="edge">
<title>obsdiagfiles_mod&#45;&gt;mathphysconstants_mod</title>
<path fill="none" stroke="black" d="M249.74,-628.94C239.2,-619.25 226.72,-606.39 218,-593 189.8,-549.71 201.87,-529.13 175,-485 169.05,-475.22 161.27,-465.48 153.8,-457.07"/>
<polygon fill="black" stroke="black" points="156.15,-454.45 146.81,-449.45 150.99,-459.18 156.15,-454.45"/>
</g>
<!-- midasmpi_mod -->
<g id="node5" class="node">
<title>midasmpi_mod</title>
<g id="a_node5"><a xlink:href="../modules/midasmpi_mod.svg" xlink:title="midasmpi_mod">
<polygon fill="none" stroke="red" points="241.5,-377 140.5,-377 140.5,-341 241.5,-341 241.5,-377"/>
<text text-anchor="middle" x="191" y="-355.3" font-family="Times,serif" font-size="14.00">midasmpi_mod</text>
</a>
</g>
</g>
<!-- obsdiagfiles_mod&#45;&gt;midasmpi_mod -->
<g id="edge4" class="edge">
<title>obsdiagfiles_mod&#45;&gt;midasmpi_mod</title>
<path fill="none" stroke="black" d="M265.36,-628.84C262.58,-618.48 259.02,-605 256,-593 235.94,-513.23 238.4,-491.23 213,-413 210.17,-404.28 206.53,-394.99 203.03,-386.65"/>
<polygon fill="black" stroke="black" points="206.22,-385.2 199.05,-377.4 199.79,-387.97 206.22,-385.2"/>
</g>
<!-- obsspacedata_mod -->
<g id="node6" class="node">
<title>obsspacedata_mod</title>
<g id="a_node6"><a xlink:href="../modules/obsspacedata_mod.svg" xlink:title="obsspacedata_mod">
<polygon fill="none" stroke="red" points="280,-305 162,-305 162,-269 280,-269 280,-305"/>
<text text-anchor="middle" x="221" y="-283.3" font-family="Times,serif" font-size="14.00">obsspacedata_mod</text>
</a>
</g>
</g>
<!-- obsdiagfiles_mod&#45;&gt;obsspacedata_mod -->
<g id="edge5" class="edge">
<title>obsdiagfiles_mod&#45;&gt;obsspacedata_mod</title>
<path fill="none" stroke="black" d="M270,-628.95C270,-602.29 270,-549.11 270,-504 270,-504 270,-504 270,-430 270,-389.46 264.31,-378.93 250,-341 246.56,-331.87 241.79,-322.38 237.11,-314"/>
<polygon fill="black" stroke="black" points="239.99,-311.98 231.94,-305.08 233.93,-315.49 239.99,-311.98"/>
</g>
<!-- ramdisk_mod -->
<g id="node7" class="node">
<title>ramdisk_mod</title>
<g id="a_node7"><a xlink:href="../modules/ramdisk_mod.svg" xlink:title="ramdisk_mod">
<polygon fill="none" stroke="red" points="317.5,-233 226.5,-233 226.5,-197 317.5,-197 317.5,-233"/>
<text text-anchor="middle" x="272" y="-211.3" font-family="Times,serif" font-size="14.00">ramdisk_mod</text>
</a>
</g>
</g>
<!-- obsdiagfiles_mod&#45;&gt;ramdisk_mod -->
<g id="edge6" class="edge">
<title>obsdiagfiles_mod&#45;&gt;ramdisk_mod</title>
<path fill="none" stroke="black" d="M277.69,-628.91C288.79,-602.62 308,-550.45 308,-504 308,-504 308,-504 308,-358 308,-316.78 293.57,-270.83 282.98,-242.66"/>
<polygon fill="black" stroke="black" points="286.16,-241.19 279.29,-233.13 279.64,-243.72 286.16,-241.19"/>
</g>
<!-- sqliteutilities_mod -->
<g id="node8" class="node">
<title>sqliteutilities_mod</title>
<g id="a_node8"><a xlink:href="../modules/sqliteutilities_mod.svg" xlink:title="sqliteutilities_mod">
<polygon fill="none" stroke="red" points="380.5,-161 263.5,-161 263.5,-125 380.5,-125 380.5,-161"/>
<text text-anchor="middle" x="322" y="-139.3" font-family="Times,serif" font-size="14.00">sqliteutilities_mod</text>
</a>
</g>
</g>
<!-- obsdiagfiles_mod&#45;&gt;sqliteutilities_mod -->
<g id="edge7" class="edge">
<title>obsdiagfiles_mod&#45;&gt;sqliteutilities_mod</title>
<path fill="none" stroke="black" d="M286.49,-628.77C308.84,-603.53 346,-554.05 346,-504 346,-504 346,-504 346,-286 346,-245.65 336.46,-199.74 329.41,-171.32"/>
<polygon fill="black" stroke="black" points="332.73,-170.15 326.86,-161.33 325.94,-171.88 332.73,-170.15"/>
</g>
<!-- tovs_nl_mod -->
<g id="node9" class="node">
<title>tovs_nl_mod</title>
<g id="a_node9"><a xlink:href="../modules/tovs_nl_mod.svg" xlink:title="tovs_nl_mod">
<polygon fill="none" stroke="red" points="452.5,-89 365.5,-89 365.5,-53 452.5,-53 452.5,-89"/>
<text text-anchor="middle" x="409" y="-67.3" font-family="Times,serif" font-size="14.00">tovs_nl_mod</text>
</a>
</g>
</g>
<!-- obsdiagfiles_mod&#45;&gt;tovs_nl_mod -->
<g id="edge8" class="edge">
<title>obsdiagfiles_mod&#45;&gt;tovs_nl_mod</title>
<path fill="none" stroke="black" d="M305.8,-628.94C346.98,-606.53 409,-562.99 409,-504 409,-504 409,-504 409,-214 409,-174 409,-127.65 409,-99.08"/>
<polygon fill="black" stroke="black" points="412.5,-99.05 409,-89.05 405.5,-99.05 412.5,-99.05"/>
</g>
<!-- utilities_mod -->
<g id="node10" class="node">
<title>utilities_mod</title>
<g id="a_node10"><a xlink:href="../modules/utilities_mod.svg" xlink:title="utilities_mod">
<polygon fill="none" stroke="red" points="525,-593 437,-593 437,-557 525,-557 525,-593"/>
<text text-anchor="middle" x="481" y="-571.3" font-family="Times,serif" font-size="14.00">utilities_mod</text>
</a>
</g>
</g>
<!-- obsdiagfiles_mod&#45;&gt;utilities_mod -->
<g id="edge9" class="edge">
<title>obsdiagfiles_mod&#45;&gt;utilities_mod</title>
<path fill="none" stroke="black" d="M321.35,-628.97C353.41,-618.33 394.62,-604.66 427.14,-593.87"/>
<polygon fill="black" stroke="black" points="428.55,-597.09 436.94,-590.62 426.34,-590.45 428.55,-597.09"/>
</g>
</g>
</svg>
