<?xml version="1.0" encoding="UTF-8" standalone="no"?>
<!DOCTYPE svg PUBLIC "-//W3C//DTD SVG 1.1//EN"
 "http://www.w3.org/Graphics/SVG/1.1/DTD/svg11.dtd">
<!-- Generated by graphviz version 3.0.0 (20220315.2325)
 -->
<!-- Title: obserrors_mod Pages: 1 -->
<svg width="1080pt" height="673pt"
 viewBox="0.00 0.00 1080.00 673.00" xmlns="http://www.w3.org/2000/svg" xmlns:xlink="http://www.w3.org/1999/xlink">
<g id="graph0" class="graph" transform="scale(1 1) rotate(0) translate(4 669)">
<title>obserrors_mod</title>
<polygon fill="white" stroke="transparent" points="-4,4 -4,-669 1076,-669 1076,4 -4,4"/>
<text text-anchor="middle" x="536" y="-649.8" font-family="Times,serif" font-size="14.00">Blue boxes indicate modules with reverse dependencies not shown</text>
<text text-anchor="middle" x="536" y="-634.8" font-family="Times,serif" font-size="14.00">Higher level reverse dependencies can be shown by clicking on a blue box</text>
<text text-anchor="middle" x="536" y="-619.8" font-family="Times,serif" font-size="14.00">Green boxes are programs</text>
<!-- obserrors_mod -->
<g id="node1" class="node">
<title>obserrors_mod</title>
<g id="a_node1"><a xlink:href="obserrors_mod.html" xlink:title="obserrors_mod">
<polygon fill="none" stroke="black" points="596.5,-36 498.5,-36 498.5,0 596.5,0 596.5,-36"/>
<text text-anchor="middle" x="547.5" y="-14.3" font-family="Times,serif" font-size="14.00">obserrors_mod</text>
</a>
</g>
</g>
<!-- bgckcsr_mod -->
<g id="node2" class="node">
<title>bgckcsr_mod</title>
<g id="a_node2"><a xlink:href="../modules/bgckcsr_mod_rev.svg" xlink:title="bgckcsr_mod">
<polygon fill="none" stroke="blue" points="89,-108 0,-108 0,-72 89,-72 89,-108"/>
<text text-anchor="middle" x="44.5" y="-86.3" font-family="Times,serif" font-size="14.00">bgckcsr_mod</text>
</a>
</g>
</g>
<!-- bgckcsr_mod&#45;&gt;obserrors_mod -->
<g id="edge1" class="edge">
<title>bgckcsr_mod&#45;&gt;obserrors_mod</title>
<path fill="none" stroke="black" d="M97.25,-73.35C99.35,-72.87 101.44,-72.42 103.5,-72 245.4,-43.28 416.2,-28.28 498.47,-22.25"/>
<ellipse fill="black" stroke="black" cx="92.98" cy="-74.39" rx="4" ry="4"/>
</g>
<!-- bgckmicrowave_mod -->
<g id="node3" class="node">
<title>bgckmicrowave_mod</title>
<g id="a_node3"><a xlink:href="../modules/bgckmicrowave_mod_rev.svg" xlink:title="bgckmicrowave_mod">
<polygon fill="none" stroke="blue" points="155.5,-180 21.5,-180 21.5,-144 155.5,-144 155.5,-180"/>
<text text-anchor="middle" x="88.5" y="-158.3" font-family="Times,serif" font-size="14.00">bgckmicrowave_mod</text>
</a>
</g>
</g>
<!-- bgckmicrowave_mod&#45;&gt;obserrors_mod -->
<g id="edge2" class="edge">
<title>bgckmicrowave_mod&#45;&gt;obserrors_mod</title>
<path fill="none" stroke="black" d="M103.13,-137.24C117.35,-116.38 140.95,-87.08 169.5,-72 225.61,-42.37 409.29,-27.41 498.29,-21.76"/>
<ellipse fill="black" stroke="black" cx="100.89" cy="-140.63" rx="4" ry="4"/>
</g>
<!-- bgckssmis_mod -->
<g id="node4" class="node">
<title>bgckssmis_mod</title>
<g id="a_node4"><a xlink:href="../modules/bgckssmis_mod_rev.svg" xlink:title="bgckssmis_mod">
<polygon fill="none" stroke="blue" points="193.5,-252 89.5,-252 89.5,-216 193.5,-216 193.5,-252"/>
<text text-anchor="middle" x="141.5" y="-230.3" font-family="Times,serif" font-size="14.00">bgckssmis_mod</text>
</a>
</g>
</g>
<!-- bgckssmis_mod&#45;&gt;obserrors_mod -->
<g id="edge3" class="edge">
<title>bgckssmis_mod&#45;&gt;obserrors_mod</title>
<path fill="none" stroke="black" d="M152.36,-208.41C156.25,-199.48 160.63,-189.31 164.5,-180 184.34,-132.3 167.11,-104.21 207.5,-72 251.52,-36.89 415.05,-24.75 498.23,-20.79"/>
<ellipse fill="black" stroke="black" cx="150.7" cy="-212.21" rx="4" ry="4"/>
</g>
<!-- biascorrectionsat_mod -->
<g id="node5" class="node">
<title>biascorrectionsat_mod</title>
<g id="a_node5"><a xlink:href="../modules/biascorrectionsat_mod_rev.svg" xlink:title="biascorrectionsat_mod">
<polygon fill="none" stroke="blue" points="231,-324 92,-324 92,-288 231,-288 231,-324"/>
<text text-anchor="middle" x="161.5" y="-302.3" font-family="Times,serif" font-size="14.00">biascorrectionsat_mod</text>
</a>
</g>
</g>
<!-- biascorrectionsat_mod&#45;&gt;obserrors_mod -->
<g id="edge4" class="edge">
<title>biascorrectionsat_mod&#45;&gt;obserrors_mod</title>
<path fill="none" stroke="black" d="M183.28,-281.32C190.3,-272.63 197.54,-262.37 202.5,-252 238.01,-177.81 185.6,-128.37 245.5,-72 281.26,-38.35 422.34,-25.67 498.35,-21.22"/>
<ellipse fill="black" stroke="black" cx="180.56" cy="-284.57" rx="4" ry="4"/>
</g>
<!-- costfunction_mod -->
<g id="node6" class="node">
<title>costfunction_mod</title>
<g id="a_node6"><a xlink:href="../modules/costfunction_mod_rev.svg" xlink:title="costfunction_mod">
<polygon fill="none" stroke="blue" points="269.5,-396 155.5,-396 155.5,-360 269.5,-360 269.5,-396"/>
<text text-anchor="middle" x="212.5" y="-374.3" font-family="Times,serif" font-size="14.00">costfunction_mod</text>
</a>
</g>
</g>
<!-- costfunction_mod&#45;&gt;obserrors_mod -->
<g id="edge5" class="edge">
<title>costfunction_mod&#45;&gt;obserrors_mod</title>
<path fill="none" stroke="black" d="M227.07,-352.84C231.9,-344.01 236.95,-333.78 240.5,-324 254.3,-285.98 259.5,-275.45 259.5,-235 259.5,-235 259.5,-235 259.5,-161 259.5,-120.03 253.6,-100.01 283.5,-72 313.99,-43.44 430.61,-28.92 498.22,-22.76"/>
<ellipse fill="black" stroke="black" cx="225.06" cy="-356.41" rx="4" ry="4"/>
</g>
<!-- innovation_mod -->
<g id="node7" class="node">
<title>innovation_mod</title>
<g id="a_node7"><a xlink:href="../modules/innovation_mod_rev.svg" xlink:title="innovation_mod">
<polygon fill="none" stroke="blue" points="307.5,-468 203.5,-468 203.5,-432 307.5,-432 307.5,-468"/>
<text text-anchor="middle" x="255.5" y="-446.3" font-family="Times,serif" font-size="14.00">innovation_mod</text>
</a>
</g>
</g>
<!-- innovation_mod&#45;&gt;obserrors_mod -->
<g id="edge6" class="edge">
<title>innovation_mod&#45;&gt;obserrors_mod</title>
<path fill="none" stroke="black" d="M267.34,-424.69C279.76,-396.92 297.5,-349.77 297.5,-307 297.5,-307 297.5,-307 297.5,-161 297.5,-120.03 292.06,-100.49 321.5,-72 346.37,-47.94 439.59,-32.31 498.26,-24.62"/>
<ellipse fill="black" stroke="black" cx="265.66" cy="-428.36" rx="4" ry="4"/>
</g>
<!-- obsoperators_mod -->
<g id="node8" class="node">
<title>obsoperators_mod</title>
<g id="a_node8"><a xlink:href="../modules/obsoperators_mod_rev.svg" xlink:title="obsoperators_mod">
<polygon fill="none" stroke="blue" points="345.5,-540 229.5,-540 229.5,-504 345.5,-504 345.5,-540"/>
<text text-anchor="middle" x="287.5" y="-518.3" font-family="Times,serif" font-size="14.00">obsoperators_mod</text>
</a>
</g>
</g>
<!-- obsoperators_mod&#45;&gt;obserrors_mod -->
<g id="edge7" class="edge">
<title>obsoperators_mod&#45;&gt;obserrors_mod</title>
<path fill="none" stroke="black" d="M302.62,-496.9C307.63,-488.07 312.85,-477.83 316.5,-468 330.58,-430.08 335.5,-419.45 335.5,-379 335.5,-379 335.5,-379 335.5,-161 335.5,-120.03 330.7,-101.13 359.5,-72 395.98,-35.1 456.01,-23.38 498.4,-19.92"/>
<ellipse fill="black" stroke="black" cx="300.52" cy="-500.49" rx="4" ry="4"/>
</g>
<!-- ominusf_mod -->
<g id="node9" class="node">
<title>ominusf_mod</title>
<g id="a_node9"><a xlink:href="../modules/ominusf_mod_rev.svg" xlink:title="ominusf_mod">
<polygon fill="none" stroke="blue" points="420,-612 327,-612 327,-576 420,-576 420,-612"/>
<text text-anchor="middle" x="373.5" y="-590.3" font-family="Times,serif" font-size="14.00">ominusf_mod</text>
</a>
</g>
</g>
<!-- ominusf_mod&#45;&gt;obserrors_mod -->
<g id="edge8" class="edge">
<title>ominusf_mod&#45;&gt;obserrors_mod</title>
<path fill="none" stroke="black" d="M373.5,-567.78C373.5,-539.39 373.5,-491.89 373.5,-451 373.5,-451 373.5,-451 373.5,-161 373.5,-120.55 365.65,-102.25 392.5,-72 419.21,-41.9 463.75,-28.88 498.25,-23.26"/>
<ellipse fill="black" stroke="black" cx="373.5" cy="-571.95" rx="4" ry="4"/>
</g>
<!-- midas_midas_analysiserroroi -->
<g id="node10" class="node">
<title>midas_midas_analysiserroroi</title>
<g id="a_node10"><a xlink:href="../programs/midas_analysiserroroi.html" xlink:title="midas_midas_analysiserroroi">
<polygon fill="gray" stroke="green" points="577.5,-108 401.5,-108 401.5,-72 577.5,-72 577.5,-108"/>
<text text-anchor="middle" x="489.5" y="-86.3" font-family="Times,serif" font-size="14.00">midas_midas_analysiserroroi</text>
</a>
</g>
</g>
<!-- midas_midas_analysiserroroi&#45;&gt;obserrors_mod -->
<g id="edge9" class="edge">
<title>midas_midas_analysiserroroi&#45;&gt;obserrors_mod</title>
<path fill="none" stroke="black" d="M509.13,-65.31C517.06,-55.73 526.05,-44.89 533.33,-36.1"/>
<ellipse fill="black" stroke="black" cx="506.39" cy="-68.62" rx="4" ry="4"/>
</g>
<!-- midas_midas_diaghbht -->
<g id="node11" class="node">
<title>midas_midas_diaghbht</title>
<g id="a_node11"><a xlink:href="../programs/midas_diaghbht.html" xlink:title="midas_midas_diaghbht">
<polygon fill="gray" stroke="green" points="615,-180 472,-180 472,-144 615,-144 615,-180"/>
<text text-anchor="middle" x="543.5" y="-158.3" font-family="Times,serif" font-size="14.00">midas_midas_diaghbht</text>
</a>
</g>
</g>
<!-- midas_midas_diaghbht&#45;&gt;obserrors_mod -->
<g id="edge10" class="edge">
<title>midas_midas_diaghbht&#45;&gt;obserrors_mod</title>
<path fill="none" stroke="black" d="M567.95,-137.91C575.38,-129.31 582.61,-118.96 586.5,-108 591.85,-92.92 591.49,-87.2 586.5,-72 582.08,-58.54 572.79,-45.69 564.39,-36.01"/>
<ellipse fill="black" stroke="black" cx="565.23" cy="-140.88" rx="4" ry="4"/>
</g>
<!-- midas_midas_ensembleh -->
<g id="node12" class="node">
<title>midas_midas_ensembleh</title>
<g id="a_node12"><a xlink:href="../programs/midas_ensembleh.html" xlink:title="midas_midas_ensembleh">
<polygon fill="gray" stroke="green" points="653.5,-252 499.5,-252 499.5,-216 653.5,-216 653.5,-252"/>
<text text-anchor="middle" x="576.5" y="-230.3" font-family="Times,serif" font-size="14.00">midas_midas_ensembleh</text>
</a>
</g>
</g>
<!-- midas_midas_ensembleh&#45;&gt;obserrors_mod -->
<g id="edge11" class="edge">
<title>midas_midas_ensembleh&#45;&gt;obserrors_mod</title>
<path fill="none" stroke="black" d="M604.38,-209.7C612.45,-201.27 620.23,-191.08 624.5,-180 630.26,-165.07 626.96,-159.81 624.5,-144 619.33,-110.81 619.12,-100.6 601.5,-72 593.1,-58.35 580.44,-45.68 569.49,-36.15"/>
<ellipse fill="black" stroke="black" cx="601.06" cy="-212.98" rx="4" ry="4"/>
</g>
<!-- midas_midas_gencoeff -->
<g id="node13" class="node">
<title>midas_midas_gencoeff</title>
<g id="a_node13"><a xlink:href="../programs/midas_gencoeff.html" xlink:title="midas_midas_gencoeff">
<polygon fill="gray" stroke="green" points="691,-324 548,-324 548,-288 691,-288 691,-324"/>
<text text-anchor="middle" x="619.5" y="-302.3" font-family="Times,serif" font-size="14.00">midas_midas_gencoeff</text>
</a>
</g>
</g>
<!-- midas_midas_gencoeff&#45;&gt;obserrors_mod -->
<g id="edge12" class="edge">
<title>midas_midas_gencoeff&#45;&gt;obserrors_mod</title>
<path fill="none" stroke="black" d="M643.95,-281.91C651.38,-273.31 658.61,-262.96 662.5,-252 667.85,-236.92 664.61,-231.86 662.5,-216 653.76,-150.27 661.66,-126.23 623.5,-72 613.04,-57.13 597.01,-45.07 582.36,-36.22"/>
<ellipse fill="black" stroke="black" cx="641.23" cy="-284.88" rx="4" ry="4"/>
</g>
<!-- midas_midas_letkf -->
<g id="node14" class="node">
<title>midas_midas_letkf</title>
<g id="a_node14"><a xlink:href="../programs/midas_letkf.html" xlink:title="midas_midas_letkf">
<polygon fill="gray" stroke="green" points="729.5,-396 607.5,-396 607.5,-360 729.5,-360 729.5,-396"/>
<text text-anchor="middle" x="668.5" y="-374.3" font-family="Times,serif" font-size="14.00">midas_midas_letkf</text>
</a>
</g>
</g>
<!-- midas_midas_letkf&#45;&gt;obserrors_mod -->
<g id="edge13" class="edge">
<title>midas_midas_letkf&#45;&gt;obserrors_mod</title>
<path fill="none" stroke="black" d="M685.52,-352.66C690.98,-343.95 696.61,-333.84 700.5,-324 715.38,-286.39 719.5,-275.45 719.5,-235 719.5,-235 719.5,-235 719.5,-161 719.5,-96.91 647.61,-56.34 596.79,-35.66"/>
<ellipse fill="black" stroke="black" cx="683.19" cy="-356.26" rx="4" ry="4"/>
</g>
<!-- midas_midas_obsimpact -->
<g id="node15" class="node">
<title>midas_midas_obsimpact</title>
<g id="a_node15"><a xlink:href="../programs/midas_obsimpact.html" xlink:title="midas_midas_obsimpact">
<polygon fill="gray" stroke="green" points="767.5,-468 615.5,-468 615.5,-432 767.5,-432 767.5,-468"/>
<text text-anchor="middle" x="691.5" y="-446.3" font-family="Times,serif" font-size="14.00">midas_midas_obsimpact</text>
</a>
</g>
</g>
<!-- midas_midas_obsimpact&#45;&gt;obserrors_mod -->
<g id="edge14" class="edge">
<title>midas_midas_obsimpact&#45;&gt;obserrors_mod</title>
<path fill="none" stroke="black" d="M716.86,-425.69C724.87,-417.08 733.05,-406.78 738.5,-396 756.74,-359.9 757.5,-347.45 757.5,-307 757.5,-307 757.5,-307 757.5,-161 757.5,-83.76 658.81,-45.69 596.74,-29.38"/>
<ellipse fill="black" stroke="black" cx="713.87" cy="-428.77" rx="4" ry="4"/>
</g>
<!-- midas_midas_obsselection -->
<g id="node16" class="node">
<title>midas_midas_obsselection</title>
<g id="a_node16"><a xlink:href="../programs/midas_obsselection.html" xlink:title="midas_midas_obsselection">
<polygon fill="gray" stroke="green" points="805,-540 642,-540 642,-504 805,-504 805,-540"/>
<text text-anchor="middle" x="723.5" y="-518.3" font-family="Times,serif" font-size="14.00">midas_midas_obsselection</text>
</a>
</g>
</g>
<!-- midas_midas_obsselection&#45;&gt;obserrors_mod -->
<g id="edge15" class="edge">
<title>midas_midas_obsselection&#45;&gt;obserrors_mod</title>
<path fill="none" stroke="black" d="M751.84,-498.49C760.98,-489.86 770.33,-479.35 776.5,-468 795.82,-432.46 795.5,-419.45 795.5,-379 795.5,-379 795.5,-379 795.5,-161 795.5,-70.33 669.12,-36.75 596.79,-24.95"/>
<ellipse fill="black" stroke="black" cx="748.86" cy="-501.18" rx="4" ry="4"/>
</g>
<!-- midas_midas_prepcma -->
<g id="node17" class="node">
<title>midas_midas_prepcma</title>
<g id="a_node17"><a xlink:href="../programs/midas_prepcma.html" xlink:title="midas_midas_prepcma">
<polygon fill="gray" stroke="green" points="905,-612 762,-612 762,-576 905,-576 905,-612"/>
<text text-anchor="middle" x="833.5" y="-590.3" font-family="Times,serif" font-size="14.00">midas_midas_prepcma</text>
</a>
</g>
</g>
<!-- midas_midas_prepcma&#45;&gt;obserrors_mod -->
<g id="edge16" class="edge">
<title>midas_midas_prepcma&#45;&gt;obserrors_mod</title>
<path fill="none" stroke="black" d="M833.5,-567.78C833.5,-539.39 833.5,-491.89 833.5,-451 833.5,-451 833.5,-451 833.5,-161 833.5,-56.5 678.44,-28.9 596.67,-21.62"/>
<ellipse fill="black" stroke="black" cx="833.5" cy="-571.95" rx="4" ry="4"/>
</g>
<!-- midas_midas_var1d -->
<g id="node18" class="node">
<title>midas_midas_var1d</title>
<g id="a_node18"><a xlink:href="../programs/midas_var1d.html" xlink:title="midas_midas_var1d">
<polygon fill="gray" stroke="green" points="987.5,-108 861.5,-108 861.5,-72 987.5,-72 987.5,-108"/>
<text text-anchor="middle" x="924.5" y="-86.3" font-family="Times,serif" font-size="14.00">midas_midas_var1d</text>
</a>
</g>
</g>
<!-- midas_midas_var1d&#45;&gt;obserrors_mod -->
<g id="edge17" class="edge">
<title>midas_midas_var1d&#45;&gt;obserrors_mod</title>
<path fill="none" stroke="black" d="M852.96,-73.1C851.12,-72.72 849.3,-72.36 847.5,-72 759.44,-54.51 656.26,-36.91 596.73,-27.04"/>
<ellipse fill="black" stroke="black" cx="857.18" cy="-73.97" rx="4" ry="4"/>
</g>
<!-- midas_midas_var -->
<g id="node19" class="node">
<title>midas_midas_var</title>
<g id="a_node19"><a xlink:href="../programs/midas_var.html" xlink:title="midas_midas_var">
<polygon fill="gray" stroke="green" points="1072,-180 959,-180 959,-144 1072,-144 1072,-180"/>
<text text-anchor="middle" x="1015.5" y="-158.3" font-family="Times,serif" font-size="14.00">midas_midas_var</text>
</a>
</g>
</g>
<!-- midas_midas_var&#45;&gt;obserrors_mod -->
<g id="edge18" class="edge">
<title>midas_midas_var&#45;&gt;obserrors_mod</title>
<path fill="none" stroke="black" d="M1017.44,-135.56C1017.47,-115.31 1013.87,-87.83 996.5,-72 967.35,-45.43 707.18,-27.91 596.73,-21.61"/>
<ellipse fill="black" stroke="black" cx="1017.33" cy="-139.74" rx="4" ry="4"/>
</g>
</g>
</svg>
