<?xml version="1.0" encoding="UTF-8" standalone="no"?>
<!DOCTYPE svg PUBLIC "-//W3C//DTD SVG 1.1//EN"
 "http://www.w3.org/Graphics/SVG/1.1/DTD/svg11.dtd">
<!-- Generated by graphviz version 3.0.0 (20220315.2325)
 -->
<!-- Title: obserrors_mod Pages: 1 -->
<svg width="1070pt" height="673pt"
 viewBox="0.00 0.00 1070.00 673.00" xmlns="http://www.w3.org/2000/svg" xmlns:xlink="http://www.w3.org/1999/xlink">
<g id="graph0" class="graph" transform="scale(1 1) rotate(0) translate(4 669)">
<title>obserrors_mod</title>
<polygon fill="white" stroke="transparent" points="-4,4 -4,-669 1066,-669 1066,4 -4,4"/>
<text text-anchor="middle" x="531" y="-37.8" font-family="Times,serif" font-size="14.00">Red boxes indicate modules with dependencies not shown</text>
<text text-anchor="middle" x="531" y="-22.8" font-family="Times,serif" font-size="14.00">Lower level dependencies can be shown by clicking on a red box</text>
<text text-anchor="middle" x="531" y="-7.8" font-family="Times,serif" font-size="14.00">Shaded boxes indicate modules with no dependencies</text>
<!-- obserrors_mod -->
<g id="node1" class="node">
<title>obserrors_mod</title>
<g id="a_node1"><a xlink:href="obserrors_mod.html" xlink:title="obserrors_mod">
<polygon fill="none" stroke="black" points="597,-665 499,-665 499,-629 597,-629 597,-665"/>
<text text-anchor="middle" x="548" y="-643.3" font-family="Times,serif" font-size="14.00">obserrors_mod</text>
</a>
</g>
</g>
<!-- bufr_mod -->
<g id="node2" class="node">
<title>bufr_mod</title>
<g id="a_node2"><a xlink:href="bufr_mod.html" xlink:title="bufr_mod">
<polygon fill="gray" stroke="black" points="70,-593 0,-593 0,-557 70,-557 70,-593"/>
<text text-anchor="middle" x="35" y="-571.3" font-family="Times,serif" font-size="14.00">bufr_mod</text>
</a>
</g>
</g>
<!-- obserrors_mod&#45;&gt;bufr_mod -->
<g id="edge1" class="edge">
<title>obserrors_mod&#45;&gt;bufr_mod</title>
<path fill="none" stroke="black" d="M498.98,-643.95C413.68,-639.59 232.82,-626.88 84,-593 82.57,-592.68 81.13,-592.32 79.68,-591.95"/>
<polygon fill="black" stroke="black" points="80.64,-588.58 70.06,-589.2 78.71,-595.31 80.64,-588.58"/>
</g>
<!-- codtyp_mod -->
<g id="node3" class="node">
<title>codtyp_mod</title>
<g id="a_node3"><a xlink:href="../modules/codtyp_mod.svg" xlink:title="codtyp_mod">
<polygon fill="none" stroke="red" points="124,-521 40,-521 40,-485 124,-485 124,-521"/>
<text text-anchor="middle" x="82" y="-499.3" font-family="Times,serif" font-size="14.00">codtyp_mod</text>
</a>
</g>
</g>
<!-- obserrors_mod&#45;&gt;codtyp_mod -->
<g id="edge2" class="edge">
<title>obserrors_mod&#45;&gt;codtyp_mod</title>
<path fill="none" stroke="black" d="M498.93,-644.82C403.45,-641.69 196.88,-630.65 138,-593 115.4,-578.55 100.29,-551.36 91.52,-530.82"/>
<polygon fill="black" stroke="black" points="94.7,-529.33 87.72,-521.36 88.2,-531.94 94.7,-529.33"/>
</g>
<!-- columndata_mod -->
<g id="node4" class="node">
<title>columndata_mod</title>
<g id="a_node4"><a xlink:href="../modules/columndata_mod.svg" xlink:title="columndata_mod">
<polygon fill="none" stroke="red" points="161.5,-449 50.5,-449 50.5,-413 161.5,-413 161.5,-449"/>
<text text-anchor="middle" x="106" y="-427.3" font-family="Times,serif" font-size="14.00">columndata_mod</text>
</a>
</g>
</g>
<!-- obserrors_mod&#45;&gt;columndata_mod -->
<g id="edge3" class="edge">
<title>obserrors_mod&#45;&gt;columndata_mod</title>
<path fill="none" stroke="black" d="M498.75,-644.97C409.38,-642.15 225.15,-631.68 176,-593 135.4,-561.05 154.3,-532.07 133,-485 129.04,-476.25 124.39,-466.86 120.08,-458.46"/>
<polygon fill="black" stroke="black" points="123.13,-456.73 115.41,-449.47 116.92,-459.96 123.13,-456.73"/>
</g>
<!-- earthconstants_mod -->
<g id="node5" class="node">
<title>earthconstants_mod</title>
<g id="a_node5"><a xlink:href="../modules/earthconstants_mod.svg" xlink:title="earthconstants_mod">
<polygon fill="none" stroke="red" points="199.5,-377 74.5,-377 74.5,-341 199.5,-341 199.5,-377"/>
<text text-anchor="middle" x="137" y="-355.3" font-family="Times,serif" font-size="14.00">earthconstants_mod</text>
</a>
</g>
</g>
<!-- obserrors_mod&#45;&gt;earthconstants_mod -->
<g id="edge4" class="edge">
<title>obserrors_mod&#45;&gt;earthconstants_mod</title>
<path fill="none" stroke="black" d="M498.74,-644.69C416.12,-641.47 254.65,-630.43 214,-593 153.42,-537.21 201.94,-488.91 170,-413 166.11,-403.76 160.72,-394.27 155.42,-385.92"/>
<polygon fill="black" stroke="black" points="158.22,-383.8 149.79,-377.38 152.37,-387.66 158.22,-383.8"/>
</g>
<!-- gps_mod -->
<g id="node6" class="node">
<title>gps_mod</title>
<g id="a_node6"><a xlink:href="../modules/gps_mod.svg" xlink:title="gps_mod">
<polygon fill="none" stroke="red" points="238,-305 172,-305 172,-269 238,-269 238,-305"/>
<text text-anchor="middle" x="205" y="-283.3" font-family="Times,serif" font-size="14.00">gps_mod</text>
</a>
</g>
</g>
<!-- obserrors_mod&#45;&gt;gps_mod -->
<g id="edge5" class="edge">
<title>obserrors_mod&#45;&gt;gps_mod</title>
<path fill="none" stroke="black" d="M498.72,-643.45C424.08,-638.57 287.3,-625.38 252,-593 221.81,-565.31 228,-544.97 228,-504 228,-504 228,-504 228,-430 228,-389.7 218.86,-343.78 212.1,-315.34"/>
<polygon fill="black" stroke="black" points="215.43,-314.22 209.65,-305.34 208.63,-315.89 215.43,-314.22"/>
</g>
<!-- gridstatevectorfileio_mod -->
<g id="node7" class="node">
<title>gridstatevectorfileio_mod</title>
<g id="a_node7"><a xlink:href="../modules/gridstatevectorfileio_mod.svg" xlink:title="gridstatevectorfileio_mod">
<polygon fill="none" stroke="red" points="275.5,-233 120.5,-233 120.5,-197 275.5,-197 275.5,-233"/>
<text text-anchor="middle" x="198" y="-211.3" font-family="Times,serif" font-size="14.00">gridstatevectorfileio_mod</text>
</a>
</g>
</g>
<!-- obserrors_mod&#45;&gt;gridstatevectorfileio_mod -->
<g id="edge6" class="edge">
<title>obserrors_mod&#45;&gt;gridstatevectorfileio_mod</title>
<path fill="none" stroke="black" d="M499,-642C432.79,-635.62 319.64,-620.89 290,-593 260.16,-564.92 266,-544.97 266,-504 266,-504 266,-504 266,-358 266,-317.55 265.62,-304.91 247,-269 241.61,-258.61 233.63,-248.74 225.67,-240.41"/>
<polygon fill="black" stroke="black" points="227.99,-237.78 218.44,-233.21 223.06,-242.74 227.99,-237.78"/>
</g>
<!-- gridstatevector_mod -->
<g id="node8" class="node">
<title>gridstatevector_mod</title>
<g id="a_node8"><a xlink:href="../modules/gridstatevector_mod.svg" xlink:title="gridstatevector_mod">
<polygon fill="none" stroke="red" points="313.5,-161 186.5,-161 186.5,-125 313.5,-125 313.5,-161"/>
<text text-anchor="middle" x="250" y="-139.3" font-family="Times,serif" font-size="14.00">gridstatevector_mod</text>
</a>
</g>
</g>
<!-- obserrors_mod&#45;&gt;gridstatevector_mod -->
<g id="edge7" class="edge">
<title>obserrors_mod&#45;&gt;gridstatevector_mod</title>
<path fill="none" stroke="black" d="M498.8,-640.03C441.62,-632.11 352,-616.36 328,-593 298.64,-564.42 304,-544.97 304,-504 304,-504 304,-504 304,-286 304,-245.46 299.63,-234.41 284,-197 280.06,-187.57 274.46,-177.95 268.94,-169.55"/>
<polygon fill="black" stroke="black" points="271.83,-167.57 263.29,-161.29 266.05,-171.52 271.83,-167.57"/>
</g>
<!-- horizontalcoord_mod -->
<g id="node9" class="node">
<title>horizontalcoord_mod</title>
<g id="a_node9"><a xlink:href="../modules/horizontalcoord_mod.svg" xlink:title="horizontalcoord_mod">
<polygon fill="none" stroke="red" points="408.5,-89 275.5,-89 275.5,-53 408.5,-53 408.5,-89"/>
<text text-anchor="middle" x="342" y="-67.3" font-family="Times,serif" font-size="14.00">horizontalcoord_mod</text>
</a>
</g>
</g>
<!-- obserrors_mod&#45;&gt;horizontalcoord_mod -->
<g id="edge8" class="edge">
<title>obserrors_mod&#45;&gt;horizontalcoord_mod</title>
<path fill="none" stroke="black" d="M498.68,-645.47C456.19,-642.26 396.29,-630.69 361,-593 333.36,-563.47 342,-544.45 342,-504 342,-504 342,-504 342,-214 342,-174 342,-127.65 342,-99.08"/>
<polygon fill="black" stroke="black" points="345.5,-99.05 342,-89.05 338.5,-99.05 345.5,-99.05"/>
</g>
<!-- mathphysconstants_mod -->
<g id="node10" class="node">
<title>mathphysconstants_mod</title>
<g id="a_node10"><a xlink:href="mathphysconstants_mod.html" xlink:title="mathphysconstants_mod">
<polygon fill="gray" stroke="black" points="520,-593 370,-593 370,-557 520,-557 520,-593"/>
<text text-anchor="middle" x="445" y="-571.3" font-family="Times,serif" font-size="14.00">mathphysconstants_mod</text>
</a>
</g>
</g>
<!-- obserrors_mod&#45;&gt;mathphysconstants_mod -->
<g id="edge9" class="edge">
<title>obserrors_mod&#45;&gt;mathphysconstants_mod</title>
<path fill="none" stroke="black" d="M522.8,-628.88C509.59,-619.89 493.21,-608.76 478.89,-599.03"/>
<polygon fill="black" stroke="black" points="480.53,-595.92 470.29,-593.19 476.6,-601.71 480.53,-595.92"/>
</g>
<!-- midasmpi_mod -->
<g id="node11" class="node">
<title>midasmpi_mod</title>
<g id="a_node11"><a xlink:href="../modules/midasmpi_mod.svg" xlink:title="midasmpi_mod">
<polygon fill="none" stroke="red" points="557.5,-521 456.5,-521 456.5,-485 557.5,-485 557.5,-521"/>
<text text-anchor="middle" x="507" y="-499.3" font-family="Times,serif" font-size="14.00">midasmpi_mod</text>
</a>
</g>
</g>
<!-- obserrors_mod&#45;&gt;midasmpi_mod -->
<g id="edge10" class="edge">
<title>obserrors_mod&#45;&gt;midasmpi_mod</title>
<path fill="none" stroke="black" d="M545.27,-628.7C542.2,-610.59 536.61,-581.44 529,-557 526.27,-548.25 522.67,-538.94 519.16,-530.61"/>
<polygon fill="black" stroke="black" points="522.35,-529.15 515.16,-521.37 515.92,-531.94 522.35,-529.15"/>
</g>
<!-- obsfiles_mod -->
<g id="node12" class="node">
<title>obsfiles_mod</title>
<g id="a_node12"><a xlink:href="../modules/obsfiles_mod.svg" xlink:title="obsfiles_mod">
<polygon fill="none" stroke="red" points="595.5,-449 506.5,-449 506.5,-413 595.5,-413 595.5,-449"/>
<text text-anchor="middle" x="551" y="-427.3" font-family="Times,serif" font-size="14.00">obsfiles_mod</text>
</a>
</g>
</g>
<!-- obserrors_mod&#45;&gt;obsfiles_mod -->
<g id="edge11" class="edge">
<title>obserrors_mod&#45;&gt;obsfiles_mod</title>
<path fill="none" stroke="black" d="M552.79,-628.57C560.29,-598.99 573.23,-537.1 566,-485 564.82,-476.48 562.61,-467.39 560.25,-459.2"/>
<polygon fill="black" stroke="black" points="563.52,-457.94 557.24,-449.41 556.83,-459.99 563.52,-457.94"/>
</g>
<!-- obsspacedata_mod -->
<g id="node13" class="node">
<title>obsspacedata_mod</title>
<g id="a_node13"><a xlink:href="../modules/obsspacedata_mod.svg" xlink:title="obsspacedata_mod">
<polygon fill="none" stroke="red" points="634,-377 516,-377 516,-341 634,-341 634,-377"/>
<text text-anchor="middle" x="575" y="-355.3" font-family="Times,serif" font-size="14.00">obsspacedata_mod</text>
</a>
</g>
</g>
<!-- obserrors_mod&#45;&gt;obsspacedata_mod -->
<g id="edge12" class="edge">
<title>obserrors_mod&#45;&gt;obsspacedata_mod</title>
<path fill="none" stroke="black" d="M559.85,-628.57C566.13,-618.56 573.47,-605.53 578,-593 600.11,-531.84 598.2,-513.78 604,-449 605.43,-433.06 607.96,-428.5 604,-413 601.62,-403.7 597.24,-394.27 592.58,-386"/>
<polygon fill="black" stroke="black" points="595.46,-383.99 587.31,-377.22 589.46,-387.59 595.46,-383.99"/>
</g>
<!-- obssubspacedata_mod -->
<g id="node14" class="node">
<title>obssubspacedata_mod</title>
<g id="a_node14"><a xlink:href="../modules/obssubspacedata_mod.svg" xlink:title="obssubspacedata_mod">
<polygon fill="none" stroke="red" points="672,-305 536,-305 536,-269 672,-269 672,-305"/>
<text text-anchor="middle" x="604" y="-283.3" font-family="Times,serif" font-size="14.00">obssubspacedata_mod</text>
</a>
</g>
</g>
<!-- obserrors_mod&#45;&gt;obssubspacedata_mod -->
<g id="edge13" class="edge">
<title>obserrors_mod&#45;&gt;obssubspacedata_mod</title>
<path fill="none" stroke="black" d="M575.02,-628.96C608.73,-605.37 662,-559.33 662,-504 662,-504 662,-504 662,-430 662,-389.55 659.58,-377.89 643,-341 638.64,-331.31 632.31,-321.66 626,-313.31"/>
<polygon fill="black" stroke="black" points="628.73,-311.11 619.78,-305.44 623.23,-315.45 628.73,-311.11"/>
</g>
<!-- rmatrix_mod -->
<g id="node15" class="node">
<title>rmatrix_mod</title>
<g id="a_node15"><a xlink:href="../modules/rmatrix_mod.svg" xlink:title="rmatrix_mod">
<polygon fill="none" stroke="red" points="709.5,-233 622.5,-233 622.5,-197 709.5,-197 709.5,-233"/>
<text text-anchor="middle" x="666" y="-211.3" font-family="Times,serif" font-size="14.00">rmatrix_mod</text>
</a>
</g>
</g>
<!-- obserrors_mod&#45;&gt;rmatrix_mod -->
<g id="edge14" class="edge">
<title>obserrors_mod&#45;&gt;rmatrix_mod</title>
<path fill="none" stroke="black" d="M589.13,-628.9C634.15,-607.12 700,-564.85 700,-504 700,-504 700,-504 700,-358 700,-316.91 686.37,-270.92 676.37,-242.72"/>
<polygon fill="black" stroke="black" points="679.6,-241.36 672.88,-233.17 673.03,-243.76 679.6,-241.36"/>
</g>
<!-- statetocolumn_mod -->
<g id="node16" class="node">
<title>statetocolumn_mod</title>
<g id="a_node16"><a xlink:href="../modules/statetocolumn_mod.svg" xlink:title="statetocolumn_mod">
<polygon fill="none" stroke="red" points="748,-161 624,-161 624,-125 748,-125 748,-161"/>
<text text-anchor="middle" x="686" y="-139.3" font-family="Times,serif" font-size="14.00">statetocolumn_mod</text>
</a>
</g>
</g>
<!-- obserrors_mod&#45;&gt;statetocolumn_mod -->
<g id="edge15" class="edge">
<title>obserrors_mod&#45;&gt;statetocolumn_mod</title>
<path fill="none" stroke="black" d="M597.42,-632.56C653.72,-613.89 738,-574.21 738,-504 738,-504 738,-504 738,-286 738,-245.46 733.12,-234.62 718,-197 714.29,-187.77 709.08,-178.29 703.94,-169.94"/>
<polygon fill="black" stroke="black" points="706.81,-167.93 698.47,-161.4 700.92,-171.71 706.81,-167.93"/>
</g>
<!-- tovs_nl_mod -->
<g id="node17" class="node">
<title>tovs_nl_mod</title>
<g id="a_node17"><a xlink:href="../modules/tovs_nl_mod.svg" xlink:title="tovs_nl_mod">
<polygon fill="none" stroke="red" points="819.5,-89 732.5,-89 732.5,-53 819.5,-53 819.5,-89"/>
<text text-anchor="middle" x="776" y="-67.3" font-family="Times,serif" font-size="14.00">tovs_nl_mod</text>
</a>
</g>
</g>
<!-- obserrors_mod&#45;&gt;tovs_nl_mod -->
<g id="edge16" class="edge">
<title>obserrors_mod&#45;&gt;tovs_nl_mod</title>
<path fill="none" stroke="black" d="M597.19,-637.9C664.22,-623.74 776,-587.59 776,-504 776,-504 776,-504 776,-214 776,-174 776,-127.65 776,-99.08"/>
<polygon fill="black" stroke="black" points="779.5,-99.05 776,-89.05 772.5,-99.05 779.5,-99.05"/>
</g>
<!-- utilities_mod -->
<g id="node18" class="node">
<title>utilities_mod</title>
<g id="a_node18"><a xlink:href="../modules/utilities_mod.svg" xlink:title="utilities_mod">
<polygon fill="none" stroke="red" points="892,-593 804,-593 804,-557 892,-557 892,-593"/>
<text text-anchor="middle" x="848" y="-571.3" font-family="Times,serif" font-size="14.00">utilities_mod</text>
</a>
</g>
</g>
<!-- obserrors_mod&#45;&gt;utilities_mod -->
<g id="edge17" class="edge">
<title>obserrors_mod&#45;&gt;utilities_mod</title>
<path fill="none" stroke="black" d="M597.37,-636.24C646.44,-626.28 723.75,-609.94 790,-593 791.26,-592.68 792.53,-592.35 793.81,-592.01"/>
<polygon fill="black" stroke="black" points="795.02,-595.31 803.75,-589.31 793.19,-588.55 795.02,-595.31"/>
</g>
<!-- varnamelist_mod -->
<g id="node19" class="node">
<title>varnamelist_mod</title>
<g id="a_node19"><a xlink:href="../modules/varnamelist_mod.svg" xlink:title="varnamelist_mod">
<polygon fill="none" stroke="red" points="975,-521 865,-521 865,-485 975,-485 975,-521"/>
<text text-anchor="middle" x="920" y="-499.3" font-family="Times,serif" font-size="14.00">varnamelist_mod</text>
</a>
</g>
</g>
<!-- obserrors_mod&#45;&gt;varnamelist_mod -->
<g id="edge18" class="edge">
<title>obserrors_mod&#45;&gt;varnamelist_mod</title>
<path fill="none" stroke="black" d="M597.06,-645.31C683.52,-643.04 858,-633.44 901,-593 917.58,-577.4 921.52,-551.16 921.79,-531.21"/>
<polygon fill="black" stroke="black" points="925.29,-531.1 921.63,-521.15 918.29,-531.21 925.29,-531.1"/>
</g>
<!-- verticalcoord_mod -->
<g id="node20" class="node">
<title>verticalcoord_mod</title>
<g id="a_node20"><a xlink:href="../modules/verticalcoord_mod.svg" xlink:title="verticalcoord_mod">
<polygon fill="none" stroke="red" points="1062,-449 944,-449 944,-413 1062,-413 1062,-449"/>
<text text-anchor="middle" x="1003" y="-427.3" font-family="Times,serif" font-size="14.00">verticalcoord_mod</text>
</a>
</g>
</g>
<!-- obserrors_mod&#45;&gt;verticalcoord_mod -->
<g id="edge19" class="edge">
<title>obserrors_mod&#45;&gt;verticalcoord_mod</title>
<path fill="none" stroke="black" d="M597.08,-643.45C685.81,-638.13 868.85,-623.71 924,-593 960.39,-572.74 965.79,-558.46 984,-521 993.47,-501.52 998.25,-477.38 1000.64,-459.16"/>
<polygon fill="black" stroke="black" points="1004.12,-459.53 1001.79,-449.19 997.17,-458.72 1004.12,-459.53"/>
</g>
</g>
</svg>
