<?xml version="1.0" encoding="UTF-8" standalone="no"?>
<!DOCTYPE svg PUBLIC "-//W3C//DTD SVG 1.1//EN"
 "http://www.w3.org/Graphics/SVG/1.1/DTD/svg11.dtd">
<!-- Generated by graphviz version 3.0.0 (20220315.2325)
 -->
<!-- Title: obsfilter_mod Pages: 1 -->
<svg width="773pt" height="673pt"
 viewBox="0.00 0.00 773.00 673.00" xmlns="http://www.w3.org/2000/svg" xmlns:xlink="http://www.w3.org/1999/xlink">
<g id="graph0" class="graph" transform="scale(1 1) rotate(0) translate(4 669)">
<title>obsfilter_mod</title>
<polygon fill="white" stroke="transparent" points="-4,4 -4,-669 769,-669 769,4 -4,4"/>
<text text-anchor="middle" x="382.5" y="-37.8" font-family="Times,serif" font-size="14.00">Red boxes indicate modules with dependencies not shown</text>
<text text-anchor="middle" x="382.5" y="-22.8" font-family="Times,serif" font-size="14.00">Lower level dependencies can be shown by clicking on a red box</text>
<text text-anchor="middle" x="382.5" y="-7.8" font-family="Times,serif" font-size="14.00">Shaded boxes indicate modules with no dependencies</text>
<!-- obsfilter_mod -->
<g id="node1" class="node">
<title>obsfilter_mod</title>
<g id="a_node1"><a xlink:href="obsfilter_mod.html" xlink:title="obsfilter_mod">
<polygon fill="none" stroke="black" points="359,-665 267,-665 267,-629 359,-629 359,-665"/>
<text text-anchor="middle" x="313" y="-643.3" font-family="Times,serif" font-size="14.00">obsfilter_mod</text>
</a>
</g>
</g>
<!-- bufr_mod -->
<g id="node2" class="node">
<title>bufr_mod</title>
<g id="a_node2"><a xlink:href="bufr_mod.html" xlink:title="bufr_mod">
<polygon fill="gray" stroke="black" points="70,-593 0,-593 0,-557 70,-557 70,-593"/>
<text text-anchor="middle" x="35" y="-571.3" font-family="Times,serif" font-size="14.00">bufr_mod</text>
</a>
</g>
</g>
<!-- obsfilter_mod&#45;&gt;bufr_mod -->
<g id="edge1" class="edge">
<title>obsfilter_mod&#45;&gt;bufr_mod</title>
<path fill="none" stroke="black" d="M266.57,-636.77C220.05,-627.17 146.54,-611.03 84,-593 82.59,-592.59 81.17,-592.17 79.73,-591.74"/>
<polygon fill="black" stroke="black" points="80.78,-588.4 70.19,-588.71 78.66,-595.07 80.78,-588.4"/>
</g>
<!-- codeprecision_mod -->
<g id="node3" class="node">
<title>codeprecision_mod</title>
<g id="a_node3"><a xlink:href="codeprecision_mod.html" xlink:title="codeprecision_mod">
<polygon fill="gray" stroke="black" points="133,-521 11,-521 11,-485 133,-485 133,-521"/>
<text text-anchor="middle" x="72" y="-499.3" font-family="Times,serif" font-size="14.00">codeprecision_mod</text>
</a>
</g>
</g>
<!-- obsfilter_mod&#45;&gt;codeprecision_mod -->
<g id="edge2" class="edge">
<title>obsfilter_mod&#45;&gt;codeprecision_mod</title>
<path fill="none" stroke="black" d="M267,-638.51C231.87,-631.16 183.46,-617.4 147,-593 122.39,-576.53 101.38,-549.75 87.91,-529.86"/>
<polygon fill="black" stroke="black" points="90.68,-527.71 82.27,-521.27 84.83,-531.55 90.68,-527.71"/>
</g>
<!-- codtyp_mod -->
<g id="node4" class="node">
<title>codtyp_mod</title>
<g id="a_node4"><a xlink:href="../modules/codtyp_mod.svg" xlink:title="codtyp_mod">
<polygon fill="none" stroke="red" points="171,-449 87,-449 87,-413 171,-413 171,-449"/>
<text text-anchor="middle" x="129" y="-427.3" font-family="Times,serif" font-size="14.00">codtyp_mod</text>
</a>
</g>
</g>
<!-- obsfilter_mod&#45;&gt;codtyp_mod -->
<g id="edge3" class="edge">
<title>obsfilter_mod&#45;&gt;codtyp_mod</title>
<path fill="none" stroke="black" d="M266.72,-636.82C239.64,-629.26 206.63,-615.91 185,-593 166.41,-573.3 145.77,-499.45 135.52,-458.96"/>
<polygon fill="black" stroke="black" points="138.9,-458.06 133.09,-449.21 132.11,-459.76 138.9,-458.06"/>
</g>
<!-- columndata_mod -->
<g id="node5" class="node">
<title>columndata_mod</title>
<g id="a_node5"><a xlink:href="../modules/columndata_mod.svg" xlink:title="columndata_mod">
<polygon fill="none" stroke="red" points="208.5,-377 97.5,-377 97.5,-341 208.5,-341 208.5,-377"/>
<text text-anchor="middle" x="153" y="-355.3" font-family="Times,serif" font-size="14.00">columndata_mod</text>
</a>
</g>
</g>
<!-- obsfilter_mod&#45;&gt;columndata_mod -->
<g id="edge4" class="edge">
<title>obsfilter_mod&#45;&gt;columndata_mod</title>
<path fill="none" stroke="black" d="M268.75,-628.89C252.15,-620.42 234.53,-608.6 223,-593 174.11,-526.86 208.42,-490.18 180,-413 176.68,-403.99 172.21,-394.53 167.86,-386.14"/>
<polygon fill="black" stroke="black" points="170.88,-384.36 163.07,-377.2 164.71,-387.66 170.88,-384.36"/>
</g>
<!-- earthconstants_mod -->
<g id="node6" class="node">
<title>earthconstants_mod</title>
<g id="a_node6"><a xlink:href="../modules/earthconstants_mod.svg" xlink:title="earthconstants_mod">
<polygon fill="none" stroke="red" points="246.5,-305 121.5,-305 121.5,-269 246.5,-269 246.5,-305"/>
<text text-anchor="middle" x="184" y="-283.3" font-family="Times,serif" font-size="14.00">earthconstants_mod</text>
</a>
</g>
</g>
<!-- obsfilter_mod&#45;&gt;earthconstants_mod -->
<g id="edge5" class="edge">
<title>obsfilter_mod&#45;&gt;earthconstants_mod</title>
<path fill="none" stroke="black" d="M291.59,-628.86C280.99,-619.33 268.81,-606.65 261,-593 240.66,-557.44 237,-544.97 237,-504 237,-504 237,-504 237,-430 237,-389.46 232.38,-378.51 217,-341 213.2,-331.72 207.83,-322.22 202.53,-313.88"/>
<polygon fill="black" stroke="black" points="205.32,-311.75 196.88,-305.34 199.48,-315.62 205.32,-311.75"/>
</g>
<!-- gps_mod -->
<g id="node7" class="node">
<title>gps_mod</title>
<g id="a_node7"><a xlink:href="../modules/gps_mod.svg" xlink:title="gps_mod">
<polygon fill="none" stroke="red" points="285,-233 219,-233 219,-197 285,-197 285,-233"/>
<text text-anchor="middle" x="252" y="-211.3" font-family="Times,serif" font-size="14.00">gps_mod</text>
</a>
</g>
</g>
<!-- obsfilter_mod&#45;&gt;gps_mod -->
<g id="edge6" class="edge">
<title>obsfilter_mod&#45;&gt;gps_mod</title>
<path fill="none" stroke="black" d="M305.31,-628.91C294.21,-602.62 275,-550.45 275,-504 275,-504 275,-504 275,-358 275,-317.7 265.86,-271.78 259.1,-243.34"/>
<polygon fill="black" stroke="black" points="262.43,-242.22 256.65,-233.34 255.63,-243.89 262.43,-242.22"/>
</g>
<!-- midasmpi_mod -->
<g id="node8" class="node">
<title>midasmpi_mod</title>
<g id="a_node8"><a xlink:href="../modules/midasmpi_mod.svg" xlink:title="midasmpi_mod">
<polygon fill="none" stroke="red" points="322.5,-161 221.5,-161 221.5,-125 322.5,-125 322.5,-161"/>
<text text-anchor="middle" x="272" y="-139.3" font-family="Times,serif" font-size="14.00">midasmpi_mod</text>
</a>
</g>
</g>
<!-- obsfilter_mod&#45;&gt;midasmpi_mod -->
<g id="edge7" class="edge">
<title>obsfilter_mod&#45;&gt;midasmpi_mod</title>
<path fill="none" stroke="black" d="M313,-628.95C313,-602.29 313,-549.11 313,-504 313,-504 313,-504 313,-286 313,-244.41 296.56,-198.56 284.5,-170.51"/>
<polygon fill="black" stroke="black" points="287.55,-168.75 280.3,-161.03 281.15,-171.59 287.55,-168.75"/>
</g>
<!-- obsspacedata_mod -->
<g id="node9" class="node">
<title>obsspacedata_mod</title>
<g id="a_node9"><a xlink:href="../modules/obsspacedata_mod.svg" xlink:title="obsspacedata_mod">
<polygon fill="none" stroke="red" points="410,-89 292,-89 292,-53 410,-53 410,-89"/>
<text text-anchor="middle" x="351" y="-67.3" font-family="Times,serif" font-size="14.00">obsspacedata_mod</text>
</a>
</g>
</g>
<!-- obsfilter_mod&#45;&gt;obsspacedata_mod -->
<g id="edge8" class="edge">
<title>obsfilter_mod&#45;&gt;obsspacedata_mod</title>
<path fill="none" stroke="black" d="M320.69,-628.91C331.79,-602.62 351,-550.45 351,-504 351,-504 351,-504 351,-214 351,-174 351,-127.65 351,-99.08"/>
<polygon fill="black" stroke="black" points="354.5,-99.05 351,-89.05 347.5,-99.05 354.5,-99.05"/>
</g>
<!-- physicsfunctions_mod -->
<g id="node10" class="node">
<title>physicsfunctions_mod</title>
<g id="a_node10"><a xlink:href="../modules/physicsfunctions_mod.svg" xlink:title="physicsfunctions_mod">
<polygon fill="none" stroke="red" points="517,-593 379,-593 379,-557 517,-557 517,-593"/>
<text text-anchor="middle" x="448" y="-571.3" font-family="Times,serif" font-size="14.00">physicsfunctions_mod</text>
</a>
</g>
</g>
<!-- obsfilter_mod&#45;&gt;physicsfunctions_mod -->
<g id="edge9" class="edge">
<title>obsfilter_mod&#45;&gt;physicsfunctions_mod</title>
<path fill="none" stroke="black" d="M346.02,-628.88C364.08,-619.51 386.65,-607.81 405.95,-597.8"/>
<polygon fill="black" stroke="black" points="407.58,-600.9 414.85,-593.19 404.36,-594.69 407.58,-600.9"/>
</g>
<!-- radvel_mod -->
<g id="node11" class="node">
<title>radvel_mod</title>
<g id="a_node11"><a xlink:href="../modules/radvel_mod.svg" xlink:title="radvel_mod">
<polygon fill="none" stroke="red" points="555,-521 475,-521 475,-485 555,-485 555,-521"/>
<text text-anchor="middle" x="515" y="-499.3" font-family="Times,serif" font-size="14.00">radvel_mod</text>
</a>
</g>
</g>
<!-- obsfilter_mod&#45;&gt;radvel_mod -->
<g id="edge10" class="edge">
<title>obsfilter_mod&#45;&gt;radvel_mod</title>
<path fill="none" stroke="black" d="M359.25,-641.09C415.56,-634.04 505.7,-618.97 526,-593 539.72,-575.45 534.67,-549.72 527.54,-530.44"/>
<polygon fill="black" stroke="black" points="530.72,-528.96 523.72,-521.01 524.24,-531.6 530.72,-528.96"/>
</g>
<!-- tovs_nl_mod -->
<g id="node12" class="node">
<title>tovs_nl_mod</title>
<g id="a_node12"><a xlink:href="../modules/tovs_nl_mod.svg" xlink:title="tovs_nl_mod">
<polygon fill="none" stroke="red" points="609.5,-449 522.5,-449 522.5,-413 609.5,-413 609.5,-449"/>
<text text-anchor="middle" x="566" y="-427.3" font-family="Times,serif" font-size="14.00">tovs_nl_mod</text>
</a>
</g>
</g>
<!-- obsfilter_mod&#45;&gt;tovs_nl_mod -->
<g id="edge11" class="edge">
<title>obsfilter_mod&#45;&gt;tovs_nl_mod</title>
<path fill="none" stroke="black" d="M359.15,-641.11C419.01,-633.85 518.87,-618.28 545,-593 580.62,-558.55 577.22,-495.48 571.6,-459.35"/>
<polygon fill="black" stroke="black" points="574.97,-458.32 569.82,-449.07 568.07,-459.52 574.97,-458.32"/>
</g>
<!-- utilities_mod -->
<g id="node13" class="node">
<title>utilities_mod</title>
<g id="a_node13"><a xlink:href="../modules/utilities_mod.svg" xlink:title="utilities_mod">
<polygon fill="none" stroke="red" points="682,-377 594,-377 594,-341 682,-341 682,-377"/>
<text text-anchor="middle" x="638" y="-355.3" font-family="Times,serif" font-size="14.00">utilities_mod</text>
</a>
</g>
</g>
<!-- obsfilter_mod&#45;&gt;utilities_mod -->
<g id="edge12" class="edge">
<title>obsfilter_mod&#45;&gt;utilities_mod</title>
<path fill="none" stroke="black" d="M359.13,-641.99C424.42,-635.41 539.3,-620.26 570,-593 630.05,-539.67 638.38,-436.61 638.71,-387.42"/>
<polygon fill="black" stroke="black" points="642.21,-387.21 638.67,-377.23 635.21,-387.24 642.21,-387.21"/>
</g>
<!-- varnamelist_mod -->
<g id="node14" class="node">
<title>varnamelist_mod</title>
<g id="a_node14"><a xlink:href="../modules/varnamelist_mod.svg" xlink:title="varnamelist_mod">
<polygon fill="none" stroke="red" points="765,-305 655,-305 655,-269 765,-269 765,-305"/>
<text text-anchor="middle" x="710" y="-283.3" font-family="Times,serif" font-size="14.00">varnamelist_mod</text>
</a>
</g>
</g>
<!-- obsfilter_mod&#45;&gt;varnamelist_mod -->
<g id="edge13" class="edge">
<title>obsfilter_mod&#45;&gt;varnamelist_mod</title>
<path fill="none" stroke="black" d="M359.16,-644.34C417.48,-640.73 519.8,-629.28 599,-593 656.49,-566.67 710,-567.23 710,-504 710,-504 710,-504 710,-430 710,-390 710,-343.65 710,-315.08"/>
<polygon fill="black" stroke="black" points="713.5,-315.05 710,-305.05 706.5,-315.05 713.5,-315.05"/>
</g>
</g>
</svg>
