<?xml version="1.0" encoding="UTF-8" standalone="no"?>
<!DOCTYPE svg PUBLIC "-//W3C//DTD SVG 1.1//EN"
 "http://www.w3.org/Graphics/SVG/1.1/DTD/svg11.dtd">
<!-- Generated by graphviz version 3.0.0 (20220315.2325)
 -->
<!-- Title: obsfiles_mod Pages: 1 -->
<svg width="1208pt" height="673pt"
 viewBox="0.00 0.00 1208.00 673.00" xmlns="http://www.w3.org/2000/svg" xmlns:xlink="http://www.w3.org/1999/xlink">
<g id="graph0" class="graph" transform="scale(1 1) rotate(0) translate(4 669)">
<title>obsfiles_mod</title>
<polygon fill="white" stroke="transparent" points="-4,4 -4,-669 1204,-669 1204,4 -4,4"/>
<text text-anchor="middle" x="600" y="-649.8" font-family="Times,serif" font-size="14.00">Blue boxes indicate modules with reverse dependencies not shown</text>
<text text-anchor="middle" x="600" y="-634.8" font-family="Times,serif" font-size="14.00">Higher level reverse dependencies can be shown by clicking on a blue box</text>
<text text-anchor="middle" x="600" y="-619.8" font-family="Times,serif" font-size="14.00">Green boxes are programs</text>
<!-- obsfiles_mod -->
<g id="node1" class="node">
<title>obsfiles_mod</title>
<g id="a_node1"><a xlink:href="obsfiles_mod.html" xlink:title="obsfiles_mod">
<polygon fill="none" stroke="black" points="671,-36 582,-36 582,0 671,0 671,-36"/>
<text text-anchor="middle" x="626.5" y="-14.3" font-family="Times,serif" font-size="14.00">obsfiles_mod</text>
</a>
</g>
</g>
<!-- biascorrectionsat_mod -->
<g id="node2" class="node">
<title>biascorrectionsat_mod</title>
<g id="a_node2"><a xlink:href="../modules/biascorrectionsat_mod_rev.svg" xlink:title="biascorrectionsat_mod">
<polygon fill="none" stroke="blue" points="139,-108 0,-108 0,-72 139,-72 139,-108"/>
<text text-anchor="middle" x="69.5" y="-86.3" font-family="Times,serif" font-size="14.00">biascorrectionsat_mod</text>
</a>
</g>
</g>
<!-- biascorrectionsat_mod&#45;&gt;obsfiles_mod -->
<g id="edge1" class="edge">
<title>biascorrectionsat_mod&#45;&gt;obsfiles_mod</title>
<path fill="none" stroke="black" d="M147.26,-73.01C149.36,-72.66 151.44,-72.32 153.5,-72 310.24,-47.41 497.93,-29.89 581.98,-22.67"/>
<ellipse fill="black" stroke="black" cx="143.03" cy="-73.74" rx="4" ry="4"/>
</g>
<!-- innovation_mod -->
<g id="node3" class="node">
<title>innovation_mod</title>
<g id="a_node3"><a xlink:href="../modules/innovation_mod_rev.svg" xlink:title="innovation_mod">
<polygon fill="none" stroke="blue" points="198.5,-180 94.5,-180 94.5,-144 198.5,-144 198.5,-180"/>
<text text-anchor="middle" x="146.5" y="-158.3" font-family="Times,serif" font-size="14.00">innovation_mod</text>
</a>
</g>
</g>
<!-- innovation_mod&#45;&gt;obsfiles_mod -->
<g id="edge2" class="edge">
<title>innovation_mod&#45;&gt;obsfiles_mod</title>
<path fill="none" stroke="black" d="M157.58,-136.67C168.45,-115.83 187.08,-86.9 212.5,-72 274.39,-35.73 488.2,-23.86 581.91,-20.34"/>
<ellipse fill="black" stroke="black" cx="155.73" cy="-140.37" rx="4" ry="4"/>
</g>
<!-- obserrors_mod -->
<g id="node4" class="node">
<title>obserrors_mod</title>
<g id="a_node4"><a xlink:href="../modules/obserrors_mod_rev.svg" xlink:title="obserrors_mod">
<polygon fill="none" stroke="blue" points="236.5,-252 138.5,-252 138.5,-216 236.5,-216 236.5,-252"/>
<text text-anchor="middle" x="187.5" y="-230.3" font-family="Times,serif" font-size="14.00">obserrors_mod</text>
</a>
</g>
</g>
<!-- obserrors_mod&#45;&gt;obsfiles_mod -->
<g id="edge3" class="edge">
<title>obserrors_mod&#45;&gt;obsfiles_mod</title>
<path fill="none" stroke="black" d="M196.82,-208.24C213.66,-163.65 247.67,-74.23 250.5,-72 301.05,-32.04 493.68,-22.2 581.9,-19.79"/>
<ellipse fill="black" stroke="black" cx="195.4" cy="-212.02" rx="4" ry="4"/>
</g>
<!-- obsoperatorschem_mod -->
<g id="node5" class="node">
<title>obsoperatorschem_mod</title>
<g id="a_node5"><a xlink:href="../modules/obsoperatorschem_mod_rev.svg" xlink:title="obsoperatorschem_mod">
<polygon fill="none" stroke="blue" points="274.5,-324 128.5,-324 128.5,-288 274.5,-288 274.5,-324"/>
<text text-anchor="middle" x="201.5" y="-302.3" font-family="Times,serif" font-size="14.00">obsoperatorschem_mod</text>
</a>
</g>
</g>
<!-- obsoperatorschem_mod&#45;&gt;obsfiles_mod -->
<g id="edge4" class="edge">
<title>obsoperatorschem_mod&#45;&gt;obsfiles_mod</title>
<path fill="none" stroke="black" d="M224.7,-281.8C232.3,-273.08 240.16,-262.67 245.5,-252 282.29,-178.43 228.09,-127.82 288.5,-72 330.43,-33.25 500.01,-22.81 581.86,-20.01"/>
<ellipse fill="black" stroke="black" cx="221.92" cy="-284.87" rx="4" ry="4"/>
</g>
<!-- obsspacediag_mod -->
<g id="node6" class="node">
<title>obsspacediag_mod</title>
<g id="a_node6"><a xlink:href="../modules/obsspacediag_mod_rev.svg" xlink:title="obsspacediag_mod">
<polygon fill="none" stroke="blue" points="312,-396 193,-396 193,-360 312,-360 312,-396"/>
<text text-anchor="middle" x="252.5" y="-374.3" font-family="Times,serif" font-size="14.00">obsspacediag_mod</text>
</a>
</g>
</g>
<!-- obsspacediag_mod&#45;&gt;obsfiles_mod -->
<g id="edge5" class="edge">
<title>obsspacediag_mod&#45;&gt;obsfiles_mod</title>
<path fill="none" stroke="black" d="M268.96,-352.6C274.25,-343.88 279.71,-333.78 283.5,-324 298.12,-286.29 302.5,-275.45 302.5,-235 302.5,-235 302.5,-235 302.5,-161 302.5,-120.03 296.28,-99.66 326.5,-72 363.13,-38.48 507.39,-25.62 581.71,-21.15"/>
<ellipse fill="black" stroke="black" cx="266.73" cy="-356.18" rx="4" ry="4"/>
</g>
<!-- ominusf_mod -->
<g id="node7" class="node">
<title>ominusf_mod</title>
<g id="a_node7"><a xlink:href="../modules/ominusf_mod_rev.svg" xlink:title="ominusf_mod">
<polygon fill="none" stroke="blue" points="350,-468 257,-468 257,-432 350,-432 350,-468"/>
<text text-anchor="middle" x="303.5" y="-446.3" font-family="Times,serif" font-size="14.00">ominusf_mod</text>
</a>
</g>
</g>
<!-- ominusf_mod&#45;&gt;obsfiles_mod -->
<g id="edge6" class="edge">
<title>ominusf_mod&#45;&gt;obsfiles_mod</title>
<path fill="none" stroke="black" d="M314.07,-424.19C325.01,-396.24 340.5,-349.2 340.5,-307 340.5,-307 340.5,-307 340.5,-161 340.5,-120.03 334.62,-100.03 364.5,-72 395.38,-43.03 515.39,-28.43 581.75,-22.43"/>
<ellipse fill="black" stroke="black" cx="312.48" cy="-428.17" rx="4" ry="4"/>
</g>
<!-- midas_midas_analysiserroroi -->
<g id="node8" class="node">
<title>midas_midas_analysiserroroi</title>
<g id="a_node8"><a xlink:href="../programs/midas_analysiserroroi.html" xlink:title="midas_midas_analysiserroroi">
<polygon fill="gray" stroke="green" points="388.5,-540 212.5,-540 212.5,-504 388.5,-504 388.5,-540"/>
<text text-anchor="middle" x="300.5" y="-518.3" font-family="Times,serif" font-size="14.00">midas_midas_analysiserroroi</text>
</a>
</g>
</g>
<!-- midas_midas_analysiserroroi&#45;&gt;obsfiles_mod -->
<g id="edge7" class="edge">
<title>midas_midas_analysiserroroi&#45;&gt;obsfiles_mod</title>
<path fill="none" stroke="black" d="M331.96,-498.47C341.8,-489.96 351.82,-479.52 358.5,-468 378.85,-432.93 378.5,-419.54 378.5,-379 378.5,-379 378.5,-379 378.5,-161 378.5,-120.03 373.08,-100.52 402.5,-72 427.75,-47.52 524.16,-31.65 581.94,-24.12"/>
<ellipse fill="black" stroke="black" cx="328.63" cy="-501.22" rx="4" ry="4"/>
</g>
<!-- midas_midas_diaghbht -->
<g id="node9" class="node">
<title>midas_midas_diaghbht</title>
<g id="a_node9"><a xlink:href="../programs/midas_diaghbht.html" xlink:title="midas_midas_diaghbht">
<polygon fill="gray" stroke="green" points="488,-612 345,-612 345,-576 488,-576 488,-612"/>
<text text-anchor="middle" x="416.5" y="-590.3" font-family="Times,serif" font-size="14.00">midas_midas_diaghbht</text>
</a>
</g>
</g>
<!-- midas_midas_diaghbht&#45;&gt;obsfiles_mod -->
<g id="edge8" class="edge">
<title>midas_midas_diaghbht&#45;&gt;obsfiles_mod</title>
<path fill="none" stroke="black" d="M416.5,-567.78C416.5,-539.39 416.5,-491.89 416.5,-451 416.5,-451 416.5,-451 416.5,-161 416.5,-120.55 407.78,-101.45 435.5,-72 473.24,-31.91 538.42,-21.23 581.99,-18.86"/>
<ellipse fill="black" stroke="black" cx="416.5" cy="-571.95" rx="4" ry="4"/>
</g>
<!-- midas_midas_ensembleh -->
<g id="node10" class="node">
<title>midas_midas_ensembleh</title>
<g id="a_node10"><a xlink:href="../programs/midas_ensembleh.html" xlink:title="midas_midas_ensembleh">
<polygon fill="gray" stroke="green" points="598.5,-108 444.5,-108 444.5,-72 598.5,-72 598.5,-108"/>
<text text-anchor="middle" x="521.5" y="-86.3" font-family="Times,serif" font-size="14.00">midas_midas_ensembleh</text>
</a>
</g>
</g>
<!-- midas_midas_ensembleh&#45;&gt;obsfiles_mod -->
<g id="edge9" class="edge">
<title>midas_midas_ensembleh&#45;&gt;obsfiles_mod</title>
<path fill="none" stroke="black" d="M553.9,-67.4C568.94,-57.37 586.59,-45.61 600.72,-36.19"/>
<ellipse fill="black" stroke="black" cx="550.51" cy="-69.66" rx="4" ry="4"/>
</g>
<!-- midas_midas_gencoeff -->
<g id="node11" class="node">
<title>midas_midas_gencoeff</title>
<g id="a_node11"><a xlink:href="../programs/midas_gencoeff.html" xlink:title="midas_midas_gencoeff">
<polygon fill="gray" stroke="green" points="636,-180 493,-180 493,-144 636,-144 636,-180"/>
<text text-anchor="middle" x="564.5" y="-158.3" font-family="Times,serif" font-size="14.00">midas_midas_gencoeff</text>
</a>
</g>
</g>
<!-- midas_midas_gencoeff&#45;&gt;obsfiles_mod -->
<g id="edge10" class="edge">
<title>midas_midas_gencoeff&#45;&gt;obsfiles_mod</title>
<path fill="none" stroke="black" d="M587.3,-137.79C594.74,-129.07 602.4,-118.67 607.5,-108 618.68,-84.62 623.33,-54.67 625.23,-36.16"/>
<ellipse fill="black" stroke="black" cx="584.6" cy="-140.84" rx="4" ry="4"/>
</g>
<!-- midas_midas_letkf -->
<g id="node12" class="node">
<title>midas_midas_letkf</title>
<g id="a_node12"><a xlink:href="../programs/midas_letkf.html" xlink:title="midas_midas_letkf">
<polygon fill="gray" stroke="green" points="674.5,-252 552.5,-252 552.5,-216 674.5,-216 674.5,-252"/>
<text text-anchor="middle" x="613.5" y="-230.3" font-family="Times,serif" font-size="14.00">midas_midas_letkf</text>
</a>
</g>
</g>
<!-- midas_midas_letkf&#45;&gt;obsfiles_mod -->
<g id="edge11" class="edge">
<title>midas_midas_letkf&#45;&gt;obsfiles_mod</title>
<path fill="none" stroke="black" d="M631.16,-208.99C636.54,-200.3 641.76,-190.13 644.5,-180 658.33,-128.96 642.14,-66.06 632.56,-36.24"/>
<ellipse fill="black" stroke="black" cx="628.83" cy="-212.56" rx="4" ry="4"/>
</g>
<!-- midas_midas_obsimpact -->
<g id="node13" class="node">
<title>midas_midas_obsimpact</title>
<g id="a_node13"><a xlink:href="../programs/midas_obsimpact.html" xlink:title="midas_midas_obsimpact">
<polygon fill="gray" stroke="green" points="712.5,-324 560.5,-324 560.5,-288 712.5,-288 712.5,-324"/>
<text text-anchor="middle" x="636.5" y="-302.3" font-family="Times,serif" font-size="14.00">midas_midas_obsimpact</text>
</a>
</g>
</g>
<!-- midas_midas_obsimpact&#45;&gt;obsfiles_mod -->
<g id="edge12" class="edge">
<title>midas_midas_obsimpact&#45;&gt;obsfiles_mod</title>
<path fill="none" stroke="black" d="M663.81,-281.61C671.71,-273.17 679.33,-262.99 683.5,-252 689.18,-237.04 684.82,-231.95 683.5,-216 678.15,-151.34 682.42,-132.7 659.5,-72 654.68,-59.22 646.61,-46.18 639.65,-36.24"/>
<ellipse fill="black" stroke="black" cx="660.58" cy="-284.86" rx="4" ry="4"/>
</g>
<!-- midas_midas_obsselection -->
<g id="node14" class="node">
<title>midas_midas_obsselection</title>
<g id="a_node14"><a xlink:href="../programs/midas_obsselection.html" xlink:title="midas_midas_obsselection">
<polygon fill="gray" stroke="green" points="750,-396 587,-396 587,-360 750,-360 750,-396"/>
<text text-anchor="middle" x="668.5" y="-374.3" font-family="Times,serif" font-size="14.00">midas_midas_obsselection</text>
</a>
</g>
</g>
<!-- midas_midas_obsselection&#45;&gt;obsfiles_mod -->
<g id="edge13" class="edge">
<title>midas_midas_obsselection&#45;&gt;obsfiles_mod</title>
<path fill="none" stroke="black" d="M696.84,-354.49C705.98,-345.86 715.33,-335.35 721.5,-324 740.82,-288.46 740.5,-275.45 740.5,-235 740.5,-235 740.5,-235 740.5,-161 740.5,-105.67 687.23,-59.63 653.52,-36.04"/>
<ellipse fill="black" stroke="black" cx="693.86" cy="-357.18" rx="4" ry="4"/>
</g>
<!-- midas_midas_ominusf -->
<g id="node15" class="node">
<title>midas_midas_ominusf</title>
<g id="a_node15"><a xlink:href="../programs/midas_ominusf.html" xlink:title="midas_midas_ominusf">
<polygon fill="gray" stroke="green" points="788.5,-468 646.5,-468 646.5,-432 788.5,-432 788.5,-468"/>
<text text-anchor="middle" x="717.5" y="-446.3" font-family="Times,serif" font-size="14.00">midas_midas_ominusf</text>
</a>
</g>
</g>
<!-- midas_midas_ominusf&#45;&gt;obsfiles_mod -->
<g id="edge14" class="edge">
<title>midas_midas_ominusf&#45;&gt;obsfiles_mod</title>
<path fill="none" stroke="black" d="M739.36,-425.36C746.38,-416.67 753.61,-406.4 758.5,-396 775.76,-359.31 778.5,-347.54 778.5,-307 778.5,-307 778.5,-307 778.5,-161 778.5,-100.15 712.65,-57.88 667.63,-36.1"/>
<ellipse fill="black" stroke="black" cx="736.63" cy="-428.6" rx="4" ry="4"/>
</g>
<!-- midas_midas_prepcma -->
<g id="node16" class="node">
<title>midas_midas_prepcma</title>
<g id="a_node16"><a xlink:href="../programs/midas_prepcma.html" xlink:title="midas_midas_prepcma">
<polygon fill="gray" stroke="green" points="826,-540 683,-540 683,-504 826,-504 826,-540"/>
<text text-anchor="middle" x="754.5" y="-518.3" font-family="Times,serif" font-size="14.00">midas_midas_prepcma</text>
</a>
</g>
</g>
<!-- midas_midas_prepcma&#45;&gt;obsfiles_mod -->
<g id="edge15" class="edge">
<title>midas_midas_prepcma&#45;&gt;obsfiles_mod</title>
<path fill="none" stroke="black" d="M777.3,-497.79C784.74,-489.07 792.4,-478.67 797.5,-468 814.95,-431.51 816.5,-419.45 816.5,-379 816.5,-379 816.5,-379 816.5,-161 816.5,-88.73 727.2,-48.81 671.05,-30.85"/>
<ellipse fill="black" stroke="black" cx="774.6" cy="-500.84" rx="4" ry="4"/>
</g>
<!-- midas_midas_sstbias -->
<g id="node17" class="node">
<title>midas_midas_sstbias</title>
<g id="a_node17"><a xlink:href="../programs/midas_sstbias.html" xlink:title="midas_midas_sstbias">
<polygon fill="gray" stroke="green" points="920.5,-612 788.5,-612 788.5,-576 920.5,-576 920.5,-612"/>
<text text-anchor="middle" x="854.5" y="-590.3" font-family="Times,serif" font-size="14.00">midas_midas_sstbias</text>
</a>
</g>
</g>
<!-- midas_midas_sstbias&#45;&gt;obsfiles_mod -->
<g id="edge16" class="edge">
<title>midas_midas_sstbias&#45;&gt;obsfiles_mod</title>
<path fill="none" stroke="black" d="M854.5,-567.78C854.5,-539.39 854.5,-491.89 854.5,-451 854.5,-451 854.5,-451 854.5,-161 854.5,-75.43 737.35,-39.57 671,-26.13"/>
<ellipse fill="black" stroke="black" cx="854.5" cy="-571.95" rx="4" ry="4"/>
</g>
<!-- midas_midas_thinning -->
<g id="node18" class="node">
<title>midas_midas_thinning</title>
<g id="a_node18"><a xlink:href="../programs/midas_thinning.html" xlink:title="midas_midas_thinning">
<polygon fill="gray" stroke="green" points="1024,-108 883,-108 883,-72 1024,-72 1024,-108"/>
<text text-anchor="middle" x="953.5" y="-86.3" font-family="Times,serif" font-size="14.00">midas_midas_thinning</text>
</a>
</g>
</g>
<!-- midas_midas_thinning&#45;&gt;obsfiles_mod -->
<g id="edge17" class="edge">
<title>midas_midas_thinning&#45;&gt;obsfiles_mod</title>
<path fill="none" stroke="black" d="M874.91,-72.18C811.18,-58.53 723.65,-39.8 671.31,-28.59"/>
<ellipse fill="black" stroke="black" cx="879.04" cy="-73.06" rx="4" ry="4"/>
</g>
<!-- midas_midas_var1d -->
<g id="node19" class="node">
<title>midas_midas_var1d</title>
<g id="a_node19"><a xlink:href="../programs/midas_var1d.html" xlink:title="midas_midas_var1d">
<polygon fill="gray" stroke="green" points="1115.5,-180 989.5,-180 989.5,-144 1115.5,-144 1115.5,-180"/>
<text text-anchor="middle" x="1052.5" y="-158.3" font-family="Times,serif" font-size="14.00">midas_midas_var1d</text>
</a>
</g>
</g>
<!-- midas_midas_var1d&#45;&gt;obsfiles_mod -->
<g id="edge18" class="edge">
<title>midas_midas_var1d&#45;&gt;obsfiles_mod</title>
<path fill="none" stroke="black" d="M1054.07,-135.59C1053.83,-115.35 1049.9,-87.88 1032.5,-72 980.46,-24.5 765.53,-18.78 671.22,-18.62"/>
<ellipse fill="black" stroke="black" cx="1054.02" cy="-139.76" rx="4" ry="4"/>
</g>
<!-- midas_midas_var -->
<g id="node20" class="node">
<title>midas_midas_var</title>
<g id="a_node20"><a xlink:href="../programs/midas_var.html" xlink:title="midas_midas_var">
<polygon fill="gray" stroke="green" points="1200,-252 1087,-252 1087,-216 1200,-216 1200,-252"/>
<text text-anchor="middle" x="1143.5" y="-230.3" font-family="Times,serif" font-size="14.00">midas_midas_var</text>
</a>
</g>
</g>
<!-- midas_midas_var&#45;&gt;obsfiles_mod -->
<g id="edge19" class="edge">
<title>midas_midas_var&#45;&gt;obsfiles_mod</title>
<path fill="none" stroke="black" d="M1141.77,-207.67C1139.65,-189.15 1134.95,-163.89 1124.5,-144 1104.03,-105.03 1095.78,-91.87 1056.5,-72 989.72,-38.22 766.93,-24.93 671.03,-20.69"/>
<ellipse fill="black" stroke="black" cx="1142.17" cy="-211.69" rx="4" ry="4"/>
</g>
</g>
</svg>
