<?xml version="1.0" encoding="UTF-8" standalone="no"?>
<!DOCTYPE svg PUBLIC "-//W3C//DTD SVG 1.1//EN"
 "http://www.w3.org/Graphics/SVG/1.1/DTD/svg11.dtd">
<!-- Generated by graphviz version 3.0.0 (20220315.2325)
 -->
<!-- Title: obsfiles_mod Pages: 1 -->
<svg width="1010pt" height="673pt"
 viewBox="0.00 0.00 1010.00 673.00" xmlns="http://www.w3.org/2000/svg" xmlns:xlink="http://www.w3.org/1999/xlink">
<g id="graph0" class="graph" transform="scale(1 1) rotate(0) translate(4 669)">
<title>obsfiles_mod</title>
<polygon fill="white" stroke="transparent" points="-4,4 -4,-669 1006,-669 1006,4 -4,4"/>
<text text-anchor="middle" x="501" y="-37.8" font-family="Times,serif" font-size="14.00">Red boxes indicate modules with dependencies not shown</text>
<text text-anchor="middle" x="501" y="-22.8" font-family="Times,serif" font-size="14.00">Lower level dependencies can be shown by clicking on a red box</text>
<text text-anchor="middle" x="501" y="-7.8" font-family="Times,serif" font-size="14.00">Shaded boxes indicate modules with no dependencies</text>
<!-- obsfiles_mod -->
<g id="node1" class="node">
<title>obsfiles_mod</title>
<g id="a_node1"><a xlink:href="obsfiles_mod.html" xlink:title="obsfiles_mod">
<polygon fill="none" stroke="black" points="588.5,-665 499.5,-665 499.5,-629 588.5,-629 588.5,-665"/>
<text text-anchor="middle" x="544" y="-643.3" font-family="Times,serif" font-size="14.00">obsfiles_mod</text>
</a>
</g>
</g>
<!-- biascorrectionconv_mod -->
<g id="node2" class="node">
<title>biascorrectionconv_mod</title>
<g id="a_node2"><a xlink:href="../modules/biascorrectionconv_mod.svg" xlink:title="biascorrectionconv_mod">
<polygon fill="none" stroke="red" points="150,-593 0,-593 0,-557 150,-557 150,-593"/>
<text text-anchor="middle" x="75" y="-571.3" font-family="Times,serif" font-size="14.00">biascorrectionconv_mod</text>
</a>
</g>
</g>
<!-- obsfiles_mod&#45;&gt;biascorrectionconv_mod -->
<g id="edge1" class="edge">
<title>obsfiles_mod&#45;&gt;biascorrectionconv_mod</title>
<path fill="none" stroke="black" d="M499.43,-640.52C428.33,-631.61 284.93,-612.97 164,-593 162.73,-592.79 161.46,-592.58 160.18,-592.36"/>
<polygon fill="black" stroke="black" points="160.67,-588.89 150.22,-590.64 159.47,-595.79 160.67,-588.89"/>
</g>
<!-- bufr_mod -->
<g id="node3" class="node">
<title>bufr_mod</title>
<g id="a_node3"><a xlink:href="bufr_mod.html" xlink:title="bufr_mod">
<polygon fill="gray" stroke="black" points="200,-521 130,-521 130,-485 200,-485 200,-521"/>
<text text-anchor="middle" x="165" y="-499.3" font-family="Times,serif" font-size="14.00">bufr_mod</text>
</a>
</g>
</g>
<!-- obsfiles_mod&#45;&gt;bufr_mod -->
<g id="edge2" class="edge">
<title>obsfiles_mod&#45;&gt;bufr_mod</title>
<path fill="none" stroke="black" d="M499.43,-643.63C420.28,-638.67 259.25,-624.86 214,-593 192.9,-578.15 179.92,-551.21 172.66,-530.85"/>
<polygon fill="black" stroke="black" points="175.93,-529.57 169.46,-521.18 169.28,-531.77 175.93,-529.57"/>
</g>
<!-- burpfiles_mod -->
<g id="node4" class="node">
<title>burpfiles_mod</title>
<g id="a_node4"><a xlink:href="../modules/burpfiles_mod.svg" xlink:title="burpfiles_mod">
<polygon fill="none" stroke="red" points="237.5,-449 142.5,-449 142.5,-413 237.5,-413 237.5,-449"/>
<text text-anchor="middle" x="190" y="-427.3" font-family="Times,serif" font-size="14.00">burpfiles_mod</text>
</a>
</g>
</g>
<!-- obsfiles_mod&#45;&gt;burpfiles_mod -->
<g id="edge3" class="edge">
<title>obsfiles_mod&#45;&gt;burpfiles_mod</title>
<path fill="none" stroke="black" d="M499.3,-643.18C427.07,-637.76 289.01,-623.63 252,-593 246.57,-588.5 215.57,-503.49 199.57,-458.86"/>
<polygon fill="black" stroke="black" points="202.78,-457.46 196.12,-449.22 196.19,-459.82 202.78,-457.46"/>
</g>
<!-- burpread_mod -->
<g id="node5" class="node">
<title>burpread_mod</title>
<g id="a_node5"><a xlink:href="../modules/burpread_mod.svg" xlink:title="burpread_mod">
<polygon fill="none" stroke="red" points="275.5,-377 180.5,-377 180.5,-341 275.5,-341 275.5,-377"/>
<text text-anchor="middle" x="228" y="-355.3" font-family="Times,serif" font-size="14.00">burpread_mod</text>
</a>
</g>
</g>
<!-- obsfiles_mod&#45;&gt;burpread_mod -->
<g id="edge4" class="edge">
<title>obsfiles_mod&#45;&gt;burpread_mod</title>
<path fill="none" stroke="black" d="M499.45,-642.37C434.78,-636.18 319.39,-621.41 290,-593 230.78,-535.77 269.04,-492.07 246,-413 243.49,-404.38 240.44,-395.07 237.58,-386.7"/>
<polygon fill="black" stroke="black" points="240.82,-385.36 234.22,-377.06 234.2,-387.66 240.82,-385.36"/>
</g>
<!-- clib_interfaces_mod -->
<g id="node6" class="node">
<title>clib_interfaces_mod</title>
<g id="a_node6"><a xlink:href="clib_interfaces_mod.html" xlink:title="clib_interfaces_mod">
<polygon fill="gray" stroke="black" points="313.5,-305 186.5,-305 186.5,-269 313.5,-269 313.5,-305"/>
<text text-anchor="middle" x="250" y="-283.3" font-family="Times,serif" font-size="14.00">clib_interfaces_mod</text>
</a>
</g>
</g>
<!-- obsfiles_mod&#45;&gt;clib_interfaces_mod -->
<g id="edge5" class="edge">
<title>obsfiles_mod&#45;&gt;clib_interfaces_mod</title>
<path fill="none" stroke="black" d="M499.11,-640.4C443.18,-632.53 352.02,-616.48 328,-593 298.7,-564.36 304,-544.97 304,-504 304,-504 304,-504 304,-430 304,-389.46 299.63,-378.41 284,-341 280.06,-331.57 274.46,-321.95 268.94,-313.55"/>
<polygon fill="black" stroke="black" points="271.83,-311.57 263.29,-305.29 266.05,-315.52 271.83,-311.57"/>
</g>
<!-- ensembleobservations_mod -->
<g id="node7" class="node">
<title>ensembleobservations_mod</title>
<g id="a_node7"><a xlink:href="../modules/ensembleobservations_mod.svg" xlink:title="ensembleobservations_mod">
<polygon fill="none" stroke="red" points="352,-233 186,-233 186,-197 352,-197 352,-233"/>
<text text-anchor="middle" x="269" y="-211.3" font-family="Times,serif" font-size="14.00">ensembleobservations_mod</text>
</a>
</g>
</g>
<!-- obsfiles_mod&#45;&gt;ensembleobservations_mod -->
<g id="edge6" class="edge">
<title>obsfiles_mod&#45;&gt;ensembleobservations_mod</title>
<path fill="none" stroke="black" d="M499.42,-644.51C459.15,-640.75 400.99,-628.91 366,-593 337.41,-563.66 342,-544.97 342,-504 342,-504 342,-504 342,-358 342,-317.46 341.55,-304.52 322,-269 316.13,-258.33 307.47,-248.38 298.84,-240.05"/>
<polygon fill="black" stroke="black" points="301.07,-237.35 291.34,-233.16 296.34,-242.5 301.07,-237.35"/>
</g>
<!-- midasmpi_mod -->
<g id="node8" class="node">
<title>midasmpi_mod</title>
<g id="a_node8"><a xlink:href="../modules/midasmpi_mod.svg" xlink:title="midasmpi_mod">
<polygon fill="none" stroke="red" points="389.5,-161 288.5,-161 288.5,-125 389.5,-125 389.5,-161"/>
<text text-anchor="middle" x="339" y="-139.3" font-family="Times,serif" font-size="14.00">midasmpi_mod</text>
</a>
</g>
</g>
<!-- obsfiles_mod&#45;&gt;midasmpi_mod -->
<g id="edge7" class="edge">
<title>obsfiles_mod&#45;&gt;midasmpi_mod</title>
<path fill="none" stroke="black" d="M499.19,-639.89C468.29,-633.38 428.52,-620.06 404,-593 376.49,-562.64 380,-544.97 380,-504 380,-504 380,-504 380,-286 380,-244.41 363.56,-198.56 351.5,-170.51"/>
<polygon fill="black" stroke="black" points="354.55,-168.75 347.3,-161.03 348.15,-171.59 354.55,-168.75"/>
</g>
<!-- obsdbfiles_mod -->
<g id="node9" class="node">
<title>obsdbfiles_mod</title>
<g id="a_node9"><a xlink:href="../modules/obsdbfiles_mod.svg" xlink:title="obsdbfiles_mod">
<polygon fill="none" stroke="red" points="469,-89 367,-89 367,-53 469,-53 469,-89"/>
<text text-anchor="middle" x="418" y="-67.3" font-family="Times,serif" font-size="14.00">obsdbfiles_mod</text>
</a>
</g>
</g>
<!-- obsfiles_mod&#45;&gt;obsdbfiles_mod -->
<g id="edge8" class="edge">
<title>obsfiles_mod&#45;&gt;obsdbfiles_mod</title>
<path fill="none" stroke="black" d="M499.5,-634.05C477.55,-625.94 452.52,-612.97 437,-593 412.18,-561.06 418,-544.45 418,-504 418,-504 418,-504 418,-214 418,-174 418,-127.65 418,-99.08"/>
<polygon fill="black" stroke="black" points="421.5,-99.05 418,-89.05 414.5,-99.05 421.5,-99.05"/>
</g>
<!-- obsdiagfiles_mod -->
<g id="node10" class="node">
<title>obsdiagfiles_mod</title>
<g id="a_node10"><a xlink:href="../modules/obsdiagfiles_mod.svg" xlink:title="obsdiagfiles_mod">
<polygon fill="none" stroke="red" points="558,-593 446,-593 446,-557 558,-557 558,-593"/>
<text text-anchor="middle" x="502" y="-571.3" font-family="Times,serif" font-size="14.00">obsdiagfiles_mod</text>
</a>
</g>
</g>
<!-- obsfiles_mod&#45;&gt;obsdiagfiles_mod -->
<g id="edge9" class="edge">
<title>obsfiles_mod&#45;&gt;obsdiagfiles_mod</title>
<path fill="none" stroke="black" d="M533.62,-628.7C528.74,-620.56 522.81,-610.69 517.42,-601.7"/>
<polygon fill="black" stroke="black" points="520.41,-599.88 512.26,-593.1 514.41,-603.48 520.41,-599.88"/>
</g>
<!-- obsspacedata_mod -->
<g id="node11" class="node">
<title>obsspacedata_mod</title>
<g id="a_node11"><a xlink:href="../modules/obsspacedata_mod.svg" xlink:title="obsspacedata_mod">
<polygon fill="none" stroke="red" points="596,-521 478,-521 478,-485 596,-485 596,-521"/>
<text text-anchor="middle" x="537" y="-499.3" font-family="Times,serif" font-size="14.00">obsspacedata_mod</text>
</a>
</g>
</g>
<!-- obsfiles_mod&#45;&gt;obsspacedata_mod -->
<g id="edge10" class="edge">
<title>obsfiles_mod&#45;&gt;obsspacedata_mod</title>
<path fill="none" stroke="black" d="M553.54,-628.93C558.64,-618.82 564.39,-605.57 567,-593 570.25,-577.33 571.08,-572.47 567,-557 564.51,-547.54 559.9,-537.99 555.03,-529.66"/>
<polygon fill="black" stroke="black" points="557.99,-527.79 549.73,-521.15 552.05,-531.49 557.99,-527.79"/>
</g>
<!-- obssubspacedata_mod -->
<g id="node12" class="node">
<title>obssubspacedata_mod</title>
<g id="a_node12"><a xlink:href="../modules/obssubspacedata_mod.svg" xlink:title="obssubspacedata_mod">
<polygon fill="none" stroke="red" points="634,-449 498,-449 498,-413 634,-413 634,-449"/>
<text text-anchor="middle" x="566" y="-427.3" font-family="Times,serif" font-size="14.00">obssubspacedata_mod</text>
</a>
</g>
</g>
<!-- obsfiles_mod&#45;&gt;obssubspacedata_mod -->
<g id="edge11" class="edge">
<title>obsfiles_mod&#45;&gt;obssubspacedata_mod</title>
<path fill="none" stroke="black" d="M558.96,-628.83C566.99,-618.9 576.54,-605.86 583,-593 598.02,-563.1 600.06,-554.09 605,-521 607.36,-505.18 609.99,-500.2 605,-485 601.69,-474.91 595.63,-465.15 589.27,-456.82"/>
<polygon fill="black" stroke="black" points="591.92,-454.54 582.89,-449.01 586.5,-458.97 591.92,-454.54"/>
</g>
<!-- obsutil_mod -->
<g id="node13" class="node">
<title>obsutil_mod</title>
<g id="a_node13"><a xlink:href="../modules/obsutil_mod.svg" xlink:title="obsutil_mod">
<polygon fill="none" stroke="red" points="671.5,-377 588.5,-377 588.5,-341 671.5,-341 671.5,-377"/>
<text text-anchor="middle" x="630" y="-355.3" font-family="Times,serif" font-size="14.00">obsutil_mod</text>
</a>
</g>
</g>
<!-- obsfiles_mod&#45;&gt;obsutil_mod -->
<g id="edge12" class="edge">
<title>obsfiles_mod&#45;&gt;obsutil_mod</title>
<path fill="none" stroke="black" d="M570.13,-628.89C582.38,-619.62 596.18,-607.17 605,-593 648.2,-523.58 652.81,-494.17 643,-413 641.98,-404.53 640.07,-395.47 638.02,-387.28"/>
<polygon fill="black" stroke="black" points="641.36,-386.23 635.41,-377.47 634.6,-388.03 641.36,-386.23"/>
</g>
<!-- obsvariabletransforms_mod -->
<g id="node14" class="node">
<title>obsvariabletransforms_mod</title>
<g id="a_node14"><a xlink:href="../modules/obsvariabletransforms_mod.svg" xlink:title="obsvariabletransforms_mod">
<polygon fill="none" stroke="red" points="710,-305 544,-305 544,-269 710,-269 710,-305"/>
<text text-anchor="middle" x="627" y="-283.3" font-family="Times,serif" font-size="14.00">obsvariabletransforms_mod</text>
</a>
</g>
</g>
<!-- obsfiles_mod&#45;&gt;obsvariabletransforms_mod -->
<g id="edge13" class="edge">
<title>obsfiles_mod&#45;&gt;obsvariabletransforms_mod</title>
<path fill="none" stroke="black" d="M587.04,-628.82C633.22,-607.2 700,-565.34 700,-504 700,-504 700,-504 700,-430 700,-389.46 699.55,-376.52 680,-341 674.13,-330.33 665.47,-320.38 656.84,-312.05"/>
<polygon fill="black" stroke="black" points="659.07,-309.35 649.34,-305.16 654.34,-314.5 659.07,-309.35"/>
</g>
<!-- ramdisk_mod -->
<g id="node15" class="node">
<title>ramdisk_mod</title>
<g id="a_node15"><a xlink:href="../modules/ramdisk_mod.svg" xlink:title="ramdisk_mod">
<polygon fill="none" stroke="red" points="747.5,-233 656.5,-233 656.5,-197 747.5,-197 747.5,-233"/>
<text text-anchor="middle" x="702" y="-211.3" font-family="Times,serif" font-size="14.00">ramdisk_mod</text>
</a>
</g>
</g>
<!-- obsfiles_mod&#45;&gt;ramdisk_mod -->
<g id="edge14" class="edge">
<title>obsfiles_mod&#45;&gt;ramdisk_mod</title>
<path fill="none" stroke="black" d="M588.51,-634.74C645.78,-617.25 738,-577.67 738,-504 738,-504 738,-504 738,-358 738,-316.78 723.57,-270.83 712.98,-242.66"/>
<polygon fill="black" stroke="black" points="716.16,-241.19 709.29,-233.13 709.64,-243.72 716.16,-241.19"/>
</g>
<!-- sqlitefiles_mod -->
<g id="node16" class="node">
<title>sqlitefiles_mod</title>
<g id="a_node16"><a xlink:href="../modules/sqlitefiles_mod.svg" xlink:title="sqlitefiles_mod">
<polygon fill="none" stroke="red" points="785.5,-161 686.5,-161 686.5,-125 785.5,-125 785.5,-161"/>
<text text-anchor="middle" x="736" y="-139.3" font-family="Times,serif" font-size="14.00">sqlitefiles_mod</text>
</a>
</g>
</g>
<!-- obsfiles_mod&#45;&gt;sqlitefiles_mod -->
<g id="edge15" class="edge">
<title>obsfiles_mod&#45;&gt;sqlitefiles_mod</title>
<path fill="none" stroke="black" d="M588.73,-639.24C656.15,-626.23 776,-590.89 776,-504 776,-504 776,-504 776,-286 776,-244.48 759.96,-198.61 748.2,-170.54"/>
<polygon fill="black" stroke="black" points="751.27,-168.84 744.09,-161.05 744.85,-171.62 751.27,-168.84"/>
</g>
<!-- sqliteutilities_mod -->
<g id="node17" class="node">
<title>sqliteutilities_mod</title>
<g id="a_node17"><a xlink:href="../modules/sqliteutilities_mod.svg" xlink:title="sqliteutilities_mod">
<polygon fill="none" stroke="red" points="872.5,-89 755.5,-89 755.5,-53 872.5,-53 872.5,-89"/>
<text text-anchor="middle" x="814" y="-67.3" font-family="Times,serif" font-size="14.00">sqliteutilities_mod</text>
</a>
</g>
</g>
<!-- obsfiles_mod&#45;&gt;sqliteutilities_mod -->
<g id="edge16" class="edge">
<title>obsfiles_mod&#45;&gt;sqliteutilities_mod</title>
<path fill="none" stroke="black" d="M588.59,-642.62C665.27,-634.11 814,-604.63 814,-504 814,-504 814,-504 814,-214 814,-174 814,-127.65 814,-99.08"/>
<polygon fill="black" stroke="black" points="817.5,-99.05 814,-89.05 810.5,-99.05 817.5,-99.05"/>
</g>
<!-- tovs_nl_mod -->
<g id="node18" class="node">
<title>tovs_nl_mod</title>
<g id="a_node18"><a xlink:href="../modules/tovs_nl_mod.svg" xlink:title="tovs_nl_mod">
<polygon fill="none" stroke="red" points="929.5,-593 842.5,-593 842.5,-557 929.5,-557 929.5,-593"/>
<text text-anchor="middle" x="886" y="-571.3" font-family="Times,serif" font-size="14.00">tovs_nl_mod</text>
</a>
</g>
</g>
<!-- obsfiles_mod&#45;&gt;tovs_nl_mod -->
<g id="edge17" class="edge">
<title>obsfiles_mod&#45;&gt;tovs_nl_mod</title>
<path fill="none" stroke="black" d="M588.56,-639.11C644.74,-630.1 744.1,-613.07 828,-593 829.47,-592.65 830.95,-592.28 832.45,-591.91"/>
<polygon fill="black" stroke="black" points="833.64,-595.21 842.42,-589.28 831.86,-588.44 833.64,-595.21"/>
</g>
<!-- utilities_mod -->
<g id="node19" class="node">
<title>utilities_mod</title>
<g id="a_node19"><a xlink:href="../modules/utilities_mod.svg" xlink:title="utilities_mod">
<polygon fill="none" stroke="red" points="1002,-521 914,-521 914,-485 1002,-485 1002,-521"/>
<text text-anchor="middle" x="958" y="-499.3" font-family="Times,serif" font-size="14.00">utilities_mod</text>
</a>
</g>
</g>
<!-- obsfiles_mod&#45;&gt;utilities_mod -->
<g id="edge18" class="edge">
<title>obsfiles_mod&#45;&gt;utilities_mod</title>
<path fill="none" stroke="black" d="M588.6,-646.23C680.99,-645.76 888.86,-639.42 939,-593 955.71,-577.53 959.62,-551.28 959.86,-531.28"/>
<polygon fill="black" stroke="black" points="963.36,-531.14 959.68,-521.21 956.36,-531.27 963.36,-531.14"/>
</g>
</g>
</svg>
