<?xml version="1.0" encoding="UTF-8" standalone="no"?>
<!DOCTYPE svg PUBLIC "-//W3C//DTD SVG 1.1//EN"
 "http://www.w3.org/Graphics/SVG/1.1/DTD/svg11.dtd">
<!-- Generated by graphviz version 3.0.0 (20220315.2325)
 -->
<!-- Title: obsfilter_mod Pages: 1 -->
<svg width="539pt" height="673pt"
 viewBox="0.00 0.00 539.00 673.00" xmlns="http://www.w3.org/2000/svg" xmlns:xlink="http://www.w3.org/1999/xlink">
<g id="graph0" class="graph" transform="scale(1 1) rotate(0) translate(4 669)">
<title>obsfilter_mod</title>
<polygon fill="white" stroke="transparent" points="-4,4 -4,-669 535,-669 535,4 -4,4"/>
<text text-anchor="middle" x="265.5" y="-649.8" font-family="Times,serif" font-size="14.00">Blue boxes indicate modules with reverse dependencies not shown</text>
<text text-anchor="middle" x="265.5" y="-634.8" font-family="Times,serif" font-size="14.00">Higher level reverse dependencies can be shown by clicking on a blue box</text>
<text text-anchor="middle" x="265.5" y="-619.8" font-family="Times,serif" font-size="14.00">Green boxes are programs</text>
<!-- obsfilter_mod -->
<g id="node1" class="node">
<title>obsfilter_mod</title>
<g id="a_node1"><a xlink:href="obsfilter_mod.html" xlink:title="obsfilter_mod">
<polygon fill="none" stroke="black" points="285.5,-36 193.5,-36 193.5,0 285.5,0 285.5,-36"/>
<text text-anchor="middle" x="239.5" y="-14.3" font-family="Times,serif" font-size="14.00">obsfilter_mod</text>
</a>
</g>
</g>
<!-- burpread_mod -->
<g id="node2" class="node">
<title>burpread_mod</title>
<g id="a_node2"><a xlink:href="../modules/burpread_mod_rev.svg" xlink:title="burpread_mod">
<polygon fill="none" stroke="blue" points="95,-108 0,-108 0,-72 95,-72 95,-108"/>
<text text-anchor="middle" x="47.5" y="-86.3" font-family="Times,serif" font-size="14.00">burpread_mod</text>
</a>
</g>
</g>
<!-- burpread_mod&#45;&gt;obsfilter_mod -->
<g id="edge1" class="edge">
<title>burpread_mod&#45;&gt;obsfilter_mod</title>
<path fill="none" stroke="black" d="M102.04,-69.12C130.87,-58.6 165.88,-45.84 193.35,-35.83"/>
<ellipse fill="black" stroke="black" cx="98.23" cy="-70.51" rx="4" ry="4"/>
</g>
<!-- innovation_mod -->
<g id="node3" class="node">
<title>innovation_mod</title>
<g id="a_node3"><a xlink:href="../modules/innovation_mod_rev.svg" xlink:title="innovation_mod">
<polygon fill="none" stroke="blue" points="154.5,-180 50.5,-180 50.5,-144 154.5,-144 154.5,-180"/>
<text text-anchor="middle" x="102.5" y="-158.3" font-family="Times,serif" font-size="14.00">innovation_mod</text>
</a>
</g>
</g>
<!-- innovation_mod&#45;&gt;obsfilter_mod -->
<g id="edge2" class="edge">
<title>innovation_mod&#45;&gt;obsfilter_mod</title>
<path fill="none" stroke="black" d="M117.69,-136.71C130.08,-117.92 148.72,-91.84 168.5,-72 181.86,-58.6 198.77,-45.84 212.74,-36.2"/>
<ellipse fill="black" stroke="black" cx="115.28" cy="-140.42" rx="4" ry="4"/>
</g>
<!-- obsvariabletransforms_mod -->
<g id="node4" class="node">
<title>obsvariabletransforms_mod</title>
<g id="a_node4"><a xlink:href="../modules/obsvariabletransforms_mod_rev.svg" xlink:title="obsvariabletransforms_mod">
<polygon fill="none" stroke="blue" points="192.5,-252 26.5,-252 26.5,-216 192.5,-216 192.5,-252"/>
<text text-anchor="middle" x="109.5" y="-230.3" font-family="Times,serif" font-size="14.00">obsvariabletransforms_mod</text>
</a>
</g>
</g>
<!-- obsvariabletransforms_mod&#45;&gt;obsfilter_mod -->
<g id="edge3" class="edge">
<title>obsvariabletransforms_mod&#45;&gt;obsfilter_mod</title>
<path fill="none" stroke="black" d="M136.87,-210.36C146.22,-201.61 156.16,-191.04 163.5,-180 192.11,-136.98 183.2,-118.11 206.5,-72 212.76,-59.62 221.01,-46.37 227.69,-36.21"/>
<ellipse fill="black" stroke="black" cx="133.8" cy="-213.15" rx="4" ry="4"/>
</g>
<!-- sqliteread_mod -->
<g id="node5" class="node">
<title>sqliteread_mod</title>
<g id="a_node5"><a xlink:href="../modules/sqliteread_mod_rev.svg" xlink:title="sqliteread_mod">
<polygon fill="none" stroke="blue" points="230.5,-324 130.5,-324 130.5,-288 230.5,-288 230.5,-324"/>
<text text-anchor="middle" x="180.5" y="-302.3" font-family="Times,serif" font-size="14.00">sqliteread_mod</text>
</a>
</g>
</g>
<!-- sqliteread_mod&#45;&gt;obsfilter_mod -->
<g id="edge4" class="edge">
<title>sqliteread_mod&#45;&gt;obsfilter_mod</title>
<path fill="none" stroke="black" d="M191.67,-280.04C195.24,-271.31 198.92,-261.35 201.5,-252 223.32,-172.99 234.24,-75.22 237.97,-36.23"/>
<ellipse fill="black" stroke="black" cx="190.02" cy="-283.97" rx="4" ry="4"/>
</g>
<!-- midas_midas_analysiserroroi -->
<g id="node6" class="node">
<title>midas_midas_analysiserroroi</title>
<g id="a_node6"><a xlink:href="../programs/midas_analysiserroroi.html" xlink:title="midas_midas_analysiserroroi">
<polygon fill="gray" stroke="green" points="268.5,-396 92.5,-396 92.5,-360 268.5,-360 268.5,-396"/>
<text text-anchor="middle" x="180.5" y="-374.3" font-family="Times,serif" font-size="14.00">midas_midas_analysiserroroi</text>
</a>
</g>
</g>
<!-- midas_midas_analysiserroroi&#45;&gt;obsfilter_mod -->
<g id="edge5" class="edge">
<title>midas_midas_analysiserroroi&#45;&gt;obsfilter_mod</title>
<path fill="none" stroke="black" d="M212.29,-354.84C222.4,-346.3 232.7,-335.74 239.5,-324 259.76,-288.99 258.5,-275.45 258.5,-235 258.5,-235 258.5,-235 258.5,-161 258.5,-115.73 248.9,-63.06 243.34,-36.39"/>
<ellipse fill="black" stroke="black" cx="209.16" cy="-357.38" rx="4" ry="4"/>
</g>
<!-- midas_midas_letkf -->
<g id="node7" class="node">
<title>midas_midas_letkf</title>
<g id="a_node7"><a xlink:href="../programs/midas_letkf.html" xlink:title="midas_midas_letkf">
<polygon fill="gray" stroke="green" points="332.5,-468 210.5,-468 210.5,-432 332.5,-432 332.5,-468"/>
<text text-anchor="middle" x="271.5" y="-446.3" font-family="Times,serif" font-size="14.00">midas_midas_letkf</text>
</a>
</g>
</g>
<!-- midas_midas_letkf&#45;&gt;obsfilter_mod -->
<g id="edge6" class="edge">
<title>midas_midas_letkf&#45;&gt;obsfilter_mod</title>
<path fill="none" stroke="black" d="M278.64,-423.92C286.03,-395.72 296.5,-348.46 296.5,-307 296.5,-307 296.5,-307 296.5,-161 296.5,-112.92 268.01,-61.84 251.31,-36.04"/>
<ellipse fill="black" stroke="black" cx="277.6" cy="-427.82" rx="4" ry="4"/>
</g>
<!-- midas_midas_prepcma -->
<g id="node8" class="node">
<title>midas_midas_prepcma</title>
<g id="a_node8"><a xlink:href="../programs/midas_prepcma.html" xlink:title="midas_midas_prepcma">
<polygon fill="gray" stroke="green" points="432,-540 289,-540 289,-504 432,-504 432,-540"/>
<text text-anchor="middle" x="360.5" y="-518.3" font-family="Times,serif" font-size="14.00">midas_midas_prepcma</text>
</a>
</g>
</g>
<!-- midas_midas_prepcma&#45;&gt;obsfilter_mod -->
<g id="edge7" class="edge">
<title>midas_midas_prepcma&#45;&gt;obsfilter_mod</title>
<path fill="none" stroke="black" d="M360.5,-495.78C360.5,-467.39 360.5,-419.89 360.5,-379 360.5,-379 360.5,-379 360.5,-161 360.5,-104.64 304.6,-59.3 268.79,-36.03"/>
<ellipse fill="black" stroke="black" cx="360.5" cy="-499.95" rx="4" ry="4"/>
</g>
<!-- midas_midas_thinning -->
<g id="node9" class="node">
<title>midas_midas_thinning</title>
<g id="a_node9"><a xlink:href="../programs/midas_thinning.html" xlink:title="midas_midas_thinning">
<polygon fill="gray" stroke="green" points="531,-612 390,-612 390,-576 531,-576 531,-612"/>
<text text-anchor="middle" x="460.5" y="-590.3" font-family="Times,serif" font-size="14.00">midas_midas_thinning</text>
</a>
</g>
</g>
<!-- midas_midas_thinning&#45;&gt;obsfilter_mod -->
<g id="edge8" class="edge">
<title>midas_midas_thinning&#45;&gt;obsfilter_mod</title>
<path fill="none" stroke="black" d="M460.5,-567.78C460.5,-539.39 460.5,-491.89 460.5,-451 460.5,-451 460.5,-451 460.5,-161 460.5,-78.57 350.33,-41.75 285.56,-27.23"/>
<ellipse fill="black" stroke="black" cx="460.5" cy="-571.95" rx="4" ry="4"/>
</g>
</g>
</svg>
