<?xml version="1.0" encoding="UTF-8" standalone="no"?>
<!DOCTYPE svg PUBLIC "-//W3C//DTD SVG 1.1//EN"
 "http://www.w3.org/Graphics/SVG/1.1/DTD/svg11.dtd">
<!-- Generated by graphviz version 3.0.0 (20220315.2325)
 -->
<!-- Title: obsfamilylist_mod Pages: 1 -->
<svg width="443pt" height="457pt"
 viewBox="0.00 0.00 443.00 457.00" xmlns="http://www.w3.org/2000/svg" xmlns:xlink="http://www.w3.org/1999/xlink">
<g id="graph0" class="graph" transform="scale(1 1) rotate(0) translate(4 453)">
<title>obsfamilylist_mod</title>
<polygon fill="white" stroke="transparent" points="-4,4 -4,-453 439,-453 439,4 -4,4"/>
<text text-anchor="middle" x="217.5" y="-433.8" font-family="Times,serif" font-size="14.00">Blue boxes indicate modules with reverse dependencies not shown</text>
<text text-anchor="middle" x="217.5" y="-418.8" font-family="Times,serif" font-size="14.00">Higher level reverse dependencies can be shown by clicking on a blue box</text>
<text text-anchor="middle" x="217.5" y="-403.8" font-family="Times,serif" font-size="14.00">Green boxes are programs</text>
<!-- obsfamilylist_mod -->
<g id="node1" class="node">
<title>obsfamilylist_mod</title>
<g id="a_node1"><a xlink:href="obsfamilylist_mod.html" xlink:title="obsfamilylist_mod">
<polygon fill="none" stroke="black" points="293.5,-36 175.5,-36 175.5,0 293.5,0 293.5,-36"/>
<text text-anchor="middle" x="234.5" y="-14.3" font-family="Times,serif" font-size="14.00">obsfamilylist_mod</text>
</a>
</g>
</g>
<!-- backgroundcheck_mod -->
<g id="node2" class="node">
<title>backgroundcheck_mod</title>
<g id="a_node2"><a xlink:href="../modules/backgroundcheck_mod_rev.svg" xlink:title="backgroundcheck_mod">
<polygon fill="none" stroke="blue" points="143,-108 0,-108 0,-72 143,-72 143,-108"/>
<text text-anchor="middle" x="71.5" y="-86.3" font-family="Times,serif" font-size="14.00">backgroundcheck_mod</text>
</a>
</g>
</g>
<!-- backgroundcheck_mod&#45;&gt;obsfamilylist_mod -->
<g id="edge1" class="edge">
<title>backgroundcheck_mod&#45;&gt;obsfamilylist_mod</title>
<path fill="none" stroke="black" d="M119,-68.6C143.04,-58.28 171.9,-45.88 194.76,-36.07"/>
<ellipse fill="black" stroke="black" cx="115.05" cy="-70.3" rx="4" ry="4"/>
</g>
<!-- obsspacediag_mod -->
<g id="node3" class="node">
<title>obsspacediag_mod</title>
<g id="a_node3"><a xlink:href="../modules/obsspacediag_mod_rev.svg" xlink:title="obsspacediag_mod">
<polygon fill="none" stroke="blue" points="206,-180 87,-180 87,-144 206,-144 206,-180"/>
<text text-anchor="middle" x="146.5" y="-158.3" font-family="Times,serif" font-size="14.00">obsspacediag_mod</text>
</a>
</g>
</g>
<!-- obsspacediag_mod&#45;&gt;obsfamilylist_mod -->
<g id="edge2" class="edge">
<title>obsspacediag_mod&#45;&gt;obsfamilylist_mod</title>
<path fill="none" stroke="black" d="M161.36,-137.03C179.07,-108.45 208.23,-61.39 223.85,-36.19"/>
<ellipse fill="black" stroke="black" cx="159.22" cy="-140.47" rx="4" ry="4"/>
</g>
<!-- obsspaceerrorstddev_mod -->
<g id="node4" class="node">
<title>obsspaceerrorstddev_mod</title>
<g id="a_node4"><a xlink:href="../modules/obsspaceerrorstddev_mod_rev.svg" xlink:title="obsspaceerrorstddev_mod">
<polygon fill="none" stroke="blue" points="279,-252 122,-252 122,-216 279,-216 279,-252"/>
<text text-anchor="middle" x="200.5" y="-230.3" font-family="Times,serif" font-size="14.00">obsspaceerrorstddev_mod</text>
</a>
</g>
</g>
<!-- obsspaceerrorstddev_mod&#45;&gt;obsfamilylist_mod -->
<g id="edge3" class="edge">
<title>obsspaceerrorstddev_mod&#45;&gt;obsfamilylist_mod</title>
<path fill="none" stroke="black" d="M207.78,-208.23C210.19,-199.38 212.7,-189.3 214.5,-180 224.55,-128.01 230.62,-65.55 233.14,-36.04"/>
<ellipse fill="black" stroke="black" cx="206.7" cy="-212.1" rx="4" ry="4"/>
</g>
<!-- obstimeinterp_mod -->
<g id="node5" class="node">
<title>obstimeinterp_mod</title>
<g id="a_node5"><a xlink:href="../modules/obstimeinterp_mod_rev.svg" xlink:title="obstimeinterp_mod">
<polygon fill="none" stroke="blue" points="368.5,-324 246.5,-324 246.5,-288 368.5,-288 368.5,-324"/>
<text text-anchor="middle" x="307.5" y="-302.3" font-family="Times,serif" font-size="14.00">obstimeinterp_mod</text>
</a>
</g>
</g>
<!-- obstimeinterp_mod&#45;&gt;obsfamilylist_mod -->
<g id="edge4" class="edge">
<title>obstimeinterp_mod&#45;&gt;obsfamilylist_mod</title>
<path fill="none" stroke="black" d="M302.11,-279.7C298.23,-261.85 292.78,-237.41 287.5,-216 271,-149.12 248.98,-70.15 239.35,-36.07"/>
<ellipse fill="black" stroke="black" cx="303.03" cy="-283.98" rx="4" ry="4"/>
</g>
<!-- varqc_mod -->
<g id="node6" class="node">
<title>varqc_mod</title>
<g id="a_node6"><a xlink:href="../modules/varqc_mod_rev.svg" xlink:title="varqc_mod">
<polygon fill="none" stroke="blue" points="435,-396 358,-396 358,-360 435,-360 435,-396"/>
<text text-anchor="middle" x="396.5" y="-374.3" font-family="Times,serif" font-size="14.00">varqc_mod</text>
</a>
</g>
</g>
<!-- varqc_mod&#45;&gt;obsfamilylist_mod -->
<g id="edge5" class="edge">
<title>varqc_mod&#45;&gt;obsfamilylist_mod</title>
<path fill="none" stroke="black" d="M396.5,-351.78C396.5,-323.39 396.5,-275.89 396.5,-235 396.5,-235 396.5,-235 396.5,-161 396.5,-98.73 327.97,-57.39 280.06,-36.1"/>
<ellipse fill="black" stroke="black" cx="396.5" cy="-355.95" rx="4" ry="4"/>
</g>
</g>
</svg>
