<?xml version="1.0" encoding="UTF-8" standalone="no"?>
<!DOCTYPE svg PUBLIC "-//W3C//DTD SVG 1.1//EN"
 "http://www.w3.org/Graphics/SVG/1.1/DTD/svg11.dtd">
<!-- Generated by graphviz version 3.0.0 (20220315.2325)
 -->
<!-- Title: obsoperators_mod Pages: 1 -->
<svg width="952pt" height="673pt"
 viewBox="0.00 0.00 952.00 673.00" xmlns="http://www.w3.org/2000/svg" xmlns:xlink="http://www.w3.org/1999/xlink">
<g id="graph0" class="graph" transform="scale(1 1) rotate(0) translate(4 669)">
<title>obsoperators_mod</title>
<polygon fill="white" stroke="transparent" points="-4,4 -4,-669 948,-669 948,4 -4,4"/>
<text text-anchor="middle" x="472" y="-37.8" font-family="Times,serif" font-size="14.00">Red boxes indicate modules with dependencies not shown</text>
<text text-anchor="middle" x="472" y="-22.8" font-family="Times,serif" font-size="14.00">Lower level dependencies can be shown by clicking on a red box</text>
<text text-anchor="middle" x="472" y="-7.8" font-family="Times,serif" font-size="14.00">Shaded boxes indicate modules with no dependencies</text>
<!-- obsoperators_mod -->
<g id="node1" class="node">
<title>obsoperators_mod</title>
<g id="a_node1"><a xlink:href="obsoperators_mod.html" xlink:title="obsoperators_mod">
<polygon fill="none" stroke="black" points="510,-665 394,-665 394,-629 510,-629 510,-665"/>
<text text-anchor="middle" x="452" y="-643.3" font-family="Times,serif" font-size="14.00">obsoperators_mod</text>
</a>
</g>
</g>
<!-- bufr_mod -->
<g id="node2" class="node">
<title>bufr_mod</title>
<g id="a_node2"><a xlink:href="bufr_mod.html" xlink:title="bufr_mod">
<polygon fill="gray" stroke="black" points="70,-593 0,-593 0,-557 70,-557 70,-593"/>
<text text-anchor="middle" x="35" y="-571.3" font-family="Times,serif" font-size="14.00">bufr_mod</text>
</a>
</g>
</g>
<!-- obsoperators_mod&#45;&gt;bufr_mod -->
<g id="edge1" class="edge">
<title>obsoperators_mod&#45;&gt;bufr_mod</title>
<path fill="none" stroke="black" d="M393.98,-641.1C320.92,-634.14 191.88,-619.23 84,-593 82.58,-592.65 81.14,-592.28 79.69,-591.89"/>
<polygon fill="black" stroke="black" points="80.67,-588.53 70.09,-589.07 78.7,-595.25 80.67,-588.53"/>
</g>
<!-- codeprecision_mod -->
<g id="node3" class="node">
<title>codeprecision_mod</title>
<g id="a_node3"><a xlink:href="codeprecision_mod.html" xlink:title="codeprecision_mod">
<polygon fill="gray" stroke="black" points="133,-521 11,-521 11,-485 133,-485 133,-521"/>
<text text-anchor="middle" x="72" y="-499.3" font-family="Times,serif" font-size="14.00">codeprecision_mod</text>
</a>
</g>
</g>
<!-- obsoperators_mod&#45;&gt;codeprecision_mod -->
<g id="edge2" class="edge">
<title>obsoperators_mod&#45;&gt;codeprecision_mod</title>
<path fill="none" stroke="black" d="M393.93,-640.67C317.53,-632.86 188.13,-616.62 147,-593 120.9,-578.01 99.78,-550.33 86.68,-529.81"/>
<polygon fill="black" stroke="black" points="89.63,-527.91 81.4,-521.23 83.66,-531.58 89.63,-527.91"/>
</g>
<!-- columndata_mod -->
<g id="node4" class="node">
<title>columndata_mod</title>
<g id="a_node4"><a xlink:href="../modules/columndata_mod.svg" xlink:title="columndata_mod">
<polygon fill="none" stroke="red" points="170.5,-449 59.5,-449 59.5,-413 170.5,-413 170.5,-449"/>
<text text-anchor="middle" x="115" y="-427.3" font-family="Times,serif" font-size="14.00">columndata_mod</text>
</a>
</g>
</g>
<!-- obsoperators_mod&#45;&gt;columndata_mod -->
<g id="edge3" class="edge">
<title>obsoperators_mod&#45;&gt;columndata_mod</title>
<path fill="none" stroke="black" d="M393.82,-640.93C325.08,-633.85 216.11,-618.88 185,-593 145.28,-559.96 163.3,-532.07 142,-485 138.04,-476.25 133.39,-466.86 129.08,-458.46"/>
<polygon fill="black" stroke="black" points="132.13,-456.73 124.41,-449.47 125.92,-459.96 132.13,-456.73"/>
</g>
<!-- earthconstants_mod -->
<g id="node5" class="node">
<title>earthconstants_mod</title>
<g id="a_node5"><a xlink:href="../modules/earthconstants_mod.svg" xlink:title="earthconstants_mod">
<polygon fill="none" stroke="red" points="208.5,-377 83.5,-377 83.5,-341 208.5,-341 208.5,-377"/>
<text text-anchor="middle" x="146" y="-355.3" font-family="Times,serif" font-size="14.00">earthconstants_mod</text>
</a>
</g>
</g>
<!-- obsoperators_mod&#45;&gt;earthconstants_mod -->
<g id="edge4" class="edge">
<title>obsoperators_mod&#45;&gt;earthconstants_mod</title>
<path fill="none" stroke="black" d="M393.75,-639.5C334.09,-631.65 246.81,-616.52 223,-593 164.41,-535.13 210.94,-488.91 179,-413 175.11,-403.76 169.72,-394.27 164.42,-385.92"/>
<polygon fill="black" stroke="black" points="167.22,-383.8 158.79,-377.38 161.37,-387.66 167.22,-383.8"/>
</g>
<!-- gps_mod -->
<g id="node6" class="node">
<title>gps_mod</title>
<g id="a_node6"><a xlink:href="../modules/gps_mod.svg" xlink:title="gps_mod">
<polygon fill="none" stroke="red" points="247,-305 181,-305 181,-269 247,-269 247,-305"/>
<text text-anchor="middle" x="214" y="-283.3" font-family="Times,serif" font-size="14.00">gps_mod</text>
</a>
</g>
</g>
<!-- obsoperators_mod&#45;&gt;gps_mod -->
<g id="edge5" class="edge">
<title>obsoperators_mod&#45;&gt;gps_mod</title>
<path fill="none" stroke="black" d="M393.92,-644.59C351.59,-640.45 295.79,-628.05 261,-593 232.14,-563.93 237,-544.97 237,-504 237,-504 237,-504 237,-430 237,-389.7 227.86,-343.78 221.1,-315.34"/>
<polygon fill="black" stroke="black" points="224.43,-314.22 218.65,-305.34 217.63,-315.89 224.43,-314.22"/>
</g>
<!-- mathphysconstants_mod -->
<g id="node7" class="node">
<title>mathphysconstants_mod</title>
<g id="a_node7"><a xlink:href="mathphysconstants_mod.html" xlink:title="mathphysconstants_mod">
<polygon fill="gray" stroke="black" points="285,-233 135,-233 135,-197 285,-197 285,-233"/>
<text text-anchor="middle" x="210" y="-211.3" font-family="Times,serif" font-size="14.00">mathphysconstants_mod</text>
</a>
</g>
</g>
<!-- obsoperators_mod&#45;&gt;mathphysconstants_mod -->
<g id="edge6" class="edge">
<title>obsoperators_mod&#45;&gt;mathphysconstants_mod</title>
<path fill="none" stroke="black" d="M393.9,-639.24C361.79,-632.57 323.54,-619.32 299,-593 271.06,-563.03 275,-544.97 275,-504 275,-504 275,-504 275,-358 275,-317.55 274.05,-305.2 256,-269 250.97,-258.92 243.58,-249.21 236.18,-240.91"/>
<polygon fill="black" stroke="black" points="238.56,-238.33 229.16,-233.43 233.45,-243.12 238.56,-238.33"/>
</g>
<!-- midasmpi_mod -->
<g id="node8" class="node">
<title>midasmpi_mod</title>
<g id="a_node8"><a xlink:href="../modules/midasmpi_mod.svg" xlink:title="midasmpi_mod">
<polygon fill="none" stroke="red" points="322.5,-161 221.5,-161 221.5,-125 322.5,-125 322.5,-161"/>
<text text-anchor="middle" x="272" y="-139.3" font-family="Times,serif" font-size="14.00">midasmpi_mod</text>
</a>
</g>
</g>
<!-- obsoperators_mod&#45;&gt;midasmpi_mod -->
<g id="edge7" class="edge">
<title>obsoperators_mod&#45;&gt;midasmpi_mod</title>
<path fill="none" stroke="black" d="M393.82,-630.49C373.29,-622.38 351.68,-610.39 337,-593 310.57,-561.7 313,-544.97 313,-504 313,-504 313,-504 313,-286 313,-244.41 296.56,-198.56 284.5,-170.51"/>
<polygon fill="black" stroke="black" points="287.55,-168.75 280.3,-161.03 281.15,-171.59 287.55,-168.75"/>
</g>
<!-- obserrors_mod -->
<g id="node9" class="node">
<title>obserrors_mod</title>
<g id="a_node9"><a xlink:href="../modules/obserrors_mod.svg" xlink:title="obserrors_mod">
<polygon fill="none" stroke="red" points="400,-89 302,-89 302,-53 400,-53 400,-89"/>
<text text-anchor="middle" x="351" y="-67.3" font-family="Times,serif" font-size="14.00">obserrors_mod</text>
</a>
</g>
</g>
<!-- obsoperators_mod&#45;&gt;obserrors_mod -->
<g id="edge8" class="edge">
<title>obsoperators_mod&#45;&gt;obserrors_mod</title>
<path fill="none" stroke="black" d="M412.74,-628.93C397.21,-620.29 380.58,-608.35 370,-593 347.04,-559.7 351,-544.45 351,-504 351,-504 351,-504 351,-214 351,-174 351,-127.65 351,-99.08"/>
<polygon fill="black" stroke="black" points="354.5,-99.05 351,-89.05 347.5,-99.05 354.5,-99.05"/>
</g>
<!-- obsoperatorschem_mod -->
<g id="node10" class="node">
<title>obsoperatorschem_mod</title>
<g id="a_node10"><a xlink:href="../modules/obsoperatorschem_mod.svg" xlink:title="obsoperatorschem_mod">
<polygon fill="none" stroke="red" points="525,-593 379,-593 379,-557 525,-557 525,-593"/>
<text text-anchor="middle" x="452" y="-571.3" font-family="Times,serif" font-size="14.00">obsoperatorschem_mod</text>
</a>
</g>
</g>
<!-- obsoperators_mod&#45;&gt;obsoperatorschem_mod -->
<g id="edge9" class="edge">
<title>obsoperators_mod&#45;&gt;obsoperatorschem_mod</title>
<path fill="none" stroke="black" d="M452,-628.7C452,-620.98 452,-611.71 452,-603.11"/>
<polygon fill="black" stroke="black" points="455.5,-603.1 452,-593.1 448.5,-603.1 455.5,-603.1"/>
</g>
<!-- obsspacedata_mod -->
<g id="node11" class="node">
<title>obsspacedata_mod</title>
<g id="a_node11"><a xlink:href="../modules/obsspacedata_mod.svg" xlink:title="obsspacedata_mod">
<polygon fill="none" stroke="red" points="563,-521 445,-521 445,-485 563,-485 563,-521"/>
<text text-anchor="middle" x="504" y="-499.3" font-family="Times,serif" font-size="14.00">obsspacedata_mod</text>
</a>
</g>
</g>
<!-- obsoperators_mod&#45;&gt;obsspacedata_mod -->
<g id="edge10" class="edge">
<title>obsoperators_mod&#45;&gt;obsspacedata_mod</title>
<path fill="none" stroke="black" d="M494.62,-628.99C509.87,-620.58 525.41,-608.78 534,-593 544.99,-572.82 534.78,-547.88 523.39,-529.54"/>
<polygon fill="black" stroke="black" points="526.24,-527.51 517.79,-521.12 520.41,-531.39 526.24,-527.51"/>
</g>
<!-- physicsfunctions_mod -->
<g id="node12" class="node">
<title>physicsfunctions_mod</title>
<g id="a_node12"><a xlink:href="../modules/physicsfunctions_mod.svg" xlink:title="physicsfunctions_mod">
<polygon fill="none" stroke="red" points="601,-449 463,-449 463,-413 601,-413 601,-449"/>
<text text-anchor="middle" x="532" y="-427.3" font-family="Times,serif" font-size="14.00">physicsfunctions_mod</text>
</a>
</g>
</g>
<!-- obsoperators_mod&#45;&gt;physicsfunctions_mod -->
<g id="edge11" class="edge">
<title>obsoperators_mod&#45;&gt;physicsfunctions_mod</title>
<path fill="none" stroke="black" d="M501.49,-628.91C519.31,-620.56 538.17,-608.82 551,-593 581.81,-555.02 587.53,-531.37 572,-485 568.65,-475 562.58,-465.38 556.17,-457.14"/>
<polygon fill="black" stroke="black" points="558.82,-454.85 549.73,-449.4 553.44,-459.33 558.82,-454.85"/>
</g>
<!-- timecoord_mod -->
<g id="node13" class="node">
<title>timecoord_mod</title>
<g id="a_node13"><a xlink:href="../modules/timecoord_mod.svg" xlink:title="timecoord_mod">
<polygon fill="none" stroke="red" points="639,-377 537,-377 537,-341 639,-341 639,-377"/>
<text text-anchor="middle" x="588" y="-355.3" font-family="Times,serif" font-size="14.00">timecoord_mod</text>
</a>
</g>
</g>
<!-- obsoperators_mod&#45;&gt;timecoord_mod -->
<g id="edge12" class="edge">
<title>obsoperators_mod&#45;&gt;timecoord_mod</title>
<path fill="none" stroke="black" d="M510.06,-633.76C534,-625.91 560.04,-613.23 577,-593 629.24,-530.66 625.9,-492.76 610,-413 608.21,-404.01 604.86,-394.64 601.31,-386.32"/>
<polygon fill="black" stroke="black" points="604.46,-384.77 597.13,-377.12 598.08,-387.67 604.46,-384.77"/>
</g>
<!-- tovs_lin_mod -->
<g id="node14" class="node">
<title>tovs_lin_mod</title>
<g id="a_node14"><a xlink:href="../modules/tovs_lin_mod.svg" xlink:title="tovs_lin_mod">
<polygon fill="none" stroke="red" points="676.5,-305 585.5,-305 585.5,-269 676.5,-269 676.5,-305"/>
<text text-anchor="middle" x="631" y="-283.3" font-family="Times,serif" font-size="14.00">tovs_lin_mod</text>
</a>
</g>
</g>
<!-- obsoperators_mod&#45;&gt;tovs_lin_mod -->
<g id="edge13" class="edge">
<title>obsoperators_mod&#45;&gt;tovs_lin_mod</title>
<path fill="none" stroke="black" d="M510.18,-633.99C573.86,-617.04 667,-579.37 667,-504 667,-504 667,-504 667,-430 667,-388.78 652.57,-342.83 641.98,-314.66"/>
<polygon fill="black" stroke="black" points="645.16,-313.19 638.29,-305.13 638.64,-315.72 645.16,-313.19"/>
</g>
<!-- tovs_nl_mod -->
<g id="node15" class="node">
<title>tovs_nl_mod</title>
<g id="a_node15"><a xlink:href="../modules/tovs_nl_mod.svg" xlink:title="tovs_nl_mod">
<polygon fill="none" stroke="red" points="714.5,-233 627.5,-233 627.5,-197 714.5,-197 714.5,-233"/>
<text text-anchor="middle" x="671" y="-211.3" font-family="Times,serif" font-size="14.00">tovs_nl_mod</text>
</a>
</g>
</g>
<!-- obsoperators_mod&#45;&gt;tovs_nl_mod -->
<g id="edge14" class="edge">
<title>obsoperators_mod&#45;&gt;tovs_nl_mod</title>
<path fill="none" stroke="black" d="M510.04,-639.14C584.74,-626.72 705,-592.9 705,-504 705,-504 705,-504 705,-358 705,-316.91 691.37,-270.92 681.37,-242.72"/>
<polygon fill="black" stroke="black" points="684.6,-241.36 677.88,-233.17 678.03,-243.76 684.6,-241.36"/>
</g>
<!-- utilities_mod -->
<g id="node16" class="node">
<title>utilities_mod</title>
<g id="a_node16"><a xlink:href="../modules/utilities_mod.svg" xlink:title="utilities_mod">
<polygon fill="none" stroke="red" points="770,-161 682,-161 682,-125 770,-125 770,-161"/>
<text text-anchor="middle" x="726" y="-139.3" font-family="Times,serif" font-size="14.00">utilities_mod</text>
</a>
</g>
</g>
<!-- obsoperators_mod&#45;&gt;utilities_mod -->
<g id="edge15" class="edge">
<title>obsoperators_mod&#45;&gt;utilities_mod</title>
<path fill="none" stroke="black" d="M510.19,-642.98C595.11,-635.08 743,-606.59 743,-504 743,-504 743,-504 743,-286 743,-245.93 736.24,-199.95 731.25,-171.43"/>
<polygon fill="black" stroke="black" points="734.66,-170.63 729.44,-161.41 727.77,-171.87 734.66,-170.63"/>
</g>
<!-- varnamelist_mod -->
<g id="node17" class="node">
<title>varnamelist_mod</title>
<g id="a_node17"><a xlink:href="../modules/varnamelist_mod.svg" xlink:title="varnamelist_mod">
<polygon fill="none" stroke="red" points="853,-89 743,-89 743,-53 853,-53 853,-89"/>
<text text-anchor="middle" x="798" y="-67.3" font-family="Times,serif" font-size="14.00">varnamelist_mod</text>
</a>
</g>
</g>
<!-- obsoperators_mod&#45;&gt;varnamelist_mod -->
<g id="edge16" class="edge">
<title>obsoperators_mod&#45;&gt;varnamelist_mod</title>
<path fill="none" stroke="black" d="M510.13,-645.63C567.84,-642.84 656.99,-631.84 723,-593 767.58,-566.77 798,-555.73 798,-504 798,-504 798,-504 798,-214 798,-174 798,-127.65 798,-99.08"/>
<polygon fill="black" stroke="black" points="801.5,-99.05 798,-89.05 794.5,-99.05 801.5,-99.05"/>
</g>
<!-- verticalcoord_mod -->
<g id="node18" class="node">
<title>verticalcoord_mod</title>
<g id="a_node18"><a xlink:href="../modules/verticalcoord_mod.svg" xlink:title="verticalcoord_mod">
<polygon fill="none" stroke="red" points="944,-593 826,-593 826,-557 944,-557 944,-593"/>
<text text-anchor="middle" x="885" y="-571.3" font-family="Times,serif" font-size="14.00">verticalcoord_mod</text>
</a>
</g>
</g>
<!-- obsoperators_mod&#45;&gt;verticalcoord_mod -->
<g id="edge17" class="edge">
<title>obsoperators_mod&#45;&gt;verticalcoord_mod</title>
<path fill="none" stroke="black" d="M510.23,-638.93C581.63,-629.92 706.18,-613.08 812,-593 813.26,-592.76 814.53,-592.52 815.81,-592.26"/>
<polygon fill="black" stroke="black" points="816.63,-595.67 825.72,-590.24 815.23,-588.81 816.63,-595.67"/>
</g>
</g>
</svg>
