<?xml version="1.0" encoding="UTF-8" standalone="no"?>
<!DOCTYPE svg PUBLIC "-//W3C//DTD SVG 1.1//EN"
 "http://www.w3.org/Graphics/SVG/1.1/DTD/svg11.dtd">
<!-- Generated by graphviz version 3.0.0 (20220315.2325)
 -->
<!-- Title: obsoperators_mod Pages: 1 -->
<svg width="531pt" height="601pt"
 viewBox="0.00 0.00 531.00 601.00" xmlns="http://www.w3.org/2000/svg" xmlns:xlink="http://www.w3.org/1999/xlink">
<g id="graph0" class="graph" transform="scale(1 1) rotate(0) translate(4 597)">
<title>obsoperators_mod</title>
<polygon fill="white" stroke="transparent" points="-4,4 -4,-597 527,-597 527,4 -4,4"/>
<text text-anchor="middle" x="261.5" y="-577.8" font-family="Times,serif" font-size="14.00">Blue boxes indicate modules with reverse dependencies not shown</text>
<text text-anchor="middle" x="261.5" y="-562.8" font-family="Times,serif" font-size="14.00">Higher level reverse dependencies can be shown by clicking on a blue box</text>
<text text-anchor="middle" x="261.5" y="-547.8" font-family="Times,serif" font-size="14.00">Green boxes are programs</text>
<!-- obsoperators_mod -->
<g id="node1" class="node">
<title>obsoperators_mod</title>
<g id="a_node1"><a xlink:href="obsoperators_mod.html" xlink:title="obsoperators_mod">
<polygon fill="none" stroke="black" points="301.5,-36 185.5,-36 185.5,0 301.5,0 301.5,-36"/>
<text text-anchor="middle" x="243.5" y="-14.3" font-family="Times,serif" font-size="14.00">obsoperators_mod</text>
</a>
</g>
</g>
<!-- analysiserroroi_mod -->
<g id="node2" class="node">
<title>analysiserroroi_mod</title>
<g id="a_node2"><a xlink:href="../modules/analysiserroroi_mod_rev.svg" xlink:title="analysiserroroi_mod">
<polygon fill="none" stroke="blue" points="127,-108 0,-108 0,-72 127,-72 127,-108"/>
<text text-anchor="middle" x="63.5" y="-86.3" font-family="Times,serif" font-size="14.00">analysiserroroi_mod</text>
</a>
</g>
</g>
<!-- analysiserroroi_mod&#45;&gt;obsoperators_mod -->
<g id="edge1" class="edge">
<title>analysiserroroi_mod&#45;&gt;obsoperators_mod</title>
<path fill="none" stroke="black" d="M115.26,-68.87C141.95,-58.49 174.15,-45.97 199.61,-36.07"/>
<ellipse fill="black" stroke="black" cx="111.26" cy="-70.43" rx="4" ry="4"/>
</g>
<!-- fsoi_mod -->
<g id="node3" class="node">
<title>fsoi_mod</title>
<g id="a_node3"><a xlink:href="../modules/fsoi_mod_rev.svg" xlink:title="fsoi_mod">
<polygon fill="none" stroke="blue" points="177.5,-180 109.5,-180 109.5,-144 177.5,-144 177.5,-180"/>
<text text-anchor="middle" x="143.5" y="-158.3" font-family="Times,serif" font-size="14.00">fsoi_mod</text>
</a>
</g>
</g>
<!-- fsoi_mod&#45;&gt;obsoperators_mod -->
<g id="edge2" class="edge">
<title>fsoi_mod&#45;&gt;obsoperators_mod</title>
<path fill="none" stroke="black" d="M154.5,-136.29C163.28,-117.79 176.55,-92.28 191.5,-72 201.14,-58.93 213.89,-45.88 224.35,-36.01"/>
<ellipse fill="black" stroke="black" cx="152.71" cy="-140.13" rx="4" ry="4"/>
</g>
<!-- innovation_mod -->
<g id="node4" class="node">
<title>innovation_mod</title>
<g id="a_node4"><a xlink:href="../modules/innovation_mod_rev.svg" xlink:title="innovation_mod">
<polygon fill="none" stroke="blue" points="215.5,-252 111.5,-252 111.5,-216 215.5,-216 215.5,-252"/>
<text text-anchor="middle" x="163.5" y="-230.3" font-family="Times,serif" font-size="14.00">innovation_mod</text>
</a>
</g>
</g>
<!-- innovation_mod&#45;&gt;obsoperators_mod -->
<g id="edge3" class="edge">
<title>innovation_mod&#45;&gt;obsoperators_mod</title>
<path fill="none" stroke="black" d="M174.56,-208.49C178.47,-199.57 182.81,-189.39 186.5,-180 206.91,-128.13 228.08,-65.61 237.89,-36.06"/>
<ellipse fill="black" stroke="black" cx="172.88" cy="-212.28" rx="4" ry="4"/>
</g>
<!-- minimization_mod -->
<g id="node5" class="node">
<title>minimization_mod</title>
<g id="a_node5"><a xlink:href="../modules/minimization_mod_rev.svg" xlink:title="minimization_mod">
<polygon fill="none" stroke="blue" points="253,-324 132,-324 132,-288 253,-288 253,-324"/>
<text text-anchor="middle" x="192.5" y="-302.3" font-family="Times,serif" font-size="14.00">minimization_mod</text>
</a>
</g>
</g>
<!-- minimization_mod&#45;&gt;obsoperators_mod -->
<g id="edge4" class="edge">
<title>minimization_mod&#45;&gt;obsoperators_mod</title>
<path fill="none" stroke="black" d="M210.08,-281.19C215.66,-272.43 221.22,-262.17 224.5,-252 249.5,-174.56 246.99,-75.5 244.73,-36.19"/>
<ellipse fill="black" stroke="black" cx="207.87" cy="-284.52" rx="4" ry="4"/>
</g>
<!-- obsspacediag_mod -->
<g id="node6" class="node">
<title>obsspacediag_mod</title>
<g id="a_node6"><a xlink:href="../modules/obsspacediag_mod_rev.svg" xlink:title="obsspacediag_mod">
<polygon fill="none" stroke="blue" points="316,-396 197,-396 197,-360 316,-360 316,-396"/>
<text text-anchor="middle" x="256.5" y="-374.3" font-family="Times,serif" font-size="14.00">obsspacediag_mod</text>
</a>
</g>
</g>
<!-- obsspacediag_mod&#45;&gt;obsoperators_mod -->
<g id="edge5" class="edge">
<title>obsspacediag_mod&#45;&gt;obsoperators_mod</title>
<path fill="none" stroke="black" d="M263.64,-351.92C271.03,-323.72 281.5,-276.46 281.5,-235 281.5,-235 281.5,-235 281.5,-161 281.5,-114.55 262.29,-62.38 251.19,-36.09"/>
<ellipse fill="black" stroke="black" cx="262.6" cy="-355.82" rx="4" ry="4"/>
</g>
<!-- obsspaceerrorstddev_mod -->
<g id="node7" class="node">
<title>obsspaceerrorstddev_mod</title>
<g id="a_node7"><a xlink:href="../modules/obsspaceerrorstddev_mod_rev.svg" xlink:title="obsspaceerrorstddev_mod">
<polygon fill="none" stroke="blue" points="423,-468 266,-468 266,-432 423,-432 423,-468"/>
<text text-anchor="middle" x="344.5" y="-446.3" font-family="Times,serif" font-size="14.00">obsspaceerrorstddev_mod</text>
</a>
</g>
</g>
<!-- obsspaceerrorstddev_mod&#45;&gt;obsoperators_mod -->
<g id="edge6" class="edge">
<title>obsspaceerrorstddev_mod&#45;&gt;obsoperators_mod</title>
<path fill="none" stroke="black" d="M344.5,-423.78C344.5,-395.39 344.5,-347.89 344.5,-307 344.5,-307 344.5,-307 344.5,-161 344.5,-107.6 296.49,-60.34 266.67,-36.13"/>
<ellipse fill="black" stroke="black" cx="344.5" cy="-427.95" rx="4" ry="4"/>
</g>
<!-- midas_midas_diaghbht -->
<g id="node8" class="node">
<title>midas_midas_diaghbht</title>
<g id="a_node8"><a xlink:href="../programs/midas_diaghbht.html" xlink:title="midas_midas_diaghbht">
<polygon fill="gray" stroke="green" points="523,-540 380,-540 380,-504 523,-504 523,-540"/>
<text text-anchor="middle" x="451.5" y="-518.3" font-family="Times,serif" font-size="14.00">midas_midas_diaghbht</text>
</a>
</g>
</g>
<!-- midas_midas_diaghbht&#45;&gt;obsoperators_mod -->
<g id="edge7" class="edge">
<title>midas_midas_diaghbht&#45;&gt;obsoperators_mod</title>
<path fill="none" stroke="black" d="M451.5,-495.78C451.5,-467.39 451.5,-419.89 451.5,-379 451.5,-379 451.5,-379 451.5,-161 451.5,-88.09 363.25,-49.92 301.72,-32.16"/>
<ellipse fill="black" stroke="black" cx="451.5" cy="-499.95" rx="4" ry="4"/>
</g>
</g>
</svg>
