<?xml version="1.0" encoding="UTF-8" standalone="no"?>
<!DOCTYPE svg PUBLIC "-//W3C//DTD SVG 1.1//EN"
 "http://www.w3.org/Graphics/SVG/1.1/DTD/svg11.dtd">
<!-- Generated by graphviz version 3.0.0 (20220315.2325)
 -->
<!-- Title: obsoperatorschem_mod Pages: 1 -->
<svg width="430pt" height="313pt"
 viewBox="0.00 0.00 430.00 313.00" xmlns="http://www.w3.org/2000/svg" xmlns:xlink="http://www.w3.org/1999/xlink">
<g id="graph0" class="graph" transform="scale(1 1) rotate(0) translate(4 309)">
<title>obsoperatorschem_mod</title>
<polygon fill="white" stroke="transparent" points="-4,4 -4,-309 426,-309 426,4 -4,4"/>
<text text-anchor="middle" x="211" y="-289.8" font-family="Times,serif" font-size="14.00">Blue boxes indicate modules with reverse dependencies not shown</text>
<text text-anchor="middle" x="211" y="-274.8" font-family="Times,serif" font-size="14.00">Higher level reverse dependencies can be shown by clicking on a blue box</text>
<text text-anchor="middle" x="211" y="-259.8" font-family="Times,serif" font-size="14.00">Green boxes are programs</text>
<!-- obsoperatorschem_mod -->
<g id="node1" class="node">
<title>obsoperatorschem_mod</title>
<g id="a_node1"><a xlink:href="obsoperatorschem_mod.html" xlink:title="obsoperatorschem_mod">
<polygon fill="none" stroke="black" points="272.75,-36 126.75,-36 126.75,0 272.75,0 272.75,-36"/>
<text text-anchor="middle" x="199.75" y="-14.3" font-family="Times,serif" font-size="14.00">obsoperatorschem_mod</text>
</a>
</g>
</g>
<!-- obsoperators_mod -->
<g id="node2" class="node">
<title>obsoperators_mod</title>
<g id="a_node2"><a xlink:href="../modules/obsoperators_mod_rev.svg" xlink:title="obsoperators_mod">
<polygon fill="none" stroke="blue" points="171.75,-108 55.75,-108 55.75,-72 171.75,-72 171.75,-108"/>
<text text-anchor="middle" x="113.75" y="-86.3" font-family="Times,serif" font-size="14.00">obsoperators_mod</text>
</a>
</g>
</g>
<!-- obsoperators_mod&#45;&gt;obsoperatorschem_mod -->
<g id="edge1" class="edge">
<title>obsoperators_mod&#45;&gt;obsoperatorschem_mod</title>
<path fill="none" stroke="black" d="M141.51,-66.41C153.59,-56.57 167.53,-45.23 178.74,-36.1"/>
<ellipse fill="black" stroke="black" cx="138.11" cy="-69.17" rx="4" ry="4"/>
</g>
<!-- obsspacediag_mod -->
<g id="node3" class="node">
<title>obsspacediag_mod</title>
<g id="a_node3"><a xlink:href="../modules/obsspacediag_mod_rev.svg" xlink:title="obsspacediag_mod">
<polygon fill="none" stroke="blue" points="259.25,-180 140.25,-180 140.25,-144 259.25,-144 259.25,-180"/>
<text text-anchor="middle" x="199.75" y="-158.3" font-family="Times,serif" font-size="14.00">obsspacediag_mod</text>
</a>
</g>
</g>
<!-- obsspacediag_mod&#45;&gt;obsoperatorschem_mod -->
<g id="edge2" class="edge">
<title>obsspacediag_mod&#45;&gt;obsoperatorschem_mod</title>
<path fill="none" stroke="black" d="M199.75,-135.56C199.75,-106.86 199.75,-60.96 199.75,-36.19"/>
<ellipse fill="black" stroke="black" cx="199.75" cy="-139.87" rx="4" ry="4"/>
</g>
<!-- obsspaceerrorstddev_mod -->
<g id="node4" class="node">
<title>obsspaceerrorstddev_mod</title>
<g id="a_node4"><a xlink:href="../modules/obsspaceerrorstddev_mod_rev.svg" xlink:title="obsspaceerrorstddev_mod">
<polygon fill="none" stroke="blue" points="366.25,-252 209.25,-252 209.25,-216 366.25,-216 366.25,-252"/>
<text text-anchor="middle" x="287.75" y="-230.3" font-family="Times,serif" font-size="14.00">obsspaceerrorstddev_mod</text>
</a>
</g>
</g>
<!-- obsspaceerrorstddev_mod&#45;&gt;obsoperatorschem_mod -->
<g id="edge3" class="edge">
<title>obsspaceerrorstddev_mod&#45;&gt;obsoperatorschem_mod</title>
<path fill="none" stroke="black" d="M284.35,-207.53C281.45,-189.42 276.49,-164.73 268.75,-144 253.49,-103.13 226.6,-59.37 211.28,-36.02"/>
<ellipse fill="black" stroke="black" cx="285.02" cy="-211.89" rx="4" ry="4"/>
</g>
</g>
</svg>
