<?xml version="1.0" encoding="UTF-8" standalone="no"?>
<!DOCTYPE svg PUBLIC "-//W3C//DTD SVG 1.1//EN"
 "http://www.w3.org/Graphics/SVG/1.1/DTD/svg11.dtd">
<!-- Generated by graphviz version 3.0.0 (20220315.2325)
 -->
<!-- Title: obsoperatorschem_mod Pages: 1 -->
<svg width="929pt" height="673pt"
 viewBox="0.00 0.00 929.00 673.00" xmlns="http://www.w3.org/2000/svg" xmlns:xlink="http://www.w3.org/1999/xlink">
<g id="graph0" class="graph" transform="scale(1 1) rotate(0) translate(4 669)">
<title>obsoperatorschem_mod</title>
<polygon fill="white" stroke="transparent" points="-4,4 -4,-669 925,-669 925,4 -4,4"/>
<text text-anchor="middle" x="460.5" y="-37.8" font-family="Times,serif" font-size="14.00">Red boxes indicate modules with dependencies not shown</text>
<text text-anchor="middle" x="460.5" y="-22.8" font-family="Times,serif" font-size="14.00">Lower level dependencies can be shown by clicking on a red box</text>
<text text-anchor="middle" x="460.5" y="-7.8" font-family="Times,serif" font-size="14.00">Shaded boxes indicate modules with no dependencies</text>
<!-- obsoperatorschem_mod -->
<g id="node1" class="node">
<title>obsoperatorschem_mod</title>
<g id="a_node1"><a xlink:href="obsoperatorschem_mod.html" xlink:title="obsoperatorschem_mod">
<polygon fill="none" stroke="black" points="526,-665 380,-665 380,-629 526,-629 526,-665"/>
<text text-anchor="middle" x="453" y="-643.3" font-family="Times,serif" font-size="14.00">obsoperatorschem_mod</text>
</a>
</g>
</g>
<!-- bcovarsetupchem_mod -->
<g id="node2" class="node">
<title>bcovarsetupchem_mod</title>
<g id="a_node2"><a xlink:href="../modules/bcovarsetupchem_mod.svg" xlink:title="bcovarsetupchem_mod">
<polygon fill="none" stroke="red" points="142,-593 0,-593 0,-557 142,-557 142,-593"/>
<text text-anchor="middle" x="71" y="-571.3" font-family="Times,serif" font-size="14.00">bcovarsetupchem_mod</text>
</a>
</g>
</g>
<!-- obsoperatorschem_mod&#45;&gt;bcovarsetupchem_mod -->
<g id="edge1" class="edge">
<title>obsoperatorschem_mod&#45;&gt;bcovarsetupchem_mod</title>
<path fill="none" stroke="black" d="M379.99,-633.41C319.83,-622.93 232.3,-607.44 156,-593 154.75,-592.76 153.49,-592.52 152.23,-592.28"/>
<polygon fill="black" stroke="black" points="152.88,-588.84 142.4,-590.39 151.56,-595.72 152.88,-588.84"/>
</g>
<!-- bufr_mod -->
<g id="node3" class="node">
<title>bufr_mod</title>
<g id="a_node3"><a xlink:href="bufr_mod.html" xlink:title="bufr_mod">
<polygon fill="gray" stroke="black" points="192,-521 122,-521 122,-485 192,-485 192,-521"/>
<text text-anchor="middle" x="157" y="-499.3" font-family="Times,serif" font-size="14.00">bufr_mod</text>
</a>
</g>
</g>
<!-- obsoperatorschem_mod&#45;&gt;bufr_mod -->
<g id="edge2" class="edge">
<title>obsoperatorschem_mod&#45;&gt;bufr_mod</title>
<path fill="none" stroke="black" d="M379.82,-637.1C317.25,-628.29 233.14,-613.19 206,-593 185.42,-577.69 172.41,-551.05 165.01,-530.9"/>
<polygon fill="black" stroke="black" points="168.28,-529.65 161.73,-521.33 161.66,-531.92 168.28,-529.65"/>
</g>
<!-- codtyp_mod -->
<g id="node4" class="node">
<title>codtyp_mod</title>
<g id="a_node4"><a xlink:href="../modules/codtyp_mod.svg" xlink:title="codtyp_mod">
<polygon fill="none" stroke="red" points="230,-449 146,-449 146,-413 230,-413 230,-449"/>
<text text-anchor="middle" x="188" y="-427.3" font-family="Times,serif" font-size="14.00">codtyp_mod</text>
</a>
</g>
</g>
<!-- obsoperatorschem_mod&#45;&gt;codtyp_mod -->
<g id="edge3" class="edge">
<title>obsoperatorschem_mod&#45;&gt;codtyp_mod</title>
<path fill="none" stroke="black" d="M379.78,-644.33C335.46,-639.59 280.62,-626.59 244,-593 233.8,-583.65 208.62,-502.05 195.79,-458.74"/>
<polygon fill="black" stroke="black" points="199.14,-457.72 192.95,-449.12 192.42,-459.7 199.14,-457.72"/>
</g>
<!-- columndata_mod -->
<g id="node5" class="node">
<title>columndata_mod</title>
<g id="a_node5"><a xlink:href="../modules/columndata_mod.svg" xlink:title="columndata_mod">
<polygon fill="none" stroke="red" points="267.5,-377 156.5,-377 156.5,-341 267.5,-341 267.5,-377"/>
<text text-anchor="middle" x="212" y="-355.3" font-family="Times,serif" font-size="14.00">columndata_mod</text>
</a>
</g>
</g>
<!-- obsoperatorschem_mod&#45;&gt;columndata_mod -->
<g id="edge4" class="edge">
<title>obsoperatorschem_mod&#45;&gt;columndata_mod</title>
<path fill="none" stroke="black" d="M379.78,-639.83C345.68,-633.24 307.17,-619.89 282,-593 225.79,-532.95 267.42,-490.18 239,-413 235.68,-403.99 231.21,-394.53 226.86,-386.14"/>
<polygon fill="black" stroke="black" points="229.88,-384.36 222.07,-377.2 223.71,-387.66 229.88,-384.36"/>
</g>
<!-- earthconstants_mod -->
<g id="node6" class="node">
<title>earthconstants_mod</title>
<g id="a_node6"><a xlink:href="../modules/earthconstants_mod.svg" xlink:title="earthconstants_mod">
<polygon fill="none" stroke="red" points="305.5,-305 180.5,-305 180.5,-269 305.5,-269 305.5,-305"/>
<text text-anchor="middle" x="243" y="-283.3" font-family="Times,serif" font-size="14.00">earthconstants_mod</text>
</a>
</g>
</g>
<!-- obsoperatorschem_mod&#45;&gt;earthconstants_mod -->
<g id="edge5" class="edge">
<title>obsoperatorschem_mod&#45;&gt;earthconstants_mod</title>
<path fill="none" stroke="black" d="M379.99,-630.4C358.07,-622.48 335.7,-610.64 320,-593 292.76,-562.4 296,-544.97 296,-504 296,-504 296,-504 296,-430 296,-389.46 291.38,-378.51 276,-341 272.2,-331.72 266.83,-322.22 261.53,-313.88"/>
<polygon fill="black" stroke="black" points="264.32,-311.75 255.88,-305.34 258.48,-315.62 264.32,-311.75"/>
</g>
<!-- mathphysconstants_mod -->
<g id="node7" class="node">
<title>mathphysconstants_mod</title>
<g id="a_node7"><a xlink:href="mathphysconstants_mod.html" xlink:title="mathphysconstants_mod">
<polygon fill="gray" stroke="black" points="344,-233 194,-233 194,-197 344,-197 344,-233"/>
<text text-anchor="middle" x="269" y="-211.3" font-family="Times,serif" font-size="14.00">mathphysconstants_mod</text>
</a>
</g>
</g>
<!-- obsoperatorschem_mod&#45;&gt;mathphysconstants_mod -->
<g id="edge6" class="edge">
<title>obsoperatorschem_mod&#45;&gt;mathphysconstants_mod</title>
<path fill="none" stroke="black" d="M406.06,-628.99C388.72,-620.58 370.32,-608.78 358,-593 332.8,-560.7 334,-544.97 334,-504 334,-504 334,-504 334,-358 334,-317.46 332.09,-305.28 314,-269 308.94,-258.85 301.53,-249.01 294.18,-240.62"/>
<polygon fill="black" stroke="black" points="296.57,-238.05 287.23,-233.06 291.42,-242.79 296.57,-238.05"/>
</g>
<!-- midasmpi_mod -->
<g id="node8" class="node">
<title>midasmpi_mod</title>
<g id="a_node8"><a xlink:href="../modules/midasmpi_mod.svg" xlink:title="midasmpi_mod">
<polygon fill="none" stroke="red" points="381.5,-161 280.5,-161 280.5,-125 381.5,-125 381.5,-161"/>
<text text-anchor="middle" x="331" y="-139.3" font-family="Times,serif" font-size="14.00">midasmpi_mod</text>
</a>
</g>
</g>
<!-- obsoperatorschem_mod&#45;&gt;midasmpi_mod -->
<g id="edge7" class="edge">
<title>obsoperatorschem_mod&#45;&gt;midasmpi_mod</title>
<path fill="none" stroke="black" d="M428.92,-628.78C417.42,-619.4 404.37,-606.89 396,-593 374.85,-557.92 372,-544.97 372,-504 372,-504 372,-504 372,-286 372,-244.41 355.56,-198.56 343.5,-170.51"/>
<polygon fill="black" stroke="black" points="346.55,-168.75 339.3,-161.03 340.15,-171.59 346.55,-168.75"/>
</g>
<!-- obsfiles_mod -->
<g id="node9" class="node">
<title>obsfiles_mod</title>
<g id="a_node9"><a xlink:href="../modules/obsfiles_mod.svg" xlink:title="obsfiles_mod">
<polygon fill="none" stroke="red" points="454.5,-89 365.5,-89 365.5,-53 454.5,-53 454.5,-89"/>
<text text-anchor="middle" x="410" y="-67.3" font-family="Times,serif" font-size="14.00">obsfiles_mod</text>
</a>
</g>
</g>
<!-- obsoperatorschem_mod&#45;&gt;obsfiles_mod -->
<g id="edge8" class="edge">
<title>obsoperatorschem_mod&#45;&gt;obsfiles_mod</title>
<path fill="none" stroke="black" d="M444.09,-628.58C431.5,-602.3 410,-550.62 410,-504 410,-504 410,-504 410,-214 410,-174 410,-127.65 410,-99.08"/>
<polygon fill="black" stroke="black" points="413.5,-99.05 410,-89.05 406.5,-99.05 413.5,-99.05"/>
</g>
<!-- obsspacedata_mod -->
<g id="node10" class="node">
<title>obsspacedata_mod</title>
<g id="a_node10"><a xlink:href="../modules/obsspacedata_mod.svg" xlink:title="obsspacedata_mod">
<polygon fill="none" stroke="red" points="556,-593 438,-593 438,-557 556,-557 556,-593"/>
<text text-anchor="middle" x="497" y="-571.3" font-family="Times,serif" font-size="14.00">obsspacedata_mod</text>
</a>
</g>
</g>
<!-- obsoperatorschem_mod&#45;&gt;obsspacedata_mod -->
<g id="edge9" class="edge">
<title>obsoperatorschem_mod&#45;&gt;obsspacedata_mod</title>
<path fill="none" stroke="black" d="M463.88,-628.7C468.99,-620.56 475.2,-610.69 480.84,-601.7"/>
<polygon fill="black" stroke="black" points="483.89,-603.43 486.25,-593.1 477.96,-599.71 483.89,-603.43"/>
</g>
<!-- obssubspacedata_mod -->
<g id="node11" class="node">
<title>obssubspacedata_mod</title>
<g id="a_node11"><a xlink:href="../modules/obssubspacedata_mod.svg" xlink:title="obssubspacedata_mod">
<polygon fill="none" stroke="red" points="594,-521 458,-521 458,-485 594,-485 594,-521"/>
<text text-anchor="middle" x="526" y="-499.3" font-family="Times,serif" font-size="14.00">obssubspacedata_mod</text>
</a>
</g>
</g>
<!-- obsoperatorschem_mod&#45;&gt;obssubspacedata_mod -->
<g id="edge10" class="edge">
<title>obsoperatorschem_mod&#45;&gt;obssubspacedata_mod</title>
<path fill="none" stroke="black" d="M519.56,-628.94C537.35,-621.02 554.53,-609.54 565,-593 577.83,-572.73 564.37,-547.51 549.87,-529.1"/>
<polygon fill="black" stroke="black" points="552.33,-526.59 543.22,-521.16 546.96,-531.08 552.33,-526.59"/>
</g>
<!-- ozoneclim_mod -->
<g id="node12" class="node">
<title>ozoneclim_mod</title>
<g id="a_node12"><a xlink:href="../modules/ozoneclim_mod.svg" xlink:title="ozoneclim_mod">
<polygon fill="none" stroke="red" points="632,-449 528,-449 528,-413 632,-413 632,-449"/>
<text text-anchor="middle" x="580" y="-427.3" font-family="Times,serif" font-size="14.00">ozoneclim_mod</text>
</a>
</g>
</g>
<!-- obsoperatorschem_mod&#45;&gt;ozoneclim_mod -->
<g id="edge11" class="edge">
<title>obsoperatorschem_mod&#45;&gt;ozoneclim_mod</title>
<path fill="none" stroke="black" d="M525.99,-628.88C546.48,-620.94 567.19,-609.47 582,-593 614.7,-556.64 612.94,-532.88 603,-485 601.12,-475.96 597.63,-466.58 593.91,-458.26"/>
<polygon fill="black" stroke="black" points="597,-456.6 589.54,-449.07 590.68,-459.61 597,-456.6"/>
</g>
<!-- physicsfunctions_mod -->
<g id="node13" class="node">
<title>physicsfunctions_mod</title>
<g id="a_node13"><a xlink:href="../modules/physicsfunctions_mod.svg" xlink:title="physicsfunctions_mod">
<polygon fill="none" stroke="red" points="670,-377 532,-377 532,-341 670,-341 670,-377"/>
<text text-anchor="middle" x="601" y="-355.3" font-family="Times,serif" font-size="14.00">physicsfunctions_mod</text>
</a>
</g>
</g>
<!-- obsoperatorschem_mod&#45;&gt;physicsfunctions_mod -->
<g id="edge12" class="edge">
<title>obsoperatorschem_mod&#45;&gt;physicsfunctions_mod</title>
<path fill="none" stroke="black" d="M526.31,-636.63C555.5,-629.3 587.06,-616.24 608,-593 662.44,-532.57 666.84,-490.12 641,-413 637.65,-403 631.58,-393.38 625.17,-385.14"/>
<polygon fill="black" stroke="black" points="627.82,-382.85 618.73,-377.4 622.44,-387.33 627.82,-382.85"/>
</g>
<!-- presprofileoperators_mod -->
<g id="node14" class="node">
<title>presprofileoperators_mod</title>
<g id="a_node14"><a xlink:href="../modules/presprofileoperators_mod.svg" xlink:title="presprofileoperators_mod">
<polygon fill="none" stroke="red" points="707.5,-305 552.5,-305 552.5,-269 707.5,-269 707.5,-305"/>
<text text-anchor="middle" x="630" y="-283.3" font-family="Times,serif" font-size="14.00">presprofileoperators_mod</text>
</a>
</g>
</g>
<!-- obsoperatorschem_mod&#45;&gt;presprofileoperators_mod -->
<g id="edge13" class="edge">
<title>obsoperatorschem_mod&#45;&gt;presprofileoperators_mod</title>
<path fill="none" stroke="black" d="M526.18,-635.19C598.37,-619.9 698,-584.26 698,-504 698,-504 698,-504 698,-430 698,-389.55 697.62,-376.91 679,-341 673.61,-330.61 665.63,-320.74 657.67,-312.41"/>
<polygon fill="black" stroke="black" points="659.99,-309.78 650.44,-305.21 655.06,-314.74 659.99,-309.78"/>
</g>
<!-- timecoord_mod -->
<g id="node15" class="node">
<title>timecoord_mod</title>
<g id="a_node15"><a xlink:href="../modules/timecoord_mod.svg" xlink:title="timecoord_mod">
<polygon fill="none" stroke="red" points="766,-233 664,-233 664,-197 766,-197 766,-233"/>
<text text-anchor="middle" x="715" y="-211.3" font-family="Times,serif" font-size="14.00">timecoord_mod</text>
</a>
</g>
</g>
<!-- obsoperatorschem_mod&#45;&gt;timecoord_mod -->
<g id="edge14" class="edge">
<title>obsoperatorschem_mod&#45;&gt;timecoord_mod</title>
<path fill="none" stroke="black" d="M526.25,-640.47C610.1,-629.69 736,-597.86 736,-504 736,-504 736,-504 736,-358 736,-317.78 727.65,-271.84 721.49,-243.37"/>
<polygon fill="black" stroke="black" points="724.85,-242.36 719.25,-233.37 718.01,-243.89 724.85,-242.36"/>
</g>
<!-- utilities_mod -->
<g id="node16" class="node">
<title>utilities_mod</title>
<g id="a_node16"><a xlink:href="../modules/utilities_mod.svg" xlink:title="utilities_mod">
<polygon fill="none" stroke="red" points="838,-161 750,-161 750,-125 838,-125 838,-161"/>
<text text-anchor="middle" x="794" y="-139.3" font-family="Times,serif" font-size="14.00">utilities_mod</text>
</a>
</g>
</g>
<!-- obsoperatorschem_mod&#45;&gt;utilities_mod -->
<g id="edge15" class="edge">
<title>obsoperatorschem_mod&#45;&gt;utilities_mod</title>
<path fill="none" stroke="black" d="M526.26,-643.4C581.11,-638.65 656.3,-626 714,-593 760.17,-566.6 794,-557.19 794,-504 794,-504 794,-504 794,-286 794,-246 794,-199.65 794,-171.08"/>
<polygon fill="black" stroke="black" points="797.5,-171.05 794,-161.05 790.5,-171.05 797.5,-171.05"/>
</g>
<!-- varnamelist_mod -->
<g id="node17" class="node">
<title>varnamelist_mod</title>
<g id="a_node17"><a xlink:href="../modules/varnamelist_mod.svg" xlink:title="varnamelist_mod">
<polygon fill="none" stroke="red" points="921,-89 811,-89 811,-53 921,-53 921,-89"/>
<text text-anchor="middle" x="866" y="-67.3" font-family="Times,serif" font-size="14.00">varnamelist_mod</text>
</a>
</g>
</g>
<!-- obsoperatorschem_mod&#45;&gt;varnamelist_mod -->
<g id="edge16" class="edge">
<title>obsoperatorschem_mod&#45;&gt;varnamelist_mod</title>
<path fill="none" stroke="black" d="M526.04,-643.77C589.85,-639.43 683.64,-627.16 758,-593 814.52,-567.03 866,-566.2 866,-504 866,-504 866,-504 866,-214 866,-174 866,-127.65 866,-99.08"/>
<polygon fill="black" stroke="black" points="869.5,-99.05 866,-89.05 862.5,-99.05 869.5,-99.05"/>
</g>
</g>
</svg>
