<?xml version="1.0" encoding="UTF-8" standalone="no"?>
<!DOCTYPE svg PUBLIC "-//W3C//DTD SVG 1.1//EN"
 "http://www.w3.org/Graphics/SVG/1.1/DTD/svg11.dtd">
<!-- Generated by graphviz version 3.0.0 (20220315.2325)
 -->
<!-- Title: obsspacediag_mod Pages: 1 -->
<svg width="1463pt" height="673pt"
 viewBox="0.00 0.00 1463.00 673.00" xmlns="http://www.w3.org/2000/svg" xmlns:xlink="http://www.w3.org/1999/xlink">
<g id="graph0" class="graph" transform="scale(1 1) rotate(0) translate(4 669)">
<title>obsspacediag_mod</title>
<polygon fill="white" stroke="transparent" points="-4,4 -4,-669 1459,-669 1459,4 -4,4"/>
<text text-anchor="middle" x="727.5" y="-37.8" font-family="Times,serif" font-size="14.00">Red boxes indicate modules with dependencies not shown</text>
<text text-anchor="middle" x="727.5" y="-22.8" font-family="Times,serif" font-size="14.00">Lower level dependencies can be shown by clicking on a red box</text>
<text text-anchor="middle" x="727.5" y="-7.8" font-family="Times,serif" font-size="14.00">Shaded boxes indicate modules with no dependencies</text>
<!-- obsspacediag_mod -->
<g id="node1" class="node">
<title>obsspacediag_mod</title>
<g id="a_node1"><a xlink:href="obsspacediag_mod.html" xlink:title="obsspacediag_mod">
<polygon fill="none" stroke="black" points="794.5,-665 675.5,-665 675.5,-629 794.5,-629 794.5,-665"/>
<text text-anchor="middle" x="735" y="-643.3" font-family="Times,serif" font-size="14.00">obsspacediag_mod</text>
</a>
</g>
</g>
<!-- bcovarsetupchem_mod -->
<g id="node2" class="node">
<title>bcovarsetupchem_mod</title>
<g id="a_node2"><a xlink:href="../modules/bcovarsetupchem_mod.svg" xlink:title="bcovarsetupchem_mod">
<polygon fill="none" stroke="red" points="142,-593 0,-593 0,-557 142,-557 142,-593"/>
<text text-anchor="middle" x="71" y="-571.3" font-family="Times,serif" font-size="14.00">bcovarsetupchem_mod</text>
</a>
</g>
</g>
<!-- obsspacediag_mod&#45;&gt;bcovarsetupchem_mod -->
<g id="edge1" class="edge">
<title>obsspacediag_mod&#45;&gt;bcovarsetupchem_mod</title>
<path fill="none" stroke="black" d="M675.16,-642.62C569.81,-636.21 344.55,-620.41 156,-593 154.74,-592.82 153.48,-592.63 152.2,-592.43"/>
<polygon fill="black" stroke="black" points="152.76,-588.98 142.33,-590.84 151.64,-595.89 152.76,-588.98"/>
</g>
<!-- bmatrixensemble_mod -->
<g id="node3" class="node">
<title>bmatrixensemble_mod</title>
<g id="a_node3"><a xlink:href="../modules/bmatrixensemble_mod.svg" xlink:title="bmatrixensemble_mod">
<polygon fill="none" stroke="red" points="210,-521 70,-521 70,-485 210,-485 210,-521"/>
<text text-anchor="middle" x="140" y="-499.3" font-family="Times,serif" font-size="14.00">bmatrixensemble_mod</text>
</a>
</g>
</g>
<!-- obsspacediag_mod&#45;&gt;bmatrixensemble_mod -->
<g id="edge2" class="edge">
<title>obsspacediag_mod&#45;&gt;bmatrixensemble_mod</title>
<path fill="none" stroke="black" d="M675.07,-644.97C557.65,-642.11 301.97,-631.51 224,-593 195.33,-578.84 171.34,-550.57 156.43,-529.67"/>
<polygon fill="black" stroke="black" points="159.17,-527.48 150.61,-521.23 153.41,-531.45 159.17,-527.48"/>
</g>
<!-- bmatrixhi_mod -->
<g id="node4" class="node">
<title>bmatrixhi_mod</title>
<g id="a_node4"><a xlink:href="../modules/bmatrixhi_mod.svg" xlink:title="bmatrixhi_mod">
<polygon fill="none" stroke="red" points="248,-449 148,-449 148,-413 248,-413 248,-449"/>
<text text-anchor="middle" x="198" y="-427.3" font-family="Times,serif" font-size="14.00">bmatrixhi_mod</text>
</a>
</g>
</g>
<!-- obsspacediag_mod&#45;&gt;bmatrixhi_mod -->
<g id="edge3" class="edge">
<title>obsspacediag_mod&#45;&gt;bmatrixhi_mod</title>
<path fill="none" stroke="black" d="M675.11,-646.74C562.65,-646.95 325.46,-641.45 262,-593 261.82,-592.86 226.63,-504.19 208.52,-458.52"/>
<polygon fill="black" stroke="black" points="211.77,-457.22 204.83,-449.21 205.26,-459.8 211.77,-457.22"/>
</g>
<!-- bmatrix_mod -->
<g id="node5" class="node">
<title>bmatrix_mod</title>
<g id="a_node5"><a xlink:href="../modules/bmatrix_mod.svg" xlink:title="bmatrix_mod">
<polygon fill="none" stroke="red" points="285.5,-377 196.5,-377 196.5,-341 285.5,-341 285.5,-377"/>
<text text-anchor="middle" x="241" y="-355.3" font-family="Times,serif" font-size="14.00">bmatrix_mod</text>
</a>
</g>
</g>
<!-- obsspacediag_mod&#45;&gt;bmatrix_mod -->
<g id="edge4" class="edge">
<title>obsspacediag_mod&#45;&gt;bmatrix_mod</title>
<path fill="none" stroke="black" d="M675.18,-646.84C569.11,-647.06 354.13,-641.32 300,-593 238.64,-538.22 278.45,-492.4 257,-413 254.68,-404.42 251.95,-395.13 249.41,-386.76"/>
<polygon fill="black" stroke="black" points="252.73,-385.64 246.44,-377.11 246.04,-387.7 252.73,-385.64"/>
</g>
<!-- bufr_mod -->
<g id="node6" class="node">
<title>bufr_mod</title>
<g id="a_node6"><a xlink:href="bufr_mod.html" xlink:title="bufr_mod">
<polygon fill="gray" stroke="black" points="324,-305 254,-305 254,-269 324,-269 324,-305"/>
<text text-anchor="middle" x="289" y="-283.3" font-family="Times,serif" font-size="14.00">bufr_mod</text>
</a>
</g>
</g>
<!-- obsspacediag_mod&#45;&gt;bufr_mod -->
<g id="edge5" class="edge">
<title>obsspacediag_mod&#45;&gt;bufr_mod</title>
<path fill="none" stroke="black" d="M675.46,-645.88C577.19,-644.44 387.01,-635.99 338,-593 307.2,-565.98 314,-544.97 314,-504 314,-504 314,-504 314,-430 314,-389.6 304.06,-343.71 296.72,-315.3"/>
<polygon fill="black" stroke="black" points="300.02,-314.08 294.06,-305.32 293.25,-315.88 300.02,-314.08"/>
</g>
<!-- codeprecision_mod -->
<g id="node7" class="node">
<title>codeprecision_mod</title>
<g id="a_node7"><a xlink:href="codeprecision_mod.html" xlink:title="codeprecision_mod">
<polygon fill="gray" stroke="black" points="362,-233 240,-233 240,-197 362,-197 362,-233"/>
<text text-anchor="middle" x="301" y="-211.3" font-family="Times,serif" font-size="14.00">codeprecision_mod</text>
</a>
</g>
</g>
<!-- obsspacediag_mod&#45;&gt;codeprecision_mod -->
<g id="edge6" class="edge">
<title>obsspacediag_mod&#45;&gt;codeprecision_mod</title>
<path fill="none" stroke="black" d="M675.32,-644.9C584.92,-641.99 419.19,-631.42 376,-593 345.39,-565.77 352,-544.97 352,-504 352,-504 352,-504 352,-358 352,-317.55 347.88,-306.61 333,-269 329.34,-259.75 324.15,-250.26 319,-241.92"/>
<polygon fill="black" stroke="black" points="321.87,-239.9 313.52,-233.38 315.98,-243.68 321.87,-239.9"/>
</g>
<!-- codtyp_mod -->
<g id="node8" class="node">
<title>codtyp_mod</title>
<g id="a_node8"><a xlink:href="../modules/codtyp_mod.svg" xlink:title="codtyp_mod">
<polygon fill="none" stroke="red" points="400,-161 316,-161 316,-125 400,-125 400,-161"/>
<text text-anchor="middle" x="358" y="-139.3" font-family="Times,serif" font-size="14.00">codtyp_mod</text>
</a>
</g>
</g>
<!-- obsspacediag_mod&#45;&gt;codtyp_mod -->
<g id="edge7" class="edge">
<title>obsspacediag_mod&#45;&gt;codtyp_mod</title>
<path fill="none" stroke="black" d="M675.18,-643.69C593.09,-639.28 451.43,-626.87 414,-593 383.62,-565.51 390,-544.97 390,-504 390,-504 390,-504 390,-286 390,-245.04 377.17,-199.02 367.76,-170.77"/>
<polygon fill="black" stroke="black" points="371.03,-169.53 364.48,-161.21 364.41,-171.8 371.03,-169.53"/>
</g>
<!-- columndata_mod -->
<g id="node9" class="node">
<title>columndata_mod</title>
<g id="a_node9"><a xlink:href="../modules/columndata_mod.svg" xlink:title="columndata_mod">
<polygon fill="none" stroke="red" points="483.5,-89 372.5,-89 372.5,-53 483.5,-53 483.5,-89"/>
<text text-anchor="middle" x="428" y="-67.3" font-family="Times,serif" font-size="14.00">columndata_mod</text>
</a>
</g>
</g>
<!-- obsspacediag_mod&#45;&gt;columndata_mod -->
<g id="edge8" class="edge">
<title>obsspacediag_mod&#45;&gt;columndata_mod</title>
<path fill="none" stroke="black" d="M675.37,-642.68C600.72,-637.27 478.76,-623.87 447,-593 418,-564.81 428,-544.45 428,-504 428,-504 428,-504 428,-214 428,-174 428,-127.65 428,-99.08"/>
<polygon fill="black" stroke="black" points="431.5,-99.05 428,-89.05 424.5,-99.05 431.5,-99.05"/>
</g>
<!-- controlvector_mod -->
<g id="node10" class="node">
<title>controlvector_mod</title>
<g id="a_node10"><a xlink:href="../modules/controlvector_mod.svg" xlink:title="controlvector_mod">
<polygon fill="none" stroke="red" points="574,-593 456,-593 456,-557 574,-557 574,-593"/>
<text text-anchor="middle" x="515" y="-571.3" font-family="Times,serif" font-size="14.00">controlvector_mod</text>
</a>
</g>
</g>
<!-- obsspacediag_mod&#45;&gt;controlvector_mod -->
<g id="edge9" class="edge">
<title>obsspacediag_mod&#45;&gt;controlvector_mod</title>
<path fill="none" stroke="black" d="M681.46,-628.97C650.46,-619.1 611.24,-606.62 578.66,-596.25"/>
<polygon fill="black" stroke="black" points="579.37,-592.81 568.78,-593.11 577.24,-599.48 579.37,-592.81"/>
</g>
<!-- gridstatevector_mod -->
<g id="node11" class="node">
<title>gridstatevector_mod</title>
<g id="a_node11"><a xlink:href="../modules/gridstatevector_mod.svg" xlink:title="gridstatevector_mod">
<polygon fill="none" stroke="red" points="611.5,-521 484.5,-521 484.5,-485 611.5,-485 611.5,-521"/>
<text text-anchor="middle" x="548" y="-499.3" font-family="Times,serif" font-size="14.00">gridstatevector_mod</text>
</a>
</g>
</g>
<!-- obsspacediag_mod&#45;&gt;gridstatevector_mod -->
<g id="edge10" class="edge">
<title>obsspacediag_mod&#45;&gt;gridstatevector_mod</title>
<path fill="none" stroke="black" d="M690,-628.95C669.39,-619.97 645.32,-607.74 626,-593 602.24,-574.87 580.3,-548.6 565.78,-529.3"/>
<polygon fill="black" stroke="black" points="568.59,-527.22 559.84,-521.24 562.95,-531.37 568.59,-527.22"/>
</g>
<!-- horizontalcoord_mod -->
<g id="node12" class="node">
<title>horizontalcoord_mod</title>
<g id="a_node12"><a xlink:href="../modules/horizontalcoord_mod.svg" xlink:title="horizontalcoord_mod">
<polygon fill="none" stroke="red" points="649.5,-449 516.5,-449 516.5,-413 649.5,-413 649.5,-449"/>
<text text-anchor="middle" x="583" y="-427.3" font-family="Times,serif" font-size="14.00">horizontalcoord_mod</text>
</a>
</g>
</g>
<!-- obsspacediag_mod&#45;&gt;horizontalcoord_mod -->
<g id="edge11" class="edge">
<title>obsspacediag_mod&#45;&gt;horizontalcoord_mod</title>
<path fill="none" stroke="black" d="M705.03,-628.92C691.06,-619.74 675.1,-607.36 664,-593 632.29,-552 644.77,-530.53 620,-485 614.85,-475.54 608.36,-465.72 602.26,-457.14"/>
<polygon fill="black" stroke="black" points="605.07,-455.06 596.35,-449.04 599.42,-459.18 605.07,-455.06"/>
</g>
<!-- mathphysconstants_mod -->
<g id="node13" class="node">
<title>mathphysconstants_mod</title>
<g id="a_node13"><a xlink:href="mathphysconstants_mod.html" xlink:title="mathphysconstants_mod">
<polygon fill="gray" stroke="black" points="688,-377 538,-377 538,-341 688,-341 688,-377"/>
<text text-anchor="middle" x="613" y="-355.3" font-family="Times,serif" font-size="14.00">mathphysconstants_mod</text>
</a>
</g>
</g>
<!-- obsspacediag_mod&#45;&gt;mathphysconstants_mod -->
<g id="edge12" class="edge">
<title>obsspacediag_mod&#45;&gt;mathphysconstants_mod</title>
<path fill="none" stroke="black" d="M722.21,-628.62C715.37,-618.62 707.3,-605.59 702,-593 670.06,-517.09 695.43,-486.36 658,-413 652.84,-402.9 645.41,-393.07 638.07,-384.68"/>
<polygon fill="black" stroke="black" points="640.47,-382.11 631.13,-377.11 635.3,-386.84 640.47,-382.11"/>
</g>
<!-- midasmpi_mod -->
<g id="node14" class="node">
<title>midasmpi_mod</title>
<g id="a_node14"><a xlink:href="../modules/midasmpi_mod.svg" xlink:title="midasmpi_mod">
<polygon fill="none" stroke="red" points="725.5,-305 624.5,-305 624.5,-269 725.5,-269 725.5,-305"/>
<text text-anchor="middle" x="675" y="-283.3" font-family="Times,serif" font-size="14.00">midasmpi_mod</text>
</a>
</g>
</g>
<!-- obsspacediag_mod&#45;&gt;midasmpi_mod -->
<g id="edge13" class="edge">
<title>obsspacediag_mod&#45;&gt;midasmpi_mod</title>
<path fill="none" stroke="black" d="M731.16,-628.61C725.6,-601.94 716,-549.27 716,-504 716,-504 716,-504 716,-430 716,-388.41 699.56,-342.56 687.5,-314.51"/>
<polygon fill="black" stroke="black" points="690.55,-312.75 683.3,-305.03 684.15,-315.59 690.55,-312.75"/>
</g>
<!-- obsfamilylist_mod -->
<g id="node15" class="node">
<title>obsfamilylist_mod</title>
<g id="a_node15"><a xlink:href="obsfamilylist_mod.html" xlink:title="obsfamilylist_mod">
<polygon fill="gray" stroke="black" points="764,-233 646,-233 646,-197 764,-197 764,-233"/>
<text text-anchor="middle" x="705" y="-211.3" font-family="Times,serif" font-size="14.00">obsfamilylist_mod</text>
</a>
</g>
</g>
<!-- obsspacediag_mod&#45;&gt;obsfamilylist_mod -->
<g id="edge14" class="edge">
<title>obsspacediag_mod&#45;&gt;obsfamilylist_mod</title>
<path fill="none" stroke="black" d="M738.84,-628.61C744.4,-601.94 754,-549.27 754,-504 754,-504 754,-504 754,-358 754,-317.46 748.31,-306.93 734,-269 730.56,-259.87 725.79,-250.38 721.11,-242"/>
<polygon fill="black" stroke="black" points="723.99,-239.98 715.94,-233.08 717.93,-243.49 723.99,-239.98"/>
</g>
<!-- obsfiles_mod -->
<g id="node16" class="node">
<title>obsfiles_mod</title>
<g id="a_node16"><a xlink:href="../modules/obsfiles_mod.svg" xlink:title="obsfiles_mod">
<polygon fill="none" stroke="red" points="801.5,-161 712.5,-161 712.5,-125 801.5,-125 801.5,-161"/>
<text text-anchor="middle" x="757" y="-139.3" font-family="Times,serif" font-size="14.00">obsfiles_mod</text>
</a>
</g>
</g>
<!-- obsspacediag_mod&#45;&gt;obsfiles_mod -->
<g id="edge15" class="edge">
<title>obsspacediag_mod&#45;&gt;obsfiles_mod</title>
<path fill="none" stroke="black" d="M746.81,-628.96C763.51,-603.16 792,-552.08 792,-504 792,-504 792,-504 792,-286 792,-244.84 777.97,-198.88 767.67,-170.69"/>
<polygon fill="black" stroke="black" points="770.88,-169.28 764.08,-161.15 764.33,-171.74 770.88,-169.28"/>
</g>
<!-- obsoperatorschem_mod -->
<g id="node17" class="node">
<title>obsoperatorschem_mod</title>
<g id="a_node17"><a xlink:href="../modules/obsoperatorschem_mod.svg" xlink:title="obsoperatorschem_mod">
<polygon fill="none" stroke="red" points="903,-89 757,-89 757,-53 903,-53 903,-89"/>
<text text-anchor="middle" x="830" y="-67.3" font-family="Times,serif" font-size="14.00">obsoperatorschem_mod</text>
</a>
</g>
</g>
<!-- obsspacediag_mod&#45;&gt;obsoperatorschem_mod -->
<g id="edge16" class="edge">
<title>obsspacediag_mod&#45;&gt;obsoperatorschem_mod</title>
<path fill="none" stroke="black" d="M756.56,-628.78C784.59,-604.28 830,-556.5 830,-504 830,-504 830,-504 830,-214 830,-174 830,-127.65 830,-99.08"/>
<polygon fill="black" stroke="black" points="833.5,-99.05 830,-89.05 826.5,-99.05 833.5,-99.05"/>
</g>
<!-- obsoperators_mod -->
<g id="node18" class="node">
<title>obsoperators_mod</title>
<g id="a_node18"><a xlink:href="../modules/obsoperators_mod.svg" xlink:title="obsoperators_mod">
<polygon fill="none" stroke="red" points="974,-593 858,-593 858,-557 974,-557 974,-593"/>
<text text-anchor="middle" x="916" y="-571.3" font-family="Times,serif" font-size="14.00">obsoperators_mod</text>
</a>
</g>
</g>
<!-- obsspacediag_mod&#45;&gt;obsoperators_mod -->
<g id="edge17" class="edge">
<title>obsspacediag_mod&#45;&gt;obsoperators_mod</title>
<path fill="none" stroke="black" d="M779.28,-628.88C804.35,-619.18 835.9,-606.98 862.37,-596.74"/>
<polygon fill="black" stroke="black" points="863.8,-599.94 871.87,-593.07 861.28,-593.41 863.8,-599.94"/>
</g>
<!-- obsspacedata_mod -->
<g id="node19" class="node">
<title>obsspacedata_mod</title>
<g id="a_node19"><a xlink:href="../modules/obsspacedata_mod.svg" xlink:title="obsspacedata_mod">
<polygon fill="none" stroke="red" points="1012,-521 894,-521 894,-485 1012,-485 1012,-521"/>
<text text-anchor="middle" x="953" y="-499.3" font-family="Times,serif" font-size="14.00">obsspacedata_mod</text>
</a>
</g>
</g>
<!-- obsspacediag_mod&#45;&gt;obsspacedata_mod -->
<g id="edge18" class="edge">
<title>obsspacediag_mod&#45;&gt;obsspacedata_mod</title>
<path fill="none" stroke="black" d="M794.52,-641.71C860.21,-635.59 959.74,-621.75 983,-593 997.85,-574.64 986.3,-548.57 973.46,-529.39"/>
<polygon fill="black" stroke="black" points="976.22,-527.23 967.57,-521.11 970.52,-531.29 976.22,-527.23"/>
</g>
<!-- obssubspacedata_mod -->
<g id="node20" class="node">
<title>obssubspacedata_mod</title>
<g id="a_node20"><a xlink:href="../modules/obssubspacedata_mod.svg" xlink:title="obssubspacedata_mod">
<polygon fill="none" stroke="red" points="1050,-449 914,-449 914,-413 1050,-413 1050,-449"/>
<text text-anchor="middle" x="982" y="-427.3" font-family="Times,serif" font-size="14.00">obssubspacedata_mod</text>
</a>
</g>
</g>
<!-- obsspacediag_mod&#45;&gt;obssubspacedata_mod -->
<g id="edge19" class="edge">
<title>obsspacediag_mod&#45;&gt;obssubspacedata_mod</title>
<path fill="none" stroke="black" d="M794.65,-641.32C863.67,-634.71 971.62,-620.27 1001,-593 1036.78,-559.79 1036.23,-531.38 1021,-485 1017.69,-474.91 1011.63,-465.15 1005.27,-456.82"/>
<polygon fill="black" stroke="black" points="1007.92,-454.54 998.89,-449.01 1002.5,-458.97 1007.92,-454.54"/>
</g>
<!-- physicsfunctions_mod -->
<g id="node21" class="node">
<title>physicsfunctions_mod</title>
<g id="a_node21"><a xlink:href="../modules/physicsfunctions_mod.svg" xlink:title="physicsfunctions_mod">
<polygon fill="none" stroke="red" points="1088,-377 950,-377 950,-341 1088,-341 1088,-377"/>
<text text-anchor="middle" x="1019" y="-355.3" font-family="Times,serif" font-size="14.00">physicsfunctions_mod</text>
</a>
</g>
</g>
<!-- obsspacediag_mod&#45;&gt;physicsfunctions_mod -->
<g id="edge20" class="edge">
<title>obsspacediag_mod&#45;&gt;physicsfunctions_mod</title>
<path fill="none" stroke="black" d="M794.76,-642.8C870.34,-637.5 994.55,-624.2 1027,-593 1085.57,-536.68 1084.81,-490.05 1059,-413 1055.65,-403 1049.58,-393.38 1043.17,-385.14"/>
<polygon fill="black" stroke="black" points="1045.82,-382.85 1036.73,-377.4 1040.44,-387.33 1045.82,-382.85"/>
</g>
<!-- randomnumber_mod -->
<g id="node22" class="node">
<title>randomnumber_mod</title>
<g id="a_node22"><a xlink:href="randomnumber_mod.html" xlink:title="randomnumber_mod">
<polygon fill="gray" stroke="black" points="1125.5,-305 994.5,-305 994.5,-269 1125.5,-269 1125.5,-305"/>
<text text-anchor="middle" x="1060" y="-283.3" font-family="Times,serif" font-size="14.00">randomnumber_mod</text>
</a>
</g>
</g>
<!-- obsspacediag_mod&#45;&gt;randomnumber_mod -->
<g id="edge21" class="edge">
<title>obsspacediag_mod&#45;&gt;randomnumber_mod</title>
<path fill="none" stroke="black" d="M794.58,-641.71C874.92,-634.99 1012.79,-619.88 1055,-593 1095.45,-567.24 1116,-551.95 1116,-504 1116,-504 1116,-504 1116,-430 1116,-389.55 1113.12,-378.1 1097,-341 1092.82,-331.38 1086.75,-321.71 1080.74,-313.32"/>
<polygon fill="black" stroke="black" points="1083.37,-310.99 1074.57,-305.09 1077.77,-315.19 1083.37,-310.99"/>
</g>
<!-- statetocolumn_mod -->
<g id="node23" class="node">
<title>statetocolumn_mod</title>
<g id="a_node23"><a xlink:href="../modules/statetocolumn_mod.svg" xlink:title="statetocolumn_mod">
<polygon fill="none" stroke="red" points="1164,-233 1040,-233 1040,-197 1164,-197 1164,-233"/>
<text text-anchor="middle" x="1102" y="-211.3" font-family="Times,serif" font-size="14.00">statetocolumn_mod</text>
</a>
</g>
</g>
<!-- obsspacediag_mod&#45;&gt;statetocolumn_mod -->
<g id="edge22" class="edge">
<title>obsspacediag_mod&#45;&gt;statetocolumn_mod</title>
<path fill="none" stroke="black" d="M794.54,-642.76C882.62,-637.05 1042.5,-622.83 1091,-593 1132.28,-567.62 1154,-552.46 1154,-504 1154,-504 1154,-504 1154,-358 1154,-317.55 1150.14,-306.51 1135,-269 1131.25,-259.7 1125.89,-250.2 1120.59,-241.86"/>
<polygon fill="black" stroke="black" points="1123.38,-239.72 1114.93,-233.32 1117.54,-243.59 1123.38,-239.72"/>
</g>
<!-- timecoord_mod -->
<g id="node24" class="node">
<title>timecoord_mod</title>
<g id="a_node24"><a xlink:href="../modules/timecoord_mod.svg" xlink:title="timecoord_mod">
<polygon fill="none" stroke="red" points="1202,-161 1100,-161 1100,-125 1202,-125 1202,-161"/>
<text text-anchor="middle" x="1151" y="-139.3" font-family="Times,serif" font-size="14.00">timecoord_mod</text>
</a>
</g>
</g>
<!-- obsspacediag_mod&#45;&gt;timecoord_mod -->
<g id="edge23" class="edge">
<title>obsspacediag_mod&#45;&gt;timecoord_mod</title>
<path fill="none" stroke="black" d="M794.77,-643.67C890.52,-639 1073.11,-625.96 1128,-593 1169.77,-567.92 1192,-552.72 1192,-504 1192,-504 1192,-504 1192,-286 1192,-244.41 1175.56,-198.56 1163.5,-170.51"/>
<polygon fill="black" stroke="black" points="1166.55,-168.75 1159.3,-161.03 1160.15,-171.59 1166.55,-168.75"/>
</g>
<!-- utilities_mod -->
<g id="node25" class="node">
<title>utilities_mod</title>
<g id="a_node25"><a xlink:href="../modules/utilities_mod.svg" xlink:title="utilities_mod">
<polygon fill="none" stroke="red" points="1274,-89 1186,-89 1186,-53 1274,-53 1274,-89"/>
<text text-anchor="middle" x="1230" y="-67.3" font-family="Times,serif" font-size="14.00">utilities_mod</text>
</a>
</g>
</g>
<!-- obsspacediag_mod&#45;&gt;utilities_mod -->
<g id="edge24" class="edge">
<title>obsspacediag_mod&#45;&gt;utilities_mod</title>
<path fill="none" stroke="black" d="M794.53,-644.44C897.46,-640.8 1103.56,-629.11 1165,-593 1207.23,-568.18 1230,-552.98 1230,-504 1230,-504 1230,-504 1230,-214 1230,-174 1230,-127.65 1230,-99.08"/>
<polygon fill="black" stroke="black" points="1233.5,-99.05 1230,-89.05 1226.5,-99.05 1233.5,-99.05"/>
</g>
<!-- varnamelist_mod -->
<g id="node26" class="node">
<title>varnamelist_mod</title>
<g id="a_node26"><a xlink:href="../modules/varnamelist_mod.svg" xlink:title="varnamelist_mod">
<polygon fill="none" stroke="red" points="1368,-593 1258,-593 1258,-557 1368,-557 1368,-593"/>
<text text-anchor="middle" x="1313" y="-571.3" font-family="Times,serif" font-size="14.00">varnamelist_mod</text>
</a>
</g>
</g>
<!-- obsspacediag_mod&#45;&gt;varnamelist_mod -->
<g id="edge25" class="edge">
<title>obsspacediag_mod&#45;&gt;varnamelist_mod</title>
<path fill="none" stroke="black" d="M794.53,-642.47C889.94,-636.22 1082.74,-621.12 1244,-593 1245.26,-592.78 1246.54,-592.55 1247.82,-592.31"/>
<polygon fill="black" stroke="black" points="1248.66,-595.71 1257.78,-590.32 1247.29,-588.85 1248.66,-595.71"/>
</g>
<!-- verticalcoord_mod -->
<g id="node27" class="node">
<title>verticalcoord_mod</title>
<g id="a_node27"><a xlink:href="../modules/verticalcoord_mod.svg" xlink:title="verticalcoord_mod">
<polygon fill="none" stroke="red" points="1455,-521 1337,-521 1337,-485 1455,-485 1455,-521"/>
<text text-anchor="middle" x="1396" y="-499.3" font-family="Times,serif" font-size="14.00">verticalcoord_mod</text>
</a>
</g>
</g>
<!-- obsspacediag_mod&#45;&gt;verticalcoord_mod -->
<g id="edge26" class="edge">
<title>obsspacediag_mod&#45;&gt;verticalcoord_mod</title>
<path fill="none" stroke="black" d="M794.5,-645.07C945.34,-642.15 1333.81,-630.99 1377,-593 1394.2,-577.87 1398.01,-551.34 1398.08,-531.17"/>
<polygon fill="black" stroke="black" points="1401.58,-530.92 1397.82,-521.02 1394.58,-531.11 1401.58,-530.92"/>
</g>
</g>
</svg>
