<?xml version="1.0" encoding="UTF-8" standalone="no"?>
<!DOCTYPE svg PUBLIC "-//W3C//DTD SVG 1.1//EN"
 "http://www.w3.org/Graphics/SVG/1.1/DTD/svg11.dtd">
<!-- Generated by graphviz version 3.0.0 (20220315.2325)
 -->
<!-- Title: obsspaceerrorstddev_mod Pages: 1 -->
<svg width="1295pt" height="673pt"
 viewBox="0.00 0.00 1295.00 673.00" xmlns="http://www.w3.org/2000/svg" xmlns:xlink="http://www.w3.org/1999/xlink">
<g id="graph0" class="graph" transform="scale(1 1) rotate(0) translate(4 669)">
<title>obsspaceerrorstddev_mod</title>
<polygon fill="white" stroke="transparent" points="-4,4 -4,-669 1291,-669 1291,4 -4,4"/>
<text text-anchor="middle" x="643.5" y="-37.8" font-family="Times,serif" font-size="14.00">Red boxes indicate modules with dependencies not shown</text>
<text text-anchor="middle" x="643.5" y="-22.8" font-family="Times,serif" font-size="14.00">Lower level dependencies can be shown by clicking on a red box</text>
<text text-anchor="middle" x="643.5" y="-7.8" font-family="Times,serif" font-size="14.00">Shaded boxes indicate modules with no dependencies</text>
<!-- obsspaceerrorstddev_mod -->
<g id="node1" class="node">
<title>obsspaceerrorstddev_mod</title>
<g id="a_node1"><a xlink:href="obsspaceerrorstddev_mod.html" xlink:title="obsspaceerrorstddev_mod">
<polygon fill="none" stroke="black" points="728.5,-665 571.5,-665 571.5,-629 728.5,-629 728.5,-665"/>
<text text-anchor="middle" x="650" y="-643.3" font-family="Times,serif" font-size="14.00">obsspaceerrorstddev_mod</text>
</a>
</g>
</g>
<!-- bcovarsetupchem_mod -->
<g id="node2" class="node">
<title>bcovarsetupchem_mod</title>
<g id="a_node2"><a xlink:href="../modules/bcovarsetupchem_mod.svg" xlink:title="bcovarsetupchem_mod">
<polygon fill="none" stroke="red" points="142,-593 0,-593 0,-557 142,-557 142,-593"/>
<text text-anchor="middle" x="71" y="-571.3" font-family="Times,serif" font-size="14.00">bcovarsetupchem_mod</text>
</a>
</g>
</g>
<!-- obsspaceerrorstddev_mod&#45;&gt;bcovarsetupchem_mod -->
<g id="edge1" class="edge">
<title>obsspaceerrorstddev_mod&#45;&gt;bcovarsetupchem_mod</title>
<path fill="none" stroke="black" d="M571.43,-639.78C473.73,-631.54 302.01,-615.39 156,-593 154.74,-592.81 153.48,-592.61 152.21,-592.41"/>
<polygon fill="black" stroke="black" points="152.78,-588.95 142.34,-590.75 151.62,-595.86 152.78,-588.95"/>
</g>
<!-- bmatrixensemble_mod -->
<g id="node3" class="node">
<title>bmatrixensemble_mod</title>
<g id="a_node3"><a xlink:href="../modules/bmatrixensemble_mod.svg" xlink:title="bmatrixensemble_mod">
<polygon fill="none" stroke="red" points="210,-521 70,-521 70,-485 210,-485 210,-521"/>
<text text-anchor="middle" x="140" y="-499.3" font-family="Times,serif" font-size="14.00">bmatrixensemble_mod</text>
</a>
</g>
</g>
<!-- obsspaceerrorstddev_mod&#45;&gt;bmatrixensemble_mod -->
<g id="edge2" class="edge">
<title>obsspaceerrorstddev_mod&#45;&gt;bmatrixensemble_mod</title>
<path fill="none" stroke="black" d="M571.49,-642.56C465.5,-636.86 283.08,-622.94 224,-593 195.48,-578.55 171.46,-550.33 156.51,-529.52"/>
<polygon fill="black" stroke="black" points="159.25,-527.34 150.67,-521.12 153.5,-531.33 159.25,-527.34"/>
</g>
<!-- bmatrixhi_mod -->
<g id="node4" class="node">
<title>bmatrixhi_mod</title>
<g id="a_node4"><a xlink:href="../modules/bmatrixhi_mod.svg" xlink:title="bmatrixhi_mod">
<polygon fill="none" stroke="red" points="248,-449 148,-449 148,-413 248,-413 248,-449"/>
<text text-anchor="middle" x="198" y="-427.3" font-family="Times,serif" font-size="14.00">bmatrixhi_mod</text>
</a>
</g>
</g>
<!-- obsspaceerrorstddev_mod&#45;&gt;bmatrixhi_mod -->
<g id="edge3" class="edge">
<title>obsspaceerrorstddev_mod&#45;&gt;bmatrixhi_mod</title>
<path fill="none" stroke="black" d="M571.27,-644.42C472.02,-640.9 308.71,-629.56 262,-593 261.82,-592.86 226.64,-504.19 208.52,-458.52"/>
<polygon fill="black" stroke="black" points="211.77,-457.22 204.83,-449.21 205.26,-459.8 211.77,-457.22"/>
</g>
<!-- bufr_mod -->
<g id="node5" class="node">
<title>bufr_mod</title>
<g id="a_node5"><a xlink:href="bufr_mod.html" xlink:title="bufr_mod">
<polygon fill="gray" stroke="black" points="286,-377 216,-377 216,-341 286,-341 286,-377"/>
<text text-anchor="middle" x="251" y="-355.3" font-family="Times,serif" font-size="14.00">bufr_mod</text>
</a>
</g>
</g>
<!-- obsspaceerrorstddev_mod&#45;&gt;bufr_mod -->
<g id="edge4" class="edge">
<title>obsspaceerrorstddev_mod&#45;&gt;bufr_mod</title>
<path fill="none" stroke="black" d="M571.3,-644.24C480.27,-640.51 338.03,-628.92 300,-593 285.04,-578.87 263.71,-445.77 254.97,-387.31"/>
<polygon fill="black" stroke="black" points="258.41,-386.69 253.49,-377.31 251.49,-387.72 258.41,-386.69"/>
</g>
<!-- calcheightandpressure_mod -->
<g id="node6" class="node">
<title>calcheightandpressure_mod</title>
<g id="a_node6"><a xlink:href="../modules/calcheightandpressure_mod.svg" xlink:title="calcheightandpressure_mod">
<polygon fill="none" stroke="red" points="324.5,-305 157.5,-305 157.5,-269 324.5,-269 324.5,-305"/>
<text text-anchor="middle" x="241" y="-283.3" font-family="Times,serif" font-size="14.00">calcheightandpressure_mod</text>
</a>
</g>
</g>
<!-- obsspaceerrorstddev_mod&#45;&gt;calcheightandpressure_mod -->
<g id="edge5" class="edge">
<title>obsspaceerrorstddev_mod&#45;&gt;calcheightandpressure_mod</title>
<path fill="none" stroke="black" d="M571.36,-642.15C490.37,-636.57 371.39,-623.35 338,-593 307.69,-565.44 314,-544.97 314,-504 314,-504 314,-504 314,-430 314,-389.55 314.48,-376.45 295,-341 289.08,-330.23 280.27,-320.25 271.48,-311.92"/>
<polygon fill="black" stroke="black" points="273.6,-309.13 263.83,-305.05 268.93,-314.34 273.6,-309.13"/>
</g>
<!-- codtyp_mod -->
<g id="node7" class="node">
<title>codtyp_mod</title>
<g id="a_node7"><a xlink:href="../modules/codtyp_mod.svg" xlink:title="codtyp_mod">
<polygon fill="none" stroke="red" points="362,-233 278,-233 278,-197 362,-197 362,-233"/>
<text text-anchor="middle" x="320" y="-211.3" font-family="Times,serif" font-size="14.00">codtyp_mod</text>
</a>
</g>
</g>
<!-- obsspaceerrorstddev_mod&#45;&gt;codtyp_mod -->
<g id="edge6" class="edge">
<title>obsspaceerrorstddev_mod&#45;&gt;codtyp_mod</title>
<path fill="none" stroke="black" d="M571.26,-639.97C500.59,-632.97 403.85,-618.9 376,-593 346,-565.1 352,-544.97 352,-504 352,-504 352,-504 352,-358 352,-317.04 339.17,-271.02 329.76,-242.77"/>
<polygon fill="black" stroke="black" points="333.03,-241.53 326.48,-233.21 326.41,-243.8 333.03,-241.53"/>
</g>
<!-- columndata_mod -->
<g id="node8" class="node">
<title>columndata_mod</title>
<g id="a_node8"><a xlink:href="../modules/columndata_mod.svg" xlink:title="columndata_mod">
<polygon fill="none" stroke="red" points="399.5,-161 288.5,-161 288.5,-125 399.5,-125 399.5,-161"/>
<text text-anchor="middle" x="344" y="-139.3" font-family="Times,serif" font-size="14.00">columndata_mod</text>
</a>
</g>
</g>
<!-- obsspaceerrorstddev_mod&#45;&gt;columndata_mod -->
<g id="edge7" class="edge">
<title>obsspaceerrorstddev_mod&#45;&gt;columndata_mod</title>
<path fill="none" stroke="black" d="M571.41,-637.14C511.81,-628.86 436.43,-614.5 414,-593 384.42,-564.65 390,-544.97 390,-504 390,-504 390,-504 390,-286 390,-245.55 384.52,-235.12 371,-197 367.79,-187.95 363.35,-178.48 359,-170.09"/>
<polygon fill="black" stroke="black" points="362.01,-168.3 354.19,-161.16 355.85,-171.62 362.01,-168.3"/>
</g>
<!-- earthconstants_mod -->
<g id="node9" class="node">
<title>earthconstants_mod</title>
<g id="a_node9"><a xlink:href="../modules/earthconstants_mod.svg" xlink:title="earthconstants_mod">
<polygon fill="none" stroke="red" points="490.5,-89 365.5,-89 365.5,-53 490.5,-53 490.5,-89"/>
<text text-anchor="middle" x="428" y="-67.3" font-family="Times,serif" font-size="14.00">earthconstants_mod</text>
</a>
</g>
</g>
<!-- obsspaceerrorstddev_mod&#45;&gt;earthconstants_mod -->
<g id="edge8" class="edge">
<title>obsspaceerrorstddev_mod&#45;&gt;earthconstants_mod</title>
<path fill="none" stroke="black" d="M571.07,-640.93C532.98,-634.65 489.13,-621.24 459,-593 428.44,-564.35 428,-545.89 428,-504 428,-504 428,-504 428,-214 428,-174 428,-127.65 428,-99.08"/>
<polygon fill="black" stroke="black" points="431.5,-99.05 428,-89.05 424.5,-99.05 431.5,-99.05"/>
</g>
<!-- gps_mod -->
<g id="node10" class="node">
<title>gps_mod</title>
<g id="a_node10"><a xlink:href="../modules/gps_mod.svg" xlink:title="gps_mod">
<polygon fill="none" stroke="red" points="534,-593 468,-593 468,-557 534,-557 534,-593"/>
<text text-anchor="middle" x="501" y="-571.3" font-family="Times,serif" font-size="14.00">gps_mod</text>
</a>
</g>
</g>
<!-- obsspaceerrorstddev_mod&#45;&gt;gps_mod -->
<g id="edge9" class="edge">
<title>obsspaceerrorstddev_mod&#45;&gt;gps_mod</title>
<path fill="none" stroke="black" d="M613.55,-628.88C592.29,-618.89 565.38,-606.25 543.21,-595.83"/>
<polygon fill="black" stroke="black" points="544.56,-592.6 534.02,-591.51 541.59,-598.93 544.56,-592.6"/>
</g>
<!-- gridstatevector_mod -->
<g id="node11" class="node">
<title>gridstatevector_mod</title>
<g id="a_node11"><a xlink:href="../modules/gridstatevector_mod.svg" xlink:title="gridstatevector_mod">
<polygon fill="none" stroke="red" points="583.5,-521 456.5,-521 456.5,-485 583.5,-485 583.5,-521"/>
<text text-anchor="middle" x="520" y="-499.3" font-family="Times,serif" font-size="14.00">gridstatevector_mod</text>
</a>
</g>
</g>
<!-- obsspaceerrorstddev_mod&#45;&gt;gridstatevector_mod -->
<g id="edge10" class="edge">
<title>obsspaceerrorstddev_mod&#45;&gt;gridstatevector_mod</title>
<path fill="none" stroke="black" d="M632.41,-628.57C622.22,-618.35 609.22,-605.1 598,-593 578.37,-571.84 556.8,-547.1 541.32,-529.08"/>
<polygon fill="black" stroke="black" points="543.83,-526.63 534.67,-521.32 538.52,-531.19 543.83,-526.63"/>
</g>
<!-- horizontalcoord_mod -->
<g id="node12" class="node">
<title>horizontalcoord_mod</title>
<g id="a_node12"><a xlink:href="../modules/horizontalcoord_mod.svg" xlink:title="horizontalcoord_mod">
<polygon fill="none" stroke="red" points="621.5,-449 488.5,-449 488.5,-413 621.5,-413 621.5,-449"/>
<text text-anchor="middle" x="555" y="-427.3" font-family="Times,serif" font-size="14.00">horizontalcoord_mod</text>
</a>
</g>
</g>
<!-- obsspaceerrorstddev_mod&#45;&gt;horizontalcoord_mod -->
<g id="edge11" class="edge">
<title>obsspaceerrorstddev_mod&#45;&gt;horizontalcoord_mod</title>
<path fill="none" stroke="black" d="M645.46,-628.94C637.12,-598.86 617.81,-534.87 592,-485 587.18,-475.68 580.94,-466.1 574.97,-457.69"/>
<polygon fill="black" stroke="black" points="577.64,-455.41 568.91,-449.41 571.99,-459.54 577.64,-455.41"/>
</g>
<!-- mathphysconstants_mod -->
<g id="node13" class="node">
<title>mathphysconstants_mod</title>
<g id="a_node13"><a xlink:href="mathphysconstants_mod.html" xlink:title="mathphysconstants_mod">
<polygon fill="gray" stroke="black" points="660,-377 510,-377 510,-341 660,-341 660,-377"/>
<text text-anchor="middle" x="585" y="-355.3" font-family="Times,serif" font-size="14.00">mathphysconstants_mod</text>
</a>
</g>
</g>
<!-- obsspaceerrorstddev_mod&#45;&gt;mathphysconstants_mod -->
<g id="edge12" class="edge">
<title>obsspaceerrorstddev_mod&#45;&gt;mathphysconstants_mod</title>
<path fill="none" stroke="black" d="M651.97,-628.79C655.82,-589.01 661.39,-488.33 630,-413 625.71,-402.7 618.65,-392.93 611.38,-384.64"/>
<polygon fill="black" stroke="black" points="613.81,-382.11 604.43,-377.19 608.69,-386.89 613.81,-382.11"/>
</g>
<!-- midasmpi_mod -->
<g id="node14" class="node">
<title>midasmpi_mod</title>
<g id="a_node14"><a xlink:href="../modules/midasmpi_mod.svg" xlink:title="midasmpi_mod">
<polygon fill="none" stroke="red" points="697.5,-305 596.5,-305 596.5,-269 697.5,-269 697.5,-305"/>
<text text-anchor="middle" x="647" y="-283.3" font-family="Times,serif" font-size="14.00">midasmpi_mod</text>
</a>
</g>
</g>
<!-- obsspaceerrorstddev_mod&#45;&gt;midasmpi_mod -->
<g id="edge13" class="edge">
<title>obsspaceerrorstddev_mod&#45;&gt;midasmpi_mod</title>
<path fill="none" stroke="black" d="M657.69,-628.91C668.79,-602.62 688,-550.45 688,-504 688,-504 688,-504 688,-430 688,-388.41 671.56,-342.56 659.5,-314.51"/>
<polygon fill="black" stroke="black" points="662.55,-312.75 655.3,-305.03 656.15,-315.59 662.55,-312.75"/>
</g>
<!-- obsfamilylist_mod -->
<g id="node15" class="node">
<title>obsfamilylist_mod</title>
<g id="a_node15"><a xlink:href="obsfamilylist_mod.html" xlink:title="obsfamilylist_mod">
<polygon fill="gray" stroke="black" points="736,-233 618,-233 618,-197 736,-197 736,-233"/>
<text text-anchor="middle" x="677" y="-211.3" font-family="Times,serif" font-size="14.00">obsfamilylist_mod</text>
</a>
</g>
</g>
<!-- obsspaceerrorstddev_mod&#45;&gt;obsfamilylist_mod -->
<g id="edge14" class="edge">
<title>obsspaceerrorstddev_mod&#45;&gt;obsfamilylist_mod</title>
<path fill="none" stroke="black" d="M666.49,-628.77C688.84,-603.53 726,-554.05 726,-504 726,-504 726,-504 726,-358 726,-317.46 720.31,-306.93 706,-269 702.56,-259.87 697.79,-250.38 693.11,-242"/>
<polygon fill="black" stroke="black" points="695.99,-239.98 687.94,-233.08 689.93,-243.49 695.99,-239.98"/>
</g>
<!-- obsoperatorschem_mod -->
<g id="node16" class="node">
<title>obsoperatorschem_mod</title>
<g id="a_node16"><a xlink:href="../modules/obsoperatorschem_mod.svg" xlink:title="obsoperatorschem_mod">
<polygon fill="none" stroke="red" points="774,-161 628,-161 628,-125 774,-125 774,-161"/>
<text text-anchor="middle" x="701" y="-139.3" font-family="Times,serif" font-size="14.00">obsoperatorschem_mod</text>
</a>
</g>
</g>
<!-- obsspaceerrorstddev_mod&#45;&gt;obsoperatorschem_mod -->
<g id="edge15" class="edge">
<title>obsspaceerrorstddev_mod&#45;&gt;obsoperatorschem_mod</title>
<path fill="none" stroke="black" d="M677.02,-628.96C710.73,-605.37 764,-559.33 764,-504 764,-504 764,-504 764,-286 764,-245.55 762.65,-233.39 745,-197 740.1,-186.89 732.86,-177.06 725.67,-168.67"/>
<polygon fill="black" stroke="black" points="728.16,-166.2 718.87,-161.1 722.95,-170.88 728.16,-166.2"/>
</g>
<!-- obsoperators_mod -->
<g id="node17" class="node">
<title>obsoperators_mod</title>
<g id="a_node17"><a xlink:href="../modules/obsoperators_mod.svg" xlink:title="obsoperators_mod">
<polygon fill="none" stroke="red" points="860,-89 744,-89 744,-53 860,-53 860,-89"/>
<text text-anchor="middle" x="802" y="-67.3" font-family="Times,serif" font-size="14.00">obsoperators_mod</text>
</a>
</g>
</g>
<!-- obsspaceerrorstddev_mod&#45;&gt;obsoperators_mod -->
<g id="edge16" class="edge">
<title>obsspaceerrorstddev_mod&#45;&gt;obsoperators_mod</title>
<path fill="none" stroke="black" d="M691.13,-628.9C736.15,-607.12 802,-564.85 802,-504 802,-504 802,-504 802,-214 802,-174 802,-127.65 802,-99.08"/>
<polygon fill="black" stroke="black" points="805.5,-99.05 802,-89.05 798.5,-99.05 805.5,-99.05"/>
</g>
<!-- obsspacedata_mod -->
<g id="node18" class="node">
<title>obsspacedata_mod</title>
<g id="a_node18"><a xlink:href="../modules/obsspacedata_mod.svg" xlink:title="obsspacedata_mod">
<polygon fill="none" stroke="red" points="948,-593 830,-593 830,-557 948,-557 948,-593"/>
<text text-anchor="middle" x="889" y="-571.3" font-family="Times,serif" font-size="14.00">obsspacedata_mod</text>
</a>
</g>
</g>
<!-- obsspaceerrorstddev_mod&#45;&gt;obsspacedata_mod -->
<g id="edge17" class="edge">
<title>obsspaceerrorstddev_mod&#45;&gt;obsspacedata_mod</title>
<path fill="none" stroke="black" d="M708.16,-628.97C742.13,-619.01 785.18,-606.41 820.76,-595.99"/>
<polygon fill="black" stroke="black" points="821.97,-599.28 830.58,-593.11 820,-592.56 821.97,-599.28"/>
</g>
<!-- obstimeinterp_mod -->
<g id="node19" class="node">
<title>obstimeinterp_mod</title>
<g id="a_node19"><a xlink:href="../modules/obstimeinterp_mod.svg" xlink:title="obstimeinterp_mod">
<polygon fill="none" stroke="red" points="986,-521 864,-521 864,-485 986,-485 986,-521"/>
<text text-anchor="middle" x="925" y="-499.3" font-family="Times,serif" font-size="14.00">obstimeinterp_mod</text>
</a>
</g>
</g>
<!-- obsspaceerrorstddev_mod&#45;&gt;obstimeinterp_mod -->
<g id="edge18" class="edge">
<title>obsspaceerrorstddev_mod&#45;&gt;obstimeinterp_mod</title>
<path fill="none" stroke="black" d="M728.64,-643.57C809.75,-639.21 928.34,-627.03 957,-593 972.39,-574.73 959.95,-548.48 946.35,-529.23"/>
<polygon fill="black" stroke="black" points="949.12,-527.09 940.32,-521.19 943.52,-531.29 949.12,-527.09"/>
</g>
<!-- statetocolumn_mod -->
<g id="node20" class="node">
<title>statetocolumn_mod</title>
<g id="a_node20"><a xlink:href="../modules/statetocolumn_mod.svg" xlink:title="statetocolumn_mod">
<polygon fill="none" stroke="red" points="1024,-449 900,-449 900,-413 1024,-413 1024,-449"/>
<text text-anchor="middle" x="962" y="-427.3" font-family="Times,serif" font-size="14.00">statetocolumn_mod</text>
</a>
</g>
</g>
<!-- obsspaceerrorstddev_mod&#45;&gt;statetocolumn_mod -->
<g id="edge19" class="edge">
<title>obsspaceerrorstddev_mod&#45;&gt;statetocolumn_mod</title>
<path fill="none" stroke="black" d="M728.78,-642.72C813.12,-637.59 939.61,-624.72 975,-593 1011.35,-560.42 1008.42,-531.94 995,-485 992.29,-475.51 987.33,-466.06 982.07,-457.83"/>
<polygon fill="black" stroke="black" points="984.86,-455.72 976.33,-449.43 979.08,-459.67 984.86,-455.72"/>
</g>
<!-- timecoord_mod -->
<g id="node21" class="node">
<title>timecoord_mod</title>
<g id="a_node21"><a xlink:href="../modules/timecoord_mod.svg" xlink:title="timecoord_mod">
<polygon fill="none" stroke="red" points="1062,-377 960,-377 960,-341 1062,-341 1062,-377"/>
<text text-anchor="middle" x="1011" y="-355.3" font-family="Times,serif" font-size="14.00">timecoord_mod</text>
</a>
</g>
</g>
<!-- obsspaceerrorstddev_mod&#45;&gt;timecoord_mod -->
<g id="edge20" class="edge">
<title>obsspaceerrorstddev_mod&#45;&gt;timecoord_mod</title>
<path fill="none" stroke="black" d="M728.71,-644.28C820.21,-640.6 963.6,-629.07 1002,-593 1061.17,-537.42 1048.87,-492.61 1033,-413 1031.21,-404.01 1027.86,-394.64 1024.31,-386.32"/>
<polygon fill="black" stroke="black" points="1027.46,-384.77 1020.13,-377.12 1021.08,-387.67 1027.46,-384.77"/>
</g>
<!-- utilities_mod -->
<g id="node22" class="node">
<title>utilities_mod</title>
<g id="a_node22"><a xlink:href="../modules/utilities_mod.svg" xlink:title="utilities_mod">
<polygon fill="none" stroke="red" points="1117,-305 1029,-305 1029,-269 1117,-269 1117,-305"/>
<text text-anchor="middle" x="1073" y="-283.3" font-family="Times,serif" font-size="14.00">utilities_mod</text>
</a>
</g>
</g>
<!-- obsspaceerrorstddev_mod&#45;&gt;utilities_mod -->
<g id="edge21" class="edge">
<title>obsspaceerrorstddev_mod&#45;&gt;utilities_mod</title>
<path fill="none" stroke="black" d="M728.76,-642.6C825.3,-637.16 982.11,-623.77 1031,-593 1071.16,-567.72 1090,-551.46 1090,-504 1090,-504 1090,-504 1090,-430 1090,-389.93 1083.24,-343.95 1078.25,-315.43"/>
<polygon fill="black" stroke="black" points="1081.66,-314.63 1076.44,-305.41 1074.77,-315.87 1081.66,-314.63"/>
</g>
<!-- varnamelist_mod -->
<g id="node23" class="node">
<title>varnamelist_mod</title>
<g id="a_node23"><a xlink:href="../modules/varnamelist_mod.svg" xlink:title="varnamelist_mod">
<polygon fill="none" stroke="red" points="1200,-233 1090,-233 1090,-197 1200,-197 1200,-233"/>
<text text-anchor="middle" x="1145" y="-211.3" font-family="Times,serif" font-size="14.00">varnamelist_mod</text>
</a>
</g>
</g>
<!-- obsspaceerrorstddev_mod&#45;&gt;varnamelist_mod -->
<g id="edge22" class="edge">
<title>obsspaceerrorstddev_mod&#45;&gt;varnamelist_mod</title>
<path fill="none" stroke="black" d="M728.77,-642.61C832.96,-637.01 1010.06,-623.28 1067,-593 1113.44,-568.3 1145,-556.6 1145,-504 1145,-504 1145,-504 1145,-358 1145,-318 1145,-271.65 1145,-243.08"/>
<polygon fill="black" stroke="black" points="1148.5,-243.05 1145,-233.05 1141.5,-243.05 1148.5,-243.05"/>
</g>
<!-- verticalcoord_mod -->
<g id="node24" class="node">
<title>verticalcoord_mod</title>
<g id="a_node24"><a xlink:href="../modules/verticalcoord_mod.svg" xlink:title="verticalcoord_mod">
<polygon fill="none" stroke="red" points="1287,-161 1169,-161 1169,-125 1287,-125 1287,-161"/>
<text text-anchor="middle" x="1228" y="-139.3" font-family="Times,serif" font-size="14.00">verticalcoord_mod</text>
</a>
</g>
</g>
<!-- obsspaceerrorstddev_mod&#45;&gt;verticalcoord_mod -->
<g id="edge23" class="edge">
<title>obsspaceerrorstddev_mod&#45;&gt;verticalcoord_mod</title>
<path fill="none" stroke="black" d="M728.57,-642C841.47,-635.39 1043.45,-620.17 1111,-593 1171.62,-568.62 1228,-569.33 1228,-504 1228,-504 1228,-504 1228,-286 1228,-246 1228,-199.65 1228,-171.08"/>
<polygon fill="black" stroke="black" points="1231.5,-171.05 1228,-161.05 1224.5,-171.05 1231.5,-171.05"/>
</g>
</g>
</svg>
