<?xml version="1.0" encoding="UTF-8" standalone="no"?>
<!DOCTYPE svg PUBLIC "-//W3C//DTD SVG 1.1//EN"
 "http://www.w3.org/Graphics/SVG/1.1/DTD/svg11.dtd">
<!-- Generated by graphviz version 3.0.0 (20220315.2325)
 -->
<!-- Title: obssubspacedata_mod Pages: 1 -->
<svg width="397pt" height="529pt"
 viewBox="0.00 0.00 397.00 529.00" xmlns="http://www.w3.org/2000/svg" xmlns:xlink="http://www.w3.org/1999/xlink">
<g id="graph0" class="graph" transform="scale(1 1) rotate(0) translate(4 525)">
<title>obssubspacedata_mod</title>
<polygon fill="white" stroke="transparent" points="-4,4 -4,-525 393,-525 393,4 -4,4"/>
<text text-anchor="middle" x="194.5" y="-37.8" font-family="Times,serif" font-size="14.00">Red boxes indicate modules with dependencies not shown</text>
<text text-anchor="middle" x="194.5" y="-22.8" font-family="Times,serif" font-size="14.00">Lower level dependencies can be shown by clicking on a red box</text>
<text text-anchor="middle" x="194.5" y="-7.8" font-family="Times,serif" font-size="14.00">Shaded boxes indicate modules with no dependencies</text>
<!-- obssubspacedata_mod -->
<g id="node1" class="node">
<title>obssubspacedata_mod</title>
<g id="a_node1"><a xlink:href="obssubspacedata_mod.html" xlink:title="obssubspacedata_mod">
<polygon fill="none" stroke="black" points="248,-521 112,-521 112,-485 248,-485 248,-521"/>
<text text-anchor="middle" x="180" y="-499.3" font-family="Times,serif" font-size="14.00">obssubspacedata_mod</text>
</a>
</g>
</g>
<!-- bufr_mod -->
<g id="node2" class="node">
<title>bufr_mod</title>
<g id="a_node2"><a xlink:href="bufr_mod.html" xlink:title="bufr_mod">
<polygon fill="gray" stroke="black" points="70,-449 0,-449 0,-413 70,-413 70,-449"/>
<text text-anchor="middle" x="35" y="-427.3" font-family="Times,serif" font-size="14.00">bufr_mod</text>
</a>
</g>
</g>
<!-- obssubspacedata_mod&#45;&gt;bufr_mod -->
<g id="edge1" class="edge">
<title>obssubspacedata_mod&#45;&gt;bufr_mod</title>
<path fill="none" stroke="black" d="M144.53,-484.88C124.81,-475.36 100.09,-463.43 79.13,-453.31"/>
<polygon fill="black" stroke="black" points="80.63,-450.14 70.1,-448.95 77.59,-456.45 80.63,-450.14"/>
</g>
<!-- codeprecision_mod -->
<g id="node3" class="node">
<title>codeprecision_mod</title>
<g id="a_node3"><a xlink:href="codeprecision_mod.html" xlink:title="codeprecision_mod">
<polygon fill="gray" stroke="black" points="133,-377 11,-377 11,-341 133,-341 133,-377"/>
<text text-anchor="middle" x="72" y="-355.3" font-family="Times,serif" font-size="14.00">codeprecision_mod</text>
</a>
</g>
</g>
<!-- obssubspacedata_mod&#45;&gt;codeprecision_mod -->
<g id="edge2" class="edge">
<title>obssubspacedata_mod&#45;&gt;codeprecision_mod</title>
<path fill="none" stroke="black" d="M166.97,-484.87C148.16,-460.14 113.25,-414.24 91.4,-385.51"/>
<polygon fill="black" stroke="black" points="93.91,-383.03 85.07,-377.19 88.34,-387.27 93.91,-383.03"/>
</g>
<!-- mathphysconstants_mod -->
<g id="node4" class="node">
<title>mathphysconstants_mod</title>
<g id="a_node4"><a xlink:href="mathphysconstants_mod.html" xlink:title="mathphysconstants_mod">
<polygon fill="gray" stroke="black" points="171,-305 21,-305 21,-269 171,-269 171,-305"/>
<text text-anchor="middle" x="96" y="-283.3" font-family="Times,serif" font-size="14.00">mathphysconstants_mod</text>
</a>
</g>
</g>
<!-- obssubspacedata_mod&#45;&gt;mathphysconstants_mod -->
<g id="edge3" class="edge">
<title>obssubspacedata_mod&#45;&gt;mathphysconstants_mod</title>
<path fill="none" stroke="black" d="M178.64,-484.62C175.66,-454.04 166.74,-389.31 142,-341 136.73,-330.7 129.04,-320.76 121.45,-312.31"/>
<polygon fill="black" stroke="black" points="123.99,-309.9 114.59,-305.02 118.89,-314.7 123.99,-309.9"/>
</g>
<!-- midasmpi_mod -->
<g id="node5" class="node">
<title>midasmpi_mod</title>
<g id="a_node5"><a xlink:href="../modules/midasmpi_mod.svg" xlink:title="midasmpi_mod">
<polygon fill="none" stroke="red" points="229.5,-233 128.5,-233 128.5,-197 229.5,-197 229.5,-233"/>
<text text-anchor="middle" x="179" y="-211.3" font-family="Times,serif" font-size="14.00">midasmpi_mod</text>
</a>
</g>
</g>
<!-- obssubspacedata_mod&#45;&gt;midasmpi_mod -->
<g id="edge4" class="edge">
<title>obssubspacedata_mod&#45;&gt;midasmpi_mod</title>
<path fill="none" stroke="black" d="M182.03,-484.84C183.15,-474.48 184.44,-461 185,-449 188.5,-374.66 183.87,-286.88 180.99,-243.34"/>
<polygon fill="black" stroke="black" points="184.48,-242.99 180.3,-233.25 177.49,-243.47 184.48,-242.99"/>
</g>
<!-- obsspacedata_mod -->
<g id="node6" class="node">
<title>obsspacedata_mod</title>
<g id="a_node6"><a xlink:href="../modules/obsspacedata_mod.svg" xlink:title="obsspacedata_mod">
<polygon fill="none" stroke="red" points="317,-161 199,-161 199,-125 317,-125 317,-161"/>
<text text-anchor="middle" x="258" y="-139.3" font-family="Times,serif" font-size="14.00">obsspacedata_mod</text>
</a>
</g>
</g>
<!-- obssubspacedata_mod&#45;&gt;obsspacedata_mod -->
<g id="edge5" class="edge">
<title>obssubspacedata_mod&#45;&gt;obsspacedata_mod</title>
<path fill="none" stroke="black" d="M196.92,-484.85C219.87,-459.71 258,-410.35 258,-360 258,-360 258,-360 258,-286 258,-246 258,-199.65 258,-171.08"/>
<polygon fill="black" stroke="black" points="261.5,-171.05 258,-161.05 254.5,-171.05 261.5,-171.05"/>
</g>
<!-- utilities_mod -->
<g id="node7" class="node">
<title>utilities_mod</title>
<g id="a_node7"><a xlink:href="../modules/utilities_mod.svg" xlink:title="utilities_mod">
<polygon fill="none" stroke="red" points="389,-89 301,-89 301,-53 389,-53 389,-89"/>
<text text-anchor="middle" x="345" y="-67.3" font-family="Times,serif" font-size="14.00">utilities_mod</text>
</a>
</g>
</g>
<!-- obssubspacedata_mod&#45;&gt;utilities_mod -->
<g id="edge6" class="edge">
<title>obssubspacedata_mod&#45;&gt;utilities_mod</title>
<path fill="none" stroke="black" d="M226.84,-484.95C275.62,-463.82 345,-422.74 345,-360 345,-360 345,-360 345,-214 345,-174 345,-127.65 345,-99.08"/>
<polygon fill="black" stroke="black" points="348.5,-99.05 345,-89.05 341.5,-99.05 348.5,-99.05"/>
</g>
</g>
</svg>
