<?xml version="1.0" encoding="UTF-8" standalone="no"?>
<!DOCTYPE svg PUBLIC "-//W3C//DTD SVG 1.1//EN"
 "http://www.w3.org/Graphics/SVG/1.1/DTD/svg11.dtd">
<!-- Generated by graphviz version 3.0.0 (20220315.2325)
 -->
<!-- Title: obsspacediag_mod Pages: 1 -->
<svg width="430pt" height="241pt"
 viewBox="0.00 0.00 430.00 241.00" xmlns="http://www.w3.org/2000/svg" xmlns:xlink="http://www.w3.org/1999/xlink">
<g id="graph0" class="graph" transform="scale(1 1) rotate(0) translate(4 237)">
<title>obsspacediag_mod</title>
<polygon fill="white" stroke="transparent" points="-4,4 -4,-237 426,-237 426,4 -4,4"/>
<text text-anchor="middle" x="211" y="-217.8" font-family="Times,serif" font-size="14.00">Blue boxes indicate modules with reverse dependencies not shown</text>
<text text-anchor="middle" x="211" y="-202.8" font-family="Times,serif" font-size="14.00">Higher level reverse dependencies can be shown by clicking on a blue box</text>
<text text-anchor="middle" x="211" y="-187.8" font-family="Times,serif" font-size="14.00">Green boxes are programs</text>
<!-- obsspacediag_mod -->
<g id="node1" class="node">
<title>obsspacediag_mod</title>
<g id="a_node1"><a xlink:href="obsspacediag_mod.html" xlink:title="obsspacediag_mod">
<polygon fill="none" stroke="black" points="278,-36 159,-36 159,0 278,0 278,-36"/>
<text text-anchor="middle" x="218.5" y="-14.3" font-family="Times,serif" font-size="14.00">obsspacediag_mod</text>
</a>
</g>
</g>
<!-- backgroundcheck_mod -->
<g id="node2" class="node">
<title>backgroundcheck_mod</title>
<g id="a_node2"><a xlink:href="../modules/backgroundcheck_mod_rev.svg" xlink:title="backgroundcheck_mod">
<polygon fill="none" stroke="blue" points="240,-108 97,-108 97,-72 240,-72 240,-108"/>
<text text-anchor="middle" x="168.5" y="-86.3" font-family="Times,serif" font-size="14.00">backgroundcheck_mod</text>
</a>
</g>
</g>
<!-- backgroundcheck_mod&#45;&gt;obsspacediag_mod -->
<g id="edge1" class="edge">
<title>backgroundcheck_mod&#45;&gt;obsspacediag_mod</title>
<path fill="none" stroke="black" d="M185.62,-65.03C192.41,-55.52 200.07,-44.8 206.28,-36.1"/>
<ellipse fill="black" stroke="black" cx="183.18" cy="-68.44" rx="4" ry="4"/>
</g>
<!-- midas_midas_var -->
<g id="node3" class="node">
<title>midas_midas_var</title>
<g id="a_node3"><a xlink:href="../programs/midas_var.html" xlink:title="midas_midas_var">
<polygon fill="gray" stroke="green" points="325,-180 212,-180 212,-144 325,-144 325,-180"/>
<text text-anchor="middle" x="268.5" y="-158.3" font-family="Times,serif" font-size="14.00">midas_midas_var</text>
</a>
</g>
</g>
<!-- midas_midas_var&#45;&gt;obsspacediag_mod -->
<g id="edge2" class="edge">
<title>midas_midas_var&#45;&gt;obsspacediag_mod</title>
<path fill="none" stroke="black" d="M265.26,-135.47C262.43,-117.34 257.5,-92.64 249.5,-72 244.65,-59.48 237.06,-46.44 230.61,-36.43"/>
<ellipse fill="black" stroke="black" cx="265.9" cy="-139.85" rx="4" ry="4"/>
</g>
</g>
</svg>
