<?xml version="1.0" encoding="UTF-8" standalone="no"?>
<!DOCTYPE svg PUBLIC "-//W3C//DTD SVG 1.1//EN"
 "http://www.w3.org/Graphics/SVG/1.1/DTD/svg11.dtd">
<!-- Generated by graphviz version 3.0.0 (20220315.2325)
 -->
<!-- Title: obssubspacedata_mod Pages: 1 -->
<svg width="489pt" height="529pt"
 viewBox="0.00 0.00 488.50 529.00" xmlns="http://www.w3.org/2000/svg" xmlns:xlink="http://www.w3.org/1999/xlink">
<g id="graph0" class="graph" transform="scale(1 1) rotate(0) translate(4 525)">
<title>obssubspacedata_mod</title>
<polygon fill="white" stroke="transparent" points="-4,4 -4,-525 484.5,-525 484.5,4 -4,4"/>
<text text-anchor="middle" x="240.25" y="-505.8" font-family="Times,serif" font-size="14.00">Blue boxes indicate modules with reverse dependencies not shown</text>
<text text-anchor="middle" x="240.25" y="-490.8" font-family="Times,serif" font-size="14.00">Higher level reverse dependencies can be shown by clicking on a blue box</text>
<text text-anchor="middle" x="240.25" y="-475.8" font-family="Times,serif" font-size="14.00">Green boxes are programs</text>
<!-- obssubspacedata_mod -->
<g id="node1" class="node">
<title>obssubspacedata_mod</title>
<g id="a_node1"><a xlink:href="obssubspacedata_mod.html" xlink:title="obssubspacedata_mod">
<polygon fill="none" stroke="black" points="314,-36 178,-36 178,0 314,0 314,-36"/>
<text text-anchor="middle" x="246" y="-14.3" font-family="Times,serif" font-size="14.00">obssubspacedata_mod</text>
</a>
</g>
</g>
<!-- bcovarsetupchem_mod -->
<g id="node2" class="node">
<title>bcovarsetupchem_mod</title>
<g id="a_node2"><a xlink:href="../modules/bcovarsetupchem_mod_rev.svg" xlink:title="bcovarsetupchem_mod">
<polygon fill="none" stroke="blue" points="142,-108 0,-108 0,-72 142,-72 142,-108"/>
<text text-anchor="middle" x="71" y="-86.3" font-family="Times,serif" font-size="14.00">bcovarsetupchem_mod</text>
</a>
</g>
</g>
<!-- bcovarsetupchem_mod&#45;&gt;obssubspacedata_mod -->
<g id="edge1" class="edge">
<title>bcovarsetupchem_mod&#45;&gt;obssubspacedata_mod</title>
<path fill="none" stroke="black" d="M121.33,-68.87C147.27,-58.49 178.58,-45.97 203.33,-36.07"/>
<ellipse fill="black" stroke="black" cx="117.52" cy="-70.39" rx="4" ry="4"/>
</g>
<!-- burpfiles_mod -->
<g id="node3" class="node">
<title>burpfiles_mod</title>
<g id="a_node3"><a xlink:href="../modules/burpfiles_mod_rev.svg" xlink:title="burpfiles_mod">
<polygon fill="none" stroke="blue" points="198.5,-180 103.5,-180 103.5,-144 198.5,-144 198.5,-180"/>
<text text-anchor="middle" x="151" y="-158.3" font-family="Times,serif" font-size="14.00">burpfiles_mod</text>
</a>
</g>
</g>
<!-- burpfiles_mod&#45;&gt;obssubspacedata_mod -->
<g id="edge2" class="edge">
<title>burpfiles_mod&#45;&gt;obssubspacedata_mod</title>
<path fill="none" stroke="black" d="M167.04,-137.03C186.16,-108.45 217.64,-61.39 234.5,-36.19"/>
<ellipse fill="black" stroke="black" cx="164.68" cy="-140.55" rx="4" ry="4"/>
</g>
<!-- obserrors_mod -->
<g id="node4" class="node">
<title>obserrors_mod</title>
<g id="a_node4"><a xlink:href="../modules/obserrors_mod_rev.svg" xlink:title="obserrors_mod">
<polygon fill="none" stroke="blue" points="237,-252 139,-252 139,-216 237,-216 237,-252"/>
<text text-anchor="middle" x="188" y="-230.3" font-family="Times,serif" font-size="14.00">obserrors_mod</text>
</a>
</g>
</g>
<!-- obserrors_mod&#45;&gt;obssubspacedata_mod -->
<g id="edge3" class="edge">
<title>obserrors_mod&#45;&gt;obssubspacedata_mod</title>
<path fill="none" stroke="black" d="M197.49,-208.25C200.72,-199.4 204.21,-189.32 207,-180 222.51,-128.2 236.27,-65.65 242.49,-36.08"/>
<ellipse fill="black" stroke="black" cx="196.02" cy="-212.22" rx="4" ry="4"/>
</g>
<!-- obsfiles_mod -->
<g id="node5" class="node">
<title>obsfiles_mod</title>
<g id="a_node5"><a xlink:href="../modules/obsfiles_mod_rev.svg" xlink:title="obsfiles_mod">
<polygon fill="none" stroke="blue" points="291.5,-324 202.5,-324 202.5,-288 291.5,-288 291.5,-324"/>
<text text-anchor="middle" x="247" y="-302.3" font-family="Times,serif" font-size="14.00">obsfiles_mod</text>
</a>
</g>
</g>
<!-- obsfiles_mod&#45;&gt;obssubspacedata_mod -->
<g id="edge4" class="edge">
<title>obsfiles_mod&#45;&gt;obssubspacedata_mod</title>
<path fill="none" stroke="black" d="M246.91,-279.85C246.71,-222.82 246.23,-84.91 246.06,-36.31"/>
<ellipse fill="black" stroke="black" cx="246.93" cy="-283.97" rx="4" ry="4"/>
</g>
<!-- obsoperatorschem_mod -->
<g id="node6" class="node">
<title>obsoperatorschem_mod</title>
<g id="a_node6"><a xlink:href="../modules/obsoperatorschem_mod_rev.svg" xlink:title="obsoperatorschem_mod">
<polygon fill="none" stroke="blue" points="393,-396 247,-396 247,-360 393,-360 393,-396"/>
<text text-anchor="middle" x="320" y="-374.3" font-family="Times,serif" font-size="14.00">obsoperatorschem_mod</text>
</a>
</g>
</g>
<!-- obsoperatorschem_mod&#45;&gt;obssubspacedata_mod -->
<g id="edge5" class="edge">
<title>obsoperatorschem_mod&#45;&gt;obssubspacedata_mod</title>
<path fill="none" stroke="black" d="M320,-351.78C320,-323.39 320,-275.89 320,-235 320,-235 320,-235 320,-161 320,-111.24 283.82,-61.64 262.06,-36.31"/>
<ellipse fill="black" stroke="black" cx="320" cy="-355.95" rx="4" ry="4"/>
</g>
<!-- obsspacediag_mod -->
<g id="node7" class="node">
<title>obsspacediag_mod</title>
<g id="a_node7"><a xlink:href="../modules/obsspacediag_mod_rev.svg" xlink:title="obsspacediag_mod">
<polygon fill="none" stroke="blue" points="480.5,-468 361.5,-468 361.5,-432 480.5,-432 480.5,-468"/>
<text text-anchor="middle" x="421" y="-446.3" font-family="Times,serif" font-size="14.00">obsspacediag_mod</text>
</a>
</g>
</g>
<!-- obsspacediag_mod&#45;&gt;obssubspacedata_mod -->
<g id="edge6" class="edge">
<title>obsspacediag_mod&#45;&gt;obssubspacedata_mod</title>
<path fill="none" stroke="black" d="M421,-423.78C421,-395.39 421,-347.89 421,-307 421,-307 421,-307 421,-161 421,-97.03 349.62,-56.85 298.03,-36.16"/>
<ellipse fill="black" stroke="black" cx="421" cy="-427.95" rx="4" ry="4"/>
</g>
</g>
</svg>
