<?xml version="1.0" encoding="UTF-8" standalone="no"?>
<!DOCTYPE svg PUBLIC "-//W3C//DTD SVG 1.1//EN"
 "http://www.w3.org/Graphics/SVG/1.1/DTD/svg11.dtd">
<!-- Generated by graphviz version 3.0.0 (20220315.2325)
 -->
<!-- Title: obsspaceerrorstddev_mod Pages: 1 -->
<svg width="430pt" height="241pt"
 viewBox="0.00 0.00 430.00 241.00" xmlns="http://www.w3.org/2000/svg" xmlns:xlink="http://www.w3.org/1999/xlink">
<g id="graph0" class="graph" transform="scale(1 1) rotate(0) translate(4 237)">
<title>obsspaceerrorstddev_mod</title>
<polygon fill="white" stroke="transparent" points="-4,4 -4,-237 426,-237 426,4 -4,4"/>
<text text-anchor="middle" x="211" y="-217.8" font-family="Times,serif" font-size="14.00">Blue boxes indicate modules with reverse dependencies not shown</text>
<text text-anchor="middle" x="211" y="-202.8" font-family="Times,serif" font-size="14.00">Higher level reverse dependencies can be shown by clicking on a blue box</text>
<text text-anchor="middle" x="211" y="-187.8" font-family="Times,serif" font-size="14.00">Green boxes are programs</text>
<!-- obsspaceerrorstddev_mod -->
<g id="node1" class="node">
<title>obsspaceerrorstddev_mod</title>
<g id="a_node1"><a xlink:href="obsspaceerrorstddev_mod.html" xlink:title="obsspaceerrorstddev_mod">
<polygon fill="none" stroke="black" points="302,-36 145,-36 145,0 302,0 302,-36"/>
<text text-anchor="middle" x="223.5" y="-14.3" font-family="Times,serif" font-size="14.00">obsspaceerrorstddev_mod</text>
</a>
</g>
</g>
<!-- backgroundcheck_mod -->
<g id="node2" class="node">
<title>backgroundcheck_mod</title>
<g id="a_node2"><a xlink:href="../modules/backgroundcheck_mod_rev.svg" xlink:title="backgroundcheck_mod">
<polygon fill="none" stroke="blue" points="245,-108 102,-108 102,-72 245,-72 245,-108"/>
<text text-anchor="middle" x="173.5" y="-86.3" font-family="Times,serif" font-size="14.00">backgroundcheck_mod</text>
</a>
</g>
</g>
<!-- backgroundcheck_mod&#45;&gt;obsspaceerrorstddev_mod -->
<g id="edge1" class="edge">
<title>backgroundcheck_mod&#45;&gt;obsspaceerrorstddev_mod</title>
<path fill="none" stroke="black" d="M190.62,-65.03C197.41,-55.52 205.07,-44.8 211.28,-36.1"/>
<ellipse fill="black" stroke="black" cx="188.18" cy="-68.44" rx="4" ry="4"/>
</g>
<!-- ominusf_mod -->
<g id="node3" class="node">
<title>ominusf_mod</title>
<g id="a_node3"><a xlink:href="../modules/ominusf_mod_rev.svg" xlink:title="ominusf_mod">
<polygon fill="none" stroke="blue" points="320,-180 227,-180 227,-144 320,-144 320,-180"/>
<text text-anchor="middle" x="273.5" y="-158.3" font-family="Times,serif" font-size="14.00">ominusf_mod</text>
</a>
</g>
</g>
<!-- ominusf_mod&#45;&gt;obsspaceerrorstddev_mod -->
<g id="edge2" class="edge">
<title>ominusf_mod&#45;&gt;obsspaceerrorstddev_mod</title>
<path fill="none" stroke="black" d="M270.26,-135.47C267.43,-117.34 262.5,-92.64 254.5,-72 249.65,-59.48 242.06,-46.44 235.61,-36.43"/>
<ellipse fill="black" stroke="black" cx="270.9" cy="-139.85" rx="4" ry="4"/>
</g>
</g>
</svg>
