<?xml version="1.0" encoding="UTF-8" standalone="no"?>
<!DOCTYPE svg PUBLIC "-//W3C//DTD SVG 1.1//EN"
 "http://www.w3.org/Graphics/SVG/1.1/DTD/svg11.dtd">
<!-- Generated by graphviz version 3.0.0 (20220315.2325)
 -->
<!-- Title: obsspacedata_mod Pages: 1 -->
<svg width="457pt" height="457pt"
 viewBox="0.00 0.00 457.00 457.00" xmlns="http://www.w3.org/2000/svg" xmlns:xlink="http://www.w3.org/1999/xlink">
<g id="graph0" class="graph" transform="scale(1 1) rotate(0) translate(4 453)">
<title>obsspacedata_mod</title>
<polygon fill="white" stroke="transparent" points="-4,4 -4,-453 453,-453 453,4 -4,4"/>
<text text-anchor="middle" x="224.5" y="-37.8" font-family="Times,serif" font-size="14.00">Red boxes indicate modules with dependencies not shown</text>
<text text-anchor="middle" x="224.5" y="-22.8" font-family="Times,serif" font-size="14.00">Lower level dependencies can be shown by clicking on a red box</text>
<text text-anchor="middle" x="224.5" y="-7.8" font-family="Times,serif" font-size="14.00">Shaded boxes indicate modules with no dependencies</text>
<!-- obsspacedata_mod -->
<g id="node1" class="node">
<title>obsspacedata_mod</title>
<g id="a_node1"><a xlink:href="obsspacedata_mod.html" xlink:title="obsspacedata_mod">
<polygon fill="none" stroke="black" points="273,-449 155,-449 155,-413 273,-413 273,-449"/>
<text text-anchor="middle" x="214" y="-427.3" font-family="Times,serif" font-size="14.00">obsspacedata_mod</text>
</a>
</g>
</g>
<!-- codeprecision_mod -->
<g id="node2" class="node">
<title>codeprecision_mod</title>
<g id="a_node2"><a xlink:href="codeprecision_mod.html" xlink:title="codeprecision_mod">
<polygon fill="gray" stroke="black" points="122,-377 0,-377 0,-341 122,-341 122,-377"/>
<text text-anchor="middle" x="61" y="-355.3" font-family="Times,serif" font-size="14.00">codeprecision_mod</text>
</a>
</g>
</g>
<!-- obsspacedata_mod&#45;&gt;codeprecision_mod -->
<g id="edge1" class="edge">
<title>obsspacedata_mod&#45;&gt;codeprecision_mod</title>
<path fill="none" stroke="black" d="M176.57,-412.88C155.75,-403.35 129.65,-391.41 107.52,-381.28"/>
<polygon fill="black" stroke="black" points="108.86,-378.05 98.31,-377.07 105.94,-384.41 108.86,-378.05"/>
</g>
<!-- indexlistdepot_mod -->
<g id="node3" class="node">
<title>indexlistdepot_mod</title>
<g id="a_node3"><a xlink:href="indexlistdepot_mod.html" xlink:title="indexlistdepot_mod">
<polygon fill="gray" stroke="black" points="186,-305 62,-305 62,-269 186,-269 186,-305"/>
<text text-anchor="middle" x="124" y="-283.3" font-family="Times,serif" font-size="14.00">indexlistdepot_mod</text>
</a>
</g>
</g>
<!-- obsspacedata_mod&#45;&gt;indexlistdepot_mod -->
<g id="edge2" class="edge">
<title>obsspacedata_mod&#45;&gt;indexlistdepot_mod</title>
<path fill="none" stroke="black" d="M203.14,-412.87C187.53,-388.24 158.63,-342.64 140.41,-313.88"/>
<polygon fill="black" stroke="black" points="143.2,-311.76 134.89,-305.19 137.29,-315.51 143.2,-311.76"/>
</g>
<!-- mathphysconstants_mod -->
<g id="node4" class="node">
<title>mathphysconstants_mod</title>
<g id="a_node4"><a xlink:href="mathphysconstants_mod.html" xlink:title="mathphysconstants_mod">
<polygon fill="gray" stroke="black" points="257,-233 107,-233 107,-197 257,-197 257,-233"/>
<text text-anchor="middle" x="182" y="-211.3" font-family="Times,serif" font-size="14.00">mathphysconstants_mod</text>
</a>
</g>
</g>
<!-- obsspacedata_mod&#45;&gt;mathphysconstants_mod -->
<g id="edge3" class="edge">
<title>obsspacedata_mod&#45;&gt;mathphysconstants_mod</title>
<path fill="none" stroke="black" d="M212.68,-412.98C210.25,-383.49 204.42,-321.07 195,-269 193.46,-260.48 191.36,-251.29 189.3,-242.99"/>
<polygon fill="black" stroke="black" points="192.63,-241.89 186.75,-233.07 185.85,-243.63 192.63,-241.89"/>
</g>
<!-- obscolumnnames_mod -->
<g id="node5" class="node">
<title>obscolumnnames_mod</title>
<g id="a_node5"><a xlink:href="obscolumnnames_mod.html" xlink:title="obscolumnnames_mod">
<polygon fill="gray" stroke="black" points="356,-161 214,-161 214,-125 356,-125 356,-161"/>
<text text-anchor="middle" x="285" y="-139.3" font-family="Times,serif" font-size="14.00">obscolumnnames_mod</text>
</a>
</g>
</g>
<!-- obsspacedata_mod&#45;&gt;obscolumnnames_mod -->
<g id="edge4" class="edge">
<title>obsspacedata_mod&#45;&gt;obscolumnnames_mod</title>
<path fill="none" stroke="black" d="M218.8,-412.94C228.31,-378.87 250.03,-299.92 266,-233 270.92,-212.38 275.9,-188.93 279.53,-171.28"/>
<polygon fill="black" stroke="black" points="283.03,-171.61 281.6,-161.12 276.17,-170.22 283.03,-171.61"/>
</g>
<!-- obsdatacolumn_mod -->
<g id="node6" class="node">
<title>obsdatacolumn_mod</title>
<g id="a_node6"><a xlink:href="../modules/obsdatacolumn_mod.svg" xlink:title="obsdatacolumn_mod">
<polygon fill="none" stroke="red" points="449,-89 319,-89 319,-53 449,-53 449,-89"/>
<text text-anchor="middle" x="384" y="-67.3" font-family="Times,serif" font-size="14.00">obsdatacolumn_mod</text>
</a>
</g>
</g>
<!-- obsspacedata_mod&#45;&gt;obsdatacolumn_mod -->
<g id="edge5" class="edge">
<title>obsspacedata_mod&#45;&gt;obsdatacolumn_mod</title>
<path fill="none" stroke="black" d="M263.17,-412.98C313.38,-392.1 384,-351.45 384,-288 384,-288 384,-288 384,-214 384,-174 384,-127.65 384,-99.08"/>
<polygon fill="black" stroke="black" points="387.5,-99.05 384,-89.05 380.5,-99.05 387.5,-99.05"/>
</g>
</g>
</svg>
