<?xml version="1.0" encoding="UTF-8" standalone="no"?>
<!DOCTYPE svg PUBLIC "-//W3C//DTD SVG 1.1//EN"
 "http://www.w3.org/Graphics/SVG/1.1/DTD/svg11.dtd">
<!-- Generated by graphviz version 3.0.0 (20220315.2325)
 -->
<!-- Title: obstimeinterp_mod Pages: 1 -->
<svg width="509pt" height="601pt"
 viewBox="0.00 0.00 508.50 601.00" xmlns="http://www.w3.org/2000/svg" xmlns:xlink="http://www.w3.org/1999/xlink">
<g id="graph0" class="graph" transform="scale(1 1) rotate(0) translate(4 597)">
<title>obstimeinterp_mod</title>
<polygon fill="white" stroke="transparent" points="-4,4 -4,-597 504.5,-597 504.5,4 -4,4"/>
<text text-anchor="middle" x="250.25" y="-577.8" font-family="Times,serif" font-size="14.00">Blue boxes indicate modules with reverse dependencies not shown</text>
<text text-anchor="middle" x="250.25" y="-562.8" font-family="Times,serif" font-size="14.00">Higher level reverse dependencies can be shown by clicking on a blue box</text>
<text text-anchor="middle" x="250.25" y="-547.8" font-family="Times,serif" font-size="14.00">Green boxes are programs</text>
<!-- obstimeinterp_mod -->
<g id="node1" class="node">
<title>obstimeinterp_mod</title>
<g id="a_node1"><a xlink:href="obstimeinterp_mod.html" xlink:title="obstimeinterp_mod">
<polygon fill="none" stroke="black" points="294,-36 172,-36 172,0 294,0 294,-36"/>
<text text-anchor="middle" x="233" y="-14.3" font-family="Times,serif" font-size="14.00">obstimeinterp_mod</text>
</a>
</g>
</g>
<!-- innovation_mod -->
<g id="node2" class="node">
<title>innovation_mod</title>
<g id="a_node2"><a xlink:href="../modules/innovation_mod_rev.svg" xlink:title="innovation_mod">
<polygon fill="none" stroke="blue" points="104,-108 0,-108 0,-72 104,-72 104,-108"/>
<text text-anchor="middle" x="52" y="-86.3" font-family="Times,serif" font-size="14.00">innovation_mod</text>
</a>
</g>
</g>
<!-- innovation_mod&#45;&gt;obstimeinterp_mod -->
<g id="edge1" class="edge">
<title>innovation_mod&#45;&gt;obstimeinterp_mod</title>
<path fill="none" stroke="black" d="M104.05,-68.87C130.89,-58.49 163.27,-45.97 188.87,-36.07"/>
<ellipse fill="black" stroke="black" cx="100.01" cy="-70.43" rx="4" ry="4"/>
</g>
<!-- minimization_mod -->
<g id="node3" class="node">
<title>minimization_mod</title>
<g id="a_node3"><a xlink:href="../modules/minimization_mod_rev.svg" xlink:title="minimization_mod">
<polygon fill="none" stroke="blue" points="166.5,-180 45.5,-180 45.5,-144 166.5,-144 166.5,-180"/>
<text text-anchor="middle" x="106" y="-158.3" font-family="Times,serif" font-size="14.00">minimization_mod</text>
</a>
</g>
</g>
<!-- minimization_mod&#45;&gt;obstimeinterp_mod -->
<g id="edge2" class="edge">
<title>minimization_mod&#45;&gt;obstimeinterp_mod</title>
<path fill="none" stroke="black" d="M124.9,-137.6C139.79,-119.41 161.26,-93.7 181,-72 192.1,-59.79 205.1,-46.54 215.33,-36.35"/>
<ellipse fill="black" stroke="black" cx="122.26" cy="-140.84" rx="4" ry="4"/>
</g>
<!-- obsspaceerrorstddev_mod -->
<g id="node4" class="node">
<title>obsspaceerrorstddev_mod</title>
<g id="a_node4"><a xlink:href="../modules/obsspaceerrorstddev_mod_rev.svg" xlink:title="obsspaceerrorstddev_mod">
<polygon fill="none" stroke="blue" points="204.5,-252 47.5,-252 47.5,-216 204.5,-216 204.5,-252"/>
<text text-anchor="middle" x="126" y="-230.3" font-family="Times,serif" font-size="14.00">obsspaceerrorstddev_mod</text>
</a>
</g>
</g>
<!-- obsspaceerrorstddev_mod&#45;&gt;obstimeinterp_mod -->
<g id="edge3" class="edge">
<title>obsspaceerrorstddev_mod&#45;&gt;obstimeinterp_mod</title>
<path fill="none" stroke="black" d="M150.97,-210.07C159.46,-201.3 168.44,-190.79 175,-180 190.27,-154.86 216.62,-72.3 227.77,-36.18"/>
<ellipse fill="black" stroke="black" cx="148.04" cy="-213.02" rx="4" ry="4"/>
</g>
<!-- statetocolumn_mod -->
<g id="node5" class="node">
<title>statetocolumn_mod</title>
<g id="a_node5"><a xlink:href="../modules/statetocolumn_mod_rev.svg" xlink:title="statetocolumn_mod">
<polygon fill="none" stroke="blue" points="243,-324 119,-324 119,-288 243,-288 243,-324"/>
<text text-anchor="middle" x="181" y="-302.3" font-family="Times,serif" font-size="14.00">statetocolumn_mod</text>
</a>
</g>
</g>
<!-- statetocolumn_mod&#45;&gt;obstimeinterp_mod -->
<g id="edge4" class="edge">
<title>statetocolumn_mod&#45;&gt;obstimeinterp_mod</title>
<path fill="none" stroke="black" d="M198.56,-281.18C204.13,-272.43 209.7,-262.16 213,-252 238.17,-174.59 236.18,-75.51 234.14,-36.19"/>
<ellipse fill="black" stroke="black" cx="196.35" cy="-284.51" rx="4" ry="4"/>
</g>
<!-- midas_midas_diaghbht -->
<g id="node6" class="node">
<title>midas_midas_diaghbht</title>
<g id="a_node6"><a xlink:href="../programs/midas_diaghbht.html" xlink:title="midas_midas_diaghbht">
<polygon fill="gray" stroke="green" points="311.5,-396 168.5,-396 168.5,-360 311.5,-360 311.5,-396"/>
<text text-anchor="middle" x="240" y="-374.3" font-family="Times,serif" font-size="14.00">midas_midas_diaghbht</text>
</a>
</g>
</g>
<!-- midas_midas_diaghbht&#45;&gt;obstimeinterp_mod -->
<g id="edge5" class="edge">
<title>midas_midas_diaghbht&#45;&gt;obstimeinterp_mod</title>
<path fill="none" stroke="black" d="M248.86,-352.04C258.02,-323.96 271,-276.8 271,-235 271,-235 271,-235 271,-161 271,-114.55 251.79,-62.38 240.69,-36.09"/>
<ellipse fill="black" stroke="black" cx="247.54" cy="-355.98" rx="4" ry="4"/>
</g>
<!-- midas_midas_letkf -->
<g id="node7" class="node">
<title>midas_midas_letkf</title>
<g id="a_node7"><a xlink:href="../programs/midas_letkf.html" xlink:title="midas_midas_letkf">
<polygon fill="gray" stroke="green" points="401,-468 279,-468 279,-432 401,-432 401,-468"/>
<text text-anchor="middle" x="340" y="-446.3" font-family="Times,serif" font-size="14.00">midas_midas_letkf</text>
</a>
</g>
</g>
<!-- midas_midas_letkf&#45;&gt;obstimeinterp_mod -->
<g id="edge6" class="edge">
<title>midas_midas_letkf&#45;&gt;obstimeinterp_mod</title>
<path fill="none" stroke="black" d="M340,-423.78C340,-395.39 340,-347.89 340,-307 340,-307 340,-307 340,-161 340,-106.67 289.43,-59.93 257.82,-36.02"/>
<ellipse fill="black" stroke="black" cx="340" cy="-427.95" rx="4" ry="4"/>
</g>
<!-- midas_midas_prepcma -->
<g id="node8" class="node">
<title>midas_midas_prepcma</title>
<g id="a_node8"><a xlink:href="../programs/midas_prepcma.html" xlink:title="midas_midas_prepcma">
<polygon fill="gray" stroke="green" points="500.5,-540 357.5,-540 357.5,-504 500.5,-504 500.5,-540"/>
<text text-anchor="middle" x="429" y="-518.3" font-family="Times,serif" font-size="14.00">midas_midas_prepcma</text>
</a>
</g>
</g>
<!-- midas_midas_prepcma&#45;&gt;obstimeinterp_mod -->
<g id="edge7" class="edge">
<title>midas_midas_prepcma&#45;&gt;obstimeinterp_mod</title>
<path fill="none" stroke="black" d="M429,-495.78C429,-467.39 429,-419.89 429,-379 429,-379 429,-379 429,-161 429,-93.45 351.72,-54.75 294.21,-35.29"/>
<ellipse fill="black" stroke="black" cx="429" cy="-499.95" rx="4" ry="4"/>
</g>
</g>
</svg>
