<?xml version="1.0" encoding="UTF-8" standalone="no"?>
<!DOCTYPE svg PUBLIC "-//W3C//DTD SVG 1.1//EN"
 "http://www.w3.org/Graphics/SVG/1.1/DTD/svg11.dtd">
<!-- Generated by graphviz version 3.0.0 (20220315.2325)
 -->
<!-- Title: obstimeinterp_mod Pages: 1 -->
<svg width="386pt" height="457pt"
 viewBox="0.00 0.00 385.50 457.00" xmlns="http://www.w3.org/2000/svg" xmlns:xlink="http://www.w3.org/1999/xlink">
<g id="graph0" class="graph" transform="scale(1 1) rotate(0) translate(4 453)">
<title>obstimeinterp_mod</title>
<polygon fill="white" stroke="transparent" points="-4,4 -4,-453 381.5,-453 381.5,4 -4,4"/>
<text text-anchor="middle" x="188.75" y="-37.8" font-family="Times,serif" font-size="14.00">Red boxes indicate modules with dependencies not shown</text>
<text text-anchor="middle" x="188.75" y="-22.8" font-family="Times,serif" font-size="14.00">Lower level dependencies can be shown by clicking on a red box</text>
<text text-anchor="middle" x="188.75" y="-7.8" font-family="Times,serif" font-size="14.00">Shaded boxes indicate modules with no dependencies</text>
<!-- obstimeinterp_mod -->
<g id="node1" class="node">
<title>obstimeinterp_mod</title>
<g id="a_node1"><a xlink:href="obstimeinterp_mod.html" xlink:title="obstimeinterp_mod">
<polygon fill="none" stroke="black" points="252.5,-449 130.5,-449 130.5,-413 252.5,-413 252.5,-449"/>
<text text-anchor="middle" x="191.5" y="-427.3" font-family="Times,serif" font-size="14.00">obstimeinterp_mod</text>
</a>
</g>
</g>
<!-- midasmpi_mod -->
<g id="node2" class="node">
<title>midasmpi_mod</title>
<g id="a_node2"><a xlink:href="../modules/midasmpi_mod.svg" xlink:title="midasmpi_mod">
<polygon fill="none" stroke="red" points="101,-377 0,-377 0,-341 101,-341 101,-377"/>
<text text-anchor="middle" x="50.5" y="-355.3" font-family="Times,serif" font-size="14.00">midasmpi_mod</text>
</a>
</g>
</g>
<!-- obstimeinterp_mod&#45;&gt;midasmpi_mod -->
<g id="edge1" class="edge">
<title>obstimeinterp_mod&#45;&gt;midasmpi_mod</title>
<path fill="none" stroke="black" d="M157.01,-412.88C138.06,-403.47 114.37,-391.71 94.14,-381.67"/>
<polygon fill="black" stroke="black" points="95.64,-378.5 85.13,-377.19 92.53,-384.77 95.64,-378.5"/>
</g>
<!-- obsfamilylist_mod -->
<g id="node3" class="node">
<title>obsfamilylist_mod</title>
<g id="a_node3"><a xlink:href="obsfamilylist_mod.html" xlink:title="obsfamilylist_mod">
<polygon fill="gray" stroke="black" points="163.5,-305 45.5,-305 45.5,-269 163.5,-269 163.5,-305"/>
<text text-anchor="middle" x="104.5" y="-283.3" font-family="Times,serif" font-size="14.00">obsfamilylist_mod</text>
</a>
</g>
</g>
<!-- obstimeinterp_mod&#45;&gt;obsfamilylist_mod -->
<g id="edge2" class="edge">
<title>obstimeinterp_mod&#45;&gt;obsfamilylist_mod</title>
<path fill="none" stroke="black" d="M181.01,-412.87C165.92,-388.24 137.98,-342.64 120.36,-313.88"/>
<polygon fill="black" stroke="black" points="123.24,-311.89 115.03,-305.19 117.27,-315.54 123.24,-311.89"/>
</g>
<!-- obsspacedata_mod -->
<g id="node4" class="node">
<title>obsspacedata_mod</title>
<g id="a_node4"><a xlink:href="../modules/obsspacedata_mod.svg" xlink:title="obsspacedata_mod">
<polygon fill="none" stroke="red" points="226.5,-233 108.5,-233 108.5,-197 226.5,-197 226.5,-233"/>
<text text-anchor="middle" x="167.5" y="-211.3" font-family="Times,serif" font-size="14.00">obsspacedata_mod</text>
</a>
</g>
</g>
<!-- obstimeinterp_mod&#45;&gt;obsspacedata_mod -->
<g id="edge3" class="edge">
<title>obstimeinterp_mod&#45;&gt;obsspacedata_mod</title>
<path fill="none" stroke="black" d="M189.58,-412.85C185.43,-375.83 175.6,-288.18 170.57,-243.39"/>
<polygon fill="black" stroke="black" points="174.03,-242.78 169.43,-233.23 167.07,-243.56 174.03,-242.78"/>
</g>
<!-- timecoord_mod -->
<g id="node5" class="node">
<title>timecoord_mod</title>
<g id="a_node5"><a xlink:href="../modules/timecoord_mod.svg" xlink:title="timecoord_mod">
<polygon fill="none" stroke="red" points="305.5,-161 203.5,-161 203.5,-125 305.5,-125 305.5,-161"/>
<text text-anchor="middle" x="254.5" y="-139.3" font-family="Times,serif" font-size="14.00">timecoord_mod</text>
</a>
</g>
</g>
<!-- obstimeinterp_mod&#45;&gt;timecoord_mod -->
<g id="edge4" class="edge">
<title>obstimeinterp_mod&#45;&gt;timecoord_mod</title>
<path fill="none" stroke="black" d="M195.38,-412.88C203.11,-378.71 220.96,-299.59 235.5,-233 240.02,-212.29 245.02,-188.85 248.76,-171.22"/>
<polygon fill="black" stroke="black" points="252.26,-171.58 250.91,-161.07 245.41,-170.13 252.26,-171.58"/>
</g>
<!-- utilities_mod -->
<g id="node6" class="node">
<title>utilities_mod</title>
<g id="a_node6"><a xlink:href="../modules/utilities_mod.svg" xlink:title="utilities_mod">
<polygon fill="none" stroke="red" points="377.5,-89 289.5,-89 289.5,-53 377.5,-53 377.5,-89"/>
<text text-anchor="middle" x="333.5" y="-67.3" font-family="Times,serif" font-size="14.00">utilities_mod</text>
</a>
</g>
</g>
<!-- obstimeinterp_mod&#45;&gt;utilities_mod -->
<g id="edge5" class="edge">
<title>obstimeinterp_mod&#45;&gt;utilities_mod</title>
<path fill="none" stroke="black" d="M228.44,-412.95C270.51,-390.69 333.5,-347.44 333.5,-288 333.5,-288 333.5,-288 333.5,-214 333.5,-174 333.5,-127.65 333.5,-99.08"/>
<polygon fill="black" stroke="black" points="337,-99.05 333.5,-89.05 330,-99.05 337,-99.05"/>
</g>
</g>
</svg>
