<?xml version="1.0" encoding="UTF-8" standalone="no"?>
<!DOCTYPE svg PUBLIC "-//W3C//DTD SVG 1.1//EN"
 "http://www.w3.org/Graphics/SVG/1.1/DTD/svg11.dtd">
<!-- Generated by graphviz version 3.0.0 (20220315.2325)
 -->
<!-- Title: obsutil_mod Pages: 1 -->
<svg width="430pt" height="529pt"
 viewBox="0.00 0.00 430.00 529.00" xmlns="http://www.w3.org/2000/svg" xmlns:xlink="http://www.w3.org/1999/xlink">
<g id="graph0" class="graph" transform="scale(1 1) rotate(0) translate(4 525)">
<title>obsutil_mod</title>
<polygon fill="white" stroke="transparent" points="-4,4 -4,-525 426,-525 426,4 -4,4"/>
<text text-anchor="middle" x="211" y="-505.8" font-family="Times,serif" font-size="14.00">Blue boxes indicate modules with reverse dependencies not shown</text>
<text text-anchor="middle" x="211" y="-490.8" font-family="Times,serif" font-size="14.00">Higher level reverse dependencies can be shown by clicking on a blue box</text>
<text text-anchor="middle" x="211" y="-475.8" font-family="Times,serif" font-size="14.00">Green boxes are programs</text>
<!-- obsutil_mod -->
<g id="node1" class="node">
<title>obsutil_mod</title>
<g id="a_node1"><a xlink:href="obsutil_mod.html" xlink:title="obsutil_mod">
<polygon fill="none" stroke="black" points="251.25,-36 168.25,-36 168.25,0 251.25,0 251.25,-36"/>
<text text-anchor="middle" x="209.75" y="-14.3" font-family="Times,serif" font-size="14.00">obsutil_mod</text>
</a>
</g>
</g>
<!-- burpfiles_mod -->
<g id="node2" class="node">
<title>burpfiles_mod</title>
<g id="a_node2"><a xlink:href="../modules/burpfiles_mod_rev.svg" xlink:title="burpfiles_mod">
<polygon fill="none" stroke="blue" points="105.25,-108 10.25,-108 10.25,-72 105.25,-72 105.25,-108"/>
<text text-anchor="middle" x="57.75" y="-86.3" font-family="Times,serif" font-size="14.00">burpfiles_mod</text>
</a>
</g>
</g>
<!-- burpfiles_mod&#45;&gt;obsutil_mod -->
<g id="edge1" class="edge">
<title>burpfiles_mod&#45;&gt;obsutil_mod</title>
<path fill="none" stroke="black" d="M102.33,-68.47C124.7,-58.17 151.47,-45.84 172.69,-36.07"/>
<ellipse fill="black" stroke="black" cx="98.57" cy="-70.2" rx="4" ry="4"/>
</g>
<!-- burpread_mod -->
<g id="node3" class="node">
<title>burpread_mod</title>
<g id="a_node3"><a xlink:href="../modules/burpread_mod_rev.svg" xlink:title="burpread_mod">
<polygon fill="none" stroke="blue" points="162.25,-180 67.25,-180 67.25,-144 162.25,-144 162.25,-180"/>
<text text-anchor="middle" x="114.75" y="-158.3" font-family="Times,serif" font-size="14.00">burpread_mod</text>
</a>
</g>
</g>
<!-- burpread_mod&#45;&gt;obsutil_mod -->
<g id="edge2" class="edge">
<title>burpread_mod&#45;&gt;obsutil_mod</title>
<path fill="none" stroke="black" d="M130.79,-137.03C149.91,-108.45 181.39,-61.39 198.25,-36.19"/>
<ellipse fill="black" stroke="black" cx="128.43" cy="-140.55" rx="4" ry="4"/>
</g>
<!-- obsdbfiles_mod -->
<g id="node4" class="node">
<title>obsdbfiles_mod</title>
<g id="a_node4"><a xlink:href="../modules/obsdbfiles_mod_rev.svg" xlink:title="obsdbfiles_mod">
<polygon fill="none" stroke="blue" points="200.75,-252 98.75,-252 98.75,-216 200.75,-216 200.75,-252"/>
<text text-anchor="middle" x="149.75" y="-230.3" font-family="Times,serif" font-size="14.00">obsdbfiles_mod</text>
</a>
</g>
</g>
<!-- obsdbfiles_mod&#45;&gt;obsutil_mod -->
<g id="edge3" class="edge">
<title>obsdbfiles_mod&#45;&gt;obsutil_mod</title>
<path fill="none" stroke="black" d="M160.52,-207.92C164.05,-199.18 167.81,-189.24 170.75,-180 187.11,-128.47 200.48,-65.79 206.42,-36.14"/>
<ellipse fill="black" stroke="black" cx="158.9" cy="-211.86" rx="4" ry="4"/>
</g>
<!-- obsfiles_mod -->
<g id="node5" class="node">
<title>obsfiles_mod</title>
<g id="a_node5"><a xlink:href="../modules/obsfiles_mod_rev.svg" xlink:title="obsfiles_mod">
<polygon fill="none" stroke="blue" points="255.25,-324 166.25,-324 166.25,-288 255.25,-288 255.25,-324"/>
<text text-anchor="middle" x="210.75" y="-302.3" font-family="Times,serif" font-size="14.00">obsfiles_mod</text>
</a>
</g>
</g>
<!-- obsfiles_mod&#45;&gt;obsutil_mod -->
<g id="edge4" class="edge">
<title>obsfiles_mod&#45;&gt;obsutil_mod</title>
<path fill="none" stroke="black" d="M210.66,-279.85C210.46,-222.82 209.98,-84.91 209.81,-36.31"/>
<ellipse fill="black" stroke="black" cx="210.68" cy="-283.97" rx="4" ry="4"/>
</g>
<!-- sqlitefiles_mod -->
<g id="node6" class="node">
<title>sqlitefiles_mod</title>
<g id="a_node6"><a xlink:href="../modules/sqlitefiles_mod_rev.svg" xlink:title="sqlitefiles_mod">
<polygon fill="none" stroke="blue" points="333.25,-396 234.25,-396 234.25,-360 333.25,-360 333.25,-396"/>
<text text-anchor="middle" x="283.75" y="-374.3" font-family="Times,serif" font-size="14.00">sqlitefiles_mod</text>
</a>
</g>
</g>
<!-- sqlitefiles_mod&#45;&gt;obsutil_mod -->
<g id="edge5" class="edge">
<title>sqlitefiles_mod&#45;&gt;obsutil_mod</title>
<path fill="none" stroke="black" d="M283.75,-351.78C283.75,-323.39 283.75,-275.89 283.75,-235 283.75,-235 283.75,-235 283.75,-161 283.75,-111.24 247.57,-61.64 225.81,-36.31"/>
<ellipse fill="black" stroke="black" cx="283.75" cy="-355.95" rx="4" ry="4"/>
</g>
<!-- sqliteread_mod -->
<g id="node7" class="node">
<title>sqliteread_mod</title>
<g id="a_node7"><a xlink:href="../modules/sqliteread_mod_rev.svg" xlink:title="sqliteread_mod">
<polygon fill="none" stroke="blue" points="411.75,-468 311.75,-468 311.75,-432 411.75,-432 411.75,-468"/>
<text text-anchor="middle" x="361.75" y="-446.3" font-family="Times,serif" font-size="14.00">sqliteread_mod</text>
</a>
</g>
</g>
<!-- sqliteread_mod&#45;&gt;obsutil_mod -->
<g id="edge6" class="edge">
<title>sqliteread_mod&#45;&gt;obsutil_mod</title>
<path fill="none" stroke="black" d="M361.75,-423.78C361.75,-395.39 361.75,-347.89 361.75,-307 361.75,-307 361.75,-307 361.75,-161 361.75,-100.15 295.9,-57.88 250.88,-36.1"/>
<ellipse fill="black" stroke="black" cx="361.75" cy="-427.95" rx="4" ry="4"/>
</g>
</g>
</svg>
