<?xml version="1.0" encoding="UTF-8" standalone="no"?>
<!DOCTYPE svg PUBLIC "-//W3C//DTD SVG 1.1//EN"
 "http://www.w3.org/Graphics/SVG/1.1/DTD/svg11.dtd">
<!-- Generated by graphviz version 3.0.0 (20220315.2325)
 -->
<!-- Title: obsutil_mod Pages: 1 -->
<svg width="462pt" height="601pt"
 viewBox="0.00 0.00 462.00 601.00" xmlns="http://www.w3.org/2000/svg" xmlns:xlink="http://www.w3.org/1999/xlink">
<g id="graph0" class="graph" transform="scale(1 1) rotate(0) translate(4 597)">
<title>obsutil_mod</title>
<polygon fill="white" stroke="transparent" points="-4,4 -4,-597 458,-597 458,4 -4,4"/>
<text text-anchor="middle" x="227" y="-37.8" font-family="Times,serif" font-size="14.00">Red boxes indicate modules with dependencies not shown</text>
<text text-anchor="middle" x="227" y="-22.8" font-family="Times,serif" font-size="14.00">Lower level dependencies can be shown by clicking on a red box</text>
<text text-anchor="middle" x="227" y="-7.8" font-family="Times,serif" font-size="14.00">Shaded boxes indicate modules with no dependencies</text>
<!-- obsutil_mod -->
<g id="node1" class="node">
<title>obsutil_mod</title>
<g id="a_node1"><a xlink:href="obsutil_mod.html" xlink:title="obsutil_mod">
<polygon fill="none" stroke="black" points="240.5,-593 157.5,-593 157.5,-557 240.5,-557 240.5,-593"/>
<text text-anchor="middle" x="199" y="-571.3" font-family="Times,serif" font-size="14.00">obsutil_mod</text>
</a>
</g>
</g>
<!-- bufr_mod -->
<g id="node2" class="node">
<title>bufr_mod</title>
<g id="a_node2"><a xlink:href="bufr_mod.html" xlink:title="bufr_mod">
<polygon fill="gray" stroke="black" points="70,-521 0,-521 0,-485 70,-485 70,-521"/>
<text text-anchor="middle" x="35" y="-499.3" font-family="Times,serif" font-size="14.00">bufr_mod</text>
</a>
</g>
</g>
<!-- obsutil_mod&#45;&gt;bufr_mod -->
<g id="edge1" class="edge">
<title>obsutil_mod&#45;&gt;bufr_mod</title>
<path fill="none" stroke="black" d="M158.88,-556.88C134.94,-546.66 104.48,-533.66 79.76,-523.11"/>
<polygon fill="black" stroke="black" points="80.82,-519.75 70.25,-519.05 78.07,-526.19 80.82,-519.75"/>
</g>
<!-- codeprecision_mod -->
<g id="node3" class="node">
<title>codeprecision_mod</title>
<g id="a_node3"><a xlink:href="codeprecision_mod.html" xlink:title="codeprecision_mod">
<polygon fill="gray" stroke="black" points="133,-449 11,-449 11,-413 133,-413 133,-449"/>
<text text-anchor="middle" x="72" y="-427.3" font-family="Times,serif" font-size="14.00">codeprecision_mod</text>
</a>
</g>
</g>
<!-- obsutil_mod&#45;&gt;codeprecision_mod -->
<g id="edge2" class="edge">
<title>obsutil_mod&#45;&gt;codeprecision_mod</title>
<path fill="none" stroke="black" d="M181.33,-556.65C171.1,-546.46 158.1,-533.21 147,-521 127.78,-499.87 106.92,-474.94 92.09,-456.85"/>
<polygon fill="black" stroke="black" points="94.76,-454.59 85.73,-449.06 89.34,-459.02 94.76,-454.59"/>
</g>
<!-- codtyp_mod -->
<g id="node4" class="node">
<title>codtyp_mod</title>
<g id="a_node4"><a xlink:href="../modules/codtyp_mod.svg" xlink:title="codtyp_mod">
<polygon fill="none" stroke="red" points="171,-377 87,-377 87,-341 171,-341 171,-377"/>
<text text-anchor="middle" x="129" y="-355.3" font-family="Times,serif" font-size="14.00">codtyp_mod</text>
</a>
</g>
</g>
<!-- obsutil_mod&#45;&gt;codtyp_mod -->
<g id="edge3" class="edge">
<title>obsutil_mod&#45;&gt;codtyp_mod</title>
<path fill="none" stroke="black" d="M193.39,-556.85C181.23,-519.68 152.37,-431.44 137.77,-386.82"/>
<polygon fill="black" stroke="black" points="141.07,-385.65 134.64,-377.23 134.42,-387.83 141.07,-385.65"/>
</g>
<!-- mathphysconstants_mod -->
<g id="node5" class="node">
<title>mathphysconstants_mod</title>
<g id="a_node5"><a xlink:href="mathphysconstants_mod.html" xlink:title="mathphysconstants_mod">
<polygon fill="gray" stroke="black" points="209,-305 59,-305 59,-269 209,-269 209,-305"/>
<text text-anchor="middle" x="134" y="-283.3" font-family="Times,serif" font-size="14.00">mathphysconstants_mod</text>
</a>
</g>
</g>
<!-- obsutil_mod&#45;&gt;mathphysconstants_mod -->
<g id="edge4" class="edge">
<title>obsutil_mod&#45;&gt;mathphysconstants_mod</title>
<path fill="none" stroke="black" d="M201.12,-556.77C205.3,-516.95 211.62,-416.2 180,-341 175.63,-330.62 168.42,-320.82 160.99,-312.54"/>
<polygon fill="black" stroke="black" points="163.32,-309.91 153.88,-305.1 158.26,-314.75 163.32,-309.91"/>
</g>
<!-- obsspacedata_mod -->
<g id="node6" class="node">
<title>obsspacedata_mod</title>
<g id="a_node6"><a xlink:href="../modules/obsspacedata_mod.svg" xlink:title="obsspacedata_mod">
<polygon fill="none" stroke="red" points="271,-233 153,-233 153,-197 271,-197 271,-233"/>
<text text-anchor="middle" x="212" y="-211.3" font-family="Times,serif" font-size="14.00">obsspacedata_mod</text>
</a>
</g>
</g>
<!-- obsutil_mod&#45;&gt;obsspacedata_mod -->
<g id="edge5" class="edge">
<title>obsutil_mod&#45;&gt;obsspacedata_mod</title>
<path fill="none" stroke="black" d="M206.69,-556.91C217.79,-530.62 237,-478.45 237,-432 237,-432 237,-432 237,-358 237,-317.6 227.06,-271.71 219.72,-243.3"/>
<polygon fill="black" stroke="black" points="223.02,-242.08 217.06,-233.32 216.25,-243.88 223.02,-242.08"/>
</g>
<!-- obsvariabletransforms_mod -->
<g id="node7" class="node">
<title>obsvariabletransforms_mod</title>
<g id="a_node7"><a xlink:href="../modules/obsvariabletransforms_mod.svg" xlink:title="obsvariabletransforms_mod">
<polygon fill="none" stroke="red" points="382,-161 216,-161 216,-125 382,-125 382,-161"/>
<text text-anchor="middle" x="299" y="-139.3" font-family="Times,serif" font-size="14.00">obsvariabletransforms_mod</text>
</a>
</g>
</g>
<!-- obsutil_mod&#45;&gt;obsvariabletransforms_mod -->
<g id="edge6" class="edge">
<title>obsutil_mod&#45;&gt;obsvariabletransforms_mod</title>
<path fill="none" stroke="black" d="M222.19,-556.61C251.73,-532.28 299,-485.07 299,-432 299,-432 299,-432 299,-286 299,-246 299,-199.65 299,-171.08"/>
<polygon fill="black" stroke="black" points="302.5,-171.05 299,-161.05 295.5,-171.05 302.5,-171.05"/>
</g>
<!-- utilities_mod -->
<g id="node8" class="node">
<title>utilities_mod</title>
<g id="a_node8"><a xlink:href="../modules/utilities_mod.svg" xlink:title="utilities_mod">
<polygon fill="none" stroke="red" points="454,-89 366,-89 366,-53 454,-53 454,-89"/>
<text text-anchor="middle" x="410" y="-67.3" font-family="Times,serif" font-size="14.00">utilities_mod</text>
</a>
</g>
</g>
<!-- obsutil_mod&#45;&gt;utilities_mod -->
<g id="edge7" class="edge">
<title>obsutil_mod&#45;&gt;utilities_mod</title>
<path fill="none" stroke="black" d="M240.69,-565.66C302.18,-550.65 410,-512.8 410,-432 410,-432 410,-432 410,-214 410,-174 410,-127.65 410,-99.08"/>
<polygon fill="black" stroke="black" points="413.5,-99.05 410,-89.05 406.5,-99.05 413.5,-99.05"/>
</g>
</g>
</svg>
