<?xml version="1.0" encoding="UTF-8" standalone="no"?>
<!DOCTYPE svg PUBLIC "-//W3C//DTD SVG 1.1//EN"
 "http://www.w3.org/Graphics/SVG/1.1/DTD/svg11.dtd">
<!-- Generated by graphviz version 3.0.0 (20220315.2325)
 -->
<!-- Title: obsvariabletransforms_mod Pages: 1 -->
<svg width="447pt" height="601pt"
 viewBox="0.00 0.00 446.50 601.00" xmlns="http://www.w3.org/2000/svg" xmlns:xlink="http://www.w3.org/1999/xlink">
<g id="graph0" class="graph" transform="scale(1 1) rotate(0) translate(4 597)">
<title>obsvariabletransforms_mod</title>
<polygon fill="white" stroke="transparent" points="-4,4 -4,-597 442.5,-597 442.5,4 -4,4"/>
<text text-anchor="middle" x="219.25" y="-577.8" font-family="Times,serif" font-size="14.00">Blue boxes indicate modules with reverse dependencies not shown</text>
<text text-anchor="middle" x="219.25" y="-562.8" font-family="Times,serif" font-size="14.00">Higher level reverse dependencies can be shown by clicking on a blue box</text>
<text text-anchor="middle" x="219.25" y="-547.8" font-family="Times,serif" font-size="14.00">Green boxes are programs</text>
<!-- obsvariabletransforms_mod -->
<g id="node1" class="node">
<title>obsvariabletransforms_mod</title>
<g id="a_node1"><a xlink:href="obsvariabletransforms_mod.html" xlink:title="obsvariabletransforms_mod">
<polygon fill="none" stroke="black" points="301.5,-36 135.5,-36 135.5,0 301.5,0 301.5,-36"/>
<text text-anchor="middle" x="218.5" y="-14.3" font-family="Times,serif" font-size="14.00">obsvariabletransforms_mod</text>
</a>
</g>
</g>
<!-- burpfiles_mod -->
<g id="node2" class="node">
<title>burpfiles_mod</title>
<g id="a_node2"><a xlink:href="../modules/burpfiles_mod_rev.svg" xlink:title="burpfiles_mod">
<polygon fill="none" stroke="blue" points="95,-108 0,-108 0,-72 95,-72 95,-108"/>
<text text-anchor="middle" x="47.5" y="-86.3" font-family="Times,serif" font-size="14.00">burpfiles_mod</text>
</a>
</g>
</g>
<!-- burpfiles_mod&#45;&gt;obsvariabletransforms_mod -->
<g id="edge1" class="edge">
<title>burpfiles_mod&#45;&gt;obsvariabletransforms_mod</title>
<path fill="none" stroke="black" d="M97,-68.74C122.29,-58.38 152.72,-45.93 176.8,-36.07"/>
<ellipse fill="black" stroke="black" cx="93.03" cy="-70.36" rx="4" ry="4"/>
</g>
<!-- burpread_mod -->
<g id="node3" class="node">
<title>burpread_mod</title>
<g id="a_node3"><a xlink:href="../modules/burpread_mod_rev.svg" xlink:title="burpread_mod">
<polygon fill="none" stroke="blue" points="152,-180 57,-180 57,-144 152,-144 152,-180"/>
<text text-anchor="middle" x="104.5" y="-158.3" font-family="Times,serif" font-size="14.00">burpread_mod</text>
</a>
</g>
</g>
<!-- burpread_mod&#45;&gt;obsvariabletransforms_mod -->
<g id="edge2" class="edge">
<title>burpread_mod&#45;&gt;obsvariabletransforms_mod</title>
<path fill="none" stroke="black" d="M119.59,-137.09C131.55,-118.7 149.1,-92.99 166.5,-72 176.87,-59.5 189.62,-46.46 199.91,-36.45"/>
<ellipse fill="black" stroke="black" cx="117.3" cy="-140.63" rx="4" ry="4"/>
</g>
<!-- obsdbfiles_mod -->
<g id="node4" class="node">
<title>obsdbfiles_mod</title>
<g id="a_node4"><a xlink:href="../modules/obsdbfiles_mod_rev.svg" xlink:title="obsdbfiles_mod">
<polygon fill="none" stroke="blue" points="190.5,-252 88.5,-252 88.5,-216 190.5,-216 190.5,-252"/>
<text text-anchor="middle" x="139.5" y="-230.3" font-family="Times,serif" font-size="14.00">obsdbfiles_mod</text>
</a>
</g>
</g>
<!-- obsdbfiles_mod&#45;&gt;obsvariabletransforms_mod -->
<g id="edge3" class="edge">
<title>obsdbfiles_mod&#45;&gt;obsvariabletransforms_mod</title>
<path fill="none" stroke="black" d="M149.43,-208.4C152.99,-199.48 156.98,-189.31 160.5,-180 180.15,-128.03 202.04,-66.08 212.41,-36.46"/>
<ellipse fill="black" stroke="black" cx="147.93" cy="-212.15" rx="4" ry="4"/>
</g>
<!-- obsfiles_mod -->
<g id="node5" class="node">
<title>obsfiles_mod</title>
<g id="a_node5"><a xlink:href="../modules/obsfiles_mod_rev.svg" xlink:title="obsfiles_mod">
<polygon fill="none" stroke="blue" points="228,-324 139,-324 139,-288 228,-288 228,-324"/>
<text text-anchor="middle" x="183.5" y="-302.3" font-family="Times,serif" font-size="14.00">obsfiles_mod</text>
</a>
</g>
</g>
<!-- obsfiles_mod&#45;&gt;obsvariabletransforms_mod -->
<g id="edge4" class="edge">
<title>obsfiles_mod&#45;&gt;obsvariabletransforms_mod</title>
<path fill="none" stroke="black" d="M192.26,-279.93C194.99,-271.19 197.75,-261.25 199.5,-252 214.61,-172.25 217.71,-74.9 218.34,-36.12"/>
<ellipse fill="black" stroke="black" cx="191.02" cy="-283.76" rx="4" ry="4"/>
</g>
<!-- obsutil_mod -->
<g id="node6" class="node">
<title>obsutil_mod</title>
<g id="a_node6"><a xlink:href="../modules/obsutil_mod_rev.svg" xlink:title="obsutil_mod">
<polygon fill="none" stroke="blue" points="282,-396 199,-396 199,-360 282,-360 282,-396"/>
<text text-anchor="middle" x="240.5" y="-374.3" font-family="Times,serif" font-size="14.00">obsutil_mod</text>
</a>
</g>
</g>
<!-- obsutil_mod&#45;&gt;obsvariabletransforms_mod -->
<g id="edge5" class="edge">
<title>obsutil_mod&#45;&gt;obsvariabletransforms_mod</title>
<path fill="none" stroke="black" d="M245.13,-351.41C249.86,-323.06 256.5,-275.92 256.5,-235 256.5,-235 256.5,-235 256.5,-161 256.5,-114.55 237.29,-62.38 226.19,-36.09"/>
<ellipse fill="black" stroke="black" cx="244.41" cy="-355.64" rx="4" ry="4"/>
</g>
<!-- sqlitefiles_mod -->
<g id="node7" class="node">
<title>sqlitefiles_mod</title>
<g id="a_node7"><a xlink:href="../modules/sqlitefiles_mod_rev.svg" xlink:title="sqlitefiles_mod">
<polygon fill="none" stroke="blue" points="360,-468 261,-468 261,-432 360,-432 360,-468"/>
<text text-anchor="middle" x="310.5" y="-446.3" font-family="Times,serif" font-size="14.00">sqlitefiles_mod</text>
</a>
</g>
</g>
<!-- sqlitefiles_mod&#45;&gt;obsvariabletransforms_mod -->
<g id="edge6" class="edge">
<title>sqlitefiles_mod&#45;&gt;obsvariabletransforms_mod</title>
<path fill="none" stroke="black" d="M310.5,-423.78C310.5,-395.39 310.5,-347.89 310.5,-307 310.5,-307 310.5,-307 310.5,-161 310.5,-109.01 266.52,-61.03 239.38,-36.37"/>
<ellipse fill="black" stroke="black" cx="310.5" cy="-427.95" rx="4" ry="4"/>
</g>
<!-- sqliteread_mod -->
<g id="node8" class="node">
<title>sqliteread_mod</title>
<g id="a_node8"><a xlink:href="../modules/sqliteread_mod_rev.svg" xlink:title="sqliteread_mod">
<polygon fill="none" stroke="blue" points="438.5,-540 338.5,-540 338.5,-504 438.5,-504 438.5,-540"/>
<text text-anchor="middle" x="388.5" y="-518.3" font-family="Times,serif" font-size="14.00">sqliteread_mod</text>
</a>
</g>
</g>
<!-- sqliteread_mod&#45;&gt;obsvariabletransforms_mod -->
<g id="edge7" class="edge">
<title>sqliteread_mod&#45;&gt;obsvariabletransforms_mod</title>
<path fill="none" stroke="black" d="M388.5,-495.78C388.5,-467.39 388.5,-419.89 388.5,-379 388.5,-379 388.5,-379 388.5,-161 388.5,-97.55 317.88,-56.9 267.67,-36.02"/>
<ellipse fill="black" stroke="black" cx="388.5" cy="-499.95" rx="4" ry="4"/>
</g>
</g>
</svg>
