<?xml version="1.0" encoding="UTF-8" standalone="no"?>
<!DOCTYPE svg PUBLIC "-//W3C//DTD SVG 1.1//EN"
 "http://www.w3.org/Graphics/SVG/1.1/DTD/svg11.dtd">
<!-- Generated by graphviz version 3.0.0 (20220315.2325)
 -->
<!-- Title: obsvariabletransforms_mod Pages: 1 -->
<svg width="470pt" height="673pt"
 viewBox="0.00 0.00 470.00 673.00" xmlns="http://www.w3.org/2000/svg" xmlns:xlink="http://www.w3.org/1999/xlink">
<g id="graph0" class="graph" transform="scale(1 1) rotate(0) translate(4 669)">
<title>obsvariabletransforms_mod</title>
<polygon fill="white" stroke="transparent" points="-4,4 -4,-669 466,-669 466,4 -4,4"/>
<text text-anchor="middle" x="231" y="-37.8" font-family="Times,serif" font-size="14.00">Red boxes indicate modules with dependencies not shown</text>
<text text-anchor="middle" x="231" y="-22.8" font-family="Times,serif" font-size="14.00">Lower level dependencies can be shown by clicking on a red box</text>
<text text-anchor="middle" x="231" y="-7.8" font-family="Times,serif" font-size="14.00">Shaded boxes indicate modules with no dependencies</text>
<!-- obsvariabletransforms_mod -->
<g id="node1" class="node">
<title>obsvariabletransforms_mod</title>
<g id="a_node1"><a xlink:href="obsvariabletransforms_mod.html" xlink:title="obsvariabletransforms_mod">
<polygon fill="none" stroke="black" points="301,-665 135,-665 135,-629 301,-629 301,-665"/>
<text text-anchor="middle" x="218" y="-643.3" font-family="Times,serif" font-size="14.00">obsvariabletransforms_mod</text>
</a>
</g>
</g>
<!-- bufr_mod -->
<g id="node2" class="node">
<title>bufr_mod</title>
<g id="a_node2"><a xlink:href="bufr_mod.html" xlink:title="bufr_mod">
<polygon fill="gray" stroke="black" points="70,-593 0,-593 0,-557 70,-557 70,-593"/>
<text text-anchor="middle" x="35" y="-571.3" font-family="Times,serif" font-size="14.00">bufr_mod</text>
</a>
</g>
</g>
<!-- obsvariabletransforms_mod&#45;&gt;bufr_mod -->
<g id="edge1" class="edge">
<title>obsvariabletransforms_mod&#45;&gt;bufr_mod</title>
<path fill="none" stroke="black" d="M173.23,-628.88C144.84,-618.01 108.23,-604.01 79.82,-593.15"/>
<polygon fill="black" stroke="black" points="80.74,-589.75 70.15,-589.44 78.24,-596.29 80.74,-589.75"/>
</g>
<!-- codeprecision_mod -->
<g id="node3" class="node">
<title>codeprecision_mod</title>
<g id="a_node3"><a xlink:href="codeprecision_mod.html" xlink:title="codeprecision_mod">
<polygon fill="gray" stroke="black" points="133,-521 11,-521 11,-485 133,-485 133,-521"/>
<text text-anchor="middle" x="72" y="-499.3" font-family="Times,serif" font-size="14.00">codeprecision_mod</text>
</a>
</g>
</g>
<!-- obsvariabletransforms_mod&#45;&gt;codeprecision_mod -->
<g id="edge2" class="edge">
<title>obsvariabletransforms_mod&#45;&gt;codeprecision_mod</title>
<path fill="none" stroke="black" d="M192.24,-628.93C178.25,-619.13 160.99,-606.19 147,-593 125.96,-573.17 105.01,-547.7 90.62,-529.09"/>
<polygon fill="black" stroke="black" points="93.35,-526.9 84.5,-521.07 87.78,-531.15 93.35,-526.9"/>
</g>
<!-- codtyp_mod -->
<g id="node4" class="node">
<title>codtyp_mod</title>
<g id="a_node4"><a xlink:href="../modules/codtyp_mod.svg" xlink:title="codtyp_mod">
<polygon fill="none" stroke="red" points="171,-449 87,-449 87,-413 171,-413 171,-449"/>
<text text-anchor="middle" x="129" y="-427.3" font-family="Times,serif" font-size="14.00">codtyp_mod</text>
</a>
</g>
</g>
<!-- obsvariabletransforms_mod&#45;&gt;codtyp_mod -->
<g id="edge3" class="edge">
<title>obsvariabletransforms_mod&#45;&gt;codtyp_mod</title>
<path fill="none" stroke="black" d="M205.99,-628.89C199.23,-618.77 190.98,-605.52 185,-593 163.35,-547.7 145.8,-491.74 136.43,-459.14"/>
<polygon fill="black" stroke="black" points="139.77,-458.09 133.68,-449.42 133.03,-459.99 139.77,-458.09"/>
</g>
<!-- earthconstants_mod -->
<g id="node5" class="node">
<title>earthconstants_mod</title>
<g id="a_node5"><a xlink:href="../modules/earthconstants_mod.svg" xlink:title="earthconstants_mod">
<polygon fill="none" stroke="red" points="208.5,-377 83.5,-377 83.5,-341 208.5,-341 208.5,-377"/>
<text text-anchor="middle" x="146" y="-355.3" font-family="Times,serif" font-size="14.00">earthconstants_mod</text>
</a>
</g>
</g>
<!-- obsvariabletransforms_mod&#45;&gt;earthconstants_mod -->
<g id="edge4" class="edge">
<title>obsvariabletransforms_mod&#45;&gt;earthconstants_mod</title>
<path fill="none" stroke="black" d="M217.56,-628.71C216.06,-589.19 209.41,-489.73 180,-413 176.34,-403.45 170.82,-393.81 165.28,-385.41"/>
<polygon fill="black" stroke="black" points="168.15,-383.41 159.58,-377.17 162.39,-387.39 168.15,-383.41"/>
</g>
<!-- mathphysconstants_mod -->
<g id="node6" class="node">
<title>mathphysconstants_mod</title>
<g id="a_node6"><a xlink:href="mathphysconstants_mod.html" xlink:title="mathphysconstants_mod">
<polygon fill="gray" stroke="black" points="247,-305 97,-305 97,-269 247,-269 247,-305"/>
<text text-anchor="middle" x="172" y="-283.3" font-family="Times,serif" font-size="14.00">mathphysconstants_mod</text>
</a>
</g>
</g>
<!-- obsvariabletransforms_mod&#45;&gt;mathphysconstants_mod -->
<g id="edge5" class="edge">
<title>obsvariabletransforms_mod&#45;&gt;mathphysconstants_mod</title>
<path fill="none" stroke="black" d="M221.84,-628.61C227.4,-601.94 237,-549.27 237,-504 237,-504 237,-504 237,-430 237,-389.46 235.09,-377.28 217,-341 211.94,-330.85 204.53,-321.01 197.18,-312.62"/>
<polygon fill="black" stroke="black" points="199.57,-310.05 190.23,-305.06 194.42,-314.79 199.57,-310.05"/>
</g>
<!-- obsfilter_mod -->
<g id="node7" class="node">
<title>obsfilter_mod</title>
<g id="a_node7"><a xlink:href="../modules/obsfilter_mod.svg" xlink:title="obsfilter_mod">
<polygon fill="none" stroke="red" points="303,-233 211,-233 211,-197 303,-197 303,-233"/>
<text text-anchor="middle" x="257" y="-211.3" font-family="Times,serif" font-size="14.00">obsfilter_mod</text>
</a>
</g>
</g>
<!-- obsvariabletransforms_mod&#45;&gt;obsfilter_mod -->
<g id="edge6" class="edge">
<title>obsvariabletransforms_mod&#45;&gt;obsfilter_mod</title>
<path fill="none" stroke="black" d="M229.81,-628.96C246.51,-603.16 275,-552.08 275,-504 275,-504 275,-504 275,-358 275,-317.9 267.85,-271.92 262.56,-243.42"/>
<polygon fill="black" stroke="black" points="265.96,-242.56 260.64,-233.4 259.08,-243.88 265.96,-242.56"/>
</g>
<!-- obsspacedata_mod -->
<g id="node8" class="node">
<title>obsspacedata_mod</title>
<g id="a_node8"><a xlink:href="../modules/obsspacedata_mod.svg" xlink:title="obsspacedata_mod">
<polygon fill="none" stroke="red" points="390,-161 272,-161 272,-125 390,-125 390,-161"/>
<text text-anchor="middle" x="331" y="-139.3" font-family="Times,serif" font-size="14.00">obsspacedata_mod</text>
</a>
</g>
</g>
<!-- obsvariabletransforms_mod&#45;&gt;obsspacedata_mod -->
<g id="edge7" class="edge">
<title>obsvariabletransforms_mod&#45;&gt;obsspacedata_mod</title>
<path fill="none" stroke="black" d="M244.78,-628.91C278.2,-605.25 331,-559.14 331,-504 331,-504 331,-504 331,-286 331,-246 331,-199.65 331,-171.08"/>
<polygon fill="black" stroke="black" points="334.5,-171.05 331,-161.05 327.5,-171.05 334.5,-171.05"/>
</g>
<!-- utilities_mod -->
<g id="node9" class="node">
<title>utilities_mod</title>
<g id="a_node9"><a xlink:href="../modules/utilities_mod.svg" xlink:title="utilities_mod">
<polygon fill="none" stroke="red" points="462,-89 374,-89 374,-53 462,-53 462,-89"/>
<text text-anchor="middle" x="418" y="-67.3" font-family="Times,serif" font-size="14.00">utilities_mod</text>
</a>
</g>
</g>
<!-- obsvariabletransforms_mod&#45;&gt;utilities_mod -->
<g id="edge8" class="edge">
<title>obsvariabletransforms_mod&#45;&gt;utilities_mod</title>
<path fill="none" stroke="black" d="M283.76,-628.99C342.06,-609.48 418,-571.18 418,-504 418,-504 418,-504 418,-214 418,-174 418,-127.65 418,-99.08"/>
<polygon fill="black" stroke="black" points="421.5,-99.05 418,-89.05 414.5,-99.05 421.5,-99.05"/>
</g>
</g>
</svg>
