<?xml version="1.0" encoding="UTF-8" standalone="no"?>
<!DOCTYPE svg PUBLIC "-//W3C//DTD SVG 1.1//EN"
 "http://www.w3.org/Graphics/SVG/1.1/DTD/svg11.dtd">
<!-- Generated by graphviz version 3.0.0 (20220315.2325)
 -->
<!-- Title: oceanbackground_mod Pages: 1 -->
<svg width="435pt" height="529pt"
 viewBox="0.00 0.00 435.00 529.00" xmlns="http://www.w3.org/2000/svg" xmlns:xlink="http://www.w3.org/1999/xlink">
<g id="graph0" class="graph" transform="scale(1 1) rotate(0) translate(4 525)">
<title>oceanbackground_mod</title>
<polygon fill="white" stroke="transparent" points="-4,4 -4,-525 431,-525 431,4 -4,4"/>
<text text-anchor="middle" x="213.5" y="-37.8" font-family="Times,serif" font-size="14.00">Red boxes indicate modules with dependencies not shown</text>
<text text-anchor="middle" x="213.5" y="-22.8" font-family="Times,serif" font-size="14.00">Lower level dependencies can be shown by clicking on a red box</text>
<text text-anchor="middle" x="213.5" y="-7.8" font-family="Times,serif" font-size="14.00">Shaded boxes indicate modules with no dependencies</text>
<!-- oceanbackground_mod -->
<g id="node1" class="node">
<title>oceanbackground_mod</title>
<g id="a_node1"><a xlink:href="oceanbackground_mod.html" xlink:title="oceanbackground_mod">
<polygon fill="none" stroke="black" points="274.5,-521 131.5,-521 131.5,-485 274.5,-485 274.5,-521"/>
<text text-anchor="middle" x="203" y="-499.3" font-family="Times,serif" font-size="14.00">oceanbackground_mod</text>
</a>
</g>
</g>
<!-- codtyp_mod -->
<g id="node2" class="node">
<title>codtyp_mod</title>
<g id="a_node2"><a xlink:href="../modules/codtyp_mod.svg" xlink:title="codtyp_mod">
<polygon fill="none" stroke="red" points="84,-449 0,-449 0,-413 84,-413 84,-449"/>
<text text-anchor="middle" x="42" y="-427.3" font-family="Times,serif" font-size="14.00">codtyp_mod</text>
</a>
</g>
</g>
<!-- oceanbackground_mod&#45;&gt;codtyp_mod -->
<g id="edge1" class="edge">
<title>oceanbackground_mod&#45;&gt;codtyp_mod</title>
<path fill="none" stroke="black" d="M163.61,-484.88C141.61,-475.31 113.99,-463.3 90.64,-453.15"/>
<polygon fill="black" stroke="black" points="91.82,-449.85 81.26,-449.07 89.03,-456.27 91.82,-449.85"/>
</g>
<!-- gridstatevectorfileio_mod -->
<g id="node3" class="node">
<title>gridstatevectorfileio_mod</title>
<g id="a_node3"><a xlink:href="../modules/gridstatevectorfileio_mod.svg" xlink:title="gridstatevectorfileio_mod">
<polygon fill="none" stroke="red" points="155.5,-377 0.5,-377 0.5,-341 155.5,-341 155.5,-377"/>
<text text-anchor="middle" x="78" y="-355.3" font-family="Times,serif" font-size="14.00">gridstatevectorfileio_mod</text>
</a>
</g>
</g>
<!-- oceanbackground_mod&#45;&gt;gridstatevectorfileio_mod -->
<g id="edge2" class="edge">
<title>oceanbackground_mod&#45;&gt;gridstatevectorfileio_mod</title>
<path fill="none" stroke="black" d="M187.92,-484.87C165.96,-459.92 125.05,-413.45 99.81,-384.77"/>
<polygon fill="black" stroke="black" points="102.37,-382.38 93.13,-377.19 97.11,-387.01 102.37,-382.38"/>
</g>
<!-- gridstatevector_mod -->
<g id="node4" class="node">
<title>gridstatevector_mod</title>
<g id="a_node4"><a xlink:href="../modules/gridstatevector_mod.svg" xlink:title="gridstatevector_mod">
<polygon fill="none" stroke="red" points="193.5,-305 66.5,-305 66.5,-269 193.5,-269 193.5,-305"/>
<text text-anchor="middle" x="130" y="-283.3" font-family="Times,serif" font-size="14.00">gridstatevector_mod</text>
</a>
</g>
</g>
<!-- oceanbackground_mod&#45;&gt;gridstatevector_mod -->
<g id="edge3" class="edge">
<title>oceanbackground_mod&#45;&gt;gridstatevector_mod</title>
<path fill="none" stroke="black" d="M200.78,-484.96C196.44,-454.92 185.37,-390.98 164,-341 159.98,-331.6 154.36,-322 148.85,-313.59"/>
<polygon fill="black" stroke="black" points="151.74,-311.61 143.21,-305.32 145.95,-315.56 151.74,-311.61"/>
</g>
<!-- horizontalcoord_mod -->
<g id="node5" class="node">
<title>horizontalcoord_mod</title>
<g id="a_node5"><a xlink:href="../modules/horizontalcoord_mod.svg" xlink:title="horizontalcoord_mod">
<polygon fill="none" stroke="red" points="260.5,-233 127.5,-233 127.5,-197 260.5,-197 260.5,-233"/>
<text text-anchor="middle" x="194" y="-211.3" font-family="Times,serif" font-size="14.00">horizontalcoord_mod</text>
</a>
</g>
</g>
<!-- oceanbackground_mod&#45;&gt;horizontalcoord_mod -->
<g id="edge4" class="edge">
<title>oceanbackground_mod&#45;&gt;horizontalcoord_mod</title>
<path fill="none" stroke="black" d="M203.88,-484.71C205.64,-445.99 208.88,-349.41 202,-269 201.28,-260.53 200.05,-251.35 198.77,-243.04"/>
<polygon fill="black" stroke="black" points="202.22,-242.43 197.16,-233.12 195.31,-243.55 202.22,-242.43"/>
</g>
<!-- timecoord_mod -->
<g id="node6" class="node">
<title>timecoord_mod</title>
<g id="a_node6"><a xlink:href="../modules/timecoord_mod.svg" xlink:title="timecoord_mod">
<polygon fill="none" stroke="red" points="340,-161 238,-161 238,-125 340,-125 340,-161"/>
<text text-anchor="middle" x="289" y="-139.3" font-family="Times,serif" font-size="14.00">timecoord_mod</text>
</a>
</g>
</g>
<!-- oceanbackground_mod&#45;&gt;timecoord_mod -->
<g id="edge5" class="edge">
<title>oceanbackground_mod&#45;&gt;timecoord_mod</title>
<path fill="none" stroke="black" d="M222.09,-484.77C247.42,-459.91 289,-411.3 289,-360 289,-360 289,-360 289,-286 289,-246 289,-199.65 289,-171.08"/>
<polygon fill="black" stroke="black" points="292.5,-171.05 289,-161.05 285.5,-171.05 292.5,-171.05"/>
</g>
<!-- verticalcoord_mod -->
<g id="node7" class="node">
<title>verticalcoord_mod</title>
<g id="a_node7"><a xlink:href="../modules/verticalcoord_mod.svg" xlink:title="verticalcoord_mod">
<polygon fill="none" stroke="red" points="427,-89 309,-89 309,-53 427,-53 427,-89"/>
<text text-anchor="middle" x="368" y="-67.3" font-family="Times,serif" font-size="14.00">verticalcoord_mod</text>
</a>
</g>
</g>
<!-- oceanbackground_mod&#45;&gt;verticalcoord_mod -->
<g id="edge6" class="edge">
<title>oceanbackground_mod&#45;&gt;verticalcoord_mod</title>
<path fill="none" stroke="black" d="M249.84,-484.95C298.62,-463.82 368,-422.74 368,-360 368,-360 368,-360 368,-214 368,-174 368,-127.65 368,-99.08"/>
<polygon fill="black" stroke="black" points="371.5,-99.05 368,-89.05 364.5,-99.05 371.5,-99.05"/>
</g>
</g>
</svg>
