<?xml version="1.0" encoding="UTF-8" standalone="no"?>
<!DOCTYPE svg PUBLIC "-//W3C//DTD SVG 1.1//EN"
 "http://www.w3.org/Graphics/SVG/1.1/DTD/svg11.dtd">
<!-- Generated by graphviz version 3.0.0 (20220315.2325)
 -->
<!-- Title: oceanobservations_mod Pages: 1 -->
<svg width="750pt" height="673pt"
 viewBox="0.00 0.00 750.00 673.00" xmlns="http://www.w3.org/2000/svg" xmlns:xlink="http://www.w3.org/1999/xlink">
<g id="graph0" class="graph" transform="scale(1 1) rotate(0) translate(4 669)">
<title>oceanobservations_mod</title>
<polygon fill="white" stroke="transparent" points="-4,4 -4,-669 746,-669 746,4 -4,4"/>
<text text-anchor="middle" x="371" y="-37.8" font-family="Times,serif" font-size="14.00">Red boxes indicate modules with dependencies not shown</text>
<text text-anchor="middle" x="371" y="-22.8" font-family="Times,serif" font-size="14.00">Lower level dependencies can be shown by clicking on a red box</text>
<text text-anchor="middle" x="371" y="-7.8" font-family="Times,serif" font-size="14.00">Shaded boxes indicate modules with no dependencies</text>
<!-- oceanobservations_mod -->
<g id="node1" class="node">
<title>oceanobservations_mod</title>
<g id="a_node1"><a xlink:href="oceanobservations_mod.html" xlink:title="oceanobservations_mod">
<polygon fill="none" stroke="black" points="386,-665 240,-665 240,-629 386,-629 386,-665"/>
<text text-anchor="middle" x="313" y="-643.3" font-family="Times,serif" font-size="14.00">oceanobservations_mod</text>
</a>
</g>
</g>
<!-- bufr_mod -->
<g id="node2" class="node">
<title>bufr_mod</title>
<g id="a_node2"><a xlink:href="bufr_mod.html" xlink:title="bufr_mod">
<polygon fill="gray" stroke="black" points="70,-593 0,-593 0,-557 70,-557 70,-593"/>
<text text-anchor="middle" x="35" y="-571.3" font-family="Times,serif" font-size="14.00">bufr_mod</text>
</a>
</g>
</g>
<!-- oceanobservations_mod&#45;&gt;bufr_mod -->
<g id="edge1" class="edge">
<title>oceanobservations_mod&#45;&gt;bufr_mod</title>
<path fill="none" stroke="black" d="M239.78,-631.13C194.58,-621.44 135.56,-607.87 84,-593 82.59,-592.59 81.17,-592.17 79.73,-591.74"/>
<polygon fill="black" stroke="black" points="80.78,-588.4 70.19,-588.71 78.66,-595.07 80.78,-588.4"/>
</g>
<!-- codeprecision_mod -->
<g id="node3" class="node">
<title>codeprecision_mod</title>
<g id="a_node3"><a xlink:href="codeprecision_mod.html" xlink:title="codeprecision_mod">
<polygon fill="gray" stroke="black" points="133,-521 11,-521 11,-485 133,-485 133,-521"/>
<text text-anchor="middle" x="72" y="-499.3" font-family="Times,serif" font-size="14.00">codeprecision_mod</text>
</a>
</g>
</g>
<!-- oceanobservations_mod&#45;&gt;codeprecision_mod -->
<g id="edge2" class="edge">
<title>oceanobservations_mod&#45;&gt;codeprecision_mod</title>
<path fill="none" stroke="black" d="M239.59,-632.01C209.19,-623.9 174.66,-611.51 147,-593 122.39,-576.53 101.38,-549.75 87.91,-529.86"/>
<polygon fill="black" stroke="black" points="90.68,-527.71 82.27,-521.27 84.83,-531.55 90.68,-527.71"/>
</g>
<!-- codtyp_mod -->
<g id="node4" class="node">
<title>codtyp_mod</title>
<g id="a_node4"><a xlink:href="../modules/codtyp_mod.svg" xlink:title="codtyp_mod">
<polygon fill="none" stroke="red" points="171,-449 87,-449 87,-413 171,-413 171,-449"/>
<text text-anchor="middle" x="129" y="-427.3" font-family="Times,serif" font-size="14.00">codtyp_mod</text>
</a>
</g>
</g>
<!-- oceanobservations_mod&#45;&gt;codtyp_mod -->
<g id="edge3" class="edge">
<title>oceanobservations_mod&#45;&gt;codtyp_mod</title>
<path fill="none" stroke="black" d="M242.74,-628.94C221.9,-620.96 200.52,-609.44 185,-593 166.41,-573.3 145.77,-499.45 135.52,-458.96"/>
<polygon fill="black" stroke="black" points="138.9,-458.06 133.09,-449.21 132.11,-459.76 138.9,-458.06"/>
</g>
<!-- gridstatevectorfileio_mod -->
<g id="node5" class="node">
<title>gridstatevectorfileio_mod</title>
<g id="a_node5"><a xlink:href="../modules/gridstatevectorfileio_mod.svg" xlink:title="gridstatevectorfileio_mod">
<polygon fill="none" stroke="red" points="208.5,-377 53.5,-377 53.5,-341 208.5,-341 208.5,-377"/>
<text text-anchor="middle" x="131" y="-355.3" font-family="Times,serif" font-size="14.00">gridstatevectorfileio_mod</text>
</a>
</g>
</g>
<!-- oceanobservations_mod&#45;&gt;gridstatevectorfileio_mod -->
<g id="edge4" class="edge">
<title>oceanobservations_mod&#45;&gt;gridstatevectorfileio_mod</title>
<path fill="none" stroke="black" d="M268.75,-628.89C252.15,-620.42 234.53,-608.6 223,-593 174.11,-526.86 218.73,-485.56 180,-413 174.49,-402.67 166.47,-392.83 158.52,-384.49"/>
<polygon fill="black" stroke="black" points="160.85,-381.87 151.3,-377.28 155.9,-386.82 160.85,-381.87"/>
</g>
<!-- gridstatevector_mod -->
<g id="node6" class="node">
<title>gridstatevector_mod</title>
<g id="a_node6"><a xlink:href="../modules/gridstatevector_mod.svg" xlink:title="gridstatevector_mod">
<polygon fill="none" stroke="red" points="246.5,-305 119.5,-305 119.5,-269 246.5,-269 246.5,-305"/>
<text text-anchor="middle" x="183" y="-283.3" font-family="Times,serif" font-size="14.00">gridstatevector_mod</text>
</a>
</g>
</g>
<!-- oceanobservations_mod&#45;&gt;gridstatevector_mod -->
<g id="edge5" class="edge">
<title>oceanobservations_mod&#45;&gt;gridstatevector_mod</title>
<path fill="none" stroke="black" d="M291.59,-628.86C280.99,-619.33 268.81,-606.65 261,-593 240.66,-557.44 237,-544.97 237,-504 237,-504 237,-504 237,-430 237,-389.46 232.63,-378.41 217,-341 213.06,-331.57 207.46,-321.95 201.94,-313.55"/>
<polygon fill="black" stroke="black" points="204.83,-311.57 196.29,-305.29 199.05,-315.52 204.83,-311.57"/>
</g>
<!-- horizontalcoord_mod -->
<g id="node7" class="node">
<title>horizontalcoord_mod</title>
<g id="a_node7"><a xlink:href="../modules/horizontalcoord_mod.svg" xlink:title="horizontalcoord_mod">
<polygon fill="none" stroke="red" points="284.5,-233 151.5,-233 151.5,-197 284.5,-197 284.5,-233"/>
<text text-anchor="middle" x="218" y="-211.3" font-family="Times,serif" font-size="14.00">horizontalcoord_mod</text>
</a>
</g>
</g>
<!-- oceanobservations_mod&#45;&gt;horizontalcoord_mod -->
<g id="edge6" class="edge">
<title>oceanobservations_mod&#45;&gt;horizontalcoord_mod</title>
<path fill="none" stroke="black" d="M305.31,-628.91C294.21,-602.62 275,-550.45 275,-504 275,-504 275,-504 275,-358 275,-317.46 271.36,-306.1 255,-269 250.77,-259.4 244.69,-249.74 238.68,-241.35"/>
<polygon fill="black" stroke="black" points="241.31,-239.02 232.52,-233.11 235.71,-243.22 241.31,-239.02"/>
</g>
<!-- midasmpi_mod -->
<g id="node8" class="node">
<title>midasmpi_mod</title>
<g id="a_node8"><a xlink:href="../modules/midasmpi_mod.svg" xlink:title="midasmpi_mod">
<polygon fill="none" stroke="red" points="322.5,-161 221.5,-161 221.5,-125 322.5,-125 322.5,-161"/>
<text text-anchor="middle" x="272" y="-139.3" font-family="Times,serif" font-size="14.00">midasmpi_mod</text>
</a>
</g>
</g>
<!-- oceanobservations_mod&#45;&gt;midasmpi_mod -->
<g id="edge7" class="edge">
<title>oceanobservations_mod&#45;&gt;midasmpi_mod</title>
<path fill="none" stroke="black" d="M313,-628.95C313,-602.29 313,-549.11 313,-504 313,-504 313,-504 313,-286 313,-244.41 296.56,-198.56 284.5,-170.51"/>
<polygon fill="black" stroke="black" points="287.55,-168.75 280.3,-161.03 281.15,-171.59 287.55,-168.75"/>
</g>
<!-- obsspacedata_mod -->
<g id="node9" class="node">
<title>obsspacedata_mod</title>
<g id="a_node9"><a xlink:href="../modules/obsspacedata_mod.svg" xlink:title="obsspacedata_mod">
<polygon fill="none" stroke="red" points="410,-89 292,-89 292,-53 410,-53 410,-89"/>
<text text-anchor="middle" x="351" y="-67.3" font-family="Times,serif" font-size="14.00">obsspacedata_mod</text>
</a>
</g>
</g>
<!-- oceanobservations_mod&#45;&gt;obsspacedata_mod -->
<g id="edge8" class="edge">
<title>oceanobservations_mod&#45;&gt;obsspacedata_mod</title>
<path fill="none" stroke="black" d="M320.69,-628.91C331.79,-602.62 351,-550.45 351,-504 351,-504 351,-504 351,-214 351,-174 351,-127.65 351,-99.08"/>
<polygon fill="black" stroke="black" points="354.5,-99.05 351,-89.05 347.5,-99.05 354.5,-99.05"/>
</g>
<!-- oceanmask_mod -->
<g id="node10" class="node">
<title>oceanmask_mod</title>
<g id="a_node10"><a xlink:href="../modules/oceanmask_mod.svg" xlink:title="oceanmask_mod">
<polygon fill="none" stroke="red" points="486.5,-593 379.5,-593 379.5,-557 486.5,-557 486.5,-593"/>
<text text-anchor="middle" x="433" y="-571.3" font-family="Times,serif" font-size="14.00">oceanmask_mod</text>
</a>
</g>
</g>
<!-- oceanobservations_mod&#45;&gt;oceanmask_mod -->
<g id="edge9" class="edge">
<title>oceanobservations_mod&#45;&gt;oceanmask_mod</title>
<path fill="none" stroke="black" d="M342.36,-628.88C358.05,-619.72 377.56,-608.34 394.45,-598.48"/>
<polygon fill="black" stroke="black" points="396.66,-601.25 403.53,-593.19 393.13,-595.21 396.66,-601.25"/>
</g>
<!-- sqliteread_mod -->
<g id="node11" class="node">
<title>sqliteread_mod</title>
<g id="a_node11"><a xlink:href="../modules/sqliteread_mod.svg" xlink:title="sqliteread_mod">
<polygon fill="none" stroke="red" points="525,-521 425,-521 425,-485 525,-485 525,-521"/>
<text text-anchor="middle" x="475" y="-499.3" font-family="Times,serif" font-size="14.00">sqliteread_mod</text>
</a>
</g>
</g>
<!-- oceanobservations_mod&#45;&gt;sqliteread_mod -->
<g id="edge10" class="edge">
<title>oceanobservations_mod&#45;&gt;sqliteread_mod</title>
<path fill="none" stroke="black" d="M386.14,-633.88C430.67,-624.84 481.52,-610.97 495,-593 508.64,-574.82 500.7,-549.05 491.09,-529.92"/>
<polygon fill="black" stroke="black" points="494.17,-528.25 486.33,-521.12 488.01,-531.58 494.17,-528.25"/>
</g>
<!-- timecoord_mod -->
<g id="node12" class="node">
<title>timecoord_mod</title>
<g id="a_node12"><a xlink:href="../modules/timecoord_mod.svg" xlink:title="timecoord_mod">
<polygon fill="none" stroke="red" points="583,-449 481,-449 481,-413 583,-413 583,-449"/>
<text text-anchor="middle" x="532" y="-427.3" font-family="Times,serif" font-size="14.00">timecoord_mod</text>
</a>
</g>
</g>
<!-- oceanobservations_mod&#45;&gt;timecoord_mod -->
<g id="edge11" class="edge">
<title>oceanobservations_mod&#45;&gt;timecoord_mod</title>
<path fill="none" stroke="black" d="M386.36,-643.82C428.52,-638.77 479.57,-625.61 513,-593 548.42,-558.45 544.15,-495.42 538,-459.32"/>
<polygon fill="black" stroke="black" points="541.36,-458.23 536.07,-449.05 534.48,-459.52 541.36,-458.23"/>
</g>
<!-- utilities_mod -->
<g id="node13" class="node">
<title>utilities_mod</title>
<g id="a_node13"><a xlink:href="../modules/utilities_mod.svg" xlink:title="utilities_mod">
<polygon fill="none" stroke="red" points="655,-377 567,-377 567,-341 655,-341 655,-377"/>
<text text-anchor="middle" x="611" y="-355.3" font-family="Times,serif" font-size="14.00">utilities_mod</text>
</a>
</g>
</g>
<!-- oceanobservations_mod&#45;&gt;utilities_mod -->
<g id="edge12" class="edge">
<title>oceanobservations_mod&#45;&gt;utilities_mod</title>
<path fill="none" stroke="black" d="M386.01,-636.36C442.77,-627.52 515.52,-612.79 538,-593 598.65,-539.63 609.45,-436.58 611.02,-387.41"/>
<polygon fill="black" stroke="black" points="614.52,-387.29 611.23,-377.22 607.52,-387.15 614.52,-387.29"/>
</g>
<!-- verticalcoord_mod -->
<g id="node14" class="node">
<title>verticalcoord_mod</title>
<g id="a_node14"><a xlink:href="../modules/verticalcoord_mod.svg" xlink:title="verticalcoord_mod">
<polygon fill="none" stroke="red" points="742,-305 624,-305 624,-269 742,-269 742,-305"/>
<text text-anchor="middle" x="683" y="-283.3" font-family="Times,serif" font-size="14.00">verticalcoord_mod</text>
</a>
</g>
</g>
<!-- oceanobservations_mod&#45;&gt;verticalcoord_mod -->
<g id="edge13" class="edge">
<title>oceanobservations_mod&#45;&gt;verticalcoord_mod</title>
<path fill="none" stroke="black" d="M386.05,-639.52C438.33,-632.82 509.37,-619.44 567,-593 626.06,-565.91 683,-568.98 683,-504 683,-504 683,-504 683,-430 683,-390 683,-343.65 683,-315.08"/>
<polygon fill="black" stroke="black" points="686.5,-315.05 683,-305.05 679.5,-315.05 686.5,-315.05"/>
</g>
</g>
</svg>
