<?xml version="1.0" encoding="UTF-8" standalone="no"?>
<!DOCTYPE svg PUBLIC "-//W3C//DTD SVG 1.1//EN"
 "http://www.w3.org/Graphics/SVG/1.1/DTD/svg11.dtd">
<!-- Generated by graphviz version 3.0.0 (20220315.2325)
 -->
<!-- Title: oceanmask_mod Pages: 1 -->
<svg width="415pt" height="457pt"
 viewBox="0.00 0.00 414.50 457.00" xmlns="http://www.w3.org/2000/svg" xmlns:xlink="http://www.w3.org/1999/xlink">
<g id="graph0" class="graph" transform="scale(1 1) rotate(0) translate(4 453)">
<title>oceanmask_mod</title>
<polygon fill="white" stroke="transparent" points="-4,4 -4,-453 410.5,-453 410.5,4 -4,4"/>
<text text-anchor="middle" x="203.25" y="-37.8" font-family="Times,serif" font-size="14.00">Red boxes indicate modules with dependencies not shown</text>
<text text-anchor="middle" x="203.25" y="-22.8" font-family="Times,serif" font-size="14.00">Lower level dependencies can be shown by clicking on a red box</text>
<text text-anchor="middle" x="203.25" y="-7.8" font-family="Times,serif" font-size="14.00">Shaded boxes indicate modules with no dependencies</text>
<!-- oceanmask_mod -->
<g id="node1" class="node">
<title>oceanmask_mod</title>
<g id="a_node1"><a xlink:href="oceanmask_mod.html" xlink:title="oceanmask_mod">
<polygon fill="none" stroke="black" points="270,-449 163,-449 163,-413 270,-413 270,-449"/>
<text text-anchor="middle" x="216.5" y="-427.3" font-family="Times,serif" font-size="14.00">oceanmask_mod</text>
</a>
</g>
</g>
<!-- horizontalcoord_mod -->
<g id="node2" class="node">
<title>horizontalcoord_mod</title>
<g id="a_node2"><a xlink:href="../modules/horizontalcoord_mod.svg" xlink:title="horizontalcoord_mod">
<polygon fill="none" stroke="red" points="133,-377 0,-377 0,-341 133,-341 133,-377"/>
<text text-anchor="middle" x="66.5" y="-355.3" font-family="Times,serif" font-size="14.00">horizontalcoord_mod</text>
</a>
</g>
</g>
<!-- oceanmask_mod&#45;&gt;horizontalcoord_mod -->
<g id="edge1" class="edge">
<title>oceanmask_mod&#45;&gt;horizontalcoord_mod</title>
<path fill="none" stroke="black" d="M179.81,-412.88C159.48,-403.39 134.03,-391.51 112.4,-381.42"/>
<polygon fill="black" stroke="black" points="113.62,-378.13 103.07,-377.07 110.66,-384.47 113.62,-378.13"/>
</g>
<!-- kdtree2_mod -->
<g id="node3" class="node">
<title>kdtree2_mod</title>
<g id="a_node3"><a xlink:href="../modules/kdtree2_mod.svg" xlink:title="kdtree2_mod">
<polygon fill="none" stroke="red" points="188.5,-305 100.5,-305 100.5,-269 188.5,-269 188.5,-305"/>
<text text-anchor="middle" x="144.5" y="-283.3" font-family="Times,serif" font-size="14.00">kdtree2_mod</text>
</a>
</g>
</g>
<!-- oceanmask_mod&#45;&gt;kdtree2_mod -->
<g id="edge2" class="edge">
<title>oceanmask_mod&#45;&gt;kdtree2_mod</title>
<path fill="none" stroke="black" d="M207.82,-412.87C195.38,-388.35 172.4,-343.03 157.81,-314.26"/>
<polygon fill="black" stroke="black" points="160.86,-312.53 153.22,-305.19 154.62,-315.69 160.86,-312.53"/>
</g>
<!-- midasmpi_mod -->
<g id="node4" class="node">
<title>midasmpi_mod</title>
<g id="a_node4"><a xlink:href="../modules/midasmpi_mod.svg" xlink:title="midasmpi_mod">
<polygon fill="none" stroke="red" points="247,-233 146,-233 146,-197 247,-197 247,-233"/>
<text text-anchor="middle" x="196.5" y="-211.3" font-family="Times,serif" font-size="14.00">midasmpi_mod</text>
</a>
</g>
</g>
<!-- oceanmask_mod&#45;&gt;midasmpi_mod -->
<g id="edge3" class="edge">
<title>oceanmask_mod&#45;&gt;midasmpi_mod</title>
<path fill="none" stroke="black" d="M214.9,-412.85C211.44,-375.83 203.25,-288.18 199.06,-243.39"/>
<polygon fill="black" stroke="black" points="202.53,-242.86 198.11,-233.23 195.56,-243.51 202.53,-242.86"/>
</g>
<!-- utilities_mod -->
<g id="node5" class="node">
<title>utilities_mod</title>
<g id="a_node5"><a xlink:href="../modules/utilities_mod.svg" xlink:title="utilities_mod">
<polygon fill="none" stroke="red" points="319.5,-161 231.5,-161 231.5,-125 319.5,-125 319.5,-161"/>
<text text-anchor="middle" x="275.5" y="-139.3" font-family="Times,serif" font-size="14.00">utilities_mod</text>
</a>
</g>
</g>
<!-- oceanmask_mod&#45;&gt;utilities_mod -->
<g id="edge4" class="edge">
<title>oceanmask_mod&#45;&gt;utilities_mod</title>
<path fill="none" stroke="black" d="M220.01,-412.97C229.87,-365.19 257.84,-229.62 269.88,-171.27"/>
<polygon fill="black" stroke="black" points="273.34,-171.81 271.93,-161.31 266.48,-170.39 273.34,-171.81"/>
</g>
<!-- verticalcoord_mod -->
<g id="node6" class="node">
<title>verticalcoord_mod</title>
<g id="a_node6"><a xlink:href="../modules/verticalcoord_mod.svg" xlink:title="verticalcoord_mod">
<polygon fill="none" stroke="red" points="406.5,-89 288.5,-89 288.5,-53 406.5,-53 406.5,-89"/>
<text text-anchor="middle" x="347.5" y="-67.3" font-family="Times,serif" font-size="14.00">verticalcoord_mod</text>
</a>
</g>
</g>
<!-- oceanmask_mod&#45;&gt;verticalcoord_mod -->
<g id="edge5" class="edge">
<title>oceanmask_mod&#45;&gt;verticalcoord_mod</title>
<path fill="none" stroke="black" d="M249.56,-412.8C288.36,-389.96 347.5,-345.69 347.5,-288 347.5,-288 347.5,-288 347.5,-214 347.5,-174 347.5,-127.65 347.5,-99.08"/>
<polygon fill="black" stroke="black" points="351,-99.05 347.5,-89.05 344,-99.05 351,-99.05"/>
</g>
</g>
</svg>
