<?xml version="1.0" encoding="UTF-8" standalone="no"?>
<!DOCTYPE svg PUBLIC "-//W3C//DTD SVG 1.1//EN"
 "http://www.w3.org/Graphics/SVG/1.1/DTD/svg11.dtd">
<!-- Generated by graphviz version 3.0.0 (20220315.2325)
 -->
<!-- Title: oceanmask_mod Pages: 1 -->
<svg width="521pt" height="673pt"
 viewBox="0.00 0.00 520.50 673.00" xmlns="http://www.w3.org/2000/svg" xmlns:xlink="http://www.w3.org/1999/xlink">
<g id="graph0" class="graph" transform="scale(1 1) rotate(0) translate(4 669)">
<title>oceanmask_mod</title>
<polygon fill="white" stroke="transparent" points="-4,4 -4,-669 516.5,-669 516.5,4 -4,4"/>
<text text-anchor="middle" x="256.25" y="-649.8" font-family="Times,serif" font-size="14.00">Blue boxes indicate modules with reverse dependencies not shown</text>
<text text-anchor="middle" x="256.25" y="-634.8" font-family="Times,serif" font-size="14.00">Higher level reverse dependencies can be shown by clicking on a blue box</text>
<text text-anchor="middle" x="256.25" y="-619.8" font-family="Times,serif" font-size="14.00">Green boxes are programs</text>
<!-- oceanmask_mod -->
<g id="node1" class="node">
<title>oceanmask_mod</title>
<g id="a_node1"><a xlink:href="oceanmask_mod.html" xlink:title="oceanmask_mod">
<polygon fill="none" stroke="black" points="308,-36 201,-36 201,0 308,0 308,-36"/>
<text text-anchor="middle" x="254.5" y="-14.3" font-family="Times,serif" font-size="14.00">oceanmask_mod</text>
</a>
</g>
</g>
<!-- diffusion_mod -->
<g id="node2" class="node">
<title>diffusion_mod</title>
<g id="a_node2"><a xlink:href="../modules/diffusion_mod_rev.svg" xlink:title="diffusion_mod">
<polygon fill="none" stroke="blue" points="95,-108 0,-108 0,-72 95,-72 95,-108"/>
<text text-anchor="middle" x="47.5" y="-86.3" font-family="Times,serif" font-size="14.00">diffusion_mod</text>
</a>
</g>
</g>
<!-- diffusion_mod&#45;&gt;oceanmask_mod -->
<g id="edge1" class="edge">
<title>diffusion_mod&#45;&gt;oceanmask_mod</title>
<path fill="none" stroke="black" d="M103.07,-70.21C134.52,-59.57 173.55,-46.38 204.1,-36.04"/>
<ellipse fill="black" stroke="black" cx="99.04" cy="-71.57" rx="4" ry="4"/>
</g>
<!-- ensembleobservations_mod -->
<g id="node3" class="node">
<title>ensembleobservations_mod</title>
<g id="a_node3"><a xlink:href="../modules/ensembleobservations_mod_rev.svg" xlink:title="ensembleobservations_mod">
<polygon fill="none" stroke="blue" points="169.5,-180 3.5,-180 3.5,-144 169.5,-144 169.5,-180"/>
<text text-anchor="middle" x="86.5" y="-158.3" font-family="Times,serif" font-size="14.00">ensembleobservations_mod</text>
</a>
</g>
</g>
<!-- ensembleobservations_mod&#45;&gt;oceanmask_mod -->
<g id="edge2" class="edge">
<title>ensembleobservations_mod&#45;&gt;oceanmask_mod</title>
<path fill="none" stroke="black" d="M110.18,-138.02C129.45,-119.63 157.61,-93.44 183.5,-72 198.66,-59.44 216.41,-46.19 230.37,-36.08"/>
<ellipse fill="black" stroke="black" cx="107.13" cy="-140.94" rx="4" ry="4"/>
</g>
<!-- ensemblestatevector_mod -->
<g id="node4" class="node">
<title>ensemblestatevector_mod</title>
<g id="a_node4"><a xlink:href="../modules/ensemblestatevector_mod_rev.svg" xlink:title="ensemblestatevector_mod">
<polygon fill="none" stroke="blue" points="207.5,-252 51.5,-252 51.5,-216 207.5,-216 207.5,-252"/>
<text text-anchor="middle" x="129.5" y="-230.3" font-family="Times,serif" font-size="14.00">ensemblestatevector_mod</text>
</a>
</g>
</g>
<!-- ensemblestatevector_mod&#45;&gt;oceanmask_mod -->
<g id="edge3" class="edge">
<title>ensemblestatevector_mod&#45;&gt;oceanmask_mod</title>
<path fill="none" stroke="black" d="M154.28,-209.95C162.74,-201.16 171.77,-190.68 178.5,-180 206.06,-136.3 198.2,-118.11 221.5,-72 227.76,-59.62 236.01,-46.37 242.69,-36.21"/>
<ellipse fill="black" stroke="black" cx="151.35" cy="-212.9" rx="4" ry="4"/>
</g>
<!-- gridstatevectorfileio_mod -->
<g id="node5" class="node">
<title>gridstatevectorfileio_mod</title>
<g id="a_node5"><a xlink:href="../modules/gridstatevectorfileio_mod_rev.svg" xlink:title="gridstatevectorfileio_mod">
<polygon fill="none" stroke="blue" points="245,-324 90,-324 90,-288 245,-288 245,-324"/>
<text text-anchor="middle" x="167.5" y="-302.3" font-family="Times,serif" font-size="14.00">gridstatevectorfileio_mod</text>
</a>
</g>
</g>
<!-- gridstatevectorfileio_mod&#45;&gt;oceanmask_mod -->
<g id="edge4" class="edge">
<title>gridstatevectorfileio_mod&#45;&gt;oceanmask_mod</title>
<path fill="none" stroke="black" d="M194.01,-282.26C202.48,-273.63 211.05,-263.16 216.5,-252 252.71,-177.78 255.46,-76.04 254.99,-36.09"/>
<ellipse fill="black" stroke="black" cx="191.07" cy="-285.14" rx="4" ry="4"/>
</g>
<!-- gridstatevector_mod -->
<g id="node6" class="node">
<title>gridstatevector_mod</title>
<g id="a_node6"><a xlink:href="../modules/gridstatevector_mod_rev.svg" xlink:title="gridstatevector_mod">
<polygon fill="none" stroke="blue" points="283,-396 156,-396 156,-360 283,-360 283,-396"/>
<text text-anchor="middle" x="219.5" y="-374.3" font-family="Times,serif" font-size="14.00">gridstatevector_mod</text>
</a>
</g>
</g>
<!-- gridstatevector_mod&#45;&gt;oceanmask_mod -->
<g id="edge5" class="edge">
<title>gridstatevector_mod&#45;&gt;oceanmask_mod</title>
<path fill="none" stroke="black" d="M237.4,-353.03C243.25,-344.26 249.31,-334.03 253.5,-324 269.13,-286.59 273.5,-275.54 273.5,-235 273.5,-235 273.5,-235 273.5,-161 273.5,-115.73 263.9,-63.06 258.34,-36.39"/>
<ellipse fill="black" stroke="black" cx="235.06" cy="-356.42" rx="4" ry="4"/>
</g>
<!-- oceanobservations_mod -->
<g id="node7" class="node">
<title>oceanobservations_mod</title>
<g id="a_node7"><a xlink:href="../modules/oceanobservations_mod_rev.svg" xlink:title="oceanobservations_mod">
<polygon fill="none" stroke="blue" points="353.5,-468 207.5,-468 207.5,-432 353.5,-432 353.5,-468"/>
<text text-anchor="middle" x="280.5" y="-446.3" font-family="Times,serif" font-size="14.00">oceanobservations_mod</text>
</a>
</g>
</g>
<!-- oceanobservations_mod&#45;&gt;oceanmask_mod -->
<g id="edge6" class="edge">
<title>oceanobservations_mod&#45;&gt;oceanmask_mod</title>
<path fill="none" stroke="black" d="M289.36,-424.04C298.52,-395.96 311.5,-348.8 311.5,-307 311.5,-307 311.5,-307 311.5,-161 311.5,-112.92 283.01,-61.84 266.31,-36.04"/>
<ellipse fill="black" stroke="black" cx="288.04" cy="-427.98" rx="4" ry="4"/>
</g>
<!-- sstbias_mod -->
<g id="node8" class="node">
<title>sstbias_mod</title>
<g id="a_node8"><a xlink:href="../modules/sstbias_mod_rev.svg" xlink:title="sstbias_mod">
<polygon fill="none" stroke="blue" points="423,-540 340,-540 340,-504 423,-504 423,-540"/>
<text text-anchor="middle" x="381.5" y="-518.3" font-family="Times,serif" font-size="14.00">sstbias_mod</text>
</a>
</g>
</g>
<!-- sstbias_mod&#45;&gt;oceanmask_mod -->
<g id="edge7" class="edge">
<title>sstbias_mod&#45;&gt;oceanmask_mod</title>
<path fill="none" stroke="black" d="M381.5,-495.78C381.5,-467.39 381.5,-419.89 381.5,-379 381.5,-379 381.5,-379 381.5,-161 381.5,-103.78 323.5,-59.05 285.89,-36.06"/>
<ellipse fill="black" stroke="black" cx="381.5" cy="-499.95" rx="4" ry="4"/>
</g>
<!-- midas_midas_letkf -->
<g id="node9" class="node">
<title>midas_midas_letkf</title>
<g id="a_node9"><a xlink:href="../programs/midas_letkf.html" xlink:title="midas_midas_letkf">
<polygon fill="gray" stroke="green" points="512.5,-612 390.5,-612 390.5,-576 512.5,-576 512.5,-612"/>
<text text-anchor="middle" x="451.5" y="-590.3" font-family="Times,serif" font-size="14.00">midas_midas_letkf</text>
</a>
</g>
</g>
<!-- midas_midas_letkf&#45;&gt;oceanmask_mod -->
<g id="edge8" class="edge">
<title>midas_midas_letkf&#45;&gt;oceanmask_mod</title>
<path fill="none" stroke="black" d="M451.5,-567.78C451.5,-539.39 451.5,-491.89 451.5,-451 451.5,-451 451.5,-451 451.5,-161 451.5,-90.07 366.41,-51.03 308.07,-32.61"/>
<ellipse fill="black" stroke="black" cx="451.5" cy="-571.95" rx="4" ry="4"/>
</g>
</g>
</svg>
