<?xml version="1.0" encoding="UTF-8" standalone="no"?>
<!DOCTYPE svg PUBLIC "-//W3C//DTD SVG 1.1//EN"
 "http://www.w3.org/Graphics/SVG/1.1/DTD/svg11.dtd">
<!-- Generated by graphviz version 3.0.0 (20220315.2325)
 -->
<!-- Title: ominusf_mod Pages: 1 -->
<svg width="1207pt" height="673pt"
 viewBox="0.00 0.00 1207.00 673.00" xmlns="http://www.w3.org/2000/svg" xmlns:xlink="http://www.w3.org/1999/xlink">
<g id="graph0" class="graph" transform="scale(1 1) rotate(0) translate(4 669)">
<title>ominusf_mod</title>
<polygon fill="white" stroke="transparent" points="-4,4 -4,-669 1203,-669 1203,4 -4,4"/>
<text text-anchor="middle" x="599.5" y="-37.8" font-family="Times,serif" font-size="14.00">Red boxes indicate modules with dependencies not shown</text>
<text text-anchor="middle" x="599.5" y="-22.8" font-family="Times,serif" font-size="14.00">Lower level dependencies can be shown by clicking on a red box</text>
<text text-anchor="middle" x="599.5" y="-7.8" font-family="Times,serif" font-size="14.00">Shaded boxes indicate modules with no dependencies</text>
<!-- ominusf_mod -->
<g id="node1" class="node">
<title>ominusf_mod</title>
<g id="a_node1"><a xlink:href="ominusf_mod.html" xlink:title="ominusf_mod">
<polygon fill="none" stroke="black" points="686.5,-665 593.5,-665 593.5,-629 686.5,-629 686.5,-665"/>
<text text-anchor="middle" x="640" y="-643.3" font-family="Times,serif" font-size="14.00">ominusf_mod</text>
</a>
</g>
</g>
<!-- biascorrectionconv_mod -->
<g id="node2" class="node">
<title>biascorrectionconv_mod</title>
<g id="a_node2"><a xlink:href="../modules/biascorrectionconv_mod.svg" xlink:title="biascorrectionconv_mod">
<polygon fill="none" stroke="red" points="150,-593 0,-593 0,-557 150,-557 150,-593"/>
<text text-anchor="middle" x="75" y="-571.3" font-family="Times,serif" font-size="14.00">biascorrectionconv_mod</text>
</a>
</g>
</g>
<!-- ominusf_mod&#45;&gt;biascorrectionconv_mod -->
<g id="edge1" class="edge">
<title>ominusf_mod&#45;&gt;biascorrectionconv_mod</title>
<path fill="none" stroke="black" d="M593.22,-642.01C507.73,-634.45 320.63,-616.64 164,-593 162.73,-592.81 161.45,-592.61 160.17,-592.41"/>
<polygon fill="black" stroke="black" points="160.62,-588.94 150.19,-590.79 159.5,-595.85 160.62,-588.94"/>
</g>
<!-- codeprecision_mod -->
<g id="node3" class="node">
<title>codeprecision_mod</title>
<g id="a_node3"><a xlink:href="codeprecision_mod.html" xlink:title="codeprecision_mod">
<polygon fill="gray" stroke="black" points="213,-521 91,-521 91,-485 213,-485 213,-521"/>
<text text-anchor="middle" x="152" y="-499.3" font-family="Times,serif" font-size="14.00">codeprecision_mod</text>
</a>
</g>
</g>
<!-- ominusf_mod&#45;&gt;codeprecision_mod -->
<g id="edge2" class="edge">
<title>ominusf_mod&#45;&gt;codeprecision_mod</title>
<path fill="none" stroke="black" d="M593.19,-644.23C498.78,-640 289.28,-626.95 227,-593 200.42,-578.51 179.26,-550.5 166.28,-529.75"/>
<polygon fill="black" stroke="black" points="169.22,-527.85 161.07,-521.09 163.23,-531.46 169.22,-527.85"/>
</g>
<!-- columndata_mod -->
<g id="node4" class="node">
<title>columndata_mod</title>
<g id="a_node4"><a xlink:href="../modules/columndata_mod.svg" xlink:title="columndata_mod">
<polygon fill="none" stroke="red" points="250.5,-449 139.5,-449 139.5,-413 250.5,-413 250.5,-449"/>
<text text-anchor="middle" x="195" y="-427.3" font-family="Times,serif" font-size="14.00">columndata_mod</text>
</a>
</g>
</g>
<!-- ominusf_mod&#45;&gt;columndata_mod -->
<g id="edge3" class="edge">
<title>ominusf_mod&#45;&gt;columndata_mod</title>
<path fill="none" stroke="black" d="M593.49,-645.11C504.64,-642.53 315.14,-632.41 265,-593 224.38,-561.07 243.3,-532.07 222,-485 218.04,-476.25 213.39,-466.86 209.08,-458.46"/>
<polygon fill="black" stroke="black" points="212.13,-456.73 204.41,-449.47 205.92,-459.96 212.13,-456.73"/>
</g>
<!-- ensembleobservations_mod -->
<g id="node5" class="node">
<title>ensembleobservations_mod</title>
<g id="a_node5"><a xlink:href="../modules/ensembleobservations_mod.svg" xlink:title="ensembleobservations_mod">
<polygon fill="none" stroke="red" points="289,-377 123,-377 123,-341 289,-341 289,-377"/>
<text text-anchor="middle" x="206" y="-355.3" font-family="Times,serif" font-size="14.00">ensembleobservations_mod</text>
</a>
</g>
</g>
<!-- ominusf_mod&#45;&gt;ensembleobservations_mod -->
<g id="edge4" class="edge">
<title>ominusf_mod&#45;&gt;ensembleobservations_mod</title>
<path fill="none" stroke="black" d="M593.26,-644.87C510.86,-641.89 344.52,-631.19 303,-593 242.38,-537.25 299.39,-484.77 259,-413 253.03,-402.39 244.34,-392.45 235.72,-384.11"/>
<polygon fill="black" stroke="black" points="237.96,-381.42 228.23,-377.22 233.22,-386.57 237.96,-381.42"/>
</g>
<!-- ensemblestatevector_mod -->
<g id="node6" class="node">
<title>ensemblestatevector_mod</title>
<g id="a_node6"><a xlink:href="../modules/ensemblestatevector_mod.svg" xlink:title="ensemblestatevector_mod">
<polygon fill="none" stroke="red" points="327,-305 171,-305 171,-269 327,-269 327,-305"/>
<text text-anchor="middle" x="249" y="-283.3" font-family="Times,serif" font-size="14.00">ensemblestatevector_mod</text>
</a>
</g>
</g>
<!-- ominusf_mod&#45;&gt;ensemblestatevector_mod -->
<g id="edge5" class="edge">
<title>ominusf_mod&#45;&gt;ensemblestatevector_mod</title>
<path fill="none" stroke="black" d="M593.27,-643.71C518.61,-639.09 377.16,-626.11 341,-593 310.79,-565.33 317,-544.97 317,-504 317,-504 317,-504 317,-430 317,-389.55 316.62,-376.91 298,-341 292.61,-330.61 284.63,-320.74 276.67,-312.41"/>
<polygon fill="black" stroke="black" points="278.99,-309.78 269.44,-305.21 274.06,-314.74 278.99,-309.78"/>
</g>
<!-- filenames_mod -->
<g id="node7" class="node">
<title>filenames_mod</title>
<g id="a_node7"><a xlink:href="../modules/filenames_mod.svg" xlink:title="filenames_mod">
<polygon fill="none" stroke="red" points="364.5,-233 265.5,-233 265.5,-197 364.5,-197 364.5,-233"/>
<text text-anchor="middle" x="315" y="-211.3" font-family="Times,serif" font-size="14.00">filenames_mod</text>
</a>
</g>
</g>
<!-- ominusf_mod&#45;&gt;filenames_mod -->
<g id="edge6" class="edge">
<title>ominusf_mod&#45;&gt;filenames_mod</title>
<path fill="none" stroke="black" d="M593.22,-642.34C526.7,-636.2 409.42,-621.56 379,-593 349.13,-564.96 355,-544.97 355,-504 355,-504 355,-504 355,-358 355,-316.48 338.96,-270.61 327.2,-242.54"/>
<polygon fill="black" stroke="black" points="330.27,-240.84 323.09,-233.05 323.85,-243.62 330.27,-240.84"/>
</g>
<!-- gridstatevectorfileio_mod -->
<g id="node8" class="node">
<title>gridstatevectorfileio_mod</title>
<g id="a_node8"><a xlink:href="../modules/gridstatevectorfileio_mod.svg" xlink:title="gridstatevectorfileio_mod">
<polygon fill="none" stroke="red" points="402.5,-161 247.5,-161 247.5,-125 402.5,-125 402.5,-161"/>
<text text-anchor="middle" x="325" y="-139.3" font-family="Times,serif" font-size="14.00">gridstatevectorfileio_mod</text>
</a>
</g>
</g>
<!-- ominusf_mod&#45;&gt;gridstatevectorfileio_mod -->
<g id="edge7" class="edge">
<title>ominusf_mod&#45;&gt;gridstatevectorfileio_mod</title>
<path fill="none" stroke="black" d="M593.42,-640.56C535.67,-632.88 441.81,-617.08 417,-593 387.6,-564.47 393,-544.97 393,-504 393,-504 393,-504 393,-286 393,-245.46 391.67,-232.99 373,-197 367.66,-186.71 359.83,-176.87 352.03,-168.52"/>
<polygon fill="black" stroke="black" points="354.46,-166 344.95,-161.31 349.46,-170.9 354.46,-166"/>
</g>
<!-- gridstatevector_mod -->
<g id="node9" class="node">
<title>gridstatevector_mod</title>
<g id="a_node9"><a xlink:href="../modules/gridstatevector_mod.svg" xlink:title="gridstatevector_mod">
<polygon fill="none" stroke="red" points="494.5,-89 367.5,-89 367.5,-53 494.5,-53 494.5,-89"/>
<text text-anchor="middle" x="431" y="-67.3" font-family="Times,serif" font-size="14.00">gridstatevector_mod</text>
</a>
</g>
</g>
<!-- ominusf_mod&#45;&gt;gridstatevector_mod -->
<g id="edge8" class="edge">
<title>ominusf_mod&#45;&gt;gridstatevector_mod</title>
<path fill="none" stroke="black" d="M593.26,-645.93C549.94,-643.23 486.83,-632.17 450,-593 422.3,-563.53 431,-544.45 431,-504 431,-504 431,-504 431,-214 431,-174 431,-127.65 431,-99.08"/>
<polygon fill="black" stroke="black" points="434.5,-99.05 431,-89.05 427.5,-99.05 434.5,-99.05"/>
</g>
<!-- horizontalcoord_mod -->
<g id="node10" class="node">
<title>horizontalcoord_mod</title>
<g id="a_node10"><a xlink:href="../modules/horizontalcoord_mod.svg" xlink:title="horizontalcoord_mod">
<polygon fill="none" stroke="red" points="592.5,-593 459.5,-593 459.5,-557 592.5,-557 592.5,-593"/>
<text text-anchor="middle" x="526" y="-571.3" font-family="Times,serif" font-size="14.00">horizontalcoord_mod</text>
</a>
</g>
</g>
<!-- ominusf_mod&#45;&gt;horizontalcoord_mod -->
<g id="edge9" class="edge">
<title>ominusf_mod&#45;&gt;horizontalcoord_mod</title>
<path fill="none" stroke="black" d="M612.11,-628.88C597.21,-619.72 578.67,-608.34 562.62,-598.48"/>
<polygon fill="black" stroke="black" points="564.35,-595.44 553.99,-593.19 560.69,-601.41 564.35,-595.44"/>
</g>
<!-- innovation_mod -->
<g id="node11" class="node">
<title>innovation_mod</title>
<g id="a_node11"><a xlink:href="../modules/innovation_mod.svg" xlink:title="innovation_mod">
<polygon fill="none" stroke="red" points="631,-521 527,-521 527,-485 631,-485 631,-521"/>
<text text-anchor="middle" x="579" y="-499.3" font-family="Times,serif" font-size="14.00">innovation_mod</text>
</a>
</g>
</g>
<!-- ominusf_mod&#45;&gt;innovation_mod -->
<g id="edge10" class="edge">
<title>ominusf_mod&#45;&gt;innovation_mod</title>
<path fill="none" stroke="black" d="M632.64,-628.87C622.15,-604.46 602.81,-559.43 590.44,-530.64"/>
<polygon fill="black" stroke="black" points="593.55,-529 586.38,-521.19 587.12,-531.76 593.55,-529"/>
</g>
<!-- mathphysconstants_mod -->
<g id="node12" class="node">
<title>mathphysconstants_mod</title>
<g id="a_node12"><a xlink:href="mathphysconstants_mod.html" xlink:title="mathphysconstants_mod">
<polygon fill="gray" stroke="black" points="669,-449 519,-449 519,-413 669,-413 669,-449"/>
<text text-anchor="middle" x="594" y="-427.3" font-family="Times,serif" font-size="14.00">mathphysconstants_mod</text>
</a>
</g>
</g>
<!-- ominusf_mod&#45;&gt;mathphysconstants_mod -->
<g id="edge11" class="edge">
<title>ominusf_mod&#45;&gt;mathphysconstants_mod</title>
<path fill="none" stroke="black" d="M643.8,-628.86C649.67,-598.66 658.48,-534.49 640,-485 636.12,-474.62 629.2,-464.93 621.88,-456.74"/>
<polygon fill="black" stroke="black" points="624.27,-454.18 614.82,-449.38 619.22,-459.03 624.27,-454.18"/>
</g>
<!-- midasmpi_mod -->
<g id="node13" class="node">
<title>midasmpi_mod</title>
<g id="a_node13"><a xlink:href="../modules/midasmpi_mod.svg" xlink:title="midasmpi_mod">
<polygon fill="none" stroke="red" points="706.5,-377 605.5,-377 605.5,-341 706.5,-341 706.5,-377"/>
<text text-anchor="middle" x="656" y="-355.3" font-family="Times,serif" font-size="14.00">midasmpi_mod</text>
</a>
</g>
</g>
<!-- ominusf_mod&#45;&gt;midasmpi_mod -->
<g id="edge12" class="edge">
<title>ominusf_mod&#45;&gt;midasmpi_mod</title>
<path fill="none" stroke="black" d="M649.94,-628.92C655.33,-618.82 661.58,-605.57 665,-593 686.04,-515.6 693.68,-491.66 678,-413 676.21,-404.01 672.86,-394.64 669.31,-386.32"/>
<polygon fill="black" stroke="black" points="672.46,-384.77 665.13,-377.12 666.08,-387.67 672.46,-384.77"/>
</g>
<!-- obserrors_mod -->
<g id="node14" class="node">
<title>obserrors_mod</title>
<g id="a_node14"><a xlink:href="../modules/obserrors_mod.svg" xlink:title="obserrors_mod">
<polygon fill="none" stroke="red" points="745,-305 647,-305 647,-269 745,-269 745,-305"/>
<text text-anchor="middle" x="696" y="-283.3" font-family="Times,serif" font-size="14.00">obserrors_mod</text>
</a>
</g>
</g>
<!-- ominusf_mod&#45;&gt;obserrors_mod -->
<g id="edge13" class="edge">
<title>ominusf_mod&#45;&gt;obserrors_mod</title>
<path fill="none" stroke="black" d="M661.56,-628.78C689.59,-604.28 735,-556.5 735,-504 735,-504 735,-504 735,-430 735,-388.56 719.36,-342.67 707.89,-314.58"/>
<polygon fill="black" stroke="black" points="711,-312.93 703.89,-305.07 704.55,-315.65 711,-312.93"/>
</g>
<!-- obsfiles_mod -->
<g id="node15" class="node">
<title>obsfiles_mod</title>
<g id="a_node15"><a xlink:href="../modules/obsfiles_mod.svg" xlink:title="obsfiles_mod">
<polygon fill="none" stroke="red" points="782.5,-233 693.5,-233 693.5,-197 782.5,-197 782.5,-233"/>
<text text-anchor="middle" x="738" y="-211.3" font-family="Times,serif" font-size="14.00">obsfiles_mod</text>
</a>
</g>
</g>
<!-- ominusf_mod&#45;&gt;obsfiles_mod -->
<g id="edge14" class="edge">
<title>ominusf_mod&#45;&gt;obsfiles_mod</title>
<path fill="none" stroke="black" d="M673.56,-628.93C712.96,-606.23 773,-562.1 773,-504 773,-504 773,-504 773,-358 773,-316.84 758.97,-270.88 748.67,-242.69"/>
<polygon fill="black" stroke="black" points="751.88,-241.28 745.08,-233.15 745.33,-243.74 751.88,-241.28"/>
</g>
<!-- obsspacedata_mod -->
<g id="node16" class="node">
<title>obsspacedata_mod</title>
<g id="a_node16"><a xlink:href="../modules/obsspacedata_mod.svg" xlink:title="obsspacedata_mod">
<polygon fill="none" stroke="red" points="821,-161 703,-161 703,-125 821,-125 821,-161"/>
<text text-anchor="middle" x="762" y="-139.3" font-family="Times,serif" font-size="14.00">obsspacedata_mod</text>
</a>
</g>
</g>
<!-- ominusf_mod&#45;&gt;obsspacedata_mod -->
<g id="edge15" class="edge">
<title>ominusf_mod&#45;&gt;obsspacedata_mod</title>
<path fill="none" stroke="black" d="M686.73,-630.18C737.36,-609.72 811,-568.83 811,-504 811,-504 811,-504 811,-286 811,-245.46 805.31,-234.93 791,-197 787.56,-187.87 782.79,-178.38 778.11,-170"/>
<polygon fill="black" stroke="black" points="780.99,-167.98 772.94,-161.08 774.93,-171.49 780.99,-167.98"/>
</g>
<!-- obsspaceerrorstddev_mod -->
<g id="node17" class="node">
<title>obsspaceerrorstddev_mod</title>
<g id="a_node17"><a xlink:href="../modules/obsspaceerrorstddev_mod.svg" xlink:title="obsspaceerrorstddev_mod">
<polygon fill="none" stroke="red" points="927.5,-89 770.5,-89 770.5,-53 927.5,-53 927.5,-89"/>
<text text-anchor="middle" x="849" y="-67.3" font-family="Times,serif" font-size="14.00">obsspaceerrorstddev_mod</text>
</a>
</g>
</g>
<!-- ominusf_mod&#45;&gt;obsspaceerrorstddev_mod -->
<g id="edge16" class="edge">
<title>ominusf_mod&#45;&gt;obsspaceerrorstddev_mod</title>
<path fill="none" stroke="black" d="M686.64,-636.16C748.24,-620.13 849,-581.97 849,-504 849,-504 849,-504 849,-214 849,-174 849,-127.65 849,-99.08"/>
<polygon fill="black" stroke="black" points="852.5,-99.05 849,-89.05 845.5,-99.05 852.5,-99.05"/>
</g>
<!-- ramdisk_mod -->
<g id="node18" class="node">
<title>ramdisk_mod</title>
<g id="a_node18"><a xlink:href="../modules/ramdisk_mod.svg" xlink:title="ramdisk_mod">
<polygon fill="none" stroke="red" points="968.5,-593 877.5,-593 877.5,-557 968.5,-557 968.5,-593"/>
<text text-anchor="middle" x="923" y="-571.3" font-family="Times,serif" font-size="14.00">ramdisk_mod</text>
</a>
</g>
</g>
<!-- ominusf_mod&#45;&gt;ramdisk_mod -->
<g id="edge17" class="edge">
<title>ominusf_mod&#45;&gt;ramdisk_mod</title>
<path fill="none" stroke="black" d="M686.7,-635.51C731.92,-625.21 802.35,-608.79 863,-593 864.44,-592.62 865.9,-592.24 867.37,-591.85"/>
<polygon fill="black" stroke="black" points="868.45,-595.18 877.19,-589.2 866.63,-588.43 868.45,-595.18"/>
</g>
<!-- statetocolumn_mod -->
<g id="node19" class="node">
<title>statetocolumn_mod</title>
<g id="a_node19"><a xlink:href="../modules/statetocolumn_mod.svg" xlink:title="statetocolumn_mod">
<polygon fill="none" stroke="red" points="1033,-521 909,-521 909,-485 1033,-485 1033,-521"/>
<text text-anchor="middle" x="971" y="-499.3" font-family="Times,serif" font-size="14.00">statetocolumn_mod</text>
</a>
</g>
</g>
<!-- ominusf_mod&#45;&gt;statetocolumn_mod -->
<g id="edge18" class="edge">
<title>ominusf_mod&#45;&gt;statetocolumn_mod</title>
<path fill="none" stroke="black" d="M686.71,-645.8C770.3,-644.36 940.2,-636.05 977,-593 991.4,-576.16 987.83,-550.35 981.88,-530.85"/>
<polygon fill="black" stroke="black" points="985.17,-529.65 978.63,-521.31 978.54,-531.9 985.17,-529.65"/>
</g>
<!-- timecoord_mod -->
<g id="node20" class="node">
<title>timecoord_mod</title>
<g id="a_node20"><a xlink:href="../modules/timecoord_mod.svg" xlink:title="timecoord_mod">
<polygon fill="none" stroke="red" points="1112,-449 1010,-449 1010,-413 1112,-413 1112,-449"/>
<text text-anchor="middle" x="1061" y="-427.3" font-family="Times,serif" font-size="14.00">timecoord_mod</text>
</a>
</g>
</g>
<!-- ominusf_mod&#45;&gt;timecoord_mod -->
<g id="edge19" class="edge">
<title>ominusf_mod&#45;&gt;timecoord_mod</title>
<path fill="none" stroke="black" d="M686.68,-643.88C771.48,-639.25 946.74,-625.91 997,-593 1041.89,-563.6 1055.29,-497 1059.3,-459.31"/>
<polygon fill="black" stroke="black" points="1062.81,-459.34 1060.23,-449.06 1055.84,-458.71 1062.81,-459.34"/>
</g>
<!-- verticalcoord_mod -->
<g id="node21" class="node">
<title>verticalcoord_mod</title>
<g id="a_node21"><a xlink:href="../modules/verticalcoord_mod.svg" xlink:title="verticalcoord_mod">
<polygon fill="none" stroke="red" points="1199,-377 1081,-377 1081,-341 1199,-341 1199,-377"/>
<text text-anchor="middle" x="1140" y="-355.3" font-family="Times,serif" font-size="14.00">verticalcoord_mod</text>
</a>
</g>
</g>
<!-- ominusf_mod&#45;&gt;verticalcoord_mod -->
<g id="edge20" class="edge">
<title>ominusf_mod&#45;&gt;verticalcoord_mod</title>
<path fill="none" stroke="black" d="M686.76,-644.44C777.23,-640.64 972.21,-628.49 1028,-593 1101.01,-546.56 1127.57,-437.93 1136.24,-387.11"/>
<polygon fill="black" stroke="black" points="1139.7,-387.61 1137.83,-377.19 1132.79,-386.51 1139.7,-387.61"/>
</g>
</g>
</svg>
