<?xml version="1.0" encoding="UTF-8" standalone="no"?>
<!DOCTYPE svg PUBLIC "-//W3C//DTD SVG 1.1//EN"
 "http://www.w3.org/Graphics/SVG/1.1/DTD/svg11.dtd">
<!-- Generated by graphviz version 3.0.0 (20220315.2325)
 -->
<!-- Title: ozoneclim_mod Pages: 1 -->
<svg width="379pt" height="313pt"
 viewBox="0.00 0.00 379.00 313.00" xmlns="http://www.w3.org/2000/svg" xmlns:xlink="http://www.w3.org/1999/xlink">
<g id="graph0" class="graph" transform="scale(1 1) rotate(0) translate(4 309)">
<title>ozoneclim_mod</title>
<polygon fill="white" stroke="transparent" points="-4,4 -4,-309 375,-309 375,4 -4,4"/>
<text text-anchor="middle" x="185.5" y="-37.8" font-family="Times,serif" font-size="14.00">Red boxes indicate modules with dependencies not shown</text>
<text text-anchor="middle" x="185.5" y="-22.8" font-family="Times,serif" font-size="14.00">Lower level dependencies can be shown by clicking on a red box</text>
<text text-anchor="middle" x="185.5" y="-7.8" font-family="Times,serif" font-size="14.00">Shaded boxes indicate modules with no dependencies</text>
<!-- ozoneclim_mod -->
<g id="node1" class="node">
<title>ozoneclim_mod</title>
<g id="a_node1"><a xlink:href="ozoneclim_mod.html" xlink:title="ozoneclim_mod">
<polygon fill="none" stroke="black" points="235.5,-305 131.5,-305 131.5,-269 235.5,-269 235.5,-305"/>
<text text-anchor="middle" x="183.5" y="-283.3" font-family="Times,serif" font-size="14.00">ozoneclim_mod</text>
</a>
</g>
</g>
<!-- obsspacedata_mod -->
<g id="node2" class="node">
<title>obsspacedata_mod</title>
<g id="a_node2"><a xlink:href="../modules/obsspacedata_mod.svg" xlink:title="obsspacedata_mod">
<polygon fill="none" stroke="red" points="155.5,-233 37.5,-233 37.5,-197 155.5,-197 155.5,-233"/>
<text text-anchor="middle" x="96.5" y="-211.3" font-family="Times,serif" font-size="14.00">obsspacedata_mod</text>
</a>
</g>
</g>
<!-- ozoneclim_mod&#45;&gt;obsspacedata_mod -->
<g id="edge1" class="edge">
<title>ozoneclim_mod&#45;&gt;obsspacedata_mod</title>
<path fill="none" stroke="black" d="M161.99,-268.7C151.04,-259.88 137.55,-249.03 125.68,-239.47"/>
<polygon fill="black" stroke="black" points="127.74,-236.65 117.76,-233.1 123.36,-242.1 127.74,-236.65"/>
</g>
<!-- presprofileoperators_mod -->
<g id="node3" class="node">
<title>presprofileoperators_mod</title>
<g id="a_node3"><a xlink:href="../modules/presprofileoperators_mod.svg" xlink:title="presprofileoperators_mod">
<polygon fill="none" stroke="red" points="261,-161 106,-161 106,-125 261,-125 261,-161"/>
<text text-anchor="middle" x="183.5" y="-139.3" font-family="Times,serif" font-size="14.00">presprofileoperators_mod</text>
</a>
</g>
</g>
<!-- ozoneclim_mod&#45;&gt;presprofileoperators_mod -->
<g id="edge2" class="edge">
<title>ozoneclim_mod&#45;&gt;presprofileoperators_mod</title>
<path fill="none" stroke="black" d="M183.5,-268.87C183.5,-244.67 183.5,-200.21 183.5,-171.39"/>
<polygon fill="black" stroke="black" points="187,-171.19 183.5,-161.19 180,-171.19 187,-171.19"/>
</g>
<!-- utilities_mod -->
<g id="node4" class="node">
<title>utilities_mod</title>
<g id="a_node4"><a xlink:href="../modules/utilities_mod.svg" xlink:title="utilities_mod">
<polygon fill="none" stroke="red" points="333.5,-89 245.5,-89 245.5,-53 333.5,-53 333.5,-89"/>
<text text-anchor="middle" x="289.5" y="-67.3" font-family="Times,serif" font-size="14.00">utilities_mod</text>
</a>
</g>
</g>
<!-- ozoneclim_mod&#45;&gt;utilities_mod -->
<g id="edge3" class="edge">
<title>ozoneclim_mod&#45;&gt;utilities_mod</title>
<path fill="none" stroke="black" d="M198.93,-268.73C218.58,-245.79 252.2,-203.21 270.5,-161 279.08,-141.22 283.91,-117.24 286.55,-99.16"/>
<polygon fill="black" stroke="black" points="290.05,-99.38 287.9,-89.01 283.11,-98.46 290.05,-99.38"/>
</g>
</g>
</svg>
