<?xml version="1.0" encoding="UTF-8" standalone="no"?>
<!DOCTYPE svg PUBLIC "-//W3C//DTD SVG 1.1//EN"
 "http://www.w3.org/Graphics/SVG/1.1/DTD/svg11.dtd">
<!-- Generated by graphviz version 3.0.0 (20220315.2325)
 -->
<!-- Title: ozoneclim_mod Pages: 1 -->
<svg width="430pt" height="241pt"
 viewBox="0.00 0.00 430.00 241.00" xmlns="http://www.w3.org/2000/svg" xmlns:xlink="http://www.w3.org/1999/xlink">
<g id="graph0" class="graph" transform="scale(1 1) rotate(0) translate(4 237)">
<title>ozoneclim_mod</title>
<polygon fill="white" stroke="transparent" points="-4,4 -4,-237 426,-237 426,4 -4,4"/>
<text text-anchor="middle" x="211" y="-217.8" font-family="Times,serif" font-size="14.00">Blue boxes indicate modules with reverse dependencies not shown</text>
<text text-anchor="middle" x="211" y="-202.8" font-family="Times,serif" font-size="14.00">Higher level reverse dependencies can be shown by clicking on a blue box</text>
<text text-anchor="middle" x="211" y="-187.8" font-family="Times,serif" font-size="14.00">Green boxes are programs</text>
<!-- ozoneclim_mod -->
<g id="node1" class="node">
<title>ozoneclim_mod</title>
<g id="a_node1"><a xlink:href="ozoneclim_mod.html" xlink:title="ozoneclim_mod">
<polygon fill="none" stroke="black" points="277.25,-36 173.25,-36 173.25,0 277.25,0 277.25,-36"/>
<text text-anchor="middle" x="225.25" y="-14.3" font-family="Times,serif" font-size="14.00">ozoneclim_mod</text>
</a>
</g>
</g>
<!-- obsoperatorschem_mod -->
<g id="node2" class="node">
<title>obsoperatorschem_mod</title>
<g id="a_node2"><a xlink:href="../modules/obsoperatorschem_mod_rev.svg" xlink:title="obsoperatorschem_mod">
<polygon fill="none" stroke="blue" points="248.25,-108 102.25,-108 102.25,-72 248.25,-72 248.25,-108"/>
<text text-anchor="middle" x="175.25" y="-86.3" font-family="Times,serif" font-size="14.00">obsoperatorschem_mod</text>
</a>
</g>
</g>
<!-- obsoperatorschem_mod&#45;&gt;ozoneclim_mod -->
<g id="edge1" class="edge">
<title>obsoperatorschem_mod&#45;&gt;ozoneclim_mod</title>
<path fill="none" stroke="black" d="M192.37,-65.03C199.16,-55.52 206.82,-44.8 213.03,-36.1"/>
<ellipse fill="black" stroke="black" cx="189.93" cy="-68.44" rx="4" ry="4"/>
</g>
<!-- tovs_nl_mod -->
<g id="node3" class="node">
<title>tovs_nl_mod</title>
<g id="a_node3"><a xlink:href="../modules/tovs_nl_mod_rev.svg" xlink:title="tovs_nl_mod">
<polygon fill="none" stroke="blue" points="319.75,-180 232.75,-180 232.75,-144 319.75,-144 319.75,-180"/>
<text text-anchor="middle" x="276.25" y="-158.3" font-family="Times,serif" font-size="14.00">tovs_nl_mod</text>
</a>
</g>
</g>
<!-- tovs_nl_mod&#45;&gt;ozoneclim_mod -->
<g id="edge2" class="edge">
<title>tovs_nl_mod&#45;&gt;ozoneclim_mod</title>
<path fill="none" stroke="black" d="M273.1,-135.44C270.31,-117.28 265.39,-92.58 257.25,-72 252.27,-59.41 244.44,-46.37 237.77,-36.38"/>
<ellipse fill="black" stroke="black" cx="273.73" cy="-139.82" rx="4" ry="4"/>
</g>
</g>
</svg>
