<?xml version="1.0" encoding="UTF-8" standalone="no"?>
<!DOCTYPE svg PUBLIC "-//W3C//DTD SVG 1.1//EN"
 "http://www.w3.org/Graphics/SVG/1.1/DTD/svg11.dtd">
<!-- Generated by graphviz version 3.0.0 (20220315.2325)
 -->
<!-- Title: physicsfunctions_mod Pages: 1 -->
<svg width="812pt" height="673pt"
 viewBox="0.00 0.00 811.50 673.00" xmlns="http://www.w3.org/2000/svg" xmlns:xlink="http://www.w3.org/1999/xlink">
<g id="graph0" class="graph" transform="scale(1 1) rotate(0) translate(4 669)">
<title>physicsfunctions_mod</title>
<polygon fill="white" stroke="transparent" points="-4,4 -4,-669 807.5,-669 807.5,4 -4,4"/>
<text text-anchor="middle" x="401.75" y="-649.8" font-family="Times,serif" font-size="14.00">Blue boxes indicate modules with reverse dependencies not shown</text>
<text text-anchor="middle" x="401.75" y="-634.8" font-family="Times,serif" font-size="14.00">Higher level reverse dependencies can be shown by clicking on a blue box</text>
<text text-anchor="middle" x="401.75" y="-619.8" font-family="Times,serif" font-size="14.00">Green boxes are programs</text>
<!-- physicsfunctions_mod -->
<g id="node1" class="node">
<title>physicsfunctions_mod</title>
<g id="a_node1"><a xlink:href="physicsfunctions_mod.html" xlink:title="physicsfunctions_mod">
<polygon fill="none" stroke="black" points="417.5,-36 279.5,-36 279.5,0 417.5,0 417.5,-36"/>
<text text-anchor="middle" x="348.5" y="-14.3" font-family="Times,serif" font-size="14.00">physicsfunctions_mod</text>
</a>
</g>
</g>
<!-- analysiserroroi_mod -->
<g id="node2" class="node">
<title>analysiserroroi_mod</title>
<g id="a_node2"><a xlink:href="../modules/analysiserroroi_mod_rev.svg" xlink:title="analysiserroroi_mod">
<polygon fill="none" stroke="blue" points="127,-108 0,-108 0,-72 127,-72 127,-108"/>
<text text-anchor="middle" x="63.5" y="-86.3" font-family="Times,serif" font-size="14.00">analysiserroroi_mod</text>
</a>
</g>
</g>
<!-- analysiserroroi_mod&#45;&gt;physicsfunctions_mod -->
<g id="edge1" class="edge">
<title>analysiserroroi_mod&#45;&gt;physicsfunctions_mod</title>
<path fill="none" stroke="black" d="M134.93,-71.46C179.13,-60.6 235.59,-46.73 279.36,-35.98"/>
<ellipse fill="black" stroke="black" cx="130.99" cy="-72.42" rx="4" ry="4"/>
</g>
<!-- bmatrixdiff_mod -->
<g id="node3" class="node">
<title>bmatrixdiff_mod</title>
<g id="a_node3"><a xlink:href="../modules/bmatrixdiff_mod_rev.svg" xlink:title="bmatrixdiff_mod">
<polygon fill="none" stroke="blue" points="187.5,-180 79.5,-180 79.5,-144 187.5,-144 187.5,-180"/>
<text text-anchor="middle" x="133.5" y="-158.3" font-family="Times,serif" font-size="14.00">bmatrixdiff_mod</text>
</a>
</g>
</g>
<!-- bmatrixdiff_mod&#45;&gt;physicsfunctions_mod -->
<g id="edge2" class="edge">
<title>bmatrixdiff_mod&#45;&gt;physicsfunctions_mod</title>
<path fill="none" stroke="black" d="M146.59,-136.93C158.54,-117.02 177.89,-89.3 201.5,-72 224.48,-55.17 253.34,-43.23 279.39,-35"/>
<ellipse fill="black" stroke="black" cx="144.55" cy="-140.42" rx="4" ry="4"/>
</g>
<!-- calcheightandpressure_mod -->
<g id="node4" class="node">
<title>calcheightandpressure_mod</title>
<g id="a_node4"><a xlink:href="../modules/calcheightandpressure_mod_rev.svg" xlink:title="calcheightandpressure_mod">
<polygon fill="none" stroke="blue" points="226,-252 59,-252 59,-216 226,-216 226,-252"/>
<text text-anchor="middle" x="142.5" y="-230.3" font-family="Times,serif" font-size="14.00">calcheightandpressure_mod</text>
</a>
</g>
</g>
<!-- calcheightandpressure_mod&#45;&gt;physicsfunctions_mod -->
<g id="edge3" class="edge">
<title>calcheightandpressure_mod&#45;&gt;physicsfunctions_mod</title>
<path fill="none" stroke="black" d="M169.87,-210.36C179.22,-201.61 189.16,-191.04 196.5,-180 225.11,-136.98 204.34,-109.85 239.5,-72 254.32,-56.04 274.98,-44.33 294.32,-36.03"/>
<ellipse fill="black" stroke="black" cx="166.8" cy="-213.15" rx="4" ry="4"/>
</g>
<!-- getgridposition_mod -->
<g id="node5" class="node">
<title>getgridposition_mod</title>
<g id="a_node5"><a xlink:href="../modules/getgridposition_mod_rev.svg" xlink:title="getgridposition_mod">
<polygon fill="none" stroke="blue" points="263,-324 134,-324 134,-288 263,-288 263,-324"/>
<text text-anchor="middle" x="198.5" y="-302.3" font-family="Times,serif" font-size="14.00">getgridposition_mod</text>
</a>
</g>
</g>
<!-- getgridposition_mod&#45;&gt;physicsfunctions_mod -->
<g id="edge4" class="edge">
<title>getgridposition_mod&#45;&gt;physicsfunctions_mod</title>
<path fill="none" stroke="black" d="M217.42,-281.13C223.61,-272.37 230.04,-262.12 234.5,-252 267.71,-176.75 232.29,-140.71 277.5,-72 287.22,-57.22 302.54,-45.03 316.46,-36.08"/>
<ellipse fill="black" stroke="black" cx="214.9" cy="-284.57" rx="4" ry="4"/>
</g>
<!-- gridstatevector_mod -->
<g id="node6" class="node">
<title>gridstatevector_mod</title>
<g id="a_node6"><a xlink:href="../modules/gridstatevector_mod_rev.svg" xlink:title="gridstatevector_mod">
<polygon fill="none" stroke="blue" points="301,-396 174,-396 174,-360 301,-360 301,-396"/>
<text text-anchor="middle" x="237.5" y="-374.3" font-family="Times,serif" font-size="14.00">gridstatevector_mod</text>
</a>
</g>
</g>
<!-- gridstatevector_mod&#45;&gt;physicsfunctions_mod -->
<g id="edge5" class="edge">
<title>gridstatevector_mod&#45;&gt;physicsfunctions_mod</title>
<path fill="none" stroke="black" d="M255.4,-353.03C261.25,-344.26 267.31,-334.03 271.5,-324 287.13,-286.59 291.5,-275.54 291.5,-235 291.5,-235 291.5,-235 291.5,-161 291.5,-120.03 299.16,-109.57 315.5,-72 320.95,-59.48 329.03,-46.44 335.83,-36.43"/>
<ellipse fill="black" stroke="black" cx="253.06" cy="-356.42" rx="4" ry="4"/>
</g>
<!-- horizontalcoord_mod -->
<g id="node7" class="node">
<title>horizontalcoord_mod</title>
<g id="a_node7"><a xlink:href="../modules/horizontalcoord_mod_rev.svg" xlink:title="horizontalcoord_mod">
<polygon fill="none" stroke="blue" points="339,-468 206,-468 206,-432 339,-432 339,-468"/>
<text text-anchor="middle" x="272.5" y="-446.3" font-family="Times,serif" font-size="14.00">horizontalcoord_mod</text>
</a>
</g>
</g>
<!-- horizontalcoord_mod&#45;&gt;physicsfunctions_mod -->
<g id="edge6" class="edge">
<title>horizontalcoord_mod&#45;&gt;physicsfunctions_mod</title>
<path fill="none" stroke="black" d="M291.85,-425.49C298.28,-416.69 304.95,-406.31 309.5,-396 325.86,-358.9 329.5,-347.54 329.5,-307 329.5,-307 329.5,-307 329.5,-161 329.5,-115.73 339.1,-63.06 344.66,-36.39"/>
<ellipse fill="black" stroke="black" cx="289.43" cy="-428.7" rx="4" ry="4"/>
</g>
<!-- humiditylimits_mod -->
<g id="node8" class="node">
<title>humiditylimits_mod</title>
<g id="a_node8"><a xlink:href="../modules/humiditylimits_mod_rev.svg" xlink:title="humiditylimits_mod">
<polygon fill="none" stroke="blue" points="377.5,-540 249.5,-540 249.5,-504 377.5,-504 377.5,-540"/>
<text text-anchor="middle" x="313.5" y="-518.3" font-family="Times,serif" font-size="14.00">humiditylimits_mod</text>
</a>
</g>
</g>
<!-- humiditylimits_mod&#45;&gt;physicsfunctions_mod -->
<g id="edge7" class="edge">
<title>humiditylimits_mod&#45;&gt;physicsfunctions_mod</title>
<path fill="none" stroke="black" d="M331.4,-497.03C337.25,-488.26 343.31,-478.03 347.5,-468 363.13,-430.59 367.5,-419.54 367.5,-379 367.5,-379 367.5,-379 367.5,-161 367.5,-115.73 357.9,-63.06 352.34,-36.39"/>
<ellipse fill="black" stroke="black" cx="329.06" cy="-500.42" rx="4" ry="4"/>
</g>
<!-- obsfilter_mod -->
<g id="node9" class="node">
<title>obsfilter_mod</title>
<g id="a_node9"><a xlink:href="../modules/obsfilter_mod_rev.svg" xlink:title="obsfilter_mod">
<polygon fill="none" stroke="blue" points="451.5,-612 359.5,-612 359.5,-576 451.5,-576 451.5,-612"/>
<text text-anchor="middle" x="405.5" y="-590.3" font-family="Times,serif" font-size="14.00">obsfilter_mod</text>
</a>
</g>
</g>
<!-- obsfilter_mod&#45;&gt;physicsfunctions_mod -->
<g id="edge8" class="edge">
<title>obsfilter_mod&#45;&gt;physicsfunctions_mod</title>
<path fill="none" stroke="black" d="M405.5,-567.78C405.5,-539.39 405.5,-491.89 405.5,-451 405.5,-451 405.5,-451 405.5,-161 405.5,-112.92 377.01,-61.84 360.31,-36.04"/>
<ellipse fill="black" stroke="black" cx="405.5" cy="-571.95" rx="4" ry="4"/>
</g>
<!-- obsoperatorschem_mod -->
<g id="node10" class="node">
<title>obsoperatorschem_mod</title>
<g id="a_node10"><a xlink:href="../modules/obsoperatorschem_mod_rev.svg" xlink:title="obsoperatorschem_mod">
<polygon fill="none" stroke="blue" points="579.5,-108 433.5,-108 433.5,-72 579.5,-72 579.5,-108"/>
<text text-anchor="middle" x="506.5" y="-86.3" font-family="Times,serif" font-size="14.00">obsoperatorschem_mod</text>
</a>
</g>
</g>
<!-- obsoperatorschem_mod&#45;&gt;physicsfunctions_mod -->
<g id="edge9" class="edge">
<title>obsoperatorschem_mod&#45;&gt;physicsfunctions_mod</title>
<path fill="none" stroke="black" d="M460.46,-68.6C437.15,-58.28 409.18,-45.88 387.03,-36.07"/>
<ellipse fill="black" stroke="black" cx="464.19" cy="-70.26" rx="4" ry="4"/>
</g>
<!-- obsoperators_mod -->
<g id="node11" class="node">
<title>obsoperators_mod</title>
<g id="a_node11"><a xlink:href="../modules/obsoperators_mod_rev.svg" xlink:title="obsoperators_mod">
<polygon fill="none" stroke="blue" points="641.5,-180 525.5,-180 525.5,-144 641.5,-144 641.5,-180"/>
<text text-anchor="middle" x="583.5" y="-158.3" font-family="Times,serif" font-size="14.00">obsoperators_mod</text>
</a>
</g>
</g>
<!-- obsoperators_mod&#45;&gt;physicsfunctions_mod -->
<g id="edge10" class="edge">
<title>obsoperators_mod&#45;&gt;physicsfunctions_mod</title>
<path fill="none" stroke="black" d="M593.12,-136.24C598.95,-116.69 602.81,-89.82 588.5,-72 567.36,-45.68 480.64,-31.65 417.5,-24.77"/>
<ellipse fill="black" stroke="black" cx="591.88" cy="-140.06" rx="4" ry="4"/>
</g>
<!-- obsspacediag_mod -->
<g id="node12" class="node">
<title>obsspacediag_mod</title>
<g id="a_node12"><a xlink:href="../modules/obsspacediag_mod_rev.svg" xlink:title="obsspacediag_mod">
<polygon fill="none" stroke="blue" points="729,-252 610,-252 610,-216 729,-216 729,-252"/>
<text text-anchor="middle" x="669.5" y="-230.3" font-family="Times,serif" font-size="14.00">obsspacediag_mod</text>
</a>
</g>
</g>
<!-- obsspacediag_mod&#45;&gt;physicsfunctions_mod -->
<g id="edge11" class="edge">
<title>obsspacediag_mod&#45;&gt;physicsfunctions_mod</title>
<path fill="none" stroke="black" d="M668.04,-207.71C664.4,-170.86 651.71,-103.37 607.5,-72 577.51,-50.72 483.58,-35.31 417.51,-26.77"/>
<ellipse fill="black" stroke="black" cx="668.41" cy="-211.97" rx="4" ry="4"/>
</g>
<!-- thinning_mod -->
<g id="node13" class="node">
<title>thinning_mod</title>
<g id="a_node13"><a xlink:href="../modules/thinning_mod_rev.svg" xlink:title="thinning_mod">
<polygon fill="none" stroke="blue" points="803.5,-324 711.5,-324 711.5,-288 803.5,-288 803.5,-324"/>
<text text-anchor="middle" x="757.5" y="-302.3" font-family="Times,serif" font-size="14.00">thinning_mod</text>
</a>
</g>
</g>
<!-- thinning_mod&#45;&gt;physicsfunctions_mod -->
<g id="edge12" class="edge">
<title>thinning_mod&#45;&gt;physicsfunctions_mod</title>
<path fill="none" stroke="black" d="M754.45,-279.61C751.63,-261.34 746.48,-236.43 737.5,-216 706.15,-144.66 702.99,-114.22 637.5,-72 601.97,-49.09 491.3,-33.63 417.68,-25.58"/>
<ellipse fill="black" stroke="black" cx="755.09" cy="-284.03" rx="4" ry="4"/>
</g>
</g>
</svg>
