<?xml version="1.0" encoding="UTF-8" standalone="no"?>
<!DOCTYPE svg PUBLIC "-//W3C//DTD SVG 1.1//EN"
 "http://www.w3.org/Graphics/SVG/1.1/DTD/svg11.dtd">
<!-- Generated by graphviz version 3.0.0 (20220315.2325)
 -->
<!-- Title: physicsfunctions_mod Pages: 1 -->
<svg width="412pt" height="457pt"
 viewBox="0.00 0.00 411.50 457.00" xmlns="http://www.w3.org/2000/svg" xmlns:xlink="http://www.w3.org/1999/xlink">
<g id="graph0" class="graph" transform="scale(1 1) rotate(0) translate(4 453)">
<title>physicsfunctions_mod</title>
<polygon fill="white" stroke="transparent" points="-4,4 -4,-453 407.5,-453 407.5,4 -4,4"/>
<text text-anchor="middle" x="201.75" y="-37.8" font-family="Times,serif" font-size="14.00">Red boxes indicate modules with dependencies not shown</text>
<text text-anchor="middle" x="201.75" y="-22.8" font-family="Times,serif" font-size="14.00">Lower level dependencies can be shown by clicking on a red box</text>
<text text-anchor="middle" x="201.75" y="-7.8" font-family="Times,serif" font-size="14.00">Shaded boxes indicate modules with no dependencies</text>
<!-- physicsfunctions_mod -->
<g id="node1" class="node">
<title>physicsfunctions_mod</title>
<g id="a_node1"><a xlink:href="physicsfunctions_mod.html" xlink:title="physicsfunctions_mod">
<polygon fill="none" stroke="black" points="292.5,-449 154.5,-449 154.5,-413 292.5,-413 292.5,-449"/>
<text text-anchor="middle" x="223.5" y="-427.3" font-family="Times,serif" font-size="14.00">physicsfunctions_mod</text>
</a>
</g>
</g>
<!-- earthconstants_mod -->
<g id="node2" class="node">
<title>earthconstants_mod</title>
<g id="a_node2"><a xlink:href="../modules/earthconstants_mod.svg" xlink:title="earthconstants_mod">
<polygon fill="none" stroke="red" points="125,-377 0,-377 0,-341 125,-341 125,-377"/>
<text text-anchor="middle" x="62.5" y="-355.3" font-family="Times,serif" font-size="14.00">earthconstants_mod</text>
</a>
</g>
</g>
<!-- physicsfunctions_mod&#45;&gt;earthconstants_mod -->
<g id="edge1" class="edge">
<title>physicsfunctions_mod&#45;&gt;earthconstants_mod</title>
<path fill="none" stroke="black" d="M184.11,-412.88C162.11,-403.31 134.49,-391.3 111.14,-381.15"/>
<polygon fill="black" stroke="black" points="112.32,-377.85 101.76,-377.07 109.53,-384.27 112.32,-377.85"/>
</g>
<!-- mathphysconstants_mod -->
<g id="node3" class="node">
<title>mathphysconstants_mod</title>
<g id="a_node3"><a xlink:href="mathphysconstants_mod.html" xlink:title="mathphysconstants_mod">
<polygon fill="gray" stroke="black" points="195.5,-305 45.5,-305 45.5,-269 195.5,-269 195.5,-305"/>
<text text-anchor="middle" x="120.5" y="-283.3" font-family="Times,serif" font-size="14.00">mathphysconstants_mod</text>
</a>
</g>
</g>
<!-- physicsfunctions_mod&#45;&gt;mathphysconstants_mod -->
<g id="edge2" class="edge">
<title>physicsfunctions_mod&#45;&gt;mathphysconstants_mod</title>
<path fill="none" stroke="black" d="M211.08,-412.87C193.13,-388.14 159.84,-342.24 139.01,-313.51"/>
<polygon fill="black" stroke="black" points="141.67,-311.23 132.97,-305.19 136.01,-315.34 141.67,-311.23"/>
</g>
<!-- message_mod -->
<g id="node4" class="node">
<title>message_mod</title>
<g id="a_node4"><a xlink:href="../modules/message_mod.svg" xlink:title="message_mod">
<polygon fill="none" stroke="red" points="252,-233 159,-233 159,-197 252,-197 252,-233"/>
<text text-anchor="middle" x="205.5" y="-211.3" font-family="Times,serif" font-size="14.00">message_mod</text>
</a>
</g>
</g>
<!-- physicsfunctions_mod&#45;&gt;message_mod -->
<g id="edge3" class="edge">
<title>physicsfunctions_mod&#45;&gt;message_mod</title>
<path fill="none" stroke="black" d="M222.06,-412.85C218.94,-375.83 211.57,-288.18 207.8,-243.39"/>
<polygon fill="black" stroke="black" points="211.28,-242.9 206.95,-233.23 204.3,-243.49 211.28,-242.9"/>
</g>
<!-- midasmpi_mod -->
<g id="node5" class="node">
<title>midasmpi_mod</title>
<g id="a_node5"><a xlink:href="../modules/midasmpi_mod.svg" xlink:title="midasmpi_mod">
<polygon fill="none" stroke="red" points="331,-161 230,-161 230,-125 331,-125 331,-161"/>
<text text-anchor="middle" x="280.5" y="-139.3" font-family="Times,serif" font-size="14.00">midasmpi_mod</text>
</a>
</g>
</g>
<!-- physicsfunctions_mod&#45;&gt;midasmpi_mod -->
<g id="edge4" class="edge">
<title>physicsfunctions_mod&#45;&gt;midasmpi_mod</title>
<path fill="none" stroke="black" d="M226.89,-412.97C236.42,-365.19 263.44,-229.62 275.07,-171.27"/>
<polygon fill="black" stroke="black" points="278.53,-171.8 277.05,-161.31 271.66,-170.43 278.53,-171.8"/>
</g>
<!-- utilities_mod -->
<g id="node6" class="node">
<title>utilities_mod</title>
<g id="a_node6"><a xlink:href="../modules/utilities_mod.svg" xlink:title="utilities_mod">
<polygon fill="none" stroke="red" points="403.5,-89 315.5,-89 315.5,-53 403.5,-53 403.5,-89"/>
<text text-anchor="middle" x="359.5" y="-67.3" font-family="Times,serif" font-size="14.00">utilities_mod</text>
</a>
</g>
</g>
<!-- physicsfunctions_mod&#45;&gt;utilities_mod -->
<g id="edge5" class="edge">
<title>physicsfunctions_mod&#45;&gt;utilities_mod</title>
<path fill="none" stroke="black" d="M258.17,-412.93C298.46,-390.38 359.5,-346.54 359.5,-288 359.5,-288 359.5,-288 359.5,-214 359.5,-174 359.5,-127.65 359.5,-99.08"/>
<polygon fill="black" stroke="black" points="363,-99.05 359.5,-89.05 356,-99.05 363,-99.05"/>
</g>
</g>
</svg>
