<?xml version="1.0" encoding="UTF-8" standalone="no"?>
<!DOCTYPE svg PUBLIC "-//W3C//DTD SVG 1.1//EN"
 "http://www.w3.org/Graphics/SVG/1.1/DTD/svg11.dtd">
<!-- Generated by graphviz version 3.0.0 (20220315.2325)
 -->
<!-- Title: presprofileoperators_mod Pages: 1 -->
<svg width="430pt" height="241pt"
 viewBox="0.00 0.00 430.00 241.00" xmlns="http://www.w3.org/2000/svg" xmlns:xlink="http://www.w3.org/1999/xlink">
<g id="graph0" class="graph" transform="scale(1 1) rotate(0) translate(4 237)">
<title>presprofileoperators_mod</title>
<polygon fill="white" stroke="transparent" points="-4,4 -4,-237 426,-237 426,4 -4,4"/>
<text text-anchor="middle" x="211" y="-217.8" font-family="Times,serif" font-size="14.00">Blue boxes indicate modules with reverse dependencies not shown</text>
<text text-anchor="middle" x="211" y="-202.8" font-family="Times,serif" font-size="14.00">Higher level reverse dependencies can be shown by clicking on a blue box</text>
<text text-anchor="middle" x="211" y="-187.8" font-family="Times,serif" font-size="14.00">Green boxes are programs</text>
<!-- presprofileoperators_mod -->
<g id="node1" class="node">
<title>presprofileoperators_mod</title>
<g id="a_node1"><a xlink:href="presprofileoperators_mod.html" xlink:title="presprofileoperators_mod">
<polygon fill="none" stroke="black" points="298.5,-36 143.5,-36 143.5,0 298.5,0 298.5,-36"/>
<text text-anchor="middle" x="221" y="-14.3" font-family="Times,serif" font-size="14.00">presprofileoperators_mod</text>
</a>
</g>
</g>
<!-- obsoperatorschem_mod -->
<g id="node2" class="node">
<title>obsoperatorschem_mod</title>
<g id="a_node2"><a xlink:href="../modules/obsoperatorschem_mod_rev.svg" xlink:title="obsoperatorschem_mod">
<polygon fill="none" stroke="blue" points="244,-108 98,-108 98,-72 244,-72 244,-108"/>
<text text-anchor="middle" x="171" y="-86.3" font-family="Times,serif" font-size="14.00">obsoperatorschem_mod</text>
</a>
</g>
</g>
<!-- obsoperatorschem_mod&#45;&gt;presprofileoperators_mod -->
<g id="edge1" class="edge">
<title>obsoperatorschem_mod&#45;&gt;presprofileoperators_mod</title>
<path fill="none" stroke="black" d="M188.12,-65.03C194.91,-55.52 202.57,-44.8 208.78,-36.1"/>
<ellipse fill="black" stroke="black" cx="185.68" cy="-68.44" rx="4" ry="4"/>
</g>
<!-- ozoneclim_mod -->
<g id="node3" class="node">
<title>ozoneclim_mod</title>
<g id="a_node3"><a xlink:href="../modules/ozoneclim_mod_rev.svg" xlink:title="ozoneclim_mod">
<polygon fill="none" stroke="blue" points="324,-180 220,-180 220,-144 324,-144 324,-180"/>
<text text-anchor="middle" x="272" y="-158.3" font-family="Times,serif" font-size="14.00">ozoneclim_mod</text>
</a>
</g>
</g>
<!-- ozoneclim_mod&#45;&gt;presprofileoperators_mod -->
<g id="edge2" class="edge">
<title>ozoneclim_mod&#45;&gt;presprofileoperators_mod</title>
<path fill="none" stroke="black" d="M268.85,-135.44C266.06,-117.28 261.14,-92.58 253,-72 248.02,-59.41 240.19,-46.37 233.52,-36.38"/>
<ellipse fill="black" stroke="black" cx="269.48" cy="-139.82" rx="4" ry="4"/>
</g>
</g>
</svg>
