<?xml version="1.0" encoding="UTF-8" standalone="no"?>
<!DOCTYPE svg PUBLIC "-//W3C//DTD SVG 1.1//EN"
 "http://www.w3.org/Graphics/SVG/1.1/DTD/svg11.dtd">
<!-- Generated by graphviz version 3.0.0 (20220315.2325)
 -->
<!-- Title: quasinewton_mod Pages: 1 -->
<svg width="379pt" height="169pt"
 viewBox="0.00 0.00 379.00 169.00" xmlns="http://www.w3.org/2000/svg" xmlns:xlink="http://www.w3.org/1999/xlink">
<g id="graph0" class="graph" transform="scale(1 1) rotate(0) translate(4 165)">
<title>quasinewton_mod</title>
<polygon fill="white" stroke="transparent" points="-4,4 -4,-165 375,-165 375,4 -4,4"/>
<text text-anchor="middle" x="185.5" y="-37.8" font-family="Times,serif" font-size="14.00">Red boxes indicate modules with dependencies not shown</text>
<text text-anchor="middle" x="185.5" y="-22.8" font-family="Times,serif" font-size="14.00">Lower level dependencies can be shown by clicking on a red box</text>
<text text-anchor="middle" x="185.5" y="-7.8" font-family="Times,serif" font-size="14.00">Shaded boxes indicate modules with no dependencies</text>
<!-- quasinewton_mod -->
<g id="node1" class="node">
<title>quasinewton_mod</title>
<g id="a_node1"><a xlink:href="quasinewton_mod.html" xlink:title="quasinewton_mod">
<polygon fill="none" stroke="black" points="243.5,-161 127.5,-161 127.5,-125 243.5,-125 243.5,-161"/>
<text text-anchor="middle" x="185.5" y="-139.3" font-family="Times,serif" font-size="14.00">quasinewton_mod</text>
</a>
</g>
</g>
<!-- midasmpi_mod -->
<g id="node2" class="node">
<title>midasmpi_mod</title>
<g id="a_node2"><a xlink:href="../modules/midasmpi_mod.svg" xlink:title="midasmpi_mod">
<polygon fill="none" stroke="red" points="236,-89 135,-89 135,-53 236,-53 236,-89"/>
<text text-anchor="middle" x="185.5" y="-67.3" font-family="Times,serif" font-size="14.00">midasmpi_mod</text>
</a>
</g>
</g>
<!-- quasinewton_mod&#45;&gt;midasmpi_mod -->
<g id="edge1" class="edge">
<title>quasinewton_mod&#45;&gt;midasmpi_mod</title>
<path fill="none" stroke="black" d="M185.5,-124.7C185.5,-116.98 185.5,-107.71 185.5,-99.11"/>
<polygon fill="black" stroke="black" points="189,-99.1 185.5,-89.1 182,-99.1 189,-99.1"/>
</g>
</g>
</svg>
