<?xml version="1.0" encoding="UTF-8" standalone="no"?>
<!DOCTYPE svg PUBLIC "-//W3C//DTD SVG 1.1//EN"
 "http://www.w3.org/Graphics/SVG/1.1/DTD/svg11.dtd">
<!-- Generated by graphviz version 3.0.0 (20220315.2325)
 -->
<!-- Title: quasinewton_mod Pages: 1 -->
<svg width="430pt" height="241pt"
 viewBox="0.00 0.00 430.00 241.00" xmlns="http://www.w3.org/2000/svg" xmlns:xlink="http://www.w3.org/1999/xlink">
<g id="graph0" class="graph" transform="scale(1 1) rotate(0) translate(4 237)">
<title>quasinewton_mod</title>
<polygon fill="white" stroke="transparent" points="-4,4 -4,-237 426,-237 426,4 -4,4"/>
<text text-anchor="middle" x="211" y="-217.8" font-family="Times,serif" font-size="14.00">Blue boxes indicate modules with reverse dependencies not shown</text>
<text text-anchor="middle" x="211" y="-202.8" font-family="Times,serif" font-size="14.00">Higher level reverse dependencies can be shown by clicking on a blue box</text>
<text text-anchor="middle" x="211" y="-187.8" font-family="Times,serif" font-size="14.00">Green boxes are programs</text>
<!-- quasinewton_mod -->
<g id="node1" class="node">
<title>quasinewton_mod</title>
<g id="a_node1"><a xlink:href="quasinewton_mod.html" xlink:title="quasinewton_mod">
<polygon fill="none" stroke="black" points="255.75,-36 139.75,-36 139.75,0 255.75,0 255.75,-36"/>
<text text-anchor="middle" x="197.75" y="-14.3" font-family="Times,serif" font-size="14.00">quasinewton_mod</text>
</a>
</g>
</g>
<!-- fsoi_mod -->
<g id="node2" class="node">
<title>fsoi_mod</title>
<g id="a_node2"><a xlink:href="../modules/fsoi_mod_rev.svg" xlink:title="fsoi_mod">
<polygon fill="none" stroke="blue" points="200.75,-108 132.75,-108 132.75,-72 200.75,-72 200.75,-108"/>
<text text-anchor="middle" x="166.75" y="-86.3" font-family="Times,serif" font-size="14.00">fsoi_mod</text>
</a>
</g>
</g>
<!-- fsoi_mod&#45;&gt;quasinewton_mod -->
<g id="edge1" class="edge">
<title>fsoi_mod&#45;&gt;quasinewton_mod</title>
<path fill="none" stroke="black" d="M177.73,-64.2C181.85,-54.9 186.43,-44.55 190.18,-36.1"/>
<ellipse fill="black" stroke="black" cx="176.03" cy="-68.04" rx="4" ry="4"/>
</g>
<!-- minimization_mod -->
<g id="node3" class="node">
<title>minimization_mod</title>
<g id="a_node3"><a xlink:href="../modules/minimization_mod_rev.svg" xlink:title="minimization_mod">
<polygon fill="none" stroke="blue" points="289.25,-180 168.25,-180 168.25,-144 289.25,-144 289.25,-180"/>
<text text-anchor="middle" x="228.75" y="-158.3" font-family="Times,serif" font-size="14.00">minimization_mod</text>
</a>
</g>
</g>
<!-- minimization_mod&#45;&gt;quasinewton_mod -->
<g id="edge2" class="edge">
<title>minimization_mod&#45;&gt;quasinewton_mod</title>
<path fill="none" stroke="black" d="M223.45,-135.75C219.68,-117.92 214.47,-93.48 209.75,-72 207.12,-60.02 204.06,-46.54 201.69,-36.17"/>
<ellipse fill="black" stroke="black" cx="224.34" cy="-140.01" rx="4" ry="4"/>
</g>
</g>
</svg>
