<?xml version="1.0" encoding="UTF-8" standalone="no"?>
<!DOCTYPE svg PUBLIC "-//W3C//DTD SVG 1.1//EN"
 "http://www.w3.org/Graphics/SVG/1.1/DTD/svg11.dtd">
<!-- Generated by graphviz version 3.0.0 (20220315.2325)
 -->
<!-- Title: radvel_mod Pages: 1 -->
<svg width="379pt" height="241pt"
 viewBox="0.00 0.00 379.00 241.00" xmlns="http://www.w3.org/2000/svg" xmlns:xlink="http://www.w3.org/1999/xlink">
<g id="graph0" class="graph" transform="scale(1 1) rotate(0) translate(4 237)">
<title>radvel_mod</title>
<polygon fill="white" stroke="transparent" points="-4,4 -4,-237 375,-237 375,4 -4,4"/>
<text text-anchor="middle" x="185.5" y="-37.8" font-family="Times,serif" font-size="14.00">Red boxes indicate modules with dependencies not shown</text>
<text text-anchor="middle" x="185.5" y="-22.8" font-family="Times,serif" font-size="14.00">Lower level dependencies can be shown by clicking on a red box</text>
<text text-anchor="middle" x="185.5" y="-7.8" font-family="Times,serif" font-size="14.00">Shaded boxes indicate modules with no dependencies</text>
<!-- radvel_mod -->
<g id="node1" class="node">
<title>radvel_mod</title>
<g id="a_node1"><a xlink:href="radvel_mod.html" xlink:title="radvel_mod">
<polygon fill="none" stroke="black" points="224.25,-233 144.25,-233 144.25,-197 224.25,-197 224.25,-233"/>
<text text-anchor="middle" x="184.25" y="-211.3" font-family="Times,serif" font-size="14.00">radvel_mod</text>
</a>
</g>
</g>
<!-- codeprecision_mod -->
<g id="node2" class="node">
<title>codeprecision_mod</title>
<g id="a_node2"><a xlink:href="codeprecision_mod.html" xlink:title="codeprecision_mod">
<polygon fill="gray" stroke="black" points="201.25,-161 79.25,-161 79.25,-125 201.25,-125 201.25,-161"/>
<text text-anchor="middle" x="140.25" y="-139.3" font-family="Times,serif" font-size="14.00">codeprecision_mod</text>
</a>
</g>
</g>
<!-- radvel_mod&#45;&gt;codeprecision_mod -->
<g id="edge1" class="edge">
<title>radvel_mod&#45;&gt;codeprecision_mod</title>
<path fill="none" stroke="black" d="M173.37,-196.7C168.26,-188.56 162.05,-178.69 156.41,-169.7"/>
<polygon fill="black" stroke="black" points="159.29,-167.71 151,-161.1 153.36,-171.43 159.29,-167.71"/>
</g>
<!-- earthconstants_mod -->
<g id="node3" class="node">
<title>earthconstants_mod</title>
<g id="a_node3"><a xlink:href="../modules/earthconstants_mod.svg" xlink:title="earthconstants_mod">
<polygon fill="none" stroke="red" points="291.75,-89 166.75,-89 166.75,-53 291.75,-53 291.75,-89"/>
<text text-anchor="middle" x="229.25" y="-67.3" font-family="Times,serif" font-size="14.00">earthconstants_mod</text>
</a>
</g>
</g>
<!-- radvel_mod&#45;&gt;earthconstants_mod -->
<g id="edge2" class="edge">
<title>radvel_mod&#45;&gt;earthconstants_mod</title>
<path fill="none" stroke="black" d="M194.03,-196.8C199.46,-186.65 205.96,-173.4 210.25,-161 217.26,-140.75 222.17,-116.98 225.25,-99.1"/>
<polygon fill="black" stroke="black" points="228.73,-99.5 226.88,-89.07 221.82,-98.37 228.73,-99.5"/>
</g>
</g>
</svg>
