<?xml version="1.0" encoding="UTF-8" standalone="no"?>
<!DOCTYPE svg PUBLIC "-//W3C//DTD SVG 1.1//EN"
 "http://www.w3.org/Graphics/SVG/1.1/DTD/svg11.dtd">
<!-- Generated by graphviz version 3.0.0 (20220315.2325)
 -->
<!-- Title: radvel_mod Pages: 1 -->
<svg width="430pt" height="313pt"
 viewBox="0.00 0.00 430.00 313.00" xmlns="http://www.w3.org/2000/svg" xmlns:xlink="http://www.w3.org/1999/xlink">
<g id="graph0" class="graph" transform="scale(1 1) rotate(0) translate(4 309)">
<title>radvel_mod</title>
<polygon fill="white" stroke="transparent" points="-4,4 -4,-309 426,-309 426,4 -4,4"/>
<text text-anchor="middle" x="211" y="-289.8" font-family="Times,serif" font-size="14.00">Blue boxes indicate modules with reverse dependencies not shown</text>
<text text-anchor="middle" x="211" y="-274.8" font-family="Times,serif" font-size="14.00">Higher level reverse dependencies can be shown by clicking on a blue box</text>
<text text-anchor="middle" x="211" y="-259.8" font-family="Times,serif" font-size="14.00">Green boxes are programs</text>
<!-- radvel_mod -->
<g id="node1" class="node">
<title>radvel_mod</title>
<g id="a_node1"><a xlink:href="radvel_mod.html" xlink:title="radvel_mod">
<polygon fill="none" stroke="black" points="237.5,-36 157.5,-36 157.5,0 237.5,0 237.5,-36"/>
<text text-anchor="middle" x="197.5" y="-14.3" font-family="Times,serif" font-size="14.00">radvel_mod</text>
</a>
</g>
</g>
<!-- obsfilter_mod -->
<g id="node2" class="node">
<title>obsfilter_mod</title>
<g id="a_node2"><a xlink:href="../modules/obsfilter_mod_rev.svg" xlink:title="obsfilter_mod">
<polygon fill="none" stroke="blue" points="169.5,-108 77.5,-108 77.5,-72 169.5,-72 169.5,-108"/>
<text text-anchor="middle" x="123.5" y="-86.3" font-family="Times,serif" font-size="14.00">obsfilter_mod</text>
</a>
</g>
</g>
<!-- obsfilter_mod&#45;&gt;radvel_mod -->
<g id="edge1" class="edge">
<title>obsfilter_mod&#45;&gt;radvel_mod</title>
<path fill="none" stroke="black" d="M147.67,-66.13C158.01,-56.36 169.86,-45.14 179.42,-36.1"/>
<ellipse fill="black" stroke="black" cx="144.7" cy="-68.95" rx="4" ry="4"/>
</g>
<!-- slantprofilelatlon_mod -->
<g id="node3" class="node">
<title>slantprofilelatlon_mod</title>
<g id="a_node3"><a xlink:href="../modules/slantprofilelatlon_mod_rev.svg" xlink:title="slantprofilelatlon_mod">
<polygon fill="none" stroke="blue" points="266.5,-180 128.5,-180 128.5,-144 266.5,-144 266.5,-180"/>
<text text-anchor="middle" x="197.5" y="-158.3" font-family="Times,serif" font-size="14.00">slantprofilelatlon_mod</text>
</a>
</g>
</g>
<!-- slantprofilelatlon_mod&#45;&gt;radvel_mod -->
<g id="edge2" class="edge">
<title>slantprofilelatlon_mod&#45;&gt;radvel_mod</title>
<path fill="none" stroke="black" d="M197.5,-135.56C197.5,-106.86 197.5,-60.96 197.5,-36.19"/>
<ellipse fill="black" stroke="black" cx="197.5" cy="-139.87" rx="4" ry="4"/>
</g>
<!-- sqliteread_mod -->
<g id="node4" class="node">
<title>sqliteread_mod</title>
<g id="a_node4"><a xlink:href="../modules/sqliteread_mod_rev.svg" xlink:title="sqliteread_mod">
<polygon fill="none" stroke="blue" points="344.5,-252 244.5,-252 244.5,-216 344.5,-216 344.5,-252"/>
<text text-anchor="middle" x="294.5" y="-230.3" font-family="Times,serif" font-size="14.00">sqliteread_mod</text>
</a>
</g>
</g>
<!-- sqliteread_mod&#45;&gt;radvel_mod -->
<g id="edge3" class="edge">
<title>sqliteread_mod&#45;&gt;radvel_mod</title>
<path fill="none" stroke="black" d="M291.44,-207.4C288.7,-189.23 283.79,-164.52 275.5,-144 258.73,-102.5 228.44,-59.32 210.95,-36.16"/>
<ellipse fill="black" stroke="black" cx="292.06" cy="-211.79" rx="4" ry="4"/>
</g>
</g>
</svg>
