<?xml version="1.0" encoding="UTF-8" standalone="no"?>
<!DOCTYPE svg PUBLIC "-//W3C//DTD SVG 1.1//EN"
 "http://www.w3.org/Graphics/SVG/1.1/DTD/svg11.dtd">
<!-- Generated by graphviz version 3.0.0 (20220315.2325)
 -->
<!-- Title: ramdisk_mod Pages: 1 -->
<svg width="379pt" height="241pt"
 viewBox="0.00 0.00 379.00 241.00" xmlns="http://www.w3.org/2000/svg" xmlns:xlink="http://www.w3.org/1999/xlink">
<g id="graph0" class="graph" transform="scale(1 1) rotate(0) translate(4 237)">
<title>ramdisk_mod</title>
<polygon fill="white" stroke="transparent" points="-4,4 -4,-237 375,-237 375,4 -4,4"/>
<text text-anchor="middle" x="185.5" y="-37.8" font-family="Times,serif" font-size="14.00">Red boxes indicate modules with dependencies not shown</text>
<text text-anchor="middle" x="185.5" y="-22.8" font-family="Times,serif" font-size="14.00">Lower level dependencies can be shown by clicking on a red box</text>
<text text-anchor="middle" x="185.5" y="-7.8" font-family="Times,serif" font-size="14.00">Shaded boxes indicate modules with no dependencies</text>
<!-- ramdisk_mod -->
<g id="node1" class="node">
<title>ramdisk_mod</title>
<g id="a_node1"><a xlink:href="ramdisk_mod.html" xlink:title="ramdisk_mod">
<polygon fill="none" stroke="black" points="240.75,-233 149.75,-233 149.75,-197 240.75,-197 240.75,-233"/>
<text text-anchor="middle" x="195.25" y="-211.3" font-family="Times,serif" font-size="14.00">ramdisk_mod</text>
</a>
</g>
</g>
<!-- clib_interfaces_mod -->
<g id="node2" class="node">
<title>clib_interfaces_mod</title>
<g id="a_node2"><a xlink:href="clib_interfaces_mod.html" xlink:title="clib_interfaces_mod">
<polygon fill="gray" stroke="black" points="212.75,-161 85.75,-161 85.75,-125 212.75,-125 212.75,-161"/>
<text text-anchor="middle" x="149.25" y="-139.3" font-family="Times,serif" font-size="14.00">clib_interfaces_mod</text>
</a>
</g>
</g>
<!-- ramdisk_mod&#45;&gt;clib_interfaces_mod -->
<g id="edge1" class="edge">
<title>ramdisk_mod&#45;&gt;clib_interfaces_mod</title>
<path fill="none" stroke="black" d="M183.88,-196.7C178.53,-188.56 172.05,-178.69 166.14,-169.7"/>
<polygon fill="black" stroke="black" points="168.91,-167.54 160.49,-161.1 163.06,-171.38 168.91,-167.54"/>
</g>
<!-- utilities_mod -->
<g id="node3" class="node">
<title>utilities_mod</title>
<g id="a_node3"><a xlink:href="../modules/utilities_mod.svg" xlink:title="utilities_mod">
<polygon fill="none" stroke="red" points="285.25,-89 197.25,-89 197.25,-53 285.25,-53 285.25,-89"/>
<text text-anchor="middle" x="241.25" y="-67.3" font-family="Times,serif" font-size="14.00">utilities_mod</text>
</a>
</g>
</g>
<!-- ramdisk_mod&#45;&gt;utilities_mod -->
<g id="edge2" class="edge">
<title>ramdisk_mod&#45;&gt;utilities_mod</title>
<path fill="none" stroke="black" d="M205.44,-196.84C211.08,-186.71 217.83,-173.46 222.25,-161 229.41,-140.8 234.32,-117.03 237.35,-99.13"/>
<polygon fill="black" stroke="black" points="240.83,-99.52 238.96,-89.09 233.92,-98.41 240.83,-99.52"/>
</g>
</g>
</svg>
