<?xml version="1.0" encoding="UTF-8" standalone="no"?>
<!DOCTYPE svg PUBLIC "-//W3C//DTD SVG 1.1//EN"
 "http://www.w3.org/Graphics/SVG/1.1/DTD/svg11.dtd">
<!-- Generated by graphviz version 3.0.0 (20220315.2325)
 -->
<!-- Title: ramdisk_mod Pages: 1 -->
<svg width="1739pt" height="673pt"
 viewBox="0.00 0.00 1739.00 673.00" xmlns="http://www.w3.org/2000/svg" xmlns:xlink="http://www.w3.org/1999/xlink">
<g id="graph0" class="graph" transform="scale(1 1) rotate(0) translate(4 669)">
<title>ramdisk_mod</title>
<polygon fill="white" stroke="transparent" points="-4,4 -4,-669 1735,-669 1735,4 -4,4"/>
<text text-anchor="middle" x="865.5" y="-649.8" font-family="Times,serif" font-size="14.00">Blue boxes indicate modules with reverse dependencies not shown</text>
<text text-anchor="middle" x="865.5" y="-634.8" font-family="Times,serif" font-size="14.00">Higher level reverse dependencies can be shown by clicking on a blue box</text>
<text text-anchor="middle" x="865.5" y="-619.8" font-family="Times,serif" font-size="14.00">Green boxes are programs</text>
<!-- ramdisk_mod -->
<g id="node1" class="node">
<title>ramdisk_mod</title>
<g id="a_node1"><a xlink:href="ramdisk_mod.html" xlink:title="ramdisk_mod">
<polygon fill="none" stroke="black" points="791,-36 700,-36 700,0 791,0 791,-36"/>
<text text-anchor="middle" x="745.5" y="-14.3" font-family="Times,serif" font-size="14.00">ramdisk_mod</text>
</a>
</g>
</g>
<!-- advection_mod -->
<g id="node2" class="node">
<title>advection_mod</title>
<g id="a_node2"><a xlink:href="../modules/advection_mod_rev.svg" xlink:title="advection_mod">
<polygon fill="none" stroke="blue" points="99,-108 0,-108 0,-72 99,-72 99,-108"/>
<text text-anchor="middle" x="49.5" y="-86.3" font-family="Times,serif" font-size="14.00">advection_mod</text>
</a>
</g>
</g>
<!-- advection_mod&#45;&gt;ramdisk_mod -->
<g id="edge1" class="edge">
<title>advection_mod&#45;&gt;ramdisk_mod</title>
<path fill="none" stroke="black" d="M107.33,-73.15C109.41,-72.74 111.47,-72.35 113.5,-72 331.02,-34.29 595.49,-23.14 699.94,-20.08"/>
<ellipse fill="black" stroke="black" cx="103.19" cy="-74.04" rx="4" ry="4"/>
</g>
<!-- biascorrectionsat_mod -->
<g id="node3" class="node">
<title>biascorrectionsat_mod</title>
<g id="a_node3"><a xlink:href="../modules/biascorrectionsat_mod_rev.svg" xlink:title="biascorrectionsat_mod">
<polygon fill="none" stroke="blue" points="167,-180 28,-180 28,-144 167,-144 167,-180"/>
<text text-anchor="middle" x="97.5" y="-158.3" font-family="Times,serif" font-size="14.00">biascorrectionsat_mod</text>
</a>
</g>
</g>
<!-- biascorrectionsat_mod&#45;&gt;ramdisk_mod -->
<g id="edge2" class="edge">
<title>biascorrectionsat_mod&#45;&gt;ramdisk_mod</title>
<path fill="none" stroke="black" d="M112.72,-136.92C127.5,-115.84 151.99,-86.4 181.5,-72 272.54,-27.57 582.26,-20.33 699.78,-19.19"/>
<ellipse fill="black" stroke="black" cx="110.34" cy="-140.41" rx="4" ry="4"/>
</g>
<!-- ensemblestatevector_mod -->
<g id="node4" class="node">
<title>ensemblestatevector_mod</title>
<g id="a_node4"><a xlink:href="../modules/ensemblestatevector_mod_rev.svg" xlink:title="ensemblestatevector_mod">
<polygon fill="none" stroke="blue" points="205.5,-252 49.5,-252 49.5,-216 205.5,-216 205.5,-252"/>
<text text-anchor="middle" x="127.5" y="-230.3" font-family="Times,serif" font-size="14.00">ensemblestatevector_mod</text>
</a>
</g>
</g>
<!-- ensemblestatevector_mod&#45;&gt;ramdisk_mod -->
<g id="edge3" class="edge">
<title>ensemblestatevector_mod&#45;&gt;ramdisk_mod</title>
<path fill="none" stroke="black" d="M151.7,-209.85C159.99,-201.05 168.84,-190.59 175.5,-180 203.09,-136.12 177.99,-103.04 219.5,-72 257.58,-43.52 578.75,-26.42 699.68,-20.94"/>
<ellipse fill="black" stroke="black" cx="148.87" cy="-212.78" rx="4" ry="4"/>
</g>
<!-- filenames_mod -->
<g id="node5" class="node">
<title>filenames_mod</title>
<g id="a_node5"><a xlink:href="../modules/filenames_mod_rev.svg" xlink:title="filenames_mod">
<polygon fill="none" stroke="blue" points="243,-324 144,-324 144,-288 243,-288 243,-324"/>
<text text-anchor="middle" x="193.5" y="-302.3" font-family="Times,serif" font-size="14.00">filenames_mod</text>
</a>
</g>
</g>
<!-- filenames_mod&#45;&gt;ramdisk_mod -->
<g id="edge4" class="edge">
<title>filenames_mod&#45;&gt;ramdisk_mod</title>
<path fill="none" stroke="black" d="M204.29,-279.92C207.82,-271.18 211.58,-261.25 214.5,-252 239.27,-173.57 195.78,-126.37 257.5,-72 290.35,-43.06 584.92,-26.43 699.86,-20.99"/>
<ellipse fill="black" stroke="black" cx="202.66" cy="-283.86" rx="4" ry="4"/>
</g>
<!-- gridstatevectorfileio_mod -->
<g id="node6" class="node">
<title>gridstatevectorfileio_mod</title>
<g id="a_node6"><a xlink:href="../modules/gridstatevectorfileio_mod_rev.svg" xlink:title="gridstatevectorfileio_mod">
<polygon fill="none" stroke="blue" points="281,-396 126,-396 126,-360 281,-360 281,-396"/>
<text text-anchor="middle" x="203.5" y="-374.3" font-family="Times,serif" font-size="14.00">gridstatevectorfileio_mod</text>
</a>
</g>
</g>
<!-- gridstatevectorfileio_mod&#45;&gt;ramdisk_mod -->
<g id="edge5" class="edge">
<title>gridstatevectorfileio_mod&#45;&gt;ramdisk_mod</title>
<path fill="none" stroke="black" d="M229.1,-353.99C237.36,-345.33 245.83,-334.92 251.5,-324 270.17,-288.01 271.5,-275.54 271.5,-235 271.5,-235 271.5,-235 271.5,-161 271.5,-120.03 264.49,-98.78 295.5,-72 325.75,-45.87 591.62,-27.83 699.91,-21.5"/>
<ellipse fill="black" stroke="black" cx="226.27" cy="-356.85" rx="4" ry="4"/>
</g>
<!-- obsdiagfiles_mod -->
<g id="node7" class="node">
<title>obsdiagfiles_mod</title>
<g id="a_node7"><a xlink:href="../modules/obsdiagfiles_mod_rev.svg" xlink:title="obsdiagfiles_mod">
<polygon fill="none" stroke="blue" points="319.5,-468 207.5,-468 207.5,-432 319.5,-432 319.5,-468"/>
<text text-anchor="middle" x="263.5" y="-446.3" font-family="Times,serif" font-size="14.00">obsdiagfiles_mod</text>
</a>
</g>
</g>
<!-- obsdiagfiles_mod&#45;&gt;ramdisk_mod -->
<g id="edge6" class="edge">
<title>obsdiagfiles_mod&#45;&gt;ramdisk_mod</title>
<path fill="none" stroke="black" d="M277.04,-424.45C281.48,-415.67 286.13,-405.57 289.5,-396 302.97,-357.76 309.5,-347.54 309.5,-307 309.5,-307 309.5,-307 309.5,-161 309.5,-120.03 302.64,-98.94 333.5,-72 387.29,-25.05 604.33,-19.02 699.92,-18.7"/>
<ellipse fill="black" stroke="black" cx="275.08" cy="-428.23" rx="4" ry="4"/>
</g>
<!-- obsfiles_mod -->
<g id="node8" class="node">
<title>obsfiles_mod</title>
<g id="a_node8"><a xlink:href="../modules/obsfiles_mod_rev.svg" xlink:title="obsfiles_mod">
<polygon fill="none" stroke="blue" points="357,-540 268,-540 268,-504 357,-504 357,-540"/>
<text text-anchor="middle" x="312.5" y="-518.3" font-family="Times,serif" font-size="14.00">obsfiles_mod</text>
</a>
</g>
</g>
<!-- obsfiles_mod&#45;&gt;ramdisk_mod -->
<g id="edge7" class="edge">
<title>obsfiles_mod&#45;&gt;ramdisk_mod</title>
<path fill="none" stroke="black" d="M322.5,-496.14C332.85,-468.14 347.5,-421.06 347.5,-379 347.5,-379 347.5,-379 347.5,-161 347.5,-120.03 340.81,-99.14 371.5,-72 419.34,-29.7 610.83,-21.08 699.73,-19.39"/>
<ellipse fill="black" stroke="black" cx="321" cy="-500.11" rx="4" ry="4"/>
</g>
<!-- ominusf_mod -->
<g id="node9" class="node">
<title>ominusf_mod</title>
<g id="a_node9"><a xlink:href="../modules/ominusf_mod_rev.svg" xlink:title="ominusf_mod">
<polygon fill="none" stroke="blue" points="432,-612 339,-612 339,-576 432,-576 432,-612"/>
<text text-anchor="middle" x="385.5" y="-590.3" font-family="Times,serif" font-size="14.00">ominusf_mod</text>
</a>
</g>
</g>
<!-- ominusf_mod&#45;&gt;ramdisk_mod -->
<g id="edge8" class="edge">
<title>ominusf_mod&#45;&gt;ramdisk_mod</title>
<path fill="none" stroke="black" d="M385.5,-567.78C385.5,-539.39 385.5,-491.89 385.5,-451 385.5,-451 385.5,-451 385.5,-161 385.5,-119.79 380.57,-99.23 411.5,-72 453.58,-34.95 618.79,-23.68 699.98,-20.35"/>
<ellipse fill="black" stroke="black" cx="385.5" cy="-571.95" rx="4" ry="4"/>
</g>
<!-- sqliteread_mod -->
<g id="node10" class="node">
<title>sqliteread_mod</title>
<g id="a_node10"><a xlink:href="../modules/sqliteread_mod_rev.svg" xlink:title="sqliteread_mod">
<polygon fill="none" stroke="blue" points="520.5,-108 420.5,-108 420.5,-72 520.5,-72 520.5,-108"/>
<text text-anchor="middle" x="470.5" y="-86.3" font-family="Times,serif" font-size="14.00">sqliteread_mod</text>
</a>
</g>
</g>
<!-- sqliteread_mod&#45;&gt;ramdisk_mod -->
<g id="edge9" class="edge">
<title>sqliteread_mod&#45;&gt;ramdisk_mod</title>
<path fill="none" stroke="black" d="M528.57,-73.54C530.57,-73.02 532.55,-72.5 534.5,-72 591.36,-57.31 657,-40.91 699.77,-30.3"/>
<ellipse fill="black" stroke="black" cx="524.66" cy="-74.56" rx="4" ry="4"/>
</g>
<!-- midas_midas_adjointtest -->
<g id="node11" class="node">
<title>midas_midas_adjointtest</title>
<g id="a_node11"><a xlink:href="../programs/midas_adjointtest.html" xlink:title="midas_midas_adjointtest">
<polygon fill="gray" stroke="green" points="565.5,-180 413.5,-180 413.5,-144 565.5,-144 565.5,-180"/>
<text text-anchor="middle" x="489.5" y="-158.3" font-family="Times,serif" font-size="14.00">midas_midas_adjointtest</text>
</a>
</g>
</g>
<!-- midas_midas_adjointtest&#45;&gt;ramdisk_mod -->
<g id="edge10" class="edge">
<title>midas_midas_adjointtest&#45;&gt;ramdisk_mod</title>
<path fill="none" stroke="black" d="M507.9,-137.37C524.61,-117.37 550.96,-89.28 579.5,-72 616.89,-49.36 664.96,-35.39 699.74,-27.52"/>
<ellipse fill="black" stroke="black" cx="505.15" cy="-140.72" rx="4" ry="4"/>
</g>
<!-- midas_midas_analysiserroroi -->
<g id="node12" class="node">
<title>midas_midas_analysiserroroi</title>
<g id="a_node12"><a xlink:href="../programs/midas_analysiserroroi.html" xlink:title="midas_midas_analysiserroroi">
<polygon fill="gray" stroke="green" points="603.5,-252 427.5,-252 427.5,-216 603.5,-216 603.5,-252"/>
<text text-anchor="middle" x="515.5" y="-230.3" font-family="Times,serif" font-size="14.00">midas_midas_analysiserroroi</text>
</a>
</g>
</g>
<!-- midas_midas_analysiserroroi&#45;&gt;ramdisk_mod -->
<g id="edge11" class="edge">
<title>midas_midas_analysiserroroi&#45;&gt;ramdisk_mod</title>
<path fill="none" stroke="black" d="M545.44,-210.79C555.68,-202.07 566.54,-191.41 574.5,-180 604.05,-137.62 581.22,-108.78 617.5,-72 639.71,-49.48 672.88,-36.11 699.88,-28.44"/>
<ellipse fill="black" stroke="black" cx="542.26" cy="-213.42" rx="4" ry="4"/>
</g>
<!-- midas_midas_calcstats -->
<g id="node13" class="node">
<title>midas_midas_calcstats</title>
<g id="a_node13"><a xlink:href="../programs/midas_calcstats.html" xlink:title="midas_midas_calcstats">
<polygon fill="gray" stroke="green" points="641.5,-324 499.5,-324 499.5,-288 641.5,-288 641.5,-324"/>
<text text-anchor="middle" x="570.5" y="-302.3" font-family="Times,serif" font-size="14.00">midas_midas_calcstats</text>
</a>
</g>
</g>
<!-- midas_midas_calcstats&#45;&gt;ramdisk_mod -->
<g id="edge12" class="edge">
<title>midas_midas_calcstats&#45;&gt;ramdisk_mod</title>
<path fill="none" stroke="black" d="M592.82,-281.39C600.02,-272.71 607.43,-262.43 612.5,-252 648.45,-178.02 606.61,-138.14 655.5,-72 667.03,-56.4 684.65,-44.58 701.25,-36.11"/>
<ellipse fill="black" stroke="black" cx="590.01" cy="-284.67" rx="4" ry="4"/>
</g>
<!-- midas_midas_diagbmatrix -->
<g id="node14" class="node">
<title>midas_midas_diagbmatrix</title>
<g id="a_node14"><a xlink:href="../programs/midas_diagbmatrix.html" xlink:title="midas_midas_diagbmatrix">
<polygon fill="gray" stroke="green" points="679,-396 518,-396 518,-360 679,-360 679,-396"/>
<text text-anchor="middle" x="598.5" y="-374.3" font-family="Times,serif" font-size="14.00">midas_midas_diagbmatrix</text>
</a>
</g>
</g>
<!-- midas_midas_diagbmatrix&#45;&gt;ramdisk_mod -->
<g id="edge13" class="edge">
<title>midas_midas_diagbmatrix&#45;&gt;ramdisk_mod</title>
<path fill="none" stroke="black" d="M626.56,-354.15C635.44,-345.57 644.5,-335.16 650.5,-324 669.65,-288.37 669.5,-275.45 669.5,-235 669.5,-235 669.5,-235 669.5,-161 669.5,-120.03 673.16,-107.56 693.5,-72 701.31,-58.35 713.49,-45.67 724.09,-36.14"/>
<ellipse fill="black" stroke="black" cx="623.4" cy="-357.07" rx="4" ry="4"/>
</g>
<!-- midas_midas_diaghbht -->
<g id="node15" class="node">
<title>midas_midas_diaghbht</title>
<g id="a_node15"><a xlink:href="../programs/midas_diaghbht.html" xlink:title="midas_midas_diaghbht">
<polygon fill="gray" stroke="green" points="717,-468 574,-468 574,-432 717,-432 717,-468"/>
<text text-anchor="middle" x="645.5" y="-446.3" font-family="Times,serif" font-size="14.00">midas_midas_diaghbht</text>
</a>
</g>
</g>
<!-- midas_midas_diaghbht&#45;&gt;ramdisk_mod -->
<g id="edge14" class="edge">
<title>midas_midas_diaghbht&#45;&gt;ramdisk_mod</title>
<path fill="none" stroke="black" d="M667.9,-425.43C675.1,-416.75 682.5,-406.47 687.5,-396 704.97,-359.42 707.5,-347.54 707.5,-307 707.5,-307 707.5,-307 707.5,-161 707.5,-114.55 726.71,-62.38 737.81,-36.09"/>
<ellipse fill="black" stroke="black" cx="665.09" cy="-428.7" rx="4" ry="4"/>
</g>
<!-- midas_midas_ensembleh -->
<g id="node16" class="node">
<title>midas_midas_ensembleh</title>
<g id="a_node16"><a xlink:href="../programs/midas_ensembleh.html" xlink:title="midas_midas_ensembleh">
<polygon fill="gray" stroke="green" points="755.5,-540 601.5,-540 601.5,-504 755.5,-504 755.5,-540"/>
<text text-anchor="middle" x="678.5" y="-518.3" font-family="Times,serif" font-size="14.00">midas_midas_ensembleh</text>
</a>
</g>
</g>
<!-- midas_midas_ensembleh&#45;&gt;ramdisk_mod -->
<g id="edge15" class="edge">
<title>midas_midas_ensembleh&#45;&gt;ramdisk_mod</title>
<path fill="none" stroke="black" d="M703.79,-497.66C711.8,-489.04 720,-478.75 725.5,-468 743.98,-431.91 745.5,-419.54 745.5,-379 745.5,-379 745.5,-379 745.5,-161 745.5,-115.89 745.5,-62.71 745.5,-36.05"/>
<ellipse fill="black" stroke="black" cx="700.81" cy="-500.74" rx="4" ry="4"/>
</g>
<!-- midas_midas_enspostprocess -->
<g id="node17" class="node">
<title>midas_midas_enspostprocess</title>
<g id="a_node17"><a xlink:href="../programs/midas_enspostprocess.html" xlink:title="midas_midas_enspostprocess">
<polygon fill="gray" stroke="green" points="871.5,-612 695.5,-612 695.5,-576 871.5,-576 871.5,-612"/>
<text text-anchor="middle" x="783.5" y="-590.3" font-family="Times,serif" font-size="14.00">midas_midas_enspostprocess</text>
</a>
</g>
</g>
<!-- midas_midas_enspostprocess&#45;&gt;ramdisk_mod -->
<g id="edge16" class="edge">
<title>midas_midas_enspostprocess&#45;&gt;ramdisk_mod</title>
<path fill="none" stroke="black" d="M783.5,-567.78C783.5,-539.39 783.5,-491.89 783.5,-451 783.5,-451 783.5,-451 783.5,-161 783.5,-114.55 764.29,-62.38 753.19,-36.09"/>
<ellipse fill="black" stroke="black" cx="783.5" cy="-571.95" rx="4" ry="4"/>
</g>
<!-- midas_midas_extractbmatrixfor1dvar -->
<g id="node18" class="node">
<title>midas_midas_extractbmatrixfor1dvar</title>
<g id="a_node18"><a xlink:href="../programs/midas_extractbmatrixfor1dvar.html" xlink:title="midas_midas_extractbmatrixfor1dvar">
<polygon fill="gray" stroke="green" points="1033,-108 812,-108 812,-72 1033,-72 1033,-108"/>
<text text-anchor="middle" x="922.5" y="-86.3" font-family="Times,serif" font-size="14.00">midas_midas_extractbmatrixfor1dvar</text>
</a>
</g>
</g>
<!-- midas_midas_extractbmatrixfor1dvar&#45;&gt;ramdisk_mod -->
<g id="edge17" class="edge">
<title>midas_midas_extractbmatrixfor1dvar&#45;&gt;ramdisk_mod</title>
<path fill="none" stroke="black" d="M871.6,-68.87C845.35,-58.49 813.69,-45.97 788.66,-36.07"/>
<ellipse fill="black" stroke="black" cx="875.48" cy="-70.4" rx="4" ry="4"/>
</g>
<!-- midas_midas_gencoeff -->
<g id="node19" class="node">
<title>midas_midas_gencoeff</title>
<g id="a_node19"><a xlink:href="../programs/midas_gencoeff.html" xlink:title="midas_midas_gencoeff">
<polygon fill="gray" stroke="green" points="1071,-180 928,-180 928,-144 1071,-144 1071,-180"/>
<text text-anchor="middle" x="999.5" y="-158.3" font-family="Times,serif" font-size="14.00">midas_midas_gencoeff</text>
</a>
</g>
</g>
<!-- midas_midas_gencoeff&#45;&gt;ramdisk_mod -->
<g id="edge18" class="edge">
<title>midas_midas_gencoeff&#45;&gt;ramdisk_mod</title>
<path fill="none" stroke="black" d="M1023.67,-137.89C1040.75,-118.76 1057.92,-91.63 1041.5,-72 1010.13,-34.52 866.29,-23.51 791.29,-20.3"/>
<ellipse fill="black" stroke="black" cx="1020.9" cy="-140.87" rx="4" ry="4"/>
</g>
<!-- midas_midas_letkf -->
<g id="node20" class="node">
<title>midas_midas_letkf</title>
<g id="a_node20"><a xlink:href="../programs/midas_letkf.html" xlink:title="midas_midas_letkf">
<polygon fill="gray" stroke="green" points="1109.5,-252 987.5,-252 987.5,-216 1109.5,-216 1109.5,-252"/>
<text text-anchor="middle" x="1048.5" y="-230.3" font-family="Times,serif" font-size="14.00">midas_midas_letkf</text>
</a>
</g>
</g>
<!-- midas_midas_letkf&#45;&gt;ramdisk_mod -->
<g id="edge19" class="edge">
<title>midas_midas_letkf&#45;&gt;ramdisk_mod</title>
<path fill="none" stroke="black" d="M1066.16,-208.99C1071.54,-200.3 1076.76,-190.13 1079.5,-180 1092.27,-132.88 1095.76,-104.68 1059.5,-72 1020.74,-37.07 868.44,-24.84 791.1,-20.82"/>
<ellipse fill="black" stroke="black" cx="1063.83" cy="-212.56" rx="4" ry="4"/>
</g>
<!-- midas_midas_obsimpact -->
<g id="node21" class="node">
<title>midas_midas_obsimpact</title>
<g id="a_node21"><a xlink:href="../programs/midas_obsimpact.html" xlink:title="midas_midas_obsimpact">
<polygon fill="gray" stroke="green" points="1147.5,-324 995.5,-324 995.5,-288 1147.5,-288 1147.5,-324"/>
<text text-anchor="middle" x="1071.5" y="-302.3" font-family="Times,serif" font-size="14.00">midas_midas_obsimpact</text>
</a>
</g>
</g>
<!-- midas_midas_obsimpact&#45;&gt;ramdisk_mod -->
<g id="edge20" class="edge">
<title>midas_midas_obsimpact&#45;&gt;ramdisk_mod</title>
<path fill="none" stroke="black" d="M1098.81,-281.61C1106.71,-273.17 1114.33,-262.99 1118.5,-252 1139.06,-197.83 1124.61,-107.73 1086.5,-72 1044.6,-32.71 874.15,-22.55 791.24,-19.92"/>
<ellipse fill="black" stroke="black" cx="1095.58" cy="-284.86" rx="4" ry="4"/>
</g>
<!-- midas_midas_obsselection -->
<g id="node22" class="node">
<title>midas_midas_obsselection</title>
<g id="a_node22"><a xlink:href="../programs/midas_obsselection.html" xlink:title="midas_midas_obsselection">
<polygon fill="gray" stroke="green" points="1185,-396 1022,-396 1022,-360 1185,-360 1185,-396"/>
<text text-anchor="middle" x="1103.5" y="-374.3" font-family="Times,serif" font-size="14.00">midas_midas_obsselection</text>
</a>
</g>
</g>
<!-- midas_midas_obsselection&#45;&gt;ramdisk_mod -->
<g id="edge21" class="edge">
<title>midas_midas_obsselection&#45;&gt;ramdisk_mod</title>
<path fill="none" stroke="black" d="M1131.84,-354.49C1140.98,-345.86 1150.33,-335.35 1156.5,-324 1175.82,-288.46 1175.5,-275.45 1175.5,-235 1175.5,-235 1175.5,-235 1175.5,-161 1175.5,-112.54 1153.84,-97.29 1112.5,-72 1059.44,-39.53 877.35,-25.88 791.28,-21.14"/>
<ellipse fill="black" stroke="black" cx="1128.86" cy="-357.18" rx="4" ry="4"/>
</g>
<!-- midas_midas_prepcma -->
<g id="node23" class="node">
<title>midas_midas_prepcma</title>
<g id="a_node23"><a xlink:href="../programs/midas_prepcma.html" xlink:title="midas_midas_prepcma">
<polygon fill="gray" stroke="green" points="1223,-468 1080,-468 1080,-432 1223,-432 1223,-468"/>
<text text-anchor="middle" x="1151.5" y="-446.3" font-family="Times,serif" font-size="14.00">midas_midas_prepcma</text>
</a>
</g>
</g>
<!-- midas_midas_prepcma&#45;&gt;ramdisk_mod -->
<g id="edge22" class="edge">
<title>midas_midas_prepcma&#45;&gt;ramdisk_mod</title>
<path fill="none" stroke="black" d="M1173.9,-425.43C1181.1,-416.75 1188.5,-406.47 1193.5,-396 1210.97,-359.42 1213.5,-347.54 1213.5,-307 1213.5,-307 1213.5,-307 1213.5,-161 1213.5,-112.54 1192.01,-97.02 1150.5,-72 1090.83,-36.03 884.15,-24.05 791.29,-20.43"/>
<ellipse fill="black" stroke="black" cx="1171.09" cy="-428.7" rx="4" ry="4"/>
</g>
<!-- midas_midas_pseudosstobs -->
<g id="node24" class="node">
<title>midas_midas_pseudosstobs</title>
<g id="a_node24"><a xlink:href="../programs/midas_pseudosstobs.html" xlink:title="midas_midas_pseudosstobs">
<polygon fill="gray" stroke="green" points="1262,-540 1095,-540 1095,-504 1262,-504 1262,-540"/>
<text text-anchor="middle" x="1178.5" y="-518.3" font-family="Times,serif" font-size="14.00">midas_midas_pseudosstobs</text>
</a>
</g>
</g>
<!-- midas_midas_pseudosstobs&#45;&gt;ramdisk_mod -->
<g id="edge23" class="edge">
<title>midas_midas_pseudosstobs&#45;&gt;ramdisk_mod</title>
<path fill="none" stroke="black" d="M1206.77,-498.45C1215.9,-489.82 1225.27,-479.31 1231.5,-468 1251.05,-432.48 1251.5,-419.54 1251.5,-379 1251.5,-379 1251.5,-379 1251.5,-161 1251.5,-112.54 1230.14,-96.79 1188.5,-72 1122.11,-32.48 890.16,-22.37 791.01,-19.83"/>
<ellipse fill="black" stroke="black" cx="1203.8" cy="-501.15" rx="4" ry="4"/>
</g>
<!-- midas_midas_randompert -->
<g id="node25" class="node">
<title>midas_midas_randompert</title>
<g id="a_node25"><a xlink:href="../programs/midas_randompert.html" xlink:title="midas_midas_randompert">
<polygon fill="gray" stroke="green" points="1369,-612 1210,-612 1210,-576 1369,-576 1369,-612"/>
<text text-anchor="middle" x="1289.5" y="-590.3" font-family="Times,serif" font-size="14.00">midas_midas_randompert</text>
</a>
</g>
</g>
<!-- midas_midas_randompert&#45;&gt;ramdisk_mod -->
<g id="edge24" class="edge">
<title>midas_midas_randompert&#45;&gt;ramdisk_mod</title>
<path fill="none" stroke="black" d="M1289.5,-567.78C1289.5,-539.39 1289.5,-491.89 1289.5,-451 1289.5,-451 1289.5,-451 1289.5,-161 1289.5,-112.54 1268.26,-96.59 1226.5,-72 1153.48,-28.99 896.81,-20.85 791.31,-19.34"/>
<ellipse fill="black" stroke="black" cx="1289.5" cy="-571.95" rx="4" ry="4"/>
</g>
<!-- midas_midas_sstbias -->
<g id="node26" class="node">
<title>midas_midas_sstbias</title>
<g id="a_node26"><a xlink:href="../programs/midas_sstbias.html" xlink:title="midas_midas_sstbias">
<polygon fill="gray" stroke="green" points="1449.5,-108 1317.5,-108 1317.5,-72 1449.5,-72 1449.5,-108"/>
<text text-anchor="middle" x="1383.5" y="-86.3" font-family="Times,serif" font-size="14.00">midas_midas_sstbias</text>
</a>
</g>
</g>
<!-- midas_midas_sstbias&#45;&gt;ramdisk_mod -->
<g id="edge25" class="edge">
<title>midas_midas_sstbias&#45;&gt;ramdisk_mod</title>
<path fill="none" stroke="black" d="M1309.03,-72.88C1307.17,-72.57 1305.32,-72.28 1303.5,-72 1114.49,-43.04 886.88,-27.31 791.29,-21.56"/>
<ellipse fill="black" stroke="black" cx="1313.31" cy="-73.63" rx="4" ry="4"/>
</g>
<!-- midas_midas_ssttrial -->
<g id="node27" class="node">
<title>midas_midas_ssttrial</title>
<g id="a_node27"><a xlink:href="../programs/midas_ssttrial.html" xlink:title="midas_midas_ssttrial">
<polygon fill="gray" stroke="green" points="1487.5,-180 1355.5,-180 1355.5,-144 1487.5,-144 1487.5,-180"/>
<text text-anchor="middle" x="1421.5" y="-158.3" font-family="Times,serif" font-size="14.00">midas_midas_ssttrial</text>
</a>
</g>
</g>
<!-- midas_midas_ssttrial&#45;&gt;ramdisk_mod -->
<g id="edge26" class="edge">
<title>midas_midas_ssttrial&#45;&gt;ramdisk_mod</title>
<path fill="none" stroke="black" d="M1443.76,-137.69C1459.74,-118.13 1475.68,-90.51 1458.5,-72 1413.11,-23.11 941.05,-18.96 791.01,-18.88"/>
<ellipse fill="black" stroke="black" cx="1440.99" cy="-140.94" rx="4" ry="4"/>
</g>
<!-- midas_midas_thinning -->
<g id="node28" class="node">
<title>midas_midas_thinning</title>
<g id="a_node28"><a xlink:href="../programs/midas_thinning.html" xlink:title="midas_midas_thinning">
<polygon fill="gray" stroke="green" points="1555,-252 1414,-252 1414,-216 1555,-216 1555,-252"/>
<text text-anchor="middle" x="1484.5" y="-230.3" font-family="Times,serif" font-size="14.00">midas_midas_thinning</text>
</a>
</g>
</g>
<!-- midas_midas_thinning&#45;&gt;ramdisk_mod -->
<g id="edge27" class="edge">
<title>midas_midas_thinning&#45;&gt;ramdisk_mod</title>
<path fill="none" stroke="black" d="M1492.88,-208.08C1503.42,-171.5 1515.75,-104.14 1476.5,-72 1423.52,-28.62 942.83,-20.72 791.14,-19.3"/>
<ellipse fill="black" stroke="black" cx="1491.7" cy="-211.99" rx="4" ry="4"/>
</g>
<!-- midas_midas_var1d -->
<g id="node29" class="node">
<title>midas_midas_var1d</title>
<g id="a_node29"><a xlink:href="../programs/midas_var1d.html" xlink:title="midas_midas_var1d">
<polygon fill="gray" stroke="green" points="1646.5,-324 1520.5,-324 1520.5,-288 1646.5,-288 1646.5,-324"/>
<text text-anchor="middle" x="1583.5" y="-302.3" font-family="Times,serif" font-size="14.00">midas_midas_var1d</text>
</a>
</g>
</g>
<!-- midas_midas_var1d&#45;&gt;ramdisk_mod -->
<g id="edge28" class="edge">
<title>midas_midas_var1d&#45;&gt;ramdisk_mod</title>
<path fill="none" stroke="black" d="M1583.47,-279.73C1581.87,-230.09 1570.4,-120.47 1502.5,-72 1444.63,-30.69 946.06,-21.36 791.2,-19.45"/>
<ellipse fill="black" stroke="black" cx="1583.57" cy="-284" rx="4" ry="4"/>
</g>
<!-- midas_midas_var -->
<g id="node30" class="node">
<title>midas_midas_var</title>
<g id="a_node30"><a xlink:href="../programs/midas_var.html" xlink:title="midas_midas_var">
<polygon fill="gray" stroke="green" points="1731,-396 1618,-396 1618,-360 1731,-360 1731,-396"/>
<text text-anchor="middle" x="1674.5" y="-374.3" font-family="Times,serif" font-size="14.00">midas_midas_var</text>
</a>
</g>
</g>
<!-- midas_midas_var&#45;&gt;ramdisk_mod -->
<g id="edge29" class="edge">
<title>midas_midas_var&#45;&gt;ramdisk_mod</title>
<path fill="none" stroke="black" d="M1674.5,-351.78C1674.5,-323.39 1674.5,-275.89 1674.5,-235 1674.5,-235 1674.5,-235 1674.5,-161 1674.5,-86.89 1603.96,-94.97 1533.5,-72 1394.09,-26.56 937.62,-20.05 791.16,-19.14"/>
<ellipse fill="black" stroke="black" cx="1674.5" cy="-355.95" rx="4" ry="4"/>
</g>
</g>
</svg>
