<?xml version="1.0" encoding="UTF-8" standalone="no"?>
<!DOCTYPE svg PUBLIC "-//W3C//DTD SVG 1.1//EN"
 "http://www.w3.org/Graphics/SVG/1.1/DTD/svg11.dtd">
<!-- Generated by graphviz version 3.0.0 (20220315.2325)
 -->
<!-- Title: randomnumber_mod Pages: 1 -->
<svg width="675pt" height="673pt"
 viewBox="0.00 0.00 675.00 673.00" xmlns="http://www.w3.org/2000/svg" xmlns:xlink="http://www.w3.org/1999/xlink">
<g id="graph0" class="graph" transform="scale(1 1) rotate(0) translate(4 669)">
<title>randomnumber_mod</title>
<polygon fill="white" stroke="transparent" points="-4,4 -4,-669 671,-669 671,4 -4,4"/>
<text text-anchor="middle" x="333.5" y="-649.8" font-family="Times,serif" font-size="14.00">Blue boxes indicate modules with reverse dependencies not shown</text>
<text text-anchor="middle" x="333.5" y="-634.8" font-family="Times,serif" font-size="14.00">Higher level reverse dependencies can be shown by clicking on a blue box</text>
<text text-anchor="middle" x="333.5" y="-619.8" font-family="Times,serif" font-size="14.00">Green boxes are programs</text>
<!-- randomnumber_mod -->
<g id="node1" class="node">
<title>randomnumber_mod</title>
<g id="a_node1"><a xlink:href="randomnumber_mod.html" xlink:title="randomnumber_mod">
<polygon fill="none" stroke="black" points="358,-36 227,-36 227,0 358,0 358,-36"/>
<text text-anchor="middle" x="292.5" y="-14.3" font-family="Times,serif" font-size="14.00">randomnumber_mod</text>
</a>
</g>
</g>
<!-- diffusion_mod -->
<g id="node2" class="node">
<title>diffusion_mod</title>
<g id="a_node2"><a xlink:href="../modules/diffusion_mod_rev.svg" xlink:title="diffusion_mod">
<polygon fill="none" stroke="blue" points="95,-108 0,-108 0,-72 95,-72 95,-108"/>
<text text-anchor="middle" x="47.5" y="-86.3" font-family="Times,serif" font-size="14.00">diffusion_mod</text>
</a>
</g>
</g>
<!-- diffusion_mod&#45;&gt;randomnumber_mod -->
<g id="edge1" class="edge">
<title>diffusion_mod&#45;&gt;randomnumber_mod</title>
<path fill="none" stroke="black" d="M103.09,-73.12C141.81,-62.05 193.4,-47.31 232.96,-36.01"/>
<ellipse fill="black" stroke="black" cx="98.88" cy="-74.32" rx="4" ry="4"/>
</g>
<!-- ensembleobservations_mod -->
<g id="node3" class="node">
<title>ensembleobservations_mod</title>
<g id="a_node3"><a xlink:href="../modules/ensembleobservations_mod_rev.svg" xlink:title="ensembleobservations_mod">
<polygon fill="none" stroke="blue" points="169.5,-180 3.5,-180 3.5,-144 169.5,-144 169.5,-180"/>
<text text-anchor="middle" x="86.5" y="-158.3" font-family="Times,serif" font-size="14.00">ensembleobservations_mod</text>
</a>
</g>
</g>
<!-- ensembleobservations_mod&#45;&gt;randomnumber_mod -->
<g id="edge2" class="edge">
<title>ensembleobservations_mod&#45;&gt;randomnumber_mod</title>
<path fill="none" stroke="black" d="M107.78,-138.05C126.46,-118.78 155.03,-91.38 183.5,-72 204.29,-57.85 229.42,-45.37 250.31,-36.07"/>
<ellipse fill="black" stroke="black" cx="104.85" cy="-141.11" rx="4" ry="4"/>
</g>
<!-- enspostprocess_mod -->
<g id="node4" class="node">
<title>enspostprocess_mod</title>
<g id="a_node4"><a xlink:href="../modules/enspostprocess_mod_rev.svg" xlink:title="enspostprocess_mod">
<polygon fill="none" stroke="blue" points="207.5,-252 79.5,-252 79.5,-216 207.5,-216 207.5,-252"/>
<text text-anchor="middle" x="143.5" y="-230.3" font-family="Times,serif" font-size="14.00">enspostprocess_mod</text>
</a>
</g>
</g>
<!-- enspostprocess_mod&#45;&gt;randomnumber_mod -->
<g id="edge3" class="edge">
<title>enspostprocess_mod&#45;&gt;randomnumber_mod</title>
<path fill="none" stroke="black" d="M160.79,-209.1C166.81,-200.2 173.34,-189.87 178.5,-180 202.42,-134.2 190.06,-113 221.5,-72 232.55,-57.6 248.49,-45.21 262.48,-36.04"/>
<ellipse fill="black" stroke="black" cx="158.37" cy="-212.59" rx="4" ry="4"/>
</g>
<!-- innovation_mod -->
<g id="node5" class="node">
<title>innovation_mod</title>
<g id="a_node5"><a xlink:href="../modules/innovation_mod_rev.svg" xlink:title="innovation_mod">
<polygon fill="none" stroke="blue" points="245.5,-324 141.5,-324 141.5,-288 245.5,-288 245.5,-324"/>
<text text-anchor="middle" x="193.5" y="-302.3" font-family="Times,serif" font-size="14.00">innovation_mod</text>
</a>
</g>
</g>
<!-- innovation_mod&#45;&gt;randomnumber_mod -->
<g id="edge4" class="edge">
<title>innovation_mod&#45;&gt;randomnumber_mod</title>
<path fill="none" stroke="black" d="M205.3,-280.28C209.21,-271.48 213.36,-261.42 216.5,-252 242.53,-173.98 227.8,-147.9 259.5,-72 264.76,-59.4 272.84,-46.36 279.69,-36.37"/>
<ellipse fill="black" stroke="black" cx="203.61" cy="-283.99" rx="4" ry="4"/>
</g>
<!-- obsspacediag_mod -->
<g id="node6" class="node">
<title>obsspacediag_mod</title>
<g id="a_node6"><a xlink:href="../modules/obsspacediag_mod_rev.svg" xlink:title="obsspacediag_mod">
<polygon fill="none" stroke="blue" points="283,-396 164,-396 164,-360 283,-360 283,-396"/>
<text text-anchor="middle" x="223.5" y="-374.3" font-family="Times,serif" font-size="14.00">obsspacediag_mod</text>
</a>
</g>
</g>
<!-- obsspacediag_mod&#45;&gt;randomnumber_mod -->
<g id="edge5" class="edge">
<title>obsspacediag_mod&#45;&gt;randomnumber_mod</title>
<path fill="none" stroke="black" d="M239.96,-352.6C245.25,-343.88 250.71,-333.78 254.5,-324 269.12,-286.29 273.5,-275.45 273.5,-235 273.5,-235 273.5,-235 273.5,-161 273.5,-115.73 283.1,-63.06 288.66,-36.39"/>
<ellipse fill="black" stroke="black" cx="237.73" cy="-356.18" rx="4" ry="4"/>
</g>
<!-- utilities_mod -->
<g id="node7" class="node">
<title>utilities_mod</title>
<g id="a_node7"><a xlink:href="../modules/utilities_mod_rev.svg" xlink:title="utilities_mod">
<polygon fill="none" stroke="blue" points="321.5,-468 233.5,-468 233.5,-432 321.5,-432 321.5,-468"/>
<text text-anchor="middle" x="277.5" y="-446.3" font-family="Times,serif" font-size="14.00">utilities_mod</text>
</a>
</g>
</g>
<!-- utilities_mod&#45;&gt;randomnumber_mod -->
<g id="edge6" class="edge">
<title>utilities_mod&#45;&gt;randomnumber_mod</title>
<path fill="none" stroke="black" d="M287.22,-424.11C297.26,-396.09 311.5,-348.99 311.5,-307 311.5,-307 311.5,-307 311.5,-161 311.5,-115.73 301.9,-63.06 296.34,-36.39"/>
<ellipse fill="black" stroke="black" cx="285.76" cy="-428.07" rx="4" ry="4"/>
</g>
<!-- midas_midas_adjointtest -->
<g id="node8" class="node">
<title>midas_midas_adjointtest</title>
<g id="a_node8"><a xlink:href="../programs/midas_adjointtest.html" xlink:title="midas_midas_adjointtest">
<polygon fill="gray" stroke="green" points="359.5,-540 207.5,-540 207.5,-504 359.5,-504 359.5,-540"/>
<text text-anchor="middle" x="283.5" y="-518.3" font-family="Times,serif" font-size="14.00">midas_midas_adjointtest</text>
</a>
</g>
</g>
<!-- midas_midas_adjointtest&#45;&gt;randomnumber_mod -->
<g id="edge7" class="edge">
<title>midas_midas_adjointtest&#45;&gt;randomnumber_mod</title>
<path fill="none" stroke="black" d="M308.86,-497.69C316.87,-489.08 325.05,-478.78 330.5,-468 348.74,-431.9 349.5,-419.45 349.5,-379 349.5,-379 349.5,-379 349.5,-161 349.5,-112.92 321.01,-61.84 304.31,-36.04"/>
<ellipse fill="black" stroke="black" cx="305.87" cy="-500.77" rx="4" ry="4"/>
</g>
<!-- midas_midas_diagbmatrix -->
<g id="node9" class="node">
<title>midas_midas_diagbmatrix</title>
<g id="a_node9"><a xlink:href="../programs/midas_diagbmatrix.html" xlink:title="midas_midas_diagbmatrix">
<polygon fill="gray" stroke="green" points="468,-612 307,-612 307,-576 468,-576 468,-612"/>
<text text-anchor="middle" x="387.5" y="-590.3" font-family="Times,serif" font-size="14.00">midas_midas_diagbmatrix</text>
</a>
</g>
</g>
<!-- midas_midas_diagbmatrix&#45;&gt;randomnumber_mod -->
<g id="edge8" class="edge">
<title>midas_midas_diagbmatrix&#45;&gt;randomnumber_mod</title>
<path fill="none" stroke="black" d="M387.5,-567.78C387.5,-539.39 387.5,-491.89 387.5,-451 387.5,-451 387.5,-451 387.5,-161 387.5,-108.5 342.09,-60.72 314.06,-36.22"/>
<ellipse fill="black" stroke="black" cx="387.5" cy="-571.95" rx="4" ry="4"/>
</g>
<!-- midas_midas_diaghbht -->
<g id="node10" class="node">
<title>midas_midas_diaghbht</title>
<g id="a_node10"><a xlink:href="../programs/midas_diaghbht.html" xlink:title="midas_midas_diaghbht">
<polygon fill="gray" stroke="green" points="559,-108 416,-108 416,-72 559,-72 559,-108"/>
<text text-anchor="middle" x="487.5" y="-86.3" font-family="Times,serif" font-size="14.00">midas_midas_diaghbht</text>
</a>
</g>
</g>
<!-- midas_midas_diaghbht&#45;&gt;randomnumber_mod -->
<g id="edge9" class="edge">
<title>midas_midas_diaghbht&#45;&gt;randomnumber_mod</title>
<path fill="none" stroke="black" d="M432.17,-69.14C403.11,-58.71 367.86,-46.05 340.05,-36.07"/>
<ellipse fill="black" stroke="black" cx="436.03" cy="-70.52" rx="4" ry="4"/>
</g>
<!-- midas_midas_randompert -->
<g id="node11" class="node">
<title>midas_midas_randompert</title>
<g id="a_node11"><a xlink:href="../programs/midas_randompert.html" xlink:title="midas_midas_randompert">
<polygon fill="gray" stroke="green" points="667,-180 508,-180 508,-144 667,-144 667,-180"/>
<text text-anchor="middle" x="587.5" y="-158.3" font-family="Times,serif" font-size="14.00">midas_midas_randompert</text>
</a>
</g>
</g>
<!-- midas_midas_randompert&#45;&gt;randomnumber_mod -->
<g id="edge10" class="edge">
<title>midas_midas_randompert&#45;&gt;randomnumber_mod</title>
<path fill="none" stroke="black" d="M589.13,-135.89C588.98,-115.83 585.29,-88.45 568.5,-72 539.31,-43.4 430.16,-29.54 358.18,-23.37"/>
<ellipse fill="black" stroke="black" cx="589.07" cy="-139.98" rx="4" ry="4"/>
</g>
</g>
</svg>
