<?xml version="1.0" encoding="UTF-8" standalone="no"?>
<!DOCTYPE svg PUBLIC "-//W3C//DTD SVG 1.1//EN"
 "http://www.w3.org/Graphics/SVG/1.1/DTD/svg11.dtd">
<!-- Generated by graphviz version 3.0.0 (20220315.2325)
 -->
<!-- Title: regions_mod Pages: 1 -->
<svg width="379pt" height="241pt"
 viewBox="0.00 0.00 379.00 241.00" xmlns="http://www.w3.org/2000/svg" xmlns:xlink="http://www.w3.org/1999/xlink">
<g id="graph0" class="graph" transform="scale(1 1) rotate(0) translate(4 237)">
<title>regions_mod</title>
<polygon fill="white" stroke="transparent" points="-4,4 -4,-237 375,-237 375,4 -4,4"/>
<text text-anchor="middle" x="185.5" y="-37.8" font-family="Times,serif" font-size="14.00">Red boxes indicate modules with dependencies not shown</text>
<text text-anchor="middle" x="185.5" y="-22.8" font-family="Times,serif" font-size="14.00">Lower level dependencies can be shown by clicking on a red box</text>
<text text-anchor="middle" x="185.5" y="-7.8" font-family="Times,serif" font-size="14.00">Shaded boxes indicate modules with no dependencies</text>
<!-- regions_mod -->
<g id="node1" class="node">
<title>regions_mod</title>
<g id="a_node1"><a xlink:href="regions_mod.html" xlink:title="regions_mod">
<polygon fill="none" stroke="black" points="240.75,-233 153.75,-233 153.75,-197 240.75,-197 240.75,-233"/>
<text text-anchor="middle" x="197.25" y="-211.3" font-family="Times,serif" font-size="14.00">regions_mod</text>
</a>
</g>
</g>
<!-- mathphysconstants_mod -->
<g id="node2" class="node">
<title>mathphysconstants_mod</title>
<g id="a_node2"><a xlink:href="mathphysconstants_mod.html" xlink:title="mathphysconstants_mod">
<polygon fill="gray" stroke="black" points="221.25,-161 71.25,-161 71.25,-125 221.25,-125 221.25,-161"/>
<text text-anchor="middle" x="146.25" y="-139.3" font-family="Times,serif" font-size="14.00">mathphysconstants_mod</text>
</a>
</g>
</g>
<!-- regions_mod&#45;&gt;mathphysconstants_mod -->
<g id="edge1" class="edge">
<title>regions_mod&#45;&gt;mathphysconstants_mod</title>
<path fill="none" stroke="black" d="M184.64,-196.7C178.65,-188.47 171.37,-178.48 164.77,-169.42"/>
<polygon fill="black" stroke="black" points="167.43,-167.13 158.71,-161.1 161.77,-171.25 167.43,-167.13"/>
</g>
<!-- midasmpi_mod -->
<g id="node3" class="node">
<title>midasmpi_mod</title>
<g id="a_node3"><a xlink:href="../modules/midasmpi_mod.svg" xlink:title="midasmpi_mod">
<polygon fill="none" stroke="red" points="299.75,-89 198.75,-89 198.75,-53 299.75,-53 299.75,-89"/>
<text text-anchor="middle" x="249.25" y="-67.3" font-family="Times,serif" font-size="14.00">midasmpi_mod</text>
</a>
</g>
</g>
<!-- regions_mod&#45;&gt;midasmpi_mod -->
<g id="edge2" class="edge">
<title>regions_mod&#45;&gt;midasmpi_mod</title>
<path fill="none" stroke="black" d="M210.18,-196.68C217.06,-186.7 225.14,-173.66 230.25,-161 238.27,-141.13 243.12,-117.33 245.92,-99.35"/>
<polygon fill="black" stroke="black" points="249.41,-99.64 247.37,-89.25 242.48,-98.65 249.41,-99.64"/>
</g>
</g>
</svg>
