<?xml version="1.0" encoding="UTF-8" standalone="no"?>
<!DOCTYPE svg PUBLIC "-//W3C//DTD SVG 1.1//EN"
 "http://www.w3.org/Graphics/SVG/1.1/DTD/svg11.dtd">
<!-- Generated by graphviz version 3.0.0 (20220315.2325)
 -->
<!-- Title: rmatrix_mod Pages: 1 -->
<svg width="430pt" height="529pt"
 viewBox="0.00 0.00 430.00 529.00" xmlns="http://www.w3.org/2000/svg" xmlns:xlink="http://www.w3.org/1999/xlink">
<g id="graph0" class="graph" transform="scale(1 1) rotate(0) translate(4 525)">
<title>rmatrix_mod</title>
<polygon fill="white" stroke="transparent" points="-4,4 -4,-525 426,-525 426,4 -4,4"/>
<text text-anchor="middle" x="211" y="-505.8" font-family="Times,serif" font-size="14.00">Blue boxes indicate modules with reverse dependencies not shown</text>
<text text-anchor="middle" x="211" y="-490.8" font-family="Times,serif" font-size="14.00">Higher level reverse dependencies can be shown by clicking on a blue box</text>
<text text-anchor="middle" x="211" y="-475.8" font-family="Times,serif" font-size="14.00">Green boxes are programs</text>
<!-- rmatrix_mod -->
<g id="node1" class="node">
<title>rmatrix_mod</title>
<g id="a_node1"><a xlink:href="rmatrix_mod.html" xlink:title="rmatrix_mod">
<polygon fill="none" stroke="black" points="241.75,-36 154.75,-36 154.75,0 241.75,0 241.75,-36"/>
<text text-anchor="middle" x="198.25" y="-14.3" font-family="Times,serif" font-size="14.00">rmatrix_mod</text>
</a>
</g>
</g>
<!-- fsoi_mod -->
<g id="node2" class="node">
<title>fsoi_mod</title>
<g id="a_node2"><a xlink:href="../modules/fsoi_mod_rev.svg" xlink:title="fsoi_mod">
<polygon fill="none" stroke="blue" points="92.25,-108 24.25,-108 24.25,-72 92.25,-72 92.25,-108"/>
<text text-anchor="middle" x="58.25" y="-86.3" font-family="Times,serif" font-size="14.00">fsoi_mod</text>
</a>
</g>
</g>
<!-- fsoi_mod&#45;&gt;rmatrix_mod -->
<g id="edge1" class="edge">
<title>fsoi_mod&#45;&gt;rmatrix_mod</title>
<path fill="none" stroke="black" d="M99.82,-68.21C120.23,-58.01 144.53,-45.86 163.87,-36.19"/>
<ellipse fill="black" stroke="black" cx="96.08" cy="-70.09" rx="4" ry="4"/>
</g>
<!-- innovation_mod -->
<g id="node3" class="node">
<title>innovation_mod</title>
<g id="a_node3"><a xlink:href="../modules/innovation_mod_rev.svg" xlink:title="innovation_mod">
<polygon fill="none" stroke="blue" points="151.25,-180 47.25,-180 47.25,-144 151.25,-144 151.25,-180"/>
<text text-anchor="middle" x="99.25" y="-158.3" font-family="Times,serif" font-size="14.00">innovation_mod</text>
</a>
</g>
</g>
<!-- innovation_mod&#45;&gt;rmatrix_mod -->
<g id="edge2" class="edge">
<title>innovation_mod&#45;&gt;rmatrix_mod</title>
<path fill="none" stroke="black" d="M115.96,-137.03C135.89,-108.45 168.7,-61.39 186.27,-36.19"/>
<ellipse fill="black" stroke="black" cx="113.48" cy="-140.59" rx="4" ry="4"/>
</g>
<!-- minimization_mod -->
<g id="node4" class="node">
<title>minimization_mod</title>
<g id="a_node4"><a xlink:href="../modules/minimization_mod_rev.svg" xlink:title="minimization_mod">
<polygon fill="none" stroke="blue" points="188.75,-252 67.75,-252 67.75,-216 188.75,-216 188.75,-252"/>
<text text-anchor="middle" x="128.25" y="-230.3" font-family="Times,serif" font-size="14.00">minimization_mod</text>
</a>
</g>
</g>
<!-- minimization_mod&#45;&gt;rmatrix_mod -->
<g id="edge3" class="edge">
<title>minimization_mod&#45;&gt;rmatrix_mod</title>
<path fill="none" stroke="black" d="M145.15,-208.62C150.6,-199.9 156.25,-189.8 160.25,-180 180.65,-130.01 191.58,-66.61 195.95,-36.46"/>
<ellipse fill="black" stroke="black" cx="142.83" cy="-212.22" rx="4" ry="4"/>
</g>
<!-- obserrors_mod -->
<g id="node5" class="node">
<title>obserrors_mod</title>
<g id="a_node5"><a xlink:href="../modules/obserrors_mod_rev.svg" xlink:title="obserrors_mod">
<polygon fill="none" stroke="blue" points="246.25,-324 148.25,-324 148.25,-288 246.25,-288 246.25,-324"/>
<text text-anchor="middle" x="197.25" y="-302.3" font-family="Times,serif" font-size="14.00">obserrors_mod</text>
</a>
</g>
</g>
<!-- obserrors_mod&#45;&gt;rmatrix_mod -->
<g id="edge4" class="edge">
<title>obserrors_mod&#45;&gt;rmatrix_mod</title>
<path fill="none" stroke="black" d="M198.44,-279.58C200.28,-236.75 203.38,-147.48 201.25,-72 200.91,-60.02 200.14,-46.54 199.47,-36.18"/>
<ellipse fill="black" stroke="black" cx="198.26" cy="-283.76" rx="4" ry="4"/>
</g>
<!-- varqc_mod -->
<g id="node6" class="node">
<title>varqc_mod</title>
<g id="a_node6"><a xlink:href="../modules/varqc_mod_rev.svg" xlink:title="varqc_mod">
<polygon fill="none" stroke="blue" points="312.75,-396 235.75,-396 235.75,-360 312.75,-360 312.75,-396"/>
<text text-anchor="middle" x="274.25" y="-374.3" font-family="Times,serif" font-size="14.00">varqc_mod</text>
</a>
</g>
</g>
<!-- varqc_mod&#45;&gt;rmatrix_mod -->
<g id="edge5" class="edge">
<title>varqc_mod&#45;&gt;rmatrix_mod</title>
<path fill="none" stroke="black" d="M274.25,-351.78C274.25,-323.39 274.25,-275.89 274.25,-235 274.25,-235 274.25,-235 274.25,-161 274.25,-110.95 237.09,-61.47 214.74,-36.23"/>
<ellipse fill="black" stroke="black" cx="274.25" cy="-355.95" rx="4" ry="4"/>
</g>
<!-- midas_midas_var -->
<g id="node7" class="node">
<title>midas_midas_var</title>
<g id="a_node7"><a xlink:href="../programs/midas_var.html" xlink:title="midas_midas_var">
<polygon fill="gray" stroke="green" points="397.75,-468 284.75,-468 284.75,-432 397.75,-432 397.75,-468"/>
<text text-anchor="middle" x="341.25" y="-446.3" font-family="Times,serif" font-size="14.00">midas_midas_var</text>
</a>
</g>
</g>
<!-- midas_midas_var&#45;&gt;rmatrix_mod -->
<g id="edge6" class="edge">
<title>midas_midas_var&#45;&gt;rmatrix_mod</title>
<path fill="none" stroke="black" d="M341.25,-423.78C341.25,-395.39 341.25,-347.89 341.25,-307 341.25,-307 341.25,-307 341.25,-161 341.25,-101.52 278.19,-58.42 235.82,-36.17"/>
<ellipse fill="black" stroke="black" cx="341.25" cy="-427.95" rx="4" ry="4"/>
</g>
</g>
</svg>
