<?xml version="1.0" encoding="UTF-8" standalone="no"?>
<!DOCTYPE svg PUBLIC "-//W3C//DTD SVG 1.1//EN"
 "http://www.w3.org/Graphics/SVG/1.1/DTD/svg11.dtd">
<!-- Generated by graphviz version 3.0.0 (20220315.2325)
 -->
<!-- Title: rmatrix_mod Pages: 1 -->
<svg width="382pt" height="457pt"
 viewBox="0.00 0.00 381.50 457.00" xmlns="http://www.w3.org/2000/svg" xmlns:xlink="http://www.w3.org/1999/xlink">
<g id="graph0" class="graph" transform="scale(1 1) rotate(0) translate(4 453)">
<title>rmatrix_mod</title>
<polygon fill="white" stroke="transparent" points="-4,4 -4,-453 377.5,-453 377.5,4 -4,4"/>
<text text-anchor="middle" x="186.75" y="-37.8" font-family="Times,serif" font-size="14.00">Red boxes indicate modules with dependencies not shown</text>
<text text-anchor="middle" x="186.75" y="-22.8" font-family="Times,serif" font-size="14.00">Lower level dependencies can be shown by clicking on a red box</text>
<text text-anchor="middle" x="186.75" y="-7.8" font-family="Times,serif" font-size="14.00">Shaded boxes indicate modules with no dependencies</text>
<!-- rmatrix_mod -->
<g id="node1" class="node">
<title>rmatrix_mod</title>
<g id="a_node1"><a xlink:href="rmatrix_mod.html" xlink:title="rmatrix_mod">
<polygon fill="none" stroke="black" points="235,-449 148,-449 148,-413 235,-413 235,-449"/>
<text text-anchor="middle" x="191.5" y="-427.3" font-family="Times,serif" font-size="14.00">rmatrix_mod</text>
</a>
</g>
</g>
<!-- midasmpi_mod -->
<g id="node2" class="node">
<title>midasmpi_mod</title>
<g id="a_node2"><a xlink:href="../modules/midasmpi_mod.svg" xlink:title="midasmpi_mod">
<polygon fill="none" stroke="red" points="101,-377 0,-377 0,-341 101,-341 101,-377"/>
<text text-anchor="middle" x="50.5" y="-355.3" font-family="Times,serif" font-size="14.00">midasmpi_mod</text>
</a>
</g>
</g>
<!-- rmatrix_mod&#45;&gt;midasmpi_mod -->
<g id="edge1" class="edge">
<title>rmatrix_mod&#45;&gt;midasmpi_mod</title>
<path fill="none" stroke="black" d="M157.01,-412.88C138.06,-403.47 114.37,-391.71 94.14,-381.67"/>
<polygon fill="black" stroke="black" points="95.64,-378.5 85.13,-377.19 92.53,-384.77 95.64,-378.5"/>
</g>
<!-- obsspacedata_mod -->
<g id="node3" class="node">
<title>obsspacedata_mod</title>
<g id="a_node3"><a xlink:href="../modules/obsspacedata_mod.svg" xlink:title="obsspacedata_mod">
<polygon fill="none" stroke="red" points="163.5,-305 45.5,-305 45.5,-269 163.5,-269 163.5,-305"/>
<text text-anchor="middle" x="104.5" y="-283.3" font-family="Times,serif" font-size="14.00">obsspacedata_mod</text>
</a>
</g>
</g>
<!-- rmatrix_mod&#45;&gt;obsspacedata_mod -->
<g id="edge2" class="edge">
<title>rmatrix_mod&#45;&gt;obsspacedata_mod</title>
<path fill="none" stroke="black" d="M181.01,-412.87C165.92,-388.24 137.98,-342.64 120.36,-313.88"/>
<polygon fill="black" stroke="black" points="123.24,-311.89 115.03,-305.19 117.27,-315.54 123.24,-311.89"/>
</g>
<!-- rttov_interfaces_mod -->
<g id="node4" class="node">
<title>rttov_interfaces_mod</title>
<g id="a_node4"><a xlink:href="rttov_interfaces_mod.html" xlink:title="rttov_interfaces_mod">
<polygon fill="gray" stroke="black" points="229.5,-233 97.5,-233 97.5,-197 229.5,-197 229.5,-233"/>
<text text-anchor="middle" x="163.5" y="-211.3" font-family="Times,serif" font-size="14.00">rttov_interfaces_mod</text>
</a>
</g>
</g>
<!-- rmatrix_mod&#45;&gt;rttov_interfaces_mod -->
<g id="edge3" class="edge">
<title>rmatrix_mod&#45;&gt;rttov_interfaces_mod</title>
<path fill="none" stroke="black" d="M189.74,-412.57C186.68,-382.99 179.99,-321.1 172.5,-269 171.29,-260.56 169.79,-251.38 168.37,-243.08"/>
<polygon fill="black" stroke="black" points="171.81,-242.4 166.64,-233.15 164.91,-243.6 171.81,-242.4"/>
</g>
<!-- tovs_nl_mod -->
<g id="node5" class="node">
<title>tovs_nl_mod</title>
<g id="a_node5"><a xlink:href="../modules/tovs_nl_mod.svg" xlink:title="tovs_nl_mod">
<polygon fill="none" stroke="red" points="301,-161 214,-161 214,-125 301,-125 301,-161"/>
<text text-anchor="middle" x="257.5" y="-139.3" font-family="Times,serif" font-size="14.00">tovs_nl_mod</text>
</a>
</g>
</g>
<!-- rmatrix_mod&#45;&gt;tovs_nl_mod -->
<g id="edge4" class="edge">
<title>rmatrix_mod&#45;&gt;tovs_nl_mod</title>
<path fill="none" stroke="black" d="M195.72,-412.9C204.13,-378.77 223.42,-299.71 238.5,-233 243.17,-212.33 248.17,-188.88 251.86,-171.24"/>
<polygon fill="black" stroke="black" points="255.36,-171.59 253.98,-161.09 248.51,-170.16 255.36,-171.59"/>
</g>
<!-- utilities_mod -->
<g id="node6" class="node">
<title>utilities_mod</title>
<g id="a_node6"><a xlink:href="../modules/utilities_mod.svg" xlink:title="utilities_mod">
<polygon fill="none" stroke="red" points="373.5,-89 285.5,-89 285.5,-53 373.5,-53 373.5,-89"/>
<text text-anchor="middle" x="329.5" y="-67.3" font-family="Times,serif" font-size="14.00">utilities_mod</text>
</a>
</g>
</g>
<!-- rmatrix_mod&#45;&gt;utilities_mod -->
<g id="edge5" class="edge">
<title>rmatrix_mod&#45;&gt;utilities_mod</title>
<path fill="none" stroke="black" d="M227.04,-412.87C267.93,-390.39 329.5,-346.78 329.5,-288 329.5,-288 329.5,-288 329.5,-214 329.5,-174 329.5,-127.65 329.5,-99.08"/>
<polygon fill="black" stroke="black" points="333,-99.05 329.5,-89.05 326,-99.05 333,-99.05"/>
</g>
</g>
</svg>
