<?xml version="1.0" encoding="UTF-8" standalone="no"?>
<!DOCTYPE svg PUBLIC "-//W3C//DTD SVG 1.1//EN"
 "http://www.w3.org/Graphics/SVG/1.1/DTD/svg11.dtd">
<!-- Generated by graphviz version 3.0.0 (20220315.2325)
 -->
<!-- Title: rttov_interfaces_mod Pages: 1 -->
<svg width="430pt" height="385pt"
 viewBox="0.00 0.00 430.00 385.00" xmlns="http://www.w3.org/2000/svg" xmlns:xlink="http://www.w3.org/1999/xlink">
<g id="graph0" class="graph" transform="scale(1 1) rotate(0) translate(4 381)">
<title>rttov_interfaces_mod</title>
<polygon fill="white" stroke="transparent" points="-4,4 -4,-381 426,-381 426,4 -4,4"/>
<text text-anchor="middle" x="211" y="-361.8" font-family="Times,serif" font-size="14.00">Blue boxes indicate modules with reverse dependencies not shown</text>
<text text-anchor="middle" x="211" y="-346.8" font-family="Times,serif" font-size="14.00">Higher level reverse dependencies can be shown by clicking on a blue box</text>
<text text-anchor="middle" x="211" y="-331.8" font-family="Times,serif" font-size="14.00">Green boxes are programs</text>
<!-- rttov_interfaces_mod -->
<g id="node1" class="node">
<title>rttov_interfaces_mod</title>
<g id="a_node1"><a xlink:href="rttov_interfaces_mod.html" xlink:title="rttov_interfaces_mod">
<polygon fill="none" stroke="black" points="294.5,-36 162.5,-36 162.5,0 294.5,0 294.5,-36"/>
<text text-anchor="middle" x="228.5" y="-14.3" font-family="Times,serif" font-size="14.00">rttov_interfaces_mod</text>
</a>
</g>
</g>
<!-- multi_ir_bgck_mod -->
<g id="node2" class="node">
<title>multi_ir_bgck_mod</title>
<g id="a_node2"><a xlink:href="../modules/multi_ir_bgck_mod_rev.svg" xlink:title="multi_ir_bgck_mod">
<polygon fill="none" stroke="blue" points="173,-108 48,-108 48,-72 173,-72 173,-108"/>
<text text-anchor="middle" x="110.5" y="-86.3" font-family="Times,serif" font-size="14.00">multi_ir_bgck_mod</text>
</a>
</g>
</g>
<!-- multi_ir_bgck_mod&#45;&gt;rttov_interfaces_mod -->
<g id="edge1" class="edge">
<title>multi_ir_bgck_mod&#45;&gt;rttov_interfaces_mod</title>
<path fill="none" stroke="black" d="M146.45,-67.67C163.46,-57.58 183.5,-45.69 199.52,-36.19"/>
<ellipse fill="black" stroke="black" cx="142.81" cy="-69.84" rx="4" ry="4"/>
</g>
<!-- rmatrix_mod -->
<g id="node3" class="node">
<title>rmatrix_mod</title>
<g id="a_node3"><a xlink:href="../modules/rmatrix_mod_rev.svg" xlink:title="rmatrix_mod">
<polygon fill="none" stroke="blue" points="228,-180 141,-180 141,-144 228,-144 228,-180"/>
<text text-anchor="middle" x="184.5" y="-158.3" font-family="Times,serif" font-size="14.00">rmatrix_mod</text>
</a>
</g>
</g>
<!-- rmatrix_mod&#45;&gt;rttov_interfaces_mod -->
<g id="edge2" class="edge">
<title>rmatrix_mod&#45;&gt;rttov_interfaces_mod</title>
<path fill="none" stroke="black" d="M192.27,-135.93C201.15,-107.25 215.47,-61.06 223.17,-36.19"/>
<ellipse fill="black" stroke="black" cx="190.99" cy="-140.05" rx="4" ry="4"/>
</g>
<!-- tovs_lin_mod -->
<g id="node4" class="node">
<title>tovs_lin_mod</title>
<g id="a_node4"><a xlink:href="../modules/tovs_lin_mod_rev.svg" xlink:title="tovs_lin_mod">
<polygon fill="none" stroke="blue" points="302,-252 211,-252 211,-216 302,-216 302,-252"/>
<text text-anchor="middle" x="256.5" y="-230.3" font-family="Times,serif" font-size="14.00">tovs_lin_mod</text>
</a>
</g>
</g>
<!-- tovs_lin_mod&#45;&gt;rttov_interfaces_mod -->
<g id="edge3" class="edge">
<title>tovs_lin_mod&#45;&gt;rttov_interfaces_mod</title>
<path fill="none" stroke="black" d="M253.19,-207.67C247.42,-163.59 235.68,-73.87 230.75,-36.23"/>
<ellipse fill="black" stroke="black" cx="253.74" cy="-211.88" rx="4" ry="4"/>
</g>
<!-- tovs_nl_mod -->
<g id="node5" class="node">
<title>tovs_nl_mod</title>
<g id="a_node5"><a xlink:href="../modules/tovs_nl_mod_rev.svg" xlink:title="tovs_nl_mod">
<polygon fill="none" stroke="blue" points="374,-324 287,-324 287,-288 374,-288 374,-324"/>
<text text-anchor="middle" x="330.5" y="-302.3" font-family="Times,serif" font-size="14.00">tovs_nl_mod</text>
</a>
</g>
</g>
<!-- tovs_nl_mod&#45;&gt;rttov_interfaces_mod -->
<g id="edge4" class="edge">
<title>tovs_nl_mod&#45;&gt;rttov_interfaces_mod</title>
<path fill="none" stroke="black" d="M326.3,-279.46C323.04,-261.5 317.99,-237.02 311.5,-216 291.09,-149.92 279.88,-135.51 252.5,-72 247.3,-59.94 241.19,-46.46 236.44,-36.12"/>
<ellipse fill="black" stroke="black" cx="327.06" cy="-283.77" rx="4" ry="4"/>
</g>
</g>
</svg>
