<?xml version="1.0" encoding="UTF-8" standalone="no"?>
<!DOCTYPE svg PUBLIC "-//W3C//DTD SVG 1.1//EN"
 "http://www.w3.org/Graphics/SVG/1.1/DTD/svg11.dtd">
<!-- Generated by graphviz version 3.0.0 (20220315.2325)
 -->
<!-- Title: slantprofilelatlon_mod Pages: 1 -->
<svg width="562pt" height="673pt"
 viewBox="0.00 0.00 562.00 673.00" xmlns="http://www.w3.org/2000/svg" xmlns:xlink="http://www.w3.org/1999/xlink">
<g id="graph0" class="graph" transform="scale(1 1) rotate(0) translate(4 669)">
<title>slantprofilelatlon_mod</title>
<polygon fill="white" stroke="transparent" points="-4,4 -4,-669 558,-669 558,4 -4,4"/>
<text text-anchor="middle" x="277" y="-37.8" font-family="Times,serif" font-size="14.00">Red boxes indicate modules with dependencies not shown</text>
<text text-anchor="middle" x="277" y="-22.8" font-family="Times,serif" font-size="14.00">Lower level dependencies can be shown by clicking on a red box</text>
<text text-anchor="middle" x="277" y="-7.8" font-family="Times,serif" font-size="14.00">Shaded boxes indicate modules with no dependencies</text>
<!-- slantprofilelatlon_mod -->
<g id="node1" class="node">
<title>slantprofilelatlon_mod</title>
<g id="a_node1"><a xlink:href="slantprofilelatlon_mod.html" xlink:title="slantprofilelatlon_mod">
<polygon fill="none" stroke="black" points="340,-665 202,-665 202,-629 340,-629 340,-665"/>
<text text-anchor="middle" x="271" y="-643.3" font-family="Times,serif" font-size="14.00">slantprofilelatlon_mod</text>
</a>
</g>
</g>
<!-- codtyp_mod -->
<g id="node2" class="node">
<title>codtyp_mod</title>
<g id="a_node2"><a xlink:href="../modules/codtyp_mod.svg" xlink:title="codtyp_mod">
<polygon fill="none" stroke="red" points="84,-593 0,-593 0,-557 84,-557 84,-593"/>
<text text-anchor="middle" x="42" y="-571.3" font-family="Times,serif" font-size="14.00">codtyp_mod</text>
</a>
</g>
</g>
<!-- slantprofilelatlon_mod&#45;&gt;codtyp_mod -->
<g id="edge1" class="edge">
<title>slantprofilelatlon_mod&#45;&gt;codtyp_mod</title>
<path fill="none" stroke="black" d="M215.27,-628.97C178.36,-617.68 130.28,-602.98 94.13,-591.93"/>
<polygon fill="black" stroke="black" points="94.85,-588.5 84.27,-588.92 92.81,-595.19 94.85,-588.5"/>
</g>
<!-- earthconstants_mod -->
<g id="node3" class="node">
<title>earthconstants_mod</title>
<g id="a_node3"><a xlink:href="../modules/earthconstants_mod.svg" xlink:title="earthconstants_mod">
<polygon fill="none" stroke="red" points="147.5,-521 22.5,-521 22.5,-485 147.5,-485 147.5,-521"/>
<text text-anchor="middle" x="85" y="-499.3" font-family="Times,serif" font-size="14.00">earthconstants_mod</text>
</a>
</g>
</g>
<!-- slantprofilelatlon_mod&#45;&gt;earthconstants_mod -->
<g id="edge2" class="edge">
<title>slantprofilelatlon_mod&#45;&gt;earthconstants_mod</title>
<path fill="none" stroke="black" d="M225.69,-628.89C205.13,-619.93 181.19,-607.74 162,-593 138.54,-574.97 116.98,-548.86 102.68,-529.58"/>
<polygon fill="black" stroke="black" points="105.34,-527.29 96.64,-521.25 99.68,-531.4 105.34,-527.29"/>
</g>
<!-- getgridposition_mod -->
<g id="node4" class="node">
<title>getgridposition_mod</title>
<g id="a_node4"><a xlink:href="../modules/getgridposition_mod.svg" xlink:title="getgridposition_mod">
<polygon fill="none" stroke="red" points="185.5,-449 56.5,-449 56.5,-413 185.5,-413 185.5,-449"/>
<text text-anchor="middle" x="121" y="-427.3" font-family="Times,serif" font-size="14.00">getgridposition_mod</text>
</a>
</g>
</g>
<!-- slantprofilelatlon_mod&#45;&gt;getgridposition_mod -->
<g id="edge3" class="edge">
<title>slantprofilelatlon_mod&#45;&gt;getgridposition_mod</title>
<path fill="none" stroke="black" d="M241.03,-628.92C227.06,-619.74 211.1,-607.36 200,-593 168.29,-552 180.18,-530.85 156,-485 151.11,-475.73 145.03,-466.05 139.32,-457.53"/>
<polygon fill="black" stroke="black" points="142.11,-455.4 133.56,-449.14 136.33,-459.36 142.11,-455.4"/>
</g>
<!-- horizontalcoord_mod -->
<g id="node5" class="node">
<title>horizontalcoord_mod</title>
<g id="a_node5"><a xlink:href="../modules/horizontalcoord_mod.svg" xlink:title="horizontalcoord_mod">
<polygon fill="none" stroke="red" points="223.5,-377 90.5,-377 90.5,-341 223.5,-341 223.5,-377"/>
<text text-anchor="middle" x="157" y="-355.3" font-family="Times,serif" font-size="14.00">horizontalcoord_mod</text>
</a>
</g>
</g>
<!-- slantprofilelatlon_mod&#45;&gt;horizontalcoord_mod -->
<g id="edge4" class="edge">
<title>slantprofilelatlon_mod&#45;&gt;horizontalcoord_mod</title>
<path fill="none" stroke="black" d="M258.21,-628.62C251.37,-618.62 243.3,-605.59 238,-593 206.06,-517.09 227.93,-488.04 194,-413 189.68,-403.44 183.57,-393.79 177.57,-385.39"/>
<polygon fill="black" stroke="black" points="180.21,-383.08 171.43,-377.15 174.6,-387.26 180.21,-383.08"/>
</g>
<!-- mathphysconstants_mod -->
<g id="node6" class="node">
<title>mathphysconstants_mod</title>
<g id="a_node6"><a xlink:href="mathphysconstants_mod.html" xlink:title="mathphysconstants_mod">
<polygon fill="gray" stroke="black" points="262,-305 112,-305 112,-269 262,-269 262,-305"/>
<text text-anchor="middle" x="187" y="-283.3" font-family="Times,serif" font-size="14.00">mathphysconstants_mod</text>
</a>
</g>
</g>
<!-- slantprofilelatlon_mod&#45;&gt;mathphysconstants_mod -->
<g id="edge5" class="edge">
<title>slantprofilelatlon_mod&#45;&gt;mathphysconstants_mod</title>
<path fill="none" stroke="black" d="M267.16,-628.61C261.6,-601.94 252,-549.27 252,-504 252,-504 252,-504 252,-430 252,-389.46 250.09,-377.28 232,-341 226.94,-330.85 219.53,-321.01 212.18,-312.62"/>
<polygon fill="black" stroke="black" points="214.57,-310.05 205.23,-305.06 209.42,-314.79 214.57,-310.05"/>
</g>
<!-- midasmpi_mod -->
<g id="node7" class="node">
<title>midasmpi_mod</title>
<g id="a_node7"><a xlink:href="../modules/midasmpi_mod.svg" xlink:title="midasmpi_mod">
<polygon fill="none" stroke="red" points="299.5,-233 198.5,-233 198.5,-197 299.5,-197 299.5,-233"/>
<text text-anchor="middle" x="249" y="-211.3" font-family="Times,serif" font-size="14.00">midasmpi_mod</text>
</a>
</g>
</g>
<!-- slantprofilelatlon_mod&#45;&gt;midasmpi_mod -->
<g id="edge6" class="edge">
<title>slantprofilelatlon_mod&#45;&gt;midasmpi_mod</title>
<path fill="none" stroke="black" d="M274.84,-628.61C280.4,-601.94 290,-549.27 290,-504 290,-504 290,-504 290,-358 290,-316.41 273.56,-270.56 261.5,-242.51"/>
<polygon fill="black" stroke="black" points="264.55,-240.75 257.3,-233.03 258.15,-243.59 264.55,-240.75"/>
</g>
<!-- obsspacedata_mod -->
<g id="node8" class="node">
<title>obsspacedata_mod</title>
<g id="a_node8"><a xlink:href="../modules/obsspacedata_mod.svg" xlink:title="obsspacedata_mod">
<polygon fill="none" stroke="red" points="338,-161 220,-161 220,-125 338,-125 338,-161"/>
<text text-anchor="middle" x="279" y="-139.3" font-family="Times,serif" font-size="14.00">obsspacedata_mod</text>
</a>
</g>
</g>
<!-- slantprofilelatlon_mod&#45;&gt;obsspacedata_mod -->
<g id="edge7" class="edge">
<title>slantprofilelatlon_mod&#45;&gt;obsspacedata_mod</title>
<path fill="none" stroke="black" d="M282.81,-628.96C299.51,-603.16 328,-552.08 328,-504 328,-504 328,-504 328,-286 328,-245.46 322.31,-234.93 308,-197 304.56,-187.87 299.79,-178.38 295.11,-170"/>
<polygon fill="black" stroke="black" points="297.99,-167.98 289.94,-161.08 291.93,-171.49 297.99,-167.98"/>
</g>
<!-- radvel_mod -->
<g id="node9" class="node">
<title>radvel_mod</title>
<g id="a_node9"><a xlink:href="../modules/radvel_mod.svg" xlink:title="radvel_mod">
<polygon fill="none" stroke="red" points="406,-89 326,-89 326,-53 406,-53 406,-89"/>
<text text-anchor="middle" x="366" y="-67.3" font-family="Times,serif" font-size="14.00">radvel_mod</text>
</a>
</g>
</g>
<!-- slantprofilelatlon_mod&#45;&gt;radvel_mod -->
<g id="edge8" class="edge">
<title>slantprofilelatlon_mod&#45;&gt;radvel_mod</title>
<path fill="none" stroke="black" d="M292.56,-628.78C320.59,-604.28 366,-556.5 366,-504 366,-504 366,-504 366,-214 366,-174 366,-127.65 366,-99.08"/>
<polygon fill="black" stroke="black" points="369.5,-99.05 366,-89.05 362.5,-99.05 369.5,-99.05"/>
</g>
<!-- tovs_nl_mod -->
<g id="node10" class="node">
<title>tovs_nl_mod</title>
<g id="a_node10"><a xlink:href="../modules/tovs_nl_mod.svg" xlink:title="tovs_nl_mod">
<polygon fill="none" stroke="red" points="481.5,-593 394.5,-593 394.5,-557 481.5,-557 481.5,-593"/>
<text text-anchor="middle" x="438" y="-571.3" font-family="Times,serif" font-size="14.00">tovs_nl_mod</text>
</a>
</g>
</g>
<!-- slantprofilelatlon_mod&#45;&gt;tovs_nl_mod -->
<g id="edge9" class="edge">
<title>slantprofilelatlon_mod&#45;&gt;tovs_nl_mod</title>
<path fill="none" stroke="black" d="M311.85,-628.88C334.78,-619.26 363.58,-607.19 387.87,-597.01"/>
<polygon fill="black" stroke="black" points="389.41,-600.16 397.28,-593.07 386.7,-593.71 389.41,-600.16"/>
</g>
<!-- utilities_mod -->
<g id="node11" class="node">
<title>utilities_mod</title>
<g id="a_node11"><a xlink:href="../modules/utilities_mod.svg" xlink:title="utilities_mod">
<polygon fill="none" stroke="red" points="554,-521 466,-521 466,-485 554,-485 554,-521"/>
<text text-anchor="middle" x="510" y="-499.3" font-family="Times,serif" font-size="14.00">utilities_mod</text>
</a>
</g>
</g>
<!-- slantprofilelatlon_mod&#45;&gt;utilities_mod -->
<g id="edge10" class="edge">
<title>slantprofilelatlon_mod&#45;&gt;utilities_mod</title>
<path fill="none" stroke="black" d="M340.02,-637.32C396.09,-628.86 469.19,-614.16 490,-593 505.84,-576.9 510.24,-551.12 511.03,-531.44"/>
<polygon fill="black" stroke="black" points="514.53,-531.28 511.14,-521.24 507.53,-531.2 514.53,-531.28"/>
</g>
</g>
</svg>
