<?xml version="1.0" encoding="UTF-8" standalone="no"?>
<!DOCTYPE svg PUBLIC "-//W3C//DTD SVG 1.1//EN"
 "http://www.w3.org/Graphics/SVG/1.1/DTD/svg11.dtd">
<!-- Generated by graphviz version 3.0.0 (20220315.2325)
 -->
<!-- Title: spectralfilter_mod Pages: 1 -->
<svg width="430pt" height="241pt"
 viewBox="0.00 0.00 430.00 241.00" xmlns="http://www.w3.org/2000/svg" xmlns:xlink="http://www.w3.org/1999/xlink">
<g id="graph0" class="graph" transform="scale(1 1) rotate(0) translate(4 237)">
<title>spectralfilter_mod</title>
<polygon fill="white" stroke="transparent" points="-4,4 -4,-237 426,-237 426,4 -4,4"/>
<text text-anchor="middle" x="211" y="-217.8" font-family="Times,serif" font-size="14.00">Blue boxes indicate modules with reverse dependencies not shown</text>
<text text-anchor="middle" x="211" y="-202.8" font-family="Times,serif" font-size="14.00">Higher level reverse dependencies can be shown by clicking on a blue box</text>
<text text-anchor="middle" x="211" y="-187.8" font-family="Times,serif" font-size="14.00">Green boxes are programs</text>
<!-- spectralfilter_mod -->
<g id="node1" class="node">
<title>spectralfilter_mod</title>
<g id="a_node1"><a xlink:href="spectralfilter_mod.html" xlink:title="spectralfilter_mod">
<polygon fill="none" stroke="black" points="275.5,-36 161.5,-36 161.5,0 275.5,0 275.5,-36"/>
<text text-anchor="middle" x="218.5" y="-14.3" font-family="Times,serif" font-size="14.00">spectralfilter_mod</text>
</a>
</g>
</g>
<!-- bmatrixensemble_mod -->
<g id="node2" class="node">
<title>bmatrixensemble_mod</title>
<g id="a_node2"><a xlink:href="../modules/bmatrixensemble_mod_rev.svg" xlink:title="bmatrixensemble_mod">
<polygon fill="none" stroke="blue" points="239.5,-108 99.5,-108 99.5,-72 239.5,-72 239.5,-108"/>
<text text-anchor="middle" x="169.5" y="-86.3" font-family="Times,serif" font-size="14.00">bmatrixensemble_mod</text>
</a>
</g>
</g>
<!-- bmatrixensemble_mod&#45;&gt;spectralfilter_mod -->
<g id="edge1" class="edge">
<title>bmatrixensemble_mod&#45;&gt;spectralfilter_mod</title>
<path fill="none" stroke="black" d="M186.28,-65.03C192.93,-55.52 200.44,-44.8 206.53,-36.1"/>
<ellipse fill="black" stroke="black" cx="183.91" cy="-68.42" rx="4" ry="4"/>
</g>
<!-- calcstatsglb_mod -->
<g id="node3" class="node">
<title>calcstatsglb_mod</title>
<g id="a_node3"><a xlink:href="../modules/calcstatsglb_mod_rev.svg" xlink:title="calcstatsglb_mod">
<polygon fill="none" stroke="blue" points="322.5,-180 212.5,-180 212.5,-144 322.5,-144 322.5,-180"/>
<text text-anchor="middle" x="267.5" y="-158.3" font-family="Times,serif" font-size="14.00">calcstatsglb_mod</text>
</a>
</g>
</g>
<!-- calcstatsglb_mod&#45;&gt;spectralfilter_mod -->
<g id="edge2" class="edge">
<title>calcstatsglb_mod&#45;&gt;spectralfilter_mod</title>
<path fill="none" stroke="black" d="M264.17,-135.51C261.3,-117.39 256.35,-92.69 248.5,-72 243.7,-59.35 236.2,-46.1 229.9,-36.01"/>
<ellipse fill="black" stroke="black" cx="264.82" cy="-139.87" rx="4" ry="4"/>
</g>
</g>
</svg>
