<?xml version="1.0" encoding="UTF-8" standalone="no"?>
<!DOCTYPE svg PUBLIC "-//W3C//DTD SVG 1.1//EN"
 "http://www.w3.org/Graphics/SVG/1.1/DTD/svg11.dtd">
<!-- Generated by graphviz version 3.0.0 (20220315.2325)
 -->
<!-- Title: sqlitefiles_mod Pages: 1 -->
<svg width="558pt" height="673pt"
 viewBox="0.00 0.00 558.00 673.00" xmlns="http://www.w3.org/2000/svg" xmlns:xlink="http://www.w3.org/1999/xlink">
<g id="graph0" class="graph" transform="scale(1 1) rotate(0) translate(4 669)">
<title>sqlitefiles_mod</title>
<polygon fill="white" stroke="transparent" points="-4,4 -4,-669 554,-669 554,4 -4,4"/>
<text text-anchor="middle" x="275" y="-37.8" font-family="Times,serif" font-size="14.00">Red boxes indicate modules with dependencies not shown</text>
<text text-anchor="middle" x="275" y="-22.8" font-family="Times,serif" font-size="14.00">Lower level dependencies can be shown by clicking on a red box</text>
<text text-anchor="middle" x="275" y="-7.8" font-family="Times,serif" font-size="14.00">Shaded boxes indicate modules with no dependencies</text>
<!-- sqlitefiles_mod -->
<g id="node1" class="node">
<title>sqlitefiles_mod</title>
<g id="a_node1"><a xlink:href="sqlitefiles_mod.html" xlink:title="sqlitefiles_mod">
<polygon fill="none" stroke="black" points="349.5,-665 250.5,-665 250.5,-629 349.5,-629 349.5,-665"/>
<text text-anchor="middle" x="300" y="-643.3" font-family="Times,serif" font-size="14.00">sqlitefiles_mod</text>
</a>
</g>
</g>
<!-- codeprecision_mod -->
<g id="node2" class="node">
<title>codeprecision_mod</title>
<g id="a_node2"><a xlink:href="codeprecision_mod.html" xlink:title="codeprecision_mod">
<polygon fill="gray" stroke="black" points="122,-593 0,-593 0,-557 122,-557 122,-593"/>
<text text-anchor="middle" x="61" y="-571.3" font-family="Times,serif" font-size="14.00">codeprecision_mod</text>
</a>
</g>
</g>
<!-- sqlitefiles_mod&#45;&gt;codeprecision_mod -->
<g id="edge1" class="edge">
<title>sqlitefiles_mod&#45;&gt;codeprecision_mod</title>
<path fill="none" stroke="black" d="M250.48,-631.5C215.31,-621.2 167.66,-607.24 128.94,-595.9"/>
<polygon fill="black" stroke="black" points="129.89,-592.53 119.31,-593.08 127.92,-599.25 129.89,-592.53"/>
</g>
<!-- ensembleobservations_mod -->
<g id="node3" class="node">
<title>ensembleobservations_mod</title>
<g id="a_node3"><a xlink:href="../modules/ensembleobservations_mod.svg" xlink:title="ensembleobservations_mod">
<polygon fill="none" stroke="red" points="196,-521 30,-521 30,-485 196,-485 196,-521"/>
<text text-anchor="middle" x="113" y="-499.3" font-family="Times,serif" font-size="14.00">ensembleobservations_mod</text>
</a>
</g>
</g>
<!-- sqlitefiles_mod&#45;&gt;ensembleobservations_mod -->
<g id="edge2" class="edge">
<title>sqlitefiles_mod&#45;&gt;ensembleobservations_mod</title>
<path fill="none" stroke="black" d="M267.3,-628.93C249.75,-619.23 228.07,-606.38 210,-593 183.36,-573.28 155.78,-547.34 136.87,-528.56"/>
<polygon fill="black" stroke="black" points="139.11,-525.85 129.57,-521.24 134.15,-530.79 139.11,-525.85"/>
</g>
<!-- mathphysconstants_mod -->
<g id="node4" class="node">
<title>mathphysconstants_mod</title>
<g id="a_node4"><a xlink:href="mathphysconstants_mod.html" xlink:title="mathphysconstants_mod">
<polygon fill="gray" stroke="black" points="234,-449 84,-449 84,-413 234,-413 234,-449"/>
<text text-anchor="middle" x="159" y="-427.3" font-family="Times,serif" font-size="14.00">mathphysconstants_mod</text>
</a>
</g>
</g>
<!-- sqlitefiles_mod&#45;&gt;mathphysconstants_mod -->
<g id="edge3" class="edge">
<title>sqlitefiles_mod&#45;&gt;mathphysconstants_mod</title>
<path fill="none" stroke="black" d="M279.74,-628.94C269.2,-619.25 256.72,-606.39 248,-593 219.8,-549.71 231.87,-529.13 205,-485 199.05,-475.22 191.27,-465.48 183.8,-457.07"/>
<polygon fill="black" stroke="black" points="186.15,-454.45 176.81,-449.45 180.99,-459.18 186.15,-454.45"/>
</g>
<!-- obsspacedata_mod -->
<g id="node5" class="node">
<title>obsspacedata_mod</title>
<g id="a_node5"><a xlink:href="../modules/obsspacedata_mod.svg" xlink:title="obsspacedata_mod">
<polygon fill="none" stroke="red" points="272,-377 154,-377 154,-341 272,-341 272,-377"/>
<text text-anchor="middle" x="213" y="-355.3" font-family="Times,serif" font-size="14.00">obsspacedata_mod</text>
</a>
</g>
</g>
<!-- sqlitefiles_mod&#45;&gt;obsspacedata_mod -->
<g id="edge4" class="edge">
<title>sqlitefiles_mod&#45;&gt;obsspacedata_mod</title>
<path fill="none" stroke="black" d="M295.36,-628.84C292.58,-618.48 289.02,-605 286,-593 265.94,-513.23 273.11,-489.54 243,-413 239.36,-403.75 234.35,-394.15 229.47,-385.7"/>
<polygon fill="black" stroke="black" points="232.43,-383.83 224.28,-377.05 226.42,-387.43 232.43,-383.83"/>
</g>
<!-- obsutil_mod -->
<g id="node6" class="node">
<title>obsutil_mod</title>
<g id="a_node6"><a xlink:href="../modules/obsutil_mod.svg" xlink:title="obsutil_mod">
<polygon fill="none" stroke="red" points="309.5,-305 226.5,-305 226.5,-269 309.5,-269 309.5,-305"/>
<text text-anchor="middle" x="268" y="-283.3" font-family="Times,serif" font-size="14.00">obsutil_mod</text>
</a>
</g>
</g>
<!-- sqlitefiles_mod&#45;&gt;obsutil_mod -->
<g id="edge5" class="edge">
<title>sqlitefiles_mod&#45;&gt;obsutil_mod</title>
<path fill="none" stroke="black" d="M300,-628.95C300,-602.29 300,-549.11 300,-504 300,-504 300,-504 300,-430 300,-389.04 287.17,-343.02 277.76,-314.77"/>
<polygon fill="black" stroke="black" points="281.03,-313.53 274.48,-305.21 274.41,-315.8 281.03,-313.53"/>
</g>
<!-- obsvariabletransforms_mod -->
<g id="node7" class="node">
<title>obsvariabletransforms_mod</title>
<g id="a_node7"><a xlink:href="../modules/obsvariabletransforms_mod.svg" xlink:title="obsvariabletransforms_mod">
<polygon fill="none" stroke="red" points="348,-233 182,-233 182,-197 348,-197 348,-233"/>
<text text-anchor="middle" x="265" y="-211.3" font-family="Times,serif" font-size="14.00">obsvariabletransforms_mod</text>
</a>
</g>
</g>
<!-- sqlitefiles_mod&#45;&gt;obsvariabletransforms_mod -->
<g id="edge6" class="edge">
<title>sqlitefiles_mod&#45;&gt;obsvariabletransforms_mod</title>
<path fill="none" stroke="black" d="M307.69,-628.91C318.79,-602.62 338,-550.45 338,-504 338,-504 338,-504 338,-358 338,-317.46 337.55,-304.52 318,-269 312.13,-258.33 303.47,-248.38 294.84,-240.05"/>
<polygon fill="black" stroke="black" points="297.07,-237.35 287.34,-233.16 292.34,-242.5 297.07,-237.35"/>
</g>
<!-- sqliteread_mod -->
<g id="node8" class="node">
<title>sqliteread_mod</title>
<g id="a_node8"><a xlink:href="../modules/sqliteread_mod.svg" xlink:title="sqliteread_mod">
<polygon fill="none" stroke="red" points="406,-161 306,-161 306,-125 406,-125 406,-161"/>
<text text-anchor="middle" x="356" y="-139.3" font-family="Times,serif" font-size="14.00">sqliteread_mod</text>
</a>
</g>
</g>
<!-- sqlitefiles_mod&#45;&gt;sqliteread_mod -->
<g id="edge7" class="edge">
<title>sqlitefiles_mod&#45;&gt;sqliteread_mod</title>
<path fill="none" stroke="black" d="M316.49,-628.77C338.84,-603.53 376,-554.05 376,-504 376,-504 376,-504 376,-286 376,-245.82 368.05,-199.87 362.18,-171.39"/>
<polygon fill="black" stroke="black" points="365.55,-170.43 360.05,-161.38 358.7,-171.89 365.55,-170.43"/>
</g>
<!-- timecoord_mod -->
<g id="node9" class="node">
<title>timecoord_mod</title>
<g id="a_node9"><a xlink:href="../modules/timecoord_mod.svg" xlink:title="timecoord_mod">
<polygon fill="none" stroke="red" points="485,-89 383,-89 383,-53 485,-53 485,-89"/>
<text text-anchor="middle" x="434" y="-67.3" font-family="Times,serif" font-size="14.00">timecoord_mod</text>
</a>
</g>
</g>
<!-- sqlitefiles_mod&#45;&gt;timecoord_mod -->
<g id="edge8" class="edge">
<title>sqlitefiles_mod&#45;&gt;timecoord_mod</title>
<path fill="none" stroke="black" d="M333.81,-629C373.51,-606.36 434,-562.3 434,-504 434,-504 434,-504 434,-214 434,-174 434,-127.65 434,-99.08"/>
<polygon fill="black" stroke="black" points="437.5,-99.05 434,-89.05 430.5,-99.05 437.5,-99.05"/>
</g>
<!-- utilities_mod -->
<g id="node10" class="node">
<title>utilities_mod</title>
<g id="a_node10"><a xlink:href="../modules/utilities_mod.svg" xlink:title="utilities_mod">
<polygon fill="none" stroke="red" points="550,-593 462,-593 462,-557 550,-557 550,-593"/>
<text text-anchor="middle" x="506" y="-571.3" font-family="Times,serif" font-size="14.00">utilities_mod</text>
</a>
</g>
</g>
<!-- sqlitefiles_mod&#45;&gt;utilities_mod -->
<g id="edge9" class="edge">
<title>sqlitefiles_mod&#45;&gt;utilities_mod</title>
<path fill="none" stroke="black" d="M349.6,-629.14C380.57,-618.62 420.43,-605.08 452.16,-594.29"/>
<polygon fill="black" stroke="black" points="453.39,-597.57 461.73,-591.04 451.14,-590.95 453.39,-597.57"/>
</g>
</g>
</svg>
