<?xml version="1.0" encoding="UTF-8" standalone="no"?>
<!DOCTYPE svg PUBLIC "-//W3C//DTD SVG 1.1//EN"
 "http://www.w3.org/Graphics/SVG/1.1/DTD/svg11.dtd">
<!-- Generated by graphviz version 3.0.0 (20220315.2325)
 -->
<!-- Title: sqliteread_mod Pages: 1 -->
<svg width="806pt" height="673pt"
 viewBox="0.00 0.00 806.00 673.00" xmlns="http://www.w3.org/2000/svg" xmlns:xlink="http://www.w3.org/1999/xlink">
<g id="graph0" class="graph" transform="scale(1 1) rotate(0) translate(4 669)">
<title>sqliteread_mod</title>
<polygon fill="white" stroke="transparent" points="-4,4 -4,-669 802,-669 802,4 -4,4"/>
<text text-anchor="middle" x="399" y="-37.8" font-family="Times,serif" font-size="14.00">Red boxes indicate modules with dependencies not shown</text>
<text text-anchor="middle" x="399" y="-22.8" font-family="Times,serif" font-size="14.00">Lower level dependencies can be shown by clicking on a red box</text>
<text text-anchor="middle" x="399" y="-7.8" font-family="Times,serif" font-size="14.00">Shaded boxes indicate modules with no dependencies</text>
<!-- sqliteread_mod -->
<g id="node1" class="node">
<title>sqliteread_mod</title>
<g id="a_node1"><a xlink:href="sqliteread_mod.html" xlink:title="sqliteread_mod">
<polygon fill="none" stroke="black" points="363,-665 263,-665 263,-629 363,-629 363,-665"/>
<text text-anchor="middle" x="313" y="-643.3" font-family="Times,serif" font-size="14.00">sqliteread_mod</text>
</a>
</g>
</g>
<!-- bufr_mod -->
<g id="node2" class="node">
<title>bufr_mod</title>
<g id="a_node2"><a xlink:href="bufr_mod.html" xlink:title="bufr_mod">
<polygon fill="gray" stroke="black" points="70,-593 0,-593 0,-557 70,-557 70,-593"/>
<text text-anchor="middle" x="35" y="-571.3" font-family="Times,serif" font-size="14.00">bufr_mod</text>
</a>
</g>
</g>
<!-- sqliteread_mod&#45;&gt;bufr_mod -->
<g id="edge1" class="edge">
<title>sqliteread_mod&#45;&gt;bufr_mod</title>
<path fill="none" stroke="black" d="M262.57,-635.94C215.91,-626.26 144.78,-610.52 84,-593 82.59,-592.59 81.17,-592.17 79.73,-591.74"/>
<polygon fill="black" stroke="black" points="80.78,-588.4 70.19,-588.71 78.66,-595.07 80.78,-588.4"/>
</g>
<!-- codeprecision_mod -->
<g id="node3" class="node">
<title>codeprecision_mod</title>
<g id="a_node3"><a xlink:href="codeprecision_mod.html" xlink:title="codeprecision_mod">
<polygon fill="gray" stroke="black" points="133,-521 11,-521 11,-485 133,-485 133,-521"/>
<text text-anchor="middle" x="72" y="-499.3" font-family="Times,serif" font-size="14.00">codeprecision_mod</text>
</a>
</g>
</g>
<!-- sqliteread_mod&#45;&gt;codeprecision_mod -->
<g id="edge2" class="edge">
<title>sqliteread_mod&#45;&gt;codeprecision_mod</title>
<path fill="none" stroke="black" d="M262.95,-637.65C228.21,-630.1 182.07,-616.47 147,-593 122.39,-576.53 101.38,-549.75 87.91,-529.86"/>
<polygon fill="black" stroke="black" points="90.68,-527.71 82.27,-521.27 84.83,-531.55 90.68,-527.71"/>
</g>
<!-- codtyp_mod -->
<g id="node4" class="node">
<title>codtyp_mod</title>
<g id="a_node4"><a xlink:href="../modules/codtyp_mod.svg" xlink:title="codtyp_mod">
<polygon fill="none" stroke="red" points="171,-449 87,-449 87,-413 171,-413 171,-449"/>
<text text-anchor="middle" x="129" y="-427.3" font-family="Times,serif" font-size="14.00">codtyp_mod</text>
</a>
</g>
</g>
<!-- sqliteread_mod&#45;&gt;codtyp_mod -->
<g id="edge3" class="edge">
<title>sqliteread_mod&#45;&gt;codtyp_mod</title>
<path fill="none" stroke="black" d="M262.96,-635.74C236.64,-628.01 205.64,-614.86 185,-593 166.41,-573.3 145.77,-499.45 135.52,-458.96"/>
<polygon fill="black" stroke="black" points="138.9,-458.06 133.09,-449.21 132.11,-459.76 138.9,-458.06"/>
</g>
<!-- mathphysconstants_mod -->
<g id="node5" class="node">
<title>mathphysconstants_mod</title>
<g id="a_node5"><a xlink:href="mathphysconstants_mod.html" xlink:title="mathphysconstants_mod">
<polygon fill="gray" stroke="black" points="209,-377 59,-377 59,-341 209,-341 209,-377"/>
<text text-anchor="middle" x="134" y="-355.3" font-family="Times,serif" font-size="14.00">mathphysconstants_mod</text>
</a>
</g>
</g>
<!-- sqliteread_mod&#45;&gt;mathphysconstants_mod -->
<g id="edge4" class="edge">
<title>sqliteread_mod&#45;&gt;mathphysconstants_mod</title>
<path fill="none" stroke="black" d="M268.75,-628.89C252.15,-620.42 234.53,-608.6 223,-593 174.11,-526.86 217.59,-486.16 180,-413 174.71,-402.71 167.02,-392.77 159.44,-384.32"/>
<polygon fill="black" stroke="black" points="161.97,-381.91 152.57,-377.02 156.87,-386.71 161.97,-381.91"/>
</g>
<!-- midasmpi_mod -->
<g id="node6" class="node">
<title>midasmpi_mod</title>
<g id="a_node6"><a xlink:href="../modules/midasmpi_mod.svg" xlink:title="midasmpi_mod">
<polygon fill="none" stroke="red" points="246.5,-305 145.5,-305 145.5,-269 246.5,-269 246.5,-305"/>
<text text-anchor="middle" x="196" y="-283.3" font-family="Times,serif" font-size="14.00">midasmpi_mod</text>
</a>
</g>
</g>
<!-- sqliteread_mod&#45;&gt;midasmpi_mod -->
<g id="edge5" class="edge">
<title>sqliteread_mod&#45;&gt;midasmpi_mod</title>
<path fill="none" stroke="black" d="M291.59,-628.86C280.99,-619.33 268.81,-606.65 261,-593 240.66,-557.44 237,-544.97 237,-504 237,-504 237,-504 237,-430 237,-388.41 220.56,-342.56 208.5,-314.51"/>
<polygon fill="black" stroke="black" points="211.55,-312.75 204.3,-305.03 205.15,-315.59 211.55,-312.75"/>
</g>
<!-- obsfilter_mod -->
<g id="node7" class="node">
<title>obsfilter_mod</title>
<g id="a_node7"><a xlink:href="../modules/obsfilter_mod.svg" xlink:title="obsfilter_mod">
<polygon fill="none" stroke="red" points="285,-233 193,-233 193,-197 285,-197 285,-233"/>
<text text-anchor="middle" x="239" y="-211.3" font-family="Times,serif" font-size="14.00">obsfilter_mod</text>
</a>
</g>
</g>
<!-- sqliteread_mod&#45;&gt;obsfilter_mod -->
<g id="edge6" class="edge">
<title>sqliteread_mod&#45;&gt;obsfilter_mod</title>
<path fill="none" stroke="black" d="M305.31,-628.91C294.21,-602.62 275,-550.45 275,-504 275,-504 275,-504 275,-358 275,-316.78 260.57,-270.83 249.98,-242.66"/>
<polygon fill="black" stroke="black" points="253.16,-241.19 246.29,-233.13 246.64,-243.72 253.16,-241.19"/>
</g>
<!-- obsspacedata_mod -->
<g id="node8" class="node">
<title>obsspacedata_mod</title>
<g id="a_node8"><a xlink:href="../modules/obsspacedata_mod.svg" xlink:title="obsspacedata_mod">
<polygon fill="none" stroke="red" points="323,-161 205,-161 205,-125 323,-125 323,-161"/>
<text text-anchor="middle" x="264" y="-139.3" font-family="Times,serif" font-size="14.00">obsspacedata_mod</text>
</a>
</g>
</g>
<!-- sqliteread_mod&#45;&gt;obsspacedata_mod -->
<g id="edge7" class="edge">
<title>sqliteread_mod&#45;&gt;obsspacedata_mod</title>
<path fill="none" stroke="black" d="M313,-628.95C313,-602.29 313,-549.11 313,-504 313,-504 313,-504 313,-286 313,-245.55 308.35,-234.82 294,-197 290.47,-187.71 285.49,-178.09 280.6,-169.65"/>
<polygon fill="black" stroke="black" points="283.56,-167.77 275.4,-161.01 277.56,-171.38 283.56,-167.77"/>
</g>
<!-- obsutil_mod -->
<g id="node9" class="node">
<title>obsutil_mod</title>
<g id="a_node9"><a xlink:href="../modules/obsutil_mod.svg" xlink:title="obsutil_mod">
<polygon fill="none" stroke="red" points="392.5,-89 309.5,-89 309.5,-53 392.5,-53 392.5,-89"/>
<text text-anchor="middle" x="351" y="-67.3" font-family="Times,serif" font-size="14.00">obsutil_mod</text>
</a>
</g>
</g>
<!-- sqliteread_mod&#45;&gt;obsutil_mod -->
<g id="edge8" class="edge">
<title>sqliteread_mod&#45;&gt;obsutil_mod</title>
<path fill="none" stroke="black" d="M320.69,-628.91C331.79,-602.62 351,-550.45 351,-504 351,-504 351,-504 351,-214 351,-174 351,-127.65 351,-99.08"/>
<polygon fill="black" stroke="black" points="354.5,-99.05 351,-89.05 347.5,-99.05 354.5,-99.05"/>
</g>
<!-- obsvariabletransforms_mod -->
<g id="node10" class="node">
<title>obsvariabletransforms_mod</title>
<g id="a_node10"><a xlink:href="../modules/obsvariabletransforms_mod.svg" xlink:title="obsvariabletransforms_mod">
<polygon fill="none" stroke="red" points="545,-593 379,-593 379,-557 545,-557 545,-593"/>
<text text-anchor="middle" x="462" y="-571.3" font-family="Times,serif" font-size="14.00">obsvariabletransforms_mod</text>
</a>
</g>
</g>
<!-- sqliteread_mod&#45;&gt;obsvariabletransforms_mod -->
<g id="edge9" class="edge">
<title>sqliteread_mod&#45;&gt;obsvariabletransforms_mod</title>
<path fill="none" stroke="black" d="M349.45,-628.88C369.64,-619.39 394.92,-607.51 416.41,-597.42"/>
<polygon fill="black" stroke="black" points="418.11,-600.49 425.67,-593.07 415.13,-594.15 418.11,-600.49"/>
</g>
<!-- radvel_mod -->
<g id="node11" class="node">
<title>radvel_mod</title>
<g id="a_node11"><a xlink:href="../modules/radvel_mod.svg" xlink:title="radvel_mod">
<polygon fill="none" stroke="red" points="583,-521 503,-521 503,-485 583,-485 583,-521"/>
<text text-anchor="middle" x="543" y="-499.3" font-family="Times,serif" font-size="14.00">radvel_mod</text>
</a>
</g>
</g>
<!-- sqliteread_mod&#45;&gt;radvel_mod -->
<g id="edge10" class="edge">
<title>sqliteread_mod&#45;&gt;radvel_mod</title>
<path fill="none" stroke="black" d="M363.06,-642.21C426.52,-636.25 530.51,-622.21 554,-593 567.96,-575.64 562.88,-549.89 555.68,-530.55"/>
<polygon fill="black" stroke="black" points="558.84,-529.02 551.82,-521.09 552.36,-531.67 558.84,-529.02"/>
</g>
<!-- ramdisk_mod -->
<g id="node12" class="node">
<title>ramdisk_mod</title>
<g id="a_node12"><a xlink:href="../modules/ramdisk_mod.svg" xlink:title="ramdisk_mod">
<polygon fill="none" stroke="red" points="638.5,-449 547.5,-449 547.5,-413 638.5,-413 638.5,-449"/>
<text text-anchor="middle" x="593" y="-427.3" font-family="Times,serif" font-size="14.00">ramdisk_mod</text>
</a>
</g>
</g>
<!-- sqliteread_mod&#45;&gt;ramdisk_mod -->
<g id="edge11" class="edge">
<title>sqliteread_mod&#45;&gt;ramdisk_mod</title>
<path fill="none" stroke="black" d="M363.25,-642C430.1,-635.66 543.32,-621.04 573,-593 609.15,-558.85 604.95,-495.22 598.86,-459.02"/>
<polygon fill="black" stroke="black" points="602.3,-458.35 597.04,-449.15 595.41,-459.62 602.3,-458.35"/>
</g>
<!-- sqliteutilities_mod -->
<g id="node13" class="node">
<title>sqliteutilities_mod</title>
<g id="a_node13"><a xlink:href="../modules/sqliteutilities_mod.svg" xlink:title="sqliteutilities_mod">
<polygon fill="none" stroke="red" points="725.5,-377 608.5,-377 608.5,-341 725.5,-341 725.5,-377"/>
<text text-anchor="middle" x="667" y="-355.3" font-family="Times,serif" font-size="14.00">sqliteutilities_mod</text>
</a>
</g>
</g>
<!-- sqliteread_mod&#45;&gt;sqliteutilities_mod -->
<g id="edge12" class="edge">
<title>sqliteread_mod&#45;&gt;sqliteutilities_mod</title>
<path fill="none" stroke="black" d="M363.08,-642.77C435.48,-637.11 564.48,-623.04 599,-593 659.58,-540.28 667.65,-436.92 667.82,-387.54"/>
<polygon fill="black" stroke="black" points="671.31,-387.28 667.74,-377.31 664.31,-387.33 671.31,-387.28"/>
</g>
<!-- utilities_mod -->
<g id="node14" class="node">
<title>utilities_mod</title>
<g id="a_node14"><a xlink:href="../modules/utilities_mod.svg" xlink:title="utilities_mod">
<polygon fill="none" stroke="red" points="798,-305 710,-305 710,-269 798,-269 798,-305"/>
<text text-anchor="middle" x="754" y="-283.3" font-family="Times,serif" font-size="14.00">utilities_mod</text>
</a>
</g>
</g>
<!-- sqliteread_mod&#45;&gt;utilities_mod -->
<g id="edge13" class="edge">
<title>sqliteread_mod&#45;&gt;utilities_mod</title>
<path fill="none" stroke="black" d="M363.17,-644.41C426.95,-640.87 539.42,-629.5 628,-593 691.39,-566.88 754,-572.56 754,-504 754,-504 754,-504 754,-430 754,-390 754,-343.65 754,-315.08"/>
<polygon fill="black" stroke="black" points="757.5,-315.05 754,-305.05 750.5,-315.05 757.5,-315.05"/>
</g>
</g>
</svg>
