<?xml version="1.0" encoding="UTF-8" standalone="no"?>
<!DOCTYPE svg PUBLIC "-//W3C//DTD SVG 1.1//EN"
 "http://www.w3.org/Graphics/SVG/1.1/DTD/svg11.dtd">
<!-- Generated by graphviz version 3.0.0 (20220315.2325)
 -->
<!-- Title: sqliteutilities_mod Pages: 1 -->
<svg width="430pt" height="385pt"
 viewBox="0.00 0.00 430.00 385.00" xmlns="http://www.w3.org/2000/svg" xmlns:xlink="http://www.w3.org/1999/xlink">
<g id="graph0" class="graph" transform="scale(1 1) rotate(0) translate(4 381)">
<title>sqliteutilities_mod</title>
<polygon fill="white" stroke="transparent" points="-4,4 -4,-381 426,-381 426,4 -4,4"/>
<text text-anchor="middle" x="211" y="-361.8" font-family="Times,serif" font-size="14.00">Blue boxes indicate modules with reverse dependencies not shown</text>
<text text-anchor="middle" x="211" y="-346.8" font-family="Times,serif" font-size="14.00">Higher level reverse dependencies can be shown by clicking on a blue box</text>
<text text-anchor="middle" x="211" y="-331.8" font-family="Times,serif" font-size="14.00">Green boxes are programs</text>
<!-- sqliteutilities_mod -->
<g id="node1" class="node">
<title>sqliteutilities_mod</title>
<g id="a_node1"><a xlink:href="sqliteutilities_mod.html" xlink:title="sqliteutilities_mod">
<polygon fill="none" stroke="black" points="283.5,-36 166.5,-36 166.5,0 283.5,0 283.5,-36"/>
<text text-anchor="middle" x="225" y="-14.3" font-family="Times,serif" font-size="14.00">sqliteutilities_mod</text>
</a>
</g>
</g>
<!-- obsdbfiles_mod -->
<g id="node2" class="node">
<title>obsdbfiles_mod</title>
<g id="a_node2"><a xlink:href="../modules/obsdbfiles_mod_rev.svg" xlink:title="obsdbfiles_mod">
<polygon fill="none" stroke="blue" points="155,-108 53,-108 53,-72 155,-72 155,-108"/>
<text text-anchor="middle" x="104" y="-86.3" font-family="Times,serif" font-size="14.00">obsdbfiles_mod</text>
</a>
</g>
</g>
<!-- obsdbfiles_mod&#45;&gt;sqliteutilities_mod -->
<g id="edge1" class="edge">
<title>obsdbfiles_mod&#45;&gt;sqliteutilities_mod</title>
<path fill="none" stroke="black" d="M140.86,-67.67C158.31,-57.58 178.86,-45.69 195.29,-36.19"/>
<ellipse fill="black" stroke="black" cx="137.06" cy="-69.87" rx="4" ry="4"/>
</g>
<!-- obsdiagfiles_mod -->
<g id="node3" class="node">
<title>obsdiagfiles_mod</title>
<g id="a_node3"><a xlink:href="../modules/obsdiagfiles_mod_rev.svg" xlink:title="obsdiagfiles_mod">
<polygon fill="none" stroke="blue" points="218,-180 106,-180 106,-144 218,-144 218,-180"/>
<text text-anchor="middle" x="162" y="-158.3" font-family="Times,serif" font-size="14.00">obsdiagfiles_mod</text>
</a>
</g>
</g>
<!-- obsdiagfiles_mod&#45;&gt;sqliteutilities_mod -->
<g id="edge2" class="edge">
<title>obsdiagfiles_mod&#45;&gt;sqliteutilities_mod</title>
<path fill="none" stroke="black" d="M172.96,-136.3C185.67,-107.65 206.29,-61.17 217.37,-36.19"/>
<ellipse fill="black" stroke="black" cx="171.22" cy="-140.22" rx="4" ry="4"/>
</g>
<!-- obsfiles_mod -->
<g id="node4" class="node">
<title>obsfiles_mod</title>
<g id="a_node4"><a xlink:href="../modules/obsfiles_mod_rev.svg" xlink:title="obsfiles_mod">
<polygon fill="none" stroke="blue" points="290.5,-252 201.5,-252 201.5,-216 290.5,-216 290.5,-252"/>
<text text-anchor="middle" x="246" y="-230.3" font-family="Times,serif" font-size="14.00">obsfiles_mod</text>
</a>
</g>
</g>
<!-- obsfiles_mod&#45;&gt;sqliteutilities_mod -->
<g id="edge3" class="edge">
<title>obsfiles_mod&#45;&gt;sqliteutilities_mod</title>
<path fill="none" stroke="black" d="M243.51,-207.67C239.19,-163.59 230.38,-73.87 226.69,-36.23"/>
<ellipse fill="black" stroke="black" cx="243.93" cy="-211.87" rx="4" ry="4"/>
</g>
<!-- sqliteread_mod -->
<g id="node5" class="node">
<title>sqliteread_mod</title>
<g id="a_node5"><a xlink:href="../modules/sqliteread_mod_rev.svg" xlink:title="sqliteread_mod">
<polygon fill="none" stroke="blue" points="369,-324 269,-324 269,-288 369,-288 369,-324"/>
<text text-anchor="middle" x="319" y="-302.3" font-family="Times,serif" font-size="14.00">sqliteread_mod</text>
</a>
</g>
</g>
<!-- sqliteread_mod&#45;&gt;sqliteutilities_mod -->
<g id="edge4" class="edge">
<title>sqliteread_mod&#45;&gt;sqliteutilities_mod</title>
<path fill="none" stroke="black" d="M314.17,-279.55C310.55,-261.63 305.17,-237.17 299,-216 279.95,-150.68 271.61,-135.44 247,-72 242.32,-59.93 236.72,-46.45 232.34,-36.1"/>
<ellipse fill="black" stroke="black" cx="315.02" cy="-283.85" rx="4" ry="4"/>
</g>
</g>
</svg>
