<?xml version="1.0" encoding="UTF-8" standalone="no"?>
<!DOCTYPE svg PUBLIC "-//W3C//DTD SVG 1.1//EN"
 "http://www.w3.org/Graphics/SVG/1.1/DTD/svg11.dtd">
<!-- Generated by graphviz version 3.0.0 (20220315.2325)
 -->
<!-- Title: sqliteutilities_mod Pages: 1 -->
<svg width="424pt" height="457pt"
 viewBox="0.00 0.00 423.50 457.00" xmlns="http://www.w3.org/2000/svg" xmlns:xlink="http://www.w3.org/1999/xlink">
<g id="graph0" class="graph" transform="scale(1 1) rotate(0) translate(4 453)">
<title>sqliteutilities_mod</title>
<polygon fill="white" stroke="transparent" points="-4,4 -4,-453 419.5,-453 419.5,4 -4,4"/>
<text text-anchor="middle" x="207.75" y="-37.8" font-family="Times,serif" font-size="14.00">Red boxes indicate modules with dependencies not shown</text>
<text text-anchor="middle" x="207.75" y="-22.8" font-family="Times,serif" font-size="14.00">Lower level dependencies can be shown by clicking on a red box</text>
<text text-anchor="middle" x="207.75" y="-7.8" font-family="Times,serif" font-size="14.00">Shaded boxes indicate modules with no dependencies</text>
<!-- sqliteutilities_mod -->
<g id="node1" class="node">
<title>sqliteutilities_mod</title>
<g id="a_node1"><a xlink:href="sqliteutilities_mod.html" xlink:title="sqliteutilities_mod">
<polygon fill="none" stroke="black" points="284,-449 167,-449 167,-413 284,-413 284,-449"/>
<text text-anchor="middle" x="225.5" y="-427.3" font-family="Times,serif" font-size="14.00">sqliteutilities_mod</text>
</a>
</g>
</g>
<!-- clib_interfaces_mod -->
<g id="node2" class="node">
<title>clib_interfaces_mod</title>
<g id="a_node2"><a xlink:href="clib_interfaces_mod.html" xlink:title="clib_interfaces_mod">
<polygon fill="gray" stroke="black" points="127,-377 0,-377 0,-341 127,-341 127,-377"/>
<text text-anchor="middle" x="63.5" y="-355.3" font-family="Times,serif" font-size="14.00">clib_interfaces_mod</text>
</a>
</g>
</g>
<!-- sqliteutilities_mod&#45;&gt;clib_interfaces_mod -->
<g id="edge1" class="edge">
<title>sqliteutilities_mod&#45;&gt;clib_interfaces_mod</title>
<path fill="none" stroke="black" d="M185.87,-412.88C163.72,-403.31 135.94,-391.3 112.44,-381.15"/>
<polygon fill="black" stroke="black" points="113.57,-377.82 103,-377.07 110.79,-384.25 113.57,-377.82"/>
</g>
<!-- mathphysconstants_mod -->
<g id="node3" class="node">
<title>mathphysconstants_mod</title>
<g id="a_node3"><a xlink:href="mathphysconstants_mod.html" xlink:title="mathphysconstants_mod">
<polygon fill="gray" stroke="black" points="197.5,-305 47.5,-305 47.5,-269 197.5,-269 197.5,-305"/>
<text text-anchor="middle" x="122.5" y="-283.3" font-family="Times,serif" font-size="14.00">mathphysconstants_mod</text>
</a>
</g>
</g>
<!-- sqliteutilities_mod&#45;&gt;mathphysconstants_mod -->
<g id="edge2" class="edge">
<title>sqliteutilities_mod&#45;&gt;mathphysconstants_mod</title>
<path fill="none" stroke="black" d="M213.08,-412.87C195.13,-388.14 161.84,-342.24 141.01,-313.51"/>
<polygon fill="black" stroke="black" points="143.67,-311.23 134.97,-305.19 138.01,-315.34 143.67,-311.23"/>
</g>
<!-- midasmpi_mod -->
<g id="node4" class="node">
<title>midasmpi_mod</title>
<g id="a_node4"><a xlink:href="../modules/midasmpi_mod.svg" xlink:title="midasmpi_mod">
<polygon fill="none" stroke="red" points="256,-233 155,-233 155,-197 256,-197 256,-233"/>
<text text-anchor="middle" x="205.5" y="-211.3" font-family="Times,serif" font-size="14.00">midasmpi_mod</text>
</a>
</g>
</g>
<!-- sqliteutilities_mod&#45;&gt;midasmpi_mod -->
<g id="edge3" class="edge">
<title>sqliteutilities_mod&#45;&gt;midasmpi_mod</title>
<path fill="none" stroke="black" d="M223.9,-412.85C220.44,-375.83 212.25,-288.18 208.06,-243.39"/>
<polygon fill="black" stroke="black" points="211.53,-242.86 207.11,-233.23 204.56,-243.51 211.53,-242.86"/>
</g>
<!-- obsspacedata_mod -->
<g id="node5" class="node">
<title>obsspacedata_mod</title>
<g id="a_node5"><a xlink:href="../modules/obsspacedata_mod.svg" xlink:title="obsspacedata_mod">
<polygon fill="none" stroke="red" points="343.5,-161 225.5,-161 225.5,-125 343.5,-125 343.5,-161"/>
<text text-anchor="middle" x="284.5" y="-139.3" font-family="Times,serif" font-size="14.00">obsspacedata_mod</text>
</a>
</g>
</g>
<!-- sqliteutilities_mod&#45;&gt;obsspacedata_mod -->
<g id="edge4" class="edge">
<title>sqliteutilities_mod&#45;&gt;obsspacedata_mod</title>
<path fill="none" stroke="black" d="M229.01,-412.97C238.87,-365.19 266.84,-229.62 278.88,-171.27"/>
<polygon fill="black" stroke="black" points="282.34,-171.81 280.93,-161.31 275.48,-170.39 282.34,-171.81"/>
</g>
<!-- utilities_mod -->
<g id="node6" class="node">
<title>utilities_mod</title>
<g id="a_node6"><a xlink:href="../modules/utilities_mod.svg" xlink:title="utilities_mod">
<polygon fill="none" stroke="red" points="415.5,-89 327.5,-89 327.5,-53 415.5,-53 415.5,-89"/>
<text text-anchor="middle" x="371.5" y="-67.3" font-family="Times,serif" font-size="14.00">utilities_mod</text>
</a>
</g>
</g>
<!-- sqliteutilities_mod&#45;&gt;utilities_mod -->
<g id="edge5" class="edge">
<title>sqliteutilities_mod&#45;&gt;utilities_mod</title>
<path fill="none" stroke="black" d="M264.24,-412.85C307.5,-390.75 371.5,-347.93 371.5,-288 371.5,-288 371.5,-288 371.5,-214 371.5,-174 371.5,-127.65 371.5,-99.08"/>
<polygon fill="black" stroke="black" points="375,-99.05 371.5,-89.05 368,-99.05 375,-99.05"/>
</g>
</g>
</svg>
