<?xml version="1.0" encoding="UTF-8" standalone="no"?>
<!DOCTYPE svg PUBLIC "-//W3C//DTD SVG 1.1//EN"
 "http://www.w3.org/Graphics/SVG/1.1/DTD/svg11.dtd">
<!-- Generated by graphviz version 3.0.0 (20220315.2325)
 -->
<!-- Title: sqliteread_mod Pages: 1 -->
<svg width="430pt" height="241pt"
 viewBox="0.00 0.00 430.00 241.00" xmlns="http://www.w3.org/2000/svg" xmlns:xlink="http://www.w3.org/1999/xlink">
<g id="graph0" class="graph" transform="scale(1 1) rotate(0) translate(4 237)">
<title>sqliteread_mod</title>
<polygon fill="white" stroke="transparent" points="-4,4 -4,-237 426,-237 426,4 -4,4"/>
<text text-anchor="middle" x="211" y="-217.8" font-family="Times,serif" font-size="14.00">Blue boxes indicate modules with reverse dependencies not shown</text>
<text text-anchor="middle" x="211" y="-202.8" font-family="Times,serif" font-size="14.00">Higher level reverse dependencies can be shown by clicking on a blue box</text>
<text text-anchor="middle" x="211" y="-187.8" font-family="Times,serif" font-size="14.00">Green boxes are programs</text>
<!-- sqliteread_mod -->
<g id="node1" class="node">
<title>sqliteread_mod</title>
<g id="a_node1"><a xlink:href="sqliteread_mod.html" xlink:title="sqliteread_mod">
<polygon fill="none" stroke="black" points="272.25,-36 172.25,-36 172.25,0 272.25,0 272.25,-36"/>
<text text-anchor="middle" x="222.25" y="-14.3" font-family="Times,serif" font-size="14.00">sqliteread_mod</text>
</a>
</g>
</g>
<!-- oceanobservations_mod -->
<g id="node2" class="node">
<title>oceanobservations_mod</title>
<g id="a_node2"><a xlink:href="../modules/oceanobservations_mod_rev.svg" xlink:title="oceanobservations_mod">
<polygon fill="none" stroke="blue" points="245.25,-108 99.25,-108 99.25,-72 245.25,-72 245.25,-108"/>
<text text-anchor="middle" x="172.25" y="-86.3" font-family="Times,serif" font-size="14.00">oceanobservations_mod</text>
</a>
</g>
</g>
<!-- oceanobservations_mod&#45;&gt;sqliteread_mod -->
<g id="edge1" class="edge">
<title>oceanobservations_mod&#45;&gt;sqliteread_mod</title>
<path fill="none" stroke="black" d="M189.37,-65.03C196.16,-55.52 203.82,-44.8 210.03,-36.1"/>
<ellipse fill="black" stroke="black" cx="186.93" cy="-68.44" rx="4" ry="4"/>
</g>
<!-- sqlitefiles_mod -->
<g id="node3" class="node">
<title>sqlitefiles_mod</title>
<g id="a_node3"><a xlink:href="../modules/sqlitefiles_mod_rev.svg" xlink:title="sqlitefiles_mod">
<polygon fill="none" stroke="blue" points="322.75,-180 223.75,-180 223.75,-144 322.75,-144 322.75,-180"/>
<text text-anchor="middle" x="273.25" y="-158.3" font-family="Times,serif" font-size="14.00">sqlitefiles_mod</text>
</a>
</g>
</g>
<!-- sqlitefiles_mod&#45;&gt;sqliteread_mod -->
<g id="edge2" class="edge">
<title>sqlitefiles_mod&#45;&gt;sqliteread_mod</title>
<path fill="none" stroke="black" d="M270.1,-135.44C267.31,-117.28 262.39,-92.58 254.25,-72 249.27,-59.41 241.44,-46.37 234.77,-36.38"/>
<ellipse fill="black" stroke="black" cx="270.73" cy="-139.82" rx="4" ry="4"/>
</g>
</g>
</svg>
