<?xml version="1.0" encoding="UTF-8" standalone="no"?>
<!DOCTYPE svg PUBLIC "-//W3C//DTD SVG 1.1//EN"
 "http://www.w3.org/Graphics/SVG/1.1/DTD/svg11.dtd">
<!-- Generated by graphviz version 3.0.0 (20220315.2325)
 -->
<!-- Title: sstbias_mod Pages: 1 -->
<svg width="949pt" height="673pt"
 viewBox="0.00 0.00 949.00 673.00" xmlns="http://www.w3.org/2000/svg" xmlns:xlink="http://www.w3.org/1999/xlink">
<g id="graph0" class="graph" transform="scale(1 1) rotate(0) translate(4 669)">
<title>sstbias_mod</title>
<polygon fill="white" stroke="transparent" points="-4,4 -4,-669 945,-669 945,4 -4,4"/>
<text text-anchor="middle" x="470.5" y="-37.8" font-family="Times,serif" font-size="14.00">Red boxes indicate modules with dependencies not shown</text>
<text text-anchor="middle" x="470.5" y="-22.8" font-family="Times,serif" font-size="14.00">Lower level dependencies can be shown by clicking on a red box</text>
<text text-anchor="middle" x="470.5" y="-7.8" font-family="Times,serif" font-size="14.00">Shaded boxes indicate modules with no dependencies</text>
<!-- sstbias_mod -->
<g id="node1" class="node">
<title>sstbias_mod</title>
<g id="a_node1"><a xlink:href="sstbias_mod.html" xlink:title="sstbias_mod">
<polygon fill="none" stroke="black" points="486.5,-665 403.5,-665 403.5,-629 486.5,-629 486.5,-665"/>
<text text-anchor="middle" x="445" y="-643.3" font-family="Times,serif" font-size="14.00">sstbias_mod</text>
</a>
</g>
</g>
<!-- codeprecision_mod -->
<g id="node2" class="node">
<title>codeprecision_mod</title>
<g id="a_node2"><a xlink:href="codeprecision_mod.html" xlink:title="codeprecision_mod">
<polygon fill="gray" stroke="black" points="122,-593 0,-593 0,-557 122,-557 122,-593"/>
<text text-anchor="middle" x="61" y="-571.3" font-family="Times,serif" font-size="14.00">codeprecision_mod</text>
</a>
</g>
</g>
<!-- sstbias_mod&#45;&gt;codeprecision_mod -->
<g id="edge1" class="edge">
<title>sstbias_mod&#45;&gt;codeprecision_mod</title>
<path fill="none" stroke="black" d="M403.39,-639.58C343.92,-630.25 231.29,-611.96 136,-593 134.75,-592.75 133.48,-592.5 132.21,-592.24"/>
<polygon fill="black" stroke="black" points="132.84,-588.79 122.34,-590.18 131.41,-595.65 132.84,-588.79"/>
</g>
<!-- codtyp_mod -->
<g id="node3" class="node">
<title>codtyp_mod</title>
<g id="a_node3"><a xlink:href="../modules/codtyp_mod.svg" xlink:title="codtyp_mod">
<polygon fill="none" stroke="red" points="176,-521 92,-521 92,-485 176,-485 176,-521"/>
<text text-anchor="middle" x="134" y="-499.3" font-family="Times,serif" font-size="14.00">codtyp_mod</text>
</a>
</g>
</g>
<!-- sstbias_mod&#45;&gt;codtyp_mod -->
<g id="edge2" class="edge">
<title>sstbias_mod&#45;&gt;codtyp_mod</title>
<path fill="none" stroke="black" d="M403.43,-641.35C340.32,-633.64 224.07,-616.67 190,-593 167.97,-577.7 152.78,-550.64 143.83,-530.36"/>
<polygon fill="black" stroke="black" points="147.02,-528.91 139.94,-521.03 140.56,-531.61 147.02,-528.91"/>
</g>
<!-- columndata_mod -->
<g id="node4" class="node">
<title>columndata_mod</title>
<g id="a_node4"><a xlink:href="../modules/columndata_mod.svg" xlink:title="columndata_mod">
<polygon fill="none" stroke="red" points="213.5,-449 102.5,-449 102.5,-413 213.5,-413 213.5,-449"/>
<text text-anchor="middle" x="158" y="-427.3" font-family="Times,serif" font-size="14.00">columndata_mod</text>
</a>
</g>
</g>
<!-- sstbias_mod&#45;&gt;columndata_mod -->
<g id="edge3" class="edge">
<title>sstbias_mod&#45;&gt;columndata_mod</title>
<path fill="none" stroke="black" d="M403.13,-646.67C355.26,-645.22 277.17,-635.75 228,-593 189.01,-559.1 206.3,-532.07 185,-485 181.04,-476.25 176.39,-466.86 172.08,-458.46"/>
<polygon fill="black" stroke="black" points="175.13,-456.73 167.41,-449.47 168.92,-459.96 175.13,-456.73"/>
</g>
<!-- gridstatevectorfileio_mod -->
<g id="node5" class="node">
<title>gridstatevectorfileio_mod</title>
<g id="a_node5"><a xlink:href="../modules/gridstatevectorfileio_mod.svg" xlink:title="gridstatevectorfileio_mod">
<polygon fill="none" stroke="red" points="251.5,-377 96.5,-377 96.5,-341 251.5,-341 251.5,-377"/>
<text text-anchor="middle" x="174" y="-355.3" font-family="Times,serif" font-size="14.00">gridstatevectorfileio_mod</text>
</a>
</g>
</g>
<!-- sstbias_mod&#45;&gt;gridstatevectorfileio_mod -->
<g id="edge4" class="edge">
<title>sstbias_mod&#45;&gt;gridstatevectorfileio_mod</title>
<path fill="none" stroke="black" d="M403.46,-645.07C362.75,-641.86 301.77,-630.54 266,-593 209.18,-533.38 260.6,-485.75 222,-413 216.56,-402.76 208.71,-392.93 200.92,-384.59"/>
<polygon fill="black" stroke="black" points="203.35,-382.07 193.85,-377.37 198.34,-386.96 203.35,-382.07"/>
</g>
<!-- gridstatevector_mod -->
<g id="node6" class="node">
<title>gridstatevector_mod</title>
<g id="a_node6"><a xlink:href="../modules/gridstatevector_mod.svg" xlink:title="gridstatevector_mod">
<polygon fill="none" stroke="red" points="289.5,-305 162.5,-305 162.5,-269 289.5,-269 289.5,-305"/>
<text text-anchor="middle" x="226" y="-283.3" font-family="Times,serif" font-size="14.00">gridstatevector_mod</text>
</a>
</g>
</g>
<!-- sstbias_mod&#45;&gt;gridstatevector_mod -->
<g id="edge5" class="edge">
<title>sstbias_mod&#45;&gt;gridstatevector_mod</title>
<path fill="none" stroke="black" d="M403.49,-640.71C371.92,-634.53 329.67,-621.26 304,-593 276.46,-562.67 280,-544.97 280,-504 280,-504 280,-504 280,-430 280,-389.46 275.63,-378.41 260,-341 256.06,-331.57 250.46,-321.95 244.94,-313.55"/>
<polygon fill="black" stroke="black" points="247.83,-311.57 239.29,-305.29 242.05,-315.52 247.83,-311.57"/>
</g>
<!-- horizontalcoord_mod -->
<g id="node7" class="node">
<title>horizontalcoord_mod</title>
<g id="a_node7"><a xlink:href="../modules/horizontalcoord_mod.svg" xlink:title="horizontalcoord_mod">
<polygon fill="none" stroke="red" points="327.5,-233 194.5,-233 194.5,-197 327.5,-197 327.5,-233"/>
<text text-anchor="middle" x="261" y="-211.3" font-family="Times,serif" font-size="14.00">horizontalcoord_mod</text>
</a>
</g>
</g>
<!-- sstbias_mod&#45;&gt;horizontalcoord_mod -->
<g id="edge6" class="edge">
<title>sstbias_mod&#45;&gt;horizontalcoord_mod</title>
<path fill="none" stroke="black" d="M403.33,-633.63C382.13,-625.33 357.61,-612.32 342,-593 316.26,-561.13 318,-544.97 318,-504 318,-504 318,-504 318,-358 318,-317.46 314.36,-306.1 298,-269 293.77,-259.4 287.69,-249.74 281.68,-241.35"/>
<polygon fill="black" stroke="black" points="284.31,-239.02 275.52,-233.11 278.71,-243.22 284.31,-239.02"/>
</g>
<!-- kdtree2_mod -->
<g id="node8" class="node">
<title>kdtree2_mod</title>
<g id="a_node8"><a xlink:href="../modules/kdtree2_mod.svg" xlink:title="kdtree2_mod">
<polygon fill="none" stroke="red" points="366,-161 278,-161 278,-125 366,-125 366,-161"/>
<text text-anchor="middle" x="322" y="-139.3" font-family="Times,serif" font-size="14.00">kdtree2_mod</text>
</a>
</g>
</g>
<!-- sstbias_mod&#45;&gt;kdtree2_mod -->
<g id="edge7" class="edge">
<title>sstbias_mod&#45;&gt;kdtree2_mod</title>
<path fill="none" stroke="black" d="M416.85,-628.97C403.89,-619.8 389.34,-607.42 380,-593 357.72,-558.62 356,-544.97 356,-504 356,-504 356,-504 356,-286 356,-244.91 342.37,-198.92 332.37,-170.72"/>
<polygon fill="black" stroke="black" points="335.6,-169.36 328.88,-161.17 329.03,-171.76 335.6,-169.36"/>
</g>
<!-- localizationfunction_mod -->
<g id="node9" class="node">
<title>localizationfunction_mod</title>
<g id="a_node9"><a xlink:href="../modules/localizationfunction_mod.svg" xlink:title="localizationfunction_mod">
<polygon fill="none" stroke="red" points="471.5,-89 316.5,-89 316.5,-53 471.5,-53 471.5,-89"/>
<text text-anchor="middle" x="394" y="-67.3" font-family="Times,serif" font-size="14.00">localizationfunction_mod</text>
</a>
</g>
</g>
<!-- sstbias_mod&#45;&gt;localizationfunction_mod -->
<g id="edge8" class="edge">
<title>sstbias_mod&#45;&gt;localizationfunction_mod</title>
<path fill="none" stroke="black" d="M432.48,-628.62C425.81,-618.63 417.98,-605.59 413,-593 398.12,-555.39 394,-544.45 394,-504 394,-504 394,-504 394,-214 394,-174 394,-127.65 394,-99.08"/>
<polygon fill="black" stroke="black" points="397.5,-99.05 394,-89.05 390.5,-99.05 397.5,-99.05"/>
</g>
<!-- mathphysconstants_mod -->
<g id="node10" class="node">
<title>mathphysconstants_mod</title>
<g id="a_node10"><a xlink:href="mathphysconstants_mod.html" xlink:title="mathphysconstants_mod">
<polygon fill="gray" stroke="black" points="572,-593 422,-593 422,-557 572,-557 572,-593"/>
<text text-anchor="middle" x="497" y="-571.3" font-family="Times,serif" font-size="14.00">mathphysconstants_mod</text>
</a>
</g>
</g>
<!-- sstbias_mod&#45;&gt;mathphysconstants_mod -->
<g id="edge9" class="edge">
<title>sstbias_mod&#45;&gt;mathphysconstants_mod</title>
<path fill="none" stroke="black" d="M457.85,-628.7C464.03,-620.39 471.54,-610.28 478.32,-601.14"/>
<polygon fill="black" stroke="black" points="481.14,-603.22 484.29,-593.1 475.52,-599.04 481.14,-603.22"/>
</g>
<!-- midasmpi_mod -->
<g id="node11" class="node">
<title>midasmpi_mod</title>
<g id="a_node11"><a xlink:href="../modules/midasmpi_mod.svg" xlink:title="midasmpi_mod">
<polygon fill="none" stroke="red" points="609.5,-521 508.5,-521 508.5,-485 609.5,-485 609.5,-521"/>
<text text-anchor="middle" x="559" y="-499.3" font-family="Times,serif" font-size="14.00">midasmpi_mod</text>
</a>
</g>
</g>
<!-- sstbias_mod&#45;&gt;midasmpi_mod -->
<g id="edge10" class="edge">
<title>sstbias_mod&#45;&gt;midasmpi_mod</title>
<path fill="none" stroke="black" d="M486.54,-642.08C518.26,-636.66 559.98,-623.75 581,-593 593.75,-574.34 585.59,-549 575.79,-530.12"/>
<polygon fill="black" stroke="black" points="578.72,-528.19 570.77,-521.18 572.61,-531.61 578.72,-528.19"/>
</g>
<!-- obsspacedata_mod -->
<g id="node12" class="node">
<title>obsspacedata_mod</title>
<g id="a_node12"><a xlink:href="../modules/obsspacedata_mod.svg" xlink:title="obsspacedata_mod">
<polygon fill="none" stroke="red" points="648,-449 530,-449 530,-413 648,-413 648,-449"/>
<text text-anchor="middle" x="589" y="-427.3" font-family="Times,serif" font-size="14.00">obsspacedata_mod</text>
</a>
</g>
</g>
<!-- sstbias_mod&#45;&gt;obsspacedata_mod -->
<g id="edge11" class="edge">
<title>sstbias_mod&#45;&gt;obsspacedata_mod</title>
<path fill="none" stroke="black" d="M486.8,-642.35C521.58,-637.1 569.94,-624.28 599,-593 632.17,-557.3 630.07,-532.22 618,-485 615.62,-475.7 611.24,-466.27 606.58,-458"/>
<polygon fill="black" stroke="black" points="609.46,-455.99 601.31,-449.22 603.46,-459.59 609.46,-455.99"/>
</g>
<!-- oceanmask_mod -->
<g id="node13" class="node">
<title>oceanmask_mod</title>
<g id="a_node13"><a xlink:href="../modules/oceanmask_mod.svg" xlink:title="oceanmask_mod">
<polygon fill="none" stroke="red" points="685.5,-377 578.5,-377 578.5,-341 685.5,-341 685.5,-377"/>
<text text-anchor="middle" x="632" y="-355.3" font-family="Times,serif" font-size="14.00">oceanmask_mod</text>
</a>
</g>
</g>
<!-- sstbias_mod&#45;&gt;oceanmask_mod -->
<g id="edge12" class="edge">
<title>sstbias_mod&#45;&gt;oceanmask_mod</title>
<path fill="none" stroke="black" d="M486.56,-645.32C527.61,-642.33 589.3,-631.2 625,-593 680.48,-533.63 674.76,-492.29 657,-413 654.99,-404.01 651.27,-394.75 647.3,-386.53"/>
<polygon fill="black" stroke="black" points="650.32,-384.73 642.63,-377.44 644.09,-387.94 650.32,-384.73"/>
</g>
<!-- statetocolumn_mod -->
<g id="node14" class="node">
<title>statetocolumn_mod</title>
<g id="a_node14"><a xlink:href="../modules/statetocolumn_mod.svg" xlink:title="statetocolumn_mod">
<polygon fill="none" stroke="red" points="724,-305 600,-305 600,-269 724,-269 724,-305"/>
<text text-anchor="middle" x="662" y="-283.3" font-family="Times,serif" font-size="14.00">statetocolumn_mod</text>
</a>
</g>
</g>
<!-- sstbias_mod&#45;&gt;statetocolumn_mod -->
<g id="edge13" class="edge">
<title>sstbias_mod&#45;&gt;statetocolumn_mod</title>
<path fill="none" stroke="black" d="M486.74,-642.86C562.29,-634.65 714,-605.53 714,-504 714,-504 714,-504 714,-430 714,-389.46 709.12,-378.62 694,-341 690.29,-331.77 685.08,-322.29 679.94,-313.94"/>
<polygon fill="black" stroke="black" points="682.81,-311.93 674.47,-305.4 676.92,-315.71 682.81,-311.93"/>
</g>
<!-- timecoord_mod -->
<g id="node15" class="node">
<title>timecoord_mod</title>
<g id="a_node15"><a xlink:href="../modules/timecoord_mod.svg" xlink:title="timecoord_mod">
<polygon fill="none" stroke="red" points="782,-233 680,-233 680,-197 782,-197 782,-233"/>
<text text-anchor="middle" x="731" y="-211.3" font-family="Times,serif" font-size="14.00">timecoord_mod</text>
</a>
</g>
</g>
<!-- sstbias_mod&#45;&gt;timecoord_mod -->
<g id="edge14" class="edge">
<title>sstbias_mod&#45;&gt;timecoord_mod</title>
<path fill="none" stroke="black" d="M486.72,-645.27C570.66,-641.36 752,-619.54 752,-504 752,-504 752,-504 752,-358 752,-317.78 743.65,-271.84 737.49,-243.37"/>
<polygon fill="black" stroke="black" points="740.85,-242.36 735.25,-233.37 734.01,-243.89 740.85,-242.36"/>
</g>
<!-- utilities_mod -->
<g id="node16" class="node">
<title>utilities_mod</title>
<g id="a_node16"><a xlink:href="../modules/utilities_mod.svg" xlink:title="utilities_mod">
<polygon fill="none" stroke="red" points="854,-161 766,-161 766,-125 854,-125 854,-161"/>
<text text-anchor="middle" x="810" y="-139.3" font-family="Times,serif" font-size="14.00">utilities_mod</text>
</a>
</g>
</g>
<!-- sstbias_mod&#45;&gt;utilities_mod -->
<g id="edge15" class="edge">
<title>sstbias_mod&#45;&gt;utilities_mod</title>
<path fill="none" stroke="black" d="M486.55,-646.76C545.29,-646.06 654.24,-638.07 733,-593 778.4,-567.02 810,-556.3 810,-504 810,-504 810,-504 810,-286 810,-246 810,-199.65 810,-171.08"/>
<polygon fill="black" stroke="black" points="813.5,-171.05 810,-161.05 806.5,-171.05 813.5,-171.05"/>
</g>
<!-- verticalcoord_mod -->
<g id="node17" class="node">
<title>verticalcoord_mod</title>
<g id="a_node17"><a xlink:href="../modules/verticalcoord_mod.svg" xlink:title="verticalcoord_mod">
<polygon fill="none" stroke="red" points="941,-89 823,-89 823,-53 941,-53 941,-89"/>
<text text-anchor="middle" x="882" y="-67.3" font-family="Times,serif" font-size="14.00">verticalcoord_mod</text>
</a>
</g>
</g>
<!-- sstbias_mod&#45;&gt;verticalcoord_mod -->
<g id="edge16" class="edge">
<title>sstbias_mod&#45;&gt;verticalcoord_mod</title>
<path fill="none" stroke="black" d="M486.61,-646.25C551.24,-645.14 678.33,-636.93 775,-593 831.31,-567.41 882,-565.86 882,-504 882,-504 882,-504 882,-214 882,-174 882,-127.65 882,-99.08"/>
<polygon fill="black" stroke="black" points="885.5,-99.05 882,-89.05 878.5,-99.05 885.5,-99.05"/>
</g>
</g>
</svg>
