<?xml version="1.0" encoding="UTF-8" standalone="no"?>
<!DOCTYPE svg PUBLIC "-//W3C//DTD SVG 1.1//EN"
 "http://www.w3.org/Graphics/SVG/1.1/DTD/svg11.dtd">
<!-- Generated by graphviz version 3.0.0 (20220315.2325)
 -->
<!-- Title: sstbias_mod Pages: 1 -->
<svg width="430pt" height="241pt"
 viewBox="0.00 0.00 430.00 241.00" xmlns="http://www.w3.org/2000/svg" xmlns:xlink="http://www.w3.org/1999/xlink">
<g id="graph0" class="graph" transform="scale(1 1) rotate(0) translate(4 237)">
<title>sstbias_mod</title>
<polygon fill="white" stroke="transparent" points="-4,4 -4,-237 426,-237 426,4 -4,4"/>
<text text-anchor="middle" x="211" y="-217.8" font-family="Times,serif" font-size="14.00">Blue boxes indicate modules with reverse dependencies not shown</text>
<text text-anchor="middle" x="211" y="-202.8" font-family="Times,serif" font-size="14.00">Higher level reverse dependencies can be shown by clicking on a blue box</text>
<text text-anchor="middle" x="211" y="-187.8" font-family="Times,serif" font-size="14.00">Green boxes are programs</text>
<!-- sstbias_mod -->
<g id="node1" class="node">
<title>sstbias_mod</title>
<g id="a_node1"><a xlink:href="sstbias_mod.html" xlink:title="sstbias_mod">
<polygon fill="none" stroke="black" points="260.25,-36 177.25,-36 177.25,0 260.25,0 260.25,-36"/>
<text text-anchor="middle" x="218.75" y="-14.3" font-family="Times,serif" font-size="14.00">sstbias_mod</text>
</a>
</g>
</g>
<!-- midas_midas_obsselection -->
<g id="node2" class="node">
<title>midas_midas_obsselection</title>
<g id="a_node2"><a xlink:href="../programs/midas_obsselection.html" xlink:title="midas_midas_obsselection">
<polygon fill="gray" stroke="green" points="245.25,-108 82.25,-108 82.25,-72 245.25,-72 245.25,-108"/>
<text text-anchor="middle" x="163.75" y="-86.3" font-family="Times,serif" font-size="14.00">midas_midas_obsselection</text>
</a>
</g>
</g>
<!-- midas_midas_obsselection&#45;&gt;sstbias_mod -->
<g id="edge1" class="edge">
<title>midas_midas_obsselection&#45;&gt;sstbias_mod</title>
<path fill="none" stroke="black" d="M182.36,-65.31C189.89,-55.73 198.41,-44.89 205.31,-36.1"/>
<ellipse fill="black" stroke="black" cx="179.82" cy="-68.55" rx="4" ry="4"/>
</g>
<!-- midas_midas_sstbias -->
<g id="node3" class="node">
<title>midas_midas_sstbias</title>
<g id="a_node3"><a xlink:href="../programs/midas_sstbias.html" xlink:title="midas_midas_sstbias">
<polygon fill="gray" stroke="green" points="339.75,-180 207.75,-180 207.75,-144 339.75,-144 339.75,-180"/>
<text text-anchor="middle" x="273.75" y="-158.3" font-family="Times,serif" font-size="14.00">midas_midas_sstbias</text>
</a>
</g>
</g>
<!-- midas_midas_sstbias&#45;&gt;sstbias_mod -->
<g id="edge2" class="edge">
<title>midas_midas_sstbias&#45;&gt;sstbias_mod</title>
<path fill="none" stroke="black" d="M270.94,-135.3C268.31,-117.08 263.44,-92.35 254.75,-72 249.25,-59.11 240.44,-46.07 232.91,-36.15"/>
<ellipse fill="black" stroke="black" cx="271.52" cy="-139.71" rx="4" ry="4"/>
</g>
</g>
</svg>
