<?xml version="1.0" encoding="UTF-8" standalone="no"?>
<!DOCTYPE svg PUBLIC "-//W3C//DTD SVG 1.1//EN"
 "http://www.w3.org/Graphics/SVG/1.1/DTD/svg11.dtd">
<!-- Generated by graphviz version 3.0.0 (20220315.2325)
 -->
<!-- Title: statetocolumn_mod Pages: 1 -->
<svg width="1214pt" height="673pt"
 viewBox="0.00 0.00 1213.50 673.00" xmlns="http://www.w3.org/2000/svg" xmlns:xlink="http://www.w3.org/1999/xlink">
<g id="graph0" class="graph" transform="scale(1 1) rotate(0) translate(4 669)">
<title>statetocolumn_mod</title>
<polygon fill="white" stroke="transparent" points="-4,4 -4,-669 1209.5,-669 1209.5,4 -4,4"/>
<text text-anchor="middle" x="602.75" y="-37.8" font-family="Times,serif" font-size="14.00">Red boxes indicate modules with dependencies not shown</text>
<text text-anchor="middle" x="602.75" y="-22.8" font-family="Times,serif" font-size="14.00">Lower level dependencies can be shown by clicking on a red box</text>
<text text-anchor="middle" x="602.75" y="-7.8" font-family="Times,serif" font-size="14.00">Shaded boxes indicate modules with no dependencies</text>
<!-- statetocolumn_mod -->
<g id="node1" class="node">
<title>statetocolumn_mod</title>
<g id="a_node1"><a xlink:href="statetocolumn_mod.html" xlink:title="statetocolumn_mod">
<polygon fill="none" stroke="black" points="718.5,-665 594.5,-665 594.5,-629 718.5,-629 718.5,-665"/>
<text text-anchor="middle" x="656.5" y="-643.3" font-family="Times,serif" font-size="14.00">statetocolumn_mod</text>
</a>
</g>
</g>
<!-- calcheightandpressure_mod -->
<g id="node2" class="node">
<title>calcheightandpressure_mod</title>
<g id="a_node2"><a xlink:href="../modules/calcheightandpressure_mod.svg" xlink:title="calcheightandpressure_mod">
<polygon fill="none" stroke="red" points="167,-593 0,-593 0,-557 167,-557 167,-593"/>
<text text-anchor="middle" x="83.5" y="-571.3" font-family="Times,serif" font-size="14.00">calcheightandpressure_mod</text>
</a>
</g>
</g>
<!-- statetocolumn_mod&#45;&gt;calcheightandpressure_mod -->
<g id="edge1" class="edge">
<title>statetocolumn_mod&#45;&gt;calcheightandpressure_mod</title>
<path fill="none" stroke="black" d="M594.35,-640.33C503.31,-631.75 328.45,-614.18 180.5,-593 179.4,-592.84 178.29,-592.68 177.18,-592.52"/>
<polygon fill="black" stroke="black" points="177.46,-589.02 167.05,-590.98 176.41,-595.94 177.46,-589.02"/>
</g>
<!-- codeprecision_mod -->
<g id="node3" class="node">
<title>codeprecision_mod</title>
<g id="a_node3"><a xlink:href="codeprecision_mod.html" xlink:title="codeprecision_mod">
<polygon fill="gray" stroke="black" points="229.5,-521 107.5,-521 107.5,-485 229.5,-485 229.5,-521"/>
<text text-anchor="middle" x="168.5" y="-499.3" font-family="Times,serif" font-size="14.00">codeprecision_mod</text>
</a>
</g>
</g>
<!-- statetocolumn_mod&#45;&gt;codeprecision_mod -->
<g id="edge2" class="edge">
<title>statetocolumn_mod&#45;&gt;codeprecision_mod</title>
<path fill="none" stroke="black" d="M594.39,-643.52C494.32,-638.61 302.61,-625.22 243.5,-593 216.92,-578.51 195.76,-550.5 182.78,-529.75"/>
<polygon fill="black" stroke="black" points="185.72,-527.85 177.57,-521.09 179.73,-531.46 185.72,-527.85"/>
</g>
<!-- codtyp_mod -->
<g id="node4" class="node">
<title>codtyp_mod</title>
<g id="a_node4"><a xlink:href="../modules/codtyp_mod.svg" xlink:title="codtyp_mod">
<polygon fill="none" stroke="red" points="267.5,-449 183.5,-449 183.5,-413 267.5,-413 267.5,-449"/>
<text text-anchor="middle" x="225.5" y="-427.3" font-family="Times,serif" font-size="14.00">codtyp_mod</text>
</a>
</g>
</g>
<!-- statetocolumn_mod&#45;&gt;codtyp_mod -->
<g id="edge3" class="edge">
<title>statetocolumn_mod&#45;&gt;codtyp_mod</title>
<path fill="none" stroke="black" d="M594.13,-644.86C500.1,-641.91 328.03,-631.27 281.5,-593 270.81,-584.21 245.86,-502.35 233.18,-458.86"/>
<polygon fill="black" stroke="black" points="236.53,-457.83 230.38,-449.2 229.8,-459.78 236.53,-457.83"/>
</g>
<!-- columndata_mod -->
<g id="node5" class="node">
<title>columndata_mod</title>
<g id="a_node5"><a xlink:href="../modules/columndata_mod.svg" xlink:title="columndata_mod">
<polygon fill="none" stroke="red" points="305,-377 194,-377 194,-341 305,-341 305,-377"/>
<text text-anchor="middle" x="249.5" y="-355.3" font-family="Times,serif" font-size="14.00">columndata_mod</text>
</a>
</g>
</g>
<!-- statetocolumn_mod&#45;&gt;columndata_mod -->
<g id="edge4" class="edge">
<title>statetocolumn_mod&#45;&gt;columndata_mod</title>
<path fill="none" stroke="black" d="M594.3,-644.28C508.09,-640.59 358.48,-629.03 319.5,-593 259.1,-537.17 304.92,-490.18 276.5,-413 273.18,-403.99 268.71,-394.53 264.36,-386.14"/>
<polygon fill="black" stroke="black" points="267.38,-384.36 259.57,-377.2 261.21,-387.66 267.38,-384.36"/>
</g>
<!-- earthconstants_mod -->
<g id="node6" class="node">
<title>earthconstants_mod</title>
<g id="a_node6"><a xlink:href="../modules/earthconstants_mod.svg" xlink:title="earthconstants_mod">
<polygon fill="none" stroke="red" points="343,-305 218,-305 218,-269 343,-269 343,-305"/>
<text text-anchor="middle" x="280.5" y="-283.3" font-family="Times,serif" font-size="14.00">earthconstants_mod</text>
</a>
</g>
</g>
<!-- statetocolumn_mod&#45;&gt;earthconstants_mod -->
<g id="edge5" class="edge">
<title>statetocolumn_mod&#45;&gt;earthconstants_mod</title>
<path fill="none" stroke="black" d="M594.2,-642.68C516.94,-637.29 391.28,-623.93 357.5,-593 327.29,-565.33 333.5,-544.97 333.5,-504 333.5,-504 333.5,-504 333.5,-430 333.5,-389.46 328.88,-378.51 313.5,-341 309.7,-331.72 304.33,-322.22 299.03,-313.88"/>
<polygon fill="black" stroke="black" points="301.82,-311.75 293.38,-305.34 295.98,-315.62 301.82,-311.75"/>
</g>
<!-- getgridposition_mod -->
<g id="node7" class="node">
<title>getgridposition_mod</title>
<g id="a_node7"><a xlink:href="../modules/getgridposition_mod.svg" xlink:title="getgridposition_mod">
<polygon fill="none" stroke="red" points="381,-233 252,-233 252,-197 381,-197 381,-233"/>
<text text-anchor="middle" x="316.5" y="-211.3" font-family="Times,serif" font-size="14.00">getgridposition_mod</text>
</a>
</g>
</g>
<!-- statetocolumn_mod&#45;&gt;getgridposition_mod -->
<g id="edge6" class="edge">
<title>statetocolumn_mod&#45;&gt;getgridposition_mod</title>
<path fill="none" stroke="black" d="M594.31,-640.85C526.45,-633.97 423.69,-619.47 395.5,-593 365.63,-564.96 371.5,-544.97 371.5,-504 371.5,-504 371.5,-504 371.5,-358 371.5,-317.46 367.38,-306.3 351.5,-269 347.46,-259.51 341.7,-249.88 336.02,-241.48"/>
<polygon fill="black" stroke="black" points="338.83,-239.39 330.2,-233.23 333.1,-243.42 338.83,-239.39"/>
</g>
<!-- gridstatevector_mod -->
<g id="node8" class="node">
<title>gridstatevector_mod</title>
<g id="a_node8"><a xlink:href="../modules/gridstatevector_mod.svg" xlink:title="gridstatevector_mod">
<polygon fill="none" stroke="red" points="419,-161 292,-161 292,-125 419,-125 419,-161"/>
<text text-anchor="middle" x="355.5" y="-139.3" font-family="Times,serif" font-size="14.00">gridstatevector_mod</text>
</a>
</g>
</g>
<!-- statetocolumn_mod&#45;&gt;gridstatevector_mod -->
<g id="edge7" class="edge">
<title>statetocolumn_mod&#45;&gt;gridstatevector_mod</title>
<path fill="none" stroke="black" d="M594.49,-638.43C536.73,-630.14 456.2,-615.03 433.5,-593 404.1,-564.47 409.5,-544.97 409.5,-504 409.5,-504 409.5,-504 409.5,-286 409.5,-245.46 405.13,-234.41 389.5,-197 385.56,-187.57 379.96,-177.95 374.44,-169.55"/>
<polygon fill="black" stroke="black" points="377.33,-167.57 368.79,-161.29 371.55,-171.52 377.33,-167.57"/>
</g>
<!-- gridvariabletransforms_mod -->
<g id="node9" class="node">
<title>gridvariabletransforms_mod</title>
<g id="a_node9"><a xlink:href="../modules/gridvariabletransforms_mod.svg" xlink:title="gridvariabletransforms_mod">
<polygon fill="none" stroke="red" points="532.5,-89 362.5,-89 362.5,-53 532.5,-53 532.5,-89"/>
<text text-anchor="middle" x="447.5" y="-67.3" font-family="Times,serif" font-size="14.00">gridvariabletransforms_mod</text>
</a>
</g>
</g>
<!-- statetocolumn_mod&#45;&gt;gridvariabletransforms_mod -->
<g id="edge8" class="edge">
<title>statetocolumn_mod&#45;&gt;gridvariabletransforms_mod</title>
<path fill="none" stroke="black" d="M594.15,-644.64C552.32,-640.33 499.1,-627.68 466.5,-593 438.8,-563.53 447.5,-544.45 447.5,-504 447.5,-504 447.5,-504 447.5,-214 447.5,-174 447.5,-127.65 447.5,-99.08"/>
<polygon fill="black" stroke="black" points="451,-99.05 447.5,-89.05 444,-99.05 451,-99.05"/>
</g>
<!-- horizontalcoord_mod -->
<g id="node10" class="node">
<title>horizontalcoord_mod</title>
<g id="a_node10"><a xlink:href="../modules/horizontalcoord_mod.svg" xlink:title="horizontalcoord_mod">
<polygon fill="none" stroke="red" points="609,-593 476,-593 476,-557 609,-557 609,-593"/>
<text text-anchor="middle" x="542.5" y="-571.3" font-family="Times,serif" font-size="14.00">horizontalcoord_mod</text>
</a>
</g>
</g>
<!-- statetocolumn_mod&#45;&gt;horizontalcoord_mod -->
<g id="edge9" class="edge">
<title>statetocolumn_mod&#45;&gt;horizontalcoord_mod</title>
<path fill="none" stroke="black" d="M628.61,-628.88C613.71,-619.72 595.17,-608.34 579.12,-598.48"/>
<polygon fill="black" stroke="black" points="580.85,-595.44 570.49,-593.19 577.19,-601.41 580.85,-595.44"/>
</g>
<!-- humiditylimits_mod -->
<g id="node11" class="node">
<title>humiditylimits_mod</title>
<g id="a_node11"><a xlink:href="../modules/humiditylimits_mod.svg" xlink:title="humiditylimits_mod">
<polygon fill="none" stroke="red" points="647.5,-521 519.5,-521 519.5,-485 647.5,-485 647.5,-521"/>
<text text-anchor="middle" x="583.5" y="-499.3" font-family="Times,serif" font-size="14.00">humiditylimits_mod</text>
</a>
</g>
</g>
<!-- statetocolumn_mod&#45;&gt;humiditylimits_mod -->
<g id="edge10" class="edge">
<title>statetocolumn_mod&#45;&gt;humiditylimits_mod</title>
<path fill="none" stroke="black" d="M649.94,-628.89C642.74,-610.69 630.48,-581.24 617.5,-557 612.6,-547.84 606.65,-538.19 601.11,-529.66"/>
<polygon fill="black" stroke="black" points="603.98,-527.66 595.55,-521.25 598.15,-531.52 603.98,-527.66"/>
</g>
<!-- kdtree2_mod -->
<g id="node12" class="node">
<title>kdtree2_mod</title>
<g id="a_node12"><a xlink:href="../modules/kdtree2_mod.svg" xlink:title="kdtree2_mod">
<polygon fill="none" stroke="red" points="685.5,-449 597.5,-449 597.5,-413 685.5,-413 685.5,-449"/>
<text text-anchor="middle" x="641.5" y="-427.3" font-family="Times,serif" font-size="14.00">kdtree2_mod</text>
</a>
</g>
</g>
<!-- statetocolumn_mod&#45;&gt;kdtree2_mod -->
<g id="edge11" class="edge">
<title>statetocolumn_mod&#45;&gt;kdtree2_mod</title>
<path fill="none" stroke="black" d="M658.03,-628.97C660.34,-599.48 663.72,-537.05 656.5,-485 655.32,-476.48 653.11,-467.39 650.75,-459.2"/>
<polygon fill="black" stroke="black" points="654.02,-457.94 647.74,-449.41 647.33,-459.99 654.02,-457.94"/>
</g>
<!-- mathphysconstants_mod -->
<g id="node13" class="node">
<title>mathphysconstants_mod</title>
<g id="a_node13"><a xlink:href="mathphysconstants_mod.html" xlink:title="mathphysconstants_mod">
<polygon fill="gray" stroke="black" points="723.5,-377 573.5,-377 573.5,-341 723.5,-341 723.5,-377"/>
<text text-anchor="middle" x="648.5" y="-355.3" font-family="Times,serif" font-size="14.00">mathphysconstants_mod</text>
</a>
</g>
</g>
<!-- statetocolumn_mod&#45;&gt;mathphysconstants_mod -->
<g id="edge12" class="edge">
<title>statetocolumn_mod&#45;&gt;mathphysconstants_mod</title>
<path fill="none" stroke="black" d="M665.14,-628.75C683.66,-589.3 723.25,-489.98 694.5,-413 690.62,-402.62 683.7,-392.93 676.38,-384.74"/>
<polygon fill="black" stroke="black" points="678.77,-382.18 669.32,-377.38 673.72,-387.03 678.77,-382.18"/>
</g>
<!-- midasmpi_mod -->
<g id="node14" class="node">
<title>midasmpi_mod</title>
<g id="a_node14"><a xlink:href="../modules/midasmpi_mod.svg" xlink:title="midasmpi_mod">
<polygon fill="none" stroke="red" points="761,-305 660,-305 660,-269 761,-269 761,-305"/>
<text text-anchor="middle" x="710.5" y="-283.3" font-family="Times,serif" font-size="14.00">midasmpi_mod</text>
</a>
</g>
</g>
<!-- statetocolumn_mod&#45;&gt;midasmpi_mod -->
<g id="edge13" class="edge">
<title>statetocolumn_mod&#45;&gt;midasmpi_mod</title>
<path fill="none" stroke="black" d="M678.06,-628.78C706.09,-604.28 751.5,-556.5 751.5,-504 751.5,-504 751.5,-504 751.5,-430 751.5,-388.41 735.06,-342.56 723,-314.51"/>
<polygon fill="black" stroke="black" points="726.05,-312.75 718.8,-305.03 719.65,-315.59 726.05,-312.75"/>
</g>
<!-- obsspacedata_mod -->
<g id="node15" class="node">
<title>obsspacedata_mod</title>
<g id="a_node15"><a xlink:href="../modules/obsspacedata_mod.svg" xlink:title="obsspacedata_mod">
<polygon fill="none" stroke="red" points="799.5,-233 681.5,-233 681.5,-197 799.5,-197 799.5,-233"/>
<text text-anchor="middle" x="740.5" y="-211.3" font-family="Times,serif" font-size="14.00">obsspacedata_mod</text>
</a>
</g>
</g>
<!-- statetocolumn_mod&#45;&gt;obsspacedata_mod -->
<g id="edge14" class="edge">
<title>statetocolumn_mod&#45;&gt;obsspacedata_mod</title>
<path fill="none" stroke="black" d="M690.06,-628.93C729.46,-606.23 789.5,-562.1 789.5,-504 789.5,-504 789.5,-504 789.5,-358 789.5,-317.46 783.81,-306.93 769.5,-269 766.06,-259.87 761.29,-250.38 756.61,-242"/>
<polygon fill="black" stroke="black" points="759.49,-239.98 751.44,-233.08 753.43,-243.49 759.49,-239.98"/>
</g>
<!-- obstimeinterp_mod -->
<g id="node16" class="node">
<title>obstimeinterp_mod</title>
<g id="a_node16"><a xlink:href="../modules/obstimeinterp_mod.svg" xlink:title="obstimeinterp_mod">
<polygon fill="none" stroke="red" points="837.5,-161 715.5,-161 715.5,-125 837.5,-125 837.5,-161"/>
<text text-anchor="middle" x="776.5" y="-139.3" font-family="Times,serif" font-size="14.00">obstimeinterp_mod</text>
</a>
</g>
</g>
<!-- statetocolumn_mod&#45;&gt;obstimeinterp_mod -->
<g id="edge15" class="edge">
<title>statetocolumn_mod&#45;&gt;obstimeinterp_mod</title>
<path fill="none" stroke="black" d="M706.42,-628.87C756.89,-608.01 827.5,-567.48 827.5,-504 827.5,-504 827.5,-504 827.5,-286 827.5,-245.55 823.38,-234.61 808.5,-197 804.84,-187.75 799.65,-178.26 794.5,-169.92"/>
<polygon fill="black" stroke="black" points="797.37,-167.9 789.02,-161.38 791.48,-171.68 797.37,-167.9"/>
</g>
<!-- slantprofilelatlon_mod -->
<g id="node17" class="node">
<title>slantprofilelatlon_mod</title>
<g id="a_node17"><a xlink:href="../modules/slantprofilelatlon_mod.svg" xlink:title="slantprofilelatlon_mod">
<polygon fill="none" stroke="red" points="934.5,-89 796.5,-89 796.5,-53 934.5,-53 934.5,-89"/>
<text text-anchor="middle" x="865.5" y="-67.3" font-family="Times,serif" font-size="14.00">slantprofilelatlon_mod</text>
</a>
</g>
</g>
<!-- statetocolumn_mod&#45;&gt;slantprofilelatlon_mod -->
<g id="edge16" class="edge">
<title>statetocolumn_mod&#45;&gt;slantprofilelatlon_mod</title>
<path fill="none" stroke="black" d="M718.64,-631.87C780.25,-613.75 865.5,-575.72 865.5,-504 865.5,-504 865.5,-504 865.5,-214 865.5,-174 865.5,-127.65 865.5,-99.08"/>
<polygon fill="black" stroke="black" points="869,-99.05 865.5,-89.05 862,-99.05 869,-99.05"/>
</g>
<!-- tovs_nl_mod -->
<g id="node18" class="node">
<title>tovs_nl_mod</title>
<g id="a_node18"><a xlink:href="../modules/tovs_nl_mod.svg" xlink:title="tovs_nl_mod">
<polygon fill="none" stroke="red" points="981,-593 894,-593 894,-557 981,-557 981,-593"/>
<text text-anchor="middle" x="937.5" y="-571.3" font-family="Times,serif" font-size="14.00">tovs_nl_mod</text>
</a>
</g>
</g>
<!-- statetocolumn_mod&#45;&gt;tovs_nl_mod -->
<g id="edge17" class="edge">
<title>statetocolumn_mod&#45;&gt;tovs_nl_mod</title>
<path fill="none" stroke="black" d="M718.72,-632.12C763.57,-621.9 825.46,-607.33 879.5,-593 880.96,-592.61 882.44,-592.22 883.92,-591.81"/>
<polygon fill="black" stroke="black" points="885.16,-595.1 893.86,-589.05 883.29,-588.36 885.16,-595.1"/>
</g>
<!-- utilities_mod -->
<g id="node19" class="node">
<title>utilities_mod</title>
<g id="a_node19"><a xlink:href="../modules/utilities_mod.svg" xlink:title="utilities_mod">
<polygon fill="none" stroke="red" points="1036.5,-521 948.5,-521 948.5,-485 1036.5,-485 1036.5,-521"/>
<text text-anchor="middle" x="992.5" y="-499.3" font-family="Times,serif" font-size="14.00">utilities_mod</text>
</a>
</g>
</g>
<!-- statetocolumn_mod&#45;&gt;utilities_mod -->
<g id="edge18" class="edge">
<title>statetocolumn_mod&#45;&gt;utilities_mod</title>
<path fill="none" stroke="black" d="M718.62,-645.18C805,-642.6 954.72,-632.38 989.5,-593 1004.16,-576.4 1003.35,-550.51 999.8,-530.92"/>
<polygon fill="black" stroke="black" points="1003.2,-530.11 997.69,-521.06 996.36,-531.58 1003.2,-530.11"/>
</g>
<!-- varnamelist_mod -->
<g id="node20" class="node">
<title>varnamelist_mod</title>
<g id="a_node20"><a xlink:href="../modules/varnamelist_mod.svg" xlink:title="varnamelist_mod">
<polygon fill="none" stroke="red" points="1119.5,-449 1009.5,-449 1009.5,-413 1119.5,-413 1119.5,-449"/>
<text text-anchor="middle" x="1064.5" y="-427.3" font-family="Times,serif" font-size="14.00">varnamelist_mod</text>
</a>
</g>
</g>
<!-- statetocolumn_mod&#45;&gt;varnamelist_mod -->
<g id="edge19" class="edge">
<title>statetocolumn_mod&#45;&gt;varnamelist_mod</title>
<path fill="none" stroke="black" d="M718.55,-643.57C807.42,-638.97 965.23,-626.24 1010.5,-593 1052.78,-561.95 1062.37,-496.28 1064.29,-459.12"/>
<polygon fill="black" stroke="black" points="1067.79,-459.13 1064.66,-449.01 1060.8,-458.88 1067.79,-459.13"/>
</g>
<!-- windrotation_mod -->
<g id="node21" class="node">
<title>windrotation_mod</title>
<g id="a_node21"><a xlink:href="../modules/windrotation_mod.svg" xlink:title="windrotation_mod">
<polygon fill="none" stroke="red" points="1205.5,-377 1089.5,-377 1089.5,-341 1205.5,-341 1205.5,-377"/>
<text text-anchor="middle" x="1147.5" y="-355.3" font-family="Times,serif" font-size="14.00">windrotation_mod</text>
</a>
</g>
</g>
<!-- statetocolumn_mod&#45;&gt;windrotation_mod -->
<g id="edge20" class="edge">
<title>statetocolumn_mod&#45;&gt;windrotation_mod</title>
<path fill="none" stroke="black" d="M718.84,-643.74C813.49,-639.27 987.89,-626.62 1039.5,-593 1111.37,-546.18 1136.21,-438.14 1144.12,-387.34"/>
<polygon fill="black" stroke="black" points="1147.63,-387.53 1145.6,-377.13 1140.7,-386.52 1147.63,-387.53"/>
</g>
</g>
</svg>
