<?xml version="1.0" encoding="UTF-8" standalone="no"?>
<!DOCTYPE svg PUBLIC "-//W3C//DTD SVG 1.1//EN"
 "http://www.w3.org/Graphics/SVG/1.1/DTD/svg11.dtd">
<!-- Generated by graphviz version 3.0.0 (20220315.2325)
 -->
<!-- Title: statetocolumn_mod Pages: 1 -->
<svg width="957pt" height="673pt"
 viewBox="0.00 0.00 957.00 673.00" xmlns="http://www.w3.org/2000/svg" xmlns:xlink="http://www.w3.org/1999/xlink">
<g id="graph0" class="graph" transform="scale(1 1) rotate(0) translate(4 669)">
<title>statetocolumn_mod</title>
<polygon fill="white" stroke="transparent" points="-4,4 -4,-669 953,-669 953,4 -4,4"/>
<text text-anchor="middle" x="474.5" y="-649.8" font-family="Times,serif" font-size="14.00">Blue boxes indicate modules with reverse dependencies not shown</text>
<text text-anchor="middle" x="474.5" y="-634.8" font-family="Times,serif" font-size="14.00">Higher level reverse dependencies can be shown by clicking on a blue box</text>
<text text-anchor="middle" x="474.5" y="-619.8" font-family="Times,serif" font-size="14.00">Green boxes are programs</text>
<!-- statetocolumn_mod -->
<g id="node1" class="node">
<title>statetocolumn_mod</title>
<g id="a_node1"><a xlink:href="statetocolumn_mod.html" xlink:title="statetocolumn_mod">
<polygon fill="none" stroke="black" points="510.5,-36 386.5,-36 386.5,0 510.5,0 510.5,-36"/>
<text text-anchor="middle" x="448.5" y="-14.3" font-family="Times,serif" font-size="14.00">statetocolumn_mod</text>
</a>
</g>
</g>
<!-- analysiserroroi_mod -->
<g id="node2" class="node">
<title>analysiserroroi_mod</title>
<g id="a_node2"><a xlink:href="../modules/analysiserroroi_mod_rev.svg" xlink:title="analysiserroroi_mod">
<polygon fill="none" stroke="blue" points="127,-108 0,-108 0,-72 127,-72 127,-108"/>
<text text-anchor="middle" x="63.5" y="-86.3" font-family="Times,serif" font-size="14.00">analysiserroroi_mod</text>
</a>
</g>
</g>
<!-- analysiserroroi_mod&#45;&gt;statetocolumn_mod -->
<g id="edge1" class="edge">
<title>analysiserroroi_mod&#45;&gt;statetocolumn_mod</title>
<path fill="none" stroke="black" d="M135.36,-73.22C137.42,-72.8 139.48,-72.39 141.5,-72 226.04,-55.5 324.2,-39.02 386.32,-28.92"/>
<ellipse fill="black" stroke="black" cx="131.22" cy="-74.06" rx="4" ry="4"/>
</g>
<!-- bgckocean_mod -->
<g id="node3" class="node">
<title>bgckocean_mod</title>
<g id="a_node3"><a xlink:href="../modules/bgckocean_mod_rev.svg" xlink:title="bgckocean_mod">
<polygon fill="none" stroke="blue" points="186,-180 81,-180 81,-144 186,-144 186,-180"/>
<text text-anchor="middle" x="133.5" y="-158.3" font-family="Times,serif" font-size="14.00">bgckocean_mod</text>
</a>
</g>
</g>
<!-- bgckocean_mod&#45;&gt;statetocolumn_mod -->
<g id="edge2" class="edge">
<title>bgckocean_mod&#45;&gt;statetocolumn_mod</title>
<path fill="none" stroke="black" d="M145.35,-136.82C156.67,-116.34 175.67,-87.85 200.5,-72 256.73,-36.12 333.26,-24.14 386.37,-20.35"/>
<ellipse fill="black" stroke="black" cx="143.42" cy="-140.44" rx="4" ry="4"/>
</g>
<!-- biascorrectionsat_mod -->
<g id="node4" class="node">
<title>biascorrectionsat_mod</title>
<g id="a_node4"><a xlink:href="../modules/biascorrectionsat_mod_rev.svg" xlink:title="biascorrectionsat_mod">
<polygon fill="none" stroke="blue" points="224,-252 85,-252 85,-216 224,-216 224,-252"/>
<text text-anchor="middle" x="154.5" y="-230.3" font-family="Times,serif" font-size="14.00">biascorrectionsat_mod</text>
</a>
</g>
</g>
<!-- biascorrectionsat_mod&#45;&gt;statetocolumn_mod -->
<g id="edge3" class="edge">
<title>biascorrectionsat_mod&#45;&gt;statetocolumn_mod</title>
<path fill="none" stroke="black" d="M174.53,-209.22C181.4,-200.39 188.78,-190.06 194.5,-180 220.1,-134.94 199.38,-106 238.5,-72 279.22,-36.6 340.28,-24.23 386.07,-20.2"/>
<ellipse fill="black" stroke="black" cx="171.91" cy="-212.52" rx="4" ry="4"/>
</g>
<!-- bmatrix1dvar_mod -->
<g id="node5" class="node">
<title>bmatrix1dvar_mod</title>
<g id="a_node5"><a xlink:href="../modules/bmatrix1dvar_mod_rev.svg" xlink:title="bmatrix1dvar_mod">
<polygon fill="none" stroke="blue" points="262,-324 143,-324 143,-288 262,-288 262,-324"/>
<text text-anchor="middle" x="202.5" y="-302.3" font-family="Times,serif" font-size="14.00">bmatrix1dvar_mod</text>
</a>
</g>
</g>
<!-- bmatrix1dvar_mod&#45;&gt;statetocolumn_mod -->
<g id="edge4" class="edge">
<title>bmatrix1dvar_mod&#45;&gt;statetocolumn_mod</title>
<path fill="none" stroke="black" d="M218,-280.89C223.17,-272.07 228.6,-261.83 232.5,-252 262.85,-175.44 220.01,-131.93 276.5,-72 304.79,-41.99 349.64,-28.83 386.44,-23.13"/>
<ellipse fill="black" stroke="black" cx="215.82" cy="-284.51" rx="4" ry="4"/>
</g>
<!-- fsoi_mod -->
<g id="node6" class="node">
<title>fsoi_mod</title>
<g id="a_node6"><a xlink:href="../modules/fsoi_mod_rev.svg" xlink:title="fsoi_mod">
<polygon fill="none" stroke="blue" points="300.5,-396 232.5,-396 232.5,-360 300.5,-360 300.5,-396"/>
<text text-anchor="middle" x="266.5" y="-374.3" font-family="Times,serif" font-size="14.00">fsoi_mod</text>
</a>
</g>
</g>
<!-- fsoi_mod&#45;&gt;statetocolumn_mod -->
<g id="edge5" class="edge">
<title>fsoi_mod&#45;&gt;statetocolumn_mod</title>
<path fill="none" stroke="black" d="M273.36,-351.9C280.45,-323.69 290.5,-276.42 290.5,-235 290.5,-235 290.5,-235 290.5,-161 290.5,-120.03 287.22,-102.56 314.5,-72 333.08,-51.19 360.89,-38.45 386.37,-30.71"/>
<ellipse fill="black" stroke="black" cx="272.35" cy="-355.8" rx="4" ry="4"/>
</g>
<!-- innovation_mod -->
<g id="node7" class="node">
<title>innovation_mod</title>
<g id="a_node7"><a xlink:href="../modules/innovation_mod_rev.svg" xlink:title="innovation_mod">
<polygon fill="none" stroke="blue" points="338.5,-468 234.5,-468 234.5,-432 338.5,-432 338.5,-468"/>
<text text-anchor="middle" x="286.5" y="-446.3" font-family="Times,serif" font-size="14.00">innovation_mod</text>
</a>
</g>
</g>
<!-- innovation_mod&#45;&gt;statetocolumn_mod -->
<g id="edge6" class="edge">
<title>innovation_mod&#45;&gt;statetocolumn_mod</title>
<path fill="none" stroke="black" d="M298.34,-424.69C310.76,-396.92 328.5,-349.77 328.5,-307 328.5,-307 328.5,-307 328.5,-161 328.5,-120.03 327.22,-104.24 352.5,-72 364.83,-56.27 383.2,-44.53 400.57,-36.15"/>
<ellipse fill="black" stroke="black" cx="296.66" cy="-428.36" rx="4" ry="4"/>
</g>
<!-- minimization_mod -->
<g id="node8" class="node">
<title>minimization_mod</title>
<g id="a_node8"><a xlink:href="../modules/minimization_mod_rev.svg" xlink:title="minimization_mod">
<polygon fill="none" stroke="blue" points="376,-540 255,-540 255,-504 376,-504 376,-540"/>
<text text-anchor="middle" x="315.5" y="-518.3" font-family="Times,serif" font-size="14.00">minimization_mod</text>
</a>
</g>
</g>
<!-- minimization_mod&#45;&gt;statetocolumn_mod -->
<g id="edge7" class="edge">
<title>minimization_mod&#45;&gt;statetocolumn_mod</title>
<path fill="none" stroke="black" d="M332.52,-496.66C337.98,-487.95 343.61,-477.84 347.5,-468 362.38,-430.39 366.5,-419.45 366.5,-379 366.5,-379 366.5,-379 366.5,-161 366.5,-120.03 369.19,-106.99 390.5,-72 399.01,-58.02 412.29,-45.5 423.99,-36.14"/>
<ellipse fill="black" stroke="black" cx="330.19" cy="-500.26" rx="4" ry="4"/>
</g>
<!-- obserrors_mod -->
<g id="node9" class="node">
<title>obserrors_mod</title>
<g id="a_node9"><a xlink:href="../modules/obserrors_mod_rev.svg" xlink:title="obserrors_mod">
<polygon fill="none" stroke="blue" points="453.5,-612 355.5,-612 355.5,-576 453.5,-576 453.5,-612"/>
<text text-anchor="middle" x="404.5" y="-590.3" font-family="Times,serif" font-size="14.00">obserrors_mod</text>
</a>
</g>
</g>
<!-- obserrors_mod&#45;&gt;statetocolumn_mod -->
<g id="edge8" class="edge">
<title>obserrors_mod&#45;&gt;statetocolumn_mod</title>
<path fill="none" stroke="black" d="M404.5,-567.78C404.5,-539.39 404.5,-491.89 404.5,-451 404.5,-451 404.5,-451 404.5,-161 404.5,-120.55 410.56,-110.32 423.5,-72 427.66,-59.66 433.91,-46.41 439.12,-36.25"/>
<ellipse fill="black" stroke="black" cx="404.5" cy="-571.95" rx="4" ry="4"/>
</g>
<!-- obsspacediag_mod -->
<g id="node10" class="node">
<title>obsspacediag_mod</title>
<g id="a_node10"><a xlink:href="../modules/obsspacediag_mod_rev.svg" xlink:title="obsspacediag_mod">
<polygon fill="none" stroke="blue" points="552,-108 433,-108 433,-72 552,-72 552,-108"/>
<text text-anchor="middle" x="492.5" y="-86.3" font-family="Times,serif" font-size="14.00">obsspacediag_mod</text>
</a>
</g>
</g>
<!-- obsspacediag_mod&#45;&gt;statetocolumn_mod -->
<g id="edge9" class="edge">
<title>obsspacediag_mod&#45;&gt;statetocolumn_mod</title>
<path fill="none" stroke="black" d="M477.26,-64.76C471.33,-55.32 464.67,-44.72 459.25,-36.1"/>
<ellipse fill="black" stroke="black" cx="479.49" cy="-68.31" rx="4" ry="4"/>
</g>
<!-- obsspaceerrorstddev_mod -->
<g id="node11" class="node">
<title>obsspaceerrorstddev_mod</title>
<g id="a_node11"><a xlink:href="../modules/obsspaceerrorstddev_mod_rev.svg" xlink:title="obsspaceerrorstddev_mod">
<polygon fill="none" stroke="blue" points="590,-180 433,-180 433,-144 590,-144 590,-180"/>
<text text-anchor="middle" x="511.5" y="-158.3" font-family="Times,serif" font-size="14.00">obsspaceerrorstddev_mod</text>
</a>
</g>
</g>
<!-- obsspaceerrorstddev_mod&#45;&gt;statetocolumn_mod -->
<g id="edge10" class="edge">
<title>obsspaceerrorstddev_mod&#45;&gt;statetocolumn_mod</title>
<path fill="none" stroke="black" d="M538.33,-138.04C556.29,-119.8 574.32,-93.82 560.5,-72 549.17,-54.1 529.97,-42.12 510.65,-34.17"/>
<ellipse fill="black" stroke="black" cx="535.16" cy="-141.13" rx="4" ry="4"/>
</g>
<!-- ominusf_mod -->
<g id="node12" class="node">
<title>ominusf_mod</title>
<g id="a_node12"><a xlink:href="../modules/ominusf_mod_rev.svg" xlink:title="ominusf_mod">
<polygon fill="none" stroke="blue" points="628,-252 535,-252 535,-216 628,-216 628,-252"/>
<text text-anchor="middle" x="581.5" y="-230.3" font-family="Times,serif" font-size="14.00">ominusf_mod</text>
</a>
</g>
</g>
<!-- ominusf_mod&#45;&gt;statetocolumn_mod -->
<g id="edge11" class="edge">
<title>ominusf_mod&#45;&gt;statetocolumn_mod</title>
<path fill="none" stroke="black" d="M591.26,-208.05C594.2,-199.32 597.04,-189.36 598.5,-180 606.06,-131.69 610.2,-108.36 577.5,-72 560.1,-52.65 534.56,-40.2 510.79,-32.27"/>
<ellipse fill="black" stroke="black" cx="589.9" cy="-211.89" rx="4" ry="4"/>
</g>
<!-- sstbias_mod -->
<g id="node13" class="node">
<title>sstbias_mod</title>
<g id="a_node13"><a xlink:href="../modules/sstbias_mod_rev.svg" xlink:title="sstbias_mod">
<polygon fill="none" stroke="blue" points="666,-324 583,-324 583,-288 666,-288 666,-324"/>
<text text-anchor="middle" x="624.5" y="-302.3" font-family="Times,serif" font-size="14.00">sstbias_mod</text>
</a>
</g>
</g>
<!-- sstbias_mod&#45;&gt;statetocolumn_mod -->
<g id="edge12" class="edge">
<title>sstbias_mod&#45;&gt;statetocolumn_mod</title>
<path fill="none" stroke="black" d="M631.36,-279.99C633.45,-271.21 635.47,-261.24 636.5,-252 645.54,-171.17 657.94,-132.43 603.5,-72 579.9,-45.8 542.79,-32.55 510.81,-25.84"/>
<ellipse fill="black" stroke="black" cx="630.34" cy="-284.1" rx="4" ry="4"/>
</g>
<!-- midas_midas_diaghbht -->
<g id="node14" class="node">
<title>midas_midas_diaghbht</title>
<g id="a_node14"><a xlink:href="../programs/midas_diaghbht.html" xlink:title="midas_midas_diaghbht">
<polygon fill="gray" stroke="green" points="704,-396 561,-396 561,-360 704,-360 704,-396"/>
<text text-anchor="middle" x="632.5" y="-374.3" font-family="Times,serif" font-size="14.00">midas_midas_diaghbht</text>
</a>
</g>
</g>
<!-- midas_midas_diaghbht&#45;&gt;statetocolumn_mod -->
<g id="edge13" class="edge">
<title>midas_midas_diaghbht&#45;&gt;statetocolumn_mod</title>
<path fill="none" stroke="black" d="M654.9,-353.43C662.1,-344.75 669.5,-334.47 674.5,-324 691.97,-287.42 694.5,-275.54 694.5,-235 694.5,-235 694.5,-235 694.5,-161 694.5,-76.18 583.45,-41.24 510.58,-27.44"/>
<ellipse fill="black" stroke="black" cx="652.09" cy="-356.7" rx="4" ry="4"/>
</g>
<!-- midas_midas_ensembleh -->
<g id="node15" class="node">
<title>midas_midas_ensembleh</title>
<g id="a_node15"><a xlink:href="../programs/midas_ensembleh.html" xlink:title="midas_midas_ensembleh">
<polygon fill="gray" stroke="green" points="775.5,-468 621.5,-468 621.5,-432 775.5,-432 775.5,-468"/>
<text text-anchor="middle" x="698.5" y="-446.3" font-family="Times,serif" font-size="14.00">midas_midas_ensembleh</text>
</a>
</g>
</g>
<!-- midas_midas_ensembleh&#45;&gt;statetocolumn_mod -->
<g id="edge14" class="edge">
<title>midas_midas_ensembleh&#45;&gt;statetocolumn_mod</title>
<path fill="none" stroke="black" d="M708.22,-424.11C718.26,-396.09 732.5,-348.99 732.5,-307 732.5,-307 732.5,-307 732.5,-161 732.5,-62.6 594.43,-32.39 510.83,-23.11"/>
<ellipse fill="black" stroke="black" cx="706.76" cy="-428.07" rx="4" ry="4"/>
</g>
<!-- midas_midas_letkf -->
<g id="node16" class="node">
<title>midas_midas_letkf</title>
<g id="a_node16"><a xlink:href="../programs/midas_letkf.html" xlink:title="midas_midas_letkf">
<polygon fill="gray" stroke="green" points="864.5,-540 742.5,-540 742.5,-504 864.5,-504 864.5,-540"/>
<text text-anchor="middle" x="803.5" y="-518.3" font-family="Times,serif" font-size="14.00">midas_midas_letkf</text>
</a>
</g>
</g>
<!-- midas_midas_letkf&#45;&gt;statetocolumn_mod -->
<g id="edge15" class="edge">
<title>midas_midas_letkf&#45;&gt;statetocolumn_mod</title>
<path fill="none" stroke="black" d="M803.5,-495.78C803.5,-467.39 803.5,-419.89 803.5,-379 803.5,-379 803.5,-379 803.5,-161 803.5,-103.79 761.21,-98.5 710.5,-72 647.36,-39.01 565.74,-26.53 510.51,-21.82"/>
<ellipse fill="black" stroke="black" cx="803.5" cy="-499.95" rx="4" ry="4"/>
</g>
<!-- midas_midas_var -->
<g id="node17" class="node">
<title>midas_midas_var</title>
<g id="a_node17"><a xlink:href="../programs/midas_var.html" xlink:title="midas_midas_var">
<polygon fill="gray" stroke="green" points="949,-612 836,-612 836,-576 949,-576 949,-612"/>
<text text-anchor="middle" x="892.5" y="-590.3" font-family="Times,serif" font-size="14.00">midas_midas_var</text>
</a>
</g>
</g>
<!-- midas_midas_var&#45;&gt;statetocolumn_mod -->
<g id="edge16" class="edge">
<title>midas_midas_var&#45;&gt;statetocolumn_mod</title>
<path fill="none" stroke="black" d="M892.5,-567.78C892.5,-539.39 892.5,-491.89 892.5,-451 892.5,-451 892.5,-451 892.5,-161 892.5,-89.88 825.57,-98.33 759.5,-72 677.33,-39.25 575.06,-26.73 510.76,-21.95"/>
<ellipse fill="black" stroke="black" cx="892.5" cy="-571.95" rx="4" ry="4"/>
</g>
</g>
</svg>
