<?xml version="1.0" encoding="UTF-8" standalone="no"?>
<!DOCTYPE svg PUBLIC "-//W3C//DTD SVG 1.1//EN"
 "http://www.w3.org/Graphics/SVG/1.1/DTD/svg11.dtd">
<!-- Generated by graphviz version 3.0.0 (20220315.2325)
 -->
<!-- Title: thinning_mod Pages: 1 -->
<svg width="773pt" height="673pt"
 viewBox="0.00 0.00 773.00 673.00" xmlns="http://www.w3.org/2000/svg" xmlns:xlink="http://www.w3.org/1999/xlink">
<g id="graph0" class="graph" transform="scale(1 1) rotate(0) translate(4 669)">
<title>thinning_mod</title>
<polygon fill="white" stroke="transparent" points="-4,4 -4,-669 769,-669 769,4 -4,4"/>
<text text-anchor="middle" x="382.5" y="-37.8" font-family="Times,serif" font-size="14.00">Red boxes indicate modules with dependencies not shown</text>
<text text-anchor="middle" x="382.5" y="-22.8" font-family="Times,serif" font-size="14.00">Lower level dependencies can be shown by clicking on a red box</text>
<text text-anchor="middle" x="382.5" y="-7.8" font-family="Times,serif" font-size="14.00">Shaded boxes indicate modules with no dependencies</text>
<!-- thinning_mod -->
<g id="node1" class="node">
<title>thinning_mod</title>
<g id="a_node1"><a xlink:href="thinning_mod.html" xlink:title="thinning_mod">
<polygon fill="none" stroke="black" points="369,-665 277,-665 277,-629 369,-629 369,-665"/>
<text text-anchor="middle" x="323" y="-643.3" font-family="Times,serif" font-size="14.00">thinning_mod</text>
</a>
</g>
</g>
<!-- bufr_mod -->
<g id="node2" class="node">
<title>bufr_mod</title>
<g id="a_node2"><a xlink:href="bufr_mod.html" xlink:title="bufr_mod">
<polygon fill="gray" stroke="black" points="70,-593 0,-593 0,-557 70,-557 70,-593"/>
<text text-anchor="middle" x="35" y="-571.3" font-family="Times,serif" font-size="14.00">bufr_mod</text>
</a>
</g>
</g>
<!-- thinning_mod&#45;&gt;bufr_mod -->
<g id="edge1" class="edge">
<title>thinning_mod&#45;&gt;bufr_mod</title>
<path fill="none" stroke="black" d="M276.79,-637.4C228.36,-628.01 150.24,-611.77 84,-593 82.59,-592.6 81.17,-592.18 79.73,-591.75"/>
<polygon fill="black" stroke="black" points="80.76,-588.41 70.17,-588.75 78.66,-595.09 80.76,-588.41"/>
</g>
<!-- codtyp_mod -->
<g id="node3" class="node">
<title>codtyp_mod</title>
<g id="a_node3"><a xlink:href="../modules/codtyp_mod.svg" xlink:title="codtyp_mod">
<polygon fill="none" stroke="red" points="124,-521 40,-521 40,-485 124,-485 124,-521"/>
<text text-anchor="middle" x="82" y="-499.3" font-family="Times,serif" font-size="14.00">codtyp_mod</text>
</a>
</g>
</g>
<!-- thinning_mod&#45;&gt;codtyp_mod -->
<g id="edge2" class="edge">
<title>thinning_mod&#45;&gt;codtyp_mod</title>
<path fill="none" stroke="black" d="M276.71,-642.02C236.59,-636.55 178.74,-623.59 138,-593 116.67,-576.99 101.45,-550.26 92.31,-530.27"/>
<polygon fill="black" stroke="black" points="95.51,-528.85 88.31,-521.07 89.09,-531.64 95.51,-528.85"/>
</g>
<!-- earthconstants_mod -->
<g id="node4" class="node">
<title>earthconstants_mod</title>
<g id="a_node4"><a xlink:href="../modules/earthconstants_mod.svg" xlink:title="earthconstants_mod">
<polygon fill="none" stroke="red" points="161.5,-449 36.5,-449 36.5,-413 161.5,-413 161.5,-449"/>
<text text-anchor="middle" x="99" y="-427.3" font-family="Times,serif" font-size="14.00">earthconstants_mod</text>
</a>
</g>
</g>
<!-- thinning_mod&#45;&gt;earthconstants_mod -->
<g id="edge3" class="edge">
<title>thinning_mod&#45;&gt;earthconstants_mod</title>
<path fill="none" stroke="black" d="M276.96,-639.56C244.99,-632.88 203.39,-619.51 176,-593 138.87,-557.07 156.61,-530.95 133,-485 128.25,-475.76 122.35,-466.08 116.8,-457.56"/>
<polygon fill="black" stroke="black" points="119.66,-455.55 111.2,-449.17 113.84,-459.43 119.66,-455.55"/>
</g>
<!-- gridstatevectorfileio_mod -->
<g id="node5" class="node">
<title>gridstatevectorfileio_mod</title>
<g id="a_node5"><a xlink:href="../modules/gridstatevectorfileio_mod.svg" xlink:title="gridstatevectorfileio_mod">
<polygon fill="none" stroke="red" points="199.5,-377 44.5,-377 44.5,-341 199.5,-341 199.5,-377"/>
<text text-anchor="middle" x="122" y="-355.3" font-family="Times,serif" font-size="14.00">gridstatevectorfileio_mod</text>
</a>
</g>
</g>
<!-- thinning_mod&#45;&gt;gridstatevectorfileio_mod -->
<g id="edge4" class="edge">
<title>thinning_mod&#45;&gt;gridstatevectorfileio_mod</title>
<path fill="none" stroke="black" d="M276.82,-633.66C254.8,-625.52 229.86,-612.65 214,-593 162.28,-528.91 208.6,-485.75 170,-413 164.56,-402.76 156.71,-392.93 148.92,-384.59"/>
<polygon fill="black" stroke="black" points="151.35,-382.07 141.85,-377.37 146.34,-386.96 151.35,-382.07"/>
</g>
<!-- gridstatevector_mod -->
<g id="node6" class="node">
<title>gridstatevector_mod</title>
<g id="a_node6"><a xlink:href="../modules/gridstatevector_mod.svg" xlink:title="gridstatevector_mod">
<polygon fill="none" stroke="red" points="237.5,-305 110.5,-305 110.5,-269 237.5,-269 237.5,-305"/>
<text text-anchor="middle" x="174" y="-283.3" font-family="Times,serif" font-size="14.00">gridstatevector_mod</text>
</a>
</g>
</g>
<!-- thinning_mod&#45;&gt;gridstatevector_mod -->
<g id="edge5" class="edge">
<title>thinning_mod&#45;&gt;gridstatevector_mod</title>
<path fill="none" stroke="black" d="M291.15,-628.8C277.27,-619.82 261.94,-607.63 252,-593 228.99,-559.11 228,-544.97 228,-504 228,-504 228,-504 228,-430 228,-389.46 223.63,-378.41 208,-341 204.06,-331.57 198.46,-321.95 192.94,-313.55"/>
<polygon fill="black" stroke="black" points="195.83,-311.57 187.29,-305.29 190.05,-315.52 195.83,-311.57"/>
</g>
<!-- horizontalcoord_mod -->
<g id="node7" class="node">
<title>horizontalcoord_mod</title>
<g id="a_node7"><a xlink:href="../modules/horizontalcoord_mod.svg" xlink:title="horizontalcoord_mod">
<polygon fill="none" stroke="red" points="275.5,-233 142.5,-233 142.5,-197 275.5,-197 275.5,-233"/>
<text text-anchor="middle" x="209" y="-211.3" font-family="Times,serif" font-size="14.00">horizontalcoord_mod</text>
</a>
</g>
</g>
<!-- thinning_mod&#45;&gt;horizontalcoord_mod -->
<g id="edge6" class="edge">
<title>thinning_mod&#45;&gt;horizontalcoord_mod</title>
<path fill="none" stroke="black" d="M310.33,-628.57C303.53,-618.56 295.45,-605.52 290,-593 273.66,-555.43 266,-544.97 266,-504 266,-504 266,-504 266,-358 266,-317.46 262.36,-306.1 246,-269 241.77,-259.4 235.69,-249.74 229.68,-241.35"/>
<polygon fill="black" stroke="black" points="232.31,-239.02 223.52,-233.11 226.71,-243.22 232.31,-239.02"/>
</g>
<!-- kdtree2_mod -->
<g id="node8" class="node">
<title>kdtree2_mod</title>
<g id="a_node8"><a xlink:href="../modules/kdtree2_mod.svg" xlink:title="kdtree2_mod">
<polygon fill="none" stroke="red" points="314,-161 226,-161 226,-125 314,-125 314,-161"/>
<text text-anchor="middle" x="270" y="-139.3" font-family="Times,serif" font-size="14.00">kdtree2_mod</text>
</a>
</g>
</g>
<!-- thinning_mod&#45;&gt;kdtree2_mod -->
<g id="edge7" class="edge">
<title>thinning_mod&#45;&gt;kdtree2_mod</title>
<path fill="none" stroke="black" d="M319.16,-628.61C313.6,-601.94 304,-549.27 304,-504 304,-504 304,-504 304,-286 304,-244.91 290.37,-198.92 280.37,-170.72"/>
<polygon fill="black" stroke="black" points="283.6,-169.36 276.88,-161.17 277.03,-171.76 283.6,-169.36"/>
</g>
<!-- mathphysconstants_mod -->
<g id="node9" class="node">
<title>mathphysconstants_mod</title>
<g id="a_node9"><a xlink:href="mathphysconstants_mod.html" xlink:title="mathphysconstants_mod">
<polygon fill="gray" stroke="black" points="417,-89 267,-89 267,-53 417,-53 417,-89"/>
<text text-anchor="middle" x="342" y="-67.3" font-family="Times,serif" font-size="14.00">mathphysconstants_mod</text>
</a>
</g>
</g>
<!-- thinning_mod&#45;&gt;mathphysconstants_mod -->
<g id="edge8" class="edge">
<title>thinning_mod&#45;&gt;mathphysconstants_mod</title>
<path fill="none" stroke="black" d="M326.84,-628.61C332.4,-601.94 342,-549.27 342,-504 342,-504 342,-504 342,-214 342,-174 342,-127.65 342,-99.08"/>
<polygon fill="black" stroke="black" points="345.5,-99.05 342,-89.05 338.5,-99.05 345.5,-99.05"/>
</g>
<!-- midasmpi_mod -->
<g id="node10" class="node">
<title>midasmpi_mod</title>
<g id="a_node10"><a xlink:href="../modules/midasmpi_mod.svg" xlink:title="midasmpi_mod">
<polygon fill="none" stroke="red" points="471.5,-593 370.5,-593 370.5,-557 471.5,-557 471.5,-593"/>
<text text-anchor="middle" x="421" y="-571.3" font-family="Times,serif" font-size="14.00">midasmpi_mod</text>
</a>
</g>
</g>
<!-- thinning_mod&#45;&gt;midasmpi_mod -->
<g id="edge9" class="edge">
<title>thinning_mod&#45;&gt;midasmpi_mod</title>
<path fill="none" stroke="black" d="M346.97,-628.88C359.55,-619.89 375.13,-608.76 388.75,-599.03"/>
<polygon fill="black" stroke="black" points="390.83,-601.85 396.93,-593.19 386.76,-596.15 390.83,-601.85"/>
</g>
<!-- obsspacedata_mod -->
<g id="node11" class="node">
<title>obsspacedata_mod</title>
<g id="a_node11"><a xlink:href="../modules/obsspacedata_mod.svg" xlink:title="obsspacedata_mod">
<polygon fill="none" stroke="red" points="510,-521 392,-521 392,-485 510,-485 510,-521"/>
<text text-anchor="middle" x="451" y="-499.3" font-family="Times,serif" font-size="14.00">obsspacedata_mod</text>
</a>
</g>
</g>
<!-- thinning_mod&#45;&gt;obsspacedata_mod -->
<g id="edge10" class="edge">
<title>thinning_mod&#45;&gt;obsspacedata_mod</title>
<path fill="none" stroke="black" d="M369.25,-644.21C405.92,-640.06 455,-627.82 480,-593 493.58,-574.08 482.87,-548.45 470.81,-529.56"/>
<polygon fill="black" stroke="black" points="473.59,-527.43 465.07,-521.14 467.81,-531.37 473.59,-527.43"/>
</g>
<!-- physicsfunctions_mod -->
<g id="node12" class="node">
<title>physicsfunctions_mod</title>
<g id="a_node12"><a xlink:href="../modules/physicsfunctions_mod.svg" xlink:title="physicsfunctions_mod">
<polygon fill="none" stroke="red" points="548,-449 410,-449 410,-413 548,-413 548,-449"/>
<text text-anchor="middle" x="479" y="-427.3" font-family="Times,serif" font-size="14.00">physicsfunctions_mod</text>
</a>
</g>
</g>
<!-- thinning_mod&#45;&gt;physicsfunctions_mod -->
<g id="edge11" class="edge">
<title>thinning_mod&#45;&gt;physicsfunctions_mod</title>
<path fill="none" stroke="black" d="M369.37,-643.85C408.73,-639.55 464.06,-627.29 498,-593 532.4,-558.25 534.53,-531.37 519,-485 515.65,-475 509.58,-465.38 503.17,-457.14"/>
<polygon fill="black" stroke="black" points="505.82,-454.85 496.73,-449.4 500.44,-459.33 505.82,-454.85"/>
</g>
<!-- timecoord_mod -->
<g id="node13" class="node">
<title>timecoord_mod</title>
<g id="a_node13"><a xlink:href="../modules/timecoord_mod.svg" xlink:title="timecoord_mod">
<polygon fill="none" stroke="red" points="606,-377 504,-377 504,-341 606,-341 606,-377"/>
<text text-anchor="middle" x="555" y="-355.3" font-family="Times,serif" font-size="14.00">timecoord_mod</text>
</a>
</g>
</g>
<!-- thinning_mod&#45;&gt;timecoord_mod -->
<g id="edge12" class="edge">
<title>thinning_mod&#45;&gt;timecoord_mod</title>
<path fill="none" stroke="black" d="M369.3,-639.52C422.04,-631.19 503.69,-615.14 525,-593 578.78,-537.14 569.23,-435.74 560.75,-387.25"/>
<polygon fill="black" stroke="black" points="564.15,-386.39 558.87,-377.2 557.27,-387.67 564.15,-386.39"/>
</g>
<!-- utilities_mod -->
<g id="node14" class="node">
<title>utilities_mod</title>
<g id="a_node14"><a xlink:href="../modules/utilities_mod.svg" xlink:title="utilities_mod">
<polygon fill="none" stroke="red" points="678,-305 590,-305 590,-269 678,-269 678,-305"/>
<text text-anchor="middle" x="634" y="-283.3" font-family="Times,serif" font-size="14.00">utilities_mod</text>
</a>
</g>
</g>
<!-- thinning_mod&#45;&gt;utilities_mod -->
<g id="edge13" class="edge">
<title>thinning_mod&#45;&gt;utilities_mod</title>
<path fill="none" stroke="black" d="M369.22,-645.29C455.86,-641.27 634,-619 634,-504 634,-504 634,-504 634,-430 634,-390 634,-343.65 634,-315.08"/>
<polygon fill="black" stroke="black" points="637.5,-315.05 634,-305.05 630.5,-315.05 637.5,-315.05"/>
</g>
<!-- verticalcoord_mod -->
<g id="node15" class="node">
<title>verticalcoord_mod</title>
<g id="a_node15"><a xlink:href="../modules/verticalcoord_mod.svg" xlink:title="verticalcoord_mod">
<polygon fill="none" stroke="red" points="765,-233 647,-233 647,-197 765,-197 765,-233"/>
<text text-anchor="middle" x="706" y="-211.3" font-family="Times,serif" font-size="14.00">verticalcoord_mod</text>
</a>
</g>
</g>
<!-- thinning_mod&#45;&gt;verticalcoord_mod -->
<g id="edge14" class="edge">
<title>thinning_mod&#45;&gt;verticalcoord_mod</title>
<path fill="none" stroke="black" d="M369.24,-645.73C428.95,-643.61 534.63,-633.77 614,-593 664.61,-567.01 706,-560.89 706,-504 706,-504 706,-504 706,-358 706,-318 706,-271.65 706,-243.08"/>
<polygon fill="black" stroke="black" points="709.5,-243.05 706,-233.05 702.5,-243.05 709.5,-243.05"/>
</g>
</g>
</svg>
