<?xml version="1.0" encoding="UTF-8" standalone="no"?>
<!DOCTYPE svg PUBLIC "-//W3C//DTD SVG 1.1//EN"
 "http://www.w3.org/Graphics/SVG/1.1/DTD/svg11.dtd">
<!-- Generated by graphviz version 3.0.0 (20220315.2325)
 -->
<!-- Title: thinning_mod Pages: 1 -->
<svg width="430pt" height="241pt"
 viewBox="0.00 0.00 430.00 241.00" xmlns="http://www.w3.org/2000/svg" xmlns:xlink="http://www.w3.org/1999/xlink">
<g id="graph0" class="graph" transform="scale(1 1) rotate(0) translate(4 237)">
<title>thinning_mod</title>
<polygon fill="white" stroke="transparent" points="-4,4 -4,-237 426,-237 426,4 -4,4"/>
<text text-anchor="middle" x="211" y="-217.8" font-family="Times,serif" font-size="14.00">Blue boxes indicate modules with reverse dependencies not shown</text>
<text text-anchor="middle" x="211" y="-202.8" font-family="Times,serif" font-size="14.00">Higher level reverse dependencies can be shown by clicking on a blue box</text>
<text text-anchor="middle" x="211" y="-187.8" font-family="Times,serif" font-size="14.00">Green boxes are programs</text>
<!-- thinning_mod -->
<g id="node1" class="node">
<title>thinning_mod</title>
<g id="a_node1"><a xlink:href="thinning_mod.html" xlink:title="thinning_mod">
<polygon fill="none" stroke="black" points="262.5,-36 170.5,-36 170.5,0 262.5,0 262.5,-36"/>
<text text-anchor="middle" x="216.5" y="-14.3" font-family="Times,serif" font-size="14.00">thinning_mod</text>
</a>
</g>
</g>
<!-- midas_midas_obsselection -->
<g id="node2" class="node">
<title>midas_midas_obsselection</title>
<g id="a_node2"><a xlink:href="../programs/midas_obsselection.html" xlink:title="midas_midas_obsselection">
<polygon fill="gray" stroke="green" points="243,-108 80,-108 80,-72 243,-72 243,-108"/>
<text text-anchor="middle" x="161.5" y="-86.3" font-family="Times,serif" font-size="14.00">midas_midas_obsselection</text>
</a>
</g>
</g>
<!-- midas_midas_obsselection&#45;&gt;thinning_mod -->
<g id="edge1" class="edge">
<title>midas_midas_obsselection&#45;&gt;thinning_mod</title>
<path fill="none" stroke="black" d="M180.11,-65.31C187.64,-55.73 196.16,-44.89 203.06,-36.1"/>
<ellipse fill="black" stroke="black" cx="177.57" cy="-68.55" rx="4" ry="4"/>
</g>
<!-- midas_midas_thinning -->
<g id="node3" class="node">
<title>midas_midas_thinning</title>
<g id="a_node3"><a xlink:href="../programs/midas_thinning.html" xlink:title="midas_midas_thinning">
<polygon fill="gray" stroke="green" points="342,-180 201,-180 201,-144 342,-144 342,-180"/>
<text text-anchor="middle" x="271.5" y="-158.3" font-family="Times,serif" font-size="14.00">midas_midas_thinning</text>
</a>
</g>
</g>
<!-- midas_midas_thinning&#45;&gt;thinning_mod -->
<g id="edge2" class="edge">
<title>midas_midas_thinning&#45;&gt;thinning_mod</title>
<path fill="none" stroke="black" d="M268.69,-135.3C266.06,-117.08 261.19,-92.35 252.5,-72 247,-59.11 238.19,-46.07 230.66,-36.15"/>
<ellipse fill="black" stroke="black" cx="269.27" cy="-139.71" rx="4" ry="4"/>
</g>
</g>
</svg>
