<?xml version="1.0" encoding="UTF-8" standalone="no"?>
<!DOCTYPE svg PUBLIC "-//W3C//DTD SVG 1.1//EN"
 "http://www.w3.org/Graphics/SVG/1.1/DTD/svg11.dtd">
<!-- Generated by graphviz version 3.0.0 (20220315.2325)
 -->
<!-- Title: timecoord_mod Pages: 1 -->
<svg width="2947pt" height="673pt"
 viewBox="0.00 0.00 2947.00 673.00" xmlns="http://www.w3.org/2000/svg" xmlns:xlink="http://www.w3.org/1999/xlink">
<g id="graph0" class="graph" transform="scale(1 1) rotate(0) translate(4 669)">
<title>timecoord_mod</title>
<polygon fill="white" stroke="transparent" points="-4,4 -4,-669 2943,-669 2943,4 -4,4"/>
<text text-anchor="middle" x="1469.5" y="-649.8" font-family="Times,serif" font-size="14.00">Blue boxes indicate modules with reverse dependencies not shown</text>
<text text-anchor="middle" x="1469.5" y="-634.8" font-family="Times,serif" font-size="14.00">Higher level reverse dependencies can be shown by clicking on a blue box</text>
<text text-anchor="middle" x="1469.5" y="-619.8" font-family="Times,serif" font-size="14.00">Green boxes are programs</text>
<!-- timecoord_mod -->
<g id="node1" class="node">
<title>timecoord_mod</title>
<g id="a_node1"><a xlink:href="timecoord_mod.html" xlink:title="timecoord_mod">
<polygon fill="none" stroke="black" points="1514.5,-36 1412.5,-36 1412.5,0 1514.5,0 1514.5,-36"/>
<text text-anchor="middle" x="1463.5" y="-14.3" font-family="Times,serif" font-size="14.00">timecoord_mod</text>
</a>
</g>
</g>
<!-- bgckocean_mod -->
<g id="node2" class="node">
<title>bgckocean_mod</title>
<g id="a_node2"><a xlink:href="../modules/bgckocean_mod_rev.svg" xlink:title="bgckocean_mod">
<polygon fill="none" stroke="blue" points="105,-108 0,-108 0,-72 105,-72 105,-108"/>
<text text-anchor="middle" x="52.5" y="-86.3" font-family="Times,serif" font-size="14.00">bgckocean_mod</text>
</a>
</g>
</g>
<!-- bgckocean_mod&#45;&gt;timecoord_mod -->
<g id="edge1" class="edge">
<title>bgckocean_mod&#45;&gt;timecoord_mod</title>
<path fill="none" stroke="black" d="M113.35,-72.98C115.42,-72.62 117.47,-72.29 119.5,-72 376.02,-34.82 1198.35,-22.27 1412.25,-19.59"/>
<ellipse fill="black" stroke="black" cx="109.25" cy="-73.76" rx="4" ry="4"/>
</g>
<!-- biascorrectionconv_mod -->
<g id="node3" class="node">
<title>biascorrectionconv_mod</title>
<g id="a_node3"><a xlink:href="../modules/biascorrectionconv_mod_rev.svg" xlink:title="biascorrectionconv_mod">
<polygon fill="none" stroke="blue" points="175.5,-180 25.5,-180 25.5,-144 175.5,-144 175.5,-180"/>
<text text-anchor="middle" x="100.5" y="-158.3" font-family="Times,serif" font-size="14.00">biascorrectionconv_mod</text>
</a>
</g>
</g>
<!-- biascorrectionconv_mod&#45;&gt;timecoord_mod -->
<g id="edge2" class="edge">
<title>biascorrectionconv_mod&#45;&gt;timecoord_mod</title>
<path fill="none" stroke="black" d="M116.31,-137.18C132.03,-115.79 158.26,-85.71 189.5,-72 302.7,-22.33 1188.32,-18.99 1412.22,-18.94"/>
<ellipse fill="black" stroke="black" cx="113.91" cy="-140.54" rx="4" ry="4"/>
</g>
<!-- biascorrectionsat_mod -->
<g id="node4" class="node">
<title>biascorrectionsat_mod</title>
<g id="a_node4"><a xlink:href="../modules/biascorrectionsat_mod_rev.svg" xlink:title="biascorrectionsat_mod">
<polygon fill="none" stroke="blue" points="213,-252 74,-252 74,-216 213,-216 213,-252"/>
<text text-anchor="middle" x="143.5" y="-230.3" font-family="Times,serif" font-size="14.00">biascorrectionsat_mod</text>
</a>
</g>
</g>
<!-- biascorrectionsat_mod&#45;&gt;timecoord_mod -->
<g id="edge3" class="edge">
<title>biascorrectionsat_mod&#45;&gt;timecoord_mod</title>
<path fill="none" stroke="black" d="M164.11,-209.31C171.15,-200.48 178.71,-190.14 184.5,-180 210.11,-135.13 185.37,-101.91 227.5,-72 276.51,-37.21 1185.06,-22.73 1412.31,-19.65"/>
<ellipse fill="black" stroke="black" cx="161.39" cy="-212.63" rx="4" ry="4"/>
</g>
<!-- bmatrix1dvar_mod -->
<g id="node5" class="node">
<title>bmatrix1dvar_mod</title>
<g id="a_node5"><a xlink:href="../modules/bmatrix1dvar_mod_rev.svg" xlink:title="bmatrix1dvar_mod">
<polygon fill="none" stroke="blue" points="251,-324 132,-324 132,-288 251,-288 251,-324"/>
<text text-anchor="middle" x="191.5" y="-302.3" font-family="Times,serif" font-size="14.00">bmatrix1dvar_mod</text>
</a>
</g>
</g>
<!-- bmatrix1dvar_mod&#45;&gt;timecoord_mod -->
<g id="edge4" class="edge">
<title>bmatrix1dvar_mod&#45;&gt;timecoord_mod</title>
<path fill="none" stroke="black" d="M207,-280.89C212.17,-272.07 217.6,-261.83 221.5,-252 251.85,-175.44 201.86,-124.27 265.5,-72 310.42,-35.1 1189.06,-22.24 1412.28,-19.57"/>
<ellipse fill="black" stroke="black" cx="204.82" cy="-284.51" rx="4" ry="4"/>
</g>
<!-- bmatrixensemble_mod -->
<g id="node6" class="node">
<title>bmatrixensemble_mod</title>
<g id="a_node6"><a xlink:href="../modules/bmatrixensemble_mod_rev.svg" xlink:title="bmatrixensemble_mod">
<polygon fill="none" stroke="blue" points="289.5,-396 149.5,-396 149.5,-360 289.5,-360 289.5,-396"/>
<text text-anchor="middle" x="219.5" y="-374.3" font-family="Times,serif" font-size="14.00">bmatrixensemble_mod</text>
</a>
</g>
</g>
<!-- bmatrixensemble_mod&#45;&gt;timecoord_mod -->
<g id="edge5" class="edge">
<title>bmatrixensemble_mod&#45;&gt;timecoord_mod</title>
<path fill="none" stroke="black" d="M240.81,-353.28C247.66,-344.59 254.71,-334.34 259.5,-324 276.54,-287.21 279.5,-275.54 279.5,-235 279.5,-235 279.5,-235 279.5,-161 279.5,-120.03 271.55,-97.65 303.5,-72 347.29,-36.84 1194.06,-22.73 1412.46,-19.67"/>
<ellipse fill="black" stroke="black" cx="238.18" cy="-356.51" rx="4" ry="4"/>
</g>
<!-- bmatrixhi_mod -->
<g id="node7" class="node">
<title>bmatrixhi_mod</title>
<g id="a_node7"><a xlink:href="../modules/bmatrixhi_mod_rev.svg" xlink:title="bmatrixhi_mod">
<polygon fill="none" stroke="blue" points="327.5,-468 227.5,-468 227.5,-432 327.5,-432 327.5,-468"/>
<text text-anchor="middle" x="277.5" y="-446.3" font-family="Times,serif" font-size="14.00">bmatrixhi_mod</text>
</a>
</g>
</g>
<!-- bmatrixhi_mod&#45;&gt;timecoord_mod -->
<g id="edge6" class="edge">
<title>bmatrixhi_mod&#45;&gt;timecoord_mod</title>
<path fill="none" stroke="black" d="M288.93,-424.28C300.75,-396.4 317.5,-349.43 317.5,-307 317.5,-307 317.5,-307 317.5,-161 317.5,-120.03 309.57,-97.67 341.5,-72 383.72,-38.05 1198.29,-23.1 1412.34,-19.75"/>
<ellipse fill="black" stroke="black" cx="287.19" cy="-428.28" rx="4" ry="4"/>
</g>
<!-- calcstatsglb_mod -->
<g id="node8" class="node">
<title>calcstatsglb_mod</title>
<g id="a_node8"><a xlink:href="../modules/calcstatsglb_mod_rev.svg" xlink:title="calcstatsglb_mod">
<polygon fill="none" stroke="blue" points="365.5,-540 255.5,-540 255.5,-504 365.5,-504 365.5,-540"/>
<text text-anchor="middle" x="310.5" y="-518.3" font-family="Times,serif" font-size="14.00">calcstatsglb_mod</text>
</a>
</g>
</g>
<!-- calcstatsglb_mod&#45;&gt;timecoord_mod -->
<g id="edge7" class="edge">
<title>calcstatsglb_mod&#45;&gt;timecoord_mod</title>
<path fill="none" stroke="black" d="M324.1,-496.47C328.54,-487.69 333.18,-477.59 336.5,-468 349.73,-429.78 355.5,-419.45 355.5,-379 355.5,-379 355.5,-379 355.5,-161 355.5,-120.03 347.6,-97.7 379.5,-72 420.15,-39.25 1202.85,-23.48 1412.31,-19.84"/>
<ellipse fill="black" stroke="black" cx="322.13" cy="-500.25" rx="4" ry="4"/>
</g>
<!-- calcstatslam_mod -->
<g id="node9" class="node">
<title>calcstatslam_mod</title>
<g id="a_node9"><a xlink:href="../modules/calcstatslam_mod_rev.svg" xlink:title="calcstatslam_mod">
<polygon fill="none" stroke="blue" points="450,-612 337,-612 337,-576 450,-576 450,-612"/>
<text text-anchor="middle" x="393.5" y="-590.3" font-family="Times,serif" font-size="14.00">calcstatslam_mod</text>
</a>
</g>
</g>
<!-- calcstatslam_mod&#45;&gt;timecoord_mod -->
<g id="edge8" class="edge">
<title>calcstatslam_mod&#45;&gt;timecoord_mod</title>
<path fill="none" stroke="black" d="M393.5,-567.78C393.5,-539.39 393.5,-491.89 393.5,-451 393.5,-451 393.5,-451 393.5,-161 393.5,-117.45 398.44,-96.42 434.5,-72 515.87,-16.89 1215.76,-17.34 1412.34,-18.57"/>
<ellipse fill="black" stroke="black" cx="393.5" cy="-571.95" rx="4" ry="4"/>
</g>
<!-- enkf_mod -->
<g id="node10" class="node">
<title>enkf_mod</title>
<g id="a_node10"><a xlink:href="../modules/enkf_mod_rev.svg" xlink:title="enkf_mod">
<polygon fill="none" stroke="blue" points="517,-108 444,-108 444,-72 517,-72 517,-108"/>
<text text-anchor="middle" x="480.5" y="-86.3" font-family="Times,serif" font-size="14.00">enkf_mod</text>
</a>
</g>
</g>
<!-- enkf_mod&#45;&gt;timecoord_mod -->
<g id="edge9" class="edge">
<title>enkf_mod&#45;&gt;timecoord_mod</title>
<path fill="none" stroke="black" d="M525.29,-73.34C527.38,-72.84 529.45,-72.39 531.5,-72 702.51,-39.24 1243.05,-24.13 1412.31,-20.13"/>
<ellipse fill="black" stroke="black" cx="521.11" cy="-74.45" rx="4" ry="4"/>
</g>
<!-- ensemblestatevector_mod -->
<g id="node11" class="node">
<title>ensemblestatevector_mod</title>
<g id="a_node11"><a xlink:href="../modules/ensemblestatevector_mod_rev.svg" xlink:title="ensemblestatevector_mod">
<polygon fill="none" stroke="blue" points="577.5,-180 421.5,-180 421.5,-144 577.5,-144 577.5,-180"/>
<text text-anchor="middle" x="499.5" y="-158.3" font-family="Times,serif" font-size="14.00">ensemblestatevector_mod</text>
</a>
</g>
</g>
<!-- ensemblestatevector_mod&#45;&gt;timecoord_mod -->
<g id="edge10" class="edge">
<title>ensemblestatevector_mod&#45;&gt;timecoord_mod</title>
<path fill="none" stroke="black" d="M516.09,-137.31C532.51,-116 559.75,-85.98 591.5,-72 666.54,-38.96 1237.03,-23.92 1412.39,-20.05"/>
<ellipse fill="black" stroke="black" cx="513.55" cy="-140.69" rx="4" ry="4"/>
</g>
<!-- enspostprocess_mod -->
<g id="node12" class="node">
<title>enspostprocess_mod</title>
<g id="a_node12"><a xlink:href="../modules/enspostprocess_mod_rev.svg" xlink:title="enspostprocess_mod">
<polygon fill="none" stroke="blue" points="615.5,-252 487.5,-252 487.5,-216 615.5,-216 615.5,-252"/>
<text text-anchor="middle" x="551.5" y="-230.3" font-family="Times,serif" font-size="14.00">enspostprocess_mod</text>
</a>
</g>
</g>
<!-- enspostprocess_mod&#45;&gt;timecoord_mod -->
<g id="edge11" class="edge">
<title>enspostprocess_mod&#45;&gt;timecoord_mod</title>
<path fill="none" stroke="black" d="M568.79,-209.1C574.81,-200.2 581.34,-189.87 586.5,-180 610.42,-134.2 587.68,-102.34 629.5,-72 692.77,-26.1 1240.51,-19.92 1412.23,-19.11"/>
<ellipse fill="black" stroke="black" cx="566.37" cy="-212.59" rx="4" ry="4"/>
</g>
<!-- filenames_mod -->
<g id="node13" class="node">
<title>filenames_mod</title>
<g id="a_node13"><a xlink:href="../modules/filenames_mod_rev.svg" xlink:title="filenames_mod">
<polygon fill="none" stroke="blue" points="653,-324 554,-324 554,-288 653,-288 653,-324"/>
<text text-anchor="middle" x="603.5" y="-302.3" font-family="Times,serif" font-size="14.00">filenames_mod</text>
</a>
</g>
</g>
<!-- filenames_mod&#45;&gt;timecoord_mod -->
<g id="edge12" class="edge">
<title>filenames_mod&#45;&gt;timecoord_mod</title>
<path fill="none" stroke="black" d="M614.29,-279.92C617.82,-271.18 621.58,-261.25 624.5,-252 649.27,-173.57 604.66,-125.08 667.5,-72 724.27,-24.05 1245.34,-19.25 1412.29,-18.95"/>
<ellipse fill="black" stroke="black" cx="612.66" cy="-283.86" rx="4" ry="4"/>
</g>
<!-- fsoi_mod -->
<g id="node14" class="node">
<title>fsoi_mod</title>
<g id="a_node14"><a xlink:href="../modules/fsoi_mod_rev.svg" xlink:title="fsoi_mod">
<polygon fill="none" stroke="blue" points="691.5,-396 623.5,-396 623.5,-360 691.5,-360 691.5,-396"/>
<text text-anchor="middle" x="657.5" y="-374.3" font-family="Times,serif" font-size="14.00">fsoi_mod</text>
</a>
</g>
</g>
<!-- fsoi_mod&#45;&gt;timecoord_mod -->
<g id="edge13" class="edge">
<title>fsoi_mod&#45;&gt;timecoord_mod</title>
<path fill="none" stroke="black" d="M664.36,-351.9C671.45,-323.69 681.5,-276.42 681.5,-235 681.5,-235 681.5,-235 681.5,-161 681.5,-120.03 673.87,-98.03 705.5,-72 759.87,-27.26 1250.76,-20.28 1412.26,-19.2"/>
<ellipse fill="black" stroke="black" cx="663.35" cy="-355.8" rx="4" ry="4"/>
</g>
<!-- gridbinning_mod -->
<g id="node15" class="node">
<title>gridbinning_mod</title>
<g id="a_node15"><a xlink:href="../modules/gridbinning_mod_rev.svg" xlink:title="gridbinning_mod">
<polygon fill="none" stroke="blue" points="729.5,-468 619.5,-468 619.5,-432 729.5,-432 729.5,-468"/>
<text text-anchor="middle" x="674.5" y="-446.3" font-family="Times,serif" font-size="14.00">gridbinning_mod</text>
</a>
</g>
</g>
<!-- gridbinning_mod&#45;&gt;timecoord_mod -->
<g id="edge14" class="edge">
<title>gridbinning_mod&#45;&gt;timecoord_mod</title>
<path fill="none" stroke="black" d="M688.1,-424.47C692.54,-415.69 697.18,-405.59 700.5,-396 713.73,-357.78 719.5,-347.45 719.5,-307 719.5,-307 719.5,-307 719.5,-161 719.5,-120.03 711.91,-98.09 743.5,-72 794.81,-29.62 1256.5,-21.08 1412.37,-19.4"/>
<ellipse fill="black" stroke="black" cx="686.13" cy="-428.25" rx="4" ry="4"/>
</g>
<!-- gridstatevectorfileio_mod -->
<g id="node16" class="node">
<title>gridstatevectorfileio_mod</title>
<g id="a_node16"><a xlink:href="../modules/gridstatevectorfileio_mod_rev.svg" xlink:title="gridstatevectorfileio_mod">
<polygon fill="none" stroke="blue" points="767,-540 612,-540 612,-504 767,-504 767,-540"/>
<text text-anchor="middle" x="689.5" y="-518.3" font-family="Times,serif" font-size="14.00">gridstatevectorfileio_mod</text>
</a>
</g>
</g>
<!-- gridstatevectorfileio_mod&#45;&gt;timecoord_mod -->
<g id="edge15" class="edge">
<title>gridstatevectorfileio_mod&#45;&gt;timecoord_mod</title>
<path fill="none" stroke="black" d="M715.71,-498.11C724.15,-489.46 732.78,-479.03 738.5,-468 757.12,-432.09 757.5,-419.45 757.5,-379 757.5,-379 757.5,-379 757.5,-161 757.5,-120.03 749.97,-98.16 781.5,-72 829.74,-31.98 1262.27,-21.92 1412.43,-19.63"/>
<ellipse fill="black" stroke="black" cx="712.79" cy="-500.99" rx="4" ry="4"/>
</g>
<!-- gridstatevector_mod -->
<g id="node17" class="node">
<title>gridstatevector_mod</title>
<g id="a_node17"><a xlink:href="../modules/gridstatevector_mod_rev.svg" xlink:title="gridstatevector_mod">
<polygon fill="none" stroke="blue" points="859,-612 732,-612 732,-576 859,-576 859,-612"/>
<text text-anchor="middle" x="795.5" y="-590.3" font-family="Times,serif" font-size="14.00">gridstatevector_mod</text>
</a>
</g>
</g>
<!-- gridstatevector_mod&#45;&gt;timecoord_mod -->
<g id="edge16" class="edge">
<title>gridstatevector_mod&#45;&gt;timecoord_mod</title>
<path fill="none" stroke="black" d="M795.5,-567.78C795.5,-539.39 795.5,-491.89 795.5,-451 795.5,-451 795.5,-451 795.5,-161 795.5,-120.55 784.12,-98.7 814.5,-72 859.08,-32.82 1267.24,-22.26 1412.48,-19.72"/>
<ellipse fill="black" stroke="black" cx="795.5" cy="-571.95" rx="4" ry="4"/>
</g>
<!-- gridvariabletransforms_mod -->
<g id="node18" class="node">
<title>gridvariabletransforms_mod</title>
<g id="a_node18"><a xlink:href="../modules/gridvariabletransforms_mod_rev.svg" xlink:title="gridvariabletransforms_mod">
<polygon fill="none" stroke="blue" points="993.5,-108 823.5,-108 823.5,-72 993.5,-72 993.5,-108"/>
<text text-anchor="middle" x="908.5" y="-86.3" font-family="Times,serif" font-size="14.00">gridvariabletransforms_mod</text>
</a>
</g>
</g>
<!-- gridvariabletransforms_mod&#45;&gt;timecoord_mod -->
<g id="edge17" class="edge">
<title>gridvariabletransforms_mod&#45;&gt;timecoord_mod</title>
<path fill="none" stroke="black" d="M1001.44,-72.89C1003.48,-72.58 1005.5,-72.29 1007.5,-72 1154.03,-50.92 1327.99,-32.53 1412.43,-24.02"/>
<ellipse fill="black" stroke="black" cx="997.46" cy="-73.49" rx="4" ry="4"/>
</g>
<!-- increment_mod -->
<g id="node19" class="node">
<title>increment_mod</title>
<g id="a_node19"><a xlink:href="../modules/increment_mod_rev.svg" xlink:title="increment_mod">
<polygon fill="none" stroke="blue" points="1031,-180 930,-180 930,-144 1031,-144 1031,-180"/>
<text text-anchor="middle" x="980.5" y="-158.3" font-family="Times,serif" font-size="14.00">increment_mod</text>
</a>
</g>
</g>
<!-- increment_mod&#45;&gt;timecoord_mod -->
<g id="edge18" class="edge">
<title>increment_mod&#45;&gt;timecoord_mod</title>
<path fill="none" stroke="black" d="M991.32,-136.67C1001.95,-115.83 1020.26,-86.89 1045.5,-72 1106.53,-35.99 1314.61,-24.13 1412.2,-20.49"/>
<ellipse fill="black" stroke="black" cx="989.51" cy="-140.35" rx="4" ry="4"/>
</g>
<!-- innovation_mod -->
<g id="node20" class="node">
<title>innovation_mod</title>
<g id="a_node20"><a xlink:href="../modules/innovation_mod_rev.svg" xlink:title="innovation_mod">
<polygon fill="none" stroke="blue" points="1069.5,-252 965.5,-252 965.5,-216 1069.5,-216 1069.5,-252"/>
<text text-anchor="middle" x="1017.5" y="-230.3" font-family="Times,serif" font-size="14.00">innovation_mod</text>
</a>
</g>
</g>
<!-- innovation_mod&#45;&gt;timecoord_mod -->
<g id="edge19" class="edge">
<title>innovation_mod&#45;&gt;timecoord_mod</title>
<path fill="none" stroke="black" d="M1027.77,-208.35C1031.48,-199.43 1035.69,-189.26 1039.5,-180 1059.21,-132.06 1042.59,-103.83 1083.5,-72 1133.71,-32.93 1320.52,-22.66 1412.16,-19.96"/>
<ellipse fill="black" stroke="black" cx="1026.2" cy="-212.13" rx="4" ry="4"/>
</g>
<!-- menetrierdiag_mod -->
<g id="node21" class="node">
<title>menetrierdiag_mod</title>
<g id="a_node21"><a xlink:href="../modules/menetrierdiag_mod_rev.svg" xlink:title="menetrierdiag_mod">
<polygon fill="none" stroke="blue" points="1107.5,-324 985.5,-324 985.5,-288 1107.5,-288 1107.5,-324"/>
<text text-anchor="middle" x="1046.5" y="-302.3" font-family="Times,serif" font-size="14.00">menetrierdiag_mod</text>
</a>
</g>
</g>
<!-- menetrierdiag_mod&#45;&gt;timecoord_mod -->
<g id="edge20" class="edge">
<title>menetrierdiag_mod&#45;&gt;timecoord_mod</title>
<path fill="none" stroke="black" d="M1063.39,-280.61C1068.83,-271.89 1074.49,-261.79 1078.5,-252 1109.68,-175.89 1061.04,-127.77 1121.5,-72 1162.96,-33.76 1327.56,-23.1 1412.38,-20.14"/>
<ellipse fill="black" stroke="black" cx="1061.07" cy="-284.21" rx="4" ry="4"/>
</g>
<!-- minimization_mod -->
<g id="node22" class="node">
<title>minimization_mod</title>
<g id="a_node22"><a xlink:href="../modules/minimization_mod_rev.svg" xlink:title="minimization_mod">
<polygon fill="none" stroke="blue" points="1145,-396 1024,-396 1024,-360 1145,-360 1145,-396"/>
<text text-anchor="middle" x="1084.5" y="-374.3" font-family="Times,serif" font-size="14.00">minimization_mod</text>
</a>
</g>
</g>
<!-- minimization_mod&#45;&gt;timecoord_mod -->
<g id="edge21" class="edge">
<title>minimization_mod&#45;&gt;timecoord_mod</title>
<path fill="none" stroke="black" d="M1101.52,-352.66C1106.98,-343.95 1112.61,-333.84 1116.5,-324 1131.38,-286.39 1135.5,-275.45 1135.5,-235 1135.5,-235 1135.5,-235 1135.5,-161 1135.5,-120.03 1129.25,-99.62 1159.5,-72 1195.7,-38.95 1335.49,-26.07 1412.27,-21.41"/>
<ellipse fill="black" stroke="black" cx="1099.19" cy="-356.26" rx="4" ry="4"/>
</g>
<!-- obsdbfiles_mod -->
<g id="node23" class="node">
<title>obsdbfiles_mod</title>
<g id="a_node23"><a xlink:href="../modules/obsdbfiles_mod_rev.svg" xlink:title="obsdbfiles_mod">
<polygon fill="none" stroke="blue" points="1183.5,-468 1081.5,-468 1081.5,-432 1183.5,-432 1183.5,-468"/>
<text text-anchor="middle" x="1132.5" y="-446.3" font-family="Times,serif" font-size="14.00">obsdbfiles_mod</text>
</a>
</g>
</g>
<!-- obsdbfiles_mod&#45;&gt;timecoord_mod -->
<g id="edge22" class="edge">
<title>obsdbfiles_mod&#45;&gt;timecoord_mod</title>
<path fill="none" stroke="black" d="M1144.06,-424.66C1156.19,-396.86 1173.5,-349.69 1173.5,-307 1173.5,-307 1173.5,-307 1173.5,-161 1173.5,-120.03 1167.58,-99.99 1197.5,-72 1228.02,-43.45 1344.1,-29.01 1412.41,-22.84"/>
<ellipse fill="black" stroke="black" cx="1142.43" cy="-428.32" rx="4" ry="4"/>
</g>
<!-- obsoperatorschem_mod -->
<g id="node24" class="node">
<title>obsoperatorschem_mod</title>
<g id="a_node24"><a xlink:href="../modules/obsoperatorschem_mod_rev.svg" xlink:title="obsoperatorschem_mod">
<polygon fill="none" stroke="blue" points="1221.5,-540 1075.5,-540 1075.5,-504 1221.5,-504 1221.5,-540"/>
<text text-anchor="middle" x="1148.5" y="-518.3" font-family="Times,serif" font-size="14.00">obsoperatorschem_mod</text>
</a>
</g>
</g>
<!-- obsoperatorschem_mod&#45;&gt;timecoord_mod -->
<g id="edge23" class="edge">
<title>obsoperatorschem_mod&#45;&gt;timecoord_mod</title>
<path fill="none" stroke="black" d="M1171.84,-497.87C1179.46,-489.16 1187.29,-478.74 1192.5,-468 1210.15,-431.61 1211.5,-419.45 1211.5,-379 1211.5,-379 1211.5,-379 1211.5,-161 1211.5,-120.03 1206.03,-100.46 1235.5,-72 1260.39,-47.97 1353.01,-32.46 1412.27,-24.77"/>
<ellipse fill="black" stroke="black" cx="1169.06" cy="-500.94" rx="4" ry="4"/>
</g>
<!-- obsoperators_mod -->
<g id="node25" class="node">
<title>obsoperators_mod</title>
<g id="a_node25"><a xlink:href="../modules/obsoperators_mod_rev.svg" xlink:title="obsoperators_mod">
<polygon fill="none" stroke="blue" points="1307.5,-612 1191.5,-612 1191.5,-576 1307.5,-576 1307.5,-612"/>
<text text-anchor="middle" x="1249.5" y="-590.3" font-family="Times,serif" font-size="14.00">obsoperators_mod</text>
</a>
</g>
</g>
<!-- obsoperators_mod&#45;&gt;timecoord_mod -->
<g id="edge24" class="edge">
<title>obsoperators_mod&#45;&gt;timecoord_mod</title>
<path fill="none" stroke="black" d="M1249.5,-567.78C1249.5,-539.39 1249.5,-491.89 1249.5,-451 1249.5,-451 1249.5,-451 1249.5,-161 1249.5,-120.55 1240.7,-101.38 1268.5,-72 1305.4,-33.02 1367.84,-21.7 1412.12,-18.9"/>
<ellipse fill="black" stroke="black" cx="1249.5" cy="-571.95" rx="4" ry="4"/>
</g>
<!-- obsspacediag_mod -->
<g id="node26" class="node">
<title>obsspacediag_mod</title>
<g id="a_node26"><a xlink:href="../modules/obsspacediag_mod_rev.svg" xlink:title="obsspacediag_mod">
<polygon fill="none" stroke="blue" points="1397,-108 1278,-108 1278,-72 1397,-72 1397,-108"/>
<text text-anchor="middle" x="1337.5" y="-86.3" font-family="Times,serif" font-size="14.00">obsspacediag_mod</text>
</a>
</g>
</g>
<!-- obsspacediag_mod&#45;&gt;timecoord_mod -->
<g id="edge25" class="edge">
<title>obsspacediag_mod&#45;&gt;timecoord_mod</title>
<path fill="none" stroke="black" d="M1375.4,-67.94C1393.67,-57.8 1415.3,-45.78 1432.56,-36.19"/>
<ellipse fill="black" stroke="black" cx="1371.82" cy="-69.93" rx="4" ry="4"/>
</g>
<!-- obsspaceerrorstddev_mod -->
<g id="node27" class="node">
<title>obsspaceerrorstddev_mod</title>
<g id="a_node27"><a xlink:href="../modules/obsspaceerrorstddev_mod_rev.svg" xlink:title="obsspaceerrorstddev_mod">
<polygon fill="none" stroke="blue" points="1435,-180 1278,-180 1278,-144 1435,-144 1435,-180"/>
<text text-anchor="middle" x="1356.5" y="-158.3" font-family="Times,serif" font-size="14.00">obsspaceerrorstddev_mod</text>
</a>
</g>
</g>
<!-- obsspaceerrorstddev_mod&#45;&gt;timecoord_mod -->
<g id="edge26" class="edge">
<title>obsspaceerrorstddev_mod&#45;&gt;timecoord_mod</title>
<path fill="none" stroke="black" d="M1379.34,-138.01C1387.9,-128.96 1397.49,-118.28 1405.5,-108 1423.98,-84.29 1442.44,-54.69 1453.41,-36.31"/>
<ellipse fill="black" stroke="black" cx="1376.37" cy="-141.1" rx="4" ry="4"/>
</g>
<!-- obstimeinterp_mod -->
<g id="node28" class="node">
<title>obstimeinterp_mod</title>
<g id="a_node28"><a xlink:href="../modules/obstimeinterp_mod_rev.svg" xlink:title="obstimeinterp_mod">
<polygon fill="none" stroke="blue" points="1473.5,-252 1351.5,-252 1351.5,-216 1473.5,-216 1473.5,-252"/>
<text text-anchor="middle" x="1412.5" y="-230.3" font-family="Times,serif" font-size="14.00">obstimeinterp_mod</text>
</a>
</g>
</g>
<!-- obstimeinterp_mod&#45;&gt;timecoord_mod -->
<g id="edge27" class="edge">
<title>obstimeinterp_mod&#45;&gt;timecoord_mod</title>
<path fill="none" stroke="black" d="M1429.45,-208.78C1434.77,-200.07 1440.14,-189.94 1443.5,-180 1460.48,-129.84 1463.31,-66.53 1463.61,-36.43"/>
<ellipse fill="black" stroke="black" cx="1427.18" cy="-212.35" rx="4" ry="4"/>
</g>
<!-- oceanbackground_mod -->
<g id="node29" class="node">
<title>oceanbackground_mod</title>
<g id="a_node29"><a xlink:href="../modules/oceanbackground_mod_rev.svg" xlink:title="oceanbackground_mod">
<polygon fill="none" stroke="blue" points="1511,-324 1368,-324 1368,-288 1511,-288 1511,-324"/>
<text text-anchor="middle" x="1439.5" y="-302.3" font-family="Times,serif" font-size="14.00">oceanbackground_mod</text>
</a>
</g>
</g>
<!-- oceanbackground_mod&#45;&gt;timecoord_mod -->
<g id="edge28" class="edge">
<title>oceanbackground_mod&#45;&gt;timecoord_mod</title>
<path fill="none" stroke="black" d="M1463.95,-281.91C1471.38,-273.31 1478.61,-262.96 1482.5,-252 1509.7,-175.31 1482.64,-75.82 1469.63,-36.29"/>
<ellipse fill="black" stroke="black" cx="1461.23" cy="-284.88" rx="4" ry="4"/>
</g>
<!-- oceanobservations_mod -->
<g id="node30" class="node">
<title>oceanobservations_mod</title>
<g id="a_node30"><a xlink:href="../modules/oceanobservations_mod_rev.svg" xlink:title="oceanobservations_mod">
<polygon fill="none" stroke="blue" points="1549.5,-396 1403.5,-396 1403.5,-360 1549.5,-360 1549.5,-396"/>
<text text-anchor="middle" x="1476.5" y="-374.3" font-family="Times,serif" font-size="14.00">oceanobservations_mod</text>
</a>
</g>
</g>
<!-- oceanobservations_mod&#45;&gt;timecoord_mod -->
<g id="edge29" class="edge">
<title>oceanobservations_mod&#45;&gt;timecoord_mod</title>
<path fill="none" stroke="black" d="M1499.23,-353.76C1506.67,-345.04 1514.34,-334.64 1519.5,-324 1537.18,-287.52 1539.5,-275.54 1539.5,-235 1539.5,-235 1539.5,-235 1539.5,-161 1539.5,-110.95 1502.34,-61.47 1479.99,-36.23"/>
<ellipse fill="black" stroke="black" cx="1496.55" cy="-356.81" rx="4" ry="4"/>
</g>
<!-- ominusf_mod -->
<g id="node31" class="node">
<title>ominusf_mod</title>
<g id="a_node31"><a xlink:href="../modules/ominusf_mod_rev.svg" xlink:title="ominusf_mod">
<polygon fill="none" stroke="blue" points="1587,-468 1494,-468 1494,-432 1587,-432 1587,-468"/>
<text text-anchor="middle" x="1540.5" y="-446.3" font-family="Times,serif" font-size="14.00">ominusf_mod</text>
</a>
</g>
</g>
<!-- ominusf_mod&#45;&gt;timecoord_mod -->
<g id="edge30" class="edge">
<title>ominusf_mod&#45;&gt;timecoord_mod</title>
<path fill="none" stroke="black" d="M1551.07,-424.19C1562.01,-396.24 1577.5,-349.2 1577.5,-307 1577.5,-307 1577.5,-307 1577.5,-161 1577.5,-105.67 1524.23,-59.63 1490.52,-36.04"/>
<ellipse fill="black" stroke="black" cx="1549.48" cy="-428.17" rx="4" ry="4"/>
</g>
<!-- sqlitefiles_mod -->
<g id="node32" class="node">
<title>sqlitefiles_mod</title>
<g id="a_node32"><a xlink:href="../modules/sqlitefiles_mod_rev.svg" xlink:title="sqlitefiles_mod">
<polygon fill="none" stroke="blue" points="1625,-540 1526,-540 1526,-504 1625,-504 1625,-540"/>
<text text-anchor="middle" x="1575.5" y="-518.3" font-family="Times,serif" font-size="14.00">sqlitefiles_mod</text>
</a>
</g>
</g>
<!-- sqlitefiles_mod&#45;&gt;timecoord_mod -->
<g id="edge31" class="edge">
<title>sqlitefiles_mod&#45;&gt;timecoord_mod</title>
<path fill="none" stroke="black" d="M1586.93,-496.28C1598.75,-468.4 1615.5,-421.43 1615.5,-379 1615.5,-379 1615.5,-379 1615.5,-161 1615.5,-100.15 1549.65,-57.88 1504.63,-36.1"/>
<ellipse fill="black" stroke="black" cx="1585.19" cy="-500.28" rx="4" ry="4"/>
</g>
<!-- sstbias_mod -->
<g id="node33" class="node">
<title>sstbias_mod</title>
<g id="a_node33"><a xlink:href="../modules/sstbias_mod_rev.svg" xlink:title="sstbias_mod">
<polygon fill="none" stroke="blue" points="1695,-612 1612,-612 1612,-576 1695,-576 1695,-612"/>
<text text-anchor="middle" x="1653.5" y="-590.3" font-family="Times,serif" font-size="14.00">sstbias_mod</text>
</a>
</g>
</g>
<!-- sstbias_mod&#45;&gt;timecoord_mod -->
<g id="edge32" class="edge">
<title>sstbias_mod&#45;&gt;timecoord_mod</title>
<path fill="none" stroke="black" d="M1653.5,-567.78C1653.5,-539.39 1653.5,-491.89 1653.5,-451 1653.5,-451 1653.5,-451 1653.5,-161 1653.5,-91.51 1570.94,-51.93 1514.67,-33.02"/>
<ellipse fill="black" stroke="black" cx="1653.5" cy="-571.95" rx="4" ry="4"/>
</g>
<!-- thinning_mod -->
<g id="node34" class="node">
<title>thinning_mod</title>
<g id="a_node34"><a xlink:href="../modules/thinning_mod_rev.svg" xlink:title="thinning_mod">
<polygon fill="none" stroke="blue" points="1773.5,-108 1681.5,-108 1681.5,-72 1773.5,-72 1773.5,-108"/>
<text text-anchor="middle" x="1727.5" y="-86.3" font-family="Times,serif" font-size="14.00">thinning_mod</text>
</a>
</g>
</g>
<!-- thinning_mod&#45;&gt;timecoord_mod -->
<g id="edge33" class="edge">
<title>thinning_mod&#45;&gt;timecoord_mod</title>
<path fill="none" stroke="black" d="M1673.49,-73.64C1671.47,-73.08 1669.47,-72.53 1667.5,-72 1615.59,-57.9 1556.03,-42.52 1514.72,-31.98"/>
<ellipse fill="black" stroke="black" cx="1677.49" cy="-74.74" rx="4" ry="4"/>
</g>
<!-- var1d_mod -->
<g id="node35" class="node">
<title>var1d_mod</title>
<g id="a_node35"><a xlink:href="../modules/var1d_mod_rev.svg" xlink:title="var1d_mod">
<polygon fill="none" stroke="blue" points="1811,-180 1734,-180 1734,-144 1811,-144 1811,-180"/>
<text text-anchor="middle" x="1772.5" y="-158.3" font-family="Times,serif" font-size="14.00">var1d_mod</text>
</a>
</g>
</g>
<!-- var1d_mod&#45;&gt;timecoord_mod -->
<g id="edge34" class="edge">
<title>var1d_mod&#45;&gt;timecoord_mod</title>
<path fill="none" stroke="black" d="M1784.33,-136.08C1791.74,-116.43 1797.34,-89.51 1782.5,-72 1748.79,-32.22 1596.05,-22.27 1514.77,-19.8"/>
<ellipse fill="black" stroke="black" cx="1782.73" cy="-140.04" rx="4" ry="4"/>
</g>
<!-- midas_midas_adjointtest -->
<g id="node36" class="node">
<title>midas_midas_adjointtest</title>
<g id="a_node36"><a xlink:href="../programs/midas_adjointtest.html" xlink:title="midas_midas_adjointtest">
<polygon fill="gray" stroke="green" points="1849.5,-252 1697.5,-252 1697.5,-216 1849.5,-216 1849.5,-252"/>
<text text-anchor="middle" x="1773.5" y="-230.3" font-family="Times,serif" font-size="14.00">midas_midas_adjointtest</text>
</a>
</g>
</g>
<!-- midas_midas_adjointtest&#45;&gt;timecoord_mod -->
<g id="edge35" class="edge">
<title>midas_midas_adjointtest&#45;&gt;timecoord_mod</title>
<path fill="none" stroke="black" d="M1800.24,-209.51C1807.97,-201.07 1815.42,-190.91 1819.5,-180 1836.52,-134.41 1837.41,-104.84 1801.5,-72 1760.46,-34.47 1598.62,-23.49 1514.66,-20.3"/>
<ellipse fill="black" stroke="black" cx="1797.11" cy="-212.74" rx="4" ry="4"/>
</g>
<!-- midas_midas_analysiserroroi -->
<g id="node37" class="node">
<title>midas_midas_analysiserroroi</title>
<g id="a_node37"><a xlink:href="../programs/midas_analysiserroroi.html" xlink:title="midas_midas_analysiserroroi">
<polygon fill="gray" stroke="green" points="1887.5,-324 1711.5,-324 1711.5,-288 1887.5,-288 1887.5,-324"/>
<text text-anchor="middle" x="1799.5" y="-302.3" font-family="Times,serif" font-size="14.00">midas_midas_analysiserroroi</text>
</a>
</g>
</g>
<!-- midas_midas_analysiserroroi&#45;&gt;timecoord_mod -->
<g id="edge36" class="edge">
<title>midas_midas_analysiserroroi&#45;&gt;timecoord_mod</title>
<path fill="none" stroke="black" d="M1833.79,-282.7C1843.64,-274.36 1853.16,-263.97 1858.5,-252 1881.28,-200.92 1878.31,-118.85 1828.5,-72 1784.13,-30.27 1604.12,-21.29 1514.58,-19.43"/>
<ellipse fill="black" stroke="black" cx="1830.43" cy="-285.38" rx="4" ry="4"/>
</g>
<!-- midas_midas_calcstats -->
<g id="node38" class="node">
<title>midas_midas_calcstats</title>
<g id="a_node38"><a xlink:href="../programs/midas_calcstats.html" xlink:title="midas_midas_calcstats">
<polygon fill="gray" stroke="green" points="1925.5,-396 1783.5,-396 1783.5,-360 1925.5,-360 1925.5,-396"/>
<text text-anchor="middle" x="1854.5" y="-374.3" font-family="Times,serif" font-size="14.00">midas_midas_calcstats</text>
</a>
</g>
</g>
<!-- midas_midas_calcstats&#45;&gt;timecoord_mod -->
<g id="edge37" class="edge">
<title>midas_midas_calcstats&#45;&gt;timecoord_mod</title>
<path fill="none" stroke="black" d="M1876.97,-353.46C1884.17,-344.78 1891.56,-334.49 1896.5,-324 1913.74,-287.41 1915.5,-275.45 1915.5,-235 1915.5,-235 1915.5,-235 1915.5,-161 1915.5,-113.54 1896.72,-97.2 1856.5,-72 1800.57,-36.95 1607.94,-24.67 1514.77,-20.72"/>
<ellipse fill="black" stroke="black" cx="1874.15" cy="-356.73" rx="4" ry="4"/>
</g>
<!-- midas_midas_diagbmatrix -->
<g id="node39" class="node">
<title>midas_midas_diagbmatrix</title>
<g id="a_node39"><a xlink:href="../programs/midas_diagbmatrix.html" xlink:title="midas_midas_diagbmatrix">
<polygon fill="gray" stroke="green" points="1963,-468 1802,-468 1802,-432 1963,-432 1963,-468"/>
<text text-anchor="middle" x="1882.5" y="-446.3" font-family="Times,serif" font-size="14.00">midas_midas_diagbmatrix</text>
</a>
</g>
</g>
<!-- midas_midas_diagbmatrix&#45;&gt;timecoord_mod -->
<g id="edge38" class="edge">
<title>midas_midas_diagbmatrix&#45;&gt;timecoord_mod</title>
<path fill="none" stroke="black" d="M1910.56,-426.15C1919.44,-417.57 1928.5,-407.16 1934.5,-396 1953.65,-360.37 1953.5,-347.45 1953.5,-307 1953.5,-307 1953.5,-307 1953.5,-161 1953.5,-113.05 1933.47,-96.92 1892.5,-72 1830.07,-34.03 1614.35,-23.16 1514.7,-20.13"/>
<ellipse fill="black" stroke="black" cx="1907.4" cy="-429.07" rx="4" ry="4"/>
</g>
<!-- midas_midas_diaghbht -->
<g id="node40" class="node">
<title>midas_midas_diaghbht</title>
<g id="a_node40"><a xlink:href="../programs/midas_diaghbht.html" xlink:title="midas_midas_diaghbht">
<polygon fill="gray" stroke="green" points="2001,-540 1858,-540 1858,-504 2001,-504 2001,-540"/>
<text text-anchor="middle" x="1929.5" y="-518.3" font-family="Times,serif" font-size="14.00">midas_midas_diaghbht</text>
</a>
</g>
</g>
<!-- midas_midas_diaghbht&#45;&gt;timecoord_mod -->
<g id="edge39" class="edge">
<title>midas_midas_diaghbht&#45;&gt;timecoord_mod</title>
<path fill="none" stroke="black" d="M1951.9,-497.43C1959.1,-488.75 1966.5,-478.47 1971.5,-468 1988.97,-431.42 1991.5,-419.54 1991.5,-379 1991.5,-379 1991.5,-379 1991.5,-161 1991.5,-112.79 1970.9,-96.69 1929.5,-72 1860.44,-30.81 1620.58,-21.63 1514.56,-19.59"/>
<ellipse fill="black" stroke="black" cx="1949.09" cy="-500.7" rx="4" ry="4"/>
</g>
<!-- midas_midas_ensembleh -->
<g id="node41" class="node">
<title>midas_midas_ensembleh</title>
<g id="a_node41"><a xlink:href="../programs/midas_ensembleh.html" xlink:title="midas_midas_ensembleh">
<polygon fill="gray" stroke="green" points="2106.5,-612 1952.5,-612 1952.5,-576 2106.5,-576 2106.5,-612"/>
<text text-anchor="middle" x="2029.5" y="-590.3" font-family="Times,serif" font-size="14.00">midas_midas_ensembleh</text>
</a>
</g>
</g>
<!-- midas_midas_ensembleh&#45;&gt;timecoord_mod -->
<g id="edge40" class="edge">
<title>midas_midas_ensembleh&#45;&gt;timecoord_mod</title>
<path fill="none" stroke="black" d="M2029.5,-567.78C2029.5,-539.39 2029.5,-491.89 2029.5,-451 2029.5,-451 2029.5,-451 2029.5,-161 2029.5,-112.79 2009.01,-96.52 1967.5,-72 1891.84,-27.31 1627.4,-20.09 1514.85,-19.08"/>
<ellipse fill="black" stroke="black" cx="2029.5" cy="-571.95" rx="4" ry="4"/>
</g>
<!-- midas_midas_enspostprocess -->
<g id="node42" class="node">
<title>midas_midas_enspostprocess</title>
<g id="a_node42"><a xlink:href="../programs/midas_enspostprocess.html" xlink:title="midas_midas_enspostprocess">
<polygon fill="gray" stroke="green" points="2233.5,-108 2057.5,-108 2057.5,-72 2233.5,-72 2233.5,-108"/>
<text text-anchor="middle" x="2145.5" y="-86.3" font-family="Times,serif" font-size="14.00">midas_midas_enspostprocess</text>
</a>
</g>
</g>
<!-- midas_midas_enspostprocess&#45;&gt;timecoord_mod -->
<g id="edge41" class="edge">
<title>midas_midas_enspostprocess&#45;&gt;timecoord_mod</title>
<path fill="none" stroke="black" d="M2049.08,-72.74C2047.21,-72.48 2045.34,-72.24 2043.5,-72 1848.95,-46.93 1616.18,-29.42 1514.85,-22.41"/>
<ellipse fill="black" stroke="black" cx="2053.42" cy="-73.34" rx="4" ry="4"/>
</g>
<!-- midas_midas_extractbmatrixfor1dvar -->
<g id="node43" class="node">
<title>midas_midas_extractbmatrixfor1dvar</title>
<g id="a_node43"><a xlink:href="../programs/midas_extractbmatrixfor1dvar.html" xlink:title="midas_midas_extractbmatrixfor1dvar">
<polygon fill="gray" stroke="green" points="2279,-180 2058,-180 2058,-144 2279,-144 2279,-180"/>
<text text-anchor="middle" x="2168.5" y="-158.3" font-family="Times,serif" font-size="14.00">midas_midas_extractbmatrixfor1dvar</text>
</a>
</g>
</g>
<!-- midas_midas_extractbmatrixfor1dvar&#45;&gt;timecoord_mod -->
<g id="edge42" class="edge">
<title>midas_midas_extractbmatrixfor1dvar&#45;&gt;timecoord_mod</title>
<path fill="none" stroke="black" d="M2212.86,-139.3C2224.65,-131.21 2235.92,-120.81 2242.5,-108 2249.81,-93.77 2253.42,-83.69 2242.5,-72 2192.9,-18.91 1680.1,-17.57 1514.65,-18.54"/>
<ellipse fill="black" stroke="black" cx="2209.25" cy="-141.63" rx="4" ry="4"/>
</g>
<!-- midas_midas_gencoeff -->
<g id="node44" class="node">
<title>midas_midas_gencoeff</title>
<g id="a_node44"><a xlink:href="../programs/midas_gencoeff.html" xlink:title="midas_midas_gencoeff">
<polygon fill="gray" stroke="green" points="2317,-252 2174,-252 2174,-216 2317,-216 2317,-252"/>
<text text-anchor="middle" x="2245.5" y="-230.3" font-family="Times,serif" font-size="14.00">midas_midas_gencoeff</text>
</a>
</g>
</g>
<!-- midas_midas_gencoeff&#45;&gt;timecoord_mod -->
<g id="edge43" class="edge">
<title>midas_midas_gencoeff&#45;&gt;timecoord_mod</title>
<path fill="none" stroke="black" d="M2269.6,-209.57C2276.79,-201.01 2283.75,-190.78 2287.5,-180 2303.77,-133.27 2300.21,-101.52 2260.5,-72 2200.78,-27.61 1681,-20.4 1514.55,-19.23"/>
<ellipse fill="black" stroke="black" cx="2266.76" cy="-212.76" rx="4" ry="4"/>
</g>
<!-- midas_midas_letkf -->
<g id="node45" class="node">
<title>midas_midas_letkf</title>
<g id="a_node45"><a xlink:href="../programs/midas_letkf.html" xlink:title="midas_midas_letkf">
<polygon fill="gray" stroke="green" points="2355.5,-324 2233.5,-324 2233.5,-288 2355.5,-288 2355.5,-324"/>
<text text-anchor="middle" x="2294.5" y="-302.3" font-family="Times,serif" font-size="14.00">midas_midas_letkf</text>
</a>
</g>
</g>
<!-- midas_midas_letkf&#45;&gt;timecoord_mod -->
<g id="edge44" class="edge">
<title>midas_midas_letkf&#45;&gt;timecoord_mod</title>
<path fill="none" stroke="black" d="M2312.16,-280.99C2317.54,-272.3 2322.76,-262.13 2325.5,-252 2341.78,-191.93 2307.06,-85.9 2290.5,-72 2231.13,-22.17 1685.68,-18.68 1514.59,-18.82"/>
<ellipse fill="black" stroke="black" cx="2309.83" cy="-284.56" rx="4" ry="4"/>
</g>
<!-- midas_midas_obsimpact -->
<g id="node46" class="node">
<title>midas_midas_obsimpact</title>
<g id="a_node46"><a xlink:href="../programs/midas_obsimpact.html" xlink:title="midas_midas_obsimpact">
<polygon fill="gray" stroke="green" points="2393.5,-396 2241.5,-396 2241.5,-360 2393.5,-360 2393.5,-396"/>
<text text-anchor="middle" x="2317.5" y="-374.3" font-family="Times,serif" font-size="14.00">midas_midas_obsimpact</text>
</a>
</g>
</g>
<!-- midas_midas_obsimpact&#45;&gt;timecoord_mod -->
<g id="edge45" class="edge">
<title>midas_midas_obsimpact&#45;&gt;timecoord_mod</title>
<path fill="none" stroke="black" d="M2342.86,-353.69C2350.87,-345.08 2359.05,-334.78 2364.5,-324 2382.74,-287.9 2383.5,-275.45 2383.5,-235 2383.5,-235 2383.5,-235 2383.5,-161 2383.5,-110.95 2358.74,-95.41 2314.5,-72 2243.93,-34.65 1687.87,-22.61 1514.76,-19.75"/>
<ellipse fill="black" stroke="black" cx="2339.87" cy="-356.77" rx="4" ry="4"/>
</g>
<!-- midas_midas_obsselection -->
<g id="node47" class="node">
<title>midas_midas_obsselection</title>
<g id="a_node47"><a xlink:href="../programs/midas_obsselection.html" xlink:title="midas_midas_obsselection">
<polygon fill="gray" stroke="green" points="2431,-468 2268,-468 2268,-432 2431,-432 2431,-468"/>
<text text-anchor="middle" x="2349.5" y="-446.3" font-family="Times,serif" font-size="14.00">midas_midas_obsselection</text>
</a>
</g>
</g>
<!-- midas_midas_obsselection&#45;&gt;timecoord_mod -->
<g id="edge46" class="edge">
<title>midas_midas_obsselection&#45;&gt;timecoord_mod</title>
<path fill="none" stroke="black" d="M2377.84,-426.49C2386.98,-417.86 2396.33,-407.35 2402.5,-396 2421.82,-360.46 2421.5,-347.45 2421.5,-307 2421.5,-307 2421.5,-307 2421.5,-161 2421.5,-111.49 2398.13,-95.41 2354.5,-72 2280.51,-32.3 1693.08,-21.83 1514.69,-19.56"/>
<ellipse fill="black" stroke="black" cx="2374.86" cy="-429.18" rx="4" ry="4"/>
</g>
<!-- midas_midas_prepcma -->
<g id="node48" class="node">
<title>midas_midas_prepcma</title>
<g id="a_node48"><a xlink:href="../programs/midas_prepcma.html" xlink:title="midas_midas_prepcma">
<polygon fill="gray" stroke="green" points="2469,-540 2326,-540 2326,-504 2469,-504 2469,-540"/>
<text text-anchor="middle" x="2397.5" y="-518.3" font-family="Times,serif" font-size="14.00">midas_midas_prepcma</text>
</a>
</g>
</g>
<!-- midas_midas_prepcma&#45;&gt;timecoord_mod -->
<g id="edge47" class="edge">
<title>midas_midas_prepcma&#45;&gt;timecoord_mod</title>
<path fill="none" stroke="black" d="M2419.9,-497.43C2427.1,-488.75 2434.5,-478.47 2439.5,-468 2456.97,-431.42 2459.5,-419.54 2459.5,-379 2459.5,-379 2459.5,-379 2459.5,-161 2459.5,-111.75 2436.84,-95.39 2393.5,-72 2316.07,-30.22 1698.21,-21.17 1514.71,-19.4"/>
<ellipse fill="black" stroke="black" cx="2417.09" cy="-500.7" rx="4" ry="4"/>
</g>
<!-- midas_midas_randompert -->
<g id="node49" class="node">
<title>midas_midas_randompert</title>
<g id="a_node49"><a xlink:href="../programs/midas_randompert.html" xlink:title="midas_midas_randompert">
<polygon fill="gray" stroke="green" points="2577,-612 2418,-612 2418,-576 2577,-576 2577,-612"/>
<text text-anchor="middle" x="2497.5" y="-590.3" font-family="Times,serif" font-size="14.00">midas_midas_randompert</text>
</a>
</g>
</g>
<!-- midas_midas_randompert&#45;&gt;timecoord_mod -->
<g id="edge48" class="edge">
<title>midas_midas_randompert&#45;&gt;timecoord_mod</title>
<path fill="none" stroke="black" d="M2497.5,-567.78C2497.5,-539.39 2497.5,-491.89 2497.5,-451 2497.5,-451 2497.5,-451 2497.5,-161 2497.5,-112.02 2475.55,-95.37 2432.5,-72 2351.62,-28.09 1702.9,-20.53 1514.58,-19.25"/>
<ellipse fill="black" stroke="black" cx="2497.5" cy="-571.95" rx="4" ry="4"/>
</g>
<!-- midas_midas_sstbias -->
<g id="node50" class="node">
<title>midas_midas_sstbias</title>
<g id="a_node50"><a xlink:href="../programs/midas_sstbias.html" xlink:title="midas_midas_sstbias">
<polygon fill="gray" stroke="green" points="2657.5,-108 2525.5,-108 2525.5,-72 2657.5,-72 2657.5,-108"/>
<text text-anchor="middle" x="2591.5" y="-86.3" font-family="Times,serif" font-size="14.00">midas_midas_sstbias</text>
</a>
</g>
</g>
<!-- midas_midas_sstbias&#45;&gt;timecoord_mod -->
<g id="edge49" class="edge">
<title>midas_midas_sstbias&#45;&gt;timecoord_mod</title>
<path fill="none" stroke="black" d="M2517.05,-72.77C2515.18,-72.5 2513.33,-72.24 2511.5,-72 2131.03,-22.27 1667.21,-18.5 1514.74,-18.72"/>
<ellipse fill="black" stroke="black" cx="2521.34" cy="-73.46" rx="4" ry="4"/>
</g>
<!-- midas_midas_ssttrial -->
<g id="node51" class="node">
<title>midas_midas_ssttrial</title>
<g id="a_node51"><a xlink:href="../programs/midas_ssttrial.html" xlink:title="midas_midas_ssttrial">
<polygon fill="gray" stroke="green" points="2695.5,-180 2563.5,-180 2563.5,-144 2695.5,-144 2695.5,-180"/>
<text text-anchor="middle" x="2629.5" y="-158.3" font-family="Times,serif" font-size="14.00">midas_midas_ssttrial</text>
</a>
</g>
</g>
<!-- midas_midas_ssttrial&#45;&gt;timecoord_mod -->
<g id="edge50" class="edge">
<title>midas_midas_ssttrial&#45;&gt;timecoord_mod</title>
<path fill="none" stroke="black" d="M2651.9,-137.55C2667.97,-117.92 2683.96,-90.25 2666.5,-72 2626.12,-29.8 1739.31,-20.89 1514.79,-19.31"/>
<ellipse fill="black" stroke="black" cx="2649.1" cy="-140.84" rx="4" ry="4"/>
</g>
<!-- midas_midas_thinning -->
<g id="node52" class="node">
<title>midas_midas_thinning</title>
<g id="a_node52"><a xlink:href="../programs/midas_thinning.html" xlink:title="midas_midas_thinning">
<polygon fill="gray" stroke="green" points="2763,-252 2622,-252 2622,-216 2763,-216 2763,-252"/>
<text text-anchor="middle" x="2692.5" y="-230.3" font-family="Times,serif" font-size="14.00">midas_midas_thinning</text>
</a>
</g>
</g>
<!-- midas_midas_thinning&#45;&gt;timecoord_mod -->
<g id="edge51" class="edge">
<title>midas_midas_thinning&#45;&gt;timecoord_mod</title>
<path fill="none" stroke="black" d="M2700.92,-208.22C2711.63,-171.51 2724.32,-103.65 2684.5,-72 2638.04,-35.07 1740.05,-22.21 1514.54,-19.55"/>
<ellipse fill="black" stroke="black" cx="2699.72" cy="-212.15" rx="4" ry="4"/>
</g>
<!-- midas_midas_var1d -->
<g id="node53" class="node">
<title>midas_midas_var1d</title>
<g id="a_node53"><a xlink:href="../programs/midas_var1d.html" xlink:title="midas_midas_var1d">
<polygon fill="gray" stroke="green" points="2854.5,-324 2728.5,-324 2728.5,-288 2854.5,-288 2854.5,-324"/>
<text text-anchor="middle" x="2791.5" y="-302.3" font-family="Times,serif" font-size="14.00">midas_midas_var1d</text>
</a>
</g>
</g>
<!-- midas_midas_var1d&#45;&gt;timecoord_mod -->
<g id="edge52" class="edge">
<title>midas_midas_var1d&#45;&gt;timecoord_mod</title>
<path fill="none" stroke="black" d="M2791.59,-279.88C2790.23,-230.1 2779.2,-119.64 2710.5,-72 2660.64,-37.43 1743.3,-22.78 1514.74,-19.66"/>
<ellipse fill="black" stroke="black" cx="2791.66" cy="-283.89" rx="4" ry="4"/>
</g>
<!-- midas_midas_var -->
<g id="node54" class="node">
<title>midas_midas_var</title>
<g id="a_node54"><a xlink:href="../programs/midas_var.html" xlink:title="midas_midas_var">
<polygon fill="gray" stroke="green" points="2939,-396 2826,-396 2826,-360 2939,-360 2939,-396"/>
<text text-anchor="middle" x="2882.5" y="-374.3" font-family="Times,serif" font-size="14.00">midas_midas_var</text>
</a>
</g>
</g>
<!-- midas_midas_var&#45;&gt;timecoord_mod -->
<g id="edge53" class="edge">
<title>midas_midas_var&#45;&gt;timecoord_mod</title>
<path fill="none" stroke="black" d="M2882.5,-351.78C2882.5,-323.39 2882.5,-275.89 2882.5,-235 2882.5,-235 2882.5,-235 2882.5,-161 2882.5,-87.27 2812.85,-94.06 2742.5,-72 2624.08,-34.87 1738.54,-22.18 1514.75,-19.55"/>
<ellipse fill="black" stroke="black" cx="2882.5" cy="-355.95" rx="4" ry="4"/>
</g>
</g>
</svg>
