<?xml version="1.0" encoding="UTF-8" standalone="no"?>
<!DOCTYPE svg PUBLIC "-//W3C//DTD SVG 1.1//EN"
 "http://www.w3.org/Graphics/SVG/1.1/DTD/svg11.dtd">
<!-- Generated by graphviz version 3.0.0 (20220315.2325)
 -->
<!-- Title: tovs_nl_mod Pages: 1 -->
<svg width="887pt" height="673pt"
 viewBox="0.00 0.00 887.00 673.00" xmlns="http://www.w3.org/2000/svg" xmlns:xlink="http://www.w3.org/1999/xlink">
<g id="graph0" class="graph" transform="scale(1 1) rotate(0) translate(4 669)">
<title>tovs_nl_mod</title>
<polygon fill="white" stroke="transparent" points="-4,4 -4,-669 883,-669 883,4 -4,4"/>
<text text-anchor="middle" x="439.5" y="-37.8" font-family="Times,serif" font-size="14.00">Red boxes indicate modules with dependencies not shown</text>
<text text-anchor="middle" x="439.5" y="-22.8" font-family="Times,serif" font-size="14.00">Lower level dependencies can be shown by clicking on a red box</text>
<text text-anchor="middle" x="439.5" y="-7.8" font-family="Times,serif" font-size="14.00">Shaded boxes indicate modules with no dependencies</text>
<!-- tovs_nl_mod -->
<g id="node1" class="node">
<title>tovs_nl_mod</title>
<g id="a_node1"><a xlink:href="tovs_nl_mod.html" xlink:title="tovs_nl_mod">
<polygon fill="none" stroke="black" points="437.5,-665 350.5,-665 350.5,-629 437.5,-629 437.5,-665"/>
<text text-anchor="middle" x="394" y="-643.3" font-family="Times,serif" font-size="14.00">tovs_nl_mod</text>
</a>
</g>
</g>
<!-- codeprecision_mod -->
<g id="node2" class="node">
<title>codeprecision_mod</title>
<g id="a_node2"><a xlink:href="codeprecision_mod.html" xlink:title="codeprecision_mod">
<polygon fill="gray" stroke="black" points="122,-593 0,-593 0,-557 122,-557 122,-593"/>
<text text-anchor="middle" x="61" y="-571.3" font-family="Times,serif" font-size="14.00">codeprecision_mod</text>
</a>
</g>
</g>
<!-- tovs_nl_mod&#45;&gt;codeprecision_mod -->
<g id="edge1" class="edge">
<title>tovs_nl_mod&#45;&gt;codeprecision_mod</title>
<path fill="none" stroke="black" d="M350.12,-637.27C298.74,-626.98 211.09,-609.22 136,-593 134.75,-592.73 133.49,-592.46 132.22,-592.18"/>
<polygon fill="black" stroke="black" points="132.89,-588.74 122.37,-590.02 131.39,-595.58 132.89,-588.74"/>
</g>
<!-- codtyp_mod -->
<g id="node3" class="node">
<title>codtyp_mod</title>
<g id="a_node3"><a xlink:href="../modules/codtyp_mod.svg" xlink:title="codtyp_mod">
<polygon fill="none" stroke="red" points="176,-521 92,-521 92,-485 176,-485 176,-521"/>
<text text-anchor="middle" x="134" y="-499.3" font-family="Times,serif" font-size="14.00">codtyp_mod</text>
</a>
</g>
</g>
<!-- tovs_nl_mod&#45;&gt;codtyp_mod -->
<g id="edge2" class="edge">
<title>tovs_nl_mod&#45;&gt;codtyp_mod</title>
<path fill="none" stroke="black" d="M350.21,-643.89C305.97,-639.78 237.55,-627.79 190,-593 168.48,-577.25 153.28,-550.49 144.2,-530.42"/>
<polygon fill="black" stroke="black" points="147.4,-528.99 140.23,-521.18 140.96,-531.75 147.4,-528.99"/>
</g>
<!-- columndata_mod -->
<g id="node4" class="node">
<title>columndata_mod</title>
<g id="a_node4"><a xlink:href="../modules/columndata_mod.svg" xlink:title="columndata_mod">
<polygon fill="none" stroke="red" points="213.5,-449 102.5,-449 102.5,-413 213.5,-413 213.5,-449"/>
<text text-anchor="middle" x="158" y="-427.3" font-family="Times,serif" font-size="14.00">columndata_mod</text>
</a>
</g>
</g>
<!-- tovs_nl_mod&#45;&gt;columndata_mod -->
<g id="edge3" class="edge">
<title>tovs_nl_mod&#45;&gt;columndata_mod</title>
<path fill="none" stroke="black" d="M350.36,-642.34C313.5,-637.08 261.52,-624.26 228,-593 190.21,-557.77 206.3,-532.07 185,-485 181.04,-476.25 176.39,-466.86 172.08,-458.46"/>
<polygon fill="black" stroke="black" points="175.13,-456.73 167.41,-449.47 168.92,-459.96 175.13,-456.73"/>
</g>
<!-- earthconstants_mod -->
<g id="node5" class="node">
<title>earthconstants_mod</title>
<g id="a_node5"><a xlink:href="../modules/earthconstants_mod.svg" xlink:title="earthconstants_mod">
<polygon fill="none" stroke="red" points="251.5,-377 126.5,-377 126.5,-341 251.5,-341 251.5,-377"/>
<text text-anchor="middle" x="189" y="-355.3" font-family="Times,serif" font-size="14.00">earthconstants_mod</text>
</a>
</g>
</g>
<!-- tovs_nl_mod&#45;&gt;earthconstants_mod -->
<g id="edge4" class="edge">
<title>tovs_nl_mod&#45;&gt;earthconstants_mod</title>
<path fill="none" stroke="black" d="M350.34,-638.43C322.35,-631.33 287.37,-617.92 266,-593 212.38,-530.49 253.94,-488.91 222,-413 218.11,-403.76 212.72,-394.27 207.42,-385.92"/>
<polygon fill="black" stroke="black" points="210.22,-383.8 201.79,-377.38 204.37,-387.66 210.22,-383.8"/>
</g>
<!-- humiditylimits_mod -->
<g id="node6" class="node">
<title>humiditylimits_mod</title>
<g id="a_node6"><a xlink:href="../modules/humiditylimits_mod.svg" xlink:title="humiditylimits_mod">
<polygon fill="none" stroke="red" points="290,-305 162,-305 162,-269 290,-269 290,-305"/>
<text text-anchor="middle" x="226" y="-283.3" font-family="Times,serif" font-size="14.00">humiditylimits_mod</text>
</a>
</g>
</g>
<!-- tovs_nl_mod&#45;&gt;humiditylimits_mod -->
<g id="edge5" class="edge">
<title>tovs_nl_mod&#45;&gt;humiditylimits_mod</title>
<path fill="none" stroke="black" d="M350.44,-628.96C333.74,-620.45 315.87,-608.58 304,-593 279.17,-560.41 280,-544.97 280,-504 280,-504 280,-504 280,-430 280,-389.46 275.63,-378.41 260,-341 256.06,-331.57 250.46,-321.95 244.94,-313.55"/>
<polygon fill="black" stroke="black" points="247.83,-311.57 239.29,-305.29 242.05,-315.52 247.83,-311.57"/>
</g>
<!-- interpolation_mod -->
<g id="node7" class="node">
<title>interpolation_mod</title>
<g id="a_node7"><a xlink:href="../modules/interpolation_mod.svg" xlink:title="interpolation_mod">
<polygon fill="none" stroke="red" points="328,-233 212,-233 212,-197 328,-197 328,-233"/>
<text text-anchor="middle" x="270" y="-211.3" font-family="Times,serif" font-size="14.00">interpolation_mod</text>
</a>
</g>
</g>
<!-- tovs_nl_mod&#45;&gt;interpolation_mod -->
<g id="edge6" class="edge">
<title>tovs_nl_mod&#45;&gt;interpolation_mod</title>
<path fill="none" stroke="black" d="M372.59,-628.86C361.99,-619.33 349.81,-606.65 342,-593 321.66,-557.44 318,-544.97 318,-504 318,-504 318,-504 318,-358 318,-317.55 313.08,-306.92 299,-269 295.6,-259.86 290.85,-250.36 286.17,-241.98"/>
<polygon fill="black" stroke="black" points="289.04,-239.95 281,-233.06 282.99,-243.47 289.04,-239.95"/>
</g>
<!-- mathphysconstants_mod -->
<g id="node8" class="node">
<title>mathphysconstants_mod</title>
<g id="a_node8"><a xlink:href="mathphysconstants_mod.html" xlink:title="mathphysconstants_mod">
<polygon fill="gray" stroke="black" points="366,-161 216,-161 216,-125 366,-125 366,-161"/>
<text text-anchor="middle" x="291" y="-139.3" font-family="Times,serif" font-size="14.00">mathphysconstants_mod</text>
</a>
</g>
</g>
<!-- tovs_nl_mod&#45;&gt;mathphysconstants_mod -->
<g id="edge7" class="edge">
<title>tovs_nl_mod&#45;&gt;mathphysconstants_mod</title>
<path fill="none" stroke="black" d="M386.31,-628.91C375.21,-602.62 356,-550.45 356,-504 356,-504 356,-504 356,-286 356,-245.55 355.05,-233.2 337,-197 331.97,-186.92 324.58,-177.21 317.18,-168.91"/>
<polygon fill="black" stroke="black" points="319.56,-166.33 310.16,-161.43 314.45,-171.12 319.56,-166.33"/>
</g>
<!-- midasmpi_mod -->
<g id="node9" class="node">
<title>midasmpi_mod</title>
<g id="a_node9"><a xlink:href="../modules/midasmpi_mod.svg" xlink:title="midasmpi_mod">
<polygon fill="none" stroke="red" points="444.5,-89 343.5,-89 343.5,-53 444.5,-53 444.5,-89"/>
<text text-anchor="middle" x="394" y="-67.3" font-family="Times,serif" font-size="14.00">midasmpi_mod</text>
</a>
</g>
</g>
<!-- tovs_nl_mod&#45;&gt;midasmpi_mod -->
<g id="edge8" class="edge">
<title>tovs_nl_mod&#45;&gt;midasmpi_mod</title>
<path fill="none" stroke="black" d="M394,-628.95C394,-602.29 394,-549.11 394,-504 394,-504 394,-504 394,-214 394,-174 394,-127.65 394,-99.08"/>
<polygon fill="black" stroke="black" points="397.5,-99.05 394,-89.05 390.5,-99.05 397.5,-99.05"/>
</g>
<!-- obsspacedata_mod -->
<g id="node10" class="node">
<title>obsspacedata_mod</title>
<g id="a_node10"><a xlink:href="../modules/obsspacedata_mod.svg" xlink:title="obsspacedata_mod">
<polygon fill="none" stroke="red" points="540,-593 422,-593 422,-557 540,-557 540,-593"/>
<text text-anchor="middle" x="481" y="-571.3" font-family="Times,serif" font-size="14.00">obsspacedata_mod</text>
</a>
</g>
</g>
<!-- tovs_nl_mod&#45;&gt;obsspacedata_mod -->
<g id="edge9" class="edge">
<title>tovs_nl_mod&#45;&gt;obsspacedata_mod</title>
<path fill="none" stroke="black" d="M415.51,-628.7C426.46,-619.88 439.95,-609.03 451.82,-599.47"/>
<polygon fill="black" stroke="black" points="454.14,-602.1 459.74,-593.1 449.76,-596.65 454.14,-602.1"/>
</g>
<!-- ozoneclim_mod -->
<g id="node11" class="node">
<title>ozoneclim_mod</title>
<g id="a_node11"><a xlink:href="../modules/ozoneclim_mod.svg" xlink:title="ozoneclim_mod">
<polygon fill="none" stroke="red" points="578,-521 474,-521 474,-485 578,-485 578,-521"/>
<text text-anchor="middle" x="526" y="-499.3" font-family="Times,serif" font-size="14.00">ozoneclim_mod</text>
</a>
</g>
</g>
<!-- tovs_nl_mod&#45;&gt;ozoneclim_mod -->
<g id="edge10" class="edge">
<title>tovs_nl_mod&#45;&gt;ozoneclim_mod</title>
<path fill="none" stroke="black" d="M437.51,-644.28C473.93,-640.26 523.86,-628.17 549,-593 562.24,-574.48 553.58,-548.96 543.32,-530"/>
<polygon fill="black" stroke="black" points="546.3,-528.16 538.24,-521.27 540.25,-531.68 546.3,-528.16"/>
</g>
<!-- rttov_fast_coef_utils_mod -->
<g id="node12" class="node">
<title>rttov_fast_coef_utils_mod</title>
<g id="a_node12"><a xlink:href="rttov_fast_coef_utils_mod.html" xlink:title="rttov_fast_coef_utils_mod">
<polygon fill="gray" stroke="black" points="616,-449 456,-449 456,-413 616,-413 616,-449"/>
<text text-anchor="middle" x="536" y="-427.3" font-family="Times,serif" font-size="14.00">rttov_fast_coef_utils_mod</text>
</a>
</g>
</g>
<!-- tovs_nl_mod&#45;&gt;rttov_fast_coef_utils_mod -->
<g id="edge11" class="edge">
<title>tovs_nl_mod&#45;&gt;rttov_fast_coef_utils_mod</title>
<path fill="none" stroke="black" d="M437.67,-644.05C476.77,-639.95 533.03,-627.88 567,-593 601.06,-558.03 605.25,-530.28 587,-485 582.65,-474.21 574.94,-464.39 566.81,-456.21"/>
<polygon fill="black" stroke="black" points="569,-453.46 559.3,-449.18 564.21,-458.57 569,-453.46"/>
</g>
<!-- rttov_interfaces_mod -->
<g id="node13" class="node">
<title>rttov_interfaces_mod</title>
<g id="a_node13"><a xlink:href="rttov_interfaces_mod.html" xlink:title="rttov_interfaces_mod">
<polygon fill="gray" stroke="black" points="654,-377 522,-377 522,-341 654,-341 654,-377"/>
<text text-anchor="middle" x="588" y="-355.3" font-family="Times,serif" font-size="14.00">rttov_interfaces_mod</text>
</a>
</g>
</g>
<!-- tovs_nl_mod&#45;&gt;rttov_interfaces_mod -->
<g id="edge12" class="edge">
<title>tovs_nl_mod&#45;&gt;rttov_interfaces_mod</title>
<path fill="none" stroke="black" d="M437.58,-639.85C489.72,-631.59 572.68,-615.35 594,-593 650.04,-534.27 649.36,-490.44 625,-413 621.9,-403.15 616.25,-393.53 610.28,-385.25"/>
<polygon fill="black" stroke="black" points="612.91,-382.94 604.04,-377.15 607.37,-387.21 612.91,-382.94"/>
</g>
<!-- rttov_solar_refl_mod -->
<g id="node14" class="node">
<title>rttov_solar_refl_mod</title>
<g id="a_node14"><a xlink:href="rttov_solar_refl_mod.html" xlink:title="rttov_solar_refl_mod">
<polygon fill="gray" stroke="black" points="719.5,-305 588.5,-305 588.5,-269 719.5,-269 719.5,-305"/>
<text text-anchor="middle" x="654" y="-283.3" font-family="Times,serif" font-size="14.00">rttov_solar_refl_mod</text>
</a>
</g>
</g>
<!-- tovs_nl_mod&#45;&gt;rttov_solar_refl_mod -->
<g id="edge13" class="edge">
<title>tovs_nl_mod&#45;&gt;rttov_solar_refl_mod</title>
<path fill="none" stroke="black" d="M437.74,-643.98C518.31,-637.66 682,-611.59 682,-504 682,-504 682,-504 682,-430 682,-389.27 670.77,-343.19 662.54,-314.86"/>
<polygon fill="black" stroke="black" points="665.89,-313.85 659.67,-305.27 659.18,-315.86 665.89,-313.85"/>
</g>
<!-- utilities_mod -->
<g id="node15" class="node">
<title>utilities_mod</title>
<g id="a_node15"><a xlink:href="../modules/utilities_mod.svg" xlink:title="utilities_mod">
<polygon fill="none" stroke="red" points="792,-233 704,-233 704,-197 792,-197 792,-233"/>
<text text-anchor="middle" x="748" y="-211.3" font-family="Times,serif" font-size="14.00">utilities_mod</text>
</a>
</g>
</g>
<!-- tovs_nl_mod&#45;&gt;utilities_mod -->
<g id="edge14" class="edge">
<title>tovs_nl_mod&#45;&gt;utilities_mod</title>
<path fill="none" stroke="black" d="M437.53,-645.28C492.89,-642.66 589.95,-632.26 662,-593 710.3,-566.68 748,-559.01 748,-504 748,-504 748,-504 748,-358 748,-318 748,-271.65 748,-243.08"/>
<polygon fill="black" stroke="black" points="751.5,-243.05 748,-233.05 744.5,-243.05 751.5,-243.05"/>
</g>
<!-- verticalcoord_mod -->
<g id="node16" class="node">
<title>verticalcoord_mod</title>
<g id="a_node16"><a xlink:href="../modules/verticalcoord_mod.svg" xlink:title="verticalcoord_mod">
<polygon fill="none" stroke="red" points="879,-161 761,-161 761,-125 879,-125 879,-161"/>
<text text-anchor="middle" x="820" y="-139.3" font-family="Times,serif" font-size="14.00">verticalcoord_mod</text>
</a>
</g>
</g>
<!-- tovs_nl_mod&#45;&gt;verticalcoord_mod -->
<g id="edge15" class="edge">
<title>tovs_nl_mod&#45;&gt;verticalcoord_mod</title>
<path fill="none" stroke="black" d="M437.6,-645.44C500.11,-643.15 617.61,-633.29 708,-593 766.07,-567.11 820,-567.58 820,-504 820,-504 820,-504 820,-286 820,-246 820,-199.65 820,-171.08"/>
<polygon fill="black" stroke="black" points="823.5,-171.05 820,-161.05 816.5,-171.05 823.5,-171.05"/>
</g>
</g>
</svg>
