<?xml version="1.0" encoding="UTF-8" standalone="no"?>
<!DOCTYPE svg PUBLIC "-//W3C//DTD SVG 1.1//EN"
 "http://www.w3.org/Graphics/SVG/1.1/DTD/svg11.dtd">
<!-- Generated by graphviz version 3.0.0 (20220315.2325)
 -->
<!-- Title: tovs_lin_mod Pages: 1 -->
<svg width="480pt" height="601pt"
 viewBox="0.00 0.00 479.50 601.00" xmlns="http://www.w3.org/2000/svg" xmlns:xlink="http://www.w3.org/1999/xlink">
<g id="graph0" class="graph" transform="scale(1 1) rotate(0) translate(4 597)">
<title>tovs_lin_mod</title>
<polygon fill="white" stroke="transparent" points="-4,4 -4,-597 475.5,-597 475.5,4 -4,4"/>
<text text-anchor="middle" x="235.75" y="-37.8" font-family="Times,serif" font-size="14.00">Red boxes indicate modules with dependencies not shown</text>
<text text-anchor="middle" x="235.75" y="-22.8" font-family="Times,serif" font-size="14.00">Lower level dependencies can be shown by clicking on a red box</text>
<text text-anchor="middle" x="235.75" y="-7.8" font-family="Times,serif" font-size="14.00">Shaded boxes indicate modules with no dependencies</text>
<!-- tovs_lin_mod -->
<g id="node1" class="node">
<title>tovs_lin_mod</title>
<g id="a_node1"><a xlink:href="tovs_lin_mod.html" xlink:title="tovs_lin_mod">
<polygon fill="none" stroke="black" points="293,-593 202,-593 202,-557 293,-557 293,-593"/>
<text text-anchor="middle" x="247.5" y="-571.3" font-family="Times,serif" font-size="14.00">tovs_lin_mod</text>
</a>
</g>
</g>
<!-- columndata_mod -->
<g id="node2" class="node">
<title>columndata_mod</title>
<g id="a_node2"><a xlink:href="../modules/columndata_mod.svg" xlink:title="columndata_mod">
<polygon fill="none" stroke="red" points="111,-521 0,-521 0,-485 111,-485 111,-521"/>
<text text-anchor="middle" x="55.5" y="-499.3" font-family="Times,serif" font-size="14.00">columndata_mod</text>
</a>
</g>
</g>
<!-- tovs_lin_mod&#45;&gt;columndata_mod -->
<g id="edge1" class="edge">
<title>tovs_lin_mod&#45;&gt;columndata_mod</title>
<path fill="none" stroke="black" d="M202,-557.41C175,-547.57 140.55,-535.01 111.84,-524.54"/>
<polygon fill="black" stroke="black" points="112.94,-521.22 102.34,-521.08 110.54,-527.79 112.94,-521.22"/>
</g>
<!-- mathphysconstants_mod -->
<g id="node3" class="node">
<title>mathphysconstants_mod</title>
<g id="a_node3"><a xlink:href="mathphysconstants_mod.html" xlink:title="mathphysconstants_mod">
<polygon fill="gray" stroke="black" points="181.5,-449 31.5,-449 31.5,-413 181.5,-413 181.5,-449"/>
<text text-anchor="middle" x="106.5" y="-427.3" font-family="Times,serif" font-size="14.00">mathphysconstants_mod</text>
</a>
</g>
</g>
<!-- tovs_lin_mod&#45;&gt;mathphysconstants_mod -->
<g id="edge2" class="edge">
<title>tovs_lin_mod&#45;&gt;mathphysconstants_mod</title>
<path fill="none" stroke="black" d="M230.49,-556.87C205.61,-531.82 159.18,-485.05 130.73,-456.41"/>
<polygon fill="black" stroke="black" points="133.1,-453.82 123.57,-449.19 128.13,-458.75 133.1,-453.82"/>
</g>
<!-- obsspacedata_mod -->
<g id="node4" class="node">
<title>obsspacedata_mod</title>
<g id="a_node4"><a xlink:href="../modules/obsspacedata_mod.svg" xlink:title="obsspacedata_mod">
<polygon fill="none" stroke="red" points="219.5,-377 101.5,-377 101.5,-341 219.5,-341 219.5,-377"/>
<text text-anchor="middle" x="160.5" y="-355.3" font-family="Times,serif" font-size="14.00">obsspacedata_mod</text>
</a>
</g>
</g>
<!-- tovs_lin_mod&#45;&gt;obsspacedata_mod -->
<g id="edge3" class="edge">
<title>tovs_lin_mod&#45;&gt;obsspacedata_mod</title>
<path fill="none" stroke="black" d="M242.47,-556.69C233.52,-526.78 213.62,-463.72 190.5,-413 186.38,-403.96 181.24,-394.41 176.38,-385.95"/>
<polygon fill="black" stroke="black" points="179.37,-384.12 171.29,-377.26 173.33,-387.66 179.37,-384.12"/>
</g>
<!-- rttov_interfaces_mod -->
<g id="node5" class="node">
<title>rttov_interfaces_mod</title>
<g id="a_node5"><a xlink:href="rttov_interfaces_mod.html" xlink:title="rttov_interfaces_mod">
<polygon fill="gray" stroke="black" points="257.5,-305 125.5,-305 125.5,-269 257.5,-269 257.5,-305"/>
<text text-anchor="middle" x="191.5" y="-283.3" font-family="Times,serif" font-size="14.00">rttov_interfaces_mod</text>
</a>
</g>
</g>
<!-- tovs_lin_mod&#45;&gt;rttov_interfaces_mod -->
<g id="edge4" class="edge">
<title>tovs_lin_mod&#45;&gt;rttov_interfaces_mod</title>
<path fill="none" stroke="black" d="M249.07,-556.99C252.08,-517.62 256.12,-417.76 228.5,-341 225,-331.28 219.24,-321.7 213.29,-313.42"/>
<polygon fill="black" stroke="black" points="215.95,-311.14 207.11,-305.3 210.38,-315.38 215.95,-311.14"/>
</g>
<!-- tovs_nl_mod -->
<g id="node6" class="node">
<title>tovs_nl_mod</title>
<g id="a_node6"><a xlink:href="../modules/tovs_nl_mod.svg" xlink:title="tovs_nl_mod">
<polygon fill="none" stroke="red" points="312,-233 225,-233 225,-197 312,-197 312,-233"/>
<text text-anchor="middle" x="268.5" y="-211.3" font-family="Times,serif" font-size="14.00">tovs_nl_mod</text>
</a>
</g>
</g>
<!-- tovs_lin_mod&#45;&gt;tovs_nl_mod -->
<g id="edge5" class="edge">
<title>tovs_lin_mod&#45;&gt;tovs_nl_mod</title>
<path fill="none" stroke="black" d="M255.19,-556.91C266.29,-530.62 285.5,-478.45 285.5,-432 285.5,-432 285.5,-432 285.5,-358 285.5,-317.93 278.74,-271.95 273.75,-243.43"/>
<polygon fill="black" stroke="black" points="277.16,-242.63 271.94,-233.41 270.27,-243.87 277.16,-242.63"/>
</g>
<!-- utilities_mod -->
<g id="node7" class="node">
<title>utilities_mod</title>
<g id="a_node7"><a xlink:href="../modules/utilities_mod.svg" xlink:title="utilities_mod">
<polygon fill="none" stroke="red" points="384.5,-161 296.5,-161 296.5,-125 384.5,-125 384.5,-161"/>
<text text-anchor="middle" x="340.5" y="-139.3" font-family="Times,serif" font-size="14.00">utilities_mod</text>
</a>
</g>
</g>
<!-- tovs_lin_mod&#45;&gt;utilities_mod -->
<g id="edge6" class="edge">
<title>tovs_lin_mod&#45;&gt;utilities_mod</title>
<path fill="none" stroke="black" d="M268.6,-556.68C296.04,-532.08 340.5,-484.16 340.5,-432 340.5,-432 340.5,-432 340.5,-286 340.5,-246 340.5,-199.65 340.5,-171.08"/>
<polygon fill="black" stroke="black" points="344,-171.05 340.5,-161.05 337,-171.05 344,-171.05"/>
</g>
<!-- verticalcoord_mod -->
<g id="node8" class="node">
<title>verticalcoord_mod</title>
<g id="a_node8"><a xlink:href="../modules/verticalcoord_mod.svg" xlink:title="verticalcoord_mod">
<polygon fill="none" stroke="red" points="471.5,-89 353.5,-89 353.5,-53 471.5,-53 471.5,-89"/>
<text text-anchor="middle" x="412.5" y="-67.3" font-family="Times,serif" font-size="14.00">verticalcoord_mod</text>
</a>
</g>
</g>
<!-- tovs_lin_mod&#45;&gt;verticalcoord_mod -->
<g id="edge7" class="edge">
<title>tovs_lin_mod&#45;&gt;verticalcoord_mod</title>
<path fill="none" stroke="black" d="M293.02,-557.52C341.86,-536.56 412.5,-495.3 412.5,-432 412.5,-432 412.5,-432 412.5,-214 412.5,-174 412.5,-127.65 412.5,-99.08"/>
<polygon fill="black" stroke="black" points="416,-99.05 412.5,-89.05 409,-99.05 416,-99.05"/>
</g>
</g>
</svg>
