<?xml version="1.0" encoding="UTF-8" standalone="no"?>
<!DOCTYPE svg PUBLIC "-//W3C//DTD SVG 1.1//EN"
 "http://www.w3.org/Graphics/SVG/1.1/DTD/svg11.dtd">
<!-- Generated by graphviz version 3.0.0 (20220315.2325)
 -->
<!-- Title: tovs_nl_mod Pages: 1 -->
<svg width="1404pt" height="673pt"
 viewBox="0.00 0.00 1404.00 673.00" xmlns="http://www.w3.org/2000/svg" xmlns:xlink="http://www.w3.org/1999/xlink">
<g id="graph0" class="graph" transform="scale(1 1) rotate(0) translate(4 669)">
<title>tovs_nl_mod</title>
<polygon fill="white" stroke="transparent" points="-4,4 -4,-669 1400,-669 1400,4 -4,4"/>
<text text-anchor="middle" x="698" y="-649.8" font-family="Times,serif" font-size="14.00">Blue boxes indicate modules with reverse dependencies not shown</text>
<text text-anchor="middle" x="698" y="-634.8" font-family="Times,serif" font-size="14.00">Higher level reverse dependencies can be shown by clicking on a blue box</text>
<text text-anchor="middle" x="698" y="-619.8" font-family="Times,serif" font-size="14.00">Green boxes are programs</text>
<!-- tovs_nl_mod -->
<g id="node1" class="node">
<title>tovs_nl_mod</title>
<g id="a_node1"><a xlink:href="tovs_nl_mod.html" xlink:title="tovs_nl_mod">
<polygon fill="none" stroke="black" points="753,-36 666,-36 666,0 753,0 753,-36"/>
<text text-anchor="middle" x="709.5" y="-14.3" font-family="Times,serif" font-size="14.00">tovs_nl_mod</text>
</a>
</g>
</g>
<!-- bgckcsr_mod -->
<g id="node2" class="node">
<title>bgckcsr_mod</title>
<g id="a_node2"><a xlink:href="../modules/bgckcsr_mod_rev.svg" xlink:title="bgckcsr_mod">
<polygon fill="none" stroke="blue" points="89,-108 0,-108 0,-72 89,-72 89,-108"/>
<text text-anchor="middle" x="44.5" y="-86.3" font-family="Times,serif" font-size="14.00">bgckcsr_mod</text>
</a>
</g>
</g>
<!-- bgckcsr_mod&#45;&gt;tovs_nl_mod -->
<g id="edge1" class="edge">
<title>bgckcsr_mod&#45;&gt;tovs_nl_mod</title>
<path fill="none" stroke="black" d="M97.23,-73.27C99.34,-72.81 101.44,-72.38 103.5,-72 311.68,-33.28 565.49,-22.7 665.76,-19.93"/>
<ellipse fill="black" stroke="black" cx="92.96" cy="-74.27" rx="4" ry="4"/>
</g>
<!-- bgckmicrowave_mod -->
<g id="node3" class="node">
<title>bgckmicrowave_mod</title>
<g id="a_node3"><a xlink:href="../modules/bgckmicrowave_mod_rev.svg" xlink:title="bgckmicrowave_mod">
<polygon fill="none" stroke="blue" points="155.5,-180 21.5,-180 21.5,-144 155.5,-144 155.5,-180"/>
<text text-anchor="middle" x="88.5" y="-158.3" font-family="Times,serif" font-size="14.00">bgckmicrowave_mod</text>
</a>
</g>
</g>
<!-- bgckmicrowave_mod&#45;&gt;tovs_nl_mod -->
<g id="edge2" class="edge">
<title>bgckmicrowave_mod&#45;&gt;tovs_nl_mod</title>
<path fill="none" stroke="black" d="M102.99,-136.96C117.11,-115.91 140.64,-86.48 169.5,-72 256.22,-28.48 553.04,-20.68 665.67,-19.3"/>
<ellipse fill="black" stroke="black" cx="100.75" cy="-140.4" rx="4" ry="4"/>
</g>
<!-- bgckssmis_mod -->
<g id="node4" class="node">
<title>bgckssmis_mod</title>
<g id="a_node4"><a xlink:href="../modules/bgckssmis_mod_rev.svg" xlink:title="bgckssmis_mod">
<polygon fill="none" stroke="blue" points="193.5,-252 89.5,-252 89.5,-216 193.5,-216 193.5,-252"/>
<text text-anchor="middle" x="141.5" y="-230.3" font-family="Times,serif" font-size="14.00">bgckssmis_mod</text>
</a>
</g>
</g>
<!-- bgckssmis_mod&#45;&gt;tovs_nl_mod -->
<g id="edge3" class="edge">
<title>bgckssmis_mod&#45;&gt;tovs_nl_mod</title>
<path fill="none" stroke="black" d="M152.36,-208.41C156.25,-199.48 160.63,-189.31 164.5,-180 184.34,-132.3 166.32,-103.21 207.5,-72 243.69,-44.57 550.3,-26.82 665.76,-21.05"/>
<ellipse fill="black" stroke="black" cx="150.7" cy="-212.21" rx="4" ry="4"/>
</g>
<!-- biascorrectionsat_mod -->
<g id="node5" class="node">
<title>biascorrectionsat_mod</title>
<g id="a_node5"><a xlink:href="../modules/biascorrectionsat_mod_rev.svg" xlink:title="biascorrectionsat_mod">
<polygon fill="none" stroke="blue" points="231,-324 92,-324 92,-288 231,-288 231,-324"/>
<text text-anchor="middle" x="161.5" y="-302.3" font-family="Times,serif" font-size="14.00">biascorrectionsat_mod</text>
</a>
</g>
</g>
<!-- biascorrectionsat_mod&#45;&gt;tovs_nl_mod -->
<g id="edge4" class="edge">
<title>biascorrectionsat_mod&#45;&gt;tovs_nl_mod</title>
<path fill="none" stroke="black" d="M183.28,-281.32C190.3,-272.63 197.54,-262.37 202.5,-252 238.01,-177.81 183.94,-126.54 245.5,-72 276.64,-44.41 556.11,-26.99 665.7,-21.17"/>
<ellipse fill="black" stroke="black" cx="180.56" cy="-284.57" rx="4" ry="4"/>
</g>
<!-- bmatrix1dvar_mod -->
<g id="node6" class="node">
<title>bmatrix1dvar_mod</title>
<g id="a_node6"><a xlink:href="../modules/bmatrix1dvar_mod_rev.svg" xlink:title="bmatrix1dvar_mod">
<polygon fill="none" stroke="blue" points="269,-396 150,-396 150,-360 269,-360 269,-396"/>
<text text-anchor="middle" x="209.5" y="-374.3" font-family="Times,serif" font-size="14.00">bmatrix1dvar_mod</text>
</a>
</g>
</g>
<!-- bmatrix1dvar_mod&#45;&gt;tovs_nl_mod -->
<g id="edge5" class="edge">
<title>bmatrix1dvar_mod&#45;&gt;tovs_nl_mod</title>
<path fill="none" stroke="black" d="M225.11,-352.93C230.29,-344.11 235.7,-333.87 239.5,-324 254.09,-286.17 259.5,-275.54 259.5,-235 259.5,-235 259.5,-235 259.5,-161 259.5,-120.03 252.58,-98.88 283.5,-72 339.82,-23.04 568.69,-18.25 665.7,-18.48"/>
<ellipse fill="black" stroke="black" cx="222.92" cy="-356.55" rx="4" ry="4"/>
</g>
<!-- burpread_mod -->
<g id="node7" class="node">
<title>burpread_mod</title>
<g id="a_node7"><a xlink:href="../modules/burpread_mod_rev.svg" xlink:title="burpread_mod">
<polygon fill="none" stroke="blue" points="307,-468 212,-468 212,-432 307,-432 307,-468"/>
<text text-anchor="middle" x="259.5" y="-446.3" font-family="Times,serif" font-size="14.00">burpread_mod</text>
</a>
</g>
</g>
<!-- burpread_mod&#45;&gt;tovs_nl_mod -->
<g id="edge6" class="edge">
<title>burpread_mod&#45;&gt;tovs_nl_mod</title>
<path fill="none" stroke="black" d="M270.36,-424.22C281.59,-396.29 297.5,-349.27 297.5,-307 297.5,-307 297.5,-307 297.5,-161 297.5,-120.03 290.74,-99.06 321.5,-72 371.9,-27.65 575.47,-20.19 665.87,-19.09"/>
<ellipse fill="black" stroke="black" cx="268.71" cy="-428.21" rx="4" ry="4"/>
</g>
<!-- costfunction_mod -->
<g id="node8" class="node">
<title>costfunction_mod</title>
<g id="a_node8"><a xlink:href="../modules/costfunction_mod_rev.svg" xlink:title="costfunction_mod">
<polygon fill="none" stroke="blue" points="345.5,-540 231.5,-540 231.5,-504 345.5,-504 345.5,-540"/>
<text text-anchor="middle" x="288.5" y="-518.3" font-family="Times,serif" font-size="14.00">costfunction_mod</text>
</a>
</g>
</g>
<!-- costfunction_mod&#45;&gt;tovs_nl_mod -->
<g id="edge7" class="edge">
<title>costfunction_mod&#45;&gt;tovs_nl_mod</title>
<path fill="none" stroke="black" d="M302.46,-496.77C307.11,-487.93 312,-477.71 315.5,-468 329.25,-429.86 335.5,-419.54 335.5,-379 335.5,-379 335.5,-379 335.5,-161 335.5,-120.03 328.94,-99.29 359.5,-72 403.97,-32.3 582.04,-22.33 665.68,-19.83"/>
<ellipse fill="black" stroke="black" cx="300.54" cy="-500.31" rx="4" ry="4"/>
</g>
<!-- enkf_mod -->
<g id="node9" class="node">
<title>enkf_mod</title>
<g id="a_node9"><a xlink:href="../modules/enkf_mod_rev.svg" xlink:title="enkf_mod">
<polygon fill="none" stroke="blue" points="410,-612 337,-612 337,-576 410,-576 410,-612"/>
<text text-anchor="middle" x="373.5" y="-590.3" font-family="Times,serif" font-size="14.00">enkf_mod</text>
</a>
</g>
</g>
<!-- enkf_mod&#45;&gt;tovs_nl_mod -->
<g id="edge8" class="edge">
<title>enkf_mod&#45;&gt;tovs_nl_mod</title>
<path fill="none" stroke="black" d="M373.5,-567.78C373.5,-539.39 373.5,-491.89 373.5,-451 373.5,-451 373.5,-451 373.5,-161 373.5,-120.55 363.27,-99.95 392.5,-72 430.96,-35.22 588.1,-23.82 665.71,-20.41"/>
<ellipse fill="black" stroke="black" cx="373.5" cy="-571.95" rx="4" ry="4"/>
</g>
<!-- ensembleobservations_mod -->
<g id="node10" class="node">
<title>ensembleobservations_mod</title>
<g id="a_node10"><a xlink:href="../modules/ensembleobservations_mod_rev.svg" xlink:title="ensembleobservations_mod">
<polygon fill="none" stroke="blue" points="567.5,-108 401.5,-108 401.5,-72 567.5,-72 567.5,-108"/>
<text text-anchor="middle" x="484.5" y="-86.3" font-family="Times,serif" font-size="14.00">ensembleobservations_mod</text>
</a>
</g>
</g>
<!-- ensembleobservations_mod&#45;&gt;tovs_nl_mod -->
<g id="edge9" class="edge">
<title>ensembleobservations_mod&#45;&gt;tovs_nl_mod</title>
<path fill="none" stroke="black" d="M547.16,-69.51C584.92,-57.76 632.07,-43.09 665.82,-32.59"/>
<ellipse fill="black" stroke="black" cx="543.07" cy="-70.78" rx="4" ry="4"/>
</g>
<!-- fsoi_mod -->
<g id="node11" class="node">
<title>fsoi_mod</title>
<g id="a_node11"><a xlink:href="../modules/fsoi_mod_rev.svg" xlink:title="fsoi_mod">
<polygon fill="none" stroke="blue" points="605.5,-180 537.5,-180 537.5,-144 605.5,-144 605.5,-180"/>
<text text-anchor="middle" x="571.5" y="-158.3" font-family="Times,serif" font-size="14.00">fsoi_mod</text>
</a>
</g>
</g>
<!-- fsoi_mod&#45;&gt;tovs_nl_mod -->
<g id="edge10" class="edge">
<title>fsoi_mod&#45;&gt;tovs_nl_mod</title>
<path fill="none" stroke="black" d="M580.5,-136.36C588.47,-117.09 601.63,-90.56 619.5,-72 633.84,-57.11 653.26,-44.97 670.38,-36.09"/>
<ellipse fill="black" stroke="black" cx="578.98" cy="-140.15" rx="4" ry="4"/>
</g>
<!-- innovation_mod -->
<g id="node12" class="node">
<title>innovation_mod</title>
<g id="a_node12"><a xlink:href="../modules/innovation_mod_rev.svg" xlink:title="innovation_mod">
<polygon fill="none" stroke="blue" points="643.5,-252 539.5,-252 539.5,-216 643.5,-216 643.5,-252"/>
<text text-anchor="middle" x="591.5" y="-230.3" font-family="Times,serif" font-size="14.00">innovation_mod</text>
</a>
</g>
</g>
<!-- innovation_mod&#45;&gt;tovs_nl_mod -->
<g id="edge11" class="edge">
<title>innovation_mod&#45;&gt;tovs_nl_mod</title>
<path fill="none" stroke="black" d="M602.36,-208.41C606.25,-199.48 610.63,-189.31 614.5,-180 634.34,-132.3 629.3,-115.29 657.5,-72 666.22,-58.61 678.7,-45.75 689.24,-36.06"/>
<ellipse fill="black" stroke="black" cx="600.7" cy="-212.21" rx="4" ry="4"/>
</g>
<!-- multi_ir_bgck_mod -->
<g id="node13" class="node">
<title>multi_ir_bgck_mod</title>
<g id="a_node13"><a xlink:href="../modules/multi_ir_bgck_mod_rev.svg" xlink:title="multi_ir_bgck_mod">
<polygon fill="none" stroke="blue" points="681,-324 556,-324 556,-288 681,-288 681,-324"/>
<text text-anchor="middle" x="618.5" y="-302.3" font-family="Times,serif" font-size="14.00">multi_ir_bgck_mod</text>
</a>
</g>
</g>
<!-- multi_ir_bgck_mod&#45;&gt;tovs_nl_mod -->
<g id="edge12" class="edge">
<title>multi_ir_bgck_mod&#45;&gt;tovs_nl_mod</title>
<path fill="none" stroke="black" d="M636.32,-281C642.16,-272.23 648.24,-262 652.5,-252 684.71,-176.32 675.44,-151.77 695.5,-72 698.52,-60 702.08,-46.52 704.86,-36.16"/>
<ellipse fill="black" stroke="black" cx="633.99" cy="-284.39" rx="4" ry="4"/>
</g>
<!-- obsdiagfiles_mod -->
<g id="node14" class="node">
<title>obsdiagfiles_mod</title>
<g id="a_node14"><a xlink:href="../modules/obsdiagfiles_mod_rev.svg" xlink:title="obsdiagfiles_mod">
<polygon fill="none" stroke="blue" points="719.5,-396 607.5,-396 607.5,-360 719.5,-360 719.5,-396"/>
<text text-anchor="middle" x="663.5" y="-374.3" font-family="Times,serif" font-size="14.00">obsdiagfiles_mod</text>
</a>
</g>
</g>
<!-- obsdiagfiles_mod&#45;&gt;tovs_nl_mod -->
<g id="edge13" class="edge">
<title>obsdiagfiles_mod&#45;&gt;tovs_nl_mod</title>
<path fill="none" stroke="black" d="M677.04,-352.45C681.48,-343.67 686.13,-333.57 689.5,-324 702.97,-285.76 709.5,-275.54 709.5,-235 709.5,-235 709.5,-235 709.5,-161 709.5,-115.89 709.5,-62.71 709.5,-36.05"/>
<ellipse fill="black" stroke="black" cx="675.08" cy="-356.23" rx="4" ry="4"/>
</g>
<!-- obserrors_mod -->
<g id="node15" class="node">
<title>obserrors_mod</title>
<g id="a_node15"><a xlink:href="../modules/obserrors_mod_rev.svg" xlink:title="obserrors_mod">
<polygon fill="none" stroke="blue" points="757.5,-468 659.5,-468 659.5,-432 757.5,-432 757.5,-468"/>
<text text-anchor="middle" x="708.5" y="-446.3" font-family="Times,serif" font-size="14.00">obserrors_mod</text>
</a>
</g>
</g>
<!-- obserrors_mod&#45;&gt;tovs_nl_mod -->
<g id="edge14" class="edge">
<title>obserrors_mod&#45;&gt;tovs_nl_mod</title>
<path fill="none" stroke="black" d="M719.64,-424.25C731.17,-396.35 747.5,-349.35 747.5,-307 747.5,-307 747.5,-307 747.5,-161 747.5,-114.55 728.29,-62.38 717.19,-36.09"/>
<ellipse fill="black" stroke="black" cx="717.95" cy="-428.24" rx="4" ry="4"/>
</g>
<!-- obsfiles_mod -->
<g id="node16" class="node">
<title>obsfiles_mod</title>
<g id="a_node16"><a xlink:href="../modules/obsfiles_mod_rev.svg" xlink:title="obsfiles_mod">
<polygon fill="none" stroke="blue" points="795,-540 706,-540 706,-504 795,-504 795,-540"/>
<text text-anchor="middle" x="750.5" y="-518.3" font-family="Times,serif" font-size="14.00">obsfiles_mod</text>
</a>
</g>
</g>
<!-- obsfiles_mod&#45;&gt;tovs_nl_mod -->
<g id="edge15" class="edge">
<title>obsfiles_mod&#45;&gt;tovs_nl_mod</title>
<path fill="none" stroke="black" d="M760.5,-496.14C770.85,-468.14 785.5,-421.06 785.5,-379 785.5,-379 785.5,-379 785.5,-161 785.5,-110.95 748.34,-61.47 725.99,-36.23"/>
<ellipse fill="black" stroke="black" cx="759" cy="-500.11" rx="4" ry="4"/>
</g>
<!-- obsfilter_mod -->
<g id="node17" class="node">
<title>obsfilter_mod</title>
<g id="a_node17"><a xlink:href="../modules/obsfilter_mod_rev.svg" xlink:title="obsfilter_mod">
<polygon fill="none" stroke="blue" points="869.5,-612 777.5,-612 777.5,-576 869.5,-576 869.5,-612"/>
<text text-anchor="middle" x="823.5" y="-590.3" font-family="Times,serif" font-size="14.00">obsfilter_mod</text>
</a>
</g>
</g>
<!-- obsfilter_mod&#45;&gt;tovs_nl_mod -->
<g id="edge16" class="edge">
<title>obsfilter_mod&#45;&gt;tovs_nl_mod</title>
<path fill="none" stroke="black" d="M823.5,-567.78C823.5,-539.39 823.5,-491.89 823.5,-451 823.5,-451 823.5,-451 823.5,-161 823.5,-105.67 770.23,-59.63 736.52,-36.04"/>
<ellipse fill="black" stroke="black" cx="823.5" cy="-571.95" rx="4" ry="4"/>
</g>
<!-- obsoperators_mod -->
<g id="node18" class="node">
<title>obsoperators_mod</title>
<g id="a_node18"><a xlink:href="../modules/obsoperators_mod_rev.svg" xlink:title="obsoperators_mod">
<polygon fill="none" stroke="blue" points="967.5,-108 851.5,-108 851.5,-72 967.5,-72 967.5,-108"/>
<text text-anchor="middle" x="909.5" y="-86.3" font-family="Times,serif" font-size="14.00">obsoperators_mod</text>
</a>
</g>
</g>
<!-- obsoperators_mod&#45;&gt;tovs_nl_mod -->
<g id="edge17" class="edge">
<title>obsoperators_mod&#45;&gt;tovs_nl_mod</title>
<path fill="none" stroke="black" d="M852.96,-69.21C821.35,-58.15 782.54,-44.56 753.27,-34.32"/>
<ellipse fill="black" stroke="black" cx="857.05" cy="-70.64" rx="4" ry="4"/>
</g>
<!-- rmatrix_mod -->
<g id="node19" class="node">
<title>rmatrix_mod</title>
<g id="a_node19"><a xlink:href="../modules/rmatrix_mod_rev.svg" xlink:title="rmatrix_mod">
<polygon fill="none" stroke="blue" points="1005,-180 918,-180 918,-144 1005,-144 1005,-180"/>
<text text-anchor="middle" x="961.5" y="-158.3" font-family="Times,serif" font-size="14.00">rmatrix_mod</text>
</a>
</g>
</g>
<!-- rmatrix_mod&#45;&gt;tovs_nl_mod -->
<g id="edge18" class="edge">
<title>rmatrix_mod&#45;&gt;tovs_nl_mod</title>
<path fill="none" stroke="black" d="M975.06,-136.54C983.87,-116.98 991.25,-89.96 976.5,-72 948.72,-38.17 821.33,-25.55 753.04,-21.15"/>
<ellipse fill="black" stroke="black" cx="973.25" cy="-140.29" rx="4" ry="4"/>
</g>
<!-- slantprofilelatlon_mod -->
<g id="node20" class="node">
<title>slantprofilelatlon_mod</title>
<g id="a_node20"><a xlink:href="../modules/slantprofilelatlon_mod_rev.svg" xlink:title="slantprofilelatlon_mod">
<polygon fill="none" stroke="blue" points="1043.5,-252 905.5,-252 905.5,-216 1043.5,-216 1043.5,-252"/>
<text text-anchor="middle" x="974.5" y="-230.3" font-family="Times,serif" font-size="14.00">slantprofilelatlon_mod</text>
</a>
</g>
</g>
<!-- slantprofilelatlon_mod&#45;&gt;tovs_nl_mod -->
<g id="edge19" class="edge">
<title>slantprofilelatlon_mod&#45;&gt;tovs_nl_mod</title>
<path fill="none" stroke="black" d="M996.57,-209.72C1003.37,-201.07 1009.98,-190.73 1013.5,-180 1028.68,-133.77 1030.95,-105.33 995.5,-72 961.1,-39.66 824.35,-26.29 753.13,-21.43"/>
<ellipse fill="black" stroke="black" cx="993.94" cy="-212.91" rx="4" ry="4"/>
</g>
<!-- statetocolumn_mod -->
<g id="node21" class="node">
<title>statetocolumn_mod</title>
<g id="a_node21"><a xlink:href="../modules/statetocolumn_mod_rev.svg" xlink:title="statetocolumn_mod">
<polygon fill="none" stroke="blue" points="1081.5,-324 957.5,-324 957.5,-288 1081.5,-288 1081.5,-324"/>
<text text-anchor="middle" x="1019.5" y="-302.3" font-family="Times,serif" font-size="14.00">statetocolumn_mod</text>
</a>
</g>
</g>
<!-- statetocolumn_mod&#45;&gt;tovs_nl_mod -->
<g id="edge20" class="edge">
<title>statetocolumn_mod&#45;&gt;tovs_nl_mod</title>
<path fill="none" stroke="black" d="M1038.39,-280.98C1044.08,-272.34 1049.58,-262.2 1052.5,-252 1068.81,-194.96 1045.87,-94.5 1022.5,-72 984.69,-35.59 829.83,-24.02 753.06,-20.48"/>
<ellipse fill="black" stroke="black" cx="1036.1" cy="-284.28" rx="4" ry="4"/>
</g>
<!-- tovs_lin_mod -->
<g id="node22" class="node">
<title>tovs_lin_mod</title>
<g id="a_node22"><a xlink:href="../modules/tovs_lin_mod_rev.svg" xlink:title="tovs_lin_mod">
<polygon fill="none" stroke="blue" points="1119,-396 1028,-396 1028,-360 1119,-360 1119,-396"/>
<text text-anchor="middle" x="1073.5" y="-374.3" font-family="Times,serif" font-size="14.00">tovs_lin_mod</text>
</a>
</g>
</g>
<!-- tovs_lin_mod&#45;&gt;tovs_nl_mod -->
<g id="edge21" class="edge">
<title>tovs_lin_mod&#45;&gt;tovs_nl_mod</title>
<path fill="none" stroke="black" d="M1083.79,-352.16C1094.43,-324.19 1109.5,-277.13 1109.5,-235 1109.5,-235 1109.5,-235 1109.5,-161 1109.5,-112.54 1087.68,-97.55 1046.5,-72 998.19,-42.02 832.78,-27.2 753.1,-21.66"/>
<ellipse fill="black" stroke="black" cx="1082.24" cy="-356.14" rx="4" ry="4"/>
</g>
<!-- midas_midas_letkf -->
<g id="node23" class="node">
<title>midas_midas_letkf</title>
<g id="a_node23"><a xlink:href="../programs/midas_letkf.html" xlink:title="midas_midas_letkf">
<polygon fill="gray" stroke="green" points="1157.5,-468 1035.5,-468 1035.5,-432 1157.5,-432 1157.5,-468"/>
<text text-anchor="middle" x="1096.5" y="-446.3" font-family="Times,serif" font-size="14.00">midas_midas_letkf</text>
</a>
</g>
</g>
<!-- midas_midas_letkf&#45;&gt;tovs_nl_mod -->
<g id="edge22" class="edge">
<title>midas_midas_letkf&#45;&gt;tovs_nl_mod</title>
<path fill="none" stroke="black" d="M1112.9,-424.58C1118.18,-415.85 1123.66,-405.76 1127.5,-396 1142.35,-358.28 1147.5,-347.54 1147.5,-307 1147.5,-307 1147.5,-307 1147.5,-161 1147.5,-112.54 1125.88,-97.23 1084.5,-72 1029.63,-38.54 839.87,-25.27 753.24,-20.87"/>
<ellipse fill="black" stroke="black" cx="1110.67" cy="-428.15" rx="4" ry="4"/>
</g>
<!-- midas_midas_prepcma -->
<g id="node24" class="node">
<title>midas_midas_prepcma</title>
<g id="a_node24"><a xlink:href="../programs/midas_prepcma.html" xlink:title="midas_midas_prepcma">
<polygon fill="gray" stroke="green" points="1226,-540 1083,-540 1083,-504 1226,-504 1226,-540"/>
<text text-anchor="middle" x="1154.5" y="-518.3" font-family="Times,serif" font-size="14.00">midas_midas_prepcma</text>
</a>
</g>
</g>
<!-- midas_midas_prepcma&#45;&gt;tovs_nl_mod -->
<g id="edge23" class="edge">
<title>midas_midas_prepcma&#45;&gt;tovs_nl_mod</title>
<path fill="none" stroke="black" d="M1163.36,-496.04C1172.52,-467.96 1185.5,-420.8 1185.5,-379 1185.5,-379 1185.5,-379 1185.5,-161 1185.5,-112.54 1164.04,-96.97 1122.5,-72 1061.01,-35.04 846.57,-23.53 753.34,-20.23"/>
<ellipse fill="black" stroke="black" cx="1162.04" cy="-499.98" rx="4" ry="4"/>
</g>
<!-- midas_midas_thinning -->
<g id="node25" class="node">
<title>midas_midas_thinning</title>
<g id="a_node25"><a xlink:href="../programs/midas_thinning.html" xlink:title="midas_midas_thinning">
<polygon fill="gray" stroke="green" points="1325,-612 1184,-612 1184,-576 1325,-576 1325,-612"/>
<text text-anchor="middle" x="1254.5" y="-590.3" font-family="Times,serif" font-size="14.00">midas_midas_thinning</text>
</a>
</g>
</g>
<!-- midas_midas_thinning&#45;&gt;tovs_nl_mod -->
<g id="edge24" class="edge">
<title>midas_midas_thinning&#45;&gt;tovs_nl_mod</title>
<path fill="none" stroke="black" d="M1254.5,-567.78C1254.5,-539.39 1254.5,-491.89 1254.5,-451 1254.5,-451 1254.5,-451 1254.5,-161 1254.5,-103.47 1212.61,-96.38 1160.5,-72 1088.73,-38.43 851.63,-24.9 753.07,-20.64"/>
<ellipse fill="black" stroke="black" cx="1254.5" cy="-571.95" rx="4" ry="4"/>
</g>
<!-- midas_midas_var -->
<g id="node26" class="node">
<title>midas_midas_var</title>
<g id="a_node26"><a xlink:href="../programs/midas_var.html" xlink:title="midas_midas_var">
<polygon fill="gray" stroke="green" points="1396,-108 1283,-108 1283,-72 1396,-72 1396,-108"/>
<text text-anchor="middle" x="1339.5" y="-86.3" font-family="Times,serif" font-size="14.00">midas_midas_var</text>
</a>
</g>
</g>
<!-- midas_midas_var&#45;&gt;tovs_nl_mod -->
<g id="edge25" class="edge">
<title>midas_midas_var&#45;&gt;tovs_nl_mod</title>
<path fill="none" stroke="black" d="M1274.64,-73.08C1272.58,-72.7 1270.52,-72.34 1268.5,-72 1078.1,-40.34 847.83,-25.95 753.26,-21.05"/>
<ellipse fill="black" stroke="black" cx="1278.75" cy="-73.88" rx="4" ry="4"/>
</g>
</g>
</svg>
