<?xml version="1.0" encoding="UTF-8" standalone="no"?>
<!DOCTYPE svg PUBLIC "-//W3C//DTD SVG 1.1//EN"
 "http://www.w3.org/Graphics/SVG/1.1/DTD/svg11.dtd">
<!-- Generated by graphviz version 3.0.0 (20220315.2325)
 -->
<!-- Title: utilities_mod Pages: 1 -->
<svg width="379pt" height="241pt"
 viewBox="0.00 0.00 379.00 241.00" xmlns="http://www.w3.org/2000/svg" xmlns:xlink="http://www.w3.org/1999/xlink">
<g id="graph0" class="graph" transform="scale(1 1) rotate(0) translate(4 237)">
<title>utilities_mod</title>
<polygon fill="white" stroke="transparent" points="-4,4 -4,-237 375,-237 375,4 -4,4"/>
<text text-anchor="middle" x="185.5" y="-37.8" font-family="Times,serif" font-size="14.00">Red boxes indicate modules with dependencies not shown</text>
<text text-anchor="middle" x="185.5" y="-22.8" font-family="Times,serif" font-size="14.00">Lower level dependencies can be shown by clicking on a red box</text>
<text text-anchor="middle" x="185.5" y="-7.8" font-family="Times,serif" font-size="14.00">Shaded boxes indicate modules with no dependencies</text>
<!-- utilities_mod -->
<g id="node1" class="node">
<title>utilities_mod</title>
<g id="a_node1"><a xlink:href="utilities_mod.html" xlink:title="utilities_mod">
<polygon fill="none" stroke="black" points="228.5,-233 140.5,-233 140.5,-197 228.5,-197 228.5,-233"/>
<text text-anchor="middle" x="184.5" y="-211.3" font-family="Times,serif" font-size="14.00">utilities_mod</text>
</a>
</g>
</g>
<!-- clib_interfaces_mod -->
<g id="node2" class="node">
<title>clib_interfaces_mod</title>
<g id="a_node2"><a xlink:href="clib_interfaces_mod.html" xlink:title="clib_interfaces_mod">
<polygon fill="gray" stroke="black" points="202,-161 75,-161 75,-125 202,-125 202,-161"/>
<text text-anchor="middle" x="138.5" y="-139.3" font-family="Times,serif" font-size="14.00">clib_interfaces_mod</text>
</a>
</g>
</g>
<!-- utilities_mod&#45;&gt;clib_interfaces_mod -->
<g id="edge1" class="edge">
<title>utilities_mod&#45;&gt;clib_interfaces_mod</title>
<path fill="none" stroke="black" d="M173.13,-196.7C167.78,-188.56 161.3,-178.69 155.39,-169.7"/>
<polygon fill="black" stroke="black" points="158.16,-167.54 149.74,-161.1 152.31,-171.38 158.16,-167.54"/>
</g>
<!-- randomnumber_mod -->
<g id="node3" class="node">
<title>randomnumber_mod</title>
<g id="a_node3"><a xlink:href="randomnumber_mod.html" xlink:title="randomnumber_mod">
<polygon fill="gray" stroke="black" points="296,-89 165,-89 165,-53 296,-53 296,-89"/>
<text text-anchor="middle" x="230.5" y="-67.3" font-family="Times,serif" font-size="14.00">randomnumber_mod</text>
</a>
</g>
</g>
<!-- utilities_mod&#45;&gt;randomnumber_mod -->
<g id="edge2" class="edge">
<title>utilities_mod&#45;&gt;randomnumber_mod</title>
<path fill="none" stroke="black" d="M194.69,-196.84C200.33,-186.71 207.08,-173.46 211.5,-161 218.66,-140.8 223.57,-117.03 226.6,-99.13"/>
<polygon fill="black" stroke="black" points="230.08,-99.52 228.21,-89.09 223.17,-98.41 230.08,-99.52"/>
</g>
</g>
</svg>
