<?xml version="1.0" encoding="UTF-8" standalone="no"?>
<!DOCTYPE svg PUBLIC "-//W3C//DTD SVG 1.1//EN"
 "http://www.w3.org/Graphics/SVG/1.1/DTD/svg11.dtd">
<!-- Generated by graphviz version 3.0.0 (20220315.2325)
 -->
<!-- Title: var1d_mod Pages: 1 -->
<svg width="580pt" height="673pt"
 viewBox="0.00 0.00 580.00 673.00" xmlns="http://www.w3.org/2000/svg" xmlns:xlink="http://www.w3.org/1999/xlink">
<g id="graph0" class="graph" transform="scale(1 1) rotate(0) translate(4 669)">
<title>var1d_mod</title>
<polygon fill="white" stroke="transparent" points="-4,4 -4,-669 576,-669 576,4 -4,4"/>
<text text-anchor="middle" x="286" y="-37.8" font-family="Times,serif" font-size="14.00">Red boxes indicate modules with dependencies not shown</text>
<text text-anchor="middle" x="286" y="-22.8" font-family="Times,serif" font-size="14.00">Lower level dependencies can be shown by clicking on a red box</text>
<text text-anchor="middle" x="286" y="-7.8" font-family="Times,serif" font-size="14.00">Shaded boxes indicate modules with no dependencies</text>
<!-- var1d_mod -->
<g id="node1" class="node">
<title>var1d_mod</title>
<g id="a_node1"><a xlink:href="var1d_mod.html" xlink:title="var1d_mod">
<polygon fill="none" stroke="black" points="325.5,-665 248.5,-665 248.5,-629 325.5,-629 325.5,-665"/>
<text text-anchor="middle" x="287" y="-643.3" font-family="Times,serif" font-size="14.00">var1d_mod</text>
</a>
</g>
</g>
<!-- codeprecision_mod -->
<g id="node2" class="node">
<title>codeprecision_mod</title>
<g id="a_node2"><a xlink:href="codeprecision_mod.html" xlink:title="codeprecision_mod">
<polygon fill="gray" stroke="black" points="122,-593 0,-593 0,-557 122,-557 122,-593"/>
<text text-anchor="middle" x="61" y="-571.3" font-family="Times,serif" font-size="14.00">codeprecision_mod</text>
</a>
</g>
</g>
<!-- var1d_mod&#45;&gt;codeprecision_mod -->
<g id="edge1" class="edge">
<title>var1d_mod&#45;&gt;codeprecision_mod</title>
<path fill="none" stroke="black" d="M248.41,-634.05C214.75,-623.62 165.23,-608.28 125.55,-595.99"/>
<polygon fill="black" stroke="black" points="126.54,-592.64 115.95,-593.02 124.47,-599.32 126.54,-592.64"/>
</g>
<!-- columndata_mod -->
<g id="node3" class="node">
<title>columndata_mod</title>
<g id="a_node3"><a xlink:href="../modules/columndata_mod.svg" xlink:title="columndata_mod">
<polygon fill="none" stroke="red" points="182.5,-521 71.5,-521 71.5,-485 182.5,-485 182.5,-521"/>
<text text-anchor="middle" x="127" y="-499.3" font-family="Times,serif" font-size="14.00">columndata_mod</text>
</a>
</g>
</g>
<!-- var1d_mod&#45;&gt;columndata_mod -->
<g id="edge2" class="edge">
<title>var1d_mod&#45;&gt;columndata_mod</title>
<path fill="none" stroke="black" d="M251.22,-628.91C233.84,-619.65 213.25,-607.2 197,-593 175.79,-574.46 156.39,-548.79 143.42,-529.78"/>
<polygon fill="black" stroke="black" points="146.23,-527.68 137.76,-521.3 140.4,-531.56 146.23,-527.68"/>
</g>
<!-- gridstatevector_mod -->
<g id="node4" class="node">
<title>gridstatevector_mod</title>
<g id="a_node4"><a xlink:href="../modules/gridstatevector_mod.svg" xlink:title="gridstatevector_mod">
<polygon fill="none" stroke="red" points="220.5,-449 93.5,-449 93.5,-413 220.5,-413 220.5,-449"/>
<text text-anchor="middle" x="157" y="-427.3" font-family="Times,serif" font-size="14.00">gridstatevector_mod</text>
</a>
</g>
</g>
<!-- var1d_mod&#45;&gt;gridstatevector_mod -->
<g id="edge3" class="edge">
<title>var1d_mod&#45;&gt;gridstatevector_mod</title>
<path fill="none" stroke="black" d="M266.78,-628.91C256.25,-619.21 243.78,-606.36 235,-593 206.54,-549.68 214.87,-531.01 191,-485 186.22,-475.78 180.3,-466.11 174.75,-457.58"/>
<polygon fill="black" stroke="black" points="177.62,-455.57 169.17,-449.18 171.79,-459.45 177.62,-455.57"/>
</g>
<!-- horizontalcoord_mod -->
<g id="node5" class="node">
<title>horizontalcoord_mod</title>
<g id="a_node5"><a xlink:href="../modules/horizontalcoord_mod.svg" xlink:title="horizontalcoord_mod">
<polygon fill="none" stroke="red" points="258.5,-377 125.5,-377 125.5,-341 258.5,-341 258.5,-377"/>
<text text-anchor="middle" x="192" y="-355.3" font-family="Times,serif" font-size="14.00">horizontalcoord_mod</text>
</a>
</g>
</g>
<!-- var1d_mod&#45;&gt;horizontalcoord_mod -->
<g id="edge4" class="edge">
<title>var1d_mod&#45;&gt;horizontalcoord_mod</title>
<path fill="none" stroke="black" d="M282.38,-628.84C279.61,-618.47 276.05,-604.99 273,-593 252.7,-513.18 262.93,-488.04 229,-413 224.68,-403.44 218.57,-393.79 212.57,-385.39"/>
<polygon fill="black" stroke="black" points="215.21,-383.08 206.43,-377.15 209.6,-387.26 215.21,-383.08"/>
</g>
<!-- mathphysconstants_mod -->
<g id="node6" class="node">
<title>mathphysconstants_mod</title>
<g id="a_node6"><a xlink:href="mathphysconstants_mod.html" xlink:title="mathphysconstants_mod">
<polygon fill="gray" stroke="black" points="297,-305 147,-305 147,-269 297,-269 297,-305"/>
<text text-anchor="middle" x="222" y="-283.3" font-family="Times,serif" font-size="14.00">mathphysconstants_mod</text>
</a>
</g>
</g>
<!-- var1d_mod&#45;&gt;mathphysconstants_mod -->
<g id="edge5" class="edge">
<title>var1d_mod&#45;&gt;mathphysconstants_mod</title>
<path fill="none" stroke="black" d="M287,-628.95C287,-602.29 287,-549.11 287,-504 287,-504 287,-504 287,-430 287,-389.46 285.09,-377.28 267,-341 261.94,-330.85 254.53,-321.01 247.18,-312.62"/>
<polygon fill="black" stroke="black" points="249.57,-310.05 240.23,-305.06 244.42,-314.79 249.57,-310.05"/>
</g>
<!-- midasmpi_mod -->
<g id="node7" class="node">
<title>midasmpi_mod</title>
<g id="a_node7"><a xlink:href="../modules/midasmpi_mod.svg" xlink:title="midasmpi_mod">
<polygon fill="none" stroke="red" points="334.5,-233 233.5,-233 233.5,-197 334.5,-197 334.5,-233"/>
<text text-anchor="middle" x="284" y="-211.3" font-family="Times,serif" font-size="14.00">midasmpi_mod</text>
</a>
</g>
</g>
<!-- var1d_mod&#45;&gt;midasmpi_mod -->
<g id="edge6" class="edge">
<title>var1d_mod&#45;&gt;midasmpi_mod</title>
<path fill="none" stroke="black" d="M294.69,-628.91C305.79,-602.62 325,-550.45 325,-504 325,-504 325,-504 325,-358 325,-316.41 308.56,-270.56 296.5,-242.51"/>
<polygon fill="black" stroke="black" points="299.55,-240.75 292.3,-233.03 293.15,-243.59 299.55,-240.75"/>
</g>
<!-- obsspacedata_mod -->
<g id="node8" class="node">
<title>obsspacedata_mod</title>
<g id="a_node8"><a xlink:href="../modules/obsspacedata_mod.svg" xlink:title="obsspacedata_mod">
<polygon fill="none" stroke="red" points="398,-161 280,-161 280,-125 398,-125 398,-161"/>
<text text-anchor="middle" x="339" y="-139.3" font-family="Times,serif" font-size="14.00">obsspacedata_mod</text>
</a>
</g>
</g>
<!-- var1d_mod&#45;&gt;obsspacedata_mod -->
<g id="edge7" class="edge">
<title>var1d_mod&#45;&gt;obsspacedata_mod</title>
<path fill="none" stroke="black" d="M303.49,-628.77C325.84,-603.53 363,-554.05 363,-504 363,-504 363,-504 363,-286 363,-245.65 353.46,-199.74 346.41,-171.32"/>
<polygon fill="black" stroke="black" points="349.73,-170.15 343.86,-161.33 342.94,-171.88 349.73,-170.15"/>
</g>
<!-- timecoord_mod -->
<g id="node9" class="node">
<title>timecoord_mod</title>
<g id="a_node9"><a xlink:href="../modules/timecoord_mod.svg" xlink:title="timecoord_mod">
<polygon fill="none" stroke="red" points="477,-89 375,-89 375,-53 477,-53 477,-89"/>
<text text-anchor="middle" x="426" y="-67.3" font-family="Times,serif" font-size="14.00">timecoord_mod</text>
</a>
</g>
</g>
<!-- var1d_mod&#45;&gt;timecoord_mod -->
<g id="edge8" class="edge">
<title>var1d_mod&#45;&gt;timecoord_mod</title>
<path fill="none" stroke="black" d="M322.8,-628.94C363.98,-606.53 426,-562.99 426,-504 426,-504 426,-504 426,-214 426,-174 426,-127.65 426,-99.08"/>
<polygon fill="black" stroke="black" points="429.5,-99.05 426,-89.05 422.5,-99.05 429.5,-99.05"/>
</g>
<!-- verticalcoord_mod -->
<g id="node10" class="node">
<title>verticalcoord_mod</title>
<g id="a_node10"><a xlink:href="../modules/verticalcoord_mod.svg" xlink:title="verticalcoord_mod">
<polygon fill="none" stroke="red" points="572,-593 454,-593 454,-557 572,-557 572,-593"/>
<text text-anchor="middle" x="513" y="-571.3" font-family="Times,serif" font-size="14.00">verticalcoord_mod</text>
</a>
</g>
</g>
<!-- var1d_mod&#45;&gt;verticalcoord_mod -->
<g id="edge9" class="edge">
<title>var1d_mod&#45;&gt;verticalcoord_mod</title>
<path fill="none" stroke="black" d="M325.59,-634.05C359.25,-623.62 408.77,-608.28 448.45,-595.99"/>
<polygon fill="black" stroke="black" points="449.53,-599.32 458.05,-593.02 447.46,-592.64 449.53,-599.32"/>
</g>
</g>
</svg>
