<?xml version="1.0" encoding="UTF-8" standalone="no"?>
<!DOCTYPE svg PUBLIC "-//W3C//DTD SVG 1.1//EN"
 "http://www.w3.org/Graphics/SVG/1.1/DTD/svg11.dtd">
<!-- Generated by graphviz version 3.0.0 (20220315.2325)
 -->
<!-- Title: var1d_mod Pages: 1 -->
<svg width="430pt" height="241pt"
 viewBox="0.00 0.00 430.00 241.00" xmlns="http://www.w3.org/2000/svg" xmlns:xlink="http://www.w3.org/1999/xlink">
<g id="graph0" class="graph" transform="scale(1 1) rotate(0) translate(4 237)">
<title>var1d_mod</title>
<polygon fill="white" stroke="transparent" points="-4,4 -4,-237 426,-237 426,4 -4,4"/>
<text text-anchor="middle" x="211" y="-217.8" font-family="Times,serif" font-size="14.00">Blue boxes indicate modules with reverse dependencies not shown</text>
<text text-anchor="middle" x="211" y="-202.8" font-family="Times,serif" font-size="14.00">Higher level reverse dependencies can be shown by clicking on a blue box</text>
<text text-anchor="middle" x="211" y="-187.8" font-family="Times,serif" font-size="14.00">Green boxes are programs</text>
<!-- var1d_mod -->
<g id="node1" class="node">
<title>var1d_mod</title>
<g id="a_node1"><a xlink:href="var1d_mod.html" xlink:title="var1d_mod">
<polygon fill="none" stroke="black" points="247.75,-36 170.75,-36 170.75,0 247.75,0 247.75,-36"/>
<text text-anchor="middle" x="209.25" y="-14.3" font-family="Times,serif" font-size="14.00">var1d_mod</text>
</a>
</g>
</g>
<!-- bmatrix1dvar_mod -->
<g id="node2" class="node">
<title>bmatrix1dvar_mod</title>
<g id="a_node2"><a xlink:href="../modules/bmatrix1dvar_mod_rev.svg" xlink:title="bmatrix1dvar_mod">
<polygon fill="none" stroke="blue" points="224.75,-108 105.75,-108 105.75,-72 224.75,-72 224.75,-108"/>
<text text-anchor="middle" x="165.25" y="-86.3" font-family="Times,serif" font-size="14.00">bmatrix1dvar_mod</text>
</a>
</g>
</g>
<!-- bmatrix1dvar_mod&#45;&gt;var1d_mod -->
<g id="edge1" class="edge">
<title>bmatrix1dvar_mod&#45;&gt;var1d_mod</title>
<path fill="none" stroke="black" d="M180.49,-64.76C186.42,-55.32 193.08,-44.72 198.5,-36.1"/>
<ellipse fill="black" stroke="black" cx="178.26" cy="-68.31" rx="4" ry="4"/>
</g>
<!-- midas_midas_var1d -->
<g id="node3" class="node">
<title>midas_midas_var1d</title>
<g id="a_node3"><a xlink:href="../programs/midas_var1d.html" xlink:title="midas_midas_var1d">
<polygon fill="gray" stroke="green" points="316.25,-180 190.25,-180 190.25,-144 316.25,-144 316.25,-180"/>
<text text-anchor="middle" x="253.25" y="-158.3" font-family="Times,serif" font-size="14.00">midas_midas_var1d</text>
</a>
</g>
</g>
<!-- midas_midas_var1d&#45;&gt;var1d_mod -->
<g id="edge2" class="edge">
<title>midas_midas_var1d&#45;&gt;var1d_mod</title>
<path fill="none" stroke="black" d="M249.44,-135.68C246.35,-117.64 241.33,-92.97 234.25,-72 230.09,-59.66 223.84,-46.41 218.63,-36.25"/>
<ellipse fill="black" stroke="black" cx="250.16" cy="-140.01" rx="4" ry="4"/>
</g>
</g>
</svg>
