<?xml version="1.0" encoding="UTF-8" standalone="no"?>
<!DOCTYPE svg PUBLIC "-//W3C//DTD SVG 1.1//EN"
 "http://www.w3.org/Graphics/SVG/1.1/DTD/svg11.dtd">
<!-- Generated by graphviz version 3.0.0 (20220315.2325)
 -->
<!-- Title: varnamelist_mod Pages: 1 -->
<svg width="2140pt" height="673pt"
 viewBox="0.00 0.00 2140.00 673.00" xmlns="http://www.w3.org/2000/svg" xmlns:xlink="http://www.w3.org/1999/xlink">
<g id="graph0" class="graph" transform="scale(1 1) rotate(0) translate(4 669)">
<title>varnamelist_mod</title>
<polygon fill="white" stroke="transparent" points="-4,4 -4,-669 2136,-669 2136,4 -4,4"/>
<text text-anchor="middle" x="1066" y="-649.8" font-family="Times,serif" font-size="14.00">Blue boxes indicate modules with reverse dependencies not shown</text>
<text text-anchor="middle" x="1066" y="-634.8" font-family="Times,serif" font-size="14.00">Higher level reverse dependencies can be shown by clicking on a blue box</text>
<text text-anchor="middle" x="1066" y="-619.8" font-family="Times,serif" font-size="14.00">Green boxes are programs</text>
<!-- varnamelist_mod -->
<g id="node1" class="node">
<title>varnamelist_mod</title>
<g id="a_node1"><a xlink:href="varnamelist_mod.html" xlink:title="varnamelist_mod">
<polygon fill="none" stroke="black" points="1113.5,-36 1003.5,-36 1003.5,0 1113.5,0 1113.5,-36"/>
<text text-anchor="middle" x="1058.5" y="-14.3" font-family="Times,serif" font-size="14.00">varnamelist_mod</text>
</a>
</g>
</g>
<!-- advection_mod -->
<g id="node2" class="node">
<title>advection_mod</title>
<g id="a_node2"><a xlink:href="../modules/advection_mod_rev.svg" xlink:title="advection_mod">
<polygon fill="none" stroke="blue" points="99,-108 0,-108 0,-72 99,-72 99,-108"/>
<text text-anchor="middle" x="49.5" y="-86.3" font-family="Times,serif" font-size="14.00">advection_mod</text>
</a>
</g>
</g>
<!-- advection_mod&#45;&gt;varnamelist_mod -->
<g id="edge1" class="edge">
<title>advection_mod&#45;&gt;varnamelist_mod</title>
<path fill="none" stroke="black" d="M107.32,-73.08C109.4,-72.69 111.46,-72.32 113.5,-72 286.73,-44.43 828.29,-25.98 1003.34,-20.62"/>
<ellipse fill="black" stroke="black" cx="103.17" cy="-73.93" rx="4" ry="4"/>
</g>
<!-- analysiserroroi_mod -->
<g id="node3" class="node">
<title>analysiserroroi_mod</title>
<g id="a_node3"><a xlink:href="../modules/analysiserroroi_mod_rev.svg" xlink:title="analysiserroroi_mod">
<polygon fill="none" stroke="blue" points="164,-180 37,-180 37,-144 164,-144 164,-180"/>
<text text-anchor="middle" x="100.5" y="-158.3" font-family="Times,serif" font-size="14.00">analysiserroroi_mod</text>
</a>
</g>
</g>
<!-- analysiserroroi_mod&#45;&gt;varnamelist_mod -->
<g id="edge2" class="edge">
<title>analysiserroroi_mod&#45;&gt;varnamelist_mod</title>
<path fill="none" stroke="black" d="M113.88,-137.09C127.22,-115.85 149.82,-86.05 178.5,-72 252.33,-35.82 822.2,-23.04 1003.38,-19.86"/>
<ellipse fill="black" stroke="black" cx="111.8" cy="-140.52" rx="4" ry="4"/>
</g>
<!-- bcovarsetupchem_mod -->
<g id="node4" class="node">
<title>bcovarsetupchem_mod</title>
<g id="a_node4"><a xlink:href="../modules/bcovarsetupchem_mod_rev.svg" xlink:title="bcovarsetupchem_mod">
<polygon fill="none" stroke="blue" points="202.5,-252 60.5,-252 60.5,-216 202.5,-216 202.5,-252"/>
<text text-anchor="middle" x="131.5" y="-230.3" font-family="Times,serif" font-size="14.00">bcovarsetupchem_mod</text>
</a>
</g>
</g>
<!-- bcovarsetupchem_mod&#45;&gt;varnamelist_mod -->
<g id="edge3" class="edge">
<title>bcovarsetupchem_mod&#45;&gt;varnamelist_mod</title>
<path fill="none" stroke="black" d="M152.06,-209.28C159.11,-200.46 166.67,-190.12 172.5,-180 198.37,-135.09 174.42,-102.26 216.5,-72 280.16,-26.23 826.4,-19.95 1003.39,-19.12"/>
<ellipse fill="black" stroke="black" cx="149.35" cy="-212.61" rx="4" ry="4"/>
</g>
<!-- bmatrix1dvar_mod -->
<g id="node5" class="node">
<title>bmatrix1dvar_mod</title>
<g id="a_node5"><a xlink:href="../modules/bmatrix1dvar_mod_rev.svg" xlink:title="bmatrix1dvar_mod">
<polygon fill="none" stroke="blue" points="240,-324 121,-324 121,-288 240,-288 240,-324"/>
<text text-anchor="middle" x="180.5" y="-302.3" font-family="Times,serif" font-size="14.00">bmatrix1dvar_mod</text>
</a>
</g>
</g>
<!-- bmatrix1dvar_mod&#45;&gt;varnamelist_mod -->
<g id="edge4" class="edge">
<title>bmatrix1dvar_mod&#45;&gt;varnamelist_mod</title>
<path fill="none" stroke="black" d="M196.58,-280.96C201.93,-272.14 207.53,-261.89 211.5,-252 242.15,-175.67 191.65,-125.05 254.5,-72 311.49,-23.9 831.43,-19.16 1003.49,-18.92"/>
<ellipse fill="black" stroke="black" cx="194.31" cy="-284.6" rx="4" ry="4"/>
</g>
<!-- bmatrixchem_mod -->
<g id="node6" class="node">
<title>bmatrixchem_mod</title>
<g id="a_node6"><a xlink:href="../modules/bmatrixchem_mod_rev.svg" xlink:title="bmatrixchem_mod">
<polygon fill="none" stroke="blue" points="278,-396 159,-396 159,-360 278,-360 278,-396"/>
<text text-anchor="middle" x="218.5" y="-374.3" font-family="Times,serif" font-size="14.00">bmatrixchem_mod</text>
</a>
</g>
</g>
<!-- bmatrixchem_mod&#45;&gt;varnamelist_mod -->
<g id="edge5" class="edge">
<title>bmatrixchem_mod&#45;&gt;varnamelist_mod</title>
<path fill="none" stroke="black" d="M234.11,-352.93C239.29,-344.11 244.7,-333.87 248.5,-324 263.09,-286.17 268.5,-275.54 268.5,-235 268.5,-235 268.5,-235 268.5,-161 268.5,-120.03 260.86,-98.02 292.5,-72 347.07,-27.12 836.57,-20.23 1003.23,-19.18"/>
<ellipse fill="black" stroke="black" cx="231.92" cy="-356.55" rx="4" ry="4"/>
</g>
<!-- bmatrixdiff_mod -->
<g id="node7" class="node">
<title>bmatrixdiff_mod</title>
<g id="a_node7"><a xlink:href="../modules/bmatrixdiff_mod_rev.svg" xlink:title="bmatrixdiff_mod">
<polygon fill="none" stroke="blue" points="316.5,-468 208.5,-468 208.5,-432 316.5,-432 316.5,-468"/>
<text text-anchor="middle" x="262.5" y="-446.3" font-family="Times,serif" font-size="14.00">bmatrixdiff_mod</text>
</a>
</g>
</g>
<!-- bmatrixdiff_mod&#45;&gt;varnamelist_mod -->
<g id="edge6" class="edge">
<title>bmatrixdiff_mod&#45;&gt;varnamelist_mod</title>
<path fill="none" stroke="black" d="M275.12,-424.3C288.12,-396.52 306.5,-349.7 306.5,-307 306.5,-307 306.5,-307 306.5,-161 306.5,-120.03 298.9,-98.08 330.5,-72 382.02,-29.47 842.64,-21.05 1003.42,-19.4"/>
<ellipse fill="black" stroke="black" cx="273.35" cy="-428" rx="4" ry="4"/>
</g>
<!-- bmatrixensemble_mod -->
<g id="node8" class="node">
<title>bmatrixensemble_mod</title>
<g id="a_node8"><a xlink:href="../modules/bmatrixensemble_mod_rev.svg" xlink:title="bmatrixensemble_mod">
<polygon fill="none" stroke="blue" points="354.5,-540 214.5,-540 214.5,-504 354.5,-504 354.5,-540"/>
<text text-anchor="middle" x="284.5" y="-518.3" font-family="Times,serif" font-size="14.00">bmatrixensemble_mod</text>
</a>
</g>
</g>
<!-- bmatrixensemble_mod&#45;&gt;varnamelist_mod -->
<g id="edge7" class="edge">
<title>bmatrixensemble_mod&#45;&gt;varnamelist_mod</title>
<path fill="none" stroke="black" d="M306.42,-497.39C313.45,-488.7 320.66,-478.43 325.5,-468 342.52,-431.31 344.5,-419.45 344.5,-379 344.5,-379 344.5,-379 344.5,-161 344.5,-120.03 336.96,-98.14 368.5,-72 416.95,-31.85 848.2,-21.92 1003.27,-19.64"/>
<ellipse fill="black" stroke="black" cx="303.69" cy="-500.63" rx="4" ry="4"/>
</g>
<!-- bmatrixhi_mod -->
<g id="node9" class="node">
<title>bmatrixhi_mod</title>
<g id="a_node9"><a xlink:href="../modules/bmatrixhi_mod_rev.svg" xlink:title="bmatrixhi_mod">
<polygon fill="none" stroke="blue" points="432.5,-612 332.5,-612 332.5,-576 432.5,-576 432.5,-612"/>
<text text-anchor="middle" x="382.5" y="-590.3" font-family="Times,serif" font-size="14.00">bmatrixhi_mod</text>
</a>
</g>
</g>
<!-- bmatrixhi_mod&#45;&gt;varnamelist_mod -->
<g id="edge8" class="edge">
<title>bmatrixhi_mod&#45;&gt;varnamelist_mod</title>
<path fill="none" stroke="black" d="M382.5,-567.78C382.5,-539.39 382.5,-491.89 382.5,-451 382.5,-451 382.5,-451 382.5,-161 382.5,-120.64 370.31,-98.79 400.5,-72 445.16,-32.37 853.07,-22.14 1003.29,-19.71"/>
<ellipse fill="black" stroke="black" cx="382.5" cy="-571.95" rx="4" ry="4"/>
</g>
<!-- calcheightandpressure_mod -->
<g id="node10" class="node">
<title>calcheightandpressure_mod</title>
<g id="a_node10"><a xlink:href="../modules/calcheightandpressure_mod_rev.svg" xlink:title="calcheightandpressure_mod">
<polygon fill="none" stroke="blue" points="577,-108 410,-108 410,-72 577,-72 577,-108"/>
<text text-anchor="middle" x="493.5" y="-86.3" font-family="Times,serif" font-size="14.00">calcheightandpressure_mod</text>
</a>
</g>
</g>
<!-- calcheightandpressure_mod&#45;&gt;varnamelist_mod -->
<g id="edge9" class="edge">
<title>calcheightandpressure_mod&#45;&gt;varnamelist_mod</title>
<path fill="none" stroke="black" d="M585.09,-72.79C586.91,-72.52 588.71,-72.26 590.5,-72 739.21,-50.57 915.56,-32.6 1003.25,-24.16"/>
<ellipse fill="black" stroke="black" cx="581" cy="-73.42" rx="4" ry="4"/>
</g>
<!-- calcstatsglb_mod -->
<g id="node11" class="node">
<title>calcstatsglb_mod</title>
<g id="a_node11"><a xlink:href="../modules/calcstatsglb_mod_rev.svg" xlink:title="calcstatsglb_mod">
<polygon fill="none" stroke="blue" points="614.5,-180 504.5,-180 504.5,-144 614.5,-144 614.5,-180"/>
<text text-anchor="middle" x="559.5" y="-158.3" font-family="Times,serif" font-size="14.00">calcstatsglb_mod</text>
</a>
</g>
</g>
<!-- calcstatsglb_mod&#45;&gt;varnamelist_mod -->
<g id="edge10" class="edge">
<title>calcstatsglb_mod&#45;&gt;varnamelist_mod</title>
<path fill="none" stroke="black" d="M571.35,-136.63C582.88,-115.76 602.46,-86.8 628.5,-72 691.35,-36.26 902.31,-24.31 1003.48,-20.57"/>
<ellipse fill="black" stroke="black" cx="569.35" cy="-140.38" rx="4" ry="4"/>
</g>
<!-- calcstatslam_mod -->
<g id="node12" class="node">
<title>calcstatslam_mod</title>
<g id="a_node12"><a xlink:href="../modules/calcstatslam_mod_rev.svg" xlink:title="calcstatslam_mod">
<polygon fill="none" stroke="blue" points="652,-252 539,-252 539,-216 652,-216 652,-252"/>
<text text-anchor="middle" x="595.5" y="-230.3" font-family="Times,serif" font-size="14.00">calcstatslam_mod</text>
</a>
</g>
</g>
<!-- calcstatslam_mod&#45;&gt;varnamelist_mod -->
<g id="edge11" class="edge">
<title>calcstatslam_mod&#45;&gt;varnamelist_mod</title>
<path fill="none" stroke="black" d="M609.16,-208.47C613.91,-199.6 619.14,-189.45 623.5,-180 645.15,-133.09 625.78,-103.8 666.5,-72 717.78,-31.94 907.94,-22.15 1003.27,-19.76"/>
<ellipse fill="black" stroke="black" cx="607.22" cy="-212.05" rx="4" ry="4"/>
</g>
<!-- columndata_mod -->
<g id="node13" class="node">
<title>columndata_mod</title>
<g id="a_node13"><a xlink:href="../modules/columndata_mod_rev.svg" xlink:title="columndata_mod">
<polygon fill="none" stroke="blue" points="690,-324 579,-324 579,-288 690,-288 690,-324"/>
<text text-anchor="middle" x="634.5" y="-302.3" font-family="Times,serif" font-size="14.00">columndata_mod</text>
</a>
</g>
</g>
<!-- columndata_mod&#45;&gt;varnamelist_mod -->
<g id="edge12" class="edge">
<title>columndata_mod&#45;&gt;varnamelist_mod</title>
<path fill="none" stroke="black" d="M647.94,-280.41C652.37,-271.63 657.04,-261.54 660.5,-252 688.58,-174.58 643.67,-127.52 704.5,-72 747.19,-33.04 914.72,-22.71 1003.15,-19.98"/>
<ellipse fill="black" stroke="black" cx="645.98" cy="-284.2" rx="4" ry="4"/>
</g>
<!-- enkf_mod -->
<g id="node14" class="node">
<title>enkf_mod</title>
<g id="a_node14"><a xlink:href="../modules/enkf_mod_rev.svg" xlink:title="enkf_mod">
<polygon fill="none" stroke="blue" points="728,-396 655,-396 655,-360 728,-360 728,-396"/>
<text text-anchor="middle" x="691.5" y="-374.3" font-family="Times,serif" font-size="14.00">enkf_mod</text>
</a>
</g>
</g>
<!-- enkf_mod&#45;&gt;varnamelist_mod -->
<g id="edge13" class="edge">
<title>enkf_mod&#45;&gt;varnamelist_mod</title>
<path fill="none" stroke="black" d="M699.22,-351.96C707.2,-323.8 718.5,-276.57 718.5,-235 718.5,-235 718.5,-235 718.5,-161 718.5,-120.03 712.16,-99.53 742.5,-72 779.89,-38.08 923.1,-25.62 1003.29,-21.24"/>
<ellipse fill="black" stroke="black" cx="698.08" cy="-355.87" rx="4" ry="4"/>
</g>
<!-- ensemblestatevector_mod -->
<g id="node15" class="node">
<title>ensemblestatevector_mod</title>
<g id="a_node15"><a xlink:href="../modules/ensemblestatevector_mod_rev.svg" xlink:title="ensemblestatevector_mod">
<polygon fill="none" stroke="blue" points="766.5,-468 610.5,-468 610.5,-432 766.5,-432 766.5,-468"/>
<text text-anchor="middle" x="688.5" y="-446.3" font-family="Times,serif" font-size="14.00">ensemblestatevector_mod</text>
</a>
</g>
</g>
<!-- ensemblestatevector_mod&#45;&gt;varnamelist_mod -->
<g id="edge14" class="edge">
<title>ensemblestatevector_mod&#45;&gt;varnamelist_mod</title>
<path fill="none" stroke="black" d="M714.1,-425.99C722.36,-417.33 730.83,-406.92 736.5,-396 755.17,-360.01 756.5,-347.54 756.5,-307 756.5,-307 756.5,-307 756.5,-161 756.5,-120.03 750.47,-99.86 780.5,-72 812.2,-42.59 931.71,-28.57 1003.31,-22.68"/>
<ellipse fill="black" stroke="black" cx="711.27" cy="-428.85" rx="4" ry="4"/>
</g>
<!-- enspostprocess_mod -->
<g id="node16" class="node">
<title>enspostprocess_mod</title>
<g id="a_node16"><a xlink:href="../modules/enspostprocess_mod_rev.svg" xlink:title="enspostprocess_mod">
<polygon fill="none" stroke="blue" points="804.5,-540 676.5,-540 676.5,-504 804.5,-504 804.5,-540"/>
<text text-anchor="middle" x="740.5" y="-518.3" font-family="Times,serif" font-size="14.00">enspostprocess_mod</text>
</a>
</g>
</g>
<!-- enspostprocess_mod&#45;&gt;varnamelist_mod -->
<g id="edge15" class="edge">
<title>enspostprocess_mod&#45;&gt;varnamelist_mod</title>
<path fill="none" stroke="black" d="M759.01,-497.12C765.04,-488.36 771.26,-478.11 775.5,-468 791.14,-430.7 794.5,-419.45 794.5,-379 794.5,-379 794.5,-379 794.5,-161 794.5,-120.03 788.87,-100.29 818.5,-72 844.61,-47.06 941.1,-31.93 1003.5,-24.54"/>
<ellipse fill="black" stroke="black" cx="756.57" cy="-500.53" rx="4" ry="4"/>
</g>
<!-- gridstatevectorfileio_mod -->
<g id="node17" class="node">
<title>gridstatevectorfileio_mod</title>
<g id="a_node17"><a xlink:href="../modules/gridstatevectorfileio_mod_rev.svg" xlink:title="gridstatevectorfileio_mod">
<polygon fill="none" stroke="blue" points="910,-612 755,-612 755,-576 910,-576 910,-612"/>
<text text-anchor="middle" x="832.5" y="-590.3" font-family="Times,serif" font-size="14.00">gridstatevectorfileio_mod</text>
</a>
</g>
</g>
<!-- gridstatevectorfileio_mod&#45;&gt;varnamelist_mod -->
<g id="edge16" class="edge">
<title>gridstatevectorfileio_mod&#45;&gt;varnamelist_mod</title>
<path fill="none" stroke="black" d="M832.5,-567.78C832.5,-539.39 832.5,-491.89 832.5,-451 832.5,-451 832.5,-451 832.5,-161 832.5,-120.36 825.07,-101.04 853.5,-72 874.2,-50.85 949.95,-35.34 1003.31,-26.74"/>
<ellipse fill="black" stroke="black" cx="832.5" cy="-571.95" rx="4" ry="4"/>
</g>
<!-- gridstatevector_mod -->
<g id="node18" class="node">
<title>gridstatevector_mod</title>
<g id="a_node18"><a xlink:href="../modules/gridstatevector_mod_rev.svg" xlink:title="gridstatevector_mod">
<polygon fill="none" stroke="blue" points="990,-108 863,-108 863,-72 990,-72 990,-108"/>
<text text-anchor="middle" x="926.5" y="-86.3" font-family="Times,serif" font-size="14.00">gridstatevector_mod</text>
</a>
</g>
</g>
<!-- gridstatevector_mod&#45;&gt;varnamelist_mod -->
<g id="edge17" class="edge">
<title>gridstatevector_mod&#45;&gt;varnamelist_mod</title>
<path fill="none" stroke="black" d="M965.95,-68.08C985.14,-57.9 1007.93,-45.82 1026.09,-36.19"/>
<ellipse fill="black" stroke="black" cx="962.32" cy="-70" rx="4" ry="4"/>
</g>
<!-- gridvariabletransforms_mod -->
<g id="node19" class="node">
<title>gridvariabletransforms_mod</title>
<g id="a_node19"><a xlink:href="../modules/gridvariabletransforms_mod_rev.svg" xlink:title="gridvariabletransforms_mod">
<polygon fill="none" stroke="blue" points="1030.5,-180 860.5,-180 860.5,-144 1030.5,-144 1030.5,-180"/>
<text text-anchor="middle" x="945.5" y="-158.3" font-family="Times,serif" font-size="14.00">gridvariabletransforms_mod</text>
</a>
</g>
</g>
<!-- gridvariabletransforms_mod&#45;&gt;varnamelist_mod -->
<g id="edge18" class="edge">
<title>gridvariabletransforms_mod&#45;&gt;varnamelist_mod</title>
<path fill="none" stroke="black" d="M970.21,-138.23C979.5,-129.19 989.88,-118.46 998.5,-108 1017.94,-84.42 1037.09,-54.52 1048.35,-36.08"/>
<ellipse fill="black" stroke="black" cx="967.19" cy="-141.13" rx="4" ry="4"/>
</g>
<!-- horizontalcoord_mod -->
<g id="node20" class="node">
<title>horizontalcoord_mod</title>
<g id="a_node20"><a xlink:href="../modules/horizontalcoord_mod_rev.svg" xlink:title="horizontalcoord_mod">
<polygon fill="none" stroke="blue" points="1068,-252 935,-252 935,-216 1068,-216 1068,-252"/>
<text text-anchor="middle" x="1001.5" y="-230.3" font-family="Times,serif" font-size="14.00">horizontalcoord_mod</text>
</a>
</g>
</g>
<!-- horizontalcoord_mod&#45;&gt;varnamelist_mod -->
<g id="edge19" class="edge">
<title>horizontalcoord_mod&#45;&gt;varnamelist_mod</title>
<path fill="none" stroke="black" d="M1022.31,-209.39C1028.87,-200.71 1035.46,-190.43 1039.5,-180 1058.72,-130.4 1059.92,-66.28 1059.23,-36.12"/>
<ellipse fill="black" stroke="black" cx="1019.82" cy="-212.56" rx="4" ry="4"/>
</g>
<!-- humiditylimits_mod -->
<g id="node21" class="node">
<title>humiditylimits_mod</title>
<g id="a_node21"><a xlink:href="../modules/humiditylimits_mod_rev.svg" xlink:title="humiditylimits_mod">
<polygon fill="none" stroke="blue" points="1106.5,-324 978.5,-324 978.5,-288 1106.5,-288 1106.5,-324"/>
<text text-anchor="middle" x="1042.5" y="-302.3" font-family="Times,serif" font-size="14.00">humiditylimits_mod</text>
</a>
</g>
</g>
<!-- humiditylimits_mod&#45;&gt;varnamelist_mod -->
<g id="edge20" class="edge">
<title>humiditylimits_mod&#45;&gt;varnamelist_mod</title>
<path fill="none" stroke="black" d="M1061.95,-281.06C1067.82,-272.42 1073.49,-262.26 1076.5,-252 1099.39,-173.94 1075.38,-75.23 1063.9,-36.1"/>
<ellipse fill="black" stroke="black" cx="1059.58" cy="-284.38" rx="4" ry="4"/>
</g>
<!-- increment_mod -->
<g id="node22" class="node">
<title>increment_mod</title>
<g id="a_node22"><a xlink:href="../modules/increment_mod_rev.svg" xlink:title="increment_mod">
<polygon fill="none" stroke="blue" points="1144,-396 1043,-396 1043,-360 1144,-360 1144,-396"/>
<text text-anchor="middle" x="1093.5" y="-374.3" font-family="Times,serif" font-size="14.00">increment_mod</text>
</a>
</g>
</g>
<!-- increment_mod&#45;&gt;varnamelist_mod -->
<g id="edge21" class="edge">
<title>increment_mod&#45;&gt;varnamelist_mod</title>
<path fill="none" stroke="black" d="M1105.06,-352.66C1117.19,-324.86 1134.5,-277.69 1134.5,-235 1134.5,-235 1134.5,-235 1134.5,-161 1134.5,-110.95 1097.34,-61.47 1074.99,-36.23"/>
<ellipse fill="black" stroke="black" cx="1103.43" cy="-356.32" rx="4" ry="4"/>
</g>
<!-- innovation_mod -->
<g id="node23" class="node">
<title>innovation_mod</title>
<g id="a_node23"><a xlink:href="../modules/innovation_mod_rev.svg" xlink:title="innovation_mod">
<polygon fill="none" stroke="blue" points="1182.5,-468 1078.5,-468 1078.5,-432 1182.5,-432 1182.5,-468"/>
<text text-anchor="middle" x="1130.5" y="-446.3" font-family="Times,serif" font-size="14.00">innovation_mod</text>
</a>
</g>
</g>
<!-- innovation_mod&#45;&gt;varnamelist_mod -->
<g id="edge22" class="edge">
<title>innovation_mod&#45;&gt;varnamelist_mod</title>
<path fill="none" stroke="black" d="M1142.34,-424.69C1154.76,-396.92 1172.5,-349.77 1172.5,-307 1172.5,-307 1172.5,-307 1172.5,-161 1172.5,-105.67 1119.23,-59.63 1085.52,-36.04"/>
<ellipse fill="black" stroke="black" cx="1140.66" cy="-428.36" rx="4" ry="4"/>
</g>
<!-- interpolation_mod -->
<g id="node24" class="node">
<title>interpolation_mod</title>
<g id="a_node24"><a xlink:href="../modules/interpolation_mod_rev.svg" xlink:title="interpolation_mod">
<polygon fill="none" stroke="blue" points="1220.5,-540 1104.5,-540 1104.5,-504 1220.5,-504 1220.5,-540"/>
<text text-anchor="middle" x="1162.5" y="-518.3" font-family="Times,serif" font-size="14.00">interpolation_mod</text>
</a>
</g>
</g>
<!-- interpolation_mod&#45;&gt;varnamelist_mod -->
<g id="edge23" class="edge">
<title>interpolation_mod&#45;&gt;varnamelist_mod</title>
<path fill="none" stroke="black" d="M1177.62,-496.9C1182.63,-488.07 1187.85,-477.83 1191.5,-468 1205.58,-430.08 1210.5,-419.45 1210.5,-379 1210.5,-379 1210.5,-379 1210.5,-161 1210.5,-100.15 1144.65,-57.88 1099.63,-36.1"/>
<ellipse fill="black" stroke="black" cx="1175.52" cy="-500.49" rx="4" ry="4"/>
</g>
<!-- lambmatrixhi_mod -->
<g id="node25" class="node">
<title>lambmatrixhi_mod</title>
<g id="a_node25"><a xlink:href="../modules/lambmatrixhi_mod_rev.svg" xlink:title="lambmatrixhi_mod">
<polygon fill="none" stroke="blue" points="1308.5,-612 1188.5,-612 1188.5,-576 1308.5,-576 1308.5,-612"/>
<text text-anchor="middle" x="1248.5" y="-590.3" font-family="Times,serif" font-size="14.00">lambmatrixhi_mod</text>
</a>
</g>
</g>
<!-- lambmatrixhi_mod&#45;&gt;varnamelist_mod -->
<g id="edge24" class="edge">
<title>lambmatrixhi_mod&#45;&gt;varnamelist_mod</title>
<path fill="none" stroke="black" d="M1248.5,-567.78C1248.5,-539.39 1248.5,-491.89 1248.5,-451 1248.5,-451 1248.5,-451 1248.5,-161 1248.5,-93.15 1169.81,-53.82 1113.71,-34.4"/>
<ellipse fill="black" stroke="black" cx="1248.5" cy="-571.95" rx="4" ry="4"/>
</g>
<!-- menetrierdiag_mod -->
<g id="node26" class="node">
<title>menetrierdiag_mod</title>
<g id="a_node26"><a xlink:href="../modules/menetrierdiag_mod_rev.svg" xlink:title="menetrierdiag_mod">
<polygon fill="none" stroke="blue" points="1398.5,-108 1276.5,-108 1276.5,-72 1398.5,-72 1398.5,-108"/>
<text text-anchor="middle" x="1337.5" y="-86.3" font-family="Times,serif" font-size="14.00">menetrierdiag_mod</text>
</a>
</g>
</g>
<!-- menetrierdiag_mod&#45;&gt;varnamelist_mod -->
<g id="edge25" class="edge">
<title>menetrierdiag_mod&#45;&gt;varnamelist_mod</title>
<path fill="none" stroke="black" d="M1268.46,-71.68C1220.81,-59.72 1158.3,-44.04 1113.91,-32.9"/>
<ellipse fill="black" stroke="black" cx="1272.39" cy="-72.66" rx="4" ry="4"/>
</g>
<!-- obserrors_mod -->
<g id="node27" class="node">
<title>obserrors_mod</title>
<g id="a_node27"><a xlink:href="../modules/obserrors_mod_rev.svg" xlink:title="obserrors_mod">
<polygon fill="none" stroke="blue" points="1436.5,-180 1338.5,-180 1338.5,-144 1436.5,-144 1436.5,-180"/>
<text text-anchor="middle" x="1387.5" y="-158.3" font-family="Times,serif" font-size="14.00">obserrors_mod</text>
</a>
</g>
</g>
<!-- obserrors_mod&#45;&gt;varnamelist_mod -->
<g id="edge26" class="edge">
<title>obserrors_mod&#45;&gt;varnamelist_mod</title>
<path fill="none" stroke="black" d="M1403.13,-136.72C1413.59,-117.1 1422.88,-89.89 1407.5,-72 1370.3,-28.72 1202.5,-20.36 1113.82,-19.02"/>
<ellipse fill="black" stroke="black" cx="1401.08" cy="-140.35" rx="4" ry="4"/>
</g>
<!-- obsfilter_mod -->
<g id="node28" class="node">
<title>obsfilter_mod</title>
<g id="a_node28"><a xlink:href="../modules/obsfilter_mod_rev.svg" xlink:title="obsfilter_mod">
<polygon fill="none" stroke="blue" points="1474.5,-252 1382.5,-252 1382.5,-216 1474.5,-216 1474.5,-252"/>
<text text-anchor="middle" x="1428.5" y="-230.3" font-family="Times,serif" font-size="14.00">obsfilter_mod</text>
</a>
</g>
</g>
<!-- obsfilter_mod&#45;&gt;varnamelist_mod -->
<g id="edge27" class="edge">
<title>obsfilter_mod&#45;&gt;varnamelist_mod</title>
<path fill="none" stroke="black" d="M1437.85,-208.2C1449.66,-172.08 1464.24,-105.63 1426.5,-72 1381.32,-31.74 1204.91,-22.02 1113.74,-19.71"/>
<ellipse fill="black" stroke="black" cx="1436.53" cy="-212.07" rx="4" ry="4"/>
</g>
<!-- obsoperatorschem_mod -->
<g id="node29" class="node">
<title>obsoperatorschem_mod</title>
<g id="a_node29"><a xlink:href="../modules/obsoperatorschem_mod_rev.svg" xlink:title="obsoperatorschem_mod">
<polygon fill="none" stroke="blue" points="1512.5,-324 1366.5,-324 1366.5,-288 1512.5,-288 1512.5,-324"/>
<text text-anchor="middle" x="1439.5" y="-302.3" font-family="Times,serif" font-size="14.00">obsoperatorschem_mod</text>
</a>
</g>
</g>
<!-- obsoperatorschem_mod&#45;&gt;varnamelist_mod -->
<g id="edge28" class="edge">
<title>obsoperatorschem_mod&#45;&gt;varnamelist_mod</title>
<path fill="none" stroke="black" d="M1464.51,-282C1472.11,-273.41 1479.51,-263.04 1483.5,-252 1503.35,-197 1486.71,-104.35 1451.5,-72 1403.34,-27.75 1210.19,-19.99 1113.79,-18.93"/>
<ellipse fill="black" stroke="black" cx="1461.7" cy="-284.99" rx="4" ry="4"/>
</g>
<!-- obsoperators_mod -->
<g id="node30" class="node">
<title>obsoperators_mod</title>
<g id="a_node30"><a xlink:href="../modules/obsoperators_mod_rev.svg" xlink:title="obsoperators_mod">
<polygon fill="none" stroke="blue" points="1550.5,-396 1434.5,-396 1434.5,-360 1550.5,-360 1550.5,-396"/>
<text text-anchor="middle" x="1492.5" y="-374.3" font-family="Times,serif" font-size="14.00">obsoperators_mod</text>
</a>
</g>
</g>
<!-- obsoperators_mod&#45;&gt;varnamelist_mod -->
<g id="edge29" class="edge">
<title>obsoperators_mod&#45;&gt;varnamelist_mod</title>
<path fill="none" stroke="black" d="M1507.62,-352.9C1512.63,-344.07 1517.85,-333.83 1521.5,-324 1535.58,-286.08 1540.5,-275.45 1540.5,-235 1540.5,-235 1540.5,-235 1540.5,-161 1540.5,-112.54 1519.06,-96.93 1477.5,-72 1417.37,-35.93 1213.23,-24.17 1113.82,-20.53"/>
<ellipse fill="black" stroke="black" cx="1505.52" cy="-356.49" rx="4" ry="4"/>
</g>
<!-- obsspacediag_mod -->
<g id="node31" class="node">
<title>obsspacediag_mod</title>
<g id="a_node31"><a xlink:href="../modules/obsspacediag_mod_rev.svg" xlink:title="obsspacediag_mod">
<polygon fill="none" stroke="blue" points="1588,-468 1469,-468 1469,-432 1588,-432 1588,-468"/>
<text text-anchor="middle" x="1528.5" y="-446.3" font-family="Times,serif" font-size="14.00">obsspacediag_mod</text>
</a>
</g>
</g>
<!-- obsspacediag_mod&#45;&gt;varnamelist_mod -->
<g id="edge30" class="edge">
<title>obsspacediag_mod&#45;&gt;varnamelist_mod</title>
<path fill="none" stroke="black" d="M1544.96,-424.6C1550.25,-415.88 1555.71,-405.78 1559.5,-396 1574.12,-358.29 1578.5,-347.45 1578.5,-307 1578.5,-307 1578.5,-307 1578.5,-161 1578.5,-112.54 1557.19,-96.71 1515.5,-72 1448.77,-32.44 1220.18,-22.4 1113.79,-19.86"/>
<ellipse fill="black" stroke="black" cx="1542.73" cy="-428.18" rx="4" ry="4"/>
</g>
<!-- obsspaceerrorstddev_mod -->
<g id="node32" class="node">
<title>obsspaceerrorstddev_mod</title>
<g id="a_node32"><a xlink:href="../modules/obsspaceerrorstddev_mod_rev.svg" xlink:title="obsspaceerrorstddev_mod">
<polygon fill="none" stroke="blue" points="1626,-540 1469,-540 1469,-504 1626,-504 1626,-540"/>
<text text-anchor="middle" x="1547.5" y="-518.3" font-family="Times,serif" font-size="14.00">obsspaceerrorstddev_mod</text>
</a>
</g>
</g>
<!-- obsspaceerrorstddev_mod&#45;&gt;varnamelist_mod -->
<g id="edge31" class="edge">
<title>obsspaceerrorstddev_mod&#45;&gt;varnamelist_mod</title>
<path fill="none" stroke="black" d="M1573.64,-498.07C1582.07,-489.42 1590.72,-479 1596.5,-468 1615.35,-432.11 1616.5,-419.54 1616.5,-379 1616.5,-379 1616.5,-379 1616.5,-161 1616.5,-112.54 1595.3,-96.53 1553.5,-72 1480.08,-28.91 1226.53,-20.75 1113.56,-19.28"/>
<ellipse fill="black" stroke="black" cx="1570.73" cy="-500.95" rx="4" ry="4"/>
</g>
<!-- statetocolumn_mod -->
<g id="node33" class="node">
<title>statetocolumn_mod</title>
<g id="a_node33"><a xlink:href="../modules/statetocolumn_mod_rev.svg" xlink:title="statetocolumn_mod">
<polygon fill="none" stroke="blue" points="1716.5,-612 1592.5,-612 1592.5,-576 1716.5,-576 1716.5,-612"/>
<text text-anchor="middle" x="1654.5" y="-590.3" font-family="Times,serif" font-size="14.00">statetocolumn_mod</text>
</a>
</g>
</g>
<!-- statetocolumn_mod&#45;&gt;varnamelist_mod -->
<g id="edge32" class="edge">
<title>statetocolumn_mod&#45;&gt;varnamelist_mod</title>
<path fill="none" stroke="black" d="M1654.5,-567.78C1654.5,-539.39 1654.5,-491.89 1654.5,-451 1654.5,-451 1654.5,-451 1654.5,-161 1654.5,-112.54 1633.39,-96.37 1591.5,-72 1511.43,-25.41 1233.12,-19.24 1113.66,-18.79"/>
<ellipse fill="black" stroke="black" cx="1654.5" cy="-571.95" rx="4" ry="4"/>
</g>
<!-- timecoord_mod -->
<g id="node34" class="node">
<title>timecoord_mod</title>
<g id="a_node34"><a xlink:href="../modules/timecoord_mod_rev.svg" xlink:title="timecoord_mod">
<polygon fill="none" stroke="blue" points="1784.5,-108 1682.5,-108 1682.5,-72 1784.5,-72 1784.5,-108"/>
<text text-anchor="middle" x="1733.5" y="-86.3" font-family="Times,serif" font-size="14.00">timecoord_mod</text>
</a>
</g>
</g>
<!-- timecoord_mod&#45;&gt;varnamelist_mod -->
<g id="edge33" class="edge">
<title>timecoord_mod&#45;&gt;varnamelist_mod</title>
<path fill="none" stroke="black" d="M1674.02,-73.02C1672.17,-72.66 1670.32,-72.31 1668.5,-72 1465.81,-36.95 1221.03,-24.61 1113.58,-20.67"/>
<ellipse fill="black" stroke="black" cx="1678.31" cy="-73.92" rx="4" ry="4"/>
</g>
<!-- varqc_mod -->
<g id="node35" class="node">
<title>varqc_mod</title>
<g id="a_node35"><a xlink:href="../modules/varqc_mod_rev.svg" xlink:title="varqc_mod">
<polygon fill="none" stroke="blue" points="1822,-180 1745,-180 1745,-144 1822,-144 1822,-180"/>
<text text-anchor="middle" x="1783.5" y="-158.3" font-family="Times,serif" font-size="14.00">varqc_mod</text>
</a>
</g>
</g>
<!-- varqc_mod&#45;&gt;varnamelist_mod -->
<g id="edge34" class="edge">
<title>varqc_mod&#45;&gt;varnamelist_mod</title>
<path fill="none" stroke="black" d="M1795.52,-136.32C1803.29,-116.4 1809.3,-88.98 1793.5,-72 1747.45,-22.51 1276.36,-18.61 1113.52,-18.76"/>
<ellipse fill="black" stroke="black" cx="1793.93" cy="-140.13" rx="4" ry="4"/>
</g>
<!-- verticalcoord_mod -->
<g id="node36" class="node">
<title>verticalcoord_mod</title>
<g id="a_node36"><a xlink:href="../modules/verticalcoord_mod_rev.svg" xlink:title="verticalcoord_mod">
<polygon fill="none" stroke="blue" points="1884.5,-252 1766.5,-252 1766.5,-216 1884.5,-216 1884.5,-252"/>
<text text-anchor="middle" x="1825.5" y="-230.3" font-family="Times,serif" font-size="14.00">verticalcoord_mod</text>
</a>
</g>
</g>
<!-- verticalcoord_mod&#45;&gt;varnamelist_mod -->
<g id="edge35" class="edge">
<title>verticalcoord_mod&#45;&gt;varnamelist_mod</title>
<path fill="none" stroke="black" d="M1832.89,-207.75C1841.83,-171.25 1851.28,-104.54 1812.5,-72 1759.28,-27.35 1278.23,-20.3 1113.52,-19.2"/>
<ellipse fill="black" stroke="black" cx="1831.78" cy="-212.05" rx="4" ry="4"/>
</g>
<!-- midas_midas_diagbmatrix -->
<g id="node37" class="node">
<title>midas_midas_diagbmatrix</title>
<g id="a_node37"><a xlink:href="../programs/midas_diagbmatrix.html" xlink:title="midas_midas_diagbmatrix">
<polygon fill="gray" stroke="green" points="1993,-324 1832,-324 1832,-288 1993,-288 1993,-324"/>
<text text-anchor="middle" x="1912.5" y="-302.3" font-family="Times,serif" font-size="14.00">midas_midas_diagbmatrix</text>
</a>
</g>
</g>
<!-- midas_midas_diagbmatrix&#45;&gt;varnamelist_mod -->
<g id="edge36" class="edge">
<title>midas_midas_diagbmatrix&#45;&gt;varnamelist_mod</title>
<path fill="none" stroke="black" d="M1913.23,-279.49C1913.09,-229.9 1904.81,-121.05 1838.5,-72 1780.56,-29.14 1281.94,-20.92 1113.69,-19.36"/>
<ellipse fill="black" stroke="black" cx="1913.2" cy="-283.76" rx="4" ry="4"/>
</g>
<!-- midas_midas_extractbmatrixfor1dvar -->
<g id="node38" class="node">
<title>midas_midas_extractbmatrixfor1dvar</title>
<g id="a_node38"><a xlink:href="../programs/midas_extractbmatrixfor1dvar.html" xlink:title="midas_midas_extractbmatrixfor1dvar">
<polygon fill="gray" stroke="green" points="2132,-396 1911,-396 1911,-360 2132,-360 2132,-396"/>
<text text-anchor="middle" x="2021.5" y="-374.3" font-family="Times,serif" font-size="14.00">midas_midas_extractbmatrixfor1dvar</text>
</a>
</g>
</g>
<!-- midas_midas_extractbmatrixfor1dvar&#45;&gt;varnamelist_mod -->
<g id="edge37" class="edge">
<title>midas_midas_extractbmatrixfor1dvar&#45;&gt;varnamelist_mod</title>
<path fill="none" stroke="black" d="M2021.5,-351.78C2021.5,-323.39 2021.5,-275.89 2021.5,-235 2021.5,-235 2021.5,-235 2021.5,-161 2021.5,-82.33 1943.74,-94.95 1868.5,-72 1726.88,-28.8 1272.04,-20.81 1113.57,-19.33"/>
<ellipse fill="black" stroke="black" cx="2021.5" cy="-355.95" rx="4" ry="4"/>
</g>
</g>
</svg>
