<?xml version="1.0" encoding="UTF-8" standalone="no"?>
<!DOCTYPE svg PUBLIC "-//W3C//DTD SVG 1.1//EN"
 "http://www.w3.org/Graphics/SVG/1.1/DTD/svg11.dtd">
<!-- Generated by graphviz version 3.0.0 (20220315.2325)
 -->
<!-- Title: varnamelist_mod Pages: 1 -->
<svg width="379pt" height="385pt"
 viewBox="0.00 0.00 379.00 385.00" xmlns="http://www.w3.org/2000/svg" xmlns:xlink="http://www.w3.org/1999/xlink">
<g id="graph0" class="graph" transform="scale(1 1) rotate(0) translate(4 381)">
<title>varnamelist_mod</title>
<polygon fill="white" stroke="transparent" points="-4,4 -4,-381 375,-381 375,4 -4,4"/>
<text text-anchor="middle" x="185.5" y="-37.8" font-family="Times,serif" font-size="14.00">Red boxes indicate modules with dependencies not shown</text>
<text text-anchor="middle" x="185.5" y="-22.8" font-family="Times,serif" font-size="14.00">Lower level dependencies can be shown by clicking on a red box</text>
<text text-anchor="middle" x="185.5" y="-7.8" font-family="Times,serif" font-size="14.00">Shaded boxes indicate modules with no dependencies</text>
<!-- varnamelist_mod -->
<g id="node1" class="node">
<title>varnamelist_mod</title>
<g id="a_node1"><a xlink:href="varnamelist_mod.html" xlink:title="varnamelist_mod">
<polygon fill="none" stroke="black" points="242,-377 132,-377 132,-341 242,-341 242,-377"/>
<text text-anchor="middle" x="187" y="-355.3" font-family="Times,serif" font-size="14.00">varnamelist_mod</text>
</a>
</g>
</g>
<!-- bufr_mod -->
<g id="node2" class="node">
<title>bufr_mod</title>
<g id="a_node2"><a xlink:href="bufr_mod.html" xlink:title="bufr_mod">
<polygon fill="gray" stroke="black" points="108,-305 38,-305 38,-269 108,-269 108,-305"/>
<text text-anchor="middle" x="73" y="-283.3" font-family="Times,serif" font-size="14.00">bufr_mod</text>
</a>
</g>
</g>
<!-- varnamelist_mod&#45;&gt;bufr_mod -->
<g id="edge1" class="edge">
<title>varnamelist_mod&#45;&gt;bufr_mod</title>
<path fill="none" stroke="black" d="M159.11,-340.88C144.21,-331.72 125.67,-320.34 109.62,-310.48"/>
<polygon fill="black" stroke="black" points="111.35,-307.44 100.99,-305.19 107.69,-313.41 111.35,-307.44"/>
</g>
<!-- mathphysconstants_mod -->
<g id="node3" class="node">
<title>mathphysconstants_mod</title>
<g id="a_node3"><a xlink:href="mathphysconstants_mod.html" xlink:title="mathphysconstants_mod">
<polygon fill="gray" stroke="black" points="185,-233 35,-233 35,-197 185,-197 185,-233"/>
<text text-anchor="middle" x="110" y="-211.3" font-family="Times,serif" font-size="14.00">mathphysconstants_mod</text>
</a>
</g>
</g>
<!-- varnamelist_mod&#45;&gt;mathphysconstants_mod -->
<g id="edge2" class="edge">
<title>varnamelist_mod&#45;&gt;mathphysconstants_mod</title>
<path fill="none" stroke="black" d="M177.71,-340.87C164.42,-316.35 139.84,-271.03 124.24,-242.26"/>
<polygon fill="black" stroke="black" points="127.16,-240.31 119.32,-233.19 121.01,-243.65 127.16,-240.31"/>
</g>
<!-- midasmpi_mod -->
<g id="node4" class="node">
<title>midasmpi_mod</title>
<g id="a_node4"><a xlink:href="../modules/midasmpi_mod.svg" xlink:title="midasmpi_mod">
<polygon fill="none" stroke="red" points="263.5,-161 162.5,-161 162.5,-125 263.5,-125 263.5,-161"/>
<text text-anchor="middle" x="213" y="-139.3" font-family="Times,serif" font-size="14.00">midasmpi_mod</text>
</a>
</g>
</g>
<!-- varnamelist_mod&#45;&gt;midasmpi_mod -->
<g id="edge3" class="edge">
<title>varnamelist_mod&#45;&gt;midasmpi_mod</title>
<path fill="none" stroke="black" d="M189.08,-340.85C193.58,-303.83 204.23,-216.18 209.67,-171.39"/>
<polygon fill="black" stroke="black" points="213.17,-171.58 210.91,-161.23 206.23,-170.74 213.17,-171.58"/>
</g>
<!-- utilities_mod -->
<g id="node5" class="node">
<title>utilities_mod</title>
<g id="a_node5"><a xlink:href="../modules/utilities_mod.svg" xlink:title="utilities_mod">
<polygon fill="none" stroke="red" points="336,-89 248,-89 248,-53 336,-53 336,-89"/>
<text text-anchor="middle" x="292" y="-67.3" font-family="Times,serif" font-size="14.00">utilities_mod</text>
</a>
</g>
</g>
<!-- varnamelist_mod&#45;&gt;utilities_mod -->
<g id="edge4" class="edge">
<title>varnamelist_mod&#45;&gt;utilities_mod</title>
<path fill="none" stroke="black" d="M195.92,-340.8C213.08,-307.12 250.9,-229.75 273,-161 279.52,-140.73 284.44,-117.13 287.64,-99.33"/>
<polygon fill="black" stroke="black" points="291.11,-99.78 289.36,-89.33 284.21,-98.59 291.11,-99.78"/>
</g>
</g>
</svg>
