<?xml version="1.0" encoding="UTF-8" standalone="no"?>
<!DOCTYPE svg PUBLIC "-//W3C//DTD SVG 1.1//EN"
 "http://www.w3.org/Graphics/SVG/1.1/DTD/svg11.dtd">
<!-- Generated by graphviz version 3.0.0 (20220315.2325)
 -->
<!-- Title: varqc_mod Pages: 1 -->
<svg width="430pt" height="313pt"
 viewBox="0.00 0.00 430.00 313.00" xmlns="http://www.w3.org/2000/svg" xmlns:xlink="http://www.w3.org/1999/xlink">
<g id="graph0" class="graph" transform="scale(1 1) rotate(0) translate(4 309)">
<title>varqc_mod</title>
<polygon fill="white" stroke="transparent" points="-4,4 -4,-309 426,-309 426,4 -4,4"/>
<text text-anchor="middle" x="211" y="-289.8" font-family="Times,serif" font-size="14.00">Blue boxes indicate modules with reverse dependencies not shown</text>
<text text-anchor="middle" x="211" y="-274.8" font-family="Times,serif" font-size="14.00">Higher level reverse dependencies can be shown by clicking on a blue box</text>
<text text-anchor="middle" x="211" y="-259.8" font-family="Times,serif" font-size="14.00">Green boxes are programs</text>
<!-- varqc_mod -->
<g id="node1" class="node">
<title>varqc_mod</title>
<g id="a_node1"><a xlink:href="varqc_mod.html" xlink:title="varqc_mod">
<polygon fill="none" stroke="black" points="242.75,-36 165.75,-36 165.75,0 242.75,0 242.75,-36"/>
<text text-anchor="middle" x="204.25" y="-14.3" font-family="Times,serif" font-size="14.00">varqc_mod</text>
</a>
</g>
</g>
<!-- innovation_mod -->
<g id="node2" class="node">
<title>innovation_mod</title>
<g id="a_node2"><a xlink:href="../modules/innovation_mod_rev.svg" xlink:title="innovation_mod">
<polygon fill="none" stroke="blue" points="176.25,-108 72.25,-108 72.25,-72 176.25,-72 176.25,-108"/>
<text text-anchor="middle" x="124.25" y="-86.3" font-family="Times,serif" font-size="14.00">innovation_mod</text>
</a>
</g>
</g>
<!-- innovation_mod&#45;&gt;varqc_mod -->
<g id="edge1" class="edge">
<title>innovation_mod&#45;&gt;varqc_mod</title>
<path fill="none" stroke="black" d="M150.07,-66.41C161.31,-56.57 174.28,-45.23 184.7,-36.1"/>
<ellipse fill="black" stroke="black" cx="147.04" cy="-69.06" rx="4" ry="4"/>
</g>
<!-- minimization_mod -->
<g id="node3" class="node">
<title>minimization_mod</title>
<g id="a_node3"><a xlink:href="../modules/minimization_mod_rev.svg" xlink:title="minimization_mod">
<polygon fill="none" stroke="blue" points="264.75,-180 143.75,-180 143.75,-144 264.75,-144 264.75,-180"/>
<text text-anchor="middle" x="204.25" y="-158.3" font-family="Times,serif" font-size="14.00">minimization_mod</text>
</a>
</g>
</g>
<!-- minimization_mod&#45;&gt;varqc_mod -->
<g id="edge2" class="edge">
<title>minimization_mod&#45;&gt;varqc_mod</title>
<path fill="none" stroke="black" d="M204.25,-135.56C204.25,-106.86 204.25,-60.96 204.25,-36.19"/>
<ellipse fill="black" stroke="black" cx="204.25" cy="-139.87" rx="4" ry="4"/>
</g>
<!-- midas_midas_var -->
<g id="node4" class="node">
<title>midas_midas_var</title>
<g id="a_node4"><a xlink:href="../programs/midas_var.html" xlink:title="midas_midas_var">
<polygon fill="gray" stroke="green" points="349.75,-252 236.75,-252 236.75,-216 349.75,-216 349.75,-252"/>
<text text-anchor="middle" x="293.25" y="-230.3" font-family="Times,serif" font-size="14.00">midas_midas_var</text>
</a>
</g>
</g>
<!-- midas_midas_var&#45;&gt;varqc_mod -->
<g id="edge3" class="edge">
<title>midas_midas_var&#45;&gt;varqc_mod</title>
<path fill="none" stroke="black" d="M289.5,-207.54C286.37,-189.43 281.12,-164.74 273.25,-144 257.77,-103.21 230.96,-59.43 215.72,-36.04"/>
<ellipse fill="black" stroke="black" cx="290.22" cy="-211.91" rx="4" ry="4"/>
</g>
</g>
</svg>
