<?xml version="1.0" encoding="UTF-8" standalone="no"?>
<!DOCTYPE svg PUBLIC "-//W3C//DTD SVG 1.1//EN"
 "http://www.w3.org/Graphics/SVG/1.1/DTD/svg11.dtd">
<!-- Generated by graphviz version 3.0.0 (20220315.2325)
 -->
<!-- Title: varqc_mod Pages: 1 -->
<svg width="513pt" height="673pt"
 viewBox="0.00 0.00 513.00 673.00" xmlns="http://www.w3.org/2000/svg" xmlns:xlink="http://www.w3.org/1999/xlink">
<g id="graph0" class="graph" transform="scale(1 1) rotate(0) translate(4 669)">
<title>varqc_mod</title>
<polygon fill="white" stroke="transparent" points="-4,4 -4,-669 509,-669 509,4 -4,4"/>
<text text-anchor="middle" x="252.5" y="-37.8" font-family="Times,serif" font-size="14.00">Red boxes indicate modules with dependencies not shown</text>
<text text-anchor="middle" x="252.5" y="-22.8" font-family="Times,serif" font-size="14.00">Lower level dependencies can be shown by clicking on a red box</text>
<text text-anchor="middle" x="252.5" y="-7.8" font-family="Times,serif" font-size="14.00">Shaded boxes indicate modules with no dependencies</text>
<!-- varqc_mod -->
<g id="node1" class="node">
<title>varqc_mod</title>
<g id="a_node1"><a xlink:href="varqc_mod.html" xlink:title="varqc_mod">
<polygon fill="none" stroke="black" points="266.5,-665 189.5,-665 189.5,-629 266.5,-629 266.5,-665"/>
<text text-anchor="middle" x="228" y="-643.3" font-family="Times,serif" font-size="14.00">varqc_mod</text>
</a>
</g>
</g>
<!-- bufr_mod -->
<g id="node2" class="node">
<title>bufr_mod</title>
<g id="a_node2"><a xlink:href="bufr_mod.html" xlink:title="bufr_mod">
<polygon fill="gray" stroke="black" points="70,-593 0,-593 0,-557 70,-557 70,-593"/>
<text text-anchor="middle" x="35" y="-571.3" font-family="Times,serif" font-size="14.00">bufr_mod</text>
</a>
</g>
</g>
<!-- varqc_mod&#45;&gt;bufr_mod -->
<g id="edge1" class="edge">
<title>varqc_mod&#45;&gt;bufr_mod</title>
<path fill="none" stroke="black" d="M189.41,-632C157.77,-620.53 112.95,-604.27 79.75,-592.23"/>
<polygon fill="black" stroke="black" points="80.87,-588.91 70.28,-588.79 78.48,-595.49 80.87,-588.91"/>
</g>
<!-- codtyp_mod -->
<g id="node3" class="node">
<title>codtyp_mod</title>
<g id="a_node3"><a xlink:href="../modules/codtyp_mod.svg" xlink:title="codtyp_mod">
<polygon fill="none" stroke="red" points="124,-521 40,-521 40,-485 124,-485 124,-521"/>
<text text-anchor="middle" x="82" y="-499.3" font-family="Times,serif" font-size="14.00">codtyp_mod</text>
</a>
</g>
</g>
<!-- varqc_mod&#45;&gt;codtyp_mod -->
<g id="edge2" class="edge">
<title>varqc_mod&#45;&gt;codtyp_mod</title>
<path fill="none" stroke="black" d="M190.23,-628.93C172.98,-619.91 153.09,-607.65 138,-593 119.29,-574.83 104.02,-549.22 94.18,-530.14"/>
<polygon fill="black" stroke="black" points="97.26,-528.48 89.67,-521.09 91,-531.6 97.26,-528.48"/>
</g>
<!-- columndata_mod -->
<g id="node4" class="node">
<title>columndata_mod</title>
<g id="a_node4"><a xlink:href="../modules/columndata_mod.svg" xlink:title="columndata_mod">
<polygon fill="none" stroke="red" points="161.5,-449 50.5,-449 50.5,-413 161.5,-413 161.5,-449"/>
<text text-anchor="middle" x="106" y="-427.3" font-family="Times,serif" font-size="14.00">columndata_mod</text>
</a>
</g>
</g>
<!-- varqc_mod&#45;&gt;columndata_mod -->
<g id="edge3" class="edge">
<title>varqc_mod&#45;&gt;columndata_mod</title>
<path fill="none" stroke="black" d="M207.74,-628.94C197.2,-619.25 184.72,-606.39 176,-593 147.8,-549.71 154.3,-532.07 133,-485 129.04,-476.25 124.39,-466.86 120.08,-458.46"/>
<polygon fill="black" stroke="black" points="123.13,-456.73 115.41,-449.47 116.92,-459.96 123.13,-456.73"/>
</g>
<!-- earthconstants_mod -->
<g id="node5" class="node">
<title>earthconstants_mod</title>
<g id="a_node5"><a xlink:href="../modules/earthconstants_mod.svg" xlink:title="earthconstants_mod">
<polygon fill="none" stroke="red" points="199.5,-377 74.5,-377 74.5,-341 199.5,-341 199.5,-377"/>
<text text-anchor="middle" x="137" y="-355.3" font-family="Times,serif" font-size="14.00">earthconstants_mod</text>
</a>
</g>
</g>
<!-- varqc_mod&#45;&gt;earthconstants_mod -->
<g id="edge4" class="edge">
<title>varqc_mod&#45;&gt;earthconstants_mod</title>
<path fill="none" stroke="black" d="M223.38,-628.84C220.61,-618.47 217.05,-604.99 214,-593 193.7,-513.18 201.94,-488.91 170,-413 166.11,-403.76 160.72,-394.27 155.42,-385.92"/>
<polygon fill="black" stroke="black" points="158.22,-383.8 149.79,-377.38 152.37,-387.66 158.22,-383.8"/>
</g>
<!-- mathphysconstants_mod -->
<g id="node6" class="node">
<title>mathphysconstants_mod</title>
<g id="a_node6"><a xlink:href="mathphysconstants_mod.html" xlink:title="mathphysconstants_mod">
<polygon fill="gray" stroke="black" points="238,-305 88,-305 88,-269 238,-269 238,-305"/>
<text text-anchor="middle" x="163" y="-283.3" font-family="Times,serif" font-size="14.00">mathphysconstants_mod</text>
</a>
</g>
</g>
<!-- varqc_mod&#45;&gt;mathphysconstants_mod -->
<g id="edge5" class="edge">
<title>varqc_mod&#45;&gt;mathphysconstants_mod</title>
<path fill="none" stroke="black" d="M228,-628.95C228,-602.29 228,-549.11 228,-504 228,-504 228,-504 228,-430 228,-389.46 226.09,-377.28 208,-341 202.94,-330.85 195.53,-321.01 188.18,-312.62"/>
<polygon fill="black" stroke="black" points="190.57,-310.05 181.23,-305.06 185.42,-314.79 190.57,-310.05"/>
</g>
<!-- obsfamilylist_mod -->
<g id="node7" class="node">
<title>obsfamilylist_mod</title>
<g id="a_node7"><a xlink:href="obsfamilylist_mod.html" xlink:title="obsfamilylist_mod">
<polygon fill="gray" stroke="black" points="276,-233 158,-233 158,-197 276,-197 276,-233"/>
<text text-anchor="middle" x="217" y="-211.3" font-family="Times,serif" font-size="14.00">obsfamilylist_mod</text>
</a>
</g>
</g>
<!-- varqc_mod&#45;&gt;obsfamilylist_mod -->
<g id="edge6" class="edge">
<title>varqc_mod&#45;&gt;obsfamilylist_mod</title>
<path fill="none" stroke="black" d="M235.69,-628.91C246.79,-602.62 266,-550.45 266,-504 266,-504 266,-504 266,-358 266,-317.55 261.35,-306.82 247,-269 243.47,-259.71 238.49,-250.09 233.6,-241.65"/>
<polygon fill="black" stroke="black" points="236.56,-239.77 228.4,-233.01 230.56,-243.38 236.56,-239.77"/>
</g>
<!-- obsspacedata_mod -->
<g id="node8" class="node">
<title>obsspacedata_mod</title>
<g id="a_node8"><a xlink:href="../modules/obsspacedata_mod.svg" xlink:title="obsspacedata_mod">
<polygon fill="none" stroke="red" points="339,-161 221,-161 221,-125 339,-125 339,-161"/>
<text text-anchor="middle" x="280" y="-139.3" font-family="Times,serif" font-size="14.00">obsspacedata_mod</text>
</a>
</g>
</g>
<!-- varqc_mod&#45;&gt;obsspacedata_mod -->
<g id="edge7" class="edge">
<title>varqc_mod&#45;&gt;obsspacedata_mod</title>
<path fill="none" stroke="black" d="M244.49,-628.77C266.84,-603.53 304,-554.05 304,-504 304,-504 304,-504 304,-286 304,-245.65 294.46,-199.74 287.41,-171.32"/>
<polygon fill="black" stroke="black" points="290.73,-170.15 284.86,-161.33 283.94,-171.88 290.73,-170.15"/>
</g>
<!-- rmatrix_mod -->
<g id="node9" class="node">
<title>rmatrix_mod</title>
<g id="a_node9"><a xlink:href="../modules/rmatrix_mod.svg" xlink:title="rmatrix_mod">
<polygon fill="none" stroke="red" points="410.5,-89 323.5,-89 323.5,-53 410.5,-53 410.5,-89"/>
<text text-anchor="middle" x="367" y="-67.3" font-family="Times,serif" font-size="14.00">rmatrix_mod</text>
</a>
</g>
</g>
<!-- varqc_mod&#45;&gt;rmatrix_mod -->
<g id="edge8" class="edge">
<title>varqc_mod&#45;&gt;rmatrix_mod</title>
<path fill="none" stroke="black" d="M263.8,-628.94C304.98,-606.53 367,-562.99 367,-504 367,-504 367,-504 367,-214 367,-174 367,-127.65 367,-99.08"/>
<polygon fill="black" stroke="black" points="370.5,-99.05 367,-89.05 363.5,-99.05 370.5,-99.05"/>
</g>
<!-- varnamelist_mod -->
<g id="node10" class="node">
<title>varnamelist_mod</title>
<g id="a_node10"><a xlink:href="../modules/varnamelist_mod.svg" xlink:title="varnamelist_mod">
<polygon fill="none" stroke="red" points="505,-593 395,-593 395,-557 505,-557 505,-593"/>
<text text-anchor="middle" x="450" y="-571.3" font-family="Times,serif" font-size="14.00">varnamelist_mod</text>
</a>
</g>
</g>
<!-- varqc_mod&#45;&gt;varnamelist_mod -->
<g id="edge9" class="edge">
<title>varqc_mod&#45;&gt;varnamelist_mod</title>
<path fill="none" stroke="black" d="M266.67,-633.81C299.65,-623.41 347.73,-608.25 386.37,-596.06"/>
<polygon fill="black" stroke="black" points="387.49,-599.38 395.98,-593.03 385.39,-592.7 387.49,-599.38"/>
</g>
</g>
</svg>
