<?xml version="1.0" encoding="UTF-8" standalone="no"?>
<!DOCTYPE svg PUBLIC "-//W3C//DTD SVG 1.1//EN"
 "http://www.w3.org/Graphics/SVG/1.1/DTD/svg11.dtd">
<!-- Generated by graphviz version 3.0.0 (20220315.2325)
 -->
<!-- Title: version_mod Pages: 1 -->
<svg width="1325pt" height="673pt"
 viewBox="0.00 0.00 1324.50 673.00" xmlns="http://www.w3.org/2000/svg" xmlns:xlink="http://www.w3.org/1999/xlink">
<g id="graph0" class="graph" transform="scale(1 1) rotate(0) translate(4 669)">
<title>version_mod</title>
<polygon fill="white" stroke="transparent" points="-4,4 -4,-669 1320.5,-669 1320.5,4 -4,4"/>
<text text-anchor="middle" x="658.25" y="-649.8" font-family="Times,serif" font-size="14.00">Blue boxes indicate modules with reverse dependencies not shown</text>
<text text-anchor="middle" x="658.25" y="-634.8" font-family="Times,serif" font-size="14.00">Higher level reverse dependencies can be shown by clicking on a blue box</text>
<text text-anchor="middle" x="658.25" y="-619.8" font-family="Times,serif" font-size="14.00">Green boxes are programs</text>
<!-- version_mod -->
<g id="node1" class="node">
<title>version_mod</title>
<g id="a_node1"><a xlink:href="version_mod.html" xlink:title="version_mod">
<polygon fill="none" stroke="black" points="728,-36 642,-36 642,0 728,0 728,-36"/>
<text text-anchor="middle" x="685" y="-14.3" font-family="Times,serif" font-size="14.00">version_mod</text>
</a>
</g>
</g>
<!-- midas_midas_adjointtest -->
<g id="node2" class="node">
<title>midas_midas_adjointtest</title>
<g id="a_node2"><a xlink:href="../programs/midas_adjointtest.html" xlink:title="midas_midas_adjointtest">
<polygon fill="gray" stroke="green" points="152,-108 0,-108 0,-72 152,-72 152,-108"/>
<text text-anchor="middle" x="76" y="-86.3" font-family="Times,serif" font-size="14.00">midas_midas_adjointtest</text>
</a>
</g>
</g>
<!-- midas_midas_adjointtest&#45;&gt;version_mod -->
<g id="edge1" class="edge">
<title>midas_midas_adjointtest&#45;&gt;version_mod</title>
<path fill="none" stroke="black" d="M159.95,-72.91C161.98,-72.59 164,-72.29 166,-72 341.68,-46.48 552.58,-28.97 641.79,-22.16"/>
<ellipse fill="black" stroke="black" cx="155.98" cy="-73.54" rx="4" ry="4"/>
</g>
<!-- midas_midas_analysiserroroi -->
<g id="node3" class="node">
<title>midas_midas_analysiserroroi</title>
<g id="a_node3"><a xlink:href="../programs/midas_analysiserroroi.html" xlink:title="midas_midas_analysiserroroi">
<polygon fill="gray" stroke="green" points="229,-180 53,-180 53,-144 229,-144 229,-180"/>
<text text-anchor="middle" x="141" y="-158.3" font-family="Times,serif" font-size="14.00">midas_midas_analysiserroroi</text>
</a>
</g>
</g>
<!-- midas_midas_analysiserroroi&#45;&gt;version_mod -->
<g id="edge2" class="edge">
<title>midas_midas_analysiserroroi&#45;&gt;version_mod</title>
<path fill="none" stroke="black" d="M160.24,-137.64C179,-116.64 209.53,-86.88 243,-72 313.8,-40.52 544.82,-25.84 641.67,-20.95"/>
<ellipse fill="black" stroke="black" cx="157.44" cy="-140.84" rx="4" ry="4"/>
</g>
<!-- midas_midas_calcstats -->
<g id="node4" class="node">
<title>midas_midas_calcstats</title>
<g id="a_node4"><a xlink:href="../programs/midas_calcstats.html" xlink:title="midas_midas_calcstats">
<polygon fill="gray" stroke="green" points="267,-252 125,-252 125,-216 267,-216 267,-252"/>
<text text-anchor="middle" x="196" y="-230.3" font-family="Times,serif" font-size="14.00">midas_midas_calcstats</text>
</a>
</g>
</g>
<!-- midas_midas_calcstats&#45;&gt;version_mod -->
<g id="edge3" class="edge">
<title>midas_midas_calcstats&#45;&gt;version_mod</title>
<path fill="none" stroke="black" d="M216.93,-209.63C224.21,-200.76 232.04,-190.3 238,-180 263.87,-135.28 240.22,-103.72 281,-72 336.48,-28.83 549.33,-20.75 641.75,-19.29"/>
<ellipse fill="black" stroke="black" cx="214.33" cy="-212.72" rx="4" ry="4"/>
</g>
<!-- midas_midas_diagbmatrix -->
<g id="node5" class="node">
<title>midas_midas_diagbmatrix</title>
<g id="a_node5"><a xlink:href="../programs/midas_diagbmatrix.html" xlink:title="midas_midas_diagbmatrix">
<polygon fill="gray" stroke="green" points="304.5,-324 143.5,-324 143.5,-288 304.5,-288 304.5,-324"/>
<text text-anchor="middle" x="224" y="-302.3" font-family="Times,serif" font-size="14.00">midas_midas_diagbmatrix</text>
</a>
</g>
</g>
<!-- midas_midas_diagbmatrix&#45;&gt;version_mod -->
<g id="edge4" class="edge">
<title>midas_midas_diagbmatrix&#45;&gt;version_mod</title>
<path fill="none" stroke="black" d="M251.68,-282.28C260.62,-273.65 269.82,-263.18 276,-252 315.81,-180.02 258.26,-127.46 319,-72 365.46,-29.57 555.32,-21.04 641.77,-19.38"/>
<ellipse fill="black" stroke="black" cx="248.5" cy="-285.23" rx="4" ry="4"/>
</g>
<!-- midas_midas_diaghbht -->
<g id="node6" class="node">
<title>midas_midas_diaghbht</title>
<g id="a_node6"><a xlink:href="../programs/midas_diaghbht.html" xlink:title="midas_midas_diaghbht">
<polygon fill="gray" stroke="green" points="342.5,-396 199.5,-396 199.5,-360 342.5,-360 342.5,-396"/>
<text text-anchor="middle" x="271" y="-374.3" font-family="Times,serif" font-size="14.00">midas_midas_diaghbht</text>
</a>
</g>
</g>
<!-- midas_midas_diaghbht&#45;&gt;version_mod -->
<g id="edge5" class="edge">
<title>midas_midas_diaghbht&#45;&gt;version_mod</title>
<path fill="none" stroke="black" d="M293.4,-353.43C300.6,-344.75 308,-334.47 313,-324 330.47,-287.42 333,-275.54 333,-235 333,-235 333,-235 333,-161 333,-120.03 326.58,-99.44 357,-72 398.18,-34.87 562.49,-23.62 641.77,-20.31"/>
<ellipse fill="black" stroke="black" cx="290.59" cy="-356.7" rx="4" ry="4"/>
</g>
<!-- midas_midas_ensembleh -->
<g id="node7" class="node">
<title>midas_midas_ensembleh</title>
<g id="a_node7"><a xlink:href="../programs/midas_ensembleh.html" xlink:title="midas_midas_ensembleh">
<polygon fill="gray" stroke="green" points="381,-468 227,-468 227,-432 381,-432 381,-468"/>
<text text-anchor="middle" x="304" y="-446.3" font-family="Times,serif" font-size="14.00">midas_midas_ensembleh</text>
</a>
</g>
</g>
<!-- midas_midas_ensembleh&#45;&gt;version_mod -->
<g id="edge6" class="edge">
<title>midas_midas_ensembleh&#45;&gt;version_mod</title>
<path fill="none" stroke="black" d="M329.29,-425.66C337.3,-417.04 345.5,-406.75 351,-396 369.48,-359.91 371,-347.54 371,-307 371,-307 371,-307 371,-161 371,-120.03 364.86,-99.75 395,-72 430.4,-39.42 570.2,-26.11 641.98,-21.33"/>
<ellipse fill="black" stroke="black" cx="326.31" cy="-428.74" rx="4" ry="4"/>
</g>
<!-- midas_midas_enspostprocess -->
<g id="node8" class="node">
<title>midas_midas_enspostprocess</title>
<g id="a_node8"><a xlink:href="../programs/midas_enspostprocess.html" xlink:title="midas_midas_enspostprocess">
<polygon fill="gray" stroke="green" points="419,-540 243,-540 243,-504 419,-504 419,-540"/>
<text text-anchor="middle" x="331" y="-518.3" font-family="Times,serif" font-size="14.00">midas_midas_enspostprocess</text>
</a>
</g>
</g>
<!-- midas_midas_enspostprocess&#45;&gt;version_mod -->
<g id="edge7" class="edge">
<title>midas_midas_enspostprocess&#45;&gt;version_mod</title>
<path fill="none" stroke="black" d="M362.79,-498.84C372.9,-490.3 383.2,-479.74 390,-468 410.26,-432.99 409,-419.45 409,-379 409,-379 409,-379 409,-161 409,-120.03 403.23,-100.15 433,-72 462.64,-43.97 578.09,-28.97 641.94,-22.67"/>
<ellipse fill="black" stroke="black" cx="359.66" cy="-501.38" rx="4" ry="4"/>
</g>
<!-- midas_midas_extractbmatrixfor1dvar -->
<g id="node9" class="node">
<title>midas_midas_extractbmatrixfor1dvar</title>
<g id="a_node9"><a xlink:href="../programs/midas_extractbmatrixfor1dvar.html" xlink:title="midas_midas_extractbmatrixfor1dvar">
<polygon fill="gray" stroke="green" points="557.5,-612 336.5,-612 336.5,-576 557.5,-576 557.5,-612"/>
<text text-anchor="middle" x="447" y="-590.3" font-family="Times,serif" font-size="14.00">midas_midas_extractbmatrixfor1dvar</text>
</a>
</g>
</g>
<!-- midas_midas_extractbmatrixfor1dvar&#45;&gt;version_mod -->
<g id="edge8" class="edge">
<title>midas_midas_extractbmatrixfor1dvar&#45;&gt;version_mod</title>
<path fill="none" stroke="black" d="M447,-567.78C447,-539.39 447,-491.89 447,-451 447,-451 447,-451 447,-161 447,-120.55 437.79,-100.99 466,-72 490.08,-47.26 585.06,-31.44 641.72,-24"/>
<ellipse fill="black" stroke="black" cx="447" cy="-571.95" rx="4" ry="4"/>
</g>
<!-- midas_midas_gencoeff -->
<g id="node10" class="node">
<title>midas_midas_gencoeff</title>
<g id="a_node10"><a xlink:href="../programs/midas_gencoeff.html" xlink:title="midas_midas_gencoeff">
<polygon fill="gray" stroke="green" points="618.5,-108 475.5,-108 475.5,-72 618.5,-72 618.5,-108"/>
<text text-anchor="middle" x="547" y="-86.3" font-family="Times,serif" font-size="14.00">midas_midas_gencoeff</text>
</a>
</g>
</g>
<!-- midas_midas_gencoeff&#45;&gt;version_mod -->
<g id="edge9" class="edge">
<title>midas_midas_gencoeff&#45;&gt;version_mod</title>
<path fill="none" stroke="black" d="M587.98,-68.21C608.1,-58.01 632.04,-45.86 651.11,-36.19"/>
<ellipse fill="black" stroke="black" cx="584.33" cy="-70.07" rx="4" ry="4"/>
</g>
<!-- midas_midas_letkf -->
<g id="node11" class="node">
<title>midas_midas_letkf</title>
<g id="a_node11"><a xlink:href="../programs/midas_letkf.html" xlink:title="midas_midas_letkf">
<polygon fill="gray" stroke="green" points="657,-180 535,-180 535,-144 657,-144 657,-180"/>
<text text-anchor="middle" x="596" y="-158.3" font-family="Times,serif" font-size="14.00">midas_midas_letkf</text>
</a>
</g>
</g>
<!-- midas_midas_letkf&#45;&gt;version_mod -->
<g id="edge10" class="edge">
<title>midas_midas_letkf&#45;&gt;version_mod</title>
<path fill="none" stroke="black" d="M611.03,-137.03C628.94,-108.45 658.43,-61.39 674.23,-36.19"/>
<ellipse fill="black" stroke="black" cx="608.86" cy="-140.48" rx="4" ry="4"/>
</g>
<!-- midas_midas_obsimpact -->
<g id="node12" class="node">
<title>midas_midas_obsimpact</title>
<g id="a_node12"><a xlink:href="../programs/midas_obsimpact.html" xlink:title="midas_midas_obsimpact">
<polygon fill="gray" stroke="green" points="695,-252 543,-252 543,-216 695,-216 695,-252"/>
<text text-anchor="middle" x="619" y="-230.3" font-family="Times,serif" font-size="14.00">midas_midas_obsimpact</text>
</a>
</g>
</g>
<!-- midas_midas_obsimpact&#45;&gt;version_mod -->
<g id="edge11" class="edge">
<title>midas_midas_obsimpact&#45;&gt;version_mod</title>
<path fill="none" stroke="black" d="M644.93,-209.97C653,-201.38 661.06,-191.02 666,-180 687.76,-131.46 687.75,-66.84 686.25,-36.34"/>
<ellipse fill="black" stroke="black" cx="641.91" cy="-213.04" rx="4" ry="4"/>
</g>
<!-- midas_midas_obsselection -->
<g id="node13" class="node">
<title>midas_midas_obsselection</title>
<g id="a_node13"><a xlink:href="../programs/midas_obsselection.html" xlink:title="midas_midas_obsselection">
<polygon fill="gray" stroke="green" points="732.5,-324 569.5,-324 569.5,-288 732.5,-288 732.5,-324"/>
<text text-anchor="middle" x="651" y="-302.3" font-family="Times,serif" font-size="14.00">midas_midas_obsselection</text>
</a>
</g>
</g>
<!-- midas_midas_obsselection&#45;&gt;version_mod -->
<g id="edge12" class="edge">
<title>midas_midas_obsselection&#45;&gt;version_mod</title>
<path fill="none" stroke="black" d="M681.66,-282.26C690.59,-273.85 699.23,-263.53 704,-252 735.22,-176.63 705.7,-75.98 691.58,-36.21"/>
<ellipse fill="black" stroke="black" cx="678.46" cy="-285.11" rx="4" ry="4"/>
</g>
<!-- midas_midas_ominusf -->
<g id="node14" class="node">
<title>midas_midas_ominusf</title>
<g id="a_node14"><a xlink:href="../programs/midas_ominusf.html" xlink:title="midas_midas_ominusf">
<polygon fill="gray" stroke="green" points="771,-396 629,-396 629,-360 771,-360 771,-396"/>
<text text-anchor="middle" x="700" y="-374.3" font-family="Times,serif" font-size="14.00">midas_midas_ominusf</text>
</a>
</g>
</g>
<!-- midas_midas_ominusf&#45;&gt;version_mod -->
<g id="edge13" class="edge">
<title>midas_midas_ominusf&#45;&gt;version_mod</title>
<path fill="none" stroke="black" d="M721.86,-353.36C728.88,-344.67 736.11,-334.4 741,-324 758.26,-287.31 761,-275.54 761,-235 761,-235 761,-235 761,-161 761,-110.95 723.84,-61.47 701.49,-36.23"/>
<ellipse fill="black" stroke="black" cx="719.13" cy="-356.6" rx="4" ry="4"/>
</g>
<!-- midas_midas_prepcma -->
<g id="node15" class="node">
<title>midas_midas_prepcma</title>
<g id="a_node15"><a xlink:href="../programs/midas_prepcma.html" xlink:title="midas_midas_prepcma">
<polygon fill="gray" stroke="green" points="808.5,-468 665.5,-468 665.5,-432 808.5,-432 808.5,-468"/>
<text text-anchor="middle" x="737" y="-446.3" font-family="Times,serif" font-size="14.00">midas_midas_prepcma</text>
</a>
</g>
</g>
<!-- midas_midas_prepcma&#45;&gt;version_mod -->
<g id="edge14" class="edge">
<title>midas_midas_prepcma&#45;&gt;version_mod</title>
<path fill="none" stroke="black" d="M759.8,-425.79C767.24,-417.07 774.9,-406.67 780,-396 797.45,-359.51 799,-347.45 799,-307 799,-307 799,-307 799,-161 799,-105.67 745.73,-59.63 712.02,-36.04"/>
<ellipse fill="black" stroke="black" cx="757.1" cy="-428.84" rx="4" ry="4"/>
</g>
<!-- midas_midas_pseudosstobs -->
<g id="node16" class="node">
<title>midas_midas_pseudosstobs</title>
<g id="a_node16"><a xlink:href="../programs/midas_pseudosstobs.html" xlink:title="midas_midas_pseudosstobs">
<polygon fill="gray" stroke="green" points="847.5,-540 680.5,-540 680.5,-504 847.5,-504 847.5,-540"/>
<text text-anchor="middle" x="764" y="-518.3" font-family="Times,serif" font-size="14.00">midas_midas_pseudosstobs</text>
</a>
</g>
</g>
<!-- midas_midas_pseudosstobs&#45;&gt;version_mod -->
<g id="edge15" class="edge">
<title>midas_midas_pseudosstobs&#45;&gt;version_mod</title>
<path fill="none" stroke="black" d="M792.27,-498.45C801.4,-489.82 810.77,-479.31 817,-468 836.55,-432.48 837,-419.54 837,-379 837,-379 837,-379 837,-161 837,-100.15 771.15,-57.88 726.13,-36.1"/>
<ellipse fill="black" stroke="black" cx="789.3" cy="-501.15" rx="4" ry="4"/>
</g>
<!-- midas_midas_randompert -->
<g id="node17" class="node">
<title>midas_midas_randompert</title>
<g id="a_node17"><a xlink:href="../programs/midas_randompert.html" xlink:title="midas_midas_randompert">
<polygon fill="gray" stroke="green" points="954.5,-612 795.5,-612 795.5,-576 954.5,-576 954.5,-612"/>
<text text-anchor="middle" x="875" y="-590.3" font-family="Times,serif" font-size="14.00">midas_midas_randompert</text>
</a>
</g>
</g>
<!-- midas_midas_randompert&#45;&gt;version_mod -->
<g id="edge16" class="edge">
<title>midas_midas_randompert&#45;&gt;version_mod</title>
<path fill="none" stroke="black" d="M875,-567.78C875,-539.39 875,-491.89 875,-451 875,-451 875,-451 875,-161 875,-88.11 784.17,-48.13 728.11,-30.4"/>
<ellipse fill="black" stroke="black" cx="875" cy="-571.95" rx="4" ry="4"/>
</g>
<!-- midas_midas_sstbias -->
<g id="node18" class="node">
<title>midas_midas_sstbias</title>
<g id="a_node18"><a xlink:href="../programs/midas_sstbias.html" xlink:title="midas_midas_sstbias">
<polygon fill="gray" stroke="green" points="1035,-108 903,-108 903,-72 1035,-72 1035,-108"/>
<text text-anchor="middle" x="969" y="-86.3" font-family="Times,serif" font-size="14.00">midas_midas_sstbias</text>
</a>
</g>
</g>
<!-- midas_midas_sstbias&#45;&gt;version_mod -->
<g id="edge17" class="edge">
<title>midas_midas_sstbias&#45;&gt;version_mod</title>
<path fill="none" stroke="black" d="M894.76,-70.7C841.83,-57.65 772.49,-40.56 728.33,-29.68"/>
<ellipse fill="black" stroke="black" cx="898.89" cy="-71.72" rx="4" ry="4"/>
</g>
<!-- midas_midas_ssttrial -->
<g id="node19" class="node">
<title>midas_midas_ssttrial</title>
<g id="a_node19"><a xlink:href="../programs/midas_ssttrial.html" xlink:title="midas_midas_ssttrial">
<polygon fill="gray" stroke="green" points="1073,-180 941,-180 941,-144 1073,-144 1073,-180"/>
<text text-anchor="middle" x="1007" y="-158.3" font-family="Times,serif" font-size="14.00">midas_midas_ssttrial</text>
</a>
</g>
</g>
<!-- midas_midas_ssttrial&#45;&gt;version_mod -->
<g id="edge18" class="edge">
<title>midas_midas_ssttrial&#45;&gt;version_mod</title>
<path fill="none" stroke="black" d="M1029.2,-137.65C1044.87,-118.3 1060.41,-91.01 1044,-72 1003.66,-25.26 814.65,-19.02 728.27,-18.67"/>
<ellipse fill="black" stroke="black" cx="1026.51" cy="-140.83" rx="4" ry="4"/>
</g>
<!-- midas_midas_thinning -->
<g id="node20" class="node">
<title>midas_midas_thinning</title>
<g id="a_node20"><a xlink:href="../programs/midas_thinning.html" xlink:title="midas_midas_thinning">
<polygon fill="gray" stroke="green" points="1140.5,-252 999.5,-252 999.5,-216 1140.5,-216 1140.5,-252"/>
<text text-anchor="middle" x="1070" y="-230.3" font-family="Times,serif" font-size="14.00">midas_midas_thinning</text>
</a>
</g>
</g>
<!-- midas_midas_thinning&#45;&gt;version_mod -->
<g id="edge19" class="edge">
<title>midas_midas_thinning&#45;&gt;version_mod</title>
<path fill="none" stroke="black" d="M1078.31,-207.68C1088.44,-171.36 1099.89,-105.22 1062,-72 1013.04,-29.08 816.18,-20.83 728.04,-19.31"/>
<ellipse fill="black" stroke="black" cx="1077.05" cy="-211.96" rx="4" ry="4"/>
</g>
<!-- midas_midas_var1d -->
<g id="node21" class="node">
<title>midas_midas_var1d</title>
<g id="a_node21"><a xlink:href="../programs/midas_var1d.html" xlink:title="midas_midas_var1d">
<polygon fill="gray" stroke="green" points="1232,-324 1106,-324 1106,-288 1232,-288 1232,-324"/>
<text text-anchor="middle" x="1169" y="-302.3" font-family="Times,serif" font-size="14.00">midas_midas_var1d</text>
</a>
</g>
</g>
<!-- midas_midas_var1d&#45;&gt;version_mod -->
<g id="edge20" class="edge">
<title>midas_midas_var1d&#45;&gt;version_mod</title>
<path fill="none" stroke="black" d="M1168.59,-279.7C1166.27,-230.49 1153.46,-122.28 1087,-72 1031.28,-29.85 820.28,-21.2 728.3,-19.44"/>
<ellipse fill="black" stroke="black" cx="1168.75" cy="-283.91" rx="4" ry="4"/>
</g>
<!-- midas_midas_var -->
<g id="node22" class="node">
<title>midas_midas_var</title>
<g id="a_node22"><a xlink:href="../programs/midas_var.html" xlink:title="midas_midas_var">
<polygon fill="gray" stroke="green" points="1316.5,-396 1203.5,-396 1203.5,-360 1316.5,-360 1316.5,-396"/>
<text text-anchor="middle" x="1260" y="-374.3" font-family="Times,serif" font-size="14.00">midas_midas_var</text>
</a>
</g>
</g>
<!-- midas_midas_var&#45;&gt;version_mod -->
<g id="edge21" class="edge">
<title>midas_midas_var&#45;&gt;version_mod</title>
<path fill="none" stroke="black" d="M1260,-351.78C1260,-323.39 1260,-275.89 1260,-235 1260,-235 1260,-235 1260,-161 1260,-51.49 861.94,-25.91 728.22,-20.4"/>
<ellipse fill="black" stroke="black" cx="1260" cy="-355.95" rx="4" ry="4"/>
</g>
</g>
</svg>
