<?xml version="1.0" encoding="UTF-8" standalone="no"?>
<!DOCTYPE svg PUBLIC "-//W3C//DTD SVG 1.1//EN"
 "http://www.w3.org/Graphics/SVG/1.1/DTD/svg11.dtd">
<!-- Generated by graphviz version 3.0.0 (20220315.2325)
 -->
<!-- Title: verticalcoord_mod Pages: 1 -->
<svg width="379pt" height="313pt"
 viewBox="0.00 0.00 379.00 313.00" xmlns="http://www.w3.org/2000/svg" xmlns:xlink="http://www.w3.org/1999/xlink">
<g id="graph0" class="graph" transform="scale(1 1) rotate(0) translate(4 309)">
<title>verticalcoord_mod</title>
<polygon fill="white" stroke="transparent" points="-4,4 -4,-309 375,-309 375,4 -4,4"/>
<text text-anchor="middle" x="185.5" y="-37.8" font-family="Times,serif" font-size="14.00">Red boxes indicate modules with dependencies not shown</text>
<text text-anchor="middle" x="185.5" y="-22.8" font-family="Times,serif" font-size="14.00">Lower level dependencies can be shown by clicking on a red box</text>
<text text-anchor="middle" x="185.5" y="-7.8" font-family="Times,serif" font-size="14.00">Shaded boxes indicate modules with no dependencies</text>
<!-- verticalcoord_mod -->
<g id="node1" class="node">
<title>verticalcoord_mod</title>
<g id="a_node1"><a xlink:href="verticalcoord_mod.html" xlink:title="verticalcoord_mod">
<polygon fill="none" stroke="black" points="245.75,-305 127.75,-305 127.75,-269 245.75,-269 245.75,-305"/>
<text text-anchor="middle" x="186.75" y="-283.3" font-family="Times,serif" font-size="14.00">verticalcoord_mod</text>
</a>
</g>
</g>
<!-- midasmpi_mod -->
<g id="node2" class="node">
<title>midasmpi_mod</title>
<g id="a_node2"><a xlink:href="../modules/midasmpi_mod.svg" xlink:title="midasmpi_mod">
<polygon fill="none" stroke="red" points="158.25,-233 57.25,-233 57.25,-197 158.25,-197 158.25,-233"/>
<text text-anchor="middle" x="107.75" y="-211.3" font-family="Times,serif" font-size="14.00">midasmpi_mod</text>
</a>
</g>
</g>
<!-- verticalcoord_mod&#45;&gt;midasmpi_mod -->
<g id="edge1" class="edge">
<title>verticalcoord_mod&#45;&gt;midasmpi_mod</title>
<path fill="none" stroke="black" d="M167.22,-268.7C157.37,-259.97 145.26,-249.24 134.55,-239.75"/>
<polygon fill="black" stroke="black" points="136.86,-237.12 127.05,-233.1 132.22,-242.36 136.86,-237.12"/>
</g>
<!-- utilities_mod -->
<g id="node3" class="node">
<title>utilities_mod</title>
<g id="a_node3"><a xlink:href="../modules/utilities_mod.svg" xlink:title="utilities_mod">
<polygon fill="none" stroke="red" points="230.75,-161 142.75,-161 142.75,-125 230.75,-125 230.75,-161"/>
<text text-anchor="middle" x="186.75" y="-139.3" font-family="Times,serif" font-size="14.00">utilities_mod</text>
</a>
</g>
</g>
<!-- verticalcoord_mod&#45;&gt;utilities_mod -->
<g id="edge2" class="edge">
<title>verticalcoord_mod&#45;&gt;utilities_mod</title>
<path fill="none" stroke="black" d="M186.75,-268.87C186.75,-244.67 186.75,-200.21 186.75,-171.39"/>
<polygon fill="black" stroke="black" points="190.25,-171.19 186.75,-161.19 183.25,-171.19 190.25,-171.19"/>
</g>
<!-- varnamelist_mod -->
<g id="node4" class="node">
<title>varnamelist_mod</title>
<g id="a_node4"><a xlink:href="../modules/varnamelist_mod.svg" xlink:title="varnamelist_mod">
<polygon fill="none" stroke="red" points="313.75,-89 203.75,-89 203.75,-53 313.75,-53 313.75,-89"/>
<text text-anchor="middle" x="258.75" y="-67.3" font-family="Times,serif" font-size="14.00">varnamelist_mod</text>
</a>
</g>
</g>
<!-- verticalcoord_mod&#45;&gt;varnamelist_mod -->
<g id="edge3" class="edge">
<title>verticalcoord_mod&#45;&gt;varnamelist_mod</title>
<path fill="none" stroke="black" d="M195.38,-268.6C206.9,-244.81 227.27,-200.56 239.75,-161 246.16,-140.69 251.09,-117.1 254.32,-99.3"/>
<polygon fill="black" stroke="black" points="257.79,-99.77 256.06,-89.31 250.89,-98.56 257.79,-99.77"/>
</g>
</g>
</svg>
