<?xml version="1.0" encoding="UTF-8" standalone="no"?>
<!DOCTYPE svg PUBLIC "-//W3C//DTD SVG 1.1//EN"
 "http://www.w3.org/Graphics/SVG/1.1/DTD/svg11.dtd">
<!-- Generated by graphviz version 3.0.0 (20220315.2325)
 -->
<!-- Title: windrotation_mod Pages: 1 -->
<svg width="379pt" height="385pt"
 viewBox="0.00 0.00 379.00 385.00" xmlns="http://www.w3.org/2000/svg" xmlns:xlink="http://www.w3.org/1999/xlink">
<g id="graph0" class="graph" transform="scale(1 1) rotate(0) translate(4 381)">
<title>windrotation_mod</title>
<polygon fill="white" stroke="transparent" points="-4,4 -4,-381 375,-381 375,4 -4,4"/>
<text text-anchor="middle" x="185.5" y="-37.8" font-family="Times,serif" font-size="14.00">Red boxes indicate modules with dependencies not shown</text>
<text text-anchor="middle" x="185.5" y="-22.8" font-family="Times,serif" font-size="14.00">Lower level dependencies can be shown by clicking on a red box</text>
<text text-anchor="middle" x="185.5" y="-7.8" font-family="Times,serif" font-size="14.00">Shaded boxes indicate modules with no dependencies</text>
<!-- windrotation_mod -->
<g id="node1" class="node">
<title>windrotation_mod</title>
<g id="a_node1"><a xlink:href="windrotation_mod.html" xlink:title="windrotation_mod">
<polygon fill="none" stroke="black" points="275.25,-377 159.25,-377 159.25,-341 275.25,-341 275.25,-377"/>
<text text-anchor="middle" x="217.25" y="-355.3" font-family="Times,serif" font-size="14.00">windrotation_mod</text>
</a>
</g>
</g>
<!-- horizontalcoord_mod -->
<g id="node2" class="node">
<title>horizontalcoord_mod</title>
<g id="a_node2"><a xlink:href="../modules/horizontalcoord_mod.svg" xlink:title="horizontalcoord_mod">
<polygon fill="none" stroke="red" points="137.75,-305 4.75,-305 4.75,-269 137.75,-269 137.75,-305"/>
<text text-anchor="middle" x="71.25" y="-283.3" font-family="Times,serif" font-size="14.00">horizontalcoord_mod</text>
</a>
</g>
</g>
<!-- windrotation_mod&#45;&gt;horizontalcoord_mod -->
<g id="edge1" class="edge">
<title>windrotation_mod&#45;&gt;horizontalcoord_mod</title>
<path fill="none" stroke="black" d="M181.53,-340.88C161.75,-331.39 136.98,-319.51 115.92,-309.42"/>
<polygon fill="black" stroke="black" points="117.38,-306.24 106.85,-305.07 114.35,-312.55 117.38,-306.24"/>
</g>
<!-- mathphysconstants_mod -->
<g id="node3" class="node">
<title>mathphysconstants_mod</title>
<g id="a_node3"><a xlink:href="mathphysconstants_mod.html" xlink:title="mathphysconstants_mod">
<polygon fill="gray" stroke="black" points="215.25,-233 65.25,-233 65.25,-197 215.25,-197 215.25,-233"/>
<text text-anchor="middle" x="140.25" y="-211.3" font-family="Times,serif" font-size="14.00">mathphysconstants_mod</text>
</a>
</g>
</g>
<!-- windrotation_mod&#45;&gt;mathphysconstants_mod -->
<g id="edge2" class="edge">
<title>windrotation_mod&#45;&gt;mathphysconstants_mod</title>
<path fill="none" stroke="black" d="M207.96,-340.87C194.67,-316.35 170.09,-271.03 154.49,-242.26"/>
<polygon fill="black" stroke="black" points="157.41,-240.31 149.57,-233.19 151.26,-243.65 157.41,-240.31"/>
</g>
<!-- midasmpi_mod -->
<g id="node4" class="node">
<title>midasmpi_mod</title>
<g id="a_node4"><a xlink:href="../modules/midasmpi_mod.svg" xlink:title="midasmpi_mod">
<polygon fill="none" stroke="red" points="293.75,-161 192.75,-161 192.75,-125 293.75,-125 293.75,-161"/>
<text text-anchor="middle" x="243.25" y="-139.3" font-family="Times,serif" font-size="14.00">midasmpi_mod</text>
</a>
</g>
</g>
<!-- windrotation_mod&#45;&gt;midasmpi_mod -->
<g id="edge3" class="edge">
<title>windrotation_mod&#45;&gt;midasmpi_mod</title>
<path fill="none" stroke="black" d="M219.33,-340.85C223.83,-303.83 234.48,-216.18 239.92,-171.39"/>
<polygon fill="black" stroke="black" points="243.42,-171.58 241.16,-161.23 236.48,-170.74 243.42,-171.58"/>
</g>
<!-- utilities_mod -->
<g id="node5" class="node">
<title>utilities_mod</title>
<g id="a_node5"><a xlink:href="../modules/utilities_mod.svg" xlink:title="utilities_mod">
<polygon fill="none" stroke="red" points="366.25,-89 278.25,-89 278.25,-53 366.25,-53 366.25,-89"/>
<text text-anchor="middle" x="322.25" y="-67.3" font-family="Times,serif" font-size="14.00">utilities_mod</text>
</a>
</g>
</g>
<!-- windrotation_mod&#45;&gt;utilities_mod -->
<g id="edge4" class="edge">
<title>windrotation_mod&#45;&gt;utilities_mod</title>
<path fill="none" stroke="black" d="M226.17,-340.8C243.33,-307.12 281.15,-229.75 303.25,-161 309.77,-140.73 314.69,-117.13 317.89,-99.33"/>
<polygon fill="black" stroke="black" points="321.36,-99.78 319.61,-89.33 314.46,-98.59 321.36,-99.78"/>
</g>
</g>
</svg>
