<?xml version="1.0" encoding="UTF-8" standalone="no"?>
<!DOCTYPE svg PUBLIC "-//W3C//DTD SVG 1.1//EN"
 "http://www.w3.org/Graphics/SVG/1.1/DTD/svg11.dtd">
<!-- Generated by graphviz version 3.0.0 (20220315.2325)
 -->
<!-- Title: midas_var Pages: 1 -->
<svg width="1586pt" height="673pt"
 viewBox="0.00 0.00 1585.50 673.00" xmlns="http://www.w3.org/2000/svg" xmlns:xlink="http://www.w3.org/1999/xlink">
<g id="graph0" class="graph" transform="scale(1 1) rotate(0) translate(4 669)">
<title>midas_var</title>
<polygon fill="white" stroke="transparent" points="-4,4 -4,-669 1581.5,-669 1581.5,4 -4,4"/>
<text text-anchor="middle" x="788.75" y="-37.8" font-family="Times,serif" font-size="14.00">Red boxes indicate modules with dependencies not shown</text>
<text text-anchor="middle" x="788.75" y="-22.8" font-family="Times,serif" font-size="14.00">Lower level dependencies can be shown by clicking on a red box</text>
<text text-anchor="middle" x="788.75" y="-7.8" font-family="Times,serif" font-size="14.00">Shaded boxes indicate modules with no dependencies</text>
<!-- midas_var -->
<g id="node1" class="node">
<title>midas_var</title>
<g id="a_node1"><a xlink:href="midas_var.html" xlink:title="midas_var">
<polygon fill="none" stroke="black" points="830,-665 757,-665 757,-629 830,-629 830,-665"/>
<text text-anchor="middle" x="793.5" y="-643.3" font-family="Times,serif" font-size="14.00">midas_var</text>
</a>
</g>
</g>
<!-- biascorrectionsat_mod -->
<g id="node2" class="node">
<title>biascorrectionsat_mod</title>
<g id="a_node2"><a xlink:href="../modules/biascorrectionsat_mod.svg" xlink:title="biascorrectionsat_mod">
<polygon fill="none" stroke="red" points="139,-593 0,-593 0,-557 139,-557 139,-593"/>
<text text-anchor="middle" x="69.5" y="-571.3" font-family="Times,serif" font-size="14.00">biascorrectionsat_mod</text>
</a>
</g>
</g>
<!-- midas_var&#45;&gt;biascorrectionsat_mod -->
<g id="edge1" class="edge">
<title>midas_var&#45;&gt;biascorrectionsat_mod</title>
<path fill="none" stroke="black" d="M756.89,-644.47C658.75,-640.05 381.72,-625.43 153.5,-593 152.03,-592.79 150.54,-592.57 149.04,-592.34"/>
<polygon fill="black" stroke="black" points="149.49,-588.87 139.06,-590.73 148.38,-595.78 149.49,-588.87"/>
</g>
<!-- bmatrix_mod -->
<g id="node3" class="node">
<title>bmatrix_mod</title>
<g id="a_node3"><a xlink:href="../modules/bmatrix_mod.svg" xlink:title="bmatrix_mod">
<polygon fill="none" stroke="red" points="195,-521 106,-521 106,-485 195,-485 195,-521"/>
<text text-anchor="middle" x="150.5" y="-499.3" font-family="Times,serif" font-size="14.00">bmatrix_mod</text>
</a>
</g>
</g>
<!-- midas_var&#45;&gt;bmatrix_mod -->
<g id="edge2" class="edge">
<title>midas_var&#45;&gt;bmatrix_mod</title>
<path fill="none" stroke="black" d="M756.98,-644.51C636.47,-639.36 256.49,-621.04 209.5,-593 185.86,-578.9 169.8,-551.21 160.47,-530.45"/>
<polygon fill="black" stroke="black" points="163.67,-529.02 156.54,-521.18 157.22,-531.75 163.67,-529.02"/>
</g>
<!-- codeprecision_mod -->
<g id="node4" class="node">
<title>codeprecision_mod</title>
<g id="a_node4"><a xlink:href="../modules/codeprecision_mod.html" xlink:title="codeprecision_mod">
<polygon fill="gray" stroke="black" points="233.5,-449 111.5,-449 111.5,-413 233.5,-413 233.5,-449"/>
<text text-anchor="middle" x="172.5" y="-427.3" font-family="Times,serif" font-size="14.00">codeprecision_mod</text>
</a>
</g>
</g>
<!-- midas_var&#45;&gt;codeprecision_mod -->
<g id="edge3" class="edge">
<title>midas_var&#45;&gt;codeprecision_mod</title>
<path fill="none" stroke="black" d="M756.72,-644.61C640.79,-639.95 288.26,-623.37 247.5,-593 205.94,-562.03 226.42,-531.49 203.5,-485 199.07,-476.01 193.71,-466.48 188.71,-458.01"/>
<polygon fill="black" stroke="black" points="191.63,-456.08 183.47,-449.32 185.63,-459.69 191.63,-456.08"/>
</g>
<!-- columndata_mod -->
<g id="node5" class="node">
<title>columndata_mod</title>
<g id="a_node5"><a xlink:href="../modules/columndata_mod.svg" xlink:title="columndata_mod">
<polygon fill="none" stroke="red" points="271,-377 160,-377 160,-341 271,-341 271,-377"/>
<text text-anchor="middle" x="215.5" y="-355.3" font-family="Times,serif" font-size="14.00">columndata_mod</text>
</a>
</g>
</g>
<!-- midas_var&#45;&gt;columndata_mod -->
<g id="edge4" class="edge">
<title>midas_var&#45;&gt;columndata_mod</title>
<path fill="none" stroke="black" d="M756.77,-644.59C646.03,-640 320.83,-623.99 285.5,-593 223.67,-538.76 270.92,-490.18 242.5,-413 239.18,-403.99 234.71,-394.53 230.36,-386.14"/>
<polygon fill="black" stroke="black" points="233.38,-384.36 225.57,-377.2 227.21,-387.66 233.38,-384.36"/>
</g>
<!-- controlvector_mod -->
<g id="node6" class="node">
<title>controlvector_mod</title>
<g id="a_node6"><a xlink:href="../modules/controlvector_mod.svg" xlink:title="controlvector_mod">
<polygon fill="none" stroke="red" points="309.5,-305 191.5,-305 191.5,-269 309.5,-269 309.5,-305"/>
<text text-anchor="middle" x="250.5" y="-283.3" font-family="Times,serif" font-size="14.00">controlvector_mod</text>
</a>
</g>
</g>
<!-- midas_var&#45;&gt;controlvector_mod -->
<g id="edge5" class="edge">
<title>midas_var&#45;&gt;controlvector_mod</title>
<path fill="none" stroke="black" d="M756.97,-644.22C652.22,-638.8 356.24,-621.13 323.5,-593 292.43,-566.3 299.5,-544.97 299.5,-504 299.5,-504 299.5,-504 299.5,-430 299.5,-389.46 293.81,-378.93 279.5,-341 276.06,-331.87 271.29,-322.38 266.61,-314"/>
<polygon fill="black" stroke="black" points="269.49,-311.98 261.44,-305.08 263.43,-315.49 269.49,-311.98"/>
</g>
<!-- gridstatevectorfileio_mod -->
<g id="node7" class="node">
<title>gridstatevectorfileio_mod</title>
<g id="a_node7"><a xlink:href="../modules/gridstatevectorfileio_mod.svg" xlink:title="gridstatevectorfileio_mod">
<polygon fill="none" stroke="red" points="347,-233 192,-233 192,-197 347,-197 347,-233"/>
<text text-anchor="middle" x="269.5" y="-211.3" font-family="Times,serif" font-size="14.00">gridstatevectorfileio_mod</text>
</a>
</g>
</g>
<!-- midas_var&#45;&gt;gridstatevectorfileio_mod -->
<g id="edge6" class="edge">
<title>midas_var&#45;&gt;gridstatevectorfileio_mod</title>
<path fill="none" stroke="black" d="M756.89,-646.56C663.6,-647.24 420.21,-643.95 361.5,-593 330.56,-566.15 337.5,-544.97 337.5,-504 337.5,-504 337.5,-504 337.5,-358 337.5,-317.55 337.12,-304.91 318.5,-269 313.11,-258.61 305.13,-248.74 297.17,-240.41"/>
<polygon fill="black" stroke="black" points="299.49,-237.78 289.94,-233.21 294.56,-242.74 299.49,-237.78"/>
</g>
<!-- gridstatevector_mod -->
<g id="node8" class="node">
<title>gridstatevector_mod</title>
<g id="a_node8"><a xlink:href="../modules/gridstatevector_mod.svg" xlink:title="gridstatevector_mod">
<polygon fill="none" stroke="red" points="385,-161 258,-161 258,-125 385,-125 385,-161"/>
<text text-anchor="middle" x="321.5" y="-139.3" font-family="Times,serif" font-size="14.00">gridstatevector_mod</text>
</a>
</g>
</g>
<!-- midas_var&#45;&gt;gridstatevector_mod -->
<g id="edge7" class="edge">
<title>midas_var&#45;&gt;gridstatevector_mod</title>
<path fill="none" stroke="black" d="M756.92,-646.07C669.58,-645.48 452.21,-639.28 399.5,-593 368.71,-565.97 375.5,-544.97 375.5,-504 375.5,-504 375.5,-504 375.5,-286 375.5,-245.46 371.13,-234.41 355.5,-197 351.56,-187.57 345.96,-177.95 340.44,-169.55"/>
<polygon fill="black" stroke="black" points="343.33,-167.57 334.79,-161.29 337.55,-171.52 343.33,-167.57"/>
</g>
<!-- gridvariabletransforms_mod -->
<g id="node9" class="node">
<title>gridvariabletransforms_mod</title>
<g id="a_node9"><a xlink:href="../modules/gridvariabletransforms_mod.svg" xlink:title="gridvariabletransforms_mod">
<polygon fill="none" stroke="red" points="498.5,-89 328.5,-89 328.5,-53 498.5,-53 498.5,-89"/>
<text text-anchor="middle" x="413.5" y="-67.3" font-family="Times,serif" font-size="14.00">gridvariabletransforms_mod</text>
</a>
</g>
</g>
<!-- midas_var&#45;&gt;gridvariabletransforms_mod -->
<g id="edge8" class="edge">
<title>midas_var&#45;&gt;gridvariabletransforms_mod</title>
<path fill="none" stroke="black" d="M756.8,-645.74C674.52,-644.36 478.89,-636.49 432.5,-593 402.99,-565.34 413.5,-544.45 413.5,-504 413.5,-504 413.5,-504 413.5,-214 413.5,-174 413.5,-127.65 413.5,-99.08"/>
<polygon fill="black" stroke="black" points="417,-99.05 413.5,-89.05 410,-99.05 417,-99.05"/>
</g>
<!-- horizontalcoord_mod -->
<g id="node10" class="node">
<title>horizontalcoord_mod</title>
<g id="a_node10"><a xlink:href="../modules/horizontalcoord_mod.svg" xlink:title="horizontalcoord_mod">
<polygon fill="none" stroke="red" points="575,-593 442,-593 442,-557 575,-557 575,-593"/>
<text text-anchor="middle" x="508.5" y="-571.3" font-family="Times,serif" font-size="14.00">horizontalcoord_mod</text>
</a>
</g>
</g>
<!-- midas_var&#45;&gt;horizontalcoord_mod -->
<g id="edge9" class="edge">
<title>midas_var&#45;&gt;horizontalcoord_mod</title>
<path fill="none" stroke="black" d="M756.82,-636.99C713.64,-626.39 640.75,-608.48 585.07,-594.81"/>
<polygon fill="black" stroke="black" points="585.79,-591.38 575.24,-592.39 584.12,-598.18 585.79,-591.38"/>
</g>
<!-- humiditylimits_mod -->
<g id="node11" class="node">
<title>humiditylimits_mod</title>
<g id="a_node11"><a xlink:href="../modules/humiditylimits_mod.svg" xlink:title="humiditylimits_mod">
<polygon fill="none" stroke="red" points="613.5,-521 485.5,-521 485.5,-485 613.5,-485 613.5,-521"/>
<text text-anchor="middle" x="549.5" y="-499.3" font-family="Times,serif" font-size="14.00">humiditylimits_mod</text>
</a>
</g>
</g>
<!-- midas_var&#45;&gt;humiditylimits_mod -->
<g id="edge10" class="edge">
<title>midas_var&#45;&gt;humiditylimits_mod</title>
<path fill="none" stroke="black" d="M756.72,-640.16C721.34,-633.25 667.48,-619.2 627.5,-593 602.2,-576.42 580.21,-549.48 566.08,-529.57"/>
<polygon fill="black" stroke="black" points="568.9,-527.5 560.34,-521.26 563.14,-531.47 568.9,-527.5"/>
</g>
<!-- increment_mod -->
<g id="node12" class="node">
<title>increment_mod</title>
<g id="a_node12"><a xlink:href="../modules/increment_mod.svg" xlink:title="increment_mod">
<polygon fill="none" stroke="red" points="651,-449 550,-449 550,-413 651,-413 651,-449"/>
<text text-anchor="middle" x="600.5" y="-427.3" font-family="Times,serif" font-size="14.00">increment_mod</text>
</a>
</g>
</g>
<!-- midas_var&#45;&gt;increment_mod -->
<g id="edge11" class="edge">
<title>midas_var&#45;&gt;increment_mod</title>
<path fill="none" stroke="black" d="M756.86,-638.97C728.59,-631.82 690.24,-618.09 665.5,-593 629.22,-556.22 641.96,-532.86 622.5,-485 618.99,-476.38 615.12,-466.99 611.61,-458.54"/>
<polygon fill="black" stroke="black" points="614.77,-457.04 607.7,-449.16 608.31,-459.74 614.77,-457.04"/>
</g>
<!-- innovation_mod -->
<g id="node13" class="node">
<title>innovation_mod</title>
<g id="a_node13"><a xlink:href="../modules/innovation_mod.svg" xlink:title="innovation_mod">
<polygon fill="none" stroke="red" points="689.5,-377 585.5,-377 585.5,-341 689.5,-341 689.5,-377"/>
<text text-anchor="middle" x="637.5" y="-355.3" font-family="Times,serif" font-size="14.00">innovation_mod</text>
</a>
</g>
</g>
<!-- midas_var&#45;&gt;innovation_mod -->
<g id="edge12" class="edge">
<title>midas_var&#45;&gt;innovation_mod</title>
<path fill="none" stroke="black" d="M756.64,-632.44C738.1,-623.84 716.8,-610.9 703.5,-593 654.37,-526.9 685.14,-491.26 659.5,-413 656.65,-404.29 653,-395 649.5,-386.66"/>
<polygon fill="black" stroke="black" points="652.69,-385.21 645.52,-377.41 646.26,-387.98 652.69,-385.21"/>
</g>
<!-- mathphysconstants_mod -->
<g id="node14" class="node">
<title>mathphysconstants_mod</title>
<g id="a_node14"><a xlink:href="../modules/mathphysconstants_mod.html" xlink:title="mathphysconstants_mod">
<polygon fill="gray" stroke="black" points="727.5,-305 577.5,-305 577.5,-269 727.5,-269 727.5,-305"/>
<text text-anchor="middle" x="652.5" y="-283.3" font-family="Times,serif" font-size="14.00">mathphysconstants_mod</text>
</a>
</g>
</g>
<!-- midas_var&#45;&gt;mathphysconstants_mod -->
<g id="edge13" class="edge">
<title>midas_var&#45;&gt;mathphysconstants_mod</title>
<path fill="none" stroke="black" d="M772.09,-628.86C761.49,-619.33 749.31,-606.65 741.5,-593 721.16,-557.44 717.5,-544.97 717.5,-504 717.5,-504 717.5,-504 717.5,-430 717.5,-389.55 716.55,-377.2 698.5,-341 693.47,-330.92 686.08,-321.21 678.68,-312.91"/>
<polygon fill="black" stroke="black" points="681.06,-310.33 671.66,-305.43 675.95,-315.12 681.06,-310.33"/>
</g>
<!-- message_mod -->
<g id="node15" class="node">
<title>message_mod</title>
<g id="a_node15"><a xlink:href="../modules/message_mod.svg" xlink:title="message_mod">
<polygon fill="none" stroke="red" points="765,-233 672,-233 672,-197 765,-197 765,-233"/>
<text text-anchor="middle" x="718.5" y="-211.3" font-family="Times,serif" font-size="14.00">message_mod</text>
</a>
</g>
</g>
<!-- midas_var&#45;&gt;message_mod -->
<g id="edge14" class="edge">
<title>midas_var&#45;&gt;message_mod</title>
<path fill="none" stroke="black" d="M785.81,-628.91C774.71,-602.62 755.5,-550.45 755.5,-504 755.5,-504 755.5,-504 755.5,-358 755.5,-316.71 740.67,-270.77 729.78,-242.63"/>
<polygon fill="black" stroke="black" points="732.94,-241.11 725.99,-233.11 726.44,-243.7 732.94,-241.11"/>
</g>
<!-- midasmpi_mod -->
<g id="node16" class="node">
<title>midasmpi_mod</title>
<g id="a_node16"><a xlink:href="../modules/midasmpi_mod.svg" xlink:title="midasmpi_mod">
<polygon fill="none" stroke="red" points="803,-161 702,-161 702,-125 803,-125 803,-161"/>
<text text-anchor="middle" x="752.5" y="-139.3" font-family="Times,serif" font-size="14.00">midasmpi_mod</text>
</a>
</g>
</g>
<!-- midas_var&#45;&gt;midasmpi_mod -->
<g id="edge15" class="edge">
<title>midas_var&#45;&gt;midasmpi_mod</title>
<path fill="none" stroke="black" d="M793.5,-628.95C793.5,-602.29 793.5,-549.11 793.5,-504 793.5,-504 793.5,-504 793.5,-286 793.5,-244.41 777.06,-198.56 765,-170.51"/>
<polygon fill="black" stroke="black" points="768.05,-168.75 760.8,-161.03 761.65,-171.59 768.05,-168.75"/>
</g>
<!-- minimization_mod -->
<g id="node17" class="node">
<title>minimization_mod</title>
<g id="a_node17"><a xlink:href="../modules/minimization_mod.svg" xlink:title="minimization_mod">
<polygon fill="none" stroke="red" points="892,-89 771,-89 771,-53 892,-53 892,-89"/>
<text text-anchor="middle" x="831.5" y="-67.3" font-family="Times,serif" font-size="14.00">minimization_mod</text>
</a>
</g>
</g>
<!-- midas_var&#45;&gt;minimization_mod -->
<g id="edge16" class="edge">
<title>midas_var&#45;&gt;minimization_mod</title>
<path fill="none" stroke="black" d="M801.19,-628.91C812.29,-602.62 831.5,-550.45 831.5,-504 831.5,-504 831.5,-504 831.5,-214 831.5,-174 831.5,-127.65 831.5,-99.08"/>
<polygon fill="black" stroke="black" points="835,-99.05 831.5,-89.05 828,-99.05 835,-99.05"/>
</g>
<!-- obserrors_mod -->
<g id="node18" class="node">
<title>obserrors_mod</title>
<g id="a_node18"><a xlink:href="../modules/obserrors_mod.svg" xlink:title="obserrors_mod">
<polygon fill="none" stroke="red" points="957.5,-593 859.5,-593 859.5,-557 957.5,-557 957.5,-593"/>
<text text-anchor="middle" x="908.5" y="-571.3" font-family="Times,serif" font-size="14.00">obserrors_mod</text>
</a>
</g>
</g>
<!-- midas_var&#45;&gt;obserrors_mod -->
<g id="edge17" class="edge">
<title>midas_var&#45;&gt;obserrors_mod</title>
<path fill="none" stroke="black" d="M821.63,-628.88C836.67,-619.72 855.37,-608.34 871.56,-598.48"/>
<polygon fill="black" stroke="black" points="873.54,-601.38 880.26,-593.19 869.9,-595.4 873.54,-601.38"/>
</g>
<!-- obsfiles_mod -->
<g id="node19" class="node">
<title>obsfiles_mod</title>
<g id="a_node19"><a xlink:href="../modules/obsfiles_mod.svg" xlink:title="obsfiles_mod">
<polygon fill="none" stroke="red" points="995,-521 906,-521 906,-485 995,-485 995,-521"/>
<text text-anchor="middle" x="950.5" y="-499.3" font-family="Times,serif" font-size="14.00">obsfiles_mod</text>
</a>
</g>
</g>
<!-- midas_var&#45;&gt;obsfiles_mod -->
<g id="edge18" class="edge">
<title>midas_var&#45;&gt;obsfiles_mod</title>
<path fill="none" stroke="black" d="M830.01,-646.54C870.81,-644.94 935.21,-635.3 966.5,-593 979.84,-574.97 973.3,-549.34 964.93,-530.22"/>
<polygon fill="black" stroke="black" points="968.07,-528.67 960.61,-521.15 961.75,-531.68 968.07,-528.67"/>
</g>
<!-- obsspacedata_mod -->
<g id="node20" class="node">
<title>obsspacedata_mod</title>
<g id="a_node20"><a xlink:href="../modules/obsspacedata_mod.svg" xlink:title="obsspacedata_mod">
<polygon fill="none" stroke="red" points="1033.5,-449 915.5,-449 915.5,-413 1033.5,-413 1033.5,-449"/>
<text text-anchor="middle" x="974.5" y="-427.3" font-family="Times,serif" font-size="14.00">obsspacedata_mod</text>
</a>
</g>
</g>
<!-- midas_var&#45;&gt;obsspacedata_mod -->
<g id="edge19" class="edge">
<title>midas_var&#45;&gt;obsspacedata_mod</title>
<path fill="none" stroke="black" d="M830.15,-646.15C873.07,-644.28 943.52,-634.51 984.5,-593 1018.74,-558.32 1015.57,-532.22 1003.5,-485 1001.12,-475.7 996.74,-466.27 992.08,-458"/>
<polygon fill="black" stroke="black" points="994.96,-455.99 986.81,-449.22 988.96,-459.59 994.96,-455.99"/>
</g>
<!-- obsspacediag_mod -->
<g id="node21" class="node">
<title>obsspacediag_mod</title>
<g id="a_node21"><a xlink:href="../modules/obsspacediag_mod.svg" xlink:title="obsspacediag_mod">
<polygon fill="none" stroke="red" points="1071,-377 952,-377 952,-341 1071,-341 1071,-377"/>
<text text-anchor="middle" x="1011.5" y="-355.3" font-family="Times,serif" font-size="14.00">obsspacediag_mod</text>
</a>
</g>
</g>
<!-- midas_var&#45;&gt;obsspacediag_mod -->
<g id="edge20" class="edge">
<title>midas_var&#45;&gt;obsspacediag_mod</title>
<path fill="none" stroke="black" d="M830.32,-641.71C885.45,-634.54 985.67,-618.35 1010.5,-593 1067.35,-534.95 1063.75,-491.43 1042.5,-413 1039.92,-403.48 1035.16,-393.92 1030.12,-385.59"/>
<polygon fill="black" stroke="black" points="1033.01,-383.6 1024.65,-377.09 1027.12,-387.39 1033.01,-383.6"/>
</g>
<!-- ramdisk_mod -->
<g id="node22" class="node">
<title>ramdisk_mod</title>
<g id="a_node22"><a xlink:href="../modules/ramdisk_mod.svg" xlink:title="ramdisk_mod">
<polygon fill="none" stroke="red" points="1109,-305 1018,-305 1018,-269 1109,-269 1109,-305"/>
<text text-anchor="middle" x="1063.5" y="-283.3" font-family="Times,serif" font-size="14.00">ramdisk_mod</text>
</a>
</g>
</g>
<!-- midas_var&#45;&gt;ramdisk_mod -->
<g id="edge21" class="edge">
<title>midas_var&#45;&gt;ramdisk_mod</title>
<path fill="none" stroke="black" d="M830.11,-645.44C911.33,-642.07 1099.5,-621.57 1099.5,-504 1099.5,-504 1099.5,-504 1099.5,-430 1099.5,-388.78 1085.07,-342.83 1074.48,-314.66"/>
<polygon fill="black" stroke="black" points="1077.66,-313.19 1070.79,-305.13 1071.14,-315.72 1077.66,-313.19"/>
</g>
<!-- rmatrix_mod -->
<g id="node23" class="node">
<title>rmatrix_mod</title>
<g id="a_node23"><a xlink:href="../modules/rmatrix_mod.svg" xlink:title="rmatrix_mod">
<polygon fill="none" stroke="red" points="1147,-233 1060,-233 1060,-197 1147,-197 1147,-233"/>
<text text-anchor="middle" x="1103.5" y="-211.3" font-family="Times,serif" font-size="14.00">rmatrix_mod</text>
</a>
</g>
</g>
<!-- midas_var&#45;&gt;rmatrix_mod -->
<g id="edge22" class="edge">
<title>midas_var&#45;&gt;rmatrix_mod</title>
<path fill="none" stroke="black" d="M830.24,-642.86C898.14,-636.47 1040.03,-620.21 1080.5,-593 1119.48,-566.79 1137.5,-550.97 1137.5,-504 1137.5,-504 1137.5,-504 1137.5,-358 1137.5,-316.91 1123.87,-270.92 1113.87,-242.72"/>
<polygon fill="black" stroke="black" points="1117.1,-241.36 1110.38,-233.17 1110.53,-243.76 1117.1,-241.36"/>
</g>
<!-- statetocolumn_mod -->
<g id="node24" class="node">
<title>statetocolumn_mod</title>
<g id="a_node24"><a xlink:href="../modules/statetocolumn_mod.svg" xlink:title="statetocolumn_mod">
<polygon fill="none" stroke="red" points="1185.5,-161 1061.5,-161 1061.5,-125 1185.5,-125 1185.5,-161"/>
<text text-anchor="middle" x="1123.5" y="-139.3" font-family="Times,serif" font-size="14.00">statetocolumn_mod</text>
</a>
</g>
</g>
<!-- midas_var&#45;&gt;statetocolumn_mod -->
<g id="edge23" class="edge">
<title>midas_var&#45;&gt;statetocolumn_mod</title>
<path fill="none" stroke="black" d="M830,-643.61C904.01,-638.2 1068.65,-623.06 1115.5,-593 1155.65,-567.24 1175.5,-551.7 1175.5,-504 1175.5,-504 1175.5,-504 1175.5,-286 1175.5,-245.46 1170.62,-234.62 1155.5,-197 1151.79,-187.77 1146.58,-178.29 1141.44,-169.94"/>
<polygon fill="black" stroke="black" points="1144.31,-167.93 1135.97,-161.4 1138.42,-171.71 1144.31,-167.93"/>
</g>
<!-- timecoord_mod -->
<g id="node25" class="node">
<title>timecoord_mod</title>
<g id="a_node25"><a xlink:href="../modules/timecoord_mod.svg" xlink:title="timecoord_mod">
<polygon fill="none" stroke="red" points="1264.5,-89 1162.5,-89 1162.5,-53 1264.5,-53 1264.5,-89"/>
<text text-anchor="middle" x="1213.5" y="-67.3" font-family="Times,serif" font-size="14.00">timecoord_mod</text>
</a>
</g>
</g>
<!-- midas_var&#45;&gt;timecoord_mod -->
<g id="edge24" class="edge">
<title>midas_var&#45;&gt;timecoord_mod</title>
<path fill="none" stroke="black" d="M830.03,-644.23C910.1,-639.79 1098.16,-626.05 1151.5,-593 1192.48,-567.61 1213.5,-552.21 1213.5,-504 1213.5,-504 1213.5,-504 1213.5,-214 1213.5,-174 1213.5,-127.65 1213.5,-99.08"/>
<polygon fill="black" stroke="black" points="1217,-99.05 1213.5,-89.05 1210,-99.05 1217,-99.05"/>
</g>
<!-- tovs_nl_mod -->
<g id="node26" class="node">
<title>tovs_nl_mod</title>
<g id="a_node26"><a xlink:href="../modules/tovs_nl_mod.svg" xlink:title="tovs_nl_mod">
<polygon fill="none" stroke="red" points="1329,-593 1242,-593 1242,-557 1329,-557 1329,-593"/>
<text text-anchor="middle" x="1285.5" y="-571.3" font-family="Times,serif" font-size="14.00">tovs_nl_mod</text>
</a>
</g>
</g>
<!-- midas_var&#45;&gt;tovs_nl_mod -->
<g id="edge25" class="edge">
<title>midas_var&#45;&gt;tovs_nl_mod</title>
<path fill="none" stroke="black" d="M830.12,-643.56C905.25,-638.11 1081.97,-623 1227.5,-593 1228.98,-592.7 1230.47,-592.37 1231.98,-592.03"/>
<polygon fill="black" stroke="black" points="1233.11,-595.36 1241.99,-589.58 1231.44,-588.56 1233.11,-595.36"/>
</g>
<!-- utilities_mod -->
<g id="node27" class="node">
<title>utilities_mod</title>
<g id="a_node27"><a xlink:href="../modules/utilities_mod.svg" xlink:title="utilities_mod">
<polygon fill="none" stroke="red" points="1367.5,-521 1279.5,-521 1279.5,-485 1367.5,-485 1367.5,-521"/>
<text text-anchor="middle" x="1323.5" y="-499.3" font-family="Times,serif" font-size="14.00">utilities_mod</text>
</a>
</g>
</g>
<!-- midas_var&#45;&gt;utilities_mod -->
<g id="edge26" class="edge">
<title>midas_var&#45;&gt;utilities_mod</title>
<path fill="none" stroke="black" d="M830.28,-645.21C947,-642.35 1303.43,-630.55 1337.5,-593 1352.76,-576.18 1346.2,-549.8 1337.67,-530.12"/>
<polygon fill="black" stroke="black" points="1340.83,-528.62 1333.41,-521.07 1334.5,-531.61 1340.83,-528.62"/>
</g>
<!-- varqc_mod -->
<g id="node28" class="node">
<title>varqc_mod</title>
<g id="a_node28"><a xlink:href="../modules/varqc_mod.svg" xlink:title="varqc_mod">
<polygon fill="none" stroke="red" points="1419,-449 1342,-449 1342,-413 1419,-413 1419,-449"/>
<text text-anchor="middle" x="1380.5" y="-427.3" font-family="Times,serif" font-size="14.00">varqc_mod</text>
</a>
</g>
</g>
<!-- midas_var&#45;&gt;varqc_mod -->
<g id="edge27" class="edge">
<title>midas_var&#45;&gt;varqc_mod</title>
<path fill="none" stroke="black" d="M830.32,-644.92C949.01,-641.13 1316.17,-626.75 1356.5,-593 1394.96,-560.81 1391.63,-495.87 1385.97,-459.06"/>
<polygon fill="black" stroke="black" points="1389.39,-458.31 1384.26,-449.04 1382.49,-459.49 1389.39,-458.31"/>
</g>
<!-- version_mod -->
<g id="node29" class="node">
<title>version_mod</title>
<g id="a_node29"><a xlink:href="../modules/version_mod.html" xlink:title="version_mod">
<polygon fill="gray" stroke="black" points="1490.5,-377 1404.5,-377 1404.5,-341 1490.5,-341 1490.5,-377"/>
<text text-anchor="middle" x="1447.5" y="-355.3" font-family="Times,serif" font-size="14.00">version_mod</text>
</a>
</g>
</g>
<!-- midas_var&#45;&gt;version_mod -->
<g id="edge28" class="edge">
<title>midas_var&#45;&gt;version_mod</title>
<path fill="none" stroke="black" d="M830.25,-645.04C952.4,-641.51 1339.5,-627.69 1382.5,-593 1445.08,-542.52 1450.41,-437.23 1449.12,-387.34"/>
<polygon fill="black" stroke="black" points="1452.62,-387.16 1448.75,-377.3 1445.62,-387.42 1452.62,-387.16"/>
</g>
<!-- verticalcoord_mod -->
<g id="node30" class="node">
<title>verticalcoord_mod</title>
<g id="a_node30"><a xlink:href="../modules/verticalcoord_mod.svg" xlink:title="verticalcoord_mod">
<polygon fill="none" stroke="red" points="1577.5,-305 1459.5,-305 1459.5,-269 1577.5,-269 1577.5,-305"/>
<text text-anchor="middle" x="1518.5" y="-283.3" font-family="Times,serif" font-size="14.00">verticalcoord_mod</text>
</a>
</g>
</g>
<!-- midas_var&#45;&gt;verticalcoord_mod -->
<g id="edge29" class="edge">
<title>midas_var&#45;&gt;verticalcoord_mod</title>
<path fill="none" stroke="black" d="M830.22,-645.74C946.64,-644.47 1306.09,-636.98 1412.5,-593 1469.35,-569.5 1518.5,-565.52 1518.5,-504 1518.5,-504 1518.5,-504 1518.5,-430 1518.5,-390 1518.5,-343.65 1518.5,-315.08"/>
<polygon fill="black" stroke="black" points="1522,-315.05 1518.5,-305.05 1515,-315.05 1522,-315.05"/>
</g>
</g>
</svg>
