<?xml version="1.0" encoding="UTF-8" standalone="no"?>
<!DOCTYPE svg PUBLIC "-//W3C//DTD SVG 1.1//EN"
 "http://www.w3.org/Graphics/SVG/1.1/DTD/svg11.dtd">
<!-- Generated by graphviz version 3.0.0 (20220315.2325)
 -->
<!-- Title: midas_diagbmatrix Pages: 1 -->
<svg width="1013pt" height="673pt"
 viewBox="0.00 0.00 1012.50 673.00" xmlns="http://www.w3.org/2000/svg" xmlns:xlink="http://www.w3.org/1999/xlink">
<g id="graph0" class="graph" transform="scale(1 1) rotate(0) translate(4 669)">
<title>midas_diagbmatrix</title>
<polygon fill="white" stroke="transparent" points="-4,4 -4,-669 1008.5,-669 1008.5,4 -4,4"/>
<text text-anchor="middle" x="502.25" y="-37.8" font-family="Times,serif" font-size="14.00">Red boxes indicate modules with dependencies not shown</text>
<text text-anchor="middle" x="502.25" y="-22.8" font-family="Times,serif" font-size="14.00">Lower level dependencies can be shown by clicking on a red box</text>
<text text-anchor="middle" x="502.25" y="-7.8" font-family="Times,serif" font-size="14.00">Shaded boxes indicate modules with no dependencies</text>
<!-- midas_diagbmatrix -->
<g id="node1" class="node">
<title>midas_diagbmatrix</title>
<g id="a_node1"><a xlink:href="midas_diagbmatrix.html" xlink:title="midas_diagbmatrix">
<polygon fill="none" stroke="black" points="588,-665 467,-665 467,-629 588,-629 588,-665"/>
<text text-anchor="middle" x="527.5" y="-643.3" font-family="Times,serif" font-size="14.00">midas_diagbmatrix</text>
</a>
</g>
</g>
<!-- advection_mod -->
<g id="node2" class="node">
<title>advection_mod</title>
<g id="a_node2"><a xlink:href="../modules/advection_mod.svg" xlink:title="advection_mod">
<polygon fill="none" stroke="red" points="99,-593 0,-593 0,-557 99,-557 99,-593"/>
<text text-anchor="middle" x="49.5" y="-571.3" font-family="Times,serif" font-size="14.00">advection_mod</text>
</a>
</g>
</g>
<!-- midas_diagbmatrix&#45;&gt;advection_mod -->
<g id="edge1" class="edge">
<title>midas_diagbmatrix&#45;&gt;advection_mod</title>
<path fill="none" stroke="black" d="M466.76,-640.76C385.71,-633.2 237.94,-617.38 113.5,-593 112.05,-592.72 110.59,-592.42 109.12,-592.11"/>
<polygon fill="black" stroke="black" points="109.84,-588.68 99.31,-589.91 108.31,-595.51 109.84,-588.68"/>
</g>
<!-- bmatrixensemble_mod -->
<g id="node3" class="node">
<title>bmatrixensemble_mod</title>
<g id="a_node3"><a xlink:href="../modules/bmatrixensemble_mod.svg" xlink:title="bmatrixensemble_mod">
<polygon fill="none" stroke="red" points="167.5,-521 27.5,-521 27.5,-485 167.5,-485 167.5,-521"/>
<text text-anchor="middle" x="97.5" y="-499.3" font-family="Times,serif" font-size="14.00">bmatrixensemble_mod</text>
</a>
</g>
</g>
<!-- midas_diagbmatrix&#45;&gt;bmatrixensemble_mod -->
<g id="edge2" class="edge">
<title>midas_diagbmatrix&#45;&gt;bmatrixensemble_mod</title>
<path fill="none" stroke="black" d="M466.93,-641.48C381.31,-634.29 229.93,-618.41 181.5,-593 153.35,-578.23 129.41,-550.32 114.38,-529.68"/>
<polygon fill="black" stroke="black" points="117.12,-527.49 108.49,-521.34 111.39,-531.53 117.12,-527.49"/>
</g>
<!-- bmatrix_mod -->
<g id="node4" class="node">
<title>bmatrix_mod</title>
<g id="a_node4"><a xlink:href="../modules/bmatrix_mod.svg" xlink:title="bmatrix_mod">
<polygon fill="none" stroke="red" points="205,-449 116,-449 116,-413 205,-413 205,-449"/>
<text text-anchor="middle" x="160.5" y="-427.3" font-family="Times,serif" font-size="14.00">bmatrix_mod</text>
</a>
</g>
</g>
<!-- midas_diagbmatrix&#45;&gt;bmatrix_mod -->
<g id="edge3" class="edge">
<title>midas_diagbmatrix&#45;&gt;bmatrix_mod</title>
<path fill="none" stroke="black" d="M466.81,-642.67C388,-637.16 256.17,-623.58 219.5,-593 208.81,-584.09 182.25,-502.28 168.72,-458.84"/>
<polygon fill="black" stroke="black" points="172.03,-457.7 165.73,-449.18 165.34,-459.77 172.03,-457.7"/>
</g>
<!-- controlvector_mod -->
<g id="node5" class="node">
<title>controlvector_mod</title>
<g id="a_node5"><a xlink:href="../modules/controlvector_mod.svg" xlink:title="controlvector_mod">
<polygon fill="none" stroke="red" points="243.5,-377 125.5,-377 125.5,-341 243.5,-341 243.5,-377"/>
<text text-anchor="middle" x="184.5" y="-355.3" font-family="Times,serif" font-size="14.00">controlvector_mod</text>
</a>
</g>
</g>
<!-- midas_diagbmatrix&#45;&gt;controlvector_mod -->
<g id="edge4" class="edge">
<title>midas_diagbmatrix&#45;&gt;controlvector_mod</title>
<path fill="none" stroke="black" d="M466.81,-641.6C396.61,-635.26 286.91,-621.09 257.5,-593 197.94,-536.12 243.3,-489.78 213.5,-413 209.97,-403.91 205.18,-394.43 200.51,-386.04"/>
<polygon fill="black" stroke="black" points="203.39,-384.03 195.36,-377.11 197.32,-387.52 203.39,-384.03"/>
</g>
<!-- ensemblestatevector_mod -->
<g id="node6" class="node">
<title>ensemblestatevector_mod</title>
<g id="a_node6"><a xlink:href="../modules/ensemblestatevector_mod.svg" xlink:title="ensemblestatevector_mod">
<polygon fill="none" stroke="red" points="281.5,-305 125.5,-305 125.5,-269 281.5,-269 281.5,-305"/>
<text text-anchor="middle" x="203.5" y="-283.3" font-family="Times,serif" font-size="14.00">ensemblestatevector_mod</text>
</a>
</g>
</g>
<!-- midas_diagbmatrix&#45;&gt;ensemblestatevector_mod -->
<g id="edge5" class="edge">
<title>midas_diagbmatrix&#45;&gt;ensemblestatevector_mod</title>
<path fill="none" stroke="black" d="M466.94,-639.27C406.65,-631.35 319.69,-616.27 295.5,-593 265.97,-564.6 271.5,-544.97 271.5,-504 271.5,-504 271.5,-504 271.5,-430 271.5,-389.55 271.12,-376.91 252.5,-341 247.11,-330.61 239.13,-320.74 231.17,-312.41"/>
<polygon fill="black" stroke="black" points="233.49,-309.78 223.94,-305.21 228.56,-314.74 233.49,-309.78"/>
</g>
<!-- gridstatevectorfileio_mod -->
<g id="node7" class="node">
<title>gridstatevectorfileio_mod</title>
<g id="a_node7"><a xlink:href="../modules/gridstatevectorfileio_mod.svg" xlink:title="gridstatevectorfileio_mod">
<polygon fill="none" stroke="red" points="319,-233 164,-233 164,-197 319,-197 319,-233"/>
<text text-anchor="middle" x="241.5" y="-211.3" font-family="Times,serif" font-size="14.00">gridstatevectorfileio_mod</text>
</a>
</g>
</g>
<!-- midas_diagbmatrix&#45;&gt;gridstatevectorfileio_mod -->
<g id="edge6" class="edge">
<title>midas_diagbmatrix&#45;&gt;gridstatevectorfileio_mod</title>
<path fill="none" stroke="black" d="M466.72,-644.68C423.97,-640.49 368.38,-627.99 333.5,-593 304.58,-563.98 309.5,-544.97 309.5,-504 309.5,-504 309.5,-504 309.5,-358 309.5,-317.55 309.12,-304.91 290.5,-269 285.11,-258.61 277.13,-248.74 269.17,-240.41"/>
<polygon fill="black" stroke="black" points="271.49,-237.78 261.94,-233.21 266.56,-242.74 271.49,-237.78"/>
</g>
<!-- gridstatevector_mod -->
<g id="node8" class="node">
<title>gridstatevector_mod</title>
<g id="a_node8"><a xlink:href="../modules/gridstatevector_mod.svg" xlink:title="gridstatevector_mod">
<polygon fill="none" stroke="red" points="357,-161 230,-161 230,-125 357,-125 357,-161"/>
<text text-anchor="middle" x="293.5" y="-139.3" font-family="Times,serif" font-size="14.00">gridstatevector_mod</text>
</a>
</g>
</g>
<!-- midas_diagbmatrix&#45;&gt;gridstatevector_mod -->
<g id="edge7" class="edge">
<title>midas_diagbmatrix&#45;&gt;gridstatevector_mod</title>
<path fill="none" stroke="black" d="M466.75,-639.22C434.33,-632.54 396.15,-619.29 371.5,-593 343.47,-563.12 347.5,-544.97 347.5,-504 347.5,-504 347.5,-504 347.5,-286 347.5,-245.46 343.13,-234.41 327.5,-197 323.56,-187.57 317.96,-177.95 312.44,-169.55"/>
<polygon fill="black" stroke="black" points="315.33,-167.57 306.79,-161.29 309.55,-171.52 315.33,-167.57"/>
</g>
<!-- gridvariabletransforms_mod -->
<g id="node9" class="node">
<title>gridvariabletransforms_mod</title>
<g id="a_node9"><a xlink:href="../modules/gridvariabletransforms_mod.svg" xlink:title="gridvariabletransforms_mod">
<polygon fill="none" stroke="red" points="470.5,-89 300.5,-89 300.5,-53 470.5,-53 470.5,-89"/>
<text text-anchor="middle" x="385.5" y="-67.3" font-family="Times,serif" font-size="14.00">gridvariabletransforms_mod</text>
</a>
</g>
</g>
<!-- midas_diagbmatrix&#45;&gt;gridvariabletransforms_mod -->
<g id="edge8" class="edge">
<title>midas_diagbmatrix&#45;&gt;gridvariabletransforms_mod</title>
<path fill="none" stroke="black" d="M466.72,-632.47C444.13,-624.53 420.21,-612.14 404.5,-593 378.84,-561.73 385.5,-544.45 385.5,-504 385.5,-504 385.5,-504 385.5,-214 385.5,-174 385.5,-127.65 385.5,-99.08"/>
<polygon fill="black" stroke="black" points="389,-99.05 385.5,-89.05 382,-99.05 389,-99.05"/>
</g>
<!-- horizontalcoord_mod -->
<g id="node10" class="node">
<title>horizontalcoord_mod</title>
<g id="a_node10"><a xlink:href="../modules/horizontalcoord_mod.svg" xlink:title="horizontalcoord_mod">
<polygon fill="none" stroke="red" points="547,-593 414,-593 414,-557 547,-557 547,-593"/>
<text text-anchor="middle" x="480.5" y="-571.3" font-family="Times,serif" font-size="14.00">horizontalcoord_mod</text>
</a>
</g>
</g>
<!-- midas_diagbmatrix&#45;&gt;horizontalcoord_mod -->
<g id="edge9" class="edge">
<title>midas_diagbmatrix&#45;&gt;horizontalcoord_mod</title>
<path fill="none" stroke="black" d="M515.88,-628.7C510.36,-620.47 503.65,-610.48 497.57,-601.42"/>
<polygon fill="black" stroke="black" points="500.46,-599.46 491.98,-593.1 494.65,-603.36 500.46,-599.46"/>
</g>
<!-- localization_mod -->
<g id="node11" class="node">
<title>localization_mod</title>
<g id="a_node11"><a xlink:href="../modules/localization_mod.svg" xlink:title="localization_mod">
<polygon fill="none" stroke="red" points="585.5,-521 475.5,-521 475.5,-485 585.5,-485 585.5,-521"/>
<text text-anchor="middle" x="530.5" y="-499.3" font-family="Times,serif" font-size="14.00">localization_mod</text>
</a>
</g>
</g>
<!-- midas_diagbmatrix&#45;&gt;localization_mod -->
<g id="edge10" class="edge">
<title>midas_diagbmatrix&#45;&gt;localization_mod</title>
<path fill="none" stroke="black" d="M539.39,-628.72C545.51,-618.76 552.34,-605.73 555.5,-593 559.35,-577.47 559,-572.61 555.5,-557 553.49,-548.01 549.77,-538.75 545.8,-530.53"/>
<polygon fill="black" stroke="black" points="548.82,-528.73 541.13,-521.44 542.59,-531.94 548.82,-528.73"/>
</g>
<!-- midasmpi_mod -->
<g id="node12" class="node">
<title>midasmpi_mod</title>
<g id="a_node12"><a xlink:href="../modules/midasmpi_mod.svg" xlink:title="midasmpi_mod">
<polygon fill="none" stroke="red" points="623,-449 522,-449 522,-413 623,-413 623,-449"/>
<text text-anchor="middle" x="572.5" y="-427.3" font-family="Times,serif" font-size="14.00">midasmpi_mod</text>
</a>
</g>
</g>
<!-- midas_diagbmatrix&#45;&gt;midasmpi_mod -->
<g id="edge11" class="edge">
<title>midas_diagbmatrix&#45;&gt;midasmpi_mod</title>
<path fill="none" stroke="black" d="M544.85,-628.63C553.83,-618.85 564.38,-606.01 571.5,-593 587.64,-563.54 589.33,-554.19 594.5,-521 596.96,-505.19 597.63,-500.69 594.5,-485 592.71,-476.01 589.36,-466.64 585.81,-458.32"/>
<polygon fill="black" stroke="black" points="588.96,-456.77 581.63,-449.12 582.58,-459.67 588.96,-456.77"/>
</g>
<!-- ramdisk_mod -->
<g id="node13" class="node">
<title>ramdisk_mod</title>
<g id="a_node13"><a xlink:href="../modules/ramdisk_mod.svg" xlink:title="ramdisk_mod">
<polygon fill="none" stroke="red" points="661,-377 570,-377 570,-341 661,-341 661,-377"/>
<text text-anchor="middle" x="615.5" y="-355.3" font-family="Times,serif" font-size="14.00">ramdisk_mod</text>
</a>
</g>
</g>
<!-- midas_diagbmatrix&#45;&gt;ramdisk_mod -->
<g id="edge12" class="edge">
<title>midas_diagbmatrix&#45;&gt;ramdisk_mod</title>
<path fill="none" stroke="black" d="M556.46,-628.84C569.54,-619.73 584.13,-607.42 593.5,-593 638.04,-524.43 643.44,-493.89 631.5,-413 630.22,-404.35 627.83,-395.15 625.28,-386.89"/>
<polygon fill="black" stroke="black" points="628.6,-385.78 622.15,-377.37 621.95,-387.96 628.6,-385.78"/>
</g>
<!-- randomnumber_mod -->
<g id="node14" class="node">
<title>randomnumber_mod</title>
<g id="a_node14"><a xlink:href="../modules/randomnumber_mod.html" xlink:title="randomnumber_mod">
<polygon fill="gray" stroke="black" points="699,-305 568,-305 568,-269 699,-269 699,-305"/>
<text text-anchor="middle" x="633.5" y="-283.3" font-family="Times,serif" font-size="14.00">randomnumber_mod</text>
</a>
</g>
</g>
<!-- midas_diagbmatrix&#45;&gt;randomnumber_mod -->
<g id="edge13" class="edge">
<title>midas_diagbmatrix&#45;&gt;randomnumber_mod</title>
<path fill="none" stroke="black" d="M573.06,-628.9C620.97,-607.61 689.5,-566.27 689.5,-504 689.5,-504 689.5,-504 689.5,-430 689.5,-389.46 685.62,-378.2 669.5,-341 665.36,-331.46 659.45,-321.81 653.6,-313.41"/>
<polygon fill="black" stroke="black" points="656.32,-311.2 647.61,-305.17 650.66,-315.32 656.32,-311.2"/>
</g>
<!-- timecoord_mod -->
<g id="node15" class="node">
<title>timecoord_mod</title>
<g id="a_node15"><a xlink:href="../modules/timecoord_mod.svg" xlink:title="timecoord_mod">
<polygon fill="none" stroke="red" points="737.5,-233 635.5,-233 635.5,-197 737.5,-197 737.5,-233"/>
<text text-anchor="middle" x="686.5" y="-211.3" font-family="Times,serif" font-size="14.00">timecoord_mod</text>
</a>
</g>
</g>
<!-- midas_diagbmatrix&#45;&gt;timecoord_mod -->
<g id="edge14" class="edge">
<title>midas_diagbmatrix&#45;&gt;timecoord_mod</title>
<path fill="none" stroke="black" d="M588.05,-630.7C646.91,-611.76 727.5,-573.2 727.5,-504 727.5,-504 727.5,-504 727.5,-358 727.5,-316.41 711.06,-270.56 699,-242.51"/>
<polygon fill="black" stroke="black" points="702.05,-240.75 694.8,-233.03 695.65,-243.59 702.05,-240.75"/>
</g>
<!-- utilities_mod -->
<g id="node16" class="node">
<title>utilities_mod</title>
<g id="a_node16"><a xlink:href="../modules/utilities_mod.svg" xlink:title="utilities_mod">
<polygon fill="none" stroke="red" points="775.5,-161 687.5,-161 687.5,-125 775.5,-125 775.5,-161"/>
<text text-anchor="middle" x="731.5" y="-139.3" font-family="Times,serif" font-size="14.00">utilities_mod</text>
</a>
</g>
</g>
<!-- midas_diagbmatrix&#45;&gt;utilities_mod -->
<g id="edge15" class="edge">
<title>midas_diagbmatrix&#45;&gt;utilities_mod</title>
<path fill="none" stroke="black" d="M588.17,-636.77C658.69,-622.2 765.5,-586.52 765.5,-504 765.5,-504 765.5,-504 765.5,-286 765.5,-244.91 751.87,-198.92 741.87,-170.72"/>
<polygon fill="black" stroke="black" points="745.1,-169.36 738.38,-161.17 738.53,-171.76 745.1,-169.36"/>
</g>
<!-- varnamelist_mod -->
<g id="node17" class="node">
<title>varnamelist_mod</title>
<g id="a_node17"><a xlink:href="../modules/varnamelist_mod.svg" xlink:title="varnamelist_mod">
<polygon fill="none" stroke="red" points="858.5,-89 748.5,-89 748.5,-53 858.5,-53 858.5,-89"/>
<text text-anchor="middle" x="803.5" y="-67.3" font-family="Times,serif" font-size="14.00">varnamelist_mod</text>
</a>
</g>
</g>
<!-- midas_diagbmatrix&#45;&gt;varnamelist_mod -->
<g id="edge16" class="edge">
<title>midas_diagbmatrix&#45;&gt;varnamelist_mod</title>
<path fill="none" stroke="black" d="M588.07,-641.28C669.31,-631.28 803.5,-600.19 803.5,-504 803.5,-504 803.5,-504 803.5,-214 803.5,-174 803.5,-127.65 803.5,-99.08"/>
<polygon fill="black" stroke="black" points="807,-99.05 803.5,-89.05 800,-99.05 807,-99.05"/>
</g>
<!-- version_mod -->
<g id="node18" class="node">
<title>version_mod</title>
<g id="a_node18"><a xlink:href="../modules/version_mod.html" xlink:title="version_mod">
<polygon fill="gray" stroke="black" points="917.5,-593 831.5,-593 831.5,-557 917.5,-557 917.5,-593"/>
<text text-anchor="middle" x="874.5" y="-571.3" font-family="Times,serif" font-size="14.00">version_mod</text>
</a>
</g>
</g>
<!-- midas_diagbmatrix&#45;&gt;version_mod -->
<g id="edge17" class="edge">
<title>midas_diagbmatrix&#45;&gt;version_mod</title>
<path fill="none" stroke="black" d="M588.16,-636.89C647.12,-627.57 738.99,-611.82 817.5,-593 818.77,-592.7 820.06,-592.38 821.35,-592.05"/>
<polygon fill="black" stroke="black" points="822.6,-595.34 831.37,-589.4 820.81,-588.58 822.6,-595.34"/>
</g>
<!-- verticalcoord_mod -->
<g id="node19" class="node">
<title>verticalcoord_mod</title>
<g id="a_node19"><a xlink:href="../modules/verticalcoord_mod.svg" xlink:title="verticalcoord_mod">
<polygon fill="none" stroke="red" points="1004.5,-521 886.5,-521 886.5,-485 1004.5,-485 1004.5,-521"/>
<text text-anchor="middle" x="945.5" y="-499.3" font-family="Times,serif" font-size="14.00">verticalcoord_mod</text>
</a>
</g>
</g>
<!-- midas_diagbmatrix&#45;&gt;verticalcoord_mod -->
<g id="edge18" class="edge">
<title>midas_diagbmatrix&#45;&gt;verticalcoord_mod</title>
<path fill="none" stroke="black" d="M588.38,-646.19C687.74,-645.19 878.53,-637.36 926.5,-593 943.22,-577.54 947.13,-551.29 947.36,-531.29"/>
<polygon fill="black" stroke="black" points="950.86,-531.15 947.18,-521.21 943.86,-531.27 950.86,-531.15"/>
</g>
</g>
</svg>
