<?xml version="1.0" encoding="UTF-8" standalone="no"?>
<!DOCTYPE svg PUBLIC "-//W3C//DTD SVG 1.1//EN"
 "http://www.w3.org/Graphics/SVG/1.1/DTD/svg11.dtd">
<!-- Generated by graphviz version 3.0.0 (20220315.2325)
 -->
<!-- Title: midas_letkf Pages: 1 -->
<svg width="1377pt" height="673pt"
 viewBox="0.00 0.00 1376.50 673.00" xmlns="http://www.w3.org/2000/svg" xmlns:xlink="http://www.w3.org/1999/xlink">
<g id="graph0" class="graph" transform="scale(1 1) rotate(0) translate(4 669)">
<title>midas_letkf</title>
<polygon fill="white" stroke="transparent" points="-4,4 -4,-669 1372.5,-669 1372.5,4 -4,4"/>
<text text-anchor="middle" x="684.25" y="-37.8" font-family="Times,serif" font-size="14.00">Red boxes indicate modules with dependencies not shown</text>
<text text-anchor="middle" x="684.25" y="-22.8" font-family="Times,serif" font-size="14.00">Lower level dependencies can be shown by clicking on a red box</text>
<text text-anchor="middle" x="684.25" y="-7.8" font-family="Times,serif" font-size="14.00">Shaded boxes indicate modules with no dependencies</text>
<!-- midas_letkf -->
<g id="node1" class="node">
<title>midas_letkf</title>
<g id="a_node1"><a xlink:href="midas_letkf.html" xlink:title="midas_letkf">
<polygon fill="none" stroke="black" points="727,-665 644,-665 644,-629 727,-629 727,-665"/>
<text text-anchor="middle" x="685.5" y="-643.3" font-family="Times,serif" font-size="14.00">midas_letkf</text>
</a>
</g>
</g>
<!-- columndata_mod -->
<g id="node2" class="node">
<title>columndata_mod</title>
<g id="a_node2"><a xlink:href="../modules/columndata_mod.svg" xlink:title="columndata_mod">
<polygon fill="none" stroke="red" points="111,-593 0,-593 0,-557 111,-557 111,-593"/>
<text text-anchor="middle" x="55.5" y="-571.3" font-family="Times,serif" font-size="14.00">columndata_mod</text>
</a>
</g>
</g>
<!-- midas_letkf&#45;&gt;columndata_mod -->
<g id="edge1" class="edge">
<title>midas_letkf&#45;&gt;columndata_mod</title>
<path fill="none" stroke="black" d="M643.78,-644.11C550.4,-639.42 317.64,-625.25 125.5,-593 124.04,-592.75 122.56,-592.49 121.07,-592.22"/>
<polygon fill="black" stroke="black" points="121.62,-588.77 111.13,-590.28 120.27,-595.63 121.62,-588.77"/>
</g>
<!-- enkf_mod -->
<g id="node3" class="node">
<title>enkf_mod</title>
<g id="a_node3"><a xlink:href="../modules/enkf_mod.svg" xlink:title="enkf_mod">
<polygon fill="none" stroke="red" points="163,-521 90,-521 90,-485 163,-485 163,-521"/>
<text text-anchor="middle" x="126.5" y="-499.3" font-family="Times,serif" font-size="14.00">enkf_mod</text>
</a>
</g>
</g>
<!-- midas_letkf&#45;&gt;enkf_mod -->
<g id="edge2" class="edge">
<title>midas_letkf&#45;&gt;enkf_mod</title>
<path fill="none" stroke="black" d="M643.69,-646.43C536.34,-646.79 254.04,-642.84 177.5,-593 155.44,-578.64 141.85,-551.19 134.31,-530.55"/>
<polygon fill="black" stroke="black" points="137.61,-529.4 131.08,-521.06 130.99,-531.65 137.61,-529.4"/>
</g>
<!-- ensembleobservations_mod -->
<g id="node4" class="node">
<title>ensembleobservations_mod</title>
<g id="a_node4"><a xlink:href="../modules/ensembleobservations_mod.svg" xlink:title="ensembleobservations_mod">
<polygon fill="none" stroke="red" points="201.5,-449 35.5,-449 35.5,-413 201.5,-413 201.5,-449"/>
<text text-anchor="middle" x="118.5" y="-427.3" font-family="Times,serif" font-size="14.00">ensembleobservations_mod</text>
</a>
</g>
</g>
<!-- midas_letkf&#45;&gt;ensembleobservations_mod -->
<g id="edge3" class="edge">
<title>midas_letkf&#45;&gt;ensembleobservations_mod</title>
<path fill="none" stroke="black" d="M643.84,-646.58C541.72,-647.21 282.36,-643.62 215.5,-593 174.18,-561.71 200.17,-528.18 171.5,-485 164.6,-474.6 155.43,-464.56 146.66,-456.06"/>
<polygon fill="black" stroke="black" points="148.82,-453.29 139.12,-449.02 144.04,-458.4 148.82,-453.29"/>
</g>
<!-- ensemblestatevector_mod -->
<g id="node5" class="node">
<title>ensemblestatevector_mod</title>
<g id="a_node5"><a xlink:href="../modules/ensemblestatevector_mod.svg" xlink:title="ensemblestatevector_mod">
<polygon fill="none" stroke="red" points="239.5,-377 83.5,-377 83.5,-341 239.5,-341 239.5,-377"/>
<text text-anchor="middle" x="161.5" y="-355.3" font-family="Times,serif" font-size="14.00">ensemblestatevector_mod</text>
</a>
</g>
</g>
<!-- midas_letkf&#45;&gt;ensemblestatevector_mod -->
<g id="edge4" class="edge">
<title>midas_letkf&#45;&gt;ensemblestatevector_mod</title>
<path fill="none" stroke="black" d="M643.9,-646.7C547.07,-647.46 310.48,-643.91 253.5,-593 192.16,-538.2 249.23,-485.56 210.5,-413 204.99,-402.67 196.97,-392.83 189.02,-384.49"/>
<polygon fill="black" stroke="black" points="191.35,-381.87 181.8,-377.28 186.4,-386.82 191.35,-381.87"/>
</g>
<!-- enspostprocess_mod -->
<g id="node6" class="node">
<title>enspostprocess_mod</title>
<g id="a_node6"><a xlink:href="../modules/enspostprocess_mod.svg" xlink:title="enspostprocess_mod">
<polygon fill="none" stroke="red" points="277.5,-305 149.5,-305 149.5,-269 277.5,-269 277.5,-305"/>
<text text-anchor="middle" x="213.5" y="-283.3" font-family="Times,serif" font-size="14.00">enspostprocess_mod</text>
</a>
</g>
</g>
<!-- midas_letkf&#45;&gt;enspostprocess_mod -->
<g id="edge5" class="edge">
<title>midas_letkf&#45;&gt;enspostprocess_mod</title>
<path fill="none" stroke="black" d="M643.96,-646.03C553.61,-645.24 343.23,-638.43 291.5,-593 260.71,-565.97 267.5,-544.97 267.5,-504 267.5,-504 267.5,-504 267.5,-430 267.5,-389.55 264.14,-378.3 248.5,-341 244.51,-331.49 238.77,-321.86 233.08,-313.46"/>
<polygon fill="black" stroke="black" points="235.88,-311.36 227.25,-305.21 230.17,-315.4 235.88,-311.36"/>
</g>
<!-- filenames_mod -->
<g id="node7" class="node">
<title>filenames_mod</title>
<g id="a_node7"><a xlink:href="../modules/filenames_mod.svg" xlink:title="filenames_mod">
<polygon fill="none" stroke="red" points="315,-233 216,-233 216,-197 315,-197 315,-233"/>
<text text-anchor="middle" x="265.5" y="-211.3" font-family="Times,serif" font-size="14.00">filenames_mod</text>
</a>
</g>
</g>
<!-- midas_letkf&#45;&gt;filenames_mod -->
<g id="edge6" class="edge">
<title>midas_letkf&#45;&gt;filenames_mod</title>
<path fill="none" stroke="black" d="M643.86,-645.35C560.09,-643.18 375.29,-633.78 329.5,-593 298.91,-565.75 305.5,-544.97 305.5,-504 305.5,-504 305.5,-504 305.5,-358 305.5,-316.48 289.46,-270.61 277.7,-242.54"/>
<polygon fill="black" stroke="black" points="280.77,-240.84 273.59,-233.05 274.35,-243.62 280.77,-240.84"/>
</g>
<!-- gridstatevectorfileio_mod -->
<g id="node8" class="node">
<title>gridstatevectorfileio_mod</title>
<g id="a_node8"><a xlink:href="../modules/gridstatevectorfileio_mod.svg" xlink:title="gridstatevectorfileio_mod">
<polygon fill="none" stroke="red" points="353,-161 198,-161 198,-125 353,-125 353,-161"/>
<text text-anchor="middle" x="275.5" y="-139.3" font-family="Times,serif" font-size="14.00">gridstatevectorfileio_mod</text>
</a>
</g>
</g>
<!-- midas_letkf&#45;&gt;gridstatevectorfileio_mod -->
<g id="edge7" class="edge">
<title>midas_letkf&#45;&gt;gridstatevectorfileio_mod</title>
<path fill="none" stroke="black" d="M643.88,-644.51C567.11,-640.91 407.42,-629.18 367.5,-593 337.14,-565.49 343.5,-544.97 343.5,-504 343.5,-504 343.5,-504 343.5,-286 343.5,-245.46 342.17,-232.99 323.5,-197 318.16,-186.71 310.33,-176.87 302.53,-168.52"/>
<polygon fill="black" stroke="black" points="304.96,-166 295.45,-161.31 299.96,-170.9 304.96,-166"/>
</g>
<!-- gridstatevector_mod -->
<g id="node9" class="node">
<title>gridstatevector_mod</title>
<g id="a_node9"><a xlink:href="../modules/gridstatevector_mod.svg" xlink:title="gridstatevector_mod">
<polygon fill="none" stroke="red" points="445,-89 318,-89 318,-53 445,-53 445,-89"/>
<text text-anchor="middle" x="381.5" y="-67.3" font-family="Times,serif" font-size="14.00">gridstatevector_mod</text>
</a>
</g>
</g>
<!-- midas_letkf&#45;&gt;gridstatevector_mod -->
<g id="edge8" class="edge">
<title>midas_letkf&#45;&gt;gridstatevector_mod</title>
<path fill="none" stroke="black" d="M643.87,-643.81C573.31,-639.22 434.53,-626.14 400.5,-593 371.52,-564.78 381.5,-544.45 381.5,-504 381.5,-504 381.5,-504 381.5,-214 381.5,-174 381.5,-127.65 381.5,-99.08"/>
<polygon fill="black" stroke="black" points="385,-99.05 381.5,-89.05 378,-99.05 385,-99.05"/>
</g>
<!-- horizontalcoord_mod -->
<g id="node10" class="node">
<title>horizontalcoord_mod</title>
<g id="a_node10"><a xlink:href="../modules/horizontalcoord_mod.svg" xlink:title="horizontalcoord_mod">
<polygon fill="none" stroke="red" points="543,-593 410,-593 410,-557 543,-557 543,-593"/>
<text text-anchor="middle" x="476.5" y="-571.3" font-family="Times,serif" font-size="14.00">horizontalcoord_mod</text>
</a>
</g>
</g>
<!-- midas_letkf&#45;&gt;horizontalcoord_mod -->
<g id="edge9" class="edge">
<title>midas_letkf&#45;&gt;horizontalcoord_mod</title>
<path fill="none" stroke="black" d="M643.96,-632.09C613.51,-621.89 571.7,-607.88 537.47,-596.42"/>
<polygon fill="black" stroke="black" points="538.17,-592.96 527.58,-593.11 535.95,-599.6 538.17,-592.96"/>
</g>
<!-- innovation_mod -->
<g id="node11" class="node">
<title>innovation_mod</title>
<g id="a_node11"><a xlink:href="../modules/innovation_mod.svg" xlink:title="innovation_mod">
<polygon fill="none" stroke="red" points="581.5,-521 477.5,-521 477.5,-485 581.5,-485 581.5,-521"/>
<text text-anchor="middle" x="529.5" y="-499.3" font-family="Times,serif" font-size="14.00">innovation_mod</text>
</a>
</g>
</g>
<!-- midas_letkf&#45;&gt;innovation_mod -->
<g id="edge10" class="edge">
<title>midas_letkf&#45;&gt;innovation_mod</title>
<path fill="none" stroke="black" d="M649.11,-628.87C631.77,-619.69 611.41,-607.31 595.5,-593 574.97,-574.54 556.72,-548.81 544.64,-529.76"/>
<polygon fill="black" stroke="black" points="547.46,-527.66 539.22,-521 541.51,-531.35 547.46,-527.66"/>
</g>
<!-- mathphysconstants_mod -->
<g id="node12" class="node">
<title>mathphysconstants_mod</title>
<g id="a_node12"><a xlink:href="../modules/mathphysconstants_mod.html" xlink:title="mathphysconstants_mod">
<polygon fill="gray" stroke="black" points="619.5,-449 469.5,-449 469.5,-413 619.5,-413 619.5,-449"/>
<text text-anchor="middle" x="544.5" y="-427.3" font-family="Times,serif" font-size="14.00">mathphysconstants_mod</text>
</a>
</g>
</g>
<!-- midas_letkf&#45;&gt;mathphysconstants_mod -->
<g id="edge11" class="edge">
<title>midas_letkf&#45;&gt;mathphysconstants_mod</title>
<path fill="none" stroke="black" d="M665.24,-628.94C654.7,-619.25 642.22,-606.39 633.5,-593 605.3,-549.71 617.37,-529.13 590.5,-485 584.55,-475.22 576.77,-465.48 569.3,-457.07"/>
<polygon fill="black" stroke="black" points="571.65,-454.45 562.31,-449.45 566.49,-459.18 571.65,-454.45"/>
</g>
<!-- midasmpi_mod -->
<g id="node13" class="node">
<title>midasmpi_mod</title>
<g id="a_node13"><a xlink:href="../modules/midasmpi_mod.svg" xlink:title="midasmpi_mod">
<polygon fill="none" stroke="red" points="657,-377 556,-377 556,-341 657,-341 657,-377"/>
<text text-anchor="middle" x="606.5" y="-355.3" font-family="Times,serif" font-size="14.00">midasmpi_mod</text>
</a>
</g>
</g>
<!-- midas_letkf&#45;&gt;midasmpi_mod -->
<g id="edge12" class="edge">
<title>midas_letkf&#45;&gt;midasmpi_mod</title>
<path fill="none" stroke="black" d="M680.86,-628.84C678.08,-618.48 674.52,-605 671.5,-593 651.44,-513.23 653.9,-491.23 628.5,-413 625.67,-404.28 622.03,-394.99 618.53,-386.65"/>
<polygon fill="black" stroke="black" points="621.72,-385.2 614.55,-377.4 615.29,-387.97 621.72,-385.2"/>
</g>
<!-- obserrors_mod -->
<g id="node14" class="node">
<title>obserrors_mod</title>
<g id="a_node14"><a xlink:href="../modules/obserrors_mod.svg" xlink:title="obserrors_mod">
<polygon fill="none" stroke="red" points="695.5,-305 597.5,-305 597.5,-269 695.5,-269 695.5,-305"/>
<text text-anchor="middle" x="646.5" y="-283.3" font-family="Times,serif" font-size="14.00">obserrors_mod</text>
</a>
</g>
</g>
<!-- midas_letkf&#45;&gt;obserrors_mod -->
<g id="edge13" class="edge">
<title>midas_letkf&#45;&gt;obserrors_mod</title>
<path fill="none" stroke="black" d="M685.5,-628.95C685.5,-602.29 685.5,-549.11 685.5,-504 685.5,-504 685.5,-504 685.5,-430 685.5,-388.56 669.86,-342.67 658.39,-314.58"/>
<polygon fill="black" stroke="black" points="661.5,-312.93 654.39,-305.07 655.05,-315.65 661.5,-312.93"/>
</g>
<!-- obsfiles_mod -->
<g id="node15" class="node">
<title>obsfiles_mod</title>
<g id="a_node15"><a xlink:href="../modules/obsfiles_mod.svg" xlink:title="obsfiles_mod">
<polygon fill="none" stroke="red" points="733,-233 644,-233 644,-197 733,-197 733,-233"/>
<text text-anchor="middle" x="688.5" y="-211.3" font-family="Times,serif" font-size="14.00">obsfiles_mod</text>
</a>
</g>
</g>
<!-- midas_letkf&#45;&gt;obsfiles_mod -->
<g id="edge14" class="edge">
<title>midas_letkf&#45;&gt;obsfiles_mod</title>
<path fill="none" stroke="black" d="M693.19,-628.91C704.29,-602.62 723.5,-550.45 723.5,-504 723.5,-504 723.5,-504 723.5,-358 723.5,-316.84 709.47,-270.88 699.17,-242.69"/>
<polygon fill="black" stroke="black" points="702.38,-241.28 695.58,-233.15 695.83,-243.74 702.38,-241.28"/>
</g>
<!-- obsfilter_mod -->
<g id="node16" class="node">
<title>obsfilter_mod</title>
<g id="a_node16"><a xlink:href="../modules/obsfilter_mod.svg" xlink:title="obsfilter_mod">
<polygon fill="none" stroke="red" points="771.5,-161 679.5,-161 679.5,-125 771.5,-125 771.5,-161"/>
<text text-anchor="middle" x="725.5" y="-139.3" font-family="Times,serif" font-size="14.00">obsfilter_mod</text>
</a>
</g>
</g>
<!-- midas_letkf&#45;&gt;obsfilter_mod -->
<g id="edge15" class="edge">
<title>midas_letkf&#45;&gt;obsfilter_mod</title>
<path fill="none" stroke="black" d="M701.99,-628.77C724.34,-603.53 761.5,-554.05 761.5,-504 761.5,-504 761.5,-504 761.5,-286 761.5,-244.78 747.07,-198.83 736.48,-170.66"/>
<polygon fill="black" stroke="black" points="739.66,-169.19 732.79,-161.13 733.14,-171.72 739.66,-169.19"/>
</g>
<!-- obsspacedata_mod -->
<g id="node17" class="node">
<title>obsspacedata_mod</title>
<g id="a_node17"><a xlink:href="../modules/obsspacedata_mod.svg" xlink:title="obsspacedata_mod">
<polygon fill="none" stroke="red" points="858.5,-89 740.5,-89 740.5,-53 858.5,-53 858.5,-89"/>
<text text-anchor="middle" x="799.5" y="-67.3" font-family="Times,serif" font-size="14.00">obsspacedata_mod</text>
</a>
</g>
</g>
<!-- midas_letkf&#45;&gt;obsspacedata_mod -->
<g id="edge16" class="edge">
<title>midas_letkf&#45;&gt;obsspacedata_mod</title>
<path fill="none" stroke="black" d="M712.52,-628.96C746.23,-605.37 799.5,-559.33 799.5,-504 799.5,-504 799.5,-504 799.5,-214 799.5,-174 799.5,-127.65 799.5,-99.08"/>
<polygon fill="black" stroke="black" points="803,-99.05 799.5,-89.05 796,-99.05 803,-99.05"/>
</g>
<!-- obstimeinterp_mod -->
<g id="node18" class="node">
<title>obstimeinterp_mod</title>
<g id="a_node18"><a xlink:href="../modules/obstimeinterp_mod.svg" xlink:title="obstimeinterp_mod">
<polygon fill="none" stroke="red" points="949.5,-593 827.5,-593 827.5,-557 949.5,-557 949.5,-593"/>
<text text-anchor="middle" x="888.5" y="-571.3" font-family="Times,serif" font-size="14.00">obstimeinterp_mod</text>
</a>
</g>
</g>
<!-- midas_letkf&#45;&gt;obstimeinterp_mod -->
<g id="edge17" class="edge">
<title>midas_letkf&#45;&gt;obstimeinterp_mod</title>
<path fill="none" stroke="black" d="M727.07,-631.67C756.63,-621.47 796.76,-607.64 829.61,-596.31"/>
<polygon fill="black" stroke="black" points="830.8,-599.6 839.11,-593.03 828.51,-592.98 830.8,-599.6"/>
</g>
<!-- oceanmask_mod -->
<g id="node19" class="node">
<title>oceanmask_mod</title>
<g id="a_node19"><a xlink:href="../modules/oceanmask_mod.svg" xlink:title="oceanmask_mod">
<polygon fill="none" stroke="red" points="987,-521 880,-521 880,-485 987,-485 987,-521"/>
<text text-anchor="middle" x="933.5" y="-499.3" font-family="Times,serif" font-size="14.00">oceanmask_mod</text>
</a>
</g>
</g>
<!-- midas_letkf&#45;&gt;oceanmask_mod -->
<g id="edge18" class="edge">
<title>midas_letkf&#45;&gt;oceanmask_mod</title>
<path fill="none" stroke="black" d="M727.22,-644.16C796.29,-640.15 929.67,-627.97 958.5,-593 973.22,-575.15 963.43,-549.18 952.07,-529.89"/>
<polygon fill="black" stroke="black" points="954.94,-527.88 946.65,-521.29 949.02,-531.62 954.94,-527.88"/>
</g>
<!-- ramdisk_mod -->
<g id="node20" class="node">
<title>ramdisk_mod</title>
<g id="a_node20"><a xlink:href="../modules/ramdisk_mod.svg" xlink:title="ramdisk_mod">
<polygon fill="none" stroke="red" points="1025,-449 934,-449 934,-413 1025,-413 1025,-449"/>
<text text-anchor="middle" x="979.5" y="-427.3" font-family="Times,serif" font-size="14.00">ramdisk_mod</text>
</a>
</g>
</g>
<!-- midas_letkf&#45;&gt;ramdisk_mod -->
<g id="edge19" class="edge">
<title>midas_letkf&#45;&gt;ramdisk_mod</title>
<path fill="none" stroke="black" d="M727.26,-643.8C798.87,-639.17 940.83,-626 976.5,-593 1012.83,-559.39 1000.35,-495.28 989.19,-458.92"/>
<polygon fill="black" stroke="black" points="992.39,-457.45 985.97,-449.02 985.74,-459.61 992.39,-457.45"/>
</g>
<!-- statetocolumn_mod -->
<g id="node21" class="node">
<title>statetocolumn_mod</title>
<g id="a_node21"><a xlink:href="../modules/statetocolumn_mod.svg" xlink:title="statetocolumn_mod">
<polygon fill="none" stroke="red" points="1063.5,-377 939.5,-377 939.5,-341 1063.5,-341 1063.5,-377"/>
<text text-anchor="middle" x="1001.5" y="-355.3" font-family="Times,serif" font-size="14.00">statetocolumn_mod</text>
</a>
</g>
</g>
<!-- midas_letkf&#45;&gt;statetocolumn_mod -->
<g id="edge20" class="edge">
<title>midas_letkf&#45;&gt;statetocolumn_mod</title>
<path fill="none" stroke="black" d="M727.01,-644.64C803.55,-641.25 962.66,-629.85 1001.5,-593 1060.44,-537.07 1055.3,-491.28 1033.5,-413 1030.83,-403.42 1025.91,-393.84 1020.72,-385.51"/>
<polygon fill="black" stroke="black" points="1023.52,-383.41 1015.06,-377.03 1017.7,-387.29 1023.52,-383.41"/>
</g>
<!-- timecoord_mod -->
<g id="node22" class="node">
<title>timecoord_mod</title>
<g id="a_node22"><a xlink:href="../modules/timecoord_mod.svg" xlink:title="timecoord_mod">
<polygon fill="none" stroke="red" points="1101.5,-305 999.5,-305 999.5,-269 1101.5,-269 1101.5,-305"/>
<text text-anchor="middle" x="1050.5" y="-283.3" font-family="Times,serif" font-size="14.00">timecoord_mod</text>
</a>
</g>
</g>
<!-- midas_letkf&#45;&gt;timecoord_mod -->
<g id="edge21" class="edge">
<title>midas_letkf&#45;&gt;timecoord_mod</title>
<path fill="none" stroke="black" d="M727.03,-643.72C807.38,-638.66 980.61,-624.36 1030.5,-593 1071.1,-567.48 1091.5,-551.95 1091.5,-504 1091.5,-504 1091.5,-504 1091.5,-430 1091.5,-388.41 1075.06,-342.56 1063,-314.51"/>
<polygon fill="black" stroke="black" points="1066.05,-312.75 1058.8,-305.03 1059.65,-315.59 1066.05,-312.75"/>
</g>
<!-- tovs_nl_mod -->
<g id="node23" class="node">
<title>tovs_nl_mod</title>
<g id="a_node23"><a xlink:href="../modules/tovs_nl_mod.svg" xlink:title="tovs_nl_mod">
<polygon fill="none" stroke="red" points="1139,-233 1052,-233 1052,-197 1139,-197 1139,-233"/>
<text text-anchor="middle" x="1095.5" y="-211.3" font-family="Times,serif" font-size="14.00">tovs_nl_mod</text>
</a>
</g>
</g>
<!-- midas_letkf&#45;&gt;tovs_nl_mod -->
<g id="edge22" class="edge">
<title>midas_letkf&#45;&gt;tovs_nl_mod</title>
<path fill="none" stroke="black" d="M727.07,-644.39C813.88,-640.37 1011.07,-627.61 1067.5,-593 1108.6,-567.8 1129.5,-552.21 1129.5,-504 1129.5,-504 1129.5,-504 1129.5,-358 1129.5,-316.91 1115.87,-270.92 1105.87,-242.72"/>
<polygon fill="black" stroke="black" points="1109.1,-241.36 1102.38,-233.17 1102.53,-243.76 1109.1,-241.36"/>
</g>
<!-- utilities_mod -->
<g id="node24" class="node">
<title>utilities_mod</title>
<g id="a_node24"><a xlink:href="../modules/utilities_mod.svg" xlink:title="utilities_mod">
<polygon fill="none" stroke="red" points="1194.5,-161 1106.5,-161 1106.5,-125 1194.5,-125 1194.5,-161"/>
<text text-anchor="middle" x="1150.5" y="-139.3" font-family="Times,serif" font-size="14.00">utilities_mod</text>
</a>
</g>
</g>
<!-- midas_letkf&#45;&gt;utilities_mod -->
<g id="edge23" class="edge">
<title>midas_letkf&#45;&gt;utilities_mod</title>
<path fill="none" stroke="black" d="M727.27,-644.98C820.53,-642.04 1042.45,-631.13 1105.5,-593 1146.75,-568.05 1167.5,-552.21 1167.5,-504 1167.5,-504 1167.5,-504 1167.5,-286 1167.5,-245.93 1160.74,-199.95 1155.75,-171.43"/>
<polygon fill="black" stroke="black" points="1159.16,-170.63 1153.94,-161.41 1152.27,-171.87 1159.16,-170.63"/>
</g>
<!-- version_mod -->
<g id="node25" class="node">
<title>version_mod</title>
<g id="a_node25"><a xlink:href="../modules/version_mod.html" xlink:title="version_mod">
<polygon fill="gray" stroke="black" points="1265.5,-89 1179.5,-89 1179.5,-53 1265.5,-53 1265.5,-89"/>
<text text-anchor="middle" x="1222.5" y="-67.3" font-family="Times,serif" font-size="14.00">version_mod</text>
</a>
</g>
</g>
<!-- midas_letkf&#45;&gt;version_mod -->
<g id="edge24" class="edge">
<title>midas_letkf&#45;&gt;version_mod</title>
<path fill="none" stroke="black" d="M727.36,-644.94C826.28,-641.83 1071.53,-630.47 1143.5,-593 1190.41,-568.57 1222.5,-556.89 1222.5,-504 1222.5,-504 1222.5,-504 1222.5,-214 1222.5,-174 1222.5,-127.65 1222.5,-99.08"/>
<polygon fill="black" stroke="black" points="1226,-99.05 1222.5,-89.05 1219,-99.05 1226,-99.05"/>
</g>
<!-- verticalcoord_mod -->
<g id="node26" class="node">
<title>verticalcoord_mod</title>
<g id="a_node26"><a xlink:href="../modules/verticalcoord_mod.svg" xlink:title="verticalcoord_mod">
<polygon fill="none" stroke="red" points="1368.5,-593 1250.5,-593 1250.5,-557 1368.5,-557 1368.5,-593"/>
<text text-anchor="middle" x="1309.5" y="-571.3" font-family="Times,serif" font-size="14.00">verticalcoord_mod</text>
</a>
</g>
</g>
<!-- midas_letkf&#45;&gt;verticalcoord_mod -->
<g id="edge25" class="edge">
<title>midas_letkf&#45;&gt;verticalcoord_mod</title>
<path fill="none" stroke="black" d="M727.22,-643.88C819.51,-638.79 1047.77,-623.91 1236.5,-593 1237.76,-592.79 1239.04,-592.58 1240.32,-592.35"/>
<polygon fill="black" stroke="black" points="1241.09,-595.77 1250.27,-590.49 1239.8,-588.89 1241.09,-595.77"/>
</g>
</g>
</svg>
