<?xml version="1.0" encoding="UTF-8" standalone="no"?>
<!DOCTYPE svg PUBLIC "-//W3C//DTD SVG 1.1//EN"
 "http://www.w3.org/Graphics/SVG/1.1/DTD/svg11.dtd">
<!-- Generated by graphviz version 3.0.0 (20220315.2325)
 -->
<!-- Title: midas_pseudosstobs Pages: 1 -->
<svg width="604pt" height="673pt"
 viewBox="0.00 0.00 603.50 673.00" xmlns="http://www.w3.org/2000/svg" xmlns:xlink="http://www.w3.org/1999/xlink">
<g id="graph0" class="graph" transform="scale(1 1) rotate(0) translate(4 669)">
<title>midas_pseudosstobs</title>
<polygon fill="white" stroke="transparent" points="-4,4 -4,-669 599.5,-669 599.5,4 -4,4"/>
<text text-anchor="middle" x="297.75" y="-37.8" font-family="Times,serif" font-size="14.00">Red boxes indicate modules with dependencies not shown</text>
<text text-anchor="middle" x="297.75" y="-22.8" font-family="Times,serif" font-size="14.00">Lower level dependencies can be shown by clicking on a red box</text>
<text text-anchor="middle" x="297.75" y="-7.8" font-family="Times,serif" font-size="14.00">Shaded boxes indicate modules with no dependencies</text>
<!-- midas_pseudosstobs -->
<g id="node1" class="node">
<title>midas_pseudosstobs</title>
<g id="a_node1"><a xlink:href="midas_pseudosstobs.html" xlink:title="midas_pseudosstobs">
<polygon fill="none" stroke="black" points="363.5,-665 235.5,-665 235.5,-629 363.5,-629 363.5,-665"/>
<text text-anchor="middle" x="299.5" y="-643.3" font-family="Times,serif" font-size="14.00">midas_pseudosstobs</text>
</a>
</g>
</g>
<!-- analysisgrid_mod -->
<g id="node2" class="node">
<title>analysisgrid_mod</title>
<g id="a_node2"><a xlink:href="../modules/analysisgrid_mod.svg" xlink:title="analysisgrid_mod">
<polygon fill="none" stroke="red" points="111,-593 0,-593 0,-557 111,-557 111,-593"/>
<text text-anchor="middle" x="55.5" y="-571.3" font-family="Times,serif" font-size="14.00">analysisgrid_mod</text>
</a>
</g>
</g>
<!-- midas_pseudosstobs&#45;&gt;analysisgrid_mod -->
<g id="edge1" class="edge">
<title>midas_pseudosstobs&#45;&gt;analysisgrid_mod</title>
<path fill="none" stroke="black" d="M240.12,-628.97C204.12,-618.64 158.14,-605.45 121.08,-594.81"/>
<polygon fill="black" stroke="black" points="121.94,-591.42 111.37,-592.03 120.01,-598.15 121.94,-591.42"/>
</g>
<!-- gridstatevector_mod -->
<g id="node3" class="node">
<title>gridstatevector_mod</title>
<g id="a_node3"><a xlink:href="../modules/gridstatevector_mod.svg" xlink:title="gridstatevector_mod">
<polygon fill="none" stroke="red" points="176,-521 49,-521 49,-485 176,-485 176,-521"/>
<text text-anchor="middle" x="112.5" y="-499.3" font-family="Times,serif" font-size="14.00">gridstatevector_mod</text>
</a>
</g>
</g>
<!-- midas_pseudosstobs&#45;&gt;gridstatevector_mod -->
<g id="edge2" class="edge">
<title>midas_pseudosstobs&#45;&gt;gridstatevector_mod</title>
<path fill="none" stroke="black" d="M254.5,-628.95C233.89,-619.97 209.82,-607.74 190.5,-593 166.74,-574.87 144.8,-548.6 130.28,-529.3"/>
<polygon fill="black" stroke="black" points="133.09,-527.22 124.34,-521.24 127.45,-531.37 133.09,-527.22"/>
</g>
<!-- horizontalcoord_mod -->
<g id="node4" class="node">
<title>horizontalcoord_mod</title>
<g id="a_node4"><a xlink:href="../modules/horizontalcoord_mod.svg" xlink:title="horizontalcoord_mod">
<polygon fill="none" stroke="red" points="214,-449 81,-449 81,-413 214,-413 214,-449"/>
<text text-anchor="middle" x="147.5" y="-427.3" font-family="Times,serif" font-size="14.00">horizontalcoord_mod</text>
</a>
</g>
</g>
<!-- midas_pseudosstobs&#45;&gt;horizontalcoord_mod -->
<g id="edge3" class="edge">
<title>midas_pseudosstobs&#45;&gt;horizontalcoord_mod</title>
<path fill="none" stroke="black" d="M269.53,-628.92C255.56,-619.74 239.6,-607.36 228.5,-593 196.79,-552 209.27,-530.53 184.5,-485 179.35,-475.54 172.86,-465.72 166.76,-457.14"/>
<polygon fill="black" stroke="black" points="169.57,-455.06 160.85,-449.04 163.92,-459.18 169.57,-455.06"/>
</g>
<!-- midasmpi_mod -->
<g id="node5" class="node">
<title>midasmpi_mod</title>
<g id="a_node5"><a xlink:href="../modules/midasmpi_mod.svg" xlink:title="midasmpi_mod">
<polygon fill="none" stroke="red" points="252,-377 151,-377 151,-341 252,-341 252,-377"/>
<text text-anchor="middle" x="201.5" y="-355.3" font-family="Times,serif" font-size="14.00">midasmpi_mod</text>
</a>
</g>
</g>
<!-- midas_pseudosstobs&#45;&gt;midasmpi_mod -->
<g id="edge4" class="edge">
<title>midas_pseudosstobs&#45;&gt;midasmpi_mod</title>
<path fill="none" stroke="black" d="M286.71,-628.62C279.87,-618.62 271.8,-605.59 266.5,-593 234.56,-517.09 247.51,-491.47 222.5,-413 219.74,-404.32 216.25,-395.04 212.91,-386.7"/>
<polygon fill="black" stroke="black" points="216.15,-385.37 209.12,-377.45 209.67,-388.03 216.15,-385.37"/>
</g>
<!-- obsspacedata_mod -->
<g id="node6" class="node">
<title>obsspacedata_mod</title>
<g id="a_node6"><a xlink:href="../modules/obsspacedata_mod.svg" xlink:title="obsspacedata_mod">
<polygon fill="none" stroke="red" points="290.5,-305 172.5,-305 172.5,-269 290.5,-269 290.5,-305"/>
<text text-anchor="middle" x="231.5" y="-283.3" font-family="Times,serif" font-size="14.00">obsspacedata_mod</text>
</a>
</g>
</g>
<!-- midas_pseudosstobs&#45;&gt;obsspacedata_mod -->
<g id="edge5" class="edge">
<title>midas_pseudosstobs&#45;&gt;obsspacedata_mod</title>
<path fill="none" stroke="black" d="M295.66,-628.61C290.1,-601.94 280.5,-549.27 280.5,-504 280.5,-504 280.5,-504 280.5,-430 280.5,-389.46 274.81,-378.93 260.5,-341 257.06,-331.87 252.29,-322.38 247.61,-314"/>
<polygon fill="black" stroke="black" points="250.49,-311.98 242.44,-305.08 244.43,-315.49 250.49,-311.98"/>
</g>
<!-- oceanobservations_mod -->
<g id="node7" class="node">
<title>oceanobservations_mod</title>
<g id="a_node7"><a xlink:href="../modules/oceanobservations_mod.svg" xlink:title="oceanobservations_mod">
<polygon fill="none" stroke="red" points="328.5,-233 182.5,-233 182.5,-197 328.5,-197 328.5,-233"/>
<text text-anchor="middle" x="255.5" y="-211.3" font-family="Times,serif" font-size="14.00">oceanobservations_mod</text>
</a>
</g>
</g>
<!-- midas_pseudosstobs&#45;&gt;oceanobservations_mod -->
<g id="edge6" class="edge">
<title>midas_pseudosstobs&#45;&gt;oceanobservations_mod</title>
<path fill="none" stroke="black" d="M303.34,-628.61C308.9,-601.94 318.5,-549.27 318.5,-504 318.5,-504 318.5,-504 318.5,-358 318.5,-317.55 317.15,-305.39 299.5,-269 294.6,-258.89 287.36,-249.06 280.17,-240.67"/>
<polygon fill="black" stroke="black" points="282.66,-238.2 273.37,-233.1 277.45,-242.88 282.66,-238.2"/>
</g>
<!-- ramdisk_mod -->
<g id="node8" class="node">
<title>ramdisk_mod</title>
<g id="a_node8"><a xlink:href="../modules/ramdisk_mod.svg" xlink:title="ramdisk_mod">
<polygon fill="none" stroke="red" points="366,-161 275,-161 275,-125 366,-125 366,-161"/>
<text text-anchor="middle" x="320.5" y="-139.3" font-family="Times,serif" font-size="14.00">ramdisk_mod</text>
</a>
</g>
</g>
<!-- midas_pseudosstobs&#45;&gt;ramdisk_mod -->
<g id="edge7" class="edge">
<title>midas_pseudosstobs&#45;&gt;ramdisk_mod</title>
<path fill="none" stroke="black" d="M311.31,-628.96C328.01,-603.16 356.5,-552.08 356.5,-504 356.5,-504 356.5,-504 356.5,-286 356.5,-244.78 342.07,-198.83 331.48,-170.66"/>
<polygon fill="black" stroke="black" points="334.66,-169.19 327.79,-161.13 328.14,-171.72 334.66,-169.19"/>
</g>
<!-- utilities_mod -->
<g id="node9" class="node">
<title>utilities_mod</title>
<g id="a_node9"><a xlink:href="../modules/utilities_mod.svg" xlink:title="utilities_mod">
<polygon fill="none" stroke="red" points="438.5,-89 350.5,-89 350.5,-53 438.5,-53 438.5,-89"/>
<text text-anchor="middle" x="394.5" y="-67.3" font-family="Times,serif" font-size="14.00">utilities_mod</text>
</a>
</g>
</g>
<!-- midas_pseudosstobs&#45;&gt;utilities_mod -->
<g id="edge8" class="edge">
<title>midas_pseudosstobs&#45;&gt;utilities_mod</title>
<path fill="none" stroke="black" d="M321.06,-628.78C349.09,-604.28 394.5,-556.5 394.5,-504 394.5,-504 394.5,-504 394.5,-214 394.5,-174 394.5,-127.65 394.5,-99.08"/>
<polygon fill="black" stroke="black" points="398,-99.05 394.5,-89.05 391,-99.05 398,-99.05"/>
</g>
<!-- version_mod -->
<g id="node10" class="node">
<title>version_mod</title>
<g id="a_node10"><a xlink:href="../modules/version_mod.html" xlink:title="version_mod">
<polygon fill="gray" stroke="black" points="508.5,-593 422.5,-593 422.5,-557 508.5,-557 508.5,-593"/>
<text text-anchor="middle" x="465.5" y="-571.3" font-family="Times,serif" font-size="14.00">version_mod</text>
</a>
</g>
</g>
<!-- midas_pseudosstobs&#45;&gt;version_mod -->
<g id="edge9" class="edge">
<title>midas_pseudosstobs&#45;&gt;version_mod</title>
<path fill="none" stroke="black" d="M340.11,-628.88C362.9,-619.26 391.53,-607.19 415.67,-597.01"/>
<polygon fill="black" stroke="black" points="417.17,-600.18 425.02,-593.07 414.45,-593.73 417.17,-600.18"/>
</g>
<!-- verticalcoord_mod -->
<g id="node11" class="node">
<title>verticalcoord_mod</title>
<g id="a_node11"><a xlink:href="../modules/verticalcoord_mod.svg" xlink:title="verticalcoord_mod">
<polygon fill="none" stroke="red" points="595.5,-521 477.5,-521 477.5,-485 595.5,-485 595.5,-521"/>
<text text-anchor="middle" x="536.5" y="-499.3" font-family="Times,serif" font-size="14.00">verticalcoord_mod</text>
</a>
</g>
</g>
<!-- midas_pseudosstobs&#45;&gt;verticalcoord_mod -->
<g id="edge10" class="edge">
<title>midas_pseudosstobs&#45;&gt;verticalcoord_mod</title>
<path fill="none" stroke="black" d="M363.61,-638.03C420,-629.7 496.32,-614.78 517.5,-593 533.2,-576.85 537.31,-551.08 537.86,-531.41"/>
<polygon fill="black" stroke="black" points="541.36,-531.21 537.86,-521.22 534.36,-531.22 541.36,-531.21"/>
</g>
</g>
</svg>
