<?xml version="1.0" encoding="UTF-8" standalone="no"?>
<!DOCTYPE svg PUBLIC "-//W3C//DTD SVG 1.1//EN"
 "http://www.w3.org/Graphics/SVG/1.1/DTD/svg11.dtd">
<!-- Generated by graphviz version 3.0.0 (20220315.2325)
 -->
<!-- Title: midas_var1d Pages: 1 -->
<svg width="1317pt" height="673pt"
 viewBox="0.00 0.00 1316.50 673.00" xmlns="http://www.w3.org/2000/svg" xmlns:xlink="http://www.w3.org/1999/xlink">
<g id="graph0" class="graph" transform="scale(1 1) rotate(0) translate(4 669)">
<title>midas_var1d</title>
<polygon fill="white" stroke="transparent" points="-4,4 -4,-669 1312.5,-669 1312.5,4 -4,4"/>
<text text-anchor="middle" x="654.25" y="-37.8" font-family="Times,serif" font-size="14.00">Red boxes indicate modules with dependencies not shown</text>
<text text-anchor="middle" x="654.25" y="-22.8" font-family="Times,serif" font-size="14.00">Lower level dependencies can be shown by clicking on a red box</text>
<text text-anchor="middle" x="654.25" y="-7.8" font-family="Times,serif" font-size="14.00">Shaded boxes indicate modules with no dependencies</text>
<!-- midas_var1d -->
<g id="node1" class="node">
<title>midas_var1d</title>
<g id="a_node1"><a xlink:href="midas_var1d.html" xlink:title="midas_var1d">
<polygon fill="none" stroke="black" points="729.5,-665 643.5,-665 643.5,-629 729.5,-629 729.5,-665"/>
<text text-anchor="middle" x="686.5" y="-643.3" font-family="Times,serif" font-size="14.00">midas_var1d</text>
</a>
</g>
</g>
<!-- biascorrectionsat_mod -->
<g id="node2" class="node">
<title>biascorrectionsat_mod</title>
<g id="a_node2"><a xlink:href="../modules/biascorrectionsat_mod.svg" xlink:title="biascorrectionsat_mod">
<polygon fill="none" stroke="red" points="139,-593 0,-593 0,-557 139,-557 139,-593"/>
<text text-anchor="middle" x="69.5" y="-571.3" font-family="Times,serif" font-size="14.00">biascorrectionsat_mod</text>
</a>
</g>
</g>
<!-- midas_var1d&#45;&gt;biascorrectionsat_mod -->
<g id="edge1" class="edge">
<title>midas_var1d&#45;&gt;biascorrectionsat_mod</title>
<path fill="none" stroke="black" d="M643.48,-643.2C552.63,-636.95 334.65,-620.27 153.5,-593 152.03,-592.78 150.54,-592.55 149.05,-592.31"/>
<polygon fill="black" stroke="black" points="149.52,-588.84 139.08,-590.64 148.36,-595.74 149.52,-588.84"/>
</g>
<!-- bmatrix1dvar_mod -->
<g id="node3" class="node">
<title>bmatrix1dvar_mod</title>
<g id="a_node3"><a xlink:href="../modules/bmatrix1dvar_mod.svg" xlink:title="bmatrix1dvar_mod">
<polygon fill="none" stroke="red" points="202,-521 83,-521 83,-485 202,-485 202,-521"/>
<text text-anchor="middle" x="142.5" y="-499.3" font-family="Times,serif" font-size="14.00">bmatrix1dvar_mod</text>
</a>
</g>
</g>
<!-- midas_var1d&#45;&gt;bmatrix1dvar_mod -->
<g id="edge2" class="edge">
<title>midas_var1d&#45;&gt;bmatrix1dvar_mod</title>
<path fill="none" stroke="black" d="M643.46,-645.2C541.79,-642.69 289.76,-632.52 216.5,-593 190,-578.71 169.17,-550.66 156.45,-529.85"/>
<polygon fill="black" stroke="black" points="159.43,-528.01 151.35,-521.16 153.39,-531.55 159.43,-528.01"/>
</g>
<!-- codeprecision_mod -->
<g id="node4" class="node">
<title>codeprecision_mod</title>
<g id="a_node4"><a xlink:href="../modules/codeprecision_mod.html" xlink:title="codeprecision_mod">
<polygon fill="gray" stroke="black" points="240.5,-449 118.5,-449 118.5,-413 240.5,-413 240.5,-449"/>
<text text-anchor="middle" x="179.5" y="-427.3" font-family="Times,serif" font-size="14.00">codeprecision_mod</text>
</a>
</g>
</g>
<!-- midas_var1d&#45;&gt;codeprecision_mod -->
<g id="edge3" class="edge">
<title>midas_var1d&#45;&gt;codeprecision_mod</title>
<path fill="none" stroke="black" d="M643.24,-646.1C546.16,-645.48 314.74,-639.08 254.5,-593 213.33,-561.51 233.42,-531.49 210.5,-485 206.07,-476.01 200.71,-466.48 195.71,-458.01"/>
<polygon fill="black" stroke="black" points="198.63,-456.08 190.47,-449.32 192.63,-459.69 198.63,-456.08"/>
</g>
<!-- columndata_mod -->
<g id="node5" class="node">
<title>columndata_mod</title>
<g id="a_node5"><a xlink:href="../modules/columndata_mod.svg" xlink:title="columndata_mod">
<polygon fill="none" stroke="red" points="278,-377 167,-377 167,-341 278,-341 278,-377"/>
<text text-anchor="middle" x="222.5" y="-355.3" font-family="Times,serif" font-size="14.00">columndata_mod</text>
</a>
</g>
</g>
<!-- midas_var1d&#45;&gt;columndata_mod -->
<g id="edge4" class="edge">
<title>midas_var1d&#45;&gt;columndata_mod</title>
<path fill="none" stroke="black" d="M643.49,-646.13C552.21,-645.5 343.32,-638.94 292.5,-593 231.48,-537.84 277.92,-490.18 249.5,-413 246.18,-403.99 241.71,-394.53 237.36,-386.14"/>
<polygon fill="black" stroke="black" points="240.38,-384.36 232.57,-377.2 234.21,-387.66 240.38,-384.36"/>
</g>
<!-- controlvector_mod -->
<g id="node6" class="node">
<title>controlvector_mod</title>
<g id="a_node6"><a xlink:href="../modules/controlvector_mod.svg" xlink:title="controlvector_mod">
<polygon fill="none" stroke="red" points="316.5,-305 198.5,-305 198.5,-269 316.5,-269 316.5,-305"/>
<text text-anchor="middle" x="257.5" y="-283.3" font-family="Times,serif" font-size="14.00">controlvector_mod</text>
</a>
</g>
</g>
<!-- midas_var1d&#45;&gt;controlvector_mod -->
<g id="edge5" class="edge">
<title>midas_var1d&#45;&gt;controlvector_mod</title>
<path fill="none" stroke="black" d="M643.24,-645.31C558.74,-643.06 376,-633.52 330.5,-593 299.91,-565.75 306.5,-544.97 306.5,-504 306.5,-504 306.5,-504 306.5,-430 306.5,-389.46 300.81,-378.93 286.5,-341 283.06,-331.87 278.29,-322.38 273.61,-314"/>
<polygon fill="black" stroke="black" points="276.49,-311.98 268.44,-305.08 270.43,-315.49 276.49,-311.98"/>
</g>
<!-- gridstatevectorfileio_mod -->
<g id="node7" class="node">
<title>gridstatevectorfileio_mod</title>
<g id="a_node7"><a xlink:href="../modules/gridstatevectorfileio_mod.svg" xlink:title="gridstatevectorfileio_mod">
<polygon fill="none" stroke="red" points="354,-233 199,-233 199,-197 354,-197 354,-233"/>
<text text-anchor="middle" x="276.5" y="-211.3" font-family="Times,serif" font-size="14.00">gridstatevectorfileio_mod</text>
</a>
</g>
</g>
<!-- midas_var1d&#45;&gt;gridstatevectorfileio_mod -->
<g id="edge6" class="edge">
<title>midas_var1d&#45;&gt;gridstatevectorfileio_mod</title>
<path fill="none" stroke="black" d="M643.37,-644.44C566.04,-640.76 408.16,-628.94 368.5,-593 338.14,-565.49 344.5,-544.97 344.5,-504 344.5,-504 344.5,-504 344.5,-358 344.5,-317.55 344.12,-304.91 325.5,-269 320.11,-258.61 312.13,-248.74 304.17,-240.41"/>
<polygon fill="black" stroke="black" points="306.49,-237.78 296.94,-233.21 301.56,-242.74 306.49,-237.78"/>
</g>
<!-- gridstatevector_mod -->
<g id="node8" class="node">
<title>gridstatevector_mod</title>
<g id="a_node8"><a xlink:href="../modules/gridstatevector_mod.svg" xlink:title="gridstatevector_mod">
<polygon fill="none" stroke="red" points="392,-161 265,-161 265,-125 392,-125 392,-161"/>
<text text-anchor="middle" x="328.5" y="-139.3" font-family="Times,serif" font-size="14.00">gridstatevector_mod</text>
</a>
</g>
</g>
<!-- midas_var1d&#45;&gt;gridstatevector_mod -->
<g id="edge7" class="edge">
<title>midas_var1d&#45;&gt;gridstatevector_mod</title>
<path fill="none" stroke="black" d="M643.28,-643.33C573.48,-638.15 440.34,-624.35 406.5,-593 376.45,-565.16 382.5,-544.97 382.5,-504 382.5,-504 382.5,-504 382.5,-286 382.5,-245.46 378.13,-234.41 362.5,-197 358.56,-187.57 352.96,-177.95 347.44,-169.55"/>
<polygon fill="black" stroke="black" points="350.33,-167.57 341.79,-161.29 344.55,-171.52 350.33,-167.57"/>
</g>
<!-- gridvariabletransforms_mod -->
<g id="node9" class="node">
<title>gridvariabletransforms_mod</title>
<g id="a_node9"><a xlink:href="../modules/gridvariabletransforms_mod.svg" xlink:title="gridvariabletransforms_mod">
<polygon fill="none" stroke="red" points="505.5,-89 335.5,-89 335.5,-53 505.5,-53 505.5,-89"/>
<text text-anchor="middle" x="420.5" y="-67.3" font-family="Times,serif" font-size="14.00">gridvariabletransforms_mod</text>
</a>
</g>
</g>
<!-- midas_var1d&#45;&gt;gridvariabletransforms_mod -->
<g id="edge8" class="edge">
<title>midas_var1d&#45;&gt;gridvariabletransforms_mod</title>
<path fill="none" stroke="black" d="M643.33,-642.33C580.34,-636.07 467.67,-621.2 439.5,-593 410.91,-564.38 420.5,-544.45 420.5,-504 420.5,-504 420.5,-504 420.5,-214 420.5,-174 420.5,-127.65 420.5,-99.08"/>
<polygon fill="black" stroke="black" points="424,-99.05 420.5,-89.05 417,-99.05 424,-99.05"/>
</g>
<!-- horizontalcoord_mod -->
<g id="node10" class="node">
<title>horizontalcoord_mod</title>
<g id="a_node10"><a xlink:href="../modules/horizontalcoord_mod.svg" xlink:title="horizontalcoord_mod">
<polygon fill="none" stroke="red" points="582,-593 449,-593 449,-557 582,-557 582,-593"/>
<text text-anchor="middle" x="515.5" y="-571.3" font-family="Times,serif" font-size="14.00">horizontalcoord_mod</text>
</a>
</g>
</g>
<!-- midas_var1d&#45;&gt;horizontalcoord_mod -->
<g id="edge9" class="edge">
<title>midas_var1d&#45;&gt;horizontalcoord_mod</title>
<path fill="none" stroke="black" d="M644.67,-628.88C621.08,-619.22 591.44,-607.09 566.5,-596.88"/>
<polygon fill="black" stroke="black" points="567.78,-593.62 557.2,-593.07 565.12,-600.1 567.78,-593.62"/>
</g>
<!-- increment_mod -->
<g id="node11" class="node">
<title>increment_mod</title>
<g id="a_node11"><a xlink:href="../modules/increment_mod.svg" xlink:title="increment_mod">
<polygon fill="none" stroke="red" points="620,-521 519,-521 519,-485 620,-485 620,-521"/>
<text text-anchor="middle" x="569.5" y="-499.3" font-family="Times,serif" font-size="14.00">increment_mod</text>
</a>
</g>
</g>
<!-- midas_var1d&#45;&gt;increment_mod -->
<g id="edge10" class="edge">
<title>midas_var1d&#45;&gt;increment_mod</title>
<path fill="none" stroke="black" d="M668.5,-628.94C658.17,-618.83 645.17,-605.58 634.5,-593 617.17,-572.56 599.34,-547.84 586.75,-529.65"/>
<polygon fill="black" stroke="black" points="589.56,-527.55 581.02,-521.29 583.79,-531.51 589.56,-527.55"/>
</g>
<!-- innovation_mod -->
<g id="node12" class="node">
<title>innovation_mod</title>
<g id="a_node12"><a xlink:href="../modules/innovation_mod.svg" xlink:title="innovation_mod">
<polygon fill="none" stroke="red" points="658.5,-449 554.5,-449 554.5,-413 658.5,-413 658.5,-449"/>
<text text-anchor="middle" x="606.5" y="-427.3" font-family="Times,serif" font-size="14.00">innovation_mod</text>
</a>
</g>
</g>
<!-- midas_var1d&#45;&gt;innovation_mod -->
<g id="edge11" class="edge">
<title>midas_var1d&#45;&gt;innovation_mod</title>
<path fill="none" stroke="black" d="M680.67,-628.98C670.5,-599.5 648.68,-537.08 628.5,-485 625.14,-476.32 621.3,-466.92 617.78,-458.47"/>
<polygon fill="black" stroke="black" points="620.94,-456.97 613.84,-449.1 614.49,-459.68 620.94,-456.97"/>
</g>
<!-- mathphysconstants_mod -->
<g id="node13" class="node">
<title>mathphysconstants_mod</title>
<g id="a_node13"><a xlink:href="../modules/mathphysconstants_mod.html" xlink:title="mathphysconstants_mod">
<polygon fill="gray" stroke="black" points="696.5,-377 546.5,-377 546.5,-341 696.5,-341 696.5,-377"/>
<text text-anchor="middle" x="621.5" y="-355.3" font-family="Times,serif" font-size="14.00">mathphysconstants_mod</text>
</a>
</g>
</g>
<!-- midas_var1d&#45;&gt;mathphysconstants_mod -->
<g id="edge12" class="edge">
<title>midas_var1d&#45;&gt;mathphysconstants_mod</title>
<path fill="none" stroke="black" d="M688.62,-628.77C692.8,-588.95 699.12,-488.2 667.5,-413 663.13,-402.62 655.92,-392.82 648.49,-384.54"/>
<polygon fill="black" stroke="black" points="650.82,-381.91 641.38,-377.1 645.76,-386.75 650.82,-381.91"/>
</g>
<!-- midasmpi_mod -->
<g id="node14" class="node">
<title>midasmpi_mod</title>
<g id="a_node14"><a xlink:href="../modules/midasmpi_mod.svg" xlink:title="midasmpi_mod">
<polygon fill="none" stroke="red" points="734,-305 633,-305 633,-269 734,-269 734,-305"/>
<text text-anchor="middle" x="683.5" y="-283.3" font-family="Times,serif" font-size="14.00">midasmpi_mod</text>
</a>
</g>
</g>
<!-- midas_var1d&#45;&gt;midasmpi_mod -->
<g id="edge13" class="edge">
<title>midas_var1d&#45;&gt;midasmpi_mod</title>
<path fill="none" stroke="black" d="M694.19,-628.91C705.29,-602.62 724.5,-550.45 724.5,-504 724.5,-504 724.5,-504 724.5,-430 724.5,-388.41 708.06,-342.56 696,-314.51"/>
<polygon fill="black" stroke="black" points="699.05,-312.75 691.8,-305.03 692.65,-315.59 699.05,-312.75"/>
</g>
<!-- minimization_mod -->
<g id="node15" class="node">
<title>minimization_mod</title>
<g id="a_node15"><a xlink:href="../modules/minimization_mod.svg" xlink:title="minimization_mod">
<polygon fill="none" stroke="red" points="772,-233 651,-233 651,-197 772,-197 772,-233"/>
<text text-anchor="middle" x="711.5" y="-211.3" font-family="Times,serif" font-size="14.00">minimization_mod</text>
</a>
</g>
</g>
<!-- midas_var1d&#45;&gt;minimization_mod -->
<g id="edge14" class="edge">
<title>midas_var1d&#45;&gt;minimization_mod</title>
<path fill="none" stroke="black" d="M702.99,-628.77C725.34,-603.53 762.5,-554.05 762.5,-504 762.5,-504 762.5,-504 762.5,-358 762.5,-317.46 757.35,-306.72 742.5,-269 738.89,-259.82 733.83,-250.35 728.86,-242.01"/>
<polygon fill="black" stroke="black" points="731.8,-240.11 723.56,-233.45 725.85,-243.8 731.8,-240.11"/>
</g>
<!-- obserrors_mod -->
<g id="node16" class="node">
<title>obserrors_mod</title>
<g id="a_node16"><a xlink:href="../modules/obserrors_mod.svg" xlink:title="obserrors_mod">
<polygon fill="none" stroke="red" points="810.5,-161 712.5,-161 712.5,-125 810.5,-125 810.5,-161"/>
<text text-anchor="middle" x="761.5" y="-139.3" font-family="Times,serif" font-size="14.00">obserrors_mod</text>
</a>
</g>
</g>
<!-- midas_var1d&#45;&gt;obserrors_mod -->
<g id="edge15" class="edge">
<title>midas_var1d&#45;&gt;obserrors_mod</title>
<path fill="none" stroke="black" d="M713.52,-628.96C747.23,-605.37 800.5,-559.33 800.5,-504 800.5,-504 800.5,-504 800.5,-286 800.5,-244.56 784.86,-198.67 773.39,-170.58"/>
<polygon fill="black" stroke="black" points="776.5,-168.93 769.39,-161.07 770.05,-171.65 776.5,-168.93"/>
</g>
<!-- obsfiles_mod -->
<g id="node17" class="node">
<title>obsfiles_mod</title>
<g id="a_node17"><a xlink:href="../modules/obsfiles_mod.svg" xlink:title="obsfiles_mod">
<polygon fill="none" stroke="red" points="883,-89 794,-89 794,-53 883,-53 883,-89"/>
<text text-anchor="middle" x="838.5" y="-67.3" font-family="Times,serif" font-size="14.00">obsfiles_mod</text>
</a>
</g>
</g>
<!-- midas_var1d&#45;&gt;obsfiles_mod -->
<g id="edge16" class="edge">
<title>midas_var1d&#45;&gt;obsfiles_mod</title>
<path fill="none" stroke="black" d="M727.63,-628.9C772.65,-607.12 838.5,-564.85 838.5,-504 838.5,-504 838.5,-504 838.5,-214 838.5,-174 838.5,-127.65 838.5,-99.08"/>
<polygon fill="black" stroke="black" points="842,-99.05 838.5,-89.05 835,-99.05 842,-99.05"/>
</g>
<!-- obsspacedata_mod -->
<g id="node18" class="node">
<title>obsspacedata_mod</title>
<g id="a_node18"><a xlink:href="../modules/obsspacedata_mod.svg" xlink:title="obsspacedata_mod">
<polygon fill="none" stroke="red" points="984.5,-593 866.5,-593 866.5,-557 984.5,-557 984.5,-593"/>
<text text-anchor="middle" x="925.5" y="-571.3" font-family="Times,serif" font-size="14.00">obsspacedata_mod</text>
</a>
</g>
</g>
<!-- midas_var1d&#45;&gt;obsspacedata_mod -->
<g id="edge17" class="edge">
<title>midas_var1d&#45;&gt;obsspacedata_mod</title>
<path fill="none" stroke="black" d="M729.5,-633.4C765.09,-622.98 816.28,-607.99 857.43,-595.94"/>
<polygon fill="black" stroke="black" points="858.5,-599.27 867.12,-593.1 856.54,-592.55 858.5,-599.27"/>
</g>
<!-- ramdisk_mod -->
<g id="node19" class="node">
<title>ramdisk_mod</title>
<g id="a_node19"><a xlink:href="../modules/ramdisk_mod.svg" xlink:title="ramdisk_mod">
<polygon fill="none" stroke="red" points="1022,-521 931,-521 931,-485 1022,-485 1022,-521"/>
<text text-anchor="middle" x="976.5" y="-499.3" font-family="Times,serif" font-size="14.00">ramdisk_mod</text>
</a>
</g>
</g>
<!-- midas_var1d&#45;&gt;ramdisk_mod -->
<g id="edge18" class="edge">
<title>midas_var1d&#45;&gt;ramdisk_mod</title>
<path fill="none" stroke="black" d="M729.69,-645.12C806.11,-642.54 960.27,-632.46 993.5,-593 1008.13,-575.63 1000.85,-549.54 991.72,-530.1"/>
<polygon fill="black" stroke="black" points="994.83,-528.49 987.18,-521.15 988.59,-531.65 994.83,-528.49"/>
</g>
<!-- timecoord_mod -->
<g id="node20" class="node">
<title>timecoord_mod</title>
<g id="a_node20"><a xlink:href="../modules/timecoord_mod.svg" xlink:title="timecoord_mod">
<polygon fill="none" stroke="red" points="1060.5,-449 958.5,-449 958.5,-413 1060.5,-413 1060.5,-449"/>
<text text-anchor="middle" x="1009.5" y="-427.3" font-family="Times,serif" font-size="14.00">timecoord_mod</text>
</a>
</g>
</g>
<!-- midas_var1d&#45;&gt;timecoord_mod -->
<g id="edge19" class="edge">
<title>midas_var1d&#45;&gt;timecoord_mod</title>
<path fill="none" stroke="black" d="M729.53,-644.72C808.44,-641.47 971.93,-630.31 1012.5,-593 1048.32,-560.06 1039.62,-532.8 1030.5,-485 1028.79,-476.06 1025.6,-466.7 1022.21,-458.37"/>
<polygon fill="black" stroke="black" points="1025.41,-456.95 1018.22,-449.17 1018.99,-459.73 1025.41,-456.95"/>
</g>
<!-- utilities_mod -->
<g id="node21" class="node">
<title>utilities_mod</title>
<g id="a_node21"><a xlink:href="../modules/utilities_mod.svg" xlink:title="utilities_mod">
<polygon fill="none" stroke="red" points="1098.5,-377 1010.5,-377 1010.5,-341 1098.5,-341 1098.5,-377"/>
<text text-anchor="middle" x="1054.5" y="-355.3" font-family="Times,serif" font-size="14.00">utilities_mod</text>
</a>
</g>
</g>
<!-- midas_var1d&#45;&gt;utilities_mod -->
<g id="edge20" class="edge">
<title>midas_var1d&#45;&gt;utilities_mod</title>
<path fill="none" stroke="black" d="M729.78,-645.43C813.8,-643.39 994.64,-634.2 1038.5,-593 1097.67,-537.42 1080.66,-493.41 1069.5,-413 1068.32,-404.48 1066.11,-395.39 1063.75,-387.2"/>
<polygon fill="black" stroke="black" points="1067.02,-385.94 1060.74,-377.41 1060.33,-387.99 1067.02,-385.94"/>
</g>
<!-- var1d_mod -->
<g id="node22" class="node">
<title>var1d_mod</title>
<g id="a_node22"><a xlink:href="../modules/var1d_mod.svg" xlink:title="var1d_mod">
<polygon fill="none" stroke="red" points="1150,-305 1073,-305 1073,-269 1150,-269 1150,-305"/>
<text text-anchor="middle" x="1111.5" y="-283.3" font-family="Times,serif" font-size="14.00">var1d_mod</text>
</a>
</g>
</g>
<!-- midas_var1d&#45;&gt;var1d_mod -->
<g id="edge21" class="edge">
<title>midas_var1d&#45;&gt;var1d_mod</title>
<path fill="none" stroke="black" d="M729.68,-644.41C817.21,-640.47 1011.97,-627.95 1067.5,-593 1107.66,-567.72 1126.5,-551.46 1126.5,-504 1126.5,-504 1126.5,-504 1126.5,-430 1126.5,-389.99 1120.54,-344 1116.13,-315.46"/>
<polygon fill="black" stroke="black" points="1119.56,-314.75 1114.54,-305.43 1112.65,-315.85 1119.56,-314.75"/>
</g>
<!-- version_mod -->
<g id="node23" class="node">
<title>version_mod</title>
<g id="a_node23"><a xlink:href="../modules/version_mod.html" xlink:title="version_mod">
<polygon fill="gray" stroke="black" points="1221.5,-233 1135.5,-233 1135.5,-197 1221.5,-197 1221.5,-233"/>
<text text-anchor="middle" x="1178.5" y="-211.3" font-family="Times,serif" font-size="14.00">version_mod</text>
</a>
</g>
</g>
<!-- midas_var1d&#45;&gt;version_mod -->
<g id="edge22" class="edge">
<title>midas_var1d&#45;&gt;version_mod</title>
<path fill="none" stroke="black" d="M729.83,-644.45C823.12,-640.49 1039.72,-627.72 1103.5,-593 1148.93,-568.27 1178.5,-555.73 1178.5,-504 1178.5,-504 1178.5,-504 1178.5,-358 1178.5,-318 1178.5,-271.65 1178.5,-243.08"/>
<polygon fill="black" stroke="black" points="1182,-243.05 1178.5,-233.05 1175,-243.05 1182,-243.05"/>
</g>
<!-- verticalcoord_mod -->
<g id="node24" class="node">
<title>verticalcoord_mod</title>
<g id="a_node24"><a xlink:href="../modules/verticalcoord_mod.svg" xlink:title="verticalcoord_mod">
<polygon fill="none" stroke="red" points="1308.5,-161 1190.5,-161 1190.5,-125 1308.5,-125 1308.5,-161"/>
<text text-anchor="middle" x="1249.5" y="-139.3" font-family="Times,serif" font-size="14.00">verticalcoord_mod</text>
</a>
</g>
</g>
<!-- midas_var1d&#45;&gt;verticalcoord_mod -->
<g id="edge23" class="edge">
<title>midas_var1d&#45;&gt;verticalcoord_mod</title>
<path fill="none" stroke="black" d="M729.71,-644.26C829.33,-639.73 1072.25,-625.6 1146.5,-593 1201.9,-568.68 1249.5,-564.5 1249.5,-504 1249.5,-504 1249.5,-504 1249.5,-286 1249.5,-246 1249.5,-199.65 1249.5,-171.08"/>
<polygon fill="black" stroke="black" points="1253,-171.05 1249.5,-161.05 1246,-171.05 1253,-171.05"/>
</g>
</g>
</svg>
