<?xml version="1.0" encoding="UTF-8" standalone="no"?>
<!DOCTYPE svg PUBLIC "-//W3C//DTD SVG 1.1//EN"
 "http://www.w3.org/Graphics/SVG/1.1/DTD/svg11.dtd">
<!-- Generated by graphviz version 3.0.0 (20220315.2325)
 -->
<!-- Title: midas_enspostprocess Pages: 1 -->
<svg width="790pt" height="673pt"
 viewBox="0.00 0.00 790.00 673.00" xmlns="http://www.w3.org/2000/svg" xmlns:xlink="http://www.w3.org/1999/xlink">
<g id="graph0" class="graph" transform="scale(1 1) rotate(0) translate(4 669)">
<title>midas_enspostprocess</title>
<polygon fill="white" stroke="transparent" points="-4,4 -4,-669 786,-669 786,4 -4,4"/>
<text text-anchor="middle" x="391" y="-37.8" font-family="Times,serif" font-size="14.00">Red boxes indicate modules with dependencies not shown</text>
<text text-anchor="middle" x="391" y="-22.8" font-family="Times,serif" font-size="14.00">Lower level dependencies can be shown by clicking on a red box</text>
<text text-anchor="middle" x="391" y="-7.8" font-family="Times,serif" font-size="14.00">Shaded boxes indicate modules with no dependencies</text>
<!-- midas_enspostprocess -->
<g id="node1" class="node">
<title>midas_enspostprocess</title>
<g id="a_node1"><a xlink:href="midas_enspostprocess.html" xlink:title="midas_enspostprocess">
<polygon fill="none" stroke="black" points="450.5,-665 313.5,-665 313.5,-629 450.5,-629 450.5,-665"/>
<text text-anchor="middle" x="382" y="-643.3" font-family="Times,serif" font-size="14.00">midas_enspostprocess</text>
</a>
</g>
</g>
<!-- ensemblestatevector_mod -->
<g id="node2" class="node">
<title>ensemblestatevector_mod</title>
<g id="a_node2"><a xlink:href="../modules/ensemblestatevector_mod.svg" xlink:title="ensemblestatevector_mod">
<polygon fill="none" stroke="red" points="156,-593 0,-593 0,-557 156,-557 156,-593"/>
<text text-anchor="middle" x="78" y="-571.3" font-family="Times,serif" font-size="14.00">ensemblestatevector_mod</text>
</a>
</g>
</g>
<!-- midas_enspostprocess&#45;&gt;ensemblestatevector_mod -->
<g id="edge1" class="edge">
<title>midas_enspostprocess&#45;&gt;ensemblestatevector_mod</title>
<path fill="none" stroke="black" d="M313.4,-630.2C268.52,-619.87 209.59,-606.3 161.92,-595.32"/>
<polygon fill="black" stroke="black" points="162.46,-591.86 151.93,-593.02 160.89,-598.68 162.46,-591.86"/>
</g>
<!-- enspostprocess_mod -->
<g id="node3" class="node">
<title>enspostprocess_mod</title>
<g id="a_node3"><a xlink:href="../modules/enspostprocess_mod.svg" xlink:title="enspostprocess_mod">
<polygon fill="none" stroke="red" points="221,-521 93,-521 93,-485 221,-485 221,-521"/>
<text text-anchor="middle" x="157" y="-499.3" font-family="Times,serif" font-size="14.00">enspostprocess_mod</text>
</a>
</g>
</g>
<!-- midas_enspostprocess&#45;&gt;enspostprocess_mod -->
<g id="edge2" class="edge">
<title>midas_enspostprocess&#45;&gt;enspostprocess_mod</title>
<path fill="none" stroke="black" d="M313.46,-629.19C287.49,-620.85 258.53,-609.05 235,-593 210.01,-575.96 187.97,-549.08 173.75,-529.32"/>
<polygon fill="black" stroke="black" points="176.57,-527.25 167.96,-521.07 170.84,-531.27 176.57,-527.25"/>
</g>
<!-- filenames_mod -->
<g id="node4" class="node">
<title>filenames_mod</title>
<g id="a_node4"><a xlink:href="../modules/filenames_mod.svg" xlink:title="filenames_mod">
<polygon fill="none" stroke="red" points="258.5,-449 159.5,-449 159.5,-413 258.5,-413 258.5,-449"/>
<text text-anchor="middle" x="209" y="-427.3" font-family="Times,serif" font-size="14.00">filenames_mod</text>
</a>
</g>
</g>
<!-- midas_enspostprocess&#45;&gt;filenames_mod -->
<g id="edge3" class="edge">
<title>midas_enspostprocess&#45;&gt;filenames_mod</title>
<path fill="none" stroke="black" d="M327.82,-628.98C308.47,-620.68 287.82,-608.96 273,-593 272.7,-592.67 237.72,-504.47 219.61,-458.77"/>
<polygon fill="black" stroke="black" points="222.75,-457.19 215.81,-449.19 216.24,-459.77 222.75,-457.19"/>
</g>
<!-- gridstatevectorfileio_mod -->
<g id="node5" class="node">
<title>gridstatevectorfileio_mod</title>
<g id="a_node5"><a xlink:href="../modules/gridstatevectorfileio_mod.svg" xlink:title="gridstatevectorfileio_mod">
<polygon fill="none" stroke="red" points="296.5,-377 141.5,-377 141.5,-341 296.5,-341 296.5,-377"/>
<text text-anchor="middle" x="219" y="-355.3" font-family="Times,serif" font-size="14.00">gridstatevectorfileio_mod</text>
</a>
</g>
</g>
<!-- midas_enspostprocess&#45;&gt;gridstatevectorfileio_mod -->
<g id="edge4" class="edge">
<title>midas_enspostprocess&#45;&gt;gridstatevectorfileio_mod</title>
<path fill="none" stroke="black" d="M350,-628.9C336.08,-619.94 320.76,-607.75 311,-593 265.55,-524.32 305.6,-485.75 267,-413 261.56,-402.76 253.71,-392.93 245.92,-384.59"/>
<polygon fill="black" stroke="black" points="248.35,-382.07 238.85,-377.37 243.34,-386.96 248.35,-382.07"/>
</g>
<!-- gridstatevector_mod -->
<g id="node6" class="node">
<title>gridstatevector_mod</title>
<g id="a_node6"><a xlink:href="../modules/gridstatevector_mod.svg" xlink:title="gridstatevector_mod">
<polygon fill="none" stroke="red" points="334.5,-305 207.5,-305 207.5,-269 334.5,-269 334.5,-305"/>
<text text-anchor="middle" x="271" y="-283.3" font-family="Times,serif" font-size="14.00">gridstatevector_mod</text>
</a>
</g>
</g>
<!-- midas_enspostprocess&#45;&gt;gridstatevector_mod -->
<g id="edge5" class="edge">
<title>midas_enspostprocess&#45;&gt;gridstatevector_mod</title>
<path fill="none" stroke="black" d="M369.33,-628.57C362.53,-618.56 354.45,-605.52 349,-593 332.66,-555.43 325,-544.97 325,-504 325,-504 325,-504 325,-430 325,-389.46 320.63,-378.41 305,-341 301.06,-331.57 295.46,-321.95 289.94,-313.55"/>
<polygon fill="black" stroke="black" points="292.83,-311.57 284.29,-305.29 287.05,-315.52 292.83,-311.57"/>
</g>
<!-- horizontalcoord_mod -->
<g id="node7" class="node">
<title>horizontalcoord_mod</title>
<g id="a_node7"><a xlink:href="../modules/horizontalcoord_mod.svg" xlink:title="horizontalcoord_mod">
<polygon fill="none" stroke="red" points="372.5,-233 239.5,-233 239.5,-197 372.5,-197 372.5,-233"/>
<text text-anchor="middle" x="306" y="-211.3" font-family="Times,serif" font-size="14.00">horizontalcoord_mod</text>
</a>
</g>
</g>
<!-- midas_enspostprocess&#45;&gt;horizontalcoord_mod -->
<g id="edge6" class="edge">
<title>midas_enspostprocess&#45;&gt;horizontalcoord_mod</title>
<path fill="none" stroke="black" d="M378.16,-628.61C372.6,-601.94 363,-549.27 363,-504 363,-504 363,-504 363,-358 363,-317.46 359.36,-306.1 343,-269 338.77,-259.4 332.69,-249.74 326.68,-241.35"/>
<polygon fill="black" stroke="black" points="329.31,-239.02 320.52,-233.11 323.71,-243.22 329.31,-239.02"/>
</g>
<!-- midasmpi_mod -->
<g id="node8" class="node">
<title>midasmpi_mod</title>
<g id="a_node8"><a xlink:href="../modules/midasmpi_mod.svg" xlink:title="midasmpi_mod">
<polygon fill="none" stroke="red" points="410.5,-161 309.5,-161 309.5,-125 410.5,-125 410.5,-161"/>
<text text-anchor="middle" x="360" y="-139.3" font-family="Times,serif" font-size="14.00">midasmpi_mod</text>
</a>
</g>
</g>
<!-- midas_enspostprocess&#45;&gt;midasmpi_mod -->
<g id="edge7" class="edge">
<title>midas_enspostprocess&#45;&gt;midasmpi_mod</title>
<path fill="none" stroke="black" d="M385.84,-628.61C391.4,-601.94 401,-549.27 401,-504 401,-504 401,-504 401,-286 401,-244.41 384.56,-198.56 372.5,-170.51"/>
<polygon fill="black" stroke="black" points="375.55,-168.75 368.3,-161.03 369.15,-171.59 375.55,-168.75"/>
</g>
<!-- ramdisk_mod -->
<g id="node9" class="node">
<title>ramdisk_mod</title>
<g id="a_node9"><a xlink:href="../modules/ramdisk_mod.svg" xlink:title="ramdisk_mod">
<polygon fill="none" stroke="red" points="484.5,-89 393.5,-89 393.5,-53 484.5,-53 484.5,-89"/>
<text text-anchor="middle" x="439" y="-67.3" font-family="Times,serif" font-size="14.00">ramdisk_mod</text>
</a>
</g>
</g>
<!-- midas_enspostprocess&#45;&gt;ramdisk_mod -->
<g id="edge8" class="edge">
<title>midas_enspostprocess&#45;&gt;ramdisk_mod</title>
<path fill="none" stroke="black" d="M393.81,-628.96C410.51,-603.16 439,-552.08 439,-504 439,-504 439,-504 439,-214 439,-174 439,-127.65 439,-99.08"/>
<polygon fill="black" stroke="black" points="442.5,-99.05 439,-89.05 435.5,-99.05 442.5,-99.05"/>
</g>
<!-- timecoord_mod -->
<g id="node10" class="node">
<title>timecoord_mod</title>
<g id="a_node10"><a xlink:href="../modules/timecoord_mod.svg" xlink:title="timecoord_mod">
<polygon fill="none" stroke="red" points="569,-593 467,-593 467,-557 569,-557 569,-593"/>
<text text-anchor="middle" x="518" y="-571.3" font-family="Times,serif" font-size="14.00">timecoord_mod</text>
</a>
</g>
</g>
<!-- midas_enspostprocess&#45;&gt;timecoord_mod -->
<g id="edge9" class="edge">
<title>midas_enspostprocess&#45;&gt;timecoord_mod</title>
<path fill="none" stroke="black" d="M415.27,-628.88C433.46,-619.51 456.19,-607.81 475.64,-597.8"/>
<polygon fill="black" stroke="black" points="477.31,-600.88 484.6,-593.19 474.11,-594.65 477.31,-600.88"/>
</g>
<!-- utilities_mod -->
<g id="node11" class="node">
<title>utilities_mod</title>
<g id="a_node11"><a xlink:href="../modules/utilities_mod.svg" xlink:title="utilities_mod">
<polygon fill="none" stroke="red" points="624,-521 536,-521 536,-485 624,-485 624,-521"/>
<text text-anchor="middle" x="580" y="-499.3" font-family="Times,serif" font-size="14.00">utilities_mod</text>
</a>
</g>
</g>
<!-- midas_enspostprocess&#45;&gt;utilities_mod -->
<g id="edge10" class="edge">
<title>midas_enspostprocess&#45;&gt;utilities_mod</title>
<path fill="none" stroke="black" d="M450.67,-636.27C500.61,-627.65 562.13,-613.26 578,-593 591.51,-575.75 590.67,-550.32 587.23,-531.05"/>
<polygon fill="black" stroke="black" points="590.62,-530.14 585.13,-521.07 583.77,-531.58 590.62,-530.14"/>
</g>
<!-- version_mod -->
<g id="node12" class="node">
<title>version_mod</title>
<g id="a_node12"><a xlink:href="../modules/version_mod.html" xlink:title="version_mod">
<polygon fill="gray" stroke="black" points="695,-449 609,-449 609,-413 695,-413 695,-449"/>
<text text-anchor="middle" x="652" y="-427.3" font-family="Times,serif" font-size="14.00">version_mod</text>
</a>
</g>
</g>
<!-- midas_enspostprocess&#45;&gt;version_mod -->
<g id="edge11" class="edge">
<title>midas_enspostprocess&#45;&gt;version_mod</title>
<path fill="none" stroke="black" d="M450.95,-643.94C497.02,-639.27 556.55,-626.48 598,-593 638.42,-560.35 648.78,-496.33 651.31,-459.62"/>
<polygon fill="black" stroke="black" points="654.83,-459.34 651.87,-449.17 647.84,-458.97 654.83,-459.34"/>
</g>
<!-- verticalcoord_mod -->
<g id="node13" class="node">
<title>verticalcoord_mod</title>
<g id="a_node13"><a xlink:href="../modules/verticalcoord_mod.svg" xlink:title="verticalcoord_mod">
<polygon fill="none" stroke="red" points="782,-377 664,-377 664,-341 782,-341 782,-377"/>
<text text-anchor="middle" x="723" y="-355.3" font-family="Times,serif" font-size="14.00">verticalcoord_mod</text>
</a>
</g>
</g>
<!-- midas_enspostprocess&#45;&gt;verticalcoord_mod -->
<g id="edge12" class="edge">
<title>midas_enspostprocess&#45;&gt;verticalcoord_mod</title>
<path fill="none" stroke="black" d="M450.75,-637.67C513.21,-628.95 599.64,-613.64 627,-593 693.86,-542.55 714.41,-437.24 720.52,-387.35"/>
<polygon fill="black" stroke="black" points="724.01,-387.63 721.65,-377.3 717.05,-386.85 724.01,-387.63"/>
</g>
</g>
</svg>
