<?xml version="1.0" encoding="UTF-8" standalone="no"?>
<!DOCTYPE svg PUBLIC "-//W3C//DTD SVG 1.1//EN"
 "http://www.w3.org/Graphics/SVG/1.1/DTD/svg11.dtd">
<!-- Generated by graphviz version 3.0.0 (20220315.2325)
 -->
<!-- Title: midas_calcstats Pages: 1 -->
<svg width="671pt" height="673pt"
 viewBox="0.00 0.00 671.00 673.00" xmlns="http://www.w3.org/2000/svg" xmlns:xlink="http://www.w3.org/1999/xlink">
<g id="graph0" class="graph" transform="scale(1 1) rotate(0) translate(4 669)">
<title>midas_calcstats</title>
<polygon fill="white" stroke="transparent" points="-4,4 -4,-669 667,-669 667,4 -4,4"/>
<text text-anchor="middle" x="331.5" y="-37.8" font-family="Times,serif" font-size="14.00">Red boxes indicate modules with dependencies not shown</text>
<text text-anchor="middle" x="331.5" y="-22.8" font-family="Times,serif" font-size="14.00">Lower level dependencies can be shown by clicking on a red box</text>
<text text-anchor="middle" x="331.5" y="-7.8" font-family="Times,serif" font-size="14.00">Shaded boxes indicate modules with no dependencies</text>
<!-- midas_calcstats -->
<g id="node1" class="node">
<title>midas_calcstats</title>
<g id="a_node1"><a xlink:href="midas_calcstats.html" xlink:title="midas_calcstats">
<polygon fill="none" stroke="black" points="364,-665 262,-665 262,-629 364,-629 364,-665"/>
<text text-anchor="middle" x="313" y="-643.3" font-family="Times,serif" font-size="14.00">midas_calcstats</text>
</a>
</g>
</g>
<!-- calcstatsglb_mod -->
<g id="node2" class="node">
<title>calcstatsglb_mod</title>
<g id="a_node2"><a xlink:href="../modules/calcstatsglb_mod.svg" xlink:title="calcstatsglb_mod">
<polygon fill="none" stroke="red" points="110,-593 0,-593 0,-557 110,-557 110,-593"/>
<text text-anchor="middle" x="55" y="-571.3" font-family="Times,serif" font-size="14.00">calcstatsglb_mod</text>
</a>
</g>
</g>
<!-- midas_calcstats&#45;&gt;calcstatsglb_mod -->
<g id="edge1" class="edge">
<title>midas_calcstats&#45;&gt;calcstatsglb_mod</title>
<path fill="none" stroke="black" d="M261.72,-632.09C221.01,-621.04 163.83,-605.53 119.92,-593.61"/>
<polygon fill="black" stroke="black" points="120.77,-590.22 110.2,-590.98 118.93,-596.97 120.77,-590.22"/>
</g>
<!-- calcstatslam_mod -->
<g id="node3" class="node">
<title>calcstatslam_mod</title>
<g id="a_node3"><a xlink:href="../modules/calcstatslam_mod.svg" xlink:title="calcstatslam_mod">
<polygon fill="none" stroke="red" points="170.5,-521 57.5,-521 57.5,-485 170.5,-485 170.5,-521"/>
<text text-anchor="middle" x="114" y="-499.3" font-family="Times,serif" font-size="14.00">calcstatslam_mod</text>
</a>
</g>
</g>
<!-- midas_calcstats&#45;&gt;calcstatslam_mod -->
<g id="edge2" class="edge">
<title>midas_calcstats&#45;&gt;calcstatslam_mod</title>
<path fill="none" stroke="black" d="M261.91,-631.49C237.14,-622.87 207.87,-610.21 185,-593 161.99,-575.69 142.17,-549.26 129.37,-529.69"/>
<polygon fill="black" stroke="black" points="132.32,-527.8 123.99,-521.24 126.41,-531.56 132.32,-527.8"/>
</g>
<!-- filenames_mod -->
<g id="node4" class="node">
<title>filenames_mod</title>
<g id="a_node4"><a xlink:href="../modules/filenames_mod.svg" xlink:title="filenames_mod">
<polygon fill="none" stroke="red" points="208.5,-449 109.5,-449 109.5,-413 208.5,-413 208.5,-449"/>
<text text-anchor="middle" x="159" y="-427.3" font-family="Times,serif" font-size="14.00">filenames_mod</text>
</a>
</g>
</g>
<!-- midas_calcstats&#45;&gt;filenames_mod -->
<g id="edge3" class="edge">
<title>midas_calcstats&#45;&gt;filenames_mod</title>
<path fill="none" stroke="black" d="M271.69,-628.96C254.76,-620.28 236.1,-608.28 223,-593 218.39,-587.62 185.93,-503.02 169.09,-458.67"/>
<polygon fill="black" stroke="black" points="172.27,-457.21 165.46,-449.1 165.73,-459.69 172.27,-457.21"/>
</g>
<!-- gridstatevector_mod -->
<g id="node5" class="node">
<title>gridstatevector_mod</title>
<g id="a_node5"><a xlink:href="../modules/gridstatevector_mod.svg" xlink:title="gridstatevector_mod">
<polygon fill="none" stroke="red" points="246.5,-377 119.5,-377 119.5,-341 246.5,-341 246.5,-377"/>
<text text-anchor="middle" x="183" y="-355.3" font-family="Times,serif" font-size="14.00">gridstatevector_mod</text>
</a>
</g>
</g>
<!-- midas_calcstats&#45;&gt;gridstatevector_mod -->
<g id="edge4" class="edge">
<title>midas_calcstats&#45;&gt;gridstatevector_mod</title>
<path fill="none" stroke="black" d="M291.46,-628.93C280.82,-619.42 268.65,-606.74 261,-593 220.95,-521.04 249.45,-488.69 217,-413 212.97,-403.6 207.35,-394 201.83,-385.59"/>
<polygon fill="black" stroke="black" points="204.72,-383.62 196.2,-377.33 198.94,-387.56 204.72,-383.62"/>
</g>
<!-- horizontalcoord_mod -->
<g id="node6" class="node">
<title>horizontalcoord_mod</title>
<g id="a_node6"><a xlink:href="../modules/horizontalcoord_mod.svg" xlink:title="horizontalcoord_mod">
<polygon fill="none" stroke="red" points="284.5,-305 151.5,-305 151.5,-269 284.5,-269 284.5,-305"/>
<text text-anchor="middle" x="218" y="-283.3" font-family="Times,serif" font-size="14.00">horizontalcoord_mod</text>
</a>
</g>
</g>
<!-- midas_calcstats&#45;&gt;horizontalcoord_mod -->
<g id="edge5" class="edge">
<title>midas_calcstats&#45;&gt;horizontalcoord_mod</title>
<path fill="none" stroke="black" d="M305.31,-628.91C294.21,-602.62 275,-550.45 275,-504 275,-504 275,-504 275,-430 275,-389.46 271.36,-378.1 255,-341 250.77,-331.4 244.69,-321.74 238.68,-313.35"/>
<polygon fill="black" stroke="black" points="241.31,-311.02 232.52,-305.11 235.71,-315.22 241.31,-311.02"/>
</g>
<!-- midasmpi_mod -->
<g id="node7" class="node">
<title>midasmpi_mod</title>
<g id="a_node7"><a xlink:href="../modules/midasmpi_mod.svg" xlink:title="midasmpi_mod">
<polygon fill="none" stroke="red" points="322.5,-233 221.5,-233 221.5,-197 322.5,-197 322.5,-233"/>
<text text-anchor="middle" x="272" y="-211.3" font-family="Times,serif" font-size="14.00">midasmpi_mod</text>
</a>
</g>
</g>
<!-- midas_calcstats&#45;&gt;midasmpi_mod -->
<g id="edge6" class="edge">
<title>midas_calcstats&#45;&gt;midasmpi_mod</title>
<path fill="none" stroke="black" d="M313,-628.95C313,-602.29 313,-549.11 313,-504 313,-504 313,-504 313,-358 313,-316.41 296.56,-270.56 284.5,-242.51"/>
<polygon fill="black" stroke="black" points="287.55,-240.75 280.3,-233.03 281.15,-243.59 287.55,-240.75"/>
</g>
<!-- ramdisk_mod -->
<g id="node8" class="node">
<title>ramdisk_mod</title>
<g id="a_node8"><a xlink:href="../modules/ramdisk_mod.svg" xlink:title="ramdisk_mod">
<polygon fill="none" stroke="red" points="360.5,-161 269.5,-161 269.5,-125 360.5,-125 360.5,-161"/>
<text text-anchor="middle" x="315" y="-139.3" font-family="Times,serif" font-size="14.00">ramdisk_mod</text>
</a>
</g>
</g>
<!-- midas_calcstats&#45;&gt;ramdisk_mod -->
<g id="edge7" class="edge">
<title>midas_calcstats&#45;&gt;ramdisk_mod</title>
<path fill="none" stroke="black" d="M320.69,-628.91C331.79,-602.62 351,-550.45 351,-504 351,-504 351,-504 351,-286 351,-244.78 336.57,-198.83 325.98,-170.66"/>
<polygon fill="black" stroke="black" points="329.16,-169.19 322.29,-161.13 322.64,-171.72 329.16,-169.19"/>
</g>
<!-- timecoord_mod -->
<g id="node9" class="node">
<title>timecoord_mod</title>
<g id="a_node9"><a xlink:href="../modules/timecoord_mod.svg" xlink:title="timecoord_mod">
<polygon fill="none" stroke="red" points="440,-89 338,-89 338,-53 440,-53 440,-89"/>
<text text-anchor="middle" x="389" y="-67.3" font-family="Times,serif" font-size="14.00">timecoord_mod</text>
</a>
</g>
</g>
<!-- midas_calcstats&#45;&gt;timecoord_mod -->
<g id="edge8" class="edge">
<title>midas_calcstats&#45;&gt;timecoord_mod</title>
<path fill="none" stroke="black" d="M329.49,-628.77C351.84,-603.53 389,-554.05 389,-504 389,-504 389,-504 389,-214 389,-174 389,-127.65 389,-99.08"/>
<polygon fill="black" stroke="black" points="392.5,-99.05 389,-89.05 385.5,-99.05 392.5,-99.05"/>
</g>
<!-- utilities_mod -->
<g id="node10" class="node">
<title>utilities_mod</title>
<g id="a_node10"><a xlink:href="../modules/utilities_mod.svg" xlink:title="utilities_mod">
<polygon fill="none" stroke="red" points="505,-593 417,-593 417,-557 505,-557 505,-593"/>
<text text-anchor="middle" x="461" y="-571.3" font-family="Times,serif" font-size="14.00">utilities_mod</text>
</a>
</g>
</g>
<!-- midas_calcstats&#45;&gt;utilities_mod -->
<g id="edge9" class="edge">
<title>midas_calcstats&#45;&gt;utilities_mod</title>
<path fill="none" stroke="black" d="M349.2,-628.88C369.26,-619.39 394.37,-607.51 415.71,-597.42"/>
<polygon fill="black" stroke="black" points="417.37,-600.51 424.91,-593.07 414.38,-594.18 417.37,-600.51"/>
</g>
<!-- version_mod -->
<g id="node11" class="node">
<title>version_mod</title>
<g id="a_node11"><a xlink:href="../modules/version_mod.html" xlink:title="version_mod">
<polygon fill="gray" stroke="black" points="576,-521 490,-521 490,-485 576,-485 576,-521"/>
<text text-anchor="middle" x="533" y="-499.3" font-family="Times,serif" font-size="14.00">version_mod</text>
</a>
</g>
</g>
<!-- midas_calcstats&#45;&gt;version_mod -->
<g id="edge10" class="edge">
<title>midas_calcstats&#45;&gt;version_mod</title>
<path fill="none" stroke="black" d="M364.31,-638.68C416.83,-630.14 493.58,-614.42 514,-593 529.55,-576.7 533.67,-550.94 534.27,-531.32"/>
<polygon fill="black" stroke="black" points="537.77,-531.16 534.29,-521.16 530.77,-531.15 537.77,-531.16"/>
</g>
<!-- verticalcoord_mod -->
<g id="node12" class="node">
<title>verticalcoord_mod</title>
<g id="a_node12"><a xlink:href="../modules/verticalcoord_mod.svg" xlink:title="verticalcoord_mod">
<polygon fill="none" stroke="red" points="663,-449 545,-449 545,-413 663,-413 663,-449"/>
<text text-anchor="middle" x="604" y="-427.3" font-family="Times,serif" font-size="14.00">verticalcoord_mod</text>
</a>
</g>
</g>
<!-- midas_calcstats&#45;&gt;verticalcoord_mod -->
<g id="edge11" class="edge">
<title>midas_calcstats&#45;&gt;verticalcoord_mod</title>
<path fill="none" stroke="black" d="M364.02,-644.46C412.45,-640.71 485.32,-628.93 537,-593 581.23,-562.25 596.34,-496.46 601.45,-459.2"/>
<polygon fill="black" stroke="black" points="604.95,-459.41 602.68,-449.06 598,-458.57 604.95,-459.41"/>
</g>
</g>
</svg>
