<?xml version="1.0" encoding="UTF-8" standalone="no"?>
<!DOCTYPE svg PUBLIC "-//W3C//DTD SVG 1.1//EN"
 "http://www.w3.org/Graphics/SVG/1.1/DTD/svg11.dtd">
<!-- Generated by graphviz version 3.0.0 (20220315.2325)
 -->
<!-- Title: midas_diaghbht Pages: 1 -->
<svg width="1225pt" height="673pt"
 viewBox="0.00 0.00 1224.50 673.00" xmlns="http://www.w3.org/2000/svg" xmlns:xlink="http://www.w3.org/1999/xlink">
<g id="graph0" class="graph" transform="scale(1 1) rotate(0) translate(4 669)">
<title>midas_diaghbht</title>
<polygon fill="white" stroke="transparent" points="-4,4 -4,-669 1220.5,-669 1220.5,4 -4,4"/>
<text text-anchor="middle" x="608.25" y="-37.8" font-family="Times,serif" font-size="14.00">Red boxes indicate modules with dependencies not shown</text>
<text text-anchor="middle" x="608.25" y="-22.8" font-family="Times,serif" font-size="14.00">Lower level dependencies can be shown by clicking on a red box</text>
<text text-anchor="middle" x="608.25" y="-7.8" font-family="Times,serif" font-size="14.00">Shaded boxes indicate modules with no dependencies</text>
<!-- midas_diaghbht -->
<g id="node1" class="node">
<title>midas_diaghbht</title>
<g id="a_node1"><a xlink:href="midas_diaghbht.html" xlink:title="midas_diaghbht">
<polygon fill="none" stroke="black" points="667.5,-665 563.5,-665 563.5,-629 667.5,-629 667.5,-665"/>
<text text-anchor="middle" x="615.5" y="-643.3" font-family="Times,serif" font-size="14.00">midas_diaghbht</text>
</a>
</g>
</g>
<!-- bmatrix_mod -->
<g id="node2" class="node">
<title>bmatrix_mod</title>
<g id="a_node2"><a xlink:href="../modules/bmatrix_mod.svg" xlink:title="bmatrix_mod">
<polygon fill="none" stroke="red" points="89,-593 0,-593 0,-557 89,-557 89,-593"/>
<text text-anchor="middle" x="44.5" y="-571.3" font-family="Times,serif" font-size="14.00">bmatrix_mod</text>
</a>
</g>
</g>
<!-- midas_diaghbht&#45;&gt;bmatrix_mod -->
<g id="edge1" class="edge">
<title>midas_diaghbht&#45;&gt;bmatrix_mod</title>
<path fill="none" stroke="black" d="M563.45,-643.67C470.41,-638.82 269.74,-625.29 103.5,-593 102.03,-592.71 100.54,-592.41 99.04,-592.09"/>
<polygon fill="black" stroke="black" points="99.61,-588.62 89.08,-589.74 98.01,-595.44 99.61,-588.62"/>
</g>
<!-- codeprecision_mod -->
<g id="node3" class="node">
<title>codeprecision_mod</title>
<g id="a_node3"><a xlink:href="../modules/codeprecision_mod.html" xlink:title="codeprecision_mod">
<polygon fill="gray" stroke="black" points="153.5,-521 31.5,-521 31.5,-485 153.5,-485 153.5,-521"/>
<text text-anchor="middle" x="92.5" y="-499.3" font-family="Times,serif" font-size="14.00">codeprecision_mod</text>
</a>
</g>
</g>
<!-- midas_diaghbht&#45;&gt;codeprecision_mod -->
<g id="edge2" class="edge">
<title>midas_diaghbht&#45;&gt;codeprecision_mod</title>
<path fill="none" stroke="black" d="M563.16,-644.59C460.05,-641.04 234.81,-629.26 167.5,-593 140.85,-578.64 119.7,-550.6 106.75,-529.82"/>
<polygon fill="black" stroke="black" points="109.69,-527.91 101.54,-521.13 103.68,-531.51 109.69,-527.91"/>
</g>
<!-- columndata_mod -->
<g id="node4" class="node">
<title>columndata_mod</title>
<g id="a_node4"><a xlink:href="../modules/columndata_mod.svg" xlink:title="columndata_mod">
<polygon fill="none" stroke="red" points="191,-449 80,-449 80,-413 191,-413 191,-449"/>
<text text-anchor="middle" x="135.5" y="-427.3" font-family="Times,serif" font-size="14.00">columndata_mod</text>
</a>
</g>
</g>
<!-- midas_diaghbht&#45;&gt;columndata_mod -->
<g id="edge3" class="edge">
<title>midas_diaghbht&#45;&gt;columndata_mod</title>
<path fill="none" stroke="black" d="M563.17,-645.67C465.46,-644.03 260.21,-635.48 205.5,-593 164.69,-561.31 183.8,-532.07 162.5,-485 158.54,-476.25 153.89,-466.86 149.58,-458.46"/>
<polygon fill="black" stroke="black" points="152.63,-456.73 144.91,-449.47 146.42,-459.96 152.63,-456.73"/>
</g>
<!-- controlvector_mod -->
<g id="node5" class="node">
<title>controlvector_mod</title>
<g id="a_node5"><a xlink:href="../modules/controlvector_mod.svg" xlink:title="controlvector_mod">
<polygon fill="none" stroke="red" points="229.5,-377 111.5,-377 111.5,-341 229.5,-341 229.5,-377"/>
<text text-anchor="middle" x="170.5" y="-355.3" font-family="Times,serif" font-size="14.00">controlvector_mod</text>
</a>
</g>
</g>
<!-- midas_diaghbht&#45;&gt;controlvector_mod -->
<g id="edge4" class="edge">
<title>midas_diaghbht&#45;&gt;controlvector_mod</title>
<path fill="none" stroke="black" d="M563.23,-645.55C472.09,-643.65 289.42,-634.62 243.5,-593 182.48,-537.69 229.3,-489.78 199.5,-413 195.97,-403.91 191.18,-394.43 186.51,-386.04"/>
<polygon fill="black" stroke="black" points="189.39,-384.03 181.36,-377.11 183.32,-387.52 189.39,-384.03"/>
</g>
<!-- gridstatevectorfileio_mod -->
<g id="node6" class="node">
<title>gridstatevectorfileio_mod</title>
<g id="a_node6"><a xlink:href="../modules/gridstatevectorfileio_mod.svg" xlink:title="gridstatevectorfileio_mod">
<polygon fill="none" stroke="red" points="267,-305 112,-305 112,-269 267,-269 267,-305"/>
<text text-anchor="middle" x="189.5" y="-283.3" font-family="Times,serif" font-size="14.00">gridstatevectorfileio_mod</text>
</a>
</g>
</g>
<!-- midas_diaghbht&#45;&gt;gridstatevectorfileio_mod -->
<g id="edge5" class="edge">
<title>midas_diaghbht&#45;&gt;gridstatevectorfileio_mod</title>
<path fill="none" stroke="black" d="M563.35,-644.47C480.02,-640.94 322.1,-629.51 281.5,-593 251.04,-565.61 257.5,-544.97 257.5,-504 257.5,-504 257.5,-504 257.5,-430 257.5,-389.55 257.12,-376.91 238.5,-341 233.11,-330.61 225.13,-320.74 217.17,-312.41"/>
<polygon fill="black" stroke="black" points="219.49,-309.78 209.94,-305.21 214.56,-314.74 219.49,-309.78"/>
</g>
<!-- gridstatevector_mod -->
<g id="node7" class="node">
<title>gridstatevector_mod</title>
<g id="a_node7"><a xlink:href="../modules/gridstatevector_mod.svg" xlink:title="gridstatevector_mod">
<polygon fill="none" stroke="red" points="305,-233 178,-233 178,-197 305,-197 305,-233"/>
<text text-anchor="middle" x="241.5" y="-211.3" font-family="Times,serif" font-size="14.00">gridstatevector_mod</text>
</a>
</g>
</g>
<!-- midas_diaghbht&#45;&gt;gridstatevector_mod -->
<g id="edge6" class="edge">
<title>midas_diaghbht&#45;&gt;gridstatevector_mod</title>
<path fill="none" stroke="black" d="M563.45,-643.26C488.24,-638.24 354.37,-624.98 319.5,-593 289.31,-565.31 295.5,-544.97 295.5,-504 295.5,-504 295.5,-504 295.5,-358 295.5,-317.46 291.13,-306.41 275.5,-269 271.56,-259.57 265.96,-249.95 260.44,-241.55"/>
<polygon fill="black" stroke="black" points="263.33,-239.57 254.79,-233.29 257.55,-243.52 263.33,-239.57"/>
</g>
<!-- gridvariabletransforms_mod -->
<g id="node8" class="node">
<title>gridvariabletransforms_mod</title>
<g id="a_node8"><a xlink:href="../modules/gridvariabletransforms_mod.svg" xlink:title="gridvariabletransforms_mod">
<polygon fill="none" stroke="red" points="343.5,-161 173.5,-161 173.5,-125 343.5,-125 343.5,-161"/>
<text text-anchor="middle" x="258.5" y="-139.3" font-family="Times,serif" font-size="14.00">gridvariabletransforms_mod</text>
</a>
</g>
</g>
<!-- midas_diaghbht&#45;&gt;gridvariabletransforms_mod -->
<g id="edge7" class="edge">
<title>midas_diaghbht&#45;&gt;gridvariabletransforms_mod</title>
<path fill="none" stroke="black" d="M563.39,-641.7C496.82,-635.16 386.68,-620.46 357.5,-593 327.66,-564.92 333.5,-544.97 333.5,-504 333.5,-504 333.5,-504 333.5,-286 333.5,-245.46 333.38,-232.33 313.5,-197 307.35,-186.08 298.25,-175.99 289.2,-167.62"/>
<polygon fill="black" stroke="black" points="291.51,-164.98 281.69,-161.01 286.88,-170.24 291.51,-164.98"/>
</g>
<!-- horizontalcoord_mod -->
<g id="node9" class="node">
<title>horizontalcoord_mod</title>
<g id="a_node9"><a xlink:href="../modules/horizontalcoord_mod.svg" xlink:title="horizontalcoord_mod">
<polygon fill="none" stroke="red" points="438,-89 305,-89 305,-53 438,-53 438,-89"/>
<text text-anchor="middle" x="371.5" y="-67.3" font-family="Times,serif" font-size="14.00">horizontalcoord_mod</text>
</a>
</g>
</g>
<!-- midas_diaghbht&#45;&gt;horizontalcoord_mod -->
<g id="edge8" class="edge">
<title>midas_diaghbht&#45;&gt;horizontalcoord_mod</title>
<path fill="none" stroke="black" d="M563.49,-639.75C505.93,-631.8 418.14,-616.23 394.5,-593 365.36,-564.37 371.5,-544.86 371.5,-504 371.5,-504 371.5,-504 371.5,-214 371.5,-174 371.5,-127.65 371.5,-99.08"/>
<polygon fill="black" stroke="black" points="375,-99.05 371.5,-89.05 368,-99.05 375,-99.05"/>
</g>
<!-- innovation_mod -->
<g id="node10" class="node">
<title>innovation_mod</title>
<g id="a_node10"><a xlink:href="../modules/innovation_mod.svg" xlink:title="innovation_mod">
<polygon fill="none" stroke="red" points="507.5,-593 403.5,-593 403.5,-557 507.5,-557 507.5,-593"/>
<text text-anchor="middle" x="455.5" y="-571.3" font-family="Times,serif" font-size="14.00">innovation_mod</text>
</a>
</g>
</g>
<!-- midas_diaghbht&#45;&gt;innovation_mod -->
<g id="edge9" class="edge">
<title>midas_diaghbht&#45;&gt;innovation_mod</title>
<path fill="none" stroke="black" d="M576.36,-628.88C554.49,-619.31 527.04,-607.3 503.84,-597.15"/>
<polygon fill="black" stroke="black" points="505.08,-593.87 494.51,-593.07 502.27,-600.28 505.08,-593.87"/>
</g>
<!-- mathphysconstants_mod -->
<g id="node11" class="node">
<title>mathphysconstants_mod</title>
<g id="a_node11"><a xlink:href="../modules/mathphysconstants_mod.html" xlink:title="mathphysconstants_mod">
<polygon fill="gray" stroke="black" points="549.5,-521 399.5,-521 399.5,-485 549.5,-485 549.5,-521"/>
<text text-anchor="middle" x="474.5" y="-499.3" font-family="Times,serif" font-size="14.00">mathphysconstants_mod</text>
</a>
</g>
</g>
<!-- midas_diaghbht&#45;&gt;mathphysconstants_mod -->
<g id="edge10" class="edge">
<title>midas_diaghbht&#45;&gt;mathphysconstants_mod</title>
<path fill="none" stroke="black" d="M598.49,-628.87C573.61,-603.82 527.18,-557.05 498.73,-528.41"/>
<polygon fill="black" stroke="black" points="501.1,-525.82 491.57,-521.19 496.13,-530.75 501.1,-525.82"/>
</g>
<!-- midasmpi_mod -->
<g id="node12" class="node">
<title>midasmpi_mod</title>
<g id="a_node12"><a xlink:href="../modules/midasmpi_mod.svg" xlink:title="midasmpi_mod">
<polygon fill="none" stroke="red" points="587,-449 486,-449 486,-413 587,-413 587,-449"/>
<text text-anchor="middle" x="536.5" y="-427.3" font-family="Times,serif" font-size="14.00">midasmpi_mod</text>
</a>
</g>
</g>
<!-- midas_diaghbht&#45;&gt;midasmpi_mod -->
<g id="edge11" class="edge">
<title>midas_diaghbht&#45;&gt;midasmpi_mod</title>
<path fill="none" stroke="black" d="M609.8,-628.97C599.86,-599.47 578.49,-537.04 558.5,-485 555.16,-476.31 551.33,-466.9 547.81,-458.46"/>
<polygon fill="black" stroke="black" points="550.97,-456.95 543.87,-449.09 544.52,-459.67 550.97,-456.95"/>
</g>
<!-- obserrors_mod -->
<g id="node13" class="node">
<title>obserrors_mod</title>
<g id="a_node13"><a xlink:href="../modules/obserrors_mod.svg" xlink:title="obserrors_mod">
<polygon fill="none" stroke="red" points="625.5,-377 527.5,-377 527.5,-341 625.5,-341 625.5,-377"/>
<text text-anchor="middle" x="576.5" y="-355.3" font-family="Times,serif" font-size="14.00">obserrors_mod</text>
</a>
</g>
</g>
<!-- midas_diaghbht&#45;&gt;obserrors_mod -->
<g id="edge12" class="edge">
<title>midas_diaghbht&#45;&gt;obserrors_mod</title>
<path fill="none" stroke="black" d="M615.53,-628.82C615.28,-589.92 612.82,-492.33 595.5,-413 593.6,-404.31 590.65,-395.1 587.64,-386.84"/>
<polygon fill="black" stroke="black" points="590.84,-385.42 584,-377.33 584.31,-387.92 590.84,-385.42"/>
</g>
<!-- obsfiles_mod -->
<g id="node14" class="node">
<title>obsfiles_mod</title>
<g id="a_node14"><a xlink:href="../modules/obsfiles_mod.svg" xlink:title="obsfiles_mod">
<polygon fill="none" stroke="red" points="663,-305 574,-305 574,-269 663,-269 663,-305"/>
<text text-anchor="middle" x="618.5" y="-283.3" font-family="Times,serif" font-size="14.00">obsfiles_mod</text>
</a>
</g>
</g>
<!-- midas_diaghbht&#45;&gt;obsfiles_mod -->
<g id="edge13" class="edge">
<title>midas_diaghbht&#45;&gt;obsfiles_mod</title>
<path fill="none" stroke="black" d="M623.19,-628.91C634.29,-602.62 653.5,-550.45 653.5,-504 653.5,-504 653.5,-504 653.5,-430 653.5,-388.84 639.47,-342.88 629.17,-314.69"/>
<polygon fill="black" stroke="black" points="632.38,-313.28 625.58,-305.15 625.83,-315.74 632.38,-313.28"/>
</g>
<!-- obsoperators_mod -->
<g id="node15" class="node">
<title>obsoperators_mod</title>
<g id="a_node15"><a xlink:href="../modules/obsoperators_mod.svg" xlink:title="obsoperators_mod">
<polygon fill="none" stroke="red" points="701.5,-233 585.5,-233 585.5,-197 701.5,-197 701.5,-233"/>
<text text-anchor="middle" x="643.5" y="-211.3" font-family="Times,serif" font-size="14.00">obsoperators_mod</text>
</a>
</g>
</g>
<!-- midas_diaghbht&#45;&gt;obsoperators_mod -->
<g id="edge14" class="edge">
<title>midas_diaghbht&#45;&gt;obsoperators_mod</title>
<path fill="none" stroke="black" d="M631.99,-628.77C654.34,-603.53 691.5,-554.05 691.5,-504 691.5,-504 691.5,-504 691.5,-358 691.5,-317.46 685.54,-307.03 671.5,-269 668.15,-259.92 663.54,-250.44 659.02,-242.06"/>
<polygon fill="black" stroke="black" points="661.97,-240.15 654.04,-233.13 655.86,-243.57 661.97,-240.15"/>
</g>
<!-- obsspacedata_mod -->
<g id="node16" class="node">
<title>obsspacedata_mod</title>
<g id="a_node16"><a xlink:href="../modules/obsspacedata_mod.svg" xlink:title="obsspacedata_mod">
<polygon fill="none" stroke="red" points="739.5,-161 621.5,-161 621.5,-125 739.5,-125 739.5,-161"/>
<text text-anchor="middle" x="680.5" y="-139.3" font-family="Times,serif" font-size="14.00">obsspacedata_mod</text>
</a>
</g>
</g>
<!-- midas_diaghbht&#45;&gt;obsspacedata_mod -->
<g id="edge15" class="edge">
<title>midas_diaghbht&#45;&gt;obsspacedata_mod</title>
<path fill="none" stroke="black" d="M642.52,-628.96C676.23,-605.37 729.5,-559.33 729.5,-504 729.5,-504 729.5,-504 729.5,-286 729.5,-245.55 724.85,-234.82 710.5,-197 706.97,-187.71 701.99,-178.09 697.1,-169.65"/>
<polygon fill="black" stroke="black" points="700.06,-167.77 691.9,-161.01 694.06,-171.38 700.06,-167.77"/>
</g>
<!-- obstimeinterp_mod -->
<g id="node17" class="node">
<title>obstimeinterp_mod</title>
<g id="a_node17"><a xlink:href="../modules/obstimeinterp_mod.svg" xlink:title="obstimeinterp_mod">
<polygon fill="none" stroke="red" points="828.5,-89 706.5,-89 706.5,-53 828.5,-53 828.5,-89"/>
<text text-anchor="middle" x="767.5" y="-67.3" font-family="Times,serif" font-size="14.00">obstimeinterp_mod</text>
</a>
</g>
</g>
<!-- midas_diaghbht&#45;&gt;obstimeinterp_mod -->
<g id="edge16" class="edge">
<title>midas_diaghbht&#45;&gt;obstimeinterp_mod</title>
<path fill="none" stroke="black" d="M656.63,-628.9C701.65,-607.12 767.5,-564.85 767.5,-504 767.5,-504 767.5,-504 767.5,-214 767.5,-174 767.5,-127.65 767.5,-99.08"/>
<polygon fill="black" stroke="black" points="771,-99.05 767.5,-89.05 764,-99.05 771,-99.05"/>
</g>
<!-- ramdisk_mod -->
<g id="node18" class="node">
<title>ramdisk_mod</title>
<g id="a_node18"><a xlink:href="../modules/ramdisk_mod.svg" xlink:title="ramdisk_mod">
<polygon fill="none" stroke="red" points="887,-593 796,-593 796,-557 887,-557 887,-593"/>
<text text-anchor="middle" x="841.5" y="-571.3" font-family="Times,serif" font-size="14.00">ramdisk_mod</text>
</a>
</g>
</g>
<!-- midas_diaghbht&#45;&gt;ramdisk_mod -->
<g id="edge17" class="edge">
<title>midas_diaghbht&#45;&gt;ramdisk_mod</title>
<path fill="none" stroke="black" d="M667.63,-629.85C703.02,-618.89 749.76,-604.41 785.87,-593.23"/>
<polygon fill="black" stroke="black" points="787.24,-596.47 795.75,-590.17 785.17,-589.78 787.24,-596.47"/>
</g>
<!-- randomnumber_mod -->
<g id="node19" class="node">
<title>randomnumber_mod</title>
<g id="a_node19"><a xlink:href="../modules/randomnumber_mod.html" xlink:title="randomnumber_mod">
<polygon fill="gray" stroke="black" points="927,-521 796,-521 796,-485 927,-485 927,-521"/>
<text text-anchor="middle" x="861.5" y="-499.3" font-family="Times,serif" font-size="14.00">randomnumber_mod</text>
</a>
</g>
</g>
<!-- midas_diaghbht&#45;&gt;randomnumber_mod -->
<g id="edge18" class="edge">
<title>midas_diaghbht&#45;&gt;randomnumber_mod</title>
<path fill="none" stroke="black" d="M667.67,-643.81C740.56,-639.53 867.13,-627.24 895.5,-593 910.85,-574.47 897.78,-548.26 883.63,-529.08"/>
<polygon fill="black" stroke="black" points="886.28,-526.8 877.36,-521.08 880.77,-531.11 886.28,-526.8"/>
</g>
<!-- statetocolumn_mod -->
<g id="node20" class="node">
<title>statetocolumn_mod</title>
<g id="a_node20"><a xlink:href="../modules/statetocolumn_mod.svg" xlink:title="statetocolumn_mod">
<polygon fill="none" stroke="red" points="965.5,-449 841.5,-449 841.5,-413 965.5,-413 965.5,-449"/>
<text text-anchor="middle" x="903.5" y="-427.3" font-family="Times,serif" font-size="14.00">statetocolumn_mod</text>
</a>
</g>
</g>
<!-- midas_diaghbht&#45;&gt;statetocolumn_mod -->
<g id="edge19" class="edge">
<title>midas_diaghbht&#45;&gt;statetocolumn_mod</title>
<path fill="none" stroke="black" d="M667.77,-643.16C743.31,-638.01 877.86,-624.58 913.5,-593 950.16,-560.51 948.64,-532.19 935.5,-485 932.83,-475.42 927.91,-465.84 922.72,-457.51"/>
<polygon fill="black" stroke="black" points="925.52,-455.41 917.06,-449.03 919.7,-459.29 925.52,-455.41"/>
</g>
<!-- timecoord_mod -->
<g id="node21" class="node">
<title>timecoord_mod</title>
<g id="a_node21"><a xlink:href="../modules/timecoord_mod.svg" xlink:title="timecoord_mod">
<polygon fill="none" stroke="red" points="1003.5,-377 901.5,-377 901.5,-341 1003.5,-341 1003.5,-377"/>
<text text-anchor="middle" x="952.5" y="-355.3" font-family="Times,serif" font-size="14.00">timecoord_mod</text>
</a>
</g>
</g>
<!-- midas_diaghbht&#45;&gt;timecoord_mod -->
<g id="edge20" class="edge">
<title>midas_diaghbht&#45;&gt;timecoord_mod</title>
<path fill="none" stroke="black" d="M667.56,-644.42C749.38,-640.84 902.76,-629.33 941.5,-593 1000.83,-537.36 990.4,-492.76 974.5,-413 972.71,-404.01 969.36,-394.64 965.81,-386.32"/>
<polygon fill="black" stroke="black" points="968.96,-384.77 961.63,-377.12 962.58,-387.67 968.96,-384.77"/>
</g>
<!-- utilities_mod -->
<g id="node22" class="node">
<title>utilities_mod</title>
<g id="a_node22"><a xlink:href="../modules/utilities_mod.svg" xlink:title="utilities_mod">
<polygon fill="none" stroke="red" points="1058.5,-305 970.5,-305 970.5,-269 1058.5,-269 1058.5,-305"/>
<text text-anchor="middle" x="1014.5" y="-283.3" font-family="Times,serif" font-size="14.00">utilities_mod</text>
</a>
</g>
</g>
<!-- midas_diaghbht&#45;&gt;utilities_mod -->
<g id="edge21" class="edge">
<title>midas_diaghbht&#45;&gt;utilities_mod</title>
<path fill="none" stroke="black" d="M667.51,-643.3C753.56,-638.01 920.97,-623.99 970.5,-593 1011.15,-567.56 1031.5,-551.95 1031.5,-504 1031.5,-504 1031.5,-504 1031.5,-430 1031.5,-389.93 1024.74,-343.95 1019.75,-315.43"/>
<polygon fill="black" stroke="black" points="1023.16,-314.63 1017.94,-305.41 1016.27,-315.87 1023.16,-314.63"/>
</g>
<!-- version_mod -->
<g id="node23" class="node">
<title>version_mod</title>
<g id="a_node23"><a xlink:href="../modules/version_mod.html" xlink:title="version_mod">
<polygon fill="gray" stroke="black" points="1129.5,-233 1043.5,-233 1043.5,-197 1129.5,-197 1129.5,-233"/>
<text text-anchor="middle" x="1086.5" y="-211.3" font-family="Times,serif" font-size="14.00">version_mod</text>
</a>
</g>
</g>
<!-- midas_diaghbht&#45;&gt;version_mod -->
<g id="edge22" class="edge">
<title>midas_diaghbht&#45;&gt;version_mod</title>
<path fill="none" stroke="black" d="M667.65,-643.43C760.4,-638.13 949.7,-623.8 1007.5,-593 1054.18,-568.13 1086.5,-556.89 1086.5,-504 1086.5,-504 1086.5,-504 1086.5,-358 1086.5,-318 1086.5,-271.65 1086.5,-243.08"/>
<polygon fill="black" stroke="black" points="1090,-243.05 1086.5,-233.05 1083,-243.05 1090,-243.05"/>
</g>
<!-- verticalcoord_mod -->
<g id="node24" class="node">
<title>verticalcoord_mod</title>
<g id="a_node24"><a xlink:href="../modules/verticalcoord_mod.svg" xlink:title="verticalcoord_mod">
<polygon fill="none" stroke="red" points="1216.5,-161 1098.5,-161 1098.5,-125 1216.5,-125 1216.5,-161"/>
<text text-anchor="middle" x="1157.5" y="-139.3" font-family="Times,serif" font-size="14.00">verticalcoord_mod</text>
</a>
</g>
</g>
<!-- midas_diaghbht&#45;&gt;verticalcoord_mod -->
<g id="edge23" class="edge">
<title>midas_diaghbht&#45;&gt;verticalcoord_mod</title>
<path fill="none" stroke="black" d="M667.51,-643.39C767.7,-637.75 983.57,-622.5 1051.5,-593 1107.92,-568.5 1157.5,-565.52 1157.5,-504 1157.5,-504 1157.5,-504 1157.5,-286 1157.5,-246 1157.5,-199.65 1157.5,-171.08"/>
<polygon fill="black" stroke="black" points="1161,-171.05 1157.5,-161.05 1154,-171.05 1161,-171.05"/>
</g>
</g>
</svg>
