<?xml version="1.0" encoding="UTF-8" standalone="no"?>
<!DOCTYPE svg PUBLIC "-//W3C//DTD SVG 1.1//EN"
 "http://www.w3.org/Graphics/SVG/1.1/DTD/svg11.dtd">
<!-- Generated by graphviz version 3.0.0 (20220315.2325)
 -->
<!-- Title: midas_gencoeff Pages: 1 -->
<svg width="978pt" height="673pt"
 viewBox="0.00 0.00 977.50 673.00" xmlns="http://www.w3.org/2000/svg" xmlns:xlink="http://www.w3.org/1999/xlink">
<g id="graph0" class="graph" transform="scale(1 1) rotate(0) translate(4 669)">
<title>midas_gencoeff</title>
<polygon fill="white" stroke="transparent" points="-4,4 -4,-669 973.5,-669 973.5,4 -4,4"/>
<text text-anchor="middle" x="484.75" y="-37.8" font-family="Times,serif" font-size="14.00">Red boxes indicate modules with dependencies not shown</text>
<text text-anchor="middle" x="484.75" y="-22.8" font-family="Times,serif" font-size="14.00">Lower level dependencies can be shown by clicking on a red box</text>
<text text-anchor="middle" x="484.75" y="-7.8" font-family="Times,serif" font-size="14.00">Shaded boxes indicate modules with no dependencies</text>
<!-- midas_gencoeff -->
<g id="node1" class="node">
<title>midas_gencoeff</title>
<g id="a_node1"><a xlink:href="midas_gencoeff.html" xlink:title="midas_gencoeff">
<polygon fill="none" stroke="black" points="551.5,-665 447.5,-665 447.5,-629 551.5,-629 551.5,-665"/>
<text text-anchor="middle" x="499.5" y="-643.3" font-family="Times,serif" font-size="14.00">midas_gencoeff</text>
</a>
</g>
</g>
<!-- biascorrectionsat_mod -->
<g id="node2" class="node">
<title>biascorrectionsat_mod</title>
<g id="a_node2"><a xlink:href="../modules/biascorrectionsat_mod.svg" xlink:title="biascorrectionsat_mod">
<polygon fill="none" stroke="red" points="139,-593 0,-593 0,-557 139,-557 139,-593"/>
<text text-anchor="middle" x="69.5" y="-571.3" font-family="Times,serif" font-size="14.00">biascorrectionsat_mod</text>
</a>
</g>
</g>
<!-- midas_gencoeff&#45;&gt;biascorrectionsat_mod -->
<g id="edge1" class="edge">
<title>midas_gencoeff&#45;&gt;biascorrectionsat_mod</title>
<path fill="none" stroke="black" d="M447.5,-638.82C379.69,-629.28 257.46,-611.47 153.5,-593 152.04,-592.74 150.56,-592.47 149.07,-592.2"/>
<polygon fill="black" stroke="black" points="149.59,-588.74 139.12,-590.36 148.32,-595.62 149.59,-588.74"/>
</g>
<!-- codeprecision_mod -->
<g id="node3" class="node">
<title>codeprecision_mod</title>
<g id="a_node3"><a xlink:href="../modules/codeprecision_mod.html" xlink:title="codeprecision_mod">
<polygon fill="gray" stroke="black" points="202.5,-521 80.5,-521 80.5,-485 202.5,-485 202.5,-521"/>
<text text-anchor="middle" x="141.5" y="-499.3" font-family="Times,serif" font-size="14.00">codeprecision_mod</text>
</a>
</g>
</g>
<!-- midas_gencoeff&#45;&gt;codeprecision_mod -->
<g id="edge2" class="edge">
<title>midas_gencoeff&#45;&gt;codeprecision_mod</title>
<path fill="none" stroke="black" d="M447.35,-646.5C387.66,-644.85 288.83,-635.17 216.5,-593 190.5,-577.84 169.36,-550.19 156.23,-529.72"/>
<polygon fill="black" stroke="black" points="159.18,-527.83 150.94,-521.16 153.23,-531.51 159.18,-527.83"/>
</g>
<!-- columndata_mod -->
<g id="node4" class="node">
<title>columndata_mod</title>
<g id="a_node4"><a xlink:href="../modules/columndata_mod.svg" xlink:title="columndata_mod">
<polygon fill="none" stroke="red" points="240,-449 129,-449 129,-413 240,-413 240,-449"/>
<text text-anchor="middle" x="184.5" y="-427.3" font-family="Times,serif" font-size="14.00">columndata_mod</text>
</a>
</g>
</g>
<!-- midas_gencoeff&#45;&gt;columndata_mod -->
<g id="edge3" class="edge">
<title>midas_gencoeff&#45;&gt;columndata_mod</title>
<path fill="none" stroke="black" d="M447.45,-640.5C384.43,-632.88 283.15,-617.25 254.5,-593 215.07,-559.62 232.8,-532.07 211.5,-485 207.54,-476.25 202.89,-466.86 198.58,-458.46"/>
<polygon fill="black" stroke="black" points="201.63,-456.73 193.91,-449.47 195.42,-459.96 201.63,-456.73"/>
</g>
<!-- gridstatevectorfileio_mod -->
<g id="node5" class="node">
<title>gridstatevectorfileio_mod</title>
<g id="a_node5"><a xlink:href="../modules/gridstatevectorfileio_mod.svg" xlink:title="gridstatevectorfileio_mod">
<polygon fill="none" stroke="red" points="278,-377 123,-377 123,-341 278,-341 278,-377"/>
<text text-anchor="middle" x="200.5" y="-355.3" font-family="Times,serif" font-size="14.00">gridstatevectorfileio_mod</text>
</a>
</g>
</g>
<!-- midas_gencoeff&#45;&gt;gridstatevectorfileio_mod -->
<g id="edge4" class="edge">
<title>midas_gencoeff&#45;&gt;gridstatevectorfileio_mod</title>
<path fill="none" stroke="black" d="M447.29,-638.84C393.31,-630.39 313.96,-614.69 292.5,-593 234.58,-534.45 287.1,-485.75 248.5,-413 243.06,-402.76 235.21,-392.93 227.42,-384.59"/>
<polygon fill="black" stroke="black" points="229.85,-382.07 220.35,-377.37 224.84,-386.96 229.85,-382.07"/>
</g>
<!-- gridstatevector_mod -->
<g id="node6" class="node">
<title>gridstatevector_mod</title>
<g id="a_node6"><a xlink:href="../modules/gridstatevector_mod.svg" xlink:title="gridstatevector_mod">
<polygon fill="none" stroke="red" points="316,-305 189,-305 189,-269 316,-269 316,-305"/>
<text text-anchor="middle" x="252.5" y="-283.3" font-family="Times,serif" font-size="14.00">gridstatevector_mod</text>
</a>
</g>
</g>
<!-- midas_gencoeff&#45;&gt;gridstatevector_mod -->
<g id="edge5" class="edge">
<title>midas_gencoeff&#45;&gt;gridstatevector_mod</title>
<path fill="none" stroke="black" d="M447.19,-642.62C409.78,-637.45 360.85,-624.6 330.5,-593 302.12,-563.45 306.5,-544.97 306.5,-504 306.5,-504 306.5,-504 306.5,-430 306.5,-389.46 302.13,-378.41 286.5,-341 282.56,-331.57 276.96,-321.95 271.44,-313.55"/>
<polygon fill="black" stroke="black" points="274.33,-311.57 265.79,-305.29 268.55,-315.52 274.33,-311.57"/>
</g>
<!-- horizontalcoord_mod -->
<g id="node7" class="node">
<title>horizontalcoord_mod</title>
<g id="a_node7"><a xlink:href="../modules/horizontalcoord_mod.svg" xlink:title="horizontalcoord_mod">
<polygon fill="none" stroke="red" points="354,-233 221,-233 221,-197 354,-197 354,-233"/>
<text text-anchor="middle" x="287.5" y="-211.3" font-family="Times,serif" font-size="14.00">horizontalcoord_mod</text>
</a>
</g>
</g>
<!-- midas_gencoeff&#45;&gt;horizontalcoord_mod -->
<g id="edge6" class="edge">
<title>midas_gencoeff&#45;&gt;horizontalcoord_mod</title>
<path fill="none" stroke="black" d="M447.35,-636.51C420.29,-629.03 388.75,-615.87 368.5,-593 341.34,-562.33 344.5,-544.97 344.5,-504 344.5,-504 344.5,-504 344.5,-358 344.5,-317.46 340.86,-306.1 324.5,-269 320.27,-259.4 314.19,-249.74 308.18,-241.35"/>
<polygon fill="black" stroke="black" points="310.81,-239.02 302.02,-233.11 305.21,-243.22 310.81,-239.02"/>
</g>
<!-- innovation_mod -->
<g id="node8" class="node">
<title>innovation_mod</title>
<g id="a_node8"><a xlink:href="../modules/innovation_mod.svg" xlink:title="innovation_mod">
<polygon fill="none" stroke="red" points="392.5,-161 288.5,-161 288.5,-125 392.5,-125 392.5,-161"/>
<text text-anchor="middle" x="340.5" y="-139.3" font-family="Times,serif" font-size="14.00">innovation_mod</text>
</a>
</g>
</g>
<!-- midas_gencoeff&#45;&gt;innovation_mod -->
<g id="edge7" class="edge">
<title>midas_gencoeff&#45;&gt;innovation_mod</title>
<path fill="none" stroke="black" d="M453.54,-628.79C436.56,-620.35 418.55,-608.58 406.5,-593 381.44,-560.59 382.5,-544.97 382.5,-504 382.5,-504 382.5,-504 382.5,-286 382.5,-244.15 365.51,-198.1 353.15,-170.11"/>
<polygon fill="black" stroke="black" points="356.33,-168.66 349,-161.01 349.96,-171.56 356.33,-168.66"/>
</g>
<!-- mathphysconstants_mod -->
<g id="node9" class="node">
<title>mathphysconstants_mod</title>
<g id="a_node9"><a xlink:href="../modules/mathphysconstants_mod.html" xlink:title="mathphysconstants_mod">
<polygon fill="gray" stroke="black" points="495.5,-89 345.5,-89 345.5,-53 495.5,-53 495.5,-89"/>
<text text-anchor="middle" x="420.5" y="-67.3" font-family="Times,serif" font-size="14.00">mathphysconstants_mod</text>
</a>
</g>
</g>
<!-- midas_gencoeff&#45;&gt;mathphysconstants_mod -->
<g id="edge8" class="edge">
<title>midas_gencoeff&#45;&gt;mathphysconstants_mod</title>
<path fill="none" stroke="black" d="M473.51,-628.98C461.4,-619.74 447.84,-607.28 439.5,-593 419.09,-558.08 420.5,-544.45 420.5,-504 420.5,-504 420.5,-504 420.5,-214 420.5,-174 420.5,-127.65 420.5,-99.08"/>
<polygon fill="black" stroke="black" points="424,-99.05 420.5,-89.05 417,-99.05 424,-99.05"/>
</g>
<!-- midasmpi_mod -->
<g id="node10" class="node">
<title>midasmpi_mod</title>
<g id="a_node10"><a xlink:href="../modules/midasmpi_mod.svg" xlink:title="midasmpi_mod">
<polygon fill="none" stroke="red" points="550,-593 449,-593 449,-557 550,-557 550,-593"/>
<text text-anchor="middle" x="499.5" y="-571.3" font-family="Times,serif" font-size="14.00">midasmpi_mod</text>
</a>
</g>
</g>
<!-- midas_gencoeff&#45;&gt;midasmpi_mod -->
<g id="edge9" class="edge">
<title>midas_gencoeff&#45;&gt;midasmpi_mod</title>
<path fill="none" stroke="black" d="M499.5,-628.7C499.5,-620.98 499.5,-611.71 499.5,-603.11"/>
<polygon fill="black" stroke="black" points="503,-603.1 499.5,-593.1 496,-603.1 503,-603.1"/>
</g>
<!-- obserrors_mod -->
<g id="node11" class="node">
<title>obserrors_mod</title>
<g id="a_node11"><a xlink:href="../modules/obserrors_mod.svg" xlink:title="obserrors_mod">
<polygon fill="none" stroke="red" points="588.5,-521 490.5,-521 490.5,-485 588.5,-485 588.5,-521"/>
<text text-anchor="middle" x="539.5" y="-499.3" font-family="Times,serif" font-size="14.00">obserrors_mod</text>
</a>
</g>
</g>
<!-- midas_gencoeff&#45;&gt;obserrors_mod -->
<g id="edge10" class="edge">
<title>midas_gencoeff&#45;&gt;obserrors_mod</title>
<path fill="none" stroke="black" d="M527.3,-628.87C539.27,-619.84 552,-607.59 558.5,-593 567.45,-572.94 561.07,-548.42 553.38,-530.2"/>
<polygon fill="black" stroke="black" points="556.53,-528.68 549.19,-521.05 550.17,-531.6 556.53,-528.68"/>
</g>
<!-- obsfiles_mod -->
<g id="node12" class="node">
<title>obsfiles_mod</title>
<g id="a_node12"><a xlink:href="../modules/obsfiles_mod.svg" xlink:title="obsfiles_mod">
<polygon fill="none" stroke="red" points="626,-449 537,-449 537,-413 626,-413 626,-449"/>
<text text-anchor="middle" x="581.5" y="-427.3" font-family="Times,serif" font-size="14.00">obsfiles_mod</text>
</a>
</g>
</g>
<!-- midas_gencoeff&#45;&gt;obsfiles_mod -->
<g id="edge11" class="edge">
<title>midas_gencoeff&#45;&gt;obsfiles_mod</title>
<path fill="none" stroke="black" d="M533.75,-628.85C548.46,-619.96 564.71,-607.83 575.5,-593 604.33,-553.39 604.66,-533.46 597.5,-485 596.22,-476.35 593.83,-467.15 591.28,-458.89"/>
<polygon fill="black" stroke="black" points="594.6,-457.78 588.15,-449.37 587.95,-459.96 594.6,-457.78"/>
</g>
<!-- obsspacedata_mod -->
<g id="node13" class="node">
<title>obsspacedata_mod</title>
<g id="a_node13"><a xlink:href="../modules/obsspacedata_mod.svg" xlink:title="obsspacedata_mod">
<polygon fill="none" stroke="red" points="664.5,-377 546.5,-377 546.5,-341 664.5,-341 664.5,-377"/>
<text text-anchor="middle" x="605.5" y="-355.3" font-family="Times,serif" font-size="14.00">obsspacedata_mod</text>
</a>
</g>
</g>
<!-- midas_gencoeff&#45;&gt;obsspacedata_mod -->
<g id="edge12" class="edge">
<title>midas_gencoeff&#45;&gt;obsspacedata_mod</title>
<path fill="none" stroke="black" d="M551.47,-628.98C569.39,-620.73 588.06,-609.04 600.5,-593 650.4,-528.67 654.67,-491.88 634.5,-413 632.12,-403.7 627.74,-394.27 623.08,-386"/>
<polygon fill="black" stroke="black" points="625.96,-383.99 617.81,-377.22 619.96,-387.59 625.96,-383.99"/>
</g>
<!-- ramdisk_mod -->
<g id="node14" class="node">
<title>ramdisk_mod</title>
<g id="a_node14"><a xlink:href="../modules/ramdisk_mod.svg" xlink:title="ramdisk_mod">
<polygon fill="none" stroke="red" points="702,-305 611,-305 611,-269 702,-269 702,-305"/>
<text text-anchor="middle" x="656.5" y="-283.3" font-family="Times,serif" font-size="14.00">ramdisk_mod</text>
</a>
</g>
</g>
<!-- midas_gencoeff&#45;&gt;ramdisk_mod -->
<g id="edge13" class="edge">
<title>midas_gencoeff&#45;&gt;ramdisk_mod</title>
<path fill="none" stroke="black" d="M551.73,-632.14C608.89,-613.43 692.5,-574.09 692.5,-504 692.5,-504 692.5,-504 692.5,-430 692.5,-388.78 678.07,-342.83 667.48,-314.66"/>
<polygon fill="black" stroke="black" points="670.66,-313.19 663.79,-305.13 664.14,-315.72 670.66,-313.19"/>
</g>
<!-- timecoord_mod -->
<g id="node15" class="node">
<title>timecoord_mod</title>
<g id="a_node15"><a xlink:href="../modules/timecoord_mod.svg" xlink:title="timecoord_mod">
<polygon fill="none" stroke="red" points="740.5,-233 638.5,-233 638.5,-197 740.5,-197 740.5,-233"/>
<text text-anchor="middle" x="689.5" y="-211.3" font-family="Times,serif" font-size="14.00">timecoord_mod</text>
</a>
</g>
</g>
<!-- midas_gencoeff&#45;&gt;timecoord_mod -->
<g id="edge14" class="edge">
<title>midas_gencoeff&#45;&gt;timecoord_mod</title>
<path fill="none" stroke="black" d="M551.63,-637.64C619.76,-623.41 730.5,-587.44 730.5,-504 730.5,-504 730.5,-504 730.5,-358 730.5,-316.41 714.06,-270.56 702,-242.51"/>
<polygon fill="black" stroke="black" points="705.05,-240.75 697.8,-233.03 698.65,-243.59 705.05,-240.75"/>
</g>
<!-- utilities_mod -->
<g id="node16" class="node">
<title>utilities_mod</title>
<g id="a_node16"><a xlink:href="../modules/utilities_mod.svg" xlink:title="utilities_mod">
<polygon fill="none" stroke="red" points="795.5,-161 707.5,-161 707.5,-125 795.5,-125 795.5,-161"/>
<text text-anchor="middle" x="751.5" y="-139.3" font-family="Times,serif" font-size="14.00">utilities_mod</text>
</a>
</g>
</g>
<!-- midas_gencoeff&#45;&gt;utilities_mod -->
<g id="edge15" class="edge">
<title>midas_gencoeff&#45;&gt;utilities_mod</title>
<path fill="none" stroke="black" d="M551.68,-641.64C629.91,-631.93 768.5,-601.04 768.5,-504 768.5,-504 768.5,-504 768.5,-286 768.5,-245.93 761.74,-199.95 756.75,-171.43"/>
<polygon fill="black" stroke="black" points="760.16,-170.63 754.94,-161.41 753.27,-171.87 760.16,-170.63"/>
</g>
<!-- version_mod -->
<g id="node17" class="node">
<title>version_mod</title>
<g id="a_node17"><a xlink:href="../modules/version_mod.html" xlink:title="version_mod">
<polygon fill="gray" stroke="black" points="866.5,-89 780.5,-89 780.5,-53 866.5,-53 866.5,-89"/>
<text text-anchor="middle" x="823.5" y="-67.3" font-family="Times,serif" font-size="14.00">version_mod</text>
</a>
</g>
</g>
<!-- midas_gencoeff&#45;&gt;version_mod -->
<g id="edge16" class="edge">
<title>midas_gencoeff&#45;&gt;version_mod</title>
<path fill="none" stroke="black" d="M551.56,-645.87C643.14,-642.61 823.5,-621.3 823.5,-504 823.5,-504 823.5,-504 823.5,-214 823.5,-174 823.5,-127.65 823.5,-99.08"/>
<polygon fill="black" stroke="black" points="827,-99.05 823.5,-89.05 820,-99.05 827,-99.05"/>
</g>
<!-- verticalcoord_mod -->
<g id="node18" class="node">
<title>verticalcoord_mod</title>
<g id="a_node18"><a xlink:href="../modules/verticalcoord_mod.svg" xlink:title="verticalcoord_mod">
<polygon fill="none" stroke="red" points="969.5,-593 851.5,-593 851.5,-557 969.5,-557 969.5,-593"/>
<text text-anchor="middle" x="910.5" y="-571.3" font-family="Times,serif" font-size="14.00">verticalcoord_mod</text>
</a>
</g>
</g>
<!-- midas_gencoeff&#45;&gt;verticalcoord_mod -->
<g id="edge17" class="edge">
<title>midas_gencoeff&#45;&gt;verticalcoord_mod</title>
<path fill="none" stroke="black" d="M551.53,-639.05C618.08,-629.88 736.78,-612.6 837.5,-593 838.76,-592.76 840.03,-592.5 841.3,-592.25"/>
<polygon fill="black" stroke="black" points="842.14,-595.65 851.22,-590.19 840.71,-588.8 842.14,-595.65"/>
</g>
</g>
</svg>
