<?xml version="1.0" encoding="UTF-8" standalone="no"?>
<!DOCTYPE svg PUBLIC "-//W3C//DTD SVG 1.1//EN"
 "http://www.w3.org/Graphics/SVG/1.1/DTD/svg11.dtd">
<!-- Generated by graphviz version 3.0.0 (20220315.2325)
 -->
<!-- Title: midas_prepcma Pages: 1 -->
<svg width="767pt" height="673pt"
 viewBox="0.00 0.00 766.50 673.00" xmlns="http://www.w3.org/2000/svg" xmlns:xlink="http://www.w3.org/1999/xlink">
<g id="graph0" class="graph" transform="scale(1 1) rotate(0) translate(4 669)">
<title>midas_prepcma</title>
<polygon fill="white" stroke="transparent" points="-4,4 -4,-669 762.5,-669 762.5,4 -4,4"/>
<text text-anchor="middle" x="379.25" y="-37.8" font-family="Times,serif" font-size="14.00">Red boxes indicate modules with dependencies not shown</text>
<text text-anchor="middle" x="379.25" y="-22.8" font-family="Times,serif" font-size="14.00">Lower level dependencies can be shown by clicking on a red box</text>
<text text-anchor="middle" x="379.25" y="-7.8" font-family="Times,serif" font-size="14.00">Shaded boxes indicate modules with no dependencies</text>
<!-- midas_prepcma -->
<g id="node1" class="node">
<title>midas_prepcma</title>
<g id="a_node1"><a xlink:href="midas_prepcma.html" xlink:title="midas_prepcma">
<polygon fill="none" stroke="black" points="397,-665 294,-665 294,-629 397,-629 397,-665"/>
<text text-anchor="middle" x="345.5" y="-643.3" font-family="Times,serif" font-size="14.00">midas_prepcma</text>
</a>
</g>
</g>
<!-- burpread_mod -->
<g id="node2" class="node">
<title>burpread_mod</title>
<g id="a_node2"><a xlink:href="../modules/burpread_mod.svg" xlink:title="burpread_mod">
<polygon fill="none" stroke="red" points="95,-593 0,-593 0,-557 95,-557 95,-593"/>
<text text-anchor="middle" x="47.5" y="-571.3" font-family="Times,serif" font-size="14.00">burpread_mod</text>
</a>
</g>
</g>
<!-- midas_prepcma&#45;&gt;burpread_mod -->
<g id="edge1" class="edge">
<title>midas_prepcma&#45;&gt;burpread_mod</title>
<path fill="none" stroke="black" d="M293.77,-635.11C245.85,-624.85 172.66,-608.74 109.5,-593 108.04,-592.64 106.57,-592.27 105.09,-591.89"/>
<polygon fill="black" stroke="black" points="105.73,-588.44 95.17,-589.31 103.97,-595.21 105.73,-588.44"/>
</g>
<!-- enkf_mod -->
<g id="node3" class="node">
<title>enkf_mod</title>
<g id="a_node3"><a xlink:href="../modules/enkf_mod.svg" xlink:title="enkf_mod">
<polygon fill="none" stroke="red" points="146,-521 73,-521 73,-485 146,-485 146,-521"/>
<text text-anchor="middle" x="109.5" y="-499.3" font-family="Times,serif" font-size="14.00">enkf_mod</text>
</a>
</g>
</g>
<!-- midas_prepcma&#45;&gt;enkf_mod -->
<g id="edge2" class="edge">
<title>midas_prepcma&#45;&gt;enkf_mod</title>
<path fill="none" stroke="black" d="M293.65,-641.72C253.67,-636.1 198.89,-623.09 160.5,-593 140.12,-577.02 126.43,-550.48 118.42,-530.53"/>
<polygon fill="black" stroke="black" points="121.65,-529.17 114.83,-521.06 115.1,-531.65 121.65,-529.17"/>
</g>
<!-- midasmpi_mod -->
<g id="node4" class="node">
<title>midasmpi_mod</title>
<g id="a_node4"><a xlink:href="../modules/midasmpi_mod.svg" xlink:title="midasmpi_mod">
<polygon fill="none" stroke="red" points="184,-449 83,-449 83,-413 184,-413 184,-449"/>
<text text-anchor="middle" x="133.5" y="-427.3" font-family="Times,serif" font-size="14.00">midasmpi_mod</text>
</a>
</g>
</g>
<!-- midas_prepcma&#45;&gt;midasmpi_mod -->
<g id="edge3" class="edge">
<title>midas_prepcma&#45;&gt;midasmpi_mod</title>
<path fill="none" stroke="black" d="M293.95,-638.31C262.86,-631.26 224.39,-617.93 198.5,-593 197.21,-591.76 162.16,-503.99 144.07,-458.58"/>
<polygon fill="black" stroke="black" points="147.24,-457.06 140.28,-449.06 140.73,-459.65 147.24,-457.06"/>
</g>
<!-- obserrors_mod -->
<g id="node5" class="node">
<title>obserrors_mod</title>
<g id="a_node5"><a xlink:href="../modules/obserrors_mod.svg" xlink:title="obserrors_mod">
<polygon fill="none" stroke="red" points="222.5,-377 124.5,-377 124.5,-341 222.5,-341 222.5,-377"/>
<text text-anchor="middle" x="173.5" y="-355.3" font-family="Times,serif" font-size="14.00">obserrors_mod</text>
</a>
</g>
</g>
<!-- midas_prepcma&#45;&gt;obserrors_mod -->
<g id="edge4" class="edge">
<title>midas_prepcma&#45;&gt;obserrors_mod</title>
<path fill="none" stroke="black" d="M293.76,-631.52C273.2,-623.33 251.04,-611.01 236.5,-593 184.78,-528.91 216.21,-491.87 192.5,-413 189.9,-404.35 186.7,-395.04 183.67,-386.67"/>
<polygon fill="black" stroke="black" points="186.86,-385.2 180.12,-377.03 180.3,-387.63 186.86,-385.2"/>
</g>
<!-- obsfiles_mod -->
<g id="node6" class="node">
<title>obsfiles_mod</title>
<g id="a_node6"><a xlink:href="../modules/obsfiles_mod.svg" xlink:title="obsfiles_mod">
<polygon fill="none" stroke="red" points="260,-305 171,-305 171,-269 260,-269 260,-305"/>
<text text-anchor="middle" x="215.5" y="-283.3" font-family="Times,serif" font-size="14.00">obsfiles_mod</text>
</a>
</g>
</g>
<!-- midas_prepcma&#45;&gt;obsfiles_mod -->
<g id="edge5" class="edge">
<title>midas_prepcma&#45;&gt;obsfiles_mod</title>
<path fill="none" stroke="black" d="M313.65,-628.8C299.77,-619.82 284.44,-607.63 274.5,-593 251.49,-559.11 250.5,-544.97 250.5,-504 250.5,-504 250.5,-504 250.5,-430 250.5,-388.84 236.47,-342.88 226.17,-314.69"/>
<polygon fill="black" stroke="black" points="229.38,-313.28 222.58,-305.15 222.83,-315.74 229.38,-313.28"/>
</g>
<!-- obsfilter_mod -->
<g id="node7" class="node">
<title>obsfilter_mod</title>
<g id="a_node7"><a xlink:href="../modules/obsfilter_mod.svg" xlink:title="obsfilter_mod">
<polygon fill="none" stroke="red" points="298.5,-233 206.5,-233 206.5,-197 298.5,-197 298.5,-233"/>
<text text-anchor="middle" x="252.5" y="-211.3" font-family="Times,serif" font-size="14.00">obsfilter_mod</text>
</a>
</g>
</g>
<!-- midas_prepcma&#45;&gt;obsfilter_mod -->
<g id="edge6" class="edge">
<title>midas_prepcma&#45;&gt;obsfilter_mod</title>
<path fill="none" stroke="black" d="M332.83,-628.57C326.03,-618.56 317.95,-605.52 312.5,-593 296.16,-555.43 288.5,-544.97 288.5,-504 288.5,-504 288.5,-504 288.5,-358 288.5,-316.78 274.07,-270.83 263.48,-242.66"/>
<polygon fill="black" stroke="black" points="266.66,-241.19 259.79,-233.13 260.14,-243.72 266.66,-241.19"/>
</g>
<!-- obsspacedata_mod -->
<g id="node8" class="node">
<title>obsspacedata_mod</title>
<g id="a_node8"><a xlink:href="../modules/obsspacedata_mod.svg" xlink:title="obsspacedata_mod">
<polygon fill="none" stroke="red" points="336.5,-161 218.5,-161 218.5,-125 336.5,-125 336.5,-161"/>
<text text-anchor="middle" x="277.5" y="-139.3" font-family="Times,serif" font-size="14.00">obsspacedata_mod</text>
</a>
</g>
</g>
<!-- midas_prepcma&#45;&gt;obsspacedata_mod -->
<g id="edge7" class="edge">
<title>midas_prepcma&#45;&gt;obsspacedata_mod</title>
<path fill="none" stroke="black" d="M341.66,-628.61C336.1,-601.94 326.5,-549.27 326.5,-504 326.5,-504 326.5,-504 326.5,-286 326.5,-245.55 321.85,-234.82 307.5,-197 303.97,-187.71 298.99,-178.09 294.1,-169.65"/>
<polygon fill="black" stroke="black" points="297.06,-167.77 288.9,-161.01 291.06,-171.38 297.06,-167.77"/>
</g>
<!-- obstimeinterp_mod -->
<g id="node9" class="node">
<title>obstimeinterp_mod</title>
<g id="a_node9"><a xlink:href="../modules/obstimeinterp_mod.svg" xlink:title="obstimeinterp_mod">
<polygon fill="none" stroke="red" points="425.5,-89 303.5,-89 303.5,-53 425.5,-53 425.5,-89"/>
<text text-anchor="middle" x="364.5" y="-67.3" font-family="Times,serif" font-size="14.00">obstimeinterp_mod</text>
</a>
</g>
</g>
<!-- midas_prepcma&#45;&gt;obstimeinterp_mod -->
<g id="edge8" class="edge">
<title>midas_prepcma&#45;&gt;obstimeinterp_mod</title>
<path fill="none" stroke="black" d="M349.34,-628.61C354.9,-601.94 364.5,-549.27 364.5,-504 364.5,-504 364.5,-504 364.5,-214 364.5,-174 364.5,-127.65 364.5,-99.08"/>
<polygon fill="black" stroke="black" points="368,-99.05 364.5,-89.05 361,-99.05 368,-99.05"/>
</g>
<!-- ramdisk_mod -->
<g id="node10" class="node">
<title>ramdisk_mod</title>
<g id="a_node10"><a xlink:href="../modules/ramdisk_mod.svg" xlink:title="ramdisk_mod">
<polygon fill="none" stroke="red" points="484,-593 393,-593 393,-557 484,-557 484,-593"/>
<text text-anchor="middle" x="438.5" y="-571.3" font-family="Times,serif" font-size="14.00">ramdisk_mod</text>
</a>
</g>
</g>
<!-- midas_prepcma&#45;&gt;ramdisk_mod -->
<g id="edge9" class="edge">
<title>midas_prepcma&#45;&gt;ramdisk_mod</title>
<path fill="none" stroke="black" d="M368.49,-628.7C380.31,-619.8 394.89,-608.82 407.68,-599.2"/>
<polygon fill="black" stroke="black" points="409.89,-601.91 415.78,-593.1 405.68,-596.32 409.89,-601.91"/>
</g>
<!-- regions_mod -->
<g id="node11" class="node">
<title>regions_mod</title>
<g id="a_node11"><a xlink:href="../modules/regions_mod.svg" xlink:title="regions_mod">
<polygon fill="none" stroke="red" points="522,-521 435,-521 435,-485 522,-485 522,-521"/>
<text text-anchor="middle" x="478.5" y="-499.3" font-family="Times,serif" font-size="14.00">regions_mod</text>
</a>
</g>
</g>
<!-- midas_prepcma&#45;&gt;regions_mod -->
<g id="edge10" class="edge">
<title>midas_prepcma&#45;&gt;regions_mod</title>
<path fill="none" stroke="black" d="M397.05,-642.07C430.24,-636.55 471.06,-623.52 492.5,-593 505.29,-574.8 499.55,-549.35 491.92,-530.33"/>
<polygon fill="black" stroke="black" points="495.07,-528.79 487.84,-521.04 488.65,-531.61 495.07,-528.79"/>
</g>
<!-- timecoord_mod -->
<g id="node12" class="node">
<title>timecoord_mod</title>
<g id="a_node12"><a xlink:href="../modules/timecoord_mod.svg" xlink:title="timecoord_mod">
<polygon fill="none" stroke="red" points="560.5,-449 458.5,-449 458.5,-413 560.5,-413 560.5,-449"/>
<text text-anchor="middle" x="509.5" y="-427.3" font-family="Times,serif" font-size="14.00">timecoord_mod</text>
</a>
</g>
</g>
<!-- midas_prepcma&#45;&gt;timecoord_mod -->
<g id="edge11" class="edge">
<title>midas_prepcma&#45;&gt;timecoord_mod</title>
<path fill="none" stroke="black" d="M397.29,-642.1C433.7,-636.65 481,-623.7 510.5,-593 544.32,-557.8 539.65,-532.95 530.5,-485 528.79,-476.06 525.6,-466.7 522.21,-458.37"/>
<polygon fill="black" stroke="black" points="525.41,-456.95 518.22,-449.17 518.99,-459.73 525.41,-456.95"/>
</g>
<!-- tovs_nl_mod -->
<g id="node13" class="node">
<title>tovs_nl_mod</title>
<g id="a_node13"><a xlink:href="../modules/tovs_nl_mod.svg" xlink:title="tovs_nl_mod">
<polygon fill="none" stroke="red" points="615,-377 528,-377 528,-341 615,-341 615,-377"/>
<text text-anchor="middle" x="571.5" y="-355.3" font-family="Times,serif" font-size="14.00">tovs_nl_mod</text>
</a>
</g>
</g>
<!-- midas_prepcma&#45;&gt;tovs_nl_mod -->
<g id="edge12" class="edge">
<title>midas_prepcma&#45;&gt;tovs_nl_mod</title>
<path fill="none" stroke="black" d="M397.42,-645.53C440.6,-642.26 500.6,-630.57 536.5,-593 590.23,-536.77 583.46,-435.55 576.41,-387.18"/>
<polygon fill="black" stroke="black" points="579.85,-386.49 574.84,-377.15 572.93,-387.57 579.85,-386.49"/>
</g>
<!-- utilities_mod -->
<g id="node14" class="node">
<title>utilities_mod</title>
<g id="a_node14"><a xlink:href="../modules/utilities_mod.svg" xlink:title="utilities_mod">
<polygon fill="none" stroke="red" points="687.5,-305 599.5,-305 599.5,-269 687.5,-269 687.5,-305"/>
<text text-anchor="middle" x="643.5" y="-283.3" font-family="Times,serif" font-size="14.00">utilities_mod</text>
</a>
</g>
</g>
<!-- midas_prepcma&#45;&gt;utilities_mod -->
<g id="edge13" class="edge">
<title>midas_prepcma&#45;&gt;utilities_mod</title>
<path fill="none" stroke="black" d="M397.07,-644.1C482.36,-637.89 643.5,-611.89 643.5,-504 643.5,-504 643.5,-504 643.5,-430 643.5,-390 643.5,-343.65 643.5,-315.08"/>
<polygon fill="black" stroke="black" points="647,-315.05 643.5,-305.05 640,-315.05 647,-315.05"/>
</g>
<!-- version_mod -->
<g id="node15" class="node">
<title>version_mod</title>
<g id="a_node15"><a xlink:href="../modules/version_mod.html" xlink:title="version_mod">
<polygon fill="gray" stroke="black" points="758.5,-233 672.5,-233 672.5,-197 758.5,-197 758.5,-233"/>
<text text-anchor="middle" x="715.5" y="-211.3" font-family="Times,serif" font-size="14.00">version_mod</text>
</a>
</g>
</g>
<!-- midas_prepcma&#45;&gt;version_mod -->
<g id="edge14" class="edge">
<title>midas_prepcma&#45;&gt;version_mod</title>
<path fill="none" stroke="black" d="M397.23,-645.15C455.77,-642.23 552.46,-631.35 625.5,-593 675.31,-566.85 715.5,-560.26 715.5,-504 715.5,-504 715.5,-504 715.5,-358 715.5,-318 715.5,-271.65 715.5,-243.08"/>
<polygon fill="black" stroke="black" points="719,-243.05 715.5,-233.05 712,-243.05 719,-243.05"/>
</g>
</g>
</svg>
