<?xml version="1.0" encoding="UTF-8" standalone="no"?>
<!DOCTYPE svg PUBLIC "-//W3C//DTD SVG 1.1//EN"
 "http://www.w3.org/Graphics/SVG/1.1/DTD/svg11.dtd">
<!-- Generated by graphviz version 3.0.0 (20220315.2325)
 -->
<!-- Title: midas_extractbmatrixfor1dvar Pages: 1 -->
<svg width="765pt" height="673pt"
 viewBox="0.00 0.00 764.50 673.00" xmlns="http://www.w3.org/2000/svg" xmlns:xlink="http://www.w3.org/1999/xlink">
<g id="graph0" class="graph" transform="scale(1 1) rotate(0) translate(4 669)">
<title>midas_extractbmatrixfor1dvar</title>
<polygon fill="white" stroke="transparent" points="-4,4 -4,-669 760.5,-669 760.5,4 -4,4"/>
<text text-anchor="middle" x="378.25" y="-37.8" font-family="Times,serif" font-size="14.00">Red boxes indicate modules with dependencies not shown</text>
<text text-anchor="middle" x="378.25" y="-22.8" font-family="Times,serif" font-size="14.00">Lower level dependencies can be shown by clicking on a red box</text>
<text text-anchor="middle" x="378.25" y="-7.8" font-family="Times,serif" font-size="14.00">Shaded boxes indicate modules with no dependencies</text>
<!-- midas_extractbmatrixfor1dvar -->
<g id="node1" class="node">
<title>midas_extractbmatrixfor1dvar</title>
<g id="a_node1"><a xlink:href="midas_extractbmatrixfor1dvar.html" xlink:title="midas_extractbmatrixfor1dvar">
<polygon fill="none" stroke="black" points="423,-665 242,-665 242,-629 423,-629 423,-665"/>
<text text-anchor="middle" x="332.5" y="-643.3" font-family="Times,serif" font-size="14.00">midas_extractbmatrixfor1dvar</text>
</a>
</g>
</g>
<!-- bmatrix_mod -->
<g id="node2" class="node">
<title>bmatrix_mod</title>
<g id="a_node2"><a xlink:href="../modules/bmatrix_mod.svg" xlink:title="bmatrix_mod">
<polygon fill="none" stroke="red" points="89,-593 0,-593 0,-557 89,-557 89,-593"/>
<text text-anchor="middle" x="44.5" y="-571.3" font-family="Times,serif" font-size="14.00">bmatrix_mod</text>
</a>
</g>
</g>
<!-- midas_extractbmatrixfor1dvar&#45;&gt;bmatrix_mod -->
<g id="edge1" class="edge">
<title>midas_extractbmatrixfor1dvar&#45;&gt;bmatrix_mod</title>
<path fill="none" stroke="black" d="M254.35,-628.99C209.97,-619.06 153.47,-605.97 103.5,-593 102.05,-592.62 100.58,-592.24 99.1,-591.84"/>
<polygon fill="black" stroke="black" points="99.78,-588.4 89.21,-589.15 97.94,-595.15 99.78,-588.4"/>
</g>
<!-- controlvector_mod -->
<g id="node3" class="node">
<title>controlvector_mod</title>
<g id="a_node3"><a xlink:href="../modules/controlvector_mod.svg" xlink:title="controlvector_mod">
<polygon fill="none" stroke="red" points="152.5,-521 34.5,-521 34.5,-485 152.5,-485 152.5,-521"/>
<text text-anchor="middle" x="93.5" y="-499.3" font-family="Times,serif" font-size="14.00">controlvector_mod</text>
</a>
</g>
</g>
<!-- midas_extractbmatrixfor1dvar&#45;&gt;controlvector_mod -->
<g id="edge2" class="edge">
<title>midas_extractbmatrixfor1dvar&#45;&gt;controlvector_mod</title>
<path fill="none" stroke="black" d="M247.18,-628.89C219.88,-620.84 190.53,-609.31 166.5,-593 142.27,-576.55 121.86,-549.77 108.83,-529.87"/>
<polygon fill="black" stroke="black" points="111.69,-527.85 103.38,-521.28 105.78,-531.6 111.69,-527.85"/>
</g>
<!-- gridstatevector_mod -->
<g id="node4" class="node">
<title>gridstatevector_mod</title>
<g id="a_node4"><a xlink:href="../modules/gridstatevector_mod.svg" xlink:title="gridstatevector_mod">
<polygon fill="none" stroke="red" points="190,-449 63,-449 63,-413 190,-413 190,-449"/>
<text text-anchor="middle" x="126.5" y="-427.3" font-family="Times,serif" font-size="14.00">gridstatevector_mod</text>
</a>
</g>
</g>
<!-- midas_extractbmatrixfor1dvar&#45;&gt;gridstatevector_mod -->
<g id="edge3" class="edge">
<title>midas_extractbmatrixfor1dvar&#45;&gt;gridstatevector_mod</title>
<path fill="none" stroke="black" d="M263.67,-628.91C242.54,-620.88 220.63,-609.35 204.5,-593 168.22,-556.22 185.42,-530.8 161.5,-485 156.65,-475.71 150.58,-466.02 144.86,-457.5"/>
<polygon fill="black" stroke="black" points="147.65,-455.38 139.1,-449.12 141.88,-459.34 147.65,-455.38"/>
</g>
<!-- gridvariabletransforms_mod -->
<g id="node5" class="node">
<title>gridvariabletransforms_mod</title>
<g id="a_node5"><a xlink:href="../modules/gridvariabletransforms_mod.svg" xlink:title="gridvariabletransforms_mod">
<polygon fill="none" stroke="red" points="228.5,-377 58.5,-377 58.5,-341 228.5,-341 228.5,-377"/>
<text text-anchor="middle" x="143.5" y="-355.3" font-family="Times,serif" font-size="14.00">gridvariabletransforms_mod</text>
</a>
</g>
</g>
<!-- midas_extractbmatrixfor1dvar&#45;&gt;gridvariabletransforms_mod -->
<g id="edge4" class="edge">
<title>midas_extractbmatrixfor1dvar&#45;&gt;gridvariabletransforms_mod</title>
<path fill="none" stroke="black" d="M288.29,-628.86C271.7,-620.39 254.07,-608.57 242.5,-593 193.37,-526.9 239.55,-484.39 198.5,-413 192.25,-402.13 183.12,-392.06 174.08,-383.69"/>
<polygon fill="black" stroke="black" points="176.39,-381.06 166.58,-377.07 171.76,-386.31 176.39,-381.06"/>
</g>
<!-- horizontalcoord_mod -->
<g id="node6" class="node">
<title>horizontalcoord_mod</title>
<g id="a_node6"><a xlink:href="../modules/horizontalcoord_mod.svg" xlink:title="horizontalcoord_mod">
<polygon fill="none" stroke="red" points="266,-305 133,-305 133,-269 266,-269 266,-305"/>
<text text-anchor="middle" x="199.5" y="-283.3" font-family="Times,serif" font-size="14.00">horizontalcoord_mod</text>
</a>
</g>
</g>
<!-- midas_extractbmatrixfor1dvar&#45;&gt;horizontalcoord_mod -->
<g id="edge5" class="edge">
<title>midas_extractbmatrixfor1dvar&#45;&gt;horizontalcoord_mod</title>
<path fill="none" stroke="black" d="M311.09,-628.86C300.49,-619.33 288.31,-606.65 280.5,-593 260.16,-557.44 256.5,-544.97 256.5,-504 256.5,-504 256.5,-504 256.5,-430 256.5,-389.55 253.85,-377.99 237.5,-341 233.17,-331.21 226.86,-321.43 220.62,-312.98"/>
<polygon fill="black" stroke="black" points="223.36,-310.8 214.48,-305.03 217.82,-315.08 223.36,-310.8"/>
</g>
<!-- mathphysconstants_mod -->
<g id="node7" class="node">
<title>mathphysconstants_mod</title>
<g id="a_node7"><a xlink:href="../modules/mathphysconstants_mod.html" xlink:title="mathphysconstants_mod">
<polygon fill="gray" stroke="black" points="304.5,-233 154.5,-233 154.5,-197 304.5,-197 304.5,-233"/>
<text text-anchor="middle" x="229.5" y="-211.3" font-family="Times,serif" font-size="14.00">mathphysconstants_mod</text>
</a>
</g>
</g>
<!-- midas_extractbmatrixfor1dvar&#45;&gt;mathphysconstants_mod -->
<g id="edge6" class="edge">
<title>midas_extractbmatrixfor1dvar&#45;&gt;mathphysconstants_mod</title>
<path fill="none" stroke="black" d="M324.81,-628.91C313.71,-602.62 294.5,-550.45 294.5,-504 294.5,-504 294.5,-504 294.5,-358 294.5,-317.46 292.59,-305.28 274.5,-269 269.44,-258.85 262.03,-249.01 254.68,-240.62"/>
<polygon fill="black" stroke="black" points="257.07,-238.05 247.73,-233.06 251.92,-242.79 257.07,-238.05"/>
</g>
<!-- midasmpi_mod -->
<g id="node8" class="node">
<title>midasmpi_mod</title>
<g id="a_node8"><a xlink:href="../modules/midasmpi_mod.svg" xlink:title="midasmpi_mod">
<polygon fill="none" stroke="red" points="342,-161 241,-161 241,-125 342,-125 342,-161"/>
<text text-anchor="middle" x="291.5" y="-139.3" font-family="Times,serif" font-size="14.00">midasmpi_mod</text>
</a>
</g>
</g>
<!-- midas_extractbmatrixfor1dvar&#45;&gt;midasmpi_mod -->
<g id="edge7" class="edge">
<title>midas_extractbmatrixfor1dvar&#45;&gt;midasmpi_mod</title>
<path fill="none" stroke="black" d="M332.5,-628.95C332.5,-602.29 332.5,-549.11 332.5,-504 332.5,-504 332.5,-504 332.5,-286 332.5,-244.41 316.06,-198.56 304,-170.51"/>
<polygon fill="black" stroke="black" points="307.05,-168.75 299.8,-161.03 300.65,-171.59 307.05,-168.75"/>
</g>
<!-- ramdisk_mod -->
<g id="node9" class="node">
<title>ramdisk_mod</title>
<g id="a_node9"><a xlink:href="../modules/ramdisk_mod.svg" xlink:title="ramdisk_mod">
<polygon fill="none" stroke="red" points="416,-89 325,-89 325,-53 416,-53 416,-89"/>
<text text-anchor="middle" x="370.5" y="-67.3" font-family="Times,serif" font-size="14.00">ramdisk_mod</text>
</a>
</g>
</g>
<!-- midas_extractbmatrixfor1dvar&#45;&gt;ramdisk_mod -->
<g id="edge8" class="edge">
<title>midas_extractbmatrixfor1dvar&#45;&gt;ramdisk_mod</title>
<path fill="none" stroke="black" d="M340.19,-628.91C351.29,-602.62 370.5,-550.45 370.5,-504 370.5,-504 370.5,-504 370.5,-214 370.5,-174 370.5,-127.65 370.5,-99.08"/>
<polygon fill="black" stroke="black" points="374,-99.05 370.5,-89.05 367,-99.05 374,-99.05"/>
</g>
<!-- timecoord_mod -->
<g id="node10" class="node">
<title>timecoord_mod</title>
<g id="a_node10"><a xlink:href="../modules/timecoord_mod.svg" xlink:title="timecoord_mod">
<polygon fill="none" stroke="red" points="500.5,-593 398.5,-593 398.5,-557 500.5,-557 500.5,-593"/>
<text text-anchor="middle" x="449.5" y="-571.3" font-family="Times,serif" font-size="14.00">timecoord_mod</text>
</a>
</g>
</g>
<!-- midas_extractbmatrixfor1dvar&#45;&gt;timecoord_mod -->
<g id="edge9" class="edge">
<title>midas_extractbmatrixfor1dvar&#45;&gt;timecoord_mod</title>
<path fill="none" stroke="black" d="M361.12,-628.88C376.42,-619.72 395.44,-608.34 411.92,-598.48"/>
<polygon fill="black" stroke="black" points="413.98,-601.33 420.77,-593.19 410.39,-595.32 413.98,-601.33"/>
</g>
<!-- utilities_mod -->
<g id="node11" class="node">
<title>utilities_mod</title>
<g id="a_node11"><a xlink:href="../modules/utilities_mod.svg" xlink:title="utilities_mod">
<polygon fill="none" stroke="red" points="538.5,-521 450.5,-521 450.5,-485 538.5,-485 538.5,-521"/>
<text text-anchor="middle" x="494.5" y="-499.3" font-family="Times,serif" font-size="14.00">utilities_mod</text>
</a>
</g>
</g>
<!-- midas_extractbmatrixfor1dvar&#45;&gt;utilities_mod -->
<g id="edge10" class="edge">
<title>midas_extractbmatrixfor1dvar&#45;&gt;utilities_mod</title>
<path fill="none" stroke="black" d="M423.44,-629.17C461.01,-620.2 498.39,-607.92 509.5,-593 522.87,-575.04 516.64,-549.41 508.53,-530.26"/>
<polygon fill="black" stroke="black" points="511.71,-528.8 504.34,-521.18 505.35,-531.73 511.71,-528.8"/>
</g>
<!-- varnamelist_mod -->
<g id="node12" class="node">
<title>varnamelist_mod</title>
<g id="a_node12"><a xlink:href="../modules/varnamelist_mod.svg" xlink:title="varnamelist_mod">
<polygon fill="none" stroke="red" points="598.5,-449 488.5,-449 488.5,-413 598.5,-413 598.5,-449"/>
<text text-anchor="middle" x="543.5" y="-427.3" font-family="Times,serif" font-size="14.00">varnamelist_mod</text>
</a>
</g>
</g>
<!-- midas_extractbmatrixfor1dvar&#45;&gt;varnamelist_mod -->
<g id="edge11" class="edge">
<title>midas_extractbmatrixfor1dvar&#45;&gt;varnamelist_mod</title>
<path fill="none" stroke="black" d="M423.23,-640.59C459.92,-633.95 500.01,-620.34 527.5,-593 562.58,-558.12 556.96,-495.03 550.05,-459.06"/>
<polygon fill="black" stroke="black" points="553.47,-458.32 548,-449.25 546.62,-459.75 553.47,-458.32"/>
</g>
<!-- version_mod -->
<g id="node13" class="node">
<title>version_mod</title>
<g id="a_node13"><a xlink:href="../modules/version_mod.html" xlink:title="version_mod">
<polygon fill="gray" stroke="black" points="669.5,-377 583.5,-377 583.5,-341 669.5,-341 669.5,-377"/>
<text text-anchor="middle" x="626.5" y="-355.3" font-family="Times,serif" font-size="14.00">version_mod</text>
</a>
</g>
</g>
<!-- midas_extractbmatrixfor1dvar&#45;&gt;version_mod -->
<g id="edge12" class="edge">
<title>midas_extractbmatrixfor1dvar&#45;&gt;version_mod</title>
<path fill="none" stroke="black" d="M423.05,-632.9C474.7,-623.78 532.95,-610.19 552.5,-593 613.25,-539.59 624.56,-436.57 626.37,-387.4"/>
<polygon fill="black" stroke="black" points="629.88,-387.31 626.64,-377.22 622.88,-387.12 629.88,-387.31"/>
</g>
<!-- verticalcoord_mod -->
<g id="node14" class="node">
<title>verticalcoord_mod</title>
<g id="a_node14"><a xlink:href="../modules/verticalcoord_mod.svg" xlink:title="verticalcoord_mod">
<polygon fill="none" stroke="red" points="756.5,-305 638.5,-305 638.5,-269 756.5,-269 756.5,-305"/>
<text text-anchor="middle" x="697.5" y="-283.3" font-family="Times,serif" font-size="14.00">verticalcoord_mod</text>
</a>
</g>
</g>
<!-- midas_extractbmatrixfor1dvar&#45;&gt;verticalcoord_mod -->
<g id="edge13" class="edge">
<title>midas_extractbmatrixfor1dvar&#45;&gt;verticalcoord_mod</title>
<path fill="none" stroke="black" d="M423.25,-636.75C472.12,-629.33 532.48,-616.17 582.5,-593 641.14,-565.84 697.5,-568.63 697.5,-504 697.5,-504 697.5,-504 697.5,-430 697.5,-390 697.5,-343.65 697.5,-315.08"/>
<polygon fill="black" stroke="black" points="701,-315.05 697.5,-305.05 694,-315.05 701,-315.05"/>
</g>
</g>
</svg>
