<?xml version="1.0" encoding="UTF-8" standalone="no"?>
<!DOCTYPE svg PUBLIC "-//W3C//DTD SVG 1.1//EN"
 "http://www.w3.org/Graphics/SVG/1.1/DTD/svg11.dtd">
<!-- Generated by graphviz version 3.0.0 (20220315.2325)
 -->
<!-- Title: midas_ominusf Pages: 1 -->
<svg width="614pt" height="673pt"
 viewBox="0.00 0.00 613.50 673.00" xmlns="http://www.w3.org/2000/svg" xmlns:xlink="http://www.w3.org/1999/xlink">
<g id="graph0" class="graph" transform="scale(1 1) rotate(0) translate(4 669)">
<title>midas_ominusf</title>
<polygon fill="white" stroke="transparent" points="-4,4 -4,-669 609.5,-669 609.5,4 -4,4"/>
<text text-anchor="middle" x="302.75" y="-37.8" font-family="Times,serif" font-size="14.00">Red boxes indicate modules with dependencies not shown</text>
<text text-anchor="middle" x="302.75" y="-22.8" font-family="Times,serif" font-size="14.00">Lower level dependencies can be shown by clicking on a red box</text>
<text text-anchor="middle" x="302.75" y="-7.8" font-family="Times,serif" font-size="14.00">Shaded boxes indicate modules with no dependencies</text>
<!-- midas_ominusf -->
<g id="node1" class="node">
<title>midas_ominusf</title>
<g id="a_node1"><a xlink:href="midas_ominusf.html" xlink:title="midas_ominusf">
<polygon fill="none" stroke="black" points="374.5,-665 272.5,-665 272.5,-629 374.5,-629 374.5,-665"/>
<text text-anchor="middle" x="323.5" y="-643.3" font-family="Times,serif" font-size="14.00">midas_ominusf</text>
</a>
</g>
</g>
<!-- biascorrectionsat_mod -->
<g id="node2" class="node">
<title>biascorrectionsat_mod</title>
<g id="a_node2"><a xlink:href="../modules/biascorrectionsat_mod.svg" xlink:title="biascorrectionsat_mod">
<polygon fill="none" stroke="red" points="139,-593 0,-593 0,-557 139,-557 139,-593"/>
<text text-anchor="middle" x="69.5" y="-571.3" font-family="Times,serif" font-size="14.00">biascorrectionsat_mod</text>
</a>
</g>
</g>
<!-- midas_ominusf&#45;&gt;biascorrectionsat_mod -->
<g id="edge1" class="edge">
<title>midas_ominusf&#45;&gt;biascorrectionsat_mod</title>
<path fill="none" stroke="black" d="M272.4,-631.92C234.72,-621.53 182.95,-607.26 141.13,-595.74"/>
<polygon fill="black" stroke="black" points="141.85,-592.31 131.28,-593.03 139.99,-599.06 141.85,-592.31"/>
</g>
<!-- columndata_mod -->
<g id="node3" class="node">
<title>columndata_mod</title>
<g id="a_node3"><a xlink:href="../modules/columndata_mod.svg" xlink:title="columndata_mod">
<polygon fill="none" stroke="red" points="200,-521 89,-521 89,-485 200,-485 200,-521"/>
<text text-anchor="middle" x="144.5" y="-499.3" font-family="Times,serif" font-size="14.00">columndata_mod</text>
</a>
</g>
</g>
<!-- midas_ominusf&#45;&gt;columndata_mod -->
<g id="edge2" class="edge">
<title>midas_ominusf&#45;&gt;columndata_mod</title>
<path fill="none" stroke="black" d="M277.06,-628.95C256.63,-620.1 233.09,-607.99 214.5,-593 192.44,-575.21 173.02,-549.23 160.27,-529.93"/>
<polygon fill="black" stroke="black" points="163.09,-527.84 154.73,-521.32 157.2,-531.62 163.09,-527.84"/>
</g>
<!-- ensembleobservations_mod -->
<g id="node4" class="node">
<title>ensembleobservations_mod</title>
<g id="a_node4"><a xlink:href="../modules/ensembleobservations_mod.svg" xlink:title="ensembleobservations_mod">
<polygon fill="none" stroke="red" points="238.5,-449 72.5,-449 72.5,-413 238.5,-413 238.5,-449"/>
<text text-anchor="middle" x="155.5" y="-427.3" font-family="Times,serif" font-size="14.00">ensembleobservations_mod</text>
</a>
</g>
</g>
<!-- midas_ominusf&#45;&gt;ensembleobservations_mod -->
<g id="edge3" class="edge">
<title>midas_ominusf&#45;&gt;ensembleobservations_mod</title>
<path fill="none" stroke="black" d="M293.53,-628.92C279.56,-619.74 263.6,-607.36 252.5,-593 220.79,-552 237.17,-528.18 208.5,-485 201.6,-474.6 192.43,-464.56 183.66,-456.06"/>
<polygon fill="black" stroke="black" points="185.82,-453.29 176.12,-449.02 181.04,-458.4 185.82,-453.29"/>
</g>
<!-- filenames_mod -->
<g id="node5" class="node">
<title>filenames_mod</title>
<g id="a_node5"><a xlink:href="../modules/filenames_mod.svg" xlink:title="filenames_mod">
<polygon fill="none" stroke="red" points="276,-377 177,-377 177,-341 276,-341 276,-377"/>
<text text-anchor="middle" x="226.5" y="-355.3" font-family="Times,serif" font-size="14.00">filenames_mod</text>
</a>
</g>
</g>
<!-- midas_ominusf&#45;&gt;filenames_mod -->
<g id="edge4" class="edge">
<title>midas_ominusf&#45;&gt;filenames_mod</title>
<path fill="none" stroke="black" d="M310.69,-628.63C303.84,-618.64 295.76,-605.6 290.5,-593 258.8,-517.1 272.27,-491.43 247.5,-413 244.76,-404.32 241.27,-395.03 237.94,-386.69"/>
<polygon fill="black" stroke="black" points="241.17,-385.36 234.14,-377.44 234.7,-388.02 241.17,-385.36"/>
</g>
<!-- midasmpi_mod -->
<g id="node6" class="node">
<title>midasmpi_mod</title>
<g id="a_node6"><a xlink:href="../modules/midasmpi_mod.svg" xlink:title="midasmpi_mod">
<polygon fill="none" stroke="red" points="314,-305 213,-305 213,-269 314,-269 314,-305"/>
<text text-anchor="middle" x="263.5" y="-283.3" font-family="Times,serif" font-size="14.00">midasmpi_mod</text>
</a>
</g>
</g>
<!-- midas_ominusf&#45;&gt;midasmpi_mod -->
<g id="edge5" class="edge">
<title>midas_ominusf&#45;&gt;midasmpi_mod</title>
<path fill="none" stroke="black" d="M319.66,-628.61C314.1,-601.94 304.5,-549.27 304.5,-504 304.5,-504 304.5,-504 304.5,-430 304.5,-388.41 288.06,-342.56 276,-314.51"/>
<polygon fill="black" stroke="black" points="279.05,-312.75 271.8,-305.03 272.65,-315.59 279.05,-312.75"/>
</g>
<!-- obsfiles_mod -->
<g id="node7" class="node">
<title>obsfiles_mod</title>
<g id="a_node7"><a xlink:href="../modules/obsfiles_mod.svg" xlink:title="obsfiles_mod">
<polygon fill="none" stroke="red" points="352,-233 263,-233 263,-197 352,-197 352,-233"/>
<text text-anchor="middle" x="307.5" y="-211.3" font-family="Times,serif" font-size="14.00">obsfiles_mod</text>
</a>
</g>
</g>
<!-- midas_ominusf&#45;&gt;obsfiles_mod -->
<g id="edge6" class="edge">
<title>midas_ominusf&#45;&gt;obsfiles_mod</title>
<path fill="none" stroke="black" d="M327.34,-628.61C332.9,-601.94 342.5,-549.27 342.5,-504 342.5,-504 342.5,-504 342.5,-358 342.5,-316.84 328.47,-270.88 318.17,-242.69"/>
<polygon fill="black" stroke="black" points="321.38,-241.28 314.58,-233.15 314.83,-243.74 321.38,-241.28"/>
</g>
<!-- obsspacedata_mod -->
<g id="node8" class="node">
<title>obsspacedata_mod</title>
<g id="a_node8"><a xlink:href="../modules/obsspacedata_mod.svg" xlink:title="obsspacedata_mod">
<polygon fill="none" stroke="red" points="390.5,-161 272.5,-161 272.5,-125 390.5,-125 390.5,-161"/>
<text text-anchor="middle" x="331.5" y="-139.3" font-family="Times,serif" font-size="14.00">obsspacedata_mod</text>
</a>
</g>
</g>
<!-- midas_ominusf&#45;&gt;obsspacedata_mod -->
<g id="edge7" class="edge">
<title>midas_ominusf&#45;&gt;obsspacedata_mod</title>
<path fill="none" stroke="black" d="M335.31,-628.96C352.01,-603.16 380.5,-552.08 380.5,-504 380.5,-504 380.5,-504 380.5,-286 380.5,-245.46 374.81,-234.93 360.5,-197 357.06,-187.87 352.29,-178.38 347.61,-170"/>
<polygon fill="black" stroke="black" points="350.49,-167.98 342.44,-161.08 344.43,-171.49 350.49,-167.98"/>
</g>
<!-- ominusf_mod -->
<g id="node9" class="node">
<title>ominusf_mod</title>
<g id="a_node9"><a xlink:href="../modules/ominusf_mod.svg" xlink:title="ominusf_mod">
<polygon fill="none" stroke="red" points="465,-89 372,-89 372,-53 465,-53 465,-89"/>
<text text-anchor="middle" x="418.5" y="-67.3" font-family="Times,serif" font-size="14.00">ominusf_mod</text>
</a>
</g>
</g>
<!-- midas_ominusf&#45;&gt;ominusf_mod -->
<g id="edge8" class="edge">
<title>midas_ominusf&#45;&gt;ominusf_mod</title>
<path fill="none" stroke="black" d="M345.06,-628.78C373.09,-604.28 418.5,-556.5 418.5,-504 418.5,-504 418.5,-504 418.5,-214 418.5,-174 418.5,-127.65 418.5,-99.08"/>
<polygon fill="black" stroke="black" points="422,-99.05 418.5,-89.05 415,-99.05 422,-99.05"/>
</g>
<!-- utilities_mod -->
<g id="node10" class="node">
<title>utilities_mod</title>
<g id="a_node10"><a xlink:href="../modules/utilities_mod.svg" xlink:title="utilities_mod">
<polygon fill="none" stroke="red" points="534.5,-593 446.5,-593 446.5,-557 534.5,-557 534.5,-593"/>
<text text-anchor="middle" x="490.5" y="-571.3" font-family="Times,serif" font-size="14.00">utilities_mod</text>
</a>
</g>
</g>
<!-- midas_ominusf&#45;&gt;utilities_mod -->
<g id="edge9" class="edge">
<title>midas_ominusf&#45;&gt;utilities_mod</title>
<path fill="none" stroke="black" d="M364.35,-628.88C387.28,-619.26 416.08,-607.19 440.37,-597.01"/>
<polygon fill="black" stroke="black" points="441.91,-600.16 449.78,-593.07 439.2,-593.71 441.91,-600.16"/>
</g>
<!-- version_mod -->
<g id="node11" class="node">
<title>version_mod</title>
<g id="a_node11"><a xlink:href="../modules/version_mod.html" xlink:title="version_mod">
<polygon fill="gray" stroke="black" points="605.5,-521 519.5,-521 519.5,-485 605.5,-485 605.5,-521"/>
<text text-anchor="middle" x="562.5" y="-499.3" font-family="Times,serif" font-size="14.00">version_mod</text>
</a>
</g>
</g>
<!-- midas_ominusf&#45;&gt;version_mod -->
<g id="edge10" class="edge">
<title>midas_ominusf&#45;&gt;version_mod</title>
<path fill="none" stroke="black" d="M374.68,-640C432.14,-632.21 520.37,-616.74 543.5,-593 559.22,-576.86 563.32,-551.09 563.87,-531.42"/>
<polygon fill="black" stroke="black" points="567.37,-531.22 563.86,-521.22 560.37,-531.23 567.37,-531.22"/>
</g>
</g>
</svg>
