<?xml version="1.0" encoding="UTF-8" standalone="no"?>
<!DOCTYPE svg PUBLIC "-//W3C//DTD SVG 1.1//EN"
 "http://www.w3.org/Graphics/SVG/1.1/DTD/svg11.dtd">
<!-- Generated by graphviz version 3.0.0 (20220315.2325)
 -->
<!-- Title: midas_thinning Pages: 1 -->
<svg width="570pt" height="673pt"
 viewBox="0.00 0.00 569.50 673.00" xmlns="http://www.w3.org/2000/svg" xmlns:xlink="http://www.w3.org/1999/xlink">
<g id="graph0" class="graph" transform="scale(1 1) rotate(0) translate(4 669)">
<title>midas_thinning</title>
<polygon fill="white" stroke="transparent" points="-4,4 -4,-669 565.5,-669 565.5,4 -4,4"/>
<text text-anchor="middle" x="280.75" y="-37.8" font-family="Times,serif" font-size="14.00">Red boxes indicate modules with dependencies not shown</text>
<text text-anchor="middle" x="280.75" y="-22.8" font-family="Times,serif" font-size="14.00">Lower level dependencies can be shown by clicking on a red box</text>
<text text-anchor="middle" x="280.75" y="-7.8" font-family="Times,serif" font-size="14.00">Shaded boxes indicate modules with no dependencies</text>
<!-- midas_thinning -->
<g id="node1" class="node">
<title>midas_thinning</title>
<g id="a_node1"><a xlink:href="midas_thinning.html" xlink:title="midas_thinning">
<polygon fill="none" stroke="black" points="330,-665 229,-665 229,-629 330,-629 330,-665"/>
<text text-anchor="middle" x="279.5" y="-643.3" font-family="Times,serif" font-size="14.00">midas_thinning</text>
</a>
</g>
</g>
<!-- midasmpi_mod -->
<g id="node2" class="node">
<title>midasmpi_mod</title>
<g id="a_node2"><a xlink:href="../modules/midasmpi_mod.svg" xlink:title="midasmpi_mod">
<polygon fill="none" stroke="red" points="101,-593 0,-593 0,-557 101,-557 101,-593"/>
<text text-anchor="middle" x="50.5" y="-571.3" font-family="Times,serif" font-size="14.00">midasmpi_mod</text>
</a>
</g>
</g>
<!-- midas_thinning&#45;&gt;midasmpi_mod -->
<g id="edge1" class="edge">
<title>midas_thinning&#45;&gt;midasmpi_mod</title>
<path fill="none" stroke="black" d="M228.96,-630.55C194.14,-619.91 147.7,-605.71 110.92,-594.47"/>
<polygon fill="black" stroke="black" points="111.89,-591.11 101.3,-591.53 109.84,-597.8 111.89,-591.11"/>
</g>
<!-- obsfiles_mod -->
<g id="node3" class="node">
<title>obsfiles_mod</title>
<g id="a_node3"><a xlink:href="../modules/obsfiles_mod.svg" xlink:title="obsfiles_mod">
<polygon fill="none" stroke="red" points="156,-521 67,-521 67,-485 156,-485 156,-521"/>
<text text-anchor="middle" x="111.5" y="-499.3" font-family="Times,serif" font-size="14.00">obsfiles_mod</text>
</a>
</g>
</g>
<!-- midas_thinning&#45;&gt;obsfiles_mod -->
<g id="edge2" class="edge">
<title>midas_thinning&#45;&gt;obsfiles_mod</title>
<path fill="none" stroke="black" d="M230.85,-628.94C210.7,-620.28 188,-608.31 170.5,-593 150.36,-575.37 134.17,-549.32 123.88,-529.95"/>
<polygon fill="black" stroke="black" points="126.99,-528.35 119.31,-521.05 120.77,-531.54 126.99,-528.35"/>
</g>
<!-- obsfilter_mod -->
<g id="node4" class="node">
<title>obsfilter_mod</title>
<g id="a_node4"><a xlink:href="../modules/obsfilter_mod.svg" xlink:title="obsfilter_mod">
<polygon fill="none" stroke="red" points="194.5,-449 102.5,-449 102.5,-413 194.5,-413 194.5,-449"/>
<text text-anchor="middle" x="148.5" y="-427.3" font-family="Times,serif" font-size="14.00">obsfilter_mod</text>
</a>
</g>
</g>
<!-- midas_thinning&#45;&gt;obsfilter_mod -->
<g id="edge3" class="edge">
<title>midas_thinning&#45;&gt;obsfilter_mod</title>
<path fill="none" stroke="black" d="M248.98,-628.83C235.05,-619.71 219.29,-607.4 208.5,-593 192.17,-571.21 168.61,-498.59 156.44,-458.74"/>
<polygon fill="black" stroke="black" points="159.78,-457.69 153.53,-449.13 153.08,-459.72 159.78,-457.69"/>
</g>
<!-- obsspacedata_mod -->
<g id="node5" class="node">
<title>obsspacedata_mod</title>
<g id="a_node5"><a xlink:href="../modules/obsspacedata_mod.svg" xlink:title="obsspacedata_mod">
<polygon fill="none" stroke="red" points="232.5,-377 114.5,-377 114.5,-341 232.5,-341 232.5,-377"/>
<text text-anchor="middle" x="173.5" y="-355.3" font-family="Times,serif" font-size="14.00">obsspacedata_mod</text>
</a>
</g>
</g>
<!-- midas_thinning&#45;&gt;obsspacedata_mod -->
<g id="edge4" class="edge">
<title>midas_thinning&#45;&gt;obsspacedata_mod</title>
<path fill="none" stroke="black" d="M266.69,-628.63C259.84,-618.64 251.76,-605.6 246.5,-593 214.8,-517.1 233.61,-489.54 203.5,-413 199.86,-403.75 194.85,-394.15 189.97,-385.7"/>
<polygon fill="black" stroke="black" points="192.93,-383.83 184.78,-377.05 186.92,-387.43 192.93,-383.83"/>
</g>
<!-- ramdisk_mod -->
<g id="node6" class="node">
<title>ramdisk_mod</title>
<g id="a_node6"><a xlink:href="../modules/ramdisk_mod.svg" xlink:title="ramdisk_mod">
<polygon fill="none" stroke="red" points="270,-305 179,-305 179,-269 270,-269 270,-305"/>
<text text-anchor="middle" x="224.5" y="-283.3" font-family="Times,serif" font-size="14.00">ramdisk_mod</text>
</a>
</g>
</g>
<!-- midas_thinning&#45;&gt;ramdisk_mod -->
<g id="edge5" class="edge">
<title>midas_thinning&#45;&gt;ramdisk_mod</title>
<path fill="none" stroke="black" d="M275.66,-628.61C270.1,-601.94 260.5,-549.27 260.5,-504 260.5,-504 260.5,-504 260.5,-430 260.5,-388.78 246.07,-342.83 235.48,-314.66"/>
<polygon fill="black" stroke="black" points="238.66,-313.19 231.79,-305.13 232.14,-315.72 238.66,-313.19"/>
</g>
<!-- thinning_mod -->
<g id="node7" class="node">
<title>thinning_mod</title>
<g id="a_node7"><a xlink:href="../modules/thinning_mod.svg" xlink:title="thinning_mod">
<polygon fill="none" stroke="red" points="308.5,-233 216.5,-233 216.5,-197 308.5,-197 308.5,-233"/>
<text text-anchor="middle" x="262.5" y="-211.3" font-family="Times,serif" font-size="14.00">thinning_mod</text>
</a>
</g>
</g>
<!-- midas_thinning&#45;&gt;thinning_mod -->
<g id="edge6" class="edge">
<title>midas_thinning&#45;&gt;thinning_mod</title>
<path fill="none" stroke="black" d="M283.34,-628.61C288.9,-601.94 298.5,-549.27 298.5,-504 298.5,-504 298.5,-504 298.5,-358 298.5,-316.78 284.07,-270.83 273.48,-242.66"/>
<polygon fill="black" stroke="black" points="276.66,-241.19 269.79,-233.13 270.14,-243.72 276.66,-241.19"/>
</g>
<!-- timecoord_mod -->
<g id="node8" class="node">
<title>timecoord_mod</title>
<g id="a_node8"><a xlink:href="../modules/timecoord_mod.svg" xlink:title="timecoord_mod">
<polygon fill="none" stroke="red" points="346.5,-161 244.5,-161 244.5,-125 346.5,-125 346.5,-161"/>
<text text-anchor="middle" x="295.5" y="-139.3" font-family="Times,serif" font-size="14.00">timecoord_mod</text>
</a>
</g>
</g>
<!-- midas_thinning&#45;&gt;timecoord_mod -->
<g id="edge7" class="edge">
<title>midas_thinning&#45;&gt;timecoord_mod</title>
<path fill="none" stroke="black" d="M291.31,-628.96C308.01,-603.16 336.5,-552.08 336.5,-504 336.5,-504 336.5,-504 336.5,-286 336.5,-244.41 320.06,-198.56 308,-170.51"/>
<polygon fill="black" stroke="black" points="311.05,-168.75 303.8,-161.03 304.65,-171.59 311.05,-168.75"/>
</g>
<!-- tovs_nl_mod -->
<g id="node9" class="node">
<title>tovs_nl_mod</title>
<g id="a_node9"><a xlink:href="../modules/tovs_nl_mod.svg" xlink:title="tovs_nl_mod">
<polygon fill="none" stroke="red" points="418,-89 331,-89 331,-53 418,-53 418,-89"/>
<text text-anchor="middle" x="374.5" y="-67.3" font-family="Times,serif" font-size="14.00">tovs_nl_mod</text>
</a>
</g>
</g>
<!-- midas_thinning&#45;&gt;tovs_nl_mod -->
<g id="edge8" class="edge">
<title>midas_thinning&#45;&gt;tovs_nl_mod</title>
<path fill="none" stroke="black" d="M301.06,-628.78C329.09,-604.28 374.5,-556.5 374.5,-504 374.5,-504 374.5,-504 374.5,-214 374.5,-174 374.5,-127.65 374.5,-99.08"/>
<polygon fill="black" stroke="black" points="378,-99.05 374.5,-89.05 371,-99.05 378,-99.05"/>
</g>
<!-- utilities_mod -->
<g id="node10" class="node">
<title>utilities_mod</title>
<g id="a_node10"><a xlink:href="../modules/utilities_mod.svg" xlink:title="utilities_mod">
<polygon fill="none" stroke="red" points="490.5,-593 402.5,-593 402.5,-557 490.5,-557 490.5,-593"/>
<text text-anchor="middle" x="446.5" y="-571.3" font-family="Times,serif" font-size="14.00">utilities_mod</text>
</a>
</g>
</g>
<!-- midas_thinning&#45;&gt;utilities_mod -->
<g id="edge9" class="edge">
<title>midas_thinning&#45;&gt;utilities_mod</title>
<path fill="none" stroke="black" d="M320.35,-628.88C343.28,-619.26 372.08,-607.19 396.37,-597.01"/>
<polygon fill="black" stroke="black" points="397.91,-600.16 405.78,-593.07 395.2,-593.71 397.91,-600.16"/>
</g>
<!-- version_mod -->
<g id="node11" class="node">
<title>version_mod</title>
<g id="a_node11"><a xlink:href="../modules/version_mod.html" xlink:title="version_mod">
<polygon fill="gray" stroke="black" points="561.5,-521 475.5,-521 475.5,-485 561.5,-485 561.5,-521"/>
<text text-anchor="middle" x="518.5" y="-499.3" font-family="Times,serif" font-size="14.00">version_mod</text>
</a>
</g>
</g>
<!-- midas_thinning&#45;&gt;version_mod -->
<g id="edge10" class="edge">
<title>midas_thinning&#45;&gt;version_mod</title>
<path fill="none" stroke="black" d="M330.17,-640.07C387.61,-632.31 476.3,-616.81 499.5,-593 515.22,-576.86 519.32,-551.09 519.87,-531.42"/>
<polygon fill="black" stroke="black" points="523.37,-531.22 519.86,-521.22 516.37,-531.23 523.37,-531.22"/>
</g>
</g>
</svg>
