<?xml version="1.0" encoding="UTF-8" standalone="no"?>
<!DOCTYPE svg PUBLIC "-//W3C//DTD SVG 1.1//EN"
 "http://www.w3.org/Graphics/SVG/1.1/DTD/svg11.dtd">
<!-- Generated by graphviz version 3.0.0 (20220315.2325)
 -->
<!-- Title: midas_ensembleh Pages: 1 -->
<svg width="1051pt" height="673pt"
 viewBox="0.00 0.00 1050.50 673.00" xmlns="http://www.w3.org/2000/svg" xmlns:xlink="http://www.w3.org/1999/xlink">
<g id="graph0" class="graph" transform="scale(1 1) rotate(0) translate(4 669)">
<title>midas_ensembleh</title>
<polygon fill="white" stroke="transparent" points="-4,4 -4,-669 1046.5,-669 1046.5,4 -4,4"/>
<text text-anchor="middle" x="521.25" y="-37.8" font-family="Times,serif" font-size="14.00">Red boxes indicate modules with dependencies not shown</text>
<text text-anchor="middle" x="521.25" y="-22.8" font-family="Times,serif" font-size="14.00">Lower level dependencies can be shown by clicking on a red box</text>
<text text-anchor="middle" x="521.25" y="-7.8" font-family="Times,serif" font-size="14.00">Shaded boxes indicate modules with no dependencies</text>
<!-- midas_ensembleh -->
<g id="node1" class="node">
<title>midas_ensembleh</title>
<g id="a_node1"><a xlink:href="midas_ensembleh.html" xlink:title="midas_ensembleh">
<polygon fill="none" stroke="black" points="597.5,-665 483.5,-665 483.5,-629 597.5,-629 597.5,-665"/>
<text text-anchor="middle" x="540.5" y="-643.3" font-family="Times,serif" font-size="14.00">midas_ensembleh</text>
</a>
</g>
</g>
<!-- columndata_mod -->
<g id="node2" class="node">
<title>columndata_mod</title>
<g id="a_node2"><a xlink:href="../modules/columndata_mod.svg" xlink:title="columndata_mod">
<polygon fill="none" stroke="red" points="111,-593 0,-593 0,-557 111,-557 111,-593"/>
<text text-anchor="middle" x="55.5" y="-571.3" font-family="Times,serif" font-size="14.00">columndata_mod</text>
</a>
</g>
</g>
<!-- midas_ensembleh&#45;&gt;columndata_mod -->
<g id="edge1" class="edge">
<title>midas_ensembleh&#45;&gt;columndata_mod</title>
<path fill="none" stroke="black" d="M483.47,-640.74C403.19,-632.89 252.46,-616.45 125.5,-593 124.04,-592.73 122.56,-592.45 121.08,-592.16"/>
<polygon fill="black" stroke="black" points="121.67,-588.71 111.16,-590.11 120.25,-595.56 121.67,-588.71"/>
</g>
<!-- enkf_mod -->
<g id="node3" class="node">
<title>enkf_mod</title>
<g id="a_node3"><a xlink:href="../modules/enkf_mod.svg" xlink:title="enkf_mod">
<polygon fill="none" stroke="red" points="162,-521 89,-521 89,-485 162,-485 162,-521"/>
<text text-anchor="middle" x="125.5" y="-499.3" font-family="Times,serif" font-size="14.00">enkf_mod</text>
</a>
</g>
</g>
<!-- midas_ensembleh&#45;&gt;enkf_mod -->
<g id="edge2" class="edge">
<title>midas_ensembleh&#45;&gt;enkf_mod</title>
<path fill="none" stroke="black" d="M483.3,-643.7C393.68,-639.11 225.34,-626.23 176.5,-593 154.96,-578.34 141.39,-551.38 133.71,-530.95"/>
<polygon fill="black" stroke="black" points="136.92,-529.53 130.31,-521.25 130.31,-531.85 136.92,-529.53"/>
</g>
<!-- ensembleobservations_mod -->
<g id="node4" class="node">
<title>ensembleobservations_mod</title>
<g id="a_node4"><a xlink:href="../modules/ensembleobservations_mod.svg" xlink:title="ensembleobservations_mod">
<polygon fill="none" stroke="red" points="200.5,-449 34.5,-449 34.5,-413 200.5,-413 200.5,-449"/>
<text text-anchor="middle" x="117.5" y="-427.3" font-family="Times,serif" font-size="14.00">ensembleobservations_mod</text>
</a>
</g>
</g>
<!-- midas_ensembleh&#45;&gt;ensembleobservations_mod -->
<g id="edge3" class="edge">
<title>midas_ensembleh&#45;&gt;ensembleobservations_mod</title>
<path fill="none" stroke="black" d="M483.4,-643.34C401.25,-638.44 255.09,-625.33 214.5,-593 173.96,-560.71 199.17,-528.18 170.5,-485 163.6,-474.6 154.43,-464.56 145.66,-456.06"/>
<polygon fill="black" stroke="black" points="147.82,-453.29 138.12,-449.02 143.04,-458.4 147.82,-453.29"/>
</g>
<!-- ensemblestatevector_mod -->
<g id="node5" class="node">
<title>ensemblestatevector_mod</title>
<g id="a_node5"><a xlink:href="../modules/ensemblestatevector_mod.svg" xlink:title="ensemblestatevector_mod">
<polygon fill="none" stroke="red" points="238.5,-377 82.5,-377 82.5,-341 238.5,-341 238.5,-377"/>
<text text-anchor="middle" x="160.5" y="-355.3" font-family="Times,serif" font-size="14.00">ensemblestatevector_mod</text>
</a>
</g>
</g>
<!-- midas_ensembleh&#45;&gt;ensemblestatevector_mod -->
<g id="edge4" class="edge">
<title>midas_ensembleh&#45;&gt;ensemblestatevector_mod</title>
<path fill="none" stroke="black" d="M483.21,-642.73C408.91,-637.3 284.95,-623.79 252.5,-593 192.83,-536.39 248.23,-485.56 209.5,-413 203.99,-402.67 195.97,-392.83 188.02,-384.49"/>
<polygon fill="black" stroke="black" points="190.35,-381.87 180.8,-377.28 185.4,-386.82 190.35,-381.87"/>
</g>
<!-- filenames_mod -->
<g id="node6" class="node">
<title>filenames_mod</title>
<g id="a_node6"><a xlink:href="../modules/filenames_mod.svg" xlink:title="filenames_mod">
<polygon fill="none" stroke="red" points="276,-305 177,-305 177,-269 276,-269 276,-305"/>
<text text-anchor="middle" x="226.5" y="-283.3" font-family="Times,serif" font-size="14.00">filenames_mod</text>
</a>
</g>
</g>
<!-- midas_ensembleh&#45;&gt;filenames_mod -->
<g id="edge5" class="edge">
<title>midas_ensembleh&#45;&gt;filenames_mod</title>
<path fill="none" stroke="black" d="M483.22,-640.76C418.25,-633.66 317.76,-618.82 290.5,-593 260.75,-564.83 266.5,-544.97 266.5,-504 266.5,-504 266.5,-504 266.5,-430 266.5,-388.48 250.46,-342.61 238.7,-314.54"/>
<polygon fill="black" stroke="black" points="241.77,-312.84 234.59,-305.05 235.35,-315.62 241.77,-312.84"/>
</g>
<!-- gridstatevectorfileio_mod -->
<g id="node7" class="node">
<title>gridstatevectorfileio_mod</title>
<g id="a_node7"><a xlink:href="../modules/gridstatevectorfileio_mod.svg" xlink:title="gridstatevectorfileio_mod">
<polygon fill="none" stroke="red" points="314,-233 159,-233 159,-197 314,-197 314,-233"/>
<text text-anchor="middle" x="236.5" y="-211.3" font-family="Times,serif" font-size="14.00">gridstatevectorfileio_mod</text>
</a>
</g>
</g>
<!-- midas_ensembleh&#45;&gt;gridstatevectorfileio_mod -->
<g id="edge6" class="edge">
<title>midas_ensembleh&#45;&gt;gridstatevectorfileio_mod</title>
<path fill="none" stroke="black" d="M483.33,-638.32C428.28,-629.79 350.26,-614.36 328.5,-593 299.27,-564.3 304.5,-544.97 304.5,-504 304.5,-504 304.5,-504 304.5,-358 304.5,-317.46 303.17,-304.99 284.5,-269 279.16,-258.71 271.33,-248.87 263.53,-240.52"/>
<polygon fill="black" stroke="black" points="265.96,-238 256.45,-233.31 260.96,-242.9 265.96,-238"/>
</g>
<!-- gridstatevector_mod -->
<g id="node8" class="node">
<title>gridstatevector_mod</title>
<g id="a_node8"><a xlink:href="../modules/gridstatevector_mod.svg" xlink:title="gridstatevector_mod">
<polygon fill="none" stroke="red" points="352,-161 225,-161 225,-125 352,-125 352,-161"/>
<text text-anchor="middle" x="288.5" y="-139.3" font-family="Times,serif" font-size="14.00">gridstatevector_mod</text>
</a>
</g>
</g>
<!-- midas_ensembleh&#45;&gt;gridstatevector_mod -->
<g id="edge7" class="edge">
<title>midas_ensembleh&#45;&gt;gridstatevector_mod</title>
<path fill="none" stroke="black" d="M483.41,-642.61C445.36,-637.36 396.92,-624.42 366.5,-593 338,-563.57 342.5,-544.97 342.5,-504 342.5,-504 342.5,-504 342.5,-286 342.5,-245.46 338.13,-234.41 322.5,-197 318.56,-187.57 312.96,-177.95 307.44,-169.55"/>
<polygon fill="black" stroke="black" points="310.33,-167.57 301.79,-161.29 304.55,-171.52 310.33,-167.57"/>
</g>
<!-- horizontalcoord_mod -->
<g id="node9" class="node">
<title>horizontalcoord_mod</title>
<g id="a_node9"><a xlink:href="../modules/horizontalcoord_mod.svg" xlink:title="horizontalcoord_mod">
<polygon fill="none" stroke="red" points="447,-89 314,-89 314,-53 447,-53 447,-89"/>
<text text-anchor="middle" x="380.5" y="-67.3" font-family="Times,serif" font-size="14.00">horizontalcoord_mod</text>
</a>
</g>
</g>
<!-- midas_ensembleh&#45;&gt;horizontalcoord_mod -->
<g id="edge8" class="edge">
<title>midas_ensembleh&#45;&gt;horizontalcoord_mod</title>
<path fill="none" stroke="black" d="M483.22,-637.77C454.13,-630.67 420.57,-617.48 399.5,-593 373.11,-562.35 380.5,-544.45 380.5,-504 380.5,-504 380.5,-504 380.5,-214 380.5,-174 380.5,-127.65 380.5,-99.08"/>
<polygon fill="black" stroke="black" points="384,-99.05 380.5,-89.05 377,-99.05 384,-99.05"/>
</g>
<!-- innovation_mod -->
<g id="node10" class="node">
<title>innovation_mod</title>
<g id="a_node10"><a xlink:href="../modules/innovation_mod.svg" xlink:title="innovation_mod">
<polygon fill="none" stroke="red" points="512.5,-593 408.5,-593 408.5,-557 512.5,-557 512.5,-593"/>
<text text-anchor="middle" x="460.5" y="-571.3" font-family="Times,serif" font-size="14.00">innovation_mod</text>
</a>
</g>
</g>
<!-- midas_ensembleh&#45;&gt;innovation_mod -->
<g id="edge9" class="edge">
<title>midas_ensembleh&#45;&gt;innovation_mod</title>
<path fill="none" stroke="black" d="M520.72,-628.7C510.75,-619.97 498.49,-609.24 487.64,-599.75"/>
<polygon fill="black" stroke="black" points="489.88,-597.06 480.05,-593.1 485.27,-602.32 489.88,-597.06"/>
</g>
<!-- midasmpi_mod -->
<g id="node11" class="node">
<title>midasmpi_mod</title>
<g id="a_node11"><a xlink:href="../modules/midasmpi_mod.svg" xlink:title="midasmpi_mod">
<polygon fill="none" stroke="red" points="550,-521 449,-521 449,-485 550,-485 550,-521"/>
<text text-anchor="middle" x="499.5" y="-499.3" font-family="Times,serif" font-size="14.00">midasmpi_mod</text>
</a>
</g>
</g>
<!-- midas_ensembleh&#45;&gt;midasmpi_mod -->
<g id="edge10" class="edge">
<title>midas_ensembleh&#45;&gt;midasmpi_mod</title>
<path fill="none" stroke="black" d="M537.77,-628.7C534.7,-610.59 529.11,-581.44 521.5,-557 518.77,-548.25 515.17,-538.94 511.66,-530.61"/>
<polygon fill="black" stroke="black" points="514.85,-529.15 507.66,-521.37 508.42,-531.94 514.85,-529.15"/>
</g>
<!-- obserrors_mod -->
<g id="node12" class="node">
<title>obserrors_mod</title>
<g id="a_node12"><a xlink:href="../modules/obserrors_mod.svg" xlink:title="obserrors_mod">
<polygon fill="none" stroke="red" points="588.5,-449 490.5,-449 490.5,-413 588.5,-413 588.5,-449"/>
<text text-anchor="middle" x="539.5" y="-427.3" font-family="Times,serif" font-size="14.00">obserrors_mod</text>
</a>
</g>
</g>
<!-- midas_ensembleh&#45;&gt;obserrors_mod -->
<g id="edge11" class="edge">
<title>midas_ensembleh&#45;&gt;obserrors_mod</title>
<path fill="none" stroke="black" d="M545.55,-628.98C553.6,-599.5 567.56,-537.09 558.5,-485 556.98,-476.24 554.14,-467.01 551.11,-458.75"/>
<polygon fill="black" stroke="black" points="554.29,-457.29 547.39,-449.25 547.78,-459.84 554.29,-457.29"/>
</g>
<!-- obsfiles_mod -->
<g id="node13" class="node">
<title>obsfiles_mod</title>
<g id="a_node13"><a xlink:href="../modules/obsfiles_mod.svg" xlink:title="obsfiles_mod">
<polygon fill="none" stroke="red" points="626,-377 537,-377 537,-341 626,-341 626,-377"/>
<text text-anchor="middle" x="581.5" y="-355.3" font-family="Times,serif" font-size="14.00">obsfiles_mod</text>
</a>
</g>
</g>
<!-- midas_ensembleh&#45;&gt;obsfiles_mod -->
<g id="edge12" class="edge">
<title>midas_ensembleh&#45;&gt;obsfiles_mod</title>
<path fill="none" stroke="black" d="M552.76,-628.63C559.26,-618.63 566.84,-605.6 571.5,-593 594.04,-532 591.7,-513.78 597.5,-449 598.93,-433.06 599.84,-428.83 597.5,-413 596.22,-404.35 593.83,-395.15 591.28,-386.89"/>
<polygon fill="black" stroke="black" points="594.6,-385.78 588.15,-377.37 587.95,-387.96 594.6,-385.78"/>
</g>
<!-- obsspacedata_mod -->
<g id="node14" class="node">
<title>obsspacedata_mod</title>
<g id="a_node14"><a xlink:href="../modules/obsspacedata_mod.svg" xlink:title="obsspacedata_mod">
<polygon fill="none" stroke="red" points="664.5,-305 546.5,-305 546.5,-269 664.5,-269 664.5,-305"/>
<text text-anchor="middle" x="605.5" y="-283.3" font-family="Times,serif" font-size="14.00">obsspacedata_mod</text>
</a>
</g>
</g>
<!-- midas_ensembleh&#45;&gt;obsspacedata_mod -->
<g id="edge13" class="edge">
<title>midas_ensembleh&#45;&gt;obsspacedata_mod</title>
<path fill="none" stroke="black" d="M567.52,-628.96C601.23,-605.37 654.5,-559.33 654.5,-504 654.5,-504 654.5,-504 654.5,-430 654.5,-389.46 648.81,-378.93 634.5,-341 631.06,-331.87 626.29,-322.38 621.61,-314"/>
<polygon fill="black" stroke="black" points="624.49,-311.98 616.44,-305.08 618.43,-315.49 624.49,-311.98"/>
</g>
<!-- ramdisk_mod -->
<g id="node15" class="node">
<title>ramdisk_mod</title>
<g id="a_node15"><a xlink:href="../modules/ramdisk_mod.svg" xlink:title="ramdisk_mod">
<polygon fill="none" stroke="red" points="702,-233 611,-233 611,-197 702,-197 702,-233"/>
<text text-anchor="middle" x="656.5" y="-211.3" font-family="Times,serif" font-size="14.00">ramdisk_mod</text>
</a>
</g>
</g>
<!-- midas_ensembleh&#45;&gt;ramdisk_mod -->
<g id="edge14" class="edge">
<title>midas_ensembleh&#45;&gt;ramdisk_mod</title>
<path fill="none" stroke="black" d="M581.63,-628.9C626.65,-607.12 692.5,-564.85 692.5,-504 692.5,-504 692.5,-504 692.5,-358 692.5,-316.78 678.07,-270.83 667.48,-242.66"/>
<polygon fill="black" stroke="black" points="670.66,-241.19 663.79,-233.13 664.14,-243.72 670.66,-241.19"/>
</g>
<!-- statetocolumn_mod -->
<g id="node16" class="node">
<title>statetocolumn_mod</title>
<g id="a_node16"><a xlink:href="../modules/statetocolumn_mod.svg" xlink:title="statetocolumn_mod">
<polygon fill="none" stroke="red" points="740.5,-161 616.5,-161 616.5,-125 740.5,-125 740.5,-161"/>
<text text-anchor="middle" x="678.5" y="-139.3" font-family="Times,serif" font-size="14.00">statetocolumn_mod</text>
</a>
</g>
</g>
<!-- midas_ensembleh&#45;&gt;statetocolumn_mod -->
<g id="edge15" class="edge">
<title>midas_ensembleh&#45;&gt;statetocolumn_mod</title>
<path fill="none" stroke="black" d="M597.51,-629.97C653.47,-610.34 730.5,-571.12 730.5,-504 730.5,-504 730.5,-504 730.5,-286 730.5,-245.46 725.62,-234.62 710.5,-197 706.79,-187.77 701.58,-178.29 696.44,-169.94"/>
<polygon fill="black" stroke="black" points="699.31,-167.93 690.97,-161.4 693.42,-171.71 699.31,-167.93"/>
</g>
<!-- timecoord_mod -->
<g id="node17" class="node">
<title>timecoord_mod</title>
<g id="a_node17"><a xlink:href="../modules/timecoord_mod.svg" xlink:title="timecoord_mod">
<polygon fill="none" stroke="red" points="819.5,-89 717.5,-89 717.5,-53 819.5,-53 819.5,-89"/>
<text text-anchor="middle" x="768.5" y="-67.3" font-family="Times,serif" font-size="14.00">timecoord_mod</text>
</a>
</g>
</g>
<!-- midas_ensembleh&#45;&gt;timecoord_mod -->
<g id="edge16" class="edge">
<title>midas_ensembleh&#45;&gt;timecoord_mod</title>
<path fill="none" stroke="black" d="M597.74,-636.14C665.28,-620.84 768.5,-584.32 768.5,-504 768.5,-504 768.5,-504 768.5,-214 768.5,-174 768.5,-127.65 768.5,-99.08"/>
<polygon fill="black" stroke="black" points="772,-99.05 768.5,-89.05 765,-99.05 772,-99.05"/>
</g>
<!-- utilities_mod -->
<g id="node18" class="node">
<title>utilities_mod</title>
<g id="a_node18"><a xlink:href="../modules/utilities_mod.svg" xlink:title="utilities_mod">
<polygon fill="none" stroke="red" points="884.5,-593 796.5,-593 796.5,-557 884.5,-557 884.5,-593"/>
<text text-anchor="middle" x="840.5" y="-571.3" font-family="Times,serif" font-size="14.00">utilities_mod</text>
</a>
</g>
</g>
<!-- midas_ensembleh&#45;&gt;utilities_mod -->
<g id="edge17" class="edge">
<title>midas_ensembleh&#45;&gt;utilities_mod</title>
<path fill="none" stroke="black" d="M597.97,-634.59C647.17,-624.54 719.79,-609.04 782.5,-593 783.76,-592.68 785.03,-592.35 786.31,-592.01"/>
<polygon fill="black" stroke="black" points="787.52,-595.31 796.25,-589.31 785.69,-588.55 787.52,-595.31"/>
</g>
<!-- version_mod -->
<g id="node19" class="node">
<title>version_mod</title>
<g id="a_node19"><a xlink:href="../modules/version_mod.html" xlink:title="version_mod">
<polygon fill="gray" stroke="black" points="955.5,-521 869.5,-521 869.5,-485 955.5,-485 955.5,-521"/>
<text text-anchor="middle" x="912.5" y="-499.3" font-family="Times,serif" font-size="14.00">version_mod</text>
</a>
</g>
</g>
<!-- midas_ensembleh&#45;&gt;version_mod -->
<g id="edge18" class="edge">
<title>midas_ensembleh&#45;&gt;version_mod</title>
<path fill="none" stroke="black" d="M597.62,-645.08C686.44,-642.43 851.8,-632.22 893.5,-593 910.08,-577.4 914.02,-551.16 914.29,-531.21"/>
<polygon fill="black" stroke="black" points="917.79,-531.1 914.13,-521.15 910.79,-531.21 917.79,-531.1"/>
</g>
<!-- verticalcoord_mod -->
<g id="node20" class="node">
<title>verticalcoord_mod</title>
<g id="a_node20"><a xlink:href="../modules/verticalcoord_mod.svg" xlink:title="verticalcoord_mod">
<polygon fill="none" stroke="red" points="1042.5,-449 924.5,-449 924.5,-413 1042.5,-413 1042.5,-449"/>
<text text-anchor="middle" x="983.5" y="-427.3" font-family="Times,serif" font-size="14.00">verticalcoord_mod</text>
</a>
</g>
</g>
<!-- midas_ensembleh&#45;&gt;verticalcoord_mod -->
<g id="edge19" class="edge">
<title>midas_ensembleh&#45;&gt;verticalcoord_mod</title>
<path fill="none" stroke="black" d="M597.82,-643.6C689.63,-638.83 864.6,-625.64 916.5,-593 962.22,-564.25 976.75,-497.39 981.37,-459.49"/>
<polygon fill="black" stroke="black" points="984.89,-459.49 982.46,-449.18 977.92,-458.75 984.89,-459.49"/>
</g>
</g>
</svg>
