<?xml version="1.0" encoding="UTF-8" standalone="no"?>
<!DOCTYPE svg PUBLIC "-//W3C//DTD SVG 1.1//EN"
 "http://www.w3.org/Graphics/SVG/1.1/DTD/svg11.dtd">
<!-- Generated by graphviz version 3.0.0 (20220315.2325)
 -->
<!-- Title: midas_obsimpact Pages: 1 -->
<svg width="1050pt" height="673pt"
 viewBox="0.00 0.00 1049.50 673.00" xmlns="http://www.w3.org/2000/svg" xmlns:xlink="http://www.w3.org/1999/xlink">
<g id="graph0" class="graph" transform="scale(1 1) rotate(0) translate(4 669)">
<title>midas_obsimpact</title>
<polygon fill="white" stroke="transparent" points="-4,4 -4,-669 1045.5,-669 1045.5,4 -4,4"/>
<text text-anchor="middle" x="520.75" y="-37.8" font-family="Times,serif" font-size="14.00">Red boxes indicate modules with dependencies not shown</text>
<text text-anchor="middle" x="520.75" y="-22.8" font-family="Times,serif" font-size="14.00">Lower level dependencies can be shown by clicking on a red box</text>
<text text-anchor="middle" x="520.75" y="-7.8" font-family="Times,serif" font-size="14.00">Shaded boxes indicate modules with no dependencies</text>
<!-- midas_obsimpact -->
<g id="node1" class="node">
<title>midas_obsimpact</title>
<g id="a_node1"><a xlink:href="midas_obsimpact.html" xlink:title="midas_obsimpact">
<polygon fill="none" stroke="black" points="588,-665 475,-665 475,-629 588,-629 588,-665"/>
<text text-anchor="middle" x="531.5" y="-643.3" font-family="Times,serif" font-size="14.00">midas_obsimpact</text>
</a>
</g>
</g>
<!-- bmatrix_mod -->
<g id="node2" class="node">
<title>bmatrix_mod</title>
<g id="a_node2"><a xlink:href="../modules/bmatrix_mod.svg" xlink:title="bmatrix_mod">
<polygon fill="none" stroke="red" points="89,-593 0,-593 0,-557 89,-557 89,-593"/>
<text text-anchor="middle" x="44.5" y="-571.3" font-family="Times,serif" font-size="14.00">bmatrix_mod</text>
</a>
</g>
</g>
<!-- midas_obsimpact&#45;&gt;bmatrix_mod -->
<g id="edge1" class="edge">
<title>midas_obsimpact&#45;&gt;bmatrix_mod</title>
<path fill="none" stroke="black" d="M474.96,-641.85C392.62,-635.16 235.17,-619.95 103.5,-593 102.03,-592.7 100.55,-592.38 99.05,-592.05"/>
<polygon fill="black" stroke="black" points="99.64,-588.59 89.09,-589.65 98,-595.39 99.64,-588.59"/>
</g>
<!-- codeprecision_mod -->
<g id="node3" class="node">
<title>codeprecision_mod</title>
<g id="a_node3"><a xlink:href="../modules/codeprecision_mod.html" xlink:title="codeprecision_mod">
<polygon fill="gray" stroke="black" points="153.5,-521 31.5,-521 31.5,-485 153.5,-485 153.5,-521"/>
<text text-anchor="middle" x="92.5" y="-499.3" font-family="Times,serif" font-size="14.00">codeprecision_mod</text>
</a>
</g>
</g>
<!-- midas_obsimpact&#45;&gt;codeprecision_mod -->
<g id="edge2" class="edge">
<title>midas_obsimpact&#45;&gt;codeprecision_mod</title>
<path fill="none" stroke="black" d="M474.95,-642.66C386.23,-636.6 219.12,-621.71 167.5,-593 141.04,-578.28 119.86,-550.31 106.85,-529.63"/>
<polygon fill="black" stroke="black" points="109.79,-527.74 101.62,-521 103.81,-531.37 109.79,-527.74"/>
</g>
<!-- columndata_mod -->
<g id="node4" class="node">
<title>columndata_mod</title>
<g id="a_node4"><a xlink:href="../modules/columndata_mod.svg" xlink:title="columndata_mod">
<polygon fill="none" stroke="red" points="191,-449 80,-449 80,-413 191,-413 191,-449"/>
<text text-anchor="middle" x="135.5" y="-427.3" font-family="Times,serif" font-size="14.00">columndata_mod</text>
</a>
</g>
</g>
<!-- midas_obsimpact&#45;&gt;columndata_mod -->
<g id="edge3" class="edge">
<title>midas_obsimpact&#45;&gt;columndata_mod</title>
<path fill="none" stroke="black" d="M474.71,-643.4C392.58,-638.57 246.02,-625.53 205.5,-593 165.21,-560.65 183.8,-532.07 162.5,-485 158.54,-476.25 153.89,-466.86 149.58,-458.46"/>
<polygon fill="black" stroke="black" points="152.63,-456.73 144.91,-449.47 146.42,-459.96 152.63,-456.73"/>
</g>
<!-- fsoi_mod -->
<g id="node5" class="node">
<title>fsoi_mod</title>
<g id="a_node5"><a xlink:href="../modules/fsoi_mod.svg" xlink:title="fsoi_mod">
<polygon fill="none" stroke="red" points="229.5,-377 161.5,-377 161.5,-341 229.5,-341 229.5,-377"/>
<text text-anchor="middle" x="195.5" y="-355.3" font-family="Times,serif" font-size="14.00">fsoi_mod</text>
</a>
</g>
</g>
<!-- midas_obsimpact&#45;&gt;fsoi_mod -->
<g id="edge4" class="edge">
<title>midas_obsimpact&#45;&gt;fsoi_mod</title>
<path fill="none" stroke="black" d="M474.7,-642.92C400.31,-637.69 275.56,-624.39 243.5,-593 214.52,-564.63 201.75,-442.64 197.38,-387.39"/>
<polygon fill="black" stroke="black" points="200.86,-386.98 196.62,-377.27 193.88,-387.51 200.86,-386.98"/>
</g>
<!-- gridstatevectorfileio_mod -->
<g id="node6" class="node">
<title>gridstatevectorfileio_mod</title>
<g id="a_node6"><a xlink:href="../modules/gridstatevectorfileio_mod.svg" xlink:title="gridstatevectorfileio_mod">
<polygon fill="none" stroke="red" points="267,-305 112,-305 112,-269 267,-269 267,-305"/>
<text text-anchor="middle" x="189.5" y="-283.3" font-family="Times,serif" font-size="14.00">gridstatevectorfileio_mod</text>
</a>
</g>
</g>
<!-- midas_obsimpact&#45;&gt;gridstatevectorfileio_mod -->
<g id="edge5" class="edge">
<title>midas_obsimpact&#45;&gt;gridstatevectorfileio_mod</title>
<path fill="none" stroke="black" d="M474.8,-640.82C409.85,-633.75 308.84,-618.89 281.5,-593 251.75,-564.83 257.5,-544.97 257.5,-504 257.5,-504 257.5,-504 257.5,-430 257.5,-389.55 257.12,-376.91 238.5,-341 233.11,-330.61 225.13,-320.74 217.17,-312.41"/>
<polygon fill="black" stroke="black" points="219.49,-309.78 209.94,-305.21 214.56,-314.74 219.49,-309.78"/>
</g>
<!-- gridstatevector_mod -->
<g id="node7" class="node">
<title>gridstatevector_mod</title>
<g id="a_node7"><a xlink:href="../modules/gridstatevector_mod.svg" xlink:title="gridstatevector_mod">
<polygon fill="none" stroke="red" points="305,-233 178,-233 178,-197 305,-197 305,-233"/>
<text text-anchor="middle" x="241.5" y="-211.3" font-family="Times,serif" font-size="14.00">gridstatevector_mod</text>
</a>
</g>
</g>
<!-- midas_obsimpact&#45;&gt;gridstatevector_mod -->
<g id="edge6" class="edge">
<title>midas_obsimpact&#45;&gt;gridstatevector_mod</title>
<path fill="none" stroke="black" d="M474.84,-638.4C419.77,-629.89 341.33,-614.43 319.5,-593 290.27,-564.3 295.5,-544.97 295.5,-504 295.5,-504 295.5,-504 295.5,-358 295.5,-317.46 291.13,-306.41 275.5,-269 271.56,-259.57 265.96,-249.95 260.44,-241.55"/>
<polygon fill="black" stroke="black" points="263.33,-239.57 254.79,-233.29 257.55,-243.52 263.33,-239.57"/>
</g>
<!-- gridvariabletransforms_mod -->
<g id="node8" class="node">
<title>gridvariabletransforms_mod</title>
<g id="a_node8"><a xlink:href="../modules/gridvariabletransforms_mod.svg" xlink:title="gridvariabletransforms_mod">
<polygon fill="none" stroke="red" points="343.5,-161 173.5,-161 173.5,-125 343.5,-125 343.5,-161"/>
<text text-anchor="middle" x="258.5" y="-139.3" font-family="Times,serif" font-size="14.00">gridvariabletransforms_mod</text>
</a>
</g>
</g>
<!-- midas_obsimpact&#45;&gt;gridvariabletransforms_mod -->
<g id="edge7" class="edge">
<title>midas_obsimpact&#45;&gt;gridvariabletransforms_mod</title>
<path fill="none" stroke="black" d="M474.82,-642.67C436.71,-637.45 388.03,-624.53 357.5,-593 329,-563.57 333.5,-544.97 333.5,-504 333.5,-504 333.5,-504 333.5,-286 333.5,-245.46 333.38,-232.33 313.5,-197 307.35,-186.08 298.25,-175.99 289.2,-167.62"/>
<polygon fill="black" stroke="black" points="291.51,-164.98 281.69,-161.01 286.88,-170.24 291.51,-164.98"/>
</g>
<!-- horizontalcoord_mod -->
<g id="node9" class="node">
<title>horizontalcoord_mod</title>
<g id="a_node9"><a xlink:href="../modules/horizontalcoord_mod.svg" xlink:title="horizontalcoord_mod">
<polygon fill="none" stroke="red" points="438,-89 305,-89 305,-53 438,-53 438,-89"/>
<text text-anchor="middle" x="371.5" y="-67.3" font-family="Times,serif" font-size="14.00">horizontalcoord_mod</text>
</a>
</g>
</g>
<!-- midas_obsimpact&#45;&gt;horizontalcoord_mod -->
<g id="edge8" class="edge">
<title>midas_obsimpact&#45;&gt;horizontalcoord_mod</title>
<path fill="none" stroke="black" d="M474.92,-637.95C445.67,-630.88 411.74,-617.67 390.5,-593 364.11,-562.35 371.5,-544.45 371.5,-504 371.5,-504 371.5,-504 371.5,-214 371.5,-174 371.5,-127.65 371.5,-99.08"/>
<polygon fill="black" stroke="black" points="375,-99.05 371.5,-89.05 368,-99.05 375,-99.05"/>
</g>
<!-- innovation_mod -->
<g id="node10" class="node">
<title>innovation_mod</title>
<g id="a_node10"><a xlink:href="../modules/innovation_mod.svg" xlink:title="innovation_mod">
<polygon fill="none" stroke="red" points="503.5,-593 399.5,-593 399.5,-557 503.5,-557 503.5,-593"/>
<text text-anchor="middle" x="451.5" y="-571.3" font-family="Times,serif" font-size="14.00">innovation_mod</text>
</a>
</g>
</g>
<!-- midas_obsimpact&#45;&gt;innovation_mod -->
<g id="edge9" class="edge">
<title>midas_obsimpact&#45;&gt;innovation_mod</title>
<path fill="none" stroke="black" d="M511.72,-628.7C501.75,-619.97 489.49,-609.24 478.64,-599.75"/>
<polygon fill="black" stroke="black" points="480.88,-597.06 471.05,-593.1 476.27,-602.32 480.88,-597.06"/>
</g>
<!-- mathphysconstants_mod -->
<g id="node11" class="node">
<title>mathphysconstants_mod</title>
<g id="a_node11"><a xlink:href="../modules/mathphysconstants_mod.html" xlink:title="mathphysconstants_mod">
<polygon fill="gray" stroke="black" points="549.5,-521 399.5,-521 399.5,-485 549.5,-485 549.5,-521"/>
<text text-anchor="middle" x="474.5" y="-499.3" font-family="Times,serif" font-size="14.00">mathphysconstants_mod</text>
</a>
</g>
</g>
<!-- midas_obsimpact&#45;&gt;mathphysconstants_mod -->
<g id="edge10" class="edge">
<title>midas_obsimpact&#45;&gt;mathphysconstants_mod</title>
<path fill="none" stroke="black" d="M529.96,-628.96C527.83,-610.56 522.98,-580.7 512.5,-557 508.17,-547.21 501.86,-537.43 495.62,-528.98"/>
<polygon fill="black" stroke="black" points="498.36,-526.8 489.48,-521.03 492.82,-531.08 498.36,-526.8"/>
</g>
<!-- midasmpi_mod -->
<g id="node12" class="node">
<title>midasmpi_mod</title>
<g id="a_node12"><a xlink:href="../modules/midasmpi_mod.svg" xlink:title="midasmpi_mod">
<polygon fill="none" stroke="red" points="587,-449 486,-449 486,-413 587,-413 587,-449"/>
<text text-anchor="middle" x="536.5" y="-427.3" font-family="Times,serif" font-size="14.00">midasmpi_mod</text>
</a>
</g>
</g>
<!-- midas_obsimpact&#45;&gt;midasmpi_mod -->
<g id="edge11" class="edge">
<title>midas_obsimpact&#45;&gt;midasmpi_mod</title>
<path fill="none" stroke="black" d="M538.58,-628.54C549.68,-598.93 568.86,-536.98 558.5,-485 556.71,-476.01 553.36,-466.64 549.81,-458.32"/>
<polygon fill="black" stroke="black" points="552.96,-456.77 545.63,-449.12 546.58,-459.67 552.96,-456.77"/>
</g>
<!-- obserrors_mod -->
<g id="node13" class="node">
<title>obserrors_mod</title>
<g id="a_node13"><a xlink:href="../modules/obserrors_mod.svg" xlink:title="obserrors_mod">
<polygon fill="none" stroke="red" points="625.5,-377 527.5,-377 527.5,-341 625.5,-341 625.5,-377"/>
<text text-anchor="middle" x="576.5" y="-355.3" font-family="Times,serif" font-size="14.00">obserrors_mod</text>
</a>
</g>
</g>
<!-- midas_obsimpact&#45;&gt;obserrors_mod -->
<g id="edge12" class="edge">
<title>midas_obsimpact&#45;&gt;obserrors_mod</title>
<path fill="none" stroke="black" d="M546.2,-628.97C553.98,-619.08 563.03,-606.04 568.5,-593 593.7,-532.96 589.47,-513.84 595.5,-449 596.98,-433.07 598.24,-428.76 595.5,-413 593.98,-404.24 591.14,-395.01 588.11,-386.75"/>
<polygon fill="black" stroke="black" points="591.29,-385.29 584.39,-377.25 584.78,-387.84 591.29,-385.29"/>
</g>
<!-- obsfiles_mod -->
<g id="node14" class="node">
<title>obsfiles_mod</title>
<g id="a_node14"><a xlink:href="../modules/obsfiles_mod.svg" xlink:title="obsfiles_mod">
<polygon fill="none" stroke="red" points="663,-305 574,-305 574,-269 663,-269 663,-305"/>
<text text-anchor="middle" x="618.5" y="-283.3" font-family="Times,serif" font-size="14.00">obsfiles_mod</text>
</a>
</g>
</g>
<!-- midas_obsimpact&#45;&gt;obsfiles_mod -->
<g id="edge13" class="edge">
<title>midas_obsimpact&#45;&gt;obsfiles_mod</title>
<path fill="none" stroke="black" d="M561.34,-628.83C597.46,-605.57 653.5,-560.39 653.5,-504 653.5,-504 653.5,-504 653.5,-430 653.5,-388.84 639.47,-342.88 629.17,-314.69"/>
<polygon fill="black" stroke="black" points="632.38,-313.28 625.58,-305.15 625.83,-315.74 632.38,-313.28"/>
</g>
<!-- obsspacedata_mod -->
<g id="node15" class="node">
<title>obsspacedata_mod</title>
<g id="a_node15"><a xlink:href="../modules/obsspacedata_mod.svg" xlink:title="obsspacedata_mod">
<polygon fill="none" stroke="red" points="701.5,-233 583.5,-233 583.5,-197 701.5,-197 701.5,-233"/>
<text text-anchor="middle" x="642.5" y="-211.3" font-family="Times,serif" font-size="14.00">obsspacedata_mod</text>
</a>
</g>
</g>
<!-- midas_obsimpact&#45;&gt;obsspacedata_mod -->
<g id="edge14" class="edge">
<title>midas_obsimpact&#45;&gt;obsspacedata_mod</title>
<path fill="none" stroke="black" d="M576.07,-628.93C623.41,-607.55 691.5,-566.02 691.5,-504 691.5,-504 691.5,-504 691.5,-358 691.5,-317.46 685.81,-306.93 671.5,-269 668.06,-259.87 663.29,-250.38 658.61,-242"/>
<polygon fill="black" stroke="black" points="661.49,-239.98 653.44,-233.08 655.43,-243.49 661.49,-239.98"/>
</g>
<!-- ramdisk_mod -->
<g id="node16" class="node">
<title>ramdisk_mod</title>
<g id="a_node16"><a xlink:href="../modules/ramdisk_mod.svg" xlink:title="ramdisk_mod">
<polygon fill="none" stroke="red" points="739,-161 648,-161 648,-125 739,-125 739,-161"/>
<text text-anchor="middle" x="693.5" y="-139.3" font-family="Times,serif" font-size="14.00">ramdisk_mod</text>
</a>
</g>
</g>
<!-- midas_obsimpact&#45;&gt;ramdisk_mod -->
<g id="edge15" class="edge">
<title>midas_obsimpact&#45;&gt;ramdisk_mod</title>
<path fill="none" stroke="black" d="M588.24,-631.56C646.75,-612.85 729.5,-574.01 729.5,-504 729.5,-504 729.5,-504 729.5,-286 729.5,-244.78 715.07,-198.83 704.48,-170.66"/>
<polygon fill="black" stroke="black" points="707.66,-169.19 700.79,-161.13 701.14,-171.72 707.66,-169.19"/>
</g>
<!-- timecoord_mod -->
<g id="node17" class="node">
<title>timecoord_mod</title>
<g id="a_node17"><a xlink:href="../modules/timecoord_mod.svg" xlink:title="timecoord_mod">
<polygon fill="none" stroke="red" points="818.5,-89 716.5,-89 716.5,-53 818.5,-53 818.5,-89"/>
<text text-anchor="middle" x="767.5" y="-67.3" font-family="Times,serif" font-size="14.00">timecoord_mod</text>
</a>
</g>
</g>
<!-- midas_obsimpact&#45;&gt;timecoord_mod -->
<g id="edge16" class="edge">
<title>midas_obsimpact&#45;&gt;timecoord_mod</title>
<path fill="none" stroke="black" d="M588.03,-637.36C657.85,-623.11 767.5,-587.44 767.5,-504 767.5,-504 767.5,-504 767.5,-214 767.5,-174 767.5,-127.65 767.5,-99.08"/>
<polygon fill="black" stroke="black" points="771,-99.05 767.5,-89.05 764,-99.05 771,-99.05"/>
</g>
<!-- utilities_mod -->
<g id="node18" class="node">
<title>utilities_mod</title>
<g id="a_node18"><a xlink:href="../modules/utilities_mod.svg" xlink:title="utilities_mod">
<polygon fill="none" stroke="red" points="883.5,-593 795.5,-593 795.5,-557 883.5,-557 883.5,-593"/>
<text text-anchor="middle" x="839.5" y="-571.3" font-family="Times,serif" font-size="14.00">utilities_mod</text>
</a>
</g>
</g>
<!-- midas_obsimpact&#45;&gt;utilities_mod -->
<g id="edge17" class="edge">
<title>midas_obsimpact&#45;&gt;utilities_mod</title>
<path fill="none" stroke="black" d="M588.38,-635.23C639.24,-625.29 715.68,-609.6 781.5,-593 782.76,-592.68 784.03,-592.36 785.31,-592.02"/>
<polygon fill="black" stroke="black" points="786.52,-595.32 795.26,-589.34 784.7,-588.56 786.52,-595.32"/>
</g>
<!-- version_mod -->
<g id="node19" class="node">
<title>version_mod</title>
<g id="a_node19"><a xlink:href="../modules/version_mod.html" xlink:title="version_mod">
<polygon fill="gray" stroke="black" points="954.5,-521 868.5,-521 868.5,-485 954.5,-485 954.5,-521"/>
<text text-anchor="middle" x="911.5" y="-499.3" font-family="Times,serif" font-size="14.00">version_mod</text>
</a>
</g>
</g>
<!-- midas_obsimpact&#45;&gt;version_mod -->
<g id="edge18" class="edge">
<title>midas_obsimpact&#45;&gt;version_mod</title>
<path fill="none" stroke="black" d="M588.07,-645.32C678.43,-643.01 849.52,-633.29 892.5,-593 909.11,-577.43 913.04,-551.19 913.3,-531.22"/>
<polygon fill="black" stroke="black" points="916.8,-531.11 913.14,-521.16 909.8,-531.22 916.8,-531.11"/>
</g>
<!-- verticalcoord_mod -->
<g id="node20" class="node">
<title>verticalcoord_mod</title>
<g id="a_node20"><a xlink:href="../modules/verticalcoord_mod.svg" xlink:title="verticalcoord_mod">
<polygon fill="none" stroke="red" points="1041.5,-449 923.5,-449 923.5,-413 1041.5,-413 1041.5,-449"/>
<text text-anchor="middle" x="982.5" y="-427.3" font-family="Times,serif" font-size="14.00">verticalcoord_mod</text>
</a>
</g>
</g>
<!-- midas_obsimpact&#45;&gt;verticalcoord_mod -->
<g id="edge19" class="edge">
<title>midas_obsimpact&#45;&gt;verticalcoord_mod</title>
<path fill="none" stroke="black" d="M588.16,-643.83C681.38,-639.33 862.11,-626.47 915.5,-593 961.26,-564.31 975.78,-497.43 980.38,-459.51"/>
<polygon fill="black" stroke="black" points="983.9,-459.51 981.47,-449.19 976.94,-458.77 983.9,-459.51"/>
</g>
</g>
</svg>
