<?xml version="1.0" encoding="UTF-8" standalone="no"?>
<!DOCTYPE svg PUBLIC "-//W3C//DTD SVG 1.1//EN"
 "http://www.w3.org/Graphics/SVG/1.1/DTD/svg11.dtd">
<!-- Generated by graphviz version 3.0.0 (20220315.2325)
 -->
<!-- Title: midas_analysiserroroi Pages: 1 -->
<svg width="960pt" height="673pt"
 viewBox="0.00 0.00 959.50 673.00" xmlns="http://www.w3.org/2000/svg" xmlns:xlink="http://www.w3.org/1999/xlink">
<g id="graph0" class="graph" transform="scale(1 1) rotate(0) translate(4 669)">
<title>midas_analysiserroroi</title>
<polygon fill="white" stroke="transparent" points="-4,4 -4,-669 955.5,-669 955.5,4 -4,4"/>
<text text-anchor="middle" x="475.75" y="-37.8" font-family="Times,serif" font-size="14.00">Red boxes indicate modules with dependencies not shown</text>
<text text-anchor="middle" x="475.75" y="-22.8" font-family="Times,serif" font-size="14.00">Lower level dependencies can be shown by clicking on a red box</text>
<text text-anchor="middle" x="475.75" y="-7.8" font-family="Times,serif" font-size="14.00">Shaded boxes indicate modules with no dependencies</text>
<!-- midas_analysiserroroi -->
<g id="node1" class="node">
<title>midas_analysiserroroi</title>
<g id="a_node1"><a xlink:href="midas_analysiserroroi.html" xlink:title="midas_analysiserroroi">
<polygon fill="none" stroke="black" points="551.5,-665 415.5,-665 415.5,-629 551.5,-629 551.5,-665"/>
<text text-anchor="middle" x="483.5" y="-643.3" font-family="Times,serif" font-size="14.00">midas_analysiserroroi</text>
</a>
</g>
</g>
<!-- analysiserroroi_mod -->
<g id="node2" class="node">
<title>analysiserroroi_mod</title>
<g id="a_node2"><a xlink:href="../modules/analysiserroroi_mod.svg" xlink:title="analysiserroroi_mod">
<polygon fill="none" stroke="red" points="127,-593 0,-593 0,-557 127,-557 127,-593"/>
<text text-anchor="middle" x="63.5" y="-571.3" font-family="Times,serif" font-size="14.00">analysiserroroi_mod</text>
</a>
</g>
</g>
<!-- midas_analysiserroroi&#45;&gt;analysiserroroi_mod -->
<g id="edge1" class="edge">
<title>midas_analysiserroroi&#45;&gt;analysiserroroi_mod</title>
<path fill="none" stroke="black" d="M415.48,-636.7C346.32,-626.96 236.16,-610.63 141.5,-593 140.05,-592.73 138.59,-592.45 137.12,-592.17"/>
<polygon fill="black" stroke="black" points="137.77,-588.73 127.29,-590.23 136.42,-595.6 137.77,-588.73"/>
</g>
<!-- columndata_mod -->
<g id="node3" class="node">
<title>columndata_mod</title>
<g id="a_node3"><a xlink:href="../modules/columndata_mod.svg" xlink:title="columndata_mod">
<polygon fill="none" stroke="red" points="188,-521 77,-521 77,-485 188,-485 188,-521"/>
<text text-anchor="middle" x="132.5" y="-499.3" font-family="Times,serif" font-size="14.00">columndata_mod</text>
</a>
</g>
</g>
<!-- midas_analysiserroroi&#45;&gt;columndata_mod -->
<g id="edge2" class="edge">
<title>midas_analysiserroroi&#45;&gt;columndata_mod</title>
<path fill="none" stroke="black" d="M415.5,-638.72C344.13,-630.12 237.52,-614.25 202.5,-593 177.58,-577.88 158.04,-550.41 146.01,-529.98"/>
<polygon fill="black" stroke="black" points="148.99,-528.13 141.02,-521.15 142.9,-531.58 148.99,-528.13"/>
</g>
<!-- gridstatevector_mod -->
<g id="node4" class="node">
<title>gridstatevector_mod</title>
<g id="a_node4"><a xlink:href="../modules/gridstatevector_mod.svg" xlink:title="gridstatevector_mod">
<polygon fill="none" stroke="red" points="226,-449 99,-449 99,-413 226,-413 226,-449"/>
<text text-anchor="middle" x="162.5" y="-427.3" font-family="Times,serif" font-size="14.00">gridstatevector_mod</text>
</a>
</g>
</g>
<!-- midas_analysiserroroi&#45;&gt;gridstatevector_mod -->
<g id="edge3" class="edge">
<title>midas_analysiserroroi&#45;&gt;gridstatevector_mod</title>
<path fill="none" stroke="black" d="M415.41,-638.3C353.05,-630 266.6,-614.96 240.5,-593 200.84,-559.64 220.37,-531.01 196.5,-485 191.72,-475.78 185.8,-466.11 180.25,-457.58"/>
<polygon fill="black" stroke="black" points="183.12,-455.57 174.67,-449.18 177.29,-459.45 183.12,-455.57"/>
</g>
<!-- horizontalcoord_mod -->
<g id="node5" class="node">
<title>horizontalcoord_mod</title>
<g id="a_node5"><a xlink:href="../modules/horizontalcoord_mod.svg" xlink:title="horizontalcoord_mod">
<polygon fill="none" stroke="red" points="264,-377 131,-377 131,-341 264,-341 264,-377"/>
<text text-anchor="middle" x="197.5" y="-355.3" font-family="Times,serif" font-size="14.00">horizontalcoord_mod</text>
</a>
</g>
</g>
<!-- midas_analysiserroroi&#45;&gt;horizontalcoord_mod -->
<g id="edge4" class="edge">
<title>midas_analysiserroroi&#45;&gt;horizontalcoord_mod</title>
<path fill="none" stroke="black" d="M415.29,-636.04C363.36,-627.1 297.64,-612.4 278.5,-593 220.65,-534.38 268.43,-488.04 234.5,-413 230.18,-403.44 224.07,-393.79 218.07,-385.39"/>
<polygon fill="black" stroke="black" points="220.71,-383.08 211.93,-377.15 215.1,-387.26 220.71,-383.08"/>
</g>
<!-- innovation_mod -->
<g id="node6" class="node">
<title>innovation_mod</title>
<g id="a_node6"><a xlink:href="../modules/innovation_mod.svg" xlink:title="innovation_mod">
<polygon fill="none" stroke="red" points="302.5,-305 198.5,-305 198.5,-269 302.5,-269 302.5,-305"/>
<text text-anchor="middle" x="250.5" y="-283.3" font-family="Times,serif" font-size="14.00">innovation_mod</text>
</a>
</g>
</g>
<!-- midas_analysiserroroi&#45;&gt;innovation_mod -->
<g id="edge5" class="edge">
<title>midas_analysiserroroi&#45;&gt;innovation_mod</title>
<path fill="none" stroke="black" d="M415.22,-639.68C381.29,-633.1 342.16,-619.81 316.5,-593 288.17,-563.4 292.5,-544.97 292.5,-504 292.5,-504 292.5,-504 292.5,-430 292.5,-388.15 275.51,-342.1 263.15,-314.11"/>
<polygon fill="black" stroke="black" points="266.33,-312.66 259,-305.01 259.96,-315.56 266.33,-312.66"/>
</g>
<!-- mathphysconstants_mod -->
<g id="node7" class="node">
<title>mathphysconstants_mod</title>
<g id="a_node7"><a xlink:href="../modules/mathphysconstants_mod.html" xlink:title="mathphysconstants_mod">
<polygon fill="gray" stroke="black" points="340.5,-233 190.5,-233 190.5,-197 340.5,-197 340.5,-233"/>
<text text-anchor="middle" x="265.5" y="-211.3" font-family="Times,serif" font-size="14.00">mathphysconstants_mod</text>
</a>
</g>
</g>
<!-- midas_analysiserroroi&#45;&gt;mathphysconstants_mod -->
<g id="edge6" class="edge">
<title>midas_analysiserroroi&#45;&gt;mathphysconstants_mod</title>
<path fill="none" stroke="black" d="M415.33,-630.94C393.23,-622.99 370.34,-610.99 354.5,-593 327.42,-562.26 330.5,-544.97 330.5,-504 330.5,-504 330.5,-504 330.5,-358 330.5,-317.55 329.55,-305.2 311.5,-269 306.47,-258.92 299.08,-249.21 291.68,-240.91"/>
<polygon fill="black" stroke="black" points="294.06,-238.33 284.66,-233.43 288.95,-243.12 294.06,-238.33"/>
</g>
<!-- message_mod -->
<g id="node8" class="node">
<title>message_mod</title>
<g id="a_node8"><a xlink:href="../modules/message_mod.svg" xlink:title="message_mod">
<polygon fill="none" stroke="red" points="378,-161 285,-161 285,-125 378,-125 378,-161"/>
<text text-anchor="middle" x="331.5" y="-139.3" font-family="Times,serif" font-size="14.00">message_mod</text>
</a>
</g>
</g>
<!-- midas_analysiserroroi&#45;&gt;message_mod -->
<g id="edge7" class="edge">
<title>midas_analysiserroroi&#45;&gt;message_mod</title>
<path fill="none" stroke="black" d="M438.99,-628.82C422.24,-620.34 404.39,-608.53 392.5,-593 367.6,-560.47 368.5,-544.97 368.5,-504 368.5,-504 368.5,-504 368.5,-286 368.5,-244.71 353.67,-198.77 342.78,-170.63"/>
<polygon fill="black" stroke="black" points="345.94,-169.11 338.99,-161.11 339.44,-171.7 345.94,-169.11"/>
</g>
<!-- midasmpi_mod -->
<g id="node9" class="node">
<title>midasmpi_mod</title>
<g id="a_node9"><a xlink:href="../modules/midasmpi_mod.svg" xlink:title="midasmpi_mod">
<polygon fill="none" stroke="red" points="457,-89 356,-89 356,-53 457,-53 457,-89"/>
<text text-anchor="middle" x="406.5" y="-67.3" font-family="Times,serif" font-size="14.00">midasmpi_mod</text>
</a>
</g>
</g>
<!-- midas_analysiserroroi&#45;&gt;midasmpi_mod -->
<g id="edge8" class="edge">
<title>midas_analysiserroroi&#45;&gt;midasmpi_mod</title>
<path fill="none" stroke="black" d="M458.38,-628.81C446.67,-619.53 433.57,-607.08 425.5,-593 405.39,-557.91 406.5,-544.45 406.5,-504 406.5,-504 406.5,-504 406.5,-214 406.5,-174 406.5,-127.65 406.5,-99.08"/>
<polygon fill="black" stroke="black" points="410,-99.05 406.5,-89.05 403,-99.05 410,-99.05"/>
</g>
<!-- obserrors_mod -->
<g id="node10" class="node">
<title>obserrors_mod</title>
<g id="a_node10"><a xlink:href="../modules/obserrors_mod.svg" xlink:title="obserrors_mod">
<polygon fill="none" stroke="red" points="532.5,-593 434.5,-593 434.5,-557 532.5,-557 532.5,-593"/>
<text text-anchor="middle" x="483.5" y="-571.3" font-family="Times,serif" font-size="14.00">obserrors_mod</text>
</a>
</g>
</g>
<!-- midas_analysiserroroi&#45;&gt;obserrors_mod -->
<g id="edge9" class="edge">
<title>midas_analysiserroroi&#45;&gt;obserrors_mod</title>
<path fill="none" stroke="black" d="M483.5,-628.7C483.5,-620.98 483.5,-611.71 483.5,-603.11"/>
<polygon fill="black" stroke="black" points="487,-603.1 483.5,-593.1 480,-603.1 487,-603.1"/>
</g>
<!-- obsfiles_mod -->
<g id="node11" class="node">
<title>obsfiles_mod</title>
<g id="a_node11"><a xlink:href="../modules/obsfiles_mod.svg" xlink:title="obsfiles_mod">
<polygon fill="none" stroke="red" points="570,-521 481,-521 481,-485 570,-485 570,-521"/>
<text text-anchor="middle" x="525.5" y="-499.3" font-family="Times,serif" font-size="14.00">obsfiles_mod</text>
</a>
</g>
</g>
<!-- midas_analysiserroroi&#45;&gt;obsfiles_mod -->
<g id="edge10" class="edge">
<title>midas_analysiserroroi&#45;&gt;obsfiles_mod</title>
<path fill="none" stroke="black" d="M510.84,-628.77C522.61,-619.72 535.12,-607.48 541.5,-593 550.26,-573.12 544.88,-548.73 538.08,-530.51"/>
<polygon fill="black" stroke="black" points="541.26,-529.03 534.24,-521.09 534.77,-531.67 541.26,-529.03"/>
</g>
<!-- obsfilter_mod -->
<g id="node12" class="node">
<title>obsfilter_mod</title>
<g id="a_node12"><a xlink:href="../modules/obsfilter_mod.svg" xlink:title="obsfilter_mod">
<polygon fill="none" stroke="red" points="608.5,-449 516.5,-449 516.5,-413 608.5,-413 608.5,-449"/>
<text text-anchor="middle" x="562.5" y="-427.3" font-family="Times,serif" font-size="14.00">obsfilter_mod</text>
</a>
</g>
</g>
<!-- midas_analysiserroroi&#45;&gt;obsfilter_mod -->
<g id="edge11" class="edge">
<title>midas_analysiserroroi&#45;&gt;obsfilter_mod</title>
<path fill="none" stroke="black" d="M517.47,-628.89C532.02,-620 548.04,-607.86 558.5,-593 586.6,-553.08 585.63,-533.29 578.5,-485 577.22,-476.35 574.83,-467.15 572.28,-458.89"/>
<polygon fill="black" stroke="black" points="575.6,-457.78 569.15,-449.37 568.95,-459.96 575.6,-457.78"/>
</g>
<!-- obsspacedata_mod -->
<g id="node13" class="node">
<title>obsspacedata_mod</title>
<g id="a_node13"><a xlink:href="../modules/obsspacedata_mod.svg" xlink:title="obsspacedata_mod">
<polygon fill="none" stroke="red" points="646.5,-377 528.5,-377 528.5,-341 646.5,-341 646.5,-377"/>
<text text-anchor="middle" x="587.5" y="-355.3" font-family="Times,serif" font-size="14.00">obsspacedata_mod</text>
</a>
</g>
</g>
<!-- midas_analysiserroroi&#45;&gt;obsspacedata_mod -->
<g id="edge12" class="edge">
<title>midas_analysiserroroi&#45;&gt;obsspacedata_mod</title>
<path fill="none" stroke="black" d="M533.89,-628.97C551.6,-620.67 570.15,-608.95 582.5,-593 632.39,-528.56 638.26,-491.81 617.5,-413 615.01,-403.54 610.4,-393.99 605.53,-385.66"/>
<polygon fill="black" stroke="black" points="608.49,-383.79 600.23,-377.15 602.55,-387.49 608.49,-383.79"/>
</g>
<!-- ramdisk_mod -->
<g id="node14" class="node">
<title>ramdisk_mod</title>
<g id="a_node14"><a xlink:href="../modules/ramdisk_mod.svg" xlink:title="ramdisk_mod">
<polygon fill="none" stroke="red" points="684,-305 593,-305 593,-269 684,-269 684,-305"/>
<text text-anchor="middle" x="638.5" y="-283.3" font-family="Times,serif" font-size="14.00">ramdisk_mod</text>
</a>
</g>
</g>
<!-- midas_analysiserroroi&#45;&gt;ramdisk_mod -->
<g id="edge13" class="edge">
<title>midas_analysiserroroi&#45;&gt;ramdisk_mod</title>
<path fill="none" stroke="black" d="M543.93,-628.96C599.89,-609.05 674.5,-570.11 674.5,-504 674.5,-504 674.5,-504 674.5,-430 674.5,-388.78 660.07,-342.83 649.48,-314.66"/>
<polygon fill="black" stroke="black" points="652.66,-313.19 645.79,-305.13 646.14,-315.72 652.66,-313.19"/>
</g>
<!-- timecoord_mod -->
<g id="node15" class="node">
<title>timecoord_mod</title>
<g id="a_node15"><a xlink:href="../modules/timecoord_mod.svg" xlink:title="timecoord_mod">
<polygon fill="none" stroke="red" points="722.5,-233 620.5,-233 620.5,-197 722.5,-197 722.5,-233"/>
<text text-anchor="middle" x="671.5" y="-211.3" font-family="Times,serif" font-size="14.00">timecoord_mod</text>
</a>
</g>
</g>
<!-- midas_analysiserroroi&#45;&gt;timecoord_mod -->
<g id="edge14" class="edge">
<title>midas_analysiserroroi&#45;&gt;timecoord_mod</title>
<path fill="none" stroke="black" d="M551.59,-633.74C619.09,-617.19 712.5,-580.49 712.5,-504 712.5,-504 712.5,-504 712.5,-358 712.5,-316.41 696.06,-270.56 684,-242.51"/>
<polygon fill="black" stroke="black" points="687.05,-240.75 679.8,-233.03 680.65,-243.59 687.05,-240.75"/>
</g>
<!-- utilities_mod -->
<g id="node16" class="node">
<title>utilities_mod</title>
<g id="a_node16"><a xlink:href="../modules/utilities_mod.svg" xlink:title="utilities_mod">
<polygon fill="none" stroke="red" points="777.5,-161 689.5,-161 689.5,-125 777.5,-125 777.5,-161"/>
<text text-anchor="middle" x="733.5" y="-139.3" font-family="Times,serif" font-size="14.00">utilities_mod</text>
</a>
</g>
</g>
<!-- midas_analysiserroroi&#45;&gt;utilities_mod -->
<g id="edge15" class="edge">
<title>midas_analysiserroroi&#45;&gt;utilities_mod</title>
<path fill="none" stroke="black" d="M551.57,-639.23C630.67,-627.17 750.5,-594.04 750.5,-504 750.5,-504 750.5,-504 750.5,-286 750.5,-245.93 743.74,-199.95 738.75,-171.43"/>
<polygon fill="black" stroke="black" points="742.16,-170.63 736.94,-161.41 735.27,-171.87 742.16,-170.63"/>
</g>
<!-- version_mod -->
<g id="node17" class="node">
<title>version_mod</title>
<g id="a_node17"><a xlink:href="../modules/version_mod.html" xlink:title="version_mod">
<polygon fill="gray" stroke="black" points="848.5,-89 762.5,-89 762.5,-53 848.5,-53 848.5,-89"/>
<text text-anchor="middle" x="805.5" y="-67.3" font-family="Times,serif" font-size="14.00">version_mod</text>
</a>
</g>
</g>
<!-- midas_analysiserroroi&#45;&gt;version_mod -->
<g id="edge16" class="edge">
<title>midas_analysiserroroi&#45;&gt;version_mod</title>
<path fill="none" stroke="black" d="M551.79,-644.96C646.31,-639.5 805.5,-613.98 805.5,-504 805.5,-504 805.5,-504 805.5,-214 805.5,-174 805.5,-127.65 805.5,-99.08"/>
<polygon fill="black" stroke="black" points="809,-99.05 805.5,-89.05 802,-99.05 809,-99.05"/>
</g>
<!-- verticalcoord_mod -->
<g id="node18" class="node">
<title>verticalcoord_mod</title>
<g id="a_node18"><a xlink:href="../modules/verticalcoord_mod.svg" xlink:title="verticalcoord_mod">
<polygon fill="none" stroke="red" points="951.5,-593 833.5,-593 833.5,-557 951.5,-557 951.5,-593"/>
<text text-anchor="middle" x="892.5" y="-571.3" font-family="Times,serif" font-size="14.00">verticalcoord_mod</text>
</a>
</g>
</g>
<!-- midas_analysiserroroi&#45;&gt;verticalcoord_mod -->
<g id="edge17" class="edge">
<title>midas_analysiserroroi&#45;&gt;verticalcoord_mod</title>
<path fill="none" stroke="black" d="M551.65,-636.73C619.71,-627.12 727.19,-611 819.5,-593 820.76,-592.75 822.03,-592.5 823.3,-592.25"/>
<polygon fill="black" stroke="black" points="824.14,-595.65 833.21,-590.18 822.71,-588.79 824.14,-595.65"/>
</g>
</g>
</svg>
