<?xml version="1.0" encoding="UTF-8" standalone="no"?>
<!DOCTYPE svg PUBLIC "-//W3C//DTD SVG 1.1//EN"
 "http://www.w3.org/Graphics/SVG/1.1/DTD/svg11.dtd">
<!-- Generated by graphviz version 3.0.0 (20220315.2325)
 -->
<!-- Title: midas_randompert Pages: 1 -->
<svg width="789pt" height="673pt"
 viewBox="0.00 0.00 788.50 673.00" xmlns="http://www.w3.org/2000/svg" xmlns:xlink="http://www.w3.org/1999/xlink">
<g id="graph0" class="graph" transform="scale(1 1) rotate(0) translate(4 669)">
<title>midas_randompert</title>
<polygon fill="white" stroke="transparent" points="-4,4 -4,-669 784.5,-669 784.5,4 -4,4"/>
<text text-anchor="middle" x="390.25" y="-37.8" font-family="Times,serif" font-size="14.00">Red boxes indicate modules with dependencies not shown</text>
<text text-anchor="middle" x="390.25" y="-22.8" font-family="Times,serif" font-size="14.00">Lower level dependencies can be shown by clicking on a red box</text>
<text text-anchor="middle" x="390.25" y="-7.8" font-family="Times,serif" font-size="14.00">Shaded boxes indicate modules with no dependencies</text>
<!-- midas_randompert -->
<g id="node1" class="node">
<title>midas_randompert</title>
<g id="a_node1"><a xlink:href="midas_randompert.html" xlink:title="midas_randompert">
<polygon fill="none" stroke="black" points="410,-665 291,-665 291,-629 410,-629 410,-665"/>
<text text-anchor="middle" x="350.5" y="-643.3" font-family="Times,serif" font-size="14.00">midas_randompert</text>
</a>
</g>
</g>
<!-- bmatrix_mod -->
<g id="node2" class="node">
<title>bmatrix_mod</title>
<g id="a_node2"><a xlink:href="../modules/bmatrix_mod.svg" xlink:title="bmatrix_mod">
<polygon fill="none" stroke="red" points="89,-593 0,-593 0,-557 89,-557 89,-593"/>
<text text-anchor="middle" x="44.5" y="-571.3" font-family="Times,serif" font-size="14.00">bmatrix_mod</text>
</a>
</g>
</g>
<!-- midas_randompert&#45;&gt;bmatrix_mod -->
<g id="edge1" class="edge">
<title>midas_randompert&#45;&gt;bmatrix_mod</title>
<path fill="none" stroke="black" d="M290.84,-634.4C240.65,-624.36 167.09,-608.96 103.5,-593 102.05,-592.64 100.57,-592.26 99.09,-591.87"/>
<polygon fill="black" stroke="black" points="99.75,-588.43 89.19,-589.23 97.95,-595.19 99.75,-588.43"/>
</g>
<!-- controlvector_mod -->
<g id="node3" class="node">
<title>controlvector_mod</title>
<g id="a_node3"><a xlink:href="../modules/controlvector_mod.svg" xlink:title="controlvector_mod">
<polygon fill="none" stroke="red" points="151.5,-521 33.5,-521 33.5,-485 151.5,-485 151.5,-521"/>
<text text-anchor="middle" x="92.5" y="-499.3" font-family="Times,serif" font-size="14.00">controlvector_mod</text>
</a>
</g>
</g>
<!-- midas_randompert&#45;&gt;controlvector_mod -->
<g id="edge2" class="edge">
<title>midas_randompert&#45;&gt;controlvector_mod</title>
<path fill="none" stroke="black" d="M290.84,-638.27C252.58,-631.16 203.19,-617.77 165.5,-593 140.88,-576.82 120.41,-549.76 107.47,-529.72"/>
<polygon fill="black" stroke="black" points="110.33,-527.69 102.07,-521.07 104.4,-531.4 110.33,-527.69"/>
</g>
<!-- gridstatevectorfileio_mod -->
<g id="node4" class="node">
<title>gridstatevectorfileio_mod</title>
<g id="a_node4"><a xlink:href="../modules/gridstatevectorfileio_mod.svg" xlink:title="gridstatevectorfileio_mod">
<polygon fill="none" stroke="red" points="189,-449 34,-449 34,-413 189,-413 189,-449"/>
<text text-anchor="middle" x="111.5" y="-427.3" font-family="Times,serif" font-size="14.00">gridstatevectorfileio_mod</text>
</a>
</g>
</g>
<!-- midas_randompert&#45;&gt;gridstatevectorfileio_mod -->
<g id="edge3" class="edge">
<title>midas_randompert&#45;&gt;gridstatevectorfileio_mod</title>
<path fill="none" stroke="black" d="M290.66,-636.37C261.22,-628.92 227.09,-615.83 203.5,-593 166.37,-557.07 188.06,-528.7 160.5,-485 154.15,-474.94 145.78,-465.05 137.75,-456.59"/>
<polygon fill="black" stroke="black" points="140.04,-453.93 130.54,-449.26 135.05,-458.84 140.04,-453.93"/>
</g>
<!-- gridstatevector_mod -->
<g id="node5" class="node">
<title>gridstatevector_mod</title>
<g id="a_node5"><a xlink:href="../modules/gridstatevector_mod.svg" xlink:title="gridstatevector_mod">
<polygon fill="none" stroke="red" points="227,-377 100,-377 100,-341 227,-341 227,-377"/>
<text text-anchor="middle" x="163.5" y="-355.3" font-family="Times,serif" font-size="14.00">gridstatevector_mod</text>
</a>
</g>
</g>
<!-- midas_randompert&#45;&gt;gridstatevector_mod -->
<g id="edge4" class="edge">
<title>midas_randompert&#45;&gt;gridstatevector_mod</title>
<path fill="none" stroke="black" d="M292.56,-628.94C273.85,-620.81 254.58,-609.21 241.5,-593 189.78,-528.91 229.95,-488.69 197.5,-413 193.47,-403.6 187.85,-394 182.33,-385.59"/>
<polygon fill="black" stroke="black" points="185.22,-383.62 176.7,-377.33 179.44,-387.56 185.22,-383.62"/>
</g>
<!-- gridvariabletransforms_mod -->
<g id="node6" class="node">
<title>gridvariabletransforms_mod</title>
<g id="a_node6"><a xlink:href="../modules/gridvariabletransforms_mod.svg" xlink:title="gridvariabletransforms_mod">
<polygon fill="none" stroke="red" points="265.5,-305 95.5,-305 95.5,-269 265.5,-269 265.5,-305"/>
<text text-anchor="middle" x="180.5" y="-283.3" font-family="Times,serif" font-size="14.00">gridvariabletransforms_mod</text>
</a>
</g>
</g>
<!-- midas_randompert&#45;&gt;gridvariabletransforms_mod -->
<g id="edge5" class="edge">
<title>midas_randompert&#45;&gt;gridvariabletransforms_mod</title>
<path fill="none" stroke="black" d="M318.65,-628.8C304.77,-619.82 289.44,-607.63 279.5,-593 256.49,-559.11 255.5,-544.97 255.5,-504 255.5,-504 255.5,-504 255.5,-430 255.5,-389.46 255.38,-376.33 235.5,-341 229.35,-330.08 220.25,-319.99 211.2,-311.62"/>
<polygon fill="black" stroke="black" points="213.51,-308.98 203.69,-305.01 208.88,-314.24 213.51,-308.98"/>
</g>
<!-- horizontalcoord_mod -->
<g id="node7" class="node">
<title>horizontalcoord_mod</title>
<g id="a_node7"><a xlink:href="../modules/horizontalcoord_mod.svg" xlink:title="horizontalcoord_mod">
<polygon fill="none" stroke="red" points="303,-233 170,-233 170,-197 303,-197 303,-233"/>
<text text-anchor="middle" x="236.5" y="-211.3" font-family="Times,serif" font-size="14.00">horizontalcoord_mod</text>
</a>
</g>
</g>
<!-- midas_randompert&#45;&gt;horizontalcoord_mod -->
<g id="edge6" class="edge">
<title>midas_randompert&#45;&gt;horizontalcoord_mod</title>
<path fill="none" stroke="black" d="M337.83,-628.57C331.03,-618.56 322.95,-605.52 317.5,-593 301.16,-555.43 293.5,-544.97 293.5,-504 293.5,-504 293.5,-504 293.5,-358 293.5,-317.55 290.85,-305.99 274.5,-269 270.17,-259.21 263.86,-249.43 257.62,-240.98"/>
<polygon fill="black" stroke="black" points="260.36,-238.8 251.48,-233.03 254.82,-243.08 260.36,-238.8"/>
</g>
<!-- interpolation_mod -->
<g id="node8" class="node">
<title>interpolation_mod</title>
<g id="a_node8"><a xlink:href="../modules/interpolation_mod.svg" xlink:title="interpolation_mod">
<polygon fill="none" stroke="red" points="341.5,-161 225.5,-161 225.5,-125 341.5,-125 341.5,-161"/>
<text text-anchor="middle" x="283.5" y="-139.3" font-family="Times,serif" font-size="14.00">interpolation_mod</text>
</a>
</g>
</g>
<!-- midas_randompert&#45;&gt;interpolation_mod -->
<g id="edge7" class="edge">
<title>midas_randompert&#45;&gt;interpolation_mod</title>
<path fill="none" stroke="black" d="M346.66,-628.61C341.1,-601.94 331.5,-549.27 331.5,-504 331.5,-504 331.5,-504 331.5,-286 331.5,-245.46 325.54,-235.03 311.5,-197 308.15,-187.92 303.54,-178.44 299.02,-170.06"/>
<polygon fill="black" stroke="black" points="301.97,-168.15 294.04,-161.13 295.86,-171.57 301.97,-168.15"/>
</g>
<!-- midasmpi_mod -->
<g id="node9" class="node">
<title>midasmpi_mod</title>
<g id="a_node9"><a xlink:href="../modules/midasmpi_mod.svg" xlink:title="midasmpi_mod">
<polygon fill="none" stroke="red" points="420,-89 319,-89 319,-53 420,-53 420,-89"/>
<text text-anchor="middle" x="369.5" y="-67.3" font-family="Times,serif" font-size="14.00">midasmpi_mod</text>
</a>
</g>
</g>
<!-- midas_randompert&#45;&gt;midasmpi_mod -->
<g id="edge8" class="edge">
<title>midas_randompert&#45;&gt;midasmpi_mod</title>
<path fill="none" stroke="black" d="M354.34,-628.61C359.9,-601.94 369.5,-549.27 369.5,-504 369.5,-504 369.5,-504 369.5,-214 369.5,-174 369.5,-127.65 369.5,-99.08"/>
<polygon fill="black" stroke="black" points="373,-99.05 369.5,-89.05 366,-99.05 373,-99.05"/>
</g>
<!-- ramdisk_mod -->
<g id="node10" class="node">
<title>ramdisk_mod</title>
<g id="a_node10"><a xlink:href="../modules/ramdisk_mod.svg" xlink:title="ramdisk_mod">
<polygon fill="none" stroke="red" points="489,-593 398,-593 398,-557 489,-557 489,-593"/>
<text text-anchor="middle" x="443.5" y="-571.3" font-family="Times,serif" font-size="14.00">ramdisk_mod</text>
</a>
</g>
</g>
<!-- midas_randompert&#45;&gt;ramdisk_mod -->
<g id="edge9" class="edge">
<title>midas_randompert&#45;&gt;ramdisk_mod</title>
<path fill="none" stroke="black" d="M373.49,-628.7C385.31,-619.8 399.89,-608.82 412.68,-599.2"/>
<polygon fill="black" stroke="black" points="414.89,-601.91 420.78,-593.1 410.68,-596.32 414.89,-601.91"/>
</g>
<!-- randomnumber_mod -->
<g id="node11" class="node">
<title>randomnumber_mod</title>
<g id="a_node11"><a xlink:href="../modules/randomnumber_mod.html" xlink:title="randomnumber_mod">
<polygon fill="gray" stroke="black" points="529,-521 398,-521 398,-485 529,-485 529,-521"/>
<text text-anchor="middle" x="463.5" y="-499.3" font-family="Times,serif" font-size="14.00">randomnumber_mod</text>
</a>
</g>
</g>
<!-- midas_randompert&#45;&gt;randomnumber_mod -->
<g id="edge10" class="edge">
<title>midas_randompert&#45;&gt;randomnumber_mod</title>
<path fill="none" stroke="black" d="M410.15,-640.59C441.65,-634.35 477.77,-621.08 497.5,-593 511.1,-573.63 498.88,-548.11 485.45,-529.37"/>
<polygon fill="black" stroke="black" points="488.13,-527.11 479.28,-521.28 482.56,-531.35 488.13,-527.11"/>
</g>
<!-- timecoord_mod -->
<g id="node12" class="node">
<title>timecoord_mod</title>
<g id="a_node12"><a xlink:href="../modules/timecoord_mod.svg" xlink:title="timecoord_mod">
<polygon fill="none" stroke="red" points="567.5,-449 465.5,-449 465.5,-413 567.5,-413 567.5,-449"/>
<text text-anchor="middle" x="516.5" y="-427.3" font-family="Times,serif" font-size="14.00">timecoord_mod</text>
</a>
</g>
</g>
<!-- midas_randompert&#45;&gt;timecoord_mod -->
<g id="edge11" class="edge">
<title>midas_randompert&#45;&gt;timecoord_mod</title>
<path fill="none" stroke="black" d="M410.22,-640.22C444.86,-633.89 486.94,-620.66 514.5,-593 549.14,-558.24 546.7,-533.21 537.5,-485 535.79,-476.06 532.6,-466.7 529.21,-458.37"/>
<polygon fill="black" stroke="black" points="532.41,-456.95 525.22,-449.17 525.99,-459.73 532.41,-456.95"/>
</g>
<!-- utilities_mod -->
<g id="node13" class="node">
<title>utilities_mod</title>
<g id="a_node13"><a xlink:href="../modules/utilities_mod.svg" xlink:title="utilities_mod">
<polygon fill="none" stroke="red" points="622.5,-377 534.5,-377 534.5,-341 622.5,-341 622.5,-377"/>
<text text-anchor="middle" x="578.5" y="-355.3" font-family="Times,serif" font-size="14.00">utilities_mod</text>
</a>
</g>
</g>
<!-- midas_randompert&#45;&gt;utilities_mod -->
<g id="edge12" class="edge">
<title>midas_randompert&#45;&gt;utilities_mod</title>
<path fill="none" stroke="black" d="M410.17,-644.72C452.46,-640.57 507.51,-628.11 541.5,-593 595.67,-537.06 589.79,-435.7 583.17,-387.23"/>
<polygon fill="black" stroke="black" points="586.61,-386.57 581.68,-377.19 579.69,-387.59 586.61,-386.57"/>
</g>
<!-- version_mod -->
<g id="node14" class="node">
<title>version_mod</title>
<g id="a_node14"><a xlink:href="../modules/version_mod.html" xlink:title="version_mod">
<polygon fill="gray" stroke="black" points="693.5,-305 607.5,-305 607.5,-269 693.5,-269 693.5,-305"/>
<text text-anchor="middle" x="650.5" y="-283.3" font-family="Times,serif" font-size="14.00">version_mod</text>
</a>
</g>
</g>
<!-- midas_randompert&#45;&gt;version_mod -->
<g id="edge13" class="edge">
<title>midas_randompert&#45;&gt;version_mod</title>
<path fill="none" stroke="black" d="M410.13,-643.64C497.62,-636.63 650.5,-609.31 650.5,-504 650.5,-504 650.5,-504 650.5,-430 650.5,-390 650.5,-343.65 650.5,-315.08"/>
<polygon fill="black" stroke="black" points="654,-315.05 650.5,-305.05 647,-315.05 654,-315.05"/>
</g>
<!-- verticalcoord_mod -->
<g id="node15" class="node">
<title>verticalcoord_mod</title>
<g id="a_node15"><a xlink:href="../modules/verticalcoord_mod.svg" xlink:title="verticalcoord_mod">
<polygon fill="none" stroke="red" points="780.5,-233 662.5,-233 662.5,-197 780.5,-197 780.5,-233"/>
<text text-anchor="middle" x="721.5" y="-211.3" font-family="Times,serif" font-size="14.00">verticalcoord_mod</text>
</a>
</g>
</g>
<!-- midas_randompert&#45;&gt;verticalcoord_mod -->
<g id="edge14" class="edge">
<title>midas_randompert&#45;&gt;verticalcoord_mod</title>
<path fill="none" stroke="black" d="M410.01,-644.78C469.27,-641.34 561.27,-629.84 631.5,-593 681.32,-566.87 721.5,-560.26 721.5,-504 721.5,-504 721.5,-504 721.5,-358 721.5,-318 721.5,-271.65 721.5,-243.08"/>
<polygon fill="black" stroke="black" points="725,-243.05 721.5,-233.05 718,-243.05 725,-243.05"/>
</g>
</g>
</svg>
