<?xml version="1.0" encoding="UTF-8" standalone="no"?>
<!DOCTYPE svg PUBLIC "-//W3C//DTD SVG 1.1//EN"
 "http://www.w3.org/Graphics/SVG/1.1/DTD/svg11.dtd">
<!-- Generated by graphviz version 3.0.0 (20220315.2325)
 -->
<!-- Title: midas_obsselection Pages: 1 -->
<svg width="1411pt" height="673pt"
 viewBox="0.00 0.00 1410.50 673.00" xmlns="http://www.w3.org/2000/svg" xmlns:xlink="http://www.w3.org/1999/xlink">
<g id="graph0" class="graph" transform="scale(1 1) rotate(0) translate(4 669)">
<title>midas_obsselection</title>
<polygon fill="white" stroke="transparent" points="-4,4 -4,-669 1406.5,-669 1406.5,4 -4,4"/>
<text text-anchor="middle" x="701.25" y="-37.8" font-family="Times,serif" font-size="14.00">Red boxes indicate modules with dependencies not shown</text>
<text text-anchor="middle" x="701.25" y="-22.8" font-family="Times,serif" font-size="14.00">Lower level dependencies can be shown by clicking on a red box</text>
<text text-anchor="middle" x="701.25" y="-7.8" font-family="Times,serif" font-size="14.00">Shaded boxes indicate modules with no dependencies</text>
<!-- midas_obsselection -->
<g id="node1" class="node">
<title>midas_obsselection</title>
<g id="a_node1"><a xlink:href="midas_obsselection.html" xlink:title="midas_obsselection">
<polygon fill="none" stroke="black" points="786,-665 663,-665 663,-629 786,-629 786,-665"/>
<text text-anchor="middle" x="724.5" y="-643.3" font-family="Times,serif" font-size="14.00">midas_obsselection</text>
</a>
</g>
</g>
<!-- backgroundcheck_mod -->
<g id="node2" class="node">
<title>backgroundcheck_mod</title>
<g id="a_node2"><a xlink:href="../modules/backgroundcheck_mod.svg" xlink:title="backgroundcheck_mod">
<polygon fill="none" stroke="red" points="143,-593 0,-593 0,-557 143,-557 143,-593"/>
<text text-anchor="middle" x="71.5" y="-571.3" font-family="Times,serif" font-size="14.00">backgroundcheck_mod</text>
</a>
</g>
</g>
<!-- midas_obsselection&#45;&gt;backgroundcheck_mod -->
<g id="edge1" class="edge">
<title>midas_obsselection&#45;&gt;backgroundcheck_mod</title>
<path fill="none" stroke="black" d="M662.59,-642.29C558.09,-635.56 340.22,-619.53 157.5,-593 156.04,-592.79 154.57,-592.57 153.09,-592.34"/>
<polygon fill="black" stroke="black" points="153.63,-588.88 143.2,-590.74 152.51,-595.79 153.63,-588.88"/>
</g>
<!-- bgckcsr_mod -->
<g id="node3" class="node">
<title>bgckcsr_mod</title>
<g id="a_node3"><a xlink:href="../modules/bgckcsr_mod.svg" xlink:title="bgckcsr_mod">
<polygon fill="none" stroke="red" points="199,-521 110,-521 110,-485 199,-485 199,-521"/>
<text text-anchor="middle" x="154.5" y="-499.3" font-family="Times,serif" font-size="14.00">bgckcsr_mod</text>
</a>
</g>
</g>
<!-- midas_obsselection&#45;&gt;bgckcsr_mod -->
<g id="edge2" class="edge">
<title>midas_obsselection&#45;&gt;bgckcsr_mod</title>
<path fill="none" stroke="black" d="M662.58,-646.07C543.46,-645.16 287.61,-637.86 213.5,-593 189.95,-578.74 173.87,-551.08 164.52,-530.37"/>
<polygon fill="black" stroke="black" points="167.72,-528.95 160.58,-521.12 161.28,-531.7 167.72,-528.95"/>
</g>
<!-- bgckmicrowave_mod -->
<g id="node4" class="node">
<title>bgckmicrowave_mod</title>
<g id="a_node4"><a xlink:href="../modules/bgckmicrowave_mod.svg" xlink:title="bgckmicrowave_mod">
<polygon fill="none" stroke="red" points="237.5,-449 103.5,-449 103.5,-413 237.5,-413 237.5,-449"/>
<text text-anchor="middle" x="170.5" y="-427.3" font-family="Times,serif" font-size="14.00">bgckmicrowave_mod</text>
</a>
</g>
</g>
<!-- midas_obsselection&#45;&gt;bgckmicrowave_mod -->
<g id="edge3" class="edge">
<title>midas_obsselection&#45;&gt;bgckmicrowave_mod</title>
<path fill="none" stroke="black" d="M662.9,-646.69C549.8,-646.76 314.84,-640.93 251.5,-593 210.17,-561.73 232.27,-530.53 207.5,-485 202.35,-475.54 195.86,-465.72 189.76,-457.14"/>
<polygon fill="black" stroke="black" points="192.57,-455.06 183.85,-449.04 186.92,-459.18 192.57,-455.06"/>
</g>
<!-- bgckocean_mod -->
<g id="node5" class="node">
<title>bgckocean_mod</title>
<g id="a_node5"><a xlink:href="../modules/bgckocean_mod.svg" xlink:title="bgckocean_mod">
<polygon fill="none" stroke="red" points="275,-377 170,-377 170,-341 275,-341 275,-377"/>
<text text-anchor="middle" x="222.5" y="-355.3" font-family="Times,serif" font-size="14.00">bgckocean_mod</text>
</a>
</g>
</g>
<!-- midas_obsselection&#45;&gt;bgckocean_mod -->
<g id="edge4" class="edge">
<title>midas_obsselection&#45;&gt;bgckocean_mod</title>
<path fill="none" stroke="black" d="M663,-646.85C556.36,-647 343.35,-641.07 289.5,-593 228.14,-538.22 273.14,-490.82 246.5,-413 243.49,-404.21 239.54,-394.89 235.72,-386.56"/>
<polygon fill="black" stroke="black" points="238.8,-384.87 231.36,-377.33 232.47,-387.86 238.8,-384.87"/>
</g>
<!-- bgckssmis_mod -->
<g id="node6" class="node">
<title>bgckssmis_mod</title>
<g id="a_node6"><a xlink:href="../modules/bgckssmis_mod.svg" xlink:title="bgckssmis_mod">
<polygon fill="none" stroke="red" points="313.5,-305 209.5,-305 209.5,-269 313.5,-269 313.5,-305"/>
<text text-anchor="middle" x="261.5" y="-283.3" font-family="Times,serif" font-size="14.00">bgckssmis_mod</text>
</a>
</g>
</g>
<!-- midas_obsselection&#45;&gt;bgckssmis_mod -->
<g id="edge5" class="edge">
<title>midas_obsselection&#45;&gt;bgckssmis_mod</title>
<path fill="none" stroke="black" d="M662.99,-645.85C564.16,-644.32 376.18,-635.7 327.5,-593 296.7,-565.98 303.5,-544.97 303.5,-504 303.5,-504 303.5,-504 303.5,-430 303.5,-388.15 286.51,-342.1 274.15,-314.11"/>
<polygon fill="black" stroke="black" points="277.33,-312.66 270,-305.01 270.96,-315.56 277.33,-312.66"/>
</g>
<!-- biascorrectionconv_mod -->
<g id="node7" class="node">
<title>biascorrectionconv_mod</title>
<g id="a_node7"><a xlink:href="../modules/biascorrectionconv_mod.svg" xlink:title="biascorrectionconv_mod">
<polygon fill="none" stroke="red" points="351.5,-233 201.5,-233 201.5,-197 351.5,-197 351.5,-233"/>
<text text-anchor="middle" x="276.5" y="-211.3" font-family="Times,serif" font-size="14.00">biascorrectionconv_mod</text>
</a>
</g>
</g>
<!-- midas_obsselection&#45;&gt;biascorrectionconv_mod -->
<g id="edge6" class="edge">
<title>midas_obsselection&#45;&gt;biascorrectionconv_mod</title>
<path fill="none" stroke="black" d="M662.96,-644.84C572.16,-641.85 408.4,-631.16 365.5,-593 334.89,-565.77 341.5,-544.97 341.5,-504 341.5,-504 341.5,-504 341.5,-358 341.5,-317.55 340.55,-305.2 322.5,-269 317.47,-258.92 310.08,-249.21 302.68,-240.91"/>
<polygon fill="black" stroke="black" points="305.06,-238.33 295.66,-233.43 299.95,-243.12 305.06,-238.33"/>
</g>
<!-- biascorrectionsat_mod -->
<g id="node8" class="node">
<title>biascorrectionsat_mod</title>
<g id="a_node8"><a xlink:href="../modules/biascorrectionsat_mod.svg" xlink:title="biascorrectionsat_mod">
<polygon fill="none" stroke="red" points="389,-161 250,-161 250,-125 389,-125 389,-161"/>
<text text-anchor="middle" x="319.5" y="-139.3" font-family="Times,serif" font-size="14.00">biascorrectionsat_mod</text>
</a>
</g>
</g>
<!-- midas_obsselection&#45;&gt;biascorrectionsat_mod -->
<g id="edge7" class="edge">
<title>midas_obsselection&#45;&gt;biascorrectionsat_mod</title>
<path fill="none" stroke="black" d="M662.95,-643.59C580.62,-639.11 440.67,-626.64 403.5,-593 373.12,-565.51 379.5,-544.97 379.5,-504 379.5,-504 379.5,-504 379.5,-286 379.5,-245.55 377.52,-233.69 360.5,-197 355.95,-187.19 349.29,-177.51 342.66,-169.16"/>
<polygon fill="black" stroke="black" points="345.21,-166.75 336.12,-161.3 339.83,-171.23 345.21,-166.75"/>
</g>
<!-- codeprecision_mod -->
<g id="node9" class="node">
<title>codeprecision_mod</title>
<g id="a_node9"><a xlink:href="../modules/codeprecision_mod.html" xlink:title="codeprecision_mod">
<polygon fill="gray" stroke="black" points="478.5,-89 356.5,-89 356.5,-53 478.5,-53 478.5,-89"/>
<text text-anchor="middle" x="417.5" y="-67.3" font-family="Times,serif" font-size="14.00">codeprecision_mod</text>
</a>
</g>
</g>
<!-- midas_obsselection&#45;&gt;codeprecision_mod -->
<g id="edge8" class="edge">
<title>midas_obsselection&#45;&gt;codeprecision_mod</title>
<path fill="none" stroke="black" d="M662.75,-642.22C588.82,-636.41 470.99,-622.7 439.5,-593 409.86,-565.04 417.5,-544.75 417.5,-504 417.5,-504 417.5,-504 417.5,-214 417.5,-174 417.5,-127.65 417.5,-99.08"/>
<polygon fill="black" stroke="black" points="421,-99.05 417.5,-89.05 414,-99.05 421,-99.05"/>
</g>
<!-- columndata_mod -->
<g id="node10" class="node">
<title>columndata_mod</title>
<g id="a_node10"><a xlink:href="../modules/columndata_mod.svg" xlink:title="columndata_mod">
<polygon fill="none" stroke="red" points="560,-593 449,-593 449,-557 560,-557 560,-593"/>
<text text-anchor="middle" x="504.5" y="-571.3" font-family="Times,serif" font-size="14.00">columndata_mod</text>
</a>
</g>
</g>
<!-- midas_obsselection&#45;&gt;columndata_mod -->
<g id="edge9" class="edge">
<title>midas_obsselection&#45;&gt;columndata_mod</title>
<path fill="none" stroke="black" d="M670.96,-628.97C639.96,-619.1 600.74,-606.62 568.16,-596.25"/>
<polygon fill="black" stroke="black" points="568.87,-592.81 558.28,-593.11 566.74,-599.48 568.87,-592.81"/>
</g>
<!-- gridstatevectorfileio_mod -->
<g id="node11" class="node">
<title>gridstatevectorfileio_mod</title>
<g id="a_node11"><a xlink:href="../modules/gridstatevectorfileio_mod.svg" xlink:title="gridstatevectorfileio_mod">
<polygon fill="none" stroke="red" points="601,-521 446,-521 446,-485 601,-485 601,-521"/>
<text text-anchor="middle" x="523.5" y="-499.3" font-family="Times,serif" font-size="14.00">gridstatevectorfileio_mod</text>
</a>
</g>
</g>
<!-- midas_obsselection&#45;&gt;gridstatevectorfileio_mod -->
<g id="edge10" class="edge">
<title>midas_obsselection&#45;&gt;gridstatevectorfileio_mod</title>
<path fill="none" stroke="black" d="M681.62,-628.93C660.8,-619.72 635.93,-607.3 615.5,-593 588.78,-574.3 562.45,-547.78 544.86,-528.56"/>
<polygon fill="black" stroke="black" points="547.4,-526.16 538.1,-521.07 542.2,-530.84 547.4,-526.16"/>
</g>
<!-- gridstatevector_mod -->
<g id="node12" class="node">
<title>gridstatevector_mod</title>
<g id="a_node12"><a xlink:href="../modules/gridstatevector_mod.svg" xlink:title="gridstatevector_mod">
<polygon fill="none" stroke="red" points="639,-449 512,-449 512,-413 639,-413 639,-449"/>
<text text-anchor="middle" x="575.5" y="-427.3" font-family="Times,serif" font-size="14.00">gridstatevector_mod</text>
</a>
</g>
</g>
<!-- midas_obsselection&#45;&gt;gridstatevector_mod -->
<g id="edge11" class="edge">
<title>midas_obsselection&#45;&gt;gridstatevector_mod</title>
<path fill="none" stroke="black" d="M694.53,-628.92C680.56,-619.74 664.6,-607.36 653.5,-593 621.79,-552 633.37,-531.01 609.5,-485 604.72,-475.78 598.8,-466.11 593.25,-457.58"/>
<polygon fill="black" stroke="black" points="596.12,-455.57 587.67,-449.18 590.29,-459.45 596.12,-455.57"/>
</g>
<!-- horizontalcoord_mod -->
<g id="node13" class="node">
<title>horizontalcoord_mod</title>
<g id="a_node13"><a xlink:href="../modules/horizontalcoord_mod.svg" xlink:title="horizontalcoord_mod">
<polygon fill="none" stroke="red" points="677,-377 544,-377 544,-341 677,-341 677,-377"/>
<text text-anchor="middle" x="610.5" y="-355.3" font-family="Times,serif" font-size="14.00">horizontalcoord_mod</text>
</a>
</g>
</g>
<!-- midas_obsselection&#45;&gt;horizontalcoord_mod -->
<g id="edge12" class="edge">
<title>midas_obsselection&#45;&gt;horizontalcoord_mod</title>
<path fill="none" stroke="black" d="M711.71,-628.62C704.87,-618.62 696.8,-605.59 691.5,-593 659.56,-517.09 681.43,-488.04 647.5,-413 643.18,-403.44 637.07,-393.79 631.07,-385.39"/>
<polygon fill="black" stroke="black" points="633.71,-383.08 624.93,-377.15 628.1,-387.26 633.71,-383.08"/>
</g>
<!-- innovation_mod -->
<g id="node14" class="node">
<title>innovation_mod</title>
<g id="a_node14"><a xlink:href="../modules/innovation_mod.svg" xlink:title="innovation_mod">
<polygon fill="none" stroke="red" points="715.5,-305 611.5,-305 611.5,-269 715.5,-269 715.5,-305"/>
<text text-anchor="middle" x="663.5" y="-283.3" font-family="Times,serif" font-size="14.00">innovation_mod</text>
</a>
</g>
</g>
<!-- midas_obsselection&#45;&gt;innovation_mod -->
<g id="edge13" class="edge">
<title>midas_obsselection&#45;&gt;innovation_mod</title>
<path fill="none" stroke="black" d="M720.66,-628.61C715.1,-601.94 705.5,-549.27 705.5,-504 705.5,-504 705.5,-504 705.5,-430 705.5,-388.15 688.51,-342.1 676.15,-314.11"/>
<polygon fill="black" stroke="black" points="679.33,-312.66 672,-305.01 672.96,-315.56 679.33,-312.66"/>
</g>
<!-- mathphysconstants_mod -->
<g id="node15" class="node">
<title>mathphysconstants_mod</title>
<g id="a_node15"><a xlink:href="../modules/mathphysconstants_mod.html" xlink:title="mathphysconstants_mod">
<polygon fill="gray" stroke="black" points="753.5,-233 603.5,-233 603.5,-197 753.5,-197 753.5,-233"/>
<text text-anchor="middle" x="678.5" y="-211.3" font-family="Times,serif" font-size="14.00">mathphysconstants_mod</text>
</a>
</g>
</g>
<!-- midas_obsselection&#45;&gt;mathphysconstants_mod -->
<g id="edge14" class="edge">
<title>midas_obsselection&#45;&gt;mathphysconstants_mod</title>
<path fill="none" stroke="black" d="M728.34,-628.61C733.9,-601.94 743.5,-549.27 743.5,-504 743.5,-504 743.5,-504 743.5,-358 743.5,-317.55 742.55,-305.2 724.5,-269 719.47,-258.92 712.08,-249.21 704.68,-240.91"/>
<polygon fill="black" stroke="black" points="707.06,-238.33 697.66,-233.43 701.95,-243.12 707.06,-238.33"/>
</g>
<!-- midasmpi_mod -->
<g id="node16" class="node">
<title>midasmpi_mod</title>
<g id="a_node16"><a xlink:href="../modules/midasmpi_mod.svg" xlink:title="midasmpi_mod">
<polygon fill="none" stroke="red" points="791,-161 690,-161 690,-125 791,-125 791,-161"/>
<text text-anchor="middle" x="740.5" y="-139.3" font-family="Times,serif" font-size="14.00">midasmpi_mod</text>
</a>
</g>
</g>
<!-- midas_obsselection&#45;&gt;midasmpi_mod -->
<g id="edge15" class="edge">
<title>midas_obsselection&#45;&gt;midasmpi_mod</title>
<path fill="none" stroke="black" d="M736.31,-628.96C753.01,-603.16 781.5,-552.08 781.5,-504 781.5,-504 781.5,-504 781.5,-286 781.5,-244.41 765.06,-198.56 753,-170.51"/>
<polygon fill="black" stroke="black" points="756.05,-168.75 748.8,-161.03 749.65,-171.59 756.05,-168.75"/>
</g>
<!-- multi_ir_bgck_mod -->
<g id="node17" class="node">
<title>multi_ir_bgck_mod</title>
<g id="a_node17"><a xlink:href="../modules/multi_ir_bgck_mod.svg" xlink:title="multi_ir_bgck_mod">
<polygon fill="none" stroke="red" points="882,-89 757,-89 757,-53 882,-53 882,-89"/>
<text text-anchor="middle" x="819.5" y="-67.3" font-family="Times,serif" font-size="14.00">multi_ir_bgck_mod</text>
</a>
</g>
</g>
<!-- midas_obsselection&#45;&gt;multi_ir_bgck_mod -->
<g id="edge16" class="edge">
<title>midas_obsselection&#45;&gt;multi_ir_bgck_mod</title>
<path fill="none" stroke="black" d="M746.06,-628.78C774.09,-604.28 819.5,-556.5 819.5,-504 819.5,-504 819.5,-504 819.5,-214 819.5,-174 819.5,-127.65 819.5,-99.08"/>
<polygon fill="black" stroke="black" points="823,-99.05 819.5,-89.05 816,-99.05 823,-99.05"/>
</g>
<!-- obserrors_mod -->
<g id="node18" class="node">
<title>obserrors_mod</title>
<g id="a_node18"><a xlink:href="../modules/obserrors_mod.svg" xlink:title="obserrors_mod">
<polygon fill="none" stroke="red" points="945.5,-593 847.5,-593 847.5,-557 945.5,-557 945.5,-593"/>
<text text-anchor="middle" x="896.5" y="-571.3" font-family="Times,serif" font-size="14.00">obserrors_mod</text>
</a>
</g>
</g>
<!-- midas_obsselection&#45;&gt;obserrors_mod -->
<g id="edge17" class="edge">
<title>midas_obsselection&#45;&gt;obserrors_mod</title>
<path fill="none" stroke="black" d="M766.58,-628.88C790.3,-619.22 820.12,-607.09 845.2,-596.88"/>
<polygon fill="black" stroke="black" points="846.62,-600.08 854.56,-593.07 843.98,-593.6 846.62,-600.08"/>
</g>
<!-- obsfiles_mod -->
<g id="node19" class="node">
<title>obsfiles_mod</title>
<g id="a_node19"><a xlink:href="../modules/obsfiles_mod.svg" xlink:title="obsfiles_mod">
<polygon fill="none" stroke="red" points="983,-521 894,-521 894,-485 983,-485 983,-521"/>
<text text-anchor="middle" x="938.5" y="-499.3" font-family="Times,serif" font-size="14.00">obsfiles_mod</text>
</a>
</g>
</g>
<!-- midas_obsselection&#45;&gt;obsfiles_mod -->
<g id="edge18" class="edge">
<title>midas_obsselection&#45;&gt;obsfiles_mod</title>
<path fill="none" stroke="black" d="M786.12,-640.35C846.95,-633.34 933.8,-619.01 954.5,-593 968.55,-575.35 961.78,-549.46 953.14,-530.16"/>
<polygon fill="black" stroke="black" points="956.21,-528.47 948.69,-521 949.92,-531.53 956.21,-528.47"/>
</g>
<!-- obsspacedata_mod -->
<g id="node20" class="node">
<title>obsspacedata_mod</title>
<g id="a_node20"><a xlink:href="../modules/obsspacedata_mod.svg" xlink:title="obsspacedata_mod">
<polygon fill="none" stroke="red" points="1021.5,-449 903.5,-449 903.5,-413 1021.5,-413 1021.5,-449"/>
<text text-anchor="middle" x="962.5" y="-427.3" font-family="Times,serif" font-size="14.00">obsspacedata_mod</text>
</a>
</g>
</g>
<!-- midas_obsselection&#45;&gt;obsspacedata_mod -->
<g id="edge19" class="edge">
<title>midas_obsselection&#45;&gt;obsspacedata_mod</title>
<path fill="none" stroke="black" d="M786.28,-640.3C851.12,-633.07 947.23,-618.36 973.5,-593 1008.51,-559.2 1003.55,-532.15 991.5,-485 989.12,-475.7 984.74,-466.27 980.08,-458"/>
<polygon fill="black" stroke="black" points="982.96,-455.99 974.81,-449.22 976.96,-459.59 982.96,-455.99"/>
</g>
<!-- ramdisk_mod -->
<g id="node21" class="node">
<title>ramdisk_mod</title>
<g id="a_node21"><a xlink:href="../modules/ramdisk_mod.svg" xlink:title="ramdisk_mod">
<polygon fill="none" stroke="red" points="1059,-377 968,-377 968,-341 1059,-341 1059,-377"/>
<text text-anchor="middle" x="1013.5" y="-355.3" font-family="Times,serif" font-size="14.00">ramdisk_mod</text>
</a>
</g>
</g>
<!-- midas_obsselection&#45;&gt;ramdisk_mod -->
<g id="edge20" class="edge">
<title>midas_obsselection&#45;&gt;ramdisk_mod</title>
<path fill="none" stroke="black" d="M786.12,-641.91C857.73,-635.87 969.87,-621.99 999.5,-593 1057.52,-536.22 1043.05,-493.2 1030.5,-413 1029.14,-404.31 1026.6,-395.1 1023.89,-386.84"/>
<polygon fill="black" stroke="black" points="1027.17,-385.62 1020.57,-377.33 1020.56,-387.93 1027.17,-385.62"/>
</g>
<!-- sstbias_mod -->
<g id="node22" class="node">
<title>sstbias_mod</title>
<g id="a_node22"><a xlink:href="../modules/sstbias_mod.svg" xlink:title="sstbias_mod">
<polygon fill="none" stroke="red" points="1097,-305 1014,-305 1014,-269 1097,-269 1097,-305"/>
<text text-anchor="middle" x="1055.5" y="-283.3" font-family="Times,serif" font-size="14.00">sstbias_mod</text>
</a>
</g>
</g>
<!-- midas_obsselection&#45;&gt;sstbias_mod -->
<g id="edge21" class="edge">
<title>midas_obsselection&#45;&gt;sstbias_mod</title>
<path fill="none" stroke="black" d="M786.28,-640.82C862.76,-633.45 987.67,-617.99 1026.5,-593 1066.83,-567.05 1087.5,-551.95 1087.5,-504 1087.5,-504 1087.5,-504 1087.5,-430 1087.5,-389.04 1074.67,-343.02 1065.26,-314.77"/>
<polygon fill="black" stroke="black" points="1068.53,-313.53 1061.98,-305.21 1061.91,-315.8 1068.53,-313.53"/>
</g>
<!-- thinning_mod -->
<g id="node23" class="node">
<title>thinning_mod</title>
<g id="a_node23"><a xlink:href="../modules/thinning_mod.svg" xlink:title="thinning_mod">
<polygon fill="none" stroke="red" points="1135.5,-233 1043.5,-233 1043.5,-197 1135.5,-197 1135.5,-233"/>
<text text-anchor="middle" x="1089.5" y="-211.3" font-family="Times,serif" font-size="14.00">thinning_mod</text>
</a>
</g>
</g>
<!-- midas_obsselection&#45;&gt;thinning_mod -->
<g id="edge22" class="edge">
<title>midas_obsselection&#45;&gt;thinning_mod</title>
<path fill="none" stroke="black" d="M786.29,-642.05C870.89,-635.69 1017.45,-620.94 1062.5,-593 1103.68,-567.46 1125.5,-552.46 1125.5,-504 1125.5,-504 1125.5,-504 1125.5,-358 1125.5,-316.78 1111.07,-270.83 1100.48,-242.66"/>
<polygon fill="black" stroke="black" points="1103.66,-241.19 1096.79,-233.13 1097.14,-243.72 1103.66,-241.19"/>
</g>
<!-- timecoord_mod -->
<g id="node24" class="node">
<title>timecoord_mod</title>
<g id="a_node24"><a xlink:href="../modules/timecoord_mod.svg" xlink:title="timecoord_mod">
<polygon fill="none" stroke="red" points="1173.5,-161 1071.5,-161 1071.5,-125 1173.5,-125 1173.5,-161"/>
<text text-anchor="middle" x="1122.5" y="-139.3" font-family="Times,serif" font-size="14.00">timecoord_mod</text>
</a>
</g>
</g>
<!-- midas_obsselection&#45;&gt;timecoord_mod -->
<g id="edge23" class="edge">
<title>midas_obsselection&#45;&gt;timecoord_mod</title>
<path fill="none" stroke="black" d="M786.03,-643.12C878.51,-637.84 1048.02,-624.13 1099.5,-593 1141.19,-567.79 1163.5,-552.72 1163.5,-504 1163.5,-504 1163.5,-504 1163.5,-286 1163.5,-244.41 1147.06,-198.56 1135,-170.51"/>
<polygon fill="black" stroke="black" points="1138.05,-168.75 1130.8,-161.03 1131.65,-171.59 1138.05,-168.75"/>
</g>
<!-- utilities_mod -->
<g id="node25" class="node">
<title>utilities_mod</title>
<g id="a_node25"><a xlink:href="../modules/utilities_mod.svg" xlink:title="utilities_mod">
<polygon fill="none" stroke="red" points="1245.5,-89 1157.5,-89 1157.5,-53 1245.5,-53 1245.5,-89"/>
<text text-anchor="middle" x="1201.5" y="-67.3" font-family="Times,serif" font-size="14.00">utilities_mod</text>
</a>
</g>
</g>
<!-- midas_obsselection&#45;&gt;utilities_mod -->
<g id="edge24" class="edge">
<title>midas_obsselection&#45;&gt;utilities_mod</title>
<path fill="none" stroke="black" d="M786.31,-643.97C886.41,-639.71 1078.61,-627.23 1136.5,-593 1178.66,-568.07 1201.5,-552.98 1201.5,-504 1201.5,-504 1201.5,-504 1201.5,-214 1201.5,-174 1201.5,-127.65 1201.5,-99.08"/>
<polygon fill="black" stroke="black" points="1205,-99.05 1201.5,-89.05 1198,-99.05 1205,-99.05"/>
</g>
<!-- version_mod -->
<g id="node26" class="node">
<title>version_mod</title>
<g id="a_node26"><a xlink:href="../modules/version_mod.html" xlink:title="version_mod">
<polygon fill="gray" stroke="black" points="1315.5,-593 1229.5,-593 1229.5,-557 1315.5,-557 1315.5,-593"/>
<text text-anchor="middle" x="1272.5" y="-571.3" font-family="Times,serif" font-size="14.00">version_mod</text>
</a>
</g>
</g>
<!-- midas_obsselection&#45;&gt;version_mod -->
<g id="edge25" class="edge">
<title>midas_obsselection&#45;&gt;version_mod</title>
<path fill="none" stroke="black" d="M786.29,-642.95C879.9,-637.52 1062.95,-623.72 1215.5,-593 1216.78,-592.74 1218.08,-592.47 1219.38,-592.18"/>
<polygon fill="black" stroke="black" points="1220.55,-595.5 1229.45,-589.74 1218.91,-588.69 1220.55,-595.5"/>
</g>
<!-- verticalcoord_mod -->
<g id="node27" class="node">
<title>verticalcoord_mod</title>
<g id="a_node27"><a xlink:href="../modules/verticalcoord_mod.svg" xlink:title="verticalcoord_mod">
<polygon fill="none" stroke="red" points="1402.5,-521 1284.5,-521 1284.5,-485 1402.5,-485 1402.5,-521"/>
<text text-anchor="middle" x="1343.5" y="-499.3" font-family="Times,serif" font-size="14.00">verticalcoord_mod</text>
</a>
</g>
</g>
<!-- midas_obsselection&#45;&gt;verticalcoord_mod -->
<g id="edge26" class="edge">
<title>midas_obsselection&#45;&gt;verticalcoord_mod</title>
<path fill="none" stroke="black" d="M786.16,-644.64C931.2,-640.87 1284.78,-628.14 1324.5,-593 1341.55,-577.91 1345.43,-551.61 1345.56,-531.5"/>
<polygon fill="black" stroke="black" points="1349.05,-531.27 1345.32,-521.36 1342.05,-531.44 1349.05,-531.27"/>
</g>
</g>
</svg>
