<?xml version="1.0" encoding="UTF-8" standalone="no"?>
<!DOCTYPE svg PUBLIC "-//W3C//DTD SVG 1.1//EN"
 "http://www.w3.org/Graphics/SVG/1.1/DTD/svg11.dtd">
<!-- Generated by graphviz version 3.0.0 (20220315.2325)
 -->
<!-- Title: midas_adjointtest Pages: 1 -->
<svg width="999pt" height="673pt"
 viewBox="0.00 0.00 998.50 673.00" xmlns="http://www.w3.org/2000/svg" xmlns:xlink="http://www.w3.org/1999/xlink">
<g id="graph0" class="graph" transform="scale(1 1) rotate(0) translate(4 669)">
<title>midas_adjointtest</title>
<polygon fill="white" stroke="transparent" points="-4,4 -4,-669 994.5,-669 994.5,4 -4,4"/>
<text text-anchor="middle" x="495.25" y="-37.8" font-family="Times,serif" font-size="14.00">Red boxes indicate modules with dependencies not shown</text>
<text text-anchor="middle" x="495.25" y="-22.8" font-family="Times,serif" font-size="14.00">Lower level dependencies can be shown by clicking on a red box</text>
<text text-anchor="middle" x="495.25" y="-7.8" font-family="Times,serif" font-size="14.00">Shaded boxes indicate modules with no dependencies</text>
<!-- midas_adjointtest -->
<g id="node1" class="node">
<title>midas_adjointtest</title>
<g id="a_node1"><a xlink:href="midas_adjointtest.html" xlink:title="midas_adjointtest">
<polygon fill="none" stroke="black" points="574,-665 461,-665 461,-629 574,-629 574,-665"/>
<text text-anchor="middle" x="517.5" y="-643.3" font-family="Times,serif" font-size="14.00">midas_adjointtest</text>
</a>
</g>
</g>
<!-- advection_mod -->
<g id="node2" class="node">
<title>advection_mod</title>
<g id="a_node2"><a xlink:href="../modules/advection_mod.svg" xlink:title="advection_mod">
<polygon fill="none" stroke="red" points="99,-593 0,-593 0,-557 99,-557 99,-593"/>
<text text-anchor="middle" x="49.5" y="-571.3" font-family="Times,serif" font-size="14.00">advection_mod</text>
</a>
</g>
</g>
<!-- midas_adjointtest&#45;&gt;advection_mod -->
<g id="edge1" class="edge">
<title>midas_adjointtest&#45;&gt;advection_mod</title>
<path fill="none" stroke="black" d="M460.92,-640.91C382.44,-633.31 236.34,-617.27 113.5,-593 112.05,-592.71 110.59,-592.42 109.12,-592.1"/>
<polygon fill="black" stroke="black" points="109.84,-588.68 99.32,-589.9 108.3,-595.51 109.84,-588.68"/>
</g>
<!-- bmatrixensemble_mod -->
<g id="node3" class="node">
<title>bmatrixensemble_mod</title>
<g id="a_node3"><a xlink:href="../modules/bmatrixensemble_mod.svg" xlink:title="bmatrixensemble_mod">
<polygon fill="none" stroke="red" points="167.5,-521 27.5,-521 27.5,-485 167.5,-485 167.5,-521"/>
<text text-anchor="middle" x="97.5" y="-499.3" font-family="Times,serif" font-size="14.00">bmatrixensemble_mod</text>
</a>
</g>
</g>
<!-- midas_adjointtest&#45;&gt;bmatrixensemble_mod -->
<g id="edge2" class="edge">
<title>midas_adjointtest&#45;&gt;bmatrixensemble_mod</title>
<path fill="none" stroke="black" d="M460.74,-641.5C377.98,-634.19 228.9,-618 181.5,-593 153.38,-578.17 129.44,-550.27 114.39,-529.65"/>
<polygon fill="black" stroke="black" points="117.13,-527.46 108.5,-521.31 111.42,-531.5 117.13,-527.46"/>
</g>
<!-- bmatrixhi_mod -->
<g id="node4" class="node">
<title>bmatrixhi_mod</title>
<g id="a_node4"><a xlink:href="../modules/bmatrixhi_mod.svg" xlink:title="bmatrixhi_mod">
<polygon fill="none" stroke="red" points="205.5,-449 105.5,-449 105.5,-413 205.5,-413 205.5,-449"/>
<text text-anchor="middle" x="155.5" y="-427.3" font-family="Times,serif" font-size="14.00">bmatrixhi_mod</text>
</a>
</g>
</g>
<!-- midas_adjointtest&#45;&gt;bmatrixhi_mod -->
<g id="edge3" class="edge">
<title>midas_adjointtest&#45;&gt;bmatrixhi_mod</title>
<path fill="none" stroke="black" d="M460.82,-642.42C384.93,-636.56 255.64,-622.48 219.5,-593 219.33,-592.86 184.14,-504.19 166.02,-458.52"/>
<polygon fill="black" stroke="black" points="169.27,-457.22 162.33,-449.21 162.76,-459.8 169.27,-457.22"/>
</g>
<!-- codeprecision_mod -->
<g id="node5" class="node">
<title>codeprecision_mod</title>
<g id="a_node5"><a xlink:href="../modules/codeprecision_mod.html" xlink:title="codeprecision_mod">
<polygon fill="gray" stroke="black" points="243.5,-377 121.5,-377 121.5,-341 243.5,-341 243.5,-377"/>
<text text-anchor="middle" x="182.5" y="-355.3" font-family="Times,serif" font-size="14.00">codeprecision_mod</text>
</a>
</g>
</g>
<!-- midas_adjointtest&#45;&gt;codeprecision_mod -->
<g id="edge4" class="edge">
<title>midas_adjointtest&#45;&gt;codeprecision_mod</title>
<path fill="none" stroke="black" d="M460.79,-641.49C393.24,-634.96 285.94,-620.5 257.5,-593 198.38,-535.82 245.68,-489.11 214.5,-413 210.73,-403.8 205.5,-394.32 200.37,-385.98"/>
<polygon fill="black" stroke="black" points="203.24,-383.97 194.9,-377.43 197.34,-387.74 203.24,-383.97"/>
</g>
<!-- ensemblestatevector_mod -->
<g id="node6" class="node">
<title>ensemblestatevector_mod</title>
<g id="a_node6"><a xlink:href="../modules/ensemblestatevector_mod.svg" xlink:title="ensemblestatevector_mod">
<polygon fill="none" stroke="red" points="281.5,-305 125.5,-305 125.5,-269 281.5,-269 281.5,-305"/>
<text text-anchor="middle" x="203.5" y="-283.3" font-family="Times,serif" font-size="14.00">ensemblestatevector_mod</text>
</a>
</g>
</g>
<!-- midas_adjointtest&#45;&gt;ensemblestatevector_mod -->
<g id="edge5" class="edge">
<title>midas_adjointtest&#45;&gt;ensemblestatevector_mod</title>
<path fill="none" stroke="black" d="M460.86,-639.12C403.1,-630.98 318.77,-615.6 295.5,-593 266.11,-564.45 271.5,-544.97 271.5,-504 271.5,-504 271.5,-504 271.5,-430 271.5,-389.55 271.12,-376.91 252.5,-341 247.11,-330.61 239.13,-320.74 231.17,-312.41"/>
<polygon fill="black" stroke="black" points="233.49,-309.78 223.94,-305.21 228.56,-314.74 233.49,-309.78"/>
</g>
<!-- gridstatevector_mod -->
<g id="node7" class="node">
<title>gridstatevector_mod</title>
<g id="a_node7"><a xlink:href="../modules/gridstatevector_mod.svg" xlink:title="gridstatevector_mod">
<polygon fill="none" stroke="red" points="319,-233 192,-233 192,-197 319,-197 319,-233"/>
<text text-anchor="middle" x="255.5" y="-211.3" font-family="Times,serif" font-size="14.00">gridstatevector_mod</text>
</a>
</g>
</g>
<!-- midas_adjointtest&#45;&gt;gridstatevector_mod -->
<g id="edge6" class="edge">
<title>midas_adjointtest&#45;&gt;gridstatevector_mod</title>
<path fill="none" stroke="black" d="M460.65,-643.9C419.96,-639.38 366.71,-626.78 333.5,-593 304.78,-563.78 309.5,-544.97 309.5,-504 309.5,-504 309.5,-504 309.5,-358 309.5,-317.55 306.14,-306.3 290.5,-269 286.51,-259.49 280.77,-249.86 275.08,-241.46"/>
<polygon fill="black" stroke="black" points="277.88,-239.36 269.25,-233.21 272.17,-243.4 277.88,-239.36"/>
</g>
<!-- gridvariabletransforms_mod -->
<g id="node8" class="node">
<title>gridvariabletransforms_mod</title>
<g id="a_node8"><a xlink:href="../modules/gridvariabletransforms_mod.svg" xlink:title="gridvariabletransforms_mod">
<polygon fill="none" stroke="red" points="357.5,-161 187.5,-161 187.5,-125 357.5,-125 357.5,-161"/>
<text text-anchor="middle" x="272.5" y="-139.3" font-family="Times,serif" font-size="14.00">gridvariabletransforms_mod</text>
</a>
</g>
</g>
<!-- midas_adjointtest&#45;&gt;gridvariabletransforms_mod -->
<g id="edge7" class="edge">
<title>midas_adjointtest&#45;&gt;gridvariabletransforms_mod</title>
<path fill="none" stroke="black" d="M460.93,-638.32C430.5,-631.36 394.58,-618.12 371.5,-593 343.79,-562.83 347.5,-544.97 347.5,-504 347.5,-504 347.5,-504 347.5,-286 347.5,-245.46 347.38,-232.33 327.5,-197 321.35,-186.08 312.25,-175.99 303.2,-167.62"/>
<polygon fill="black" stroke="black" points="305.51,-164.98 295.69,-161.01 300.88,-170.24 305.51,-164.98"/>
</g>
<!-- horizontalcoord_mod -->
<g id="node9" class="node">
<title>horizontalcoord_mod</title>
<g id="a_node9"><a xlink:href="../modules/horizontalcoord_mod.svg" xlink:title="horizontalcoord_mod">
<polygon fill="none" stroke="red" points="452,-89 319,-89 319,-53 452,-53 452,-89"/>
<text text-anchor="middle" x="385.5" y="-67.3" font-family="Times,serif" font-size="14.00">horizontalcoord_mod</text>
</a>
</g>
</g>
<!-- midas_adjointtest&#45;&gt;horizontalcoord_mod -->
<g id="edge8" class="edge">
<title>midas_adjointtest&#45;&gt;horizontalcoord_mod</title>
<path fill="none" stroke="black" d="M461,-631.14C440.41,-623.05 418.72,-610.9 404.5,-593 379.34,-561.33 385.5,-544.45 385.5,-504 385.5,-504 385.5,-504 385.5,-214 385.5,-174 385.5,-127.65 385.5,-99.08"/>
<polygon fill="black" stroke="black" points="389,-99.05 385.5,-89.05 382,-99.05 389,-99.05"/>
</g>
<!-- lambmatrixhi_mod -->
<g id="node10" class="node">
<title>lambmatrixhi_mod</title>
<g id="a_node10"><a xlink:href="../modules/lambmatrixhi_mod.svg" xlink:title="lambmatrixhi_mod">
<polygon fill="none" stroke="red" points="533.5,-593 413.5,-593 413.5,-557 533.5,-557 533.5,-593"/>
<text text-anchor="middle" x="473.5" y="-571.3" font-family="Times,serif" font-size="14.00">lambmatrixhi_mod</text>
</a>
</g>
</g>
<!-- midas_adjointtest&#45;&gt;lambmatrixhi_mod -->
<g id="edge9" class="edge">
<title>midas_adjointtest&#45;&gt;lambmatrixhi_mod</title>
<path fill="none" stroke="black" d="M506.62,-628.7C501.51,-620.56 495.3,-610.69 489.66,-601.7"/>
<polygon fill="black" stroke="black" points="492.54,-599.71 484.25,-593.1 486.61,-603.43 492.54,-599.71"/>
</g>
<!-- localization_mod -->
<g id="node11" class="node">
<title>localization_mod</title>
<g id="a_node11"><a xlink:href="../modules/localization_mod.svg" xlink:title="localization_mod">
<polygon fill="none" stroke="red" points="571.5,-521 461.5,-521 461.5,-485 571.5,-485 571.5,-521"/>
<text text-anchor="middle" x="516.5" y="-499.3" font-family="Times,serif" font-size="14.00">localization_mod</text>
</a>
</g>
</g>
<!-- midas_adjointtest&#45;&gt;localization_mod -->
<g id="edge10" class="edge">
<title>midas_adjointtest&#45;&gt;localization_mod</title>
<path fill="none" stroke="black" d="M528.13,-628.56C533.6,-618.54 539.7,-605.51 542.5,-593 546,-577.39 546.12,-572.59 542.5,-557 540.4,-547.96 536.53,-538.68 532.41,-530.47"/>
<polygon fill="black" stroke="black" points="535.36,-528.55 527.55,-521.39 529.19,-531.86 535.36,-528.55"/>
</g>
<!-- mathphysconstants_mod -->
<g id="node12" class="node">
<title>mathphysconstants_mod</title>
<g id="a_node12"><a xlink:href="../modules/mathphysconstants_mod.html" xlink:title="mathphysconstants_mod">
<polygon fill="gray" stroke="black" points="609.5,-449 459.5,-449 459.5,-413 609.5,-413 609.5,-449"/>
<text text-anchor="middle" x="534.5" y="-427.3" font-family="Times,serif" font-size="14.00">mathphysconstants_mod</text>
</a>
</g>
</g>
<!-- midas_adjointtest&#45;&gt;mathphysconstants_mod -->
<g id="edge11" class="edge">
<title>midas_adjointtest&#45;&gt;mathphysconstants_mod</title>
<path fill="none" stroke="black" d="M533.27,-628.95C541.73,-619.06 551.76,-606.02 558.5,-593 573.88,-563.28 575.56,-554.09 580.5,-521 582.86,-505.18 586.1,-499.99 580.5,-485 576.62,-474.62 569.7,-464.93 562.38,-456.74"/>
<polygon fill="black" stroke="black" points="564.77,-454.18 555.32,-449.38 559.72,-459.03 564.77,-454.18"/>
</g>
<!-- midasmpi_mod -->
<g id="node13" class="node">
<title>midasmpi_mod</title>
<g id="a_node13"><a xlink:href="../modules/midasmpi_mod.svg" xlink:title="midasmpi_mod">
<polygon fill="none" stroke="red" points="647,-377 546,-377 546,-341 647,-341 647,-377"/>
<text text-anchor="middle" x="596.5" y="-355.3" font-family="Times,serif" font-size="14.00">midasmpi_mod</text>
</a>
</g>
</g>
<!-- midas_adjointtest&#45;&gt;midasmpi_mod -->
<g id="edge12" class="edge">
<title>midas_adjointtest&#45;&gt;midasmpi_mod</title>
<path fill="none" stroke="black" d="M544.82,-628.82C557.38,-619.62 571.47,-607.25 580.5,-593 624.26,-523.93 634.48,-493.19 618.5,-413 616.71,-404.01 613.36,-394.64 609.81,-386.32"/>
<polygon fill="black" stroke="black" points="612.96,-384.77 605.63,-377.12 606.58,-387.67 612.96,-384.77"/>
</g>
<!-- ramdisk_mod -->
<g id="node14" class="node">
<title>ramdisk_mod</title>
<g id="a_node14"><a xlink:href="../modules/ramdisk_mod.svg" xlink:title="ramdisk_mod">
<polygon fill="none" stroke="red" points="685,-305 594,-305 594,-269 685,-269 685,-305"/>
<text text-anchor="middle" x="639.5" y="-283.3" font-family="Times,serif" font-size="14.00">ramdisk_mod</text>
</a>
</g>
</g>
<!-- midas_adjointtest&#45;&gt;ramdisk_mod -->
<g id="edge13" class="edge">
<title>midas_adjointtest&#45;&gt;ramdisk_mod</title>
<path fill="none" stroke="black" d="M561.09,-628.97C607.86,-607.5 675.5,-565.78 675.5,-504 675.5,-504 675.5,-504 675.5,-430 675.5,-388.78 661.07,-342.83 650.48,-314.66"/>
<polygon fill="black" stroke="black" points="653.66,-313.19 646.79,-305.13 647.14,-315.72 653.66,-313.19"/>
</g>
<!-- randomnumber_mod -->
<g id="node15" class="node">
<title>randomnumber_mod</title>
<g id="a_node15"><a xlink:href="../modules/randomnumber_mod.html" xlink:title="randomnumber_mod">
<polygon fill="gray" stroke="black" points="723,-233 592,-233 592,-197 723,-197 723,-233"/>
<text text-anchor="middle" x="657.5" y="-211.3" font-family="Times,serif" font-size="14.00">randomnumber_mod</text>
</a>
</g>
</g>
<!-- midas_adjointtest&#45;&gt;randomnumber_mod -->
<g id="edge14" class="edge">
<title>midas_adjointtest&#45;&gt;randomnumber_mod</title>
<path fill="none" stroke="black" d="M574.19,-631.21C632.08,-612.28 713.5,-573.33 713.5,-504 713.5,-504 713.5,-504 713.5,-358 713.5,-317.46 709.62,-306.2 693.5,-269 689.36,-259.46 683.45,-249.81 677.6,-241.41"/>
<polygon fill="black" stroke="black" points="680.32,-239.2 671.61,-233.17 674.66,-243.32 680.32,-239.2"/>
</g>
<!-- timecoord_mod -->
<g id="node16" class="node">
<title>timecoord_mod</title>
<g id="a_node16"><a xlink:href="../modules/timecoord_mod.svg" xlink:title="timecoord_mod">
<polygon fill="none" stroke="red" points="761.5,-161 659.5,-161 659.5,-125 761.5,-125 761.5,-161"/>
<text text-anchor="middle" x="710.5" y="-139.3" font-family="Times,serif" font-size="14.00">timecoord_mod</text>
</a>
</g>
</g>
<!-- midas_adjointtest&#45;&gt;timecoord_mod -->
<g id="edge15" class="edge">
<title>midas_adjointtest&#45;&gt;timecoord_mod</title>
<path fill="none" stroke="black" d="M574.14,-637.08C643.4,-622.57 751.5,-586.68 751.5,-504 751.5,-504 751.5,-504 751.5,-286 751.5,-244.41 735.06,-198.56 723,-170.51"/>
<polygon fill="black" stroke="black" points="726.05,-168.75 718.8,-161.03 719.65,-171.59 726.05,-168.75"/>
</g>
<!-- utilities_mod -->
<g id="node17" class="node">
<title>utilities_mod</title>
<g id="a_node17"><a xlink:href="../modules/utilities_mod.svg" xlink:title="utilities_mod">
<polygon fill="none" stroke="red" points="833.5,-89 745.5,-89 745.5,-53 833.5,-53 833.5,-89"/>
<text text-anchor="middle" x="789.5" y="-67.3" font-family="Times,serif" font-size="14.00">utilities_mod</text>
</a>
</g>
</g>
<!-- midas_adjointtest&#45;&gt;utilities_mod -->
<g id="edge16" class="edge">
<title>midas_adjointtest&#45;&gt;utilities_mod</title>
<path fill="none" stroke="black" d="M574.19,-641.36C653.9,-631.39 789.5,-600.29 789.5,-504 789.5,-504 789.5,-504 789.5,-214 789.5,-174 789.5,-127.65 789.5,-99.08"/>
<polygon fill="black" stroke="black" points="793,-99.05 789.5,-89.05 786,-99.05 793,-99.05"/>
</g>
<!-- version_mod -->
<g id="node18" class="node">
<title>version_mod</title>
<g id="a_node18"><a xlink:href="../modules/version_mod.html" xlink:title="version_mod">
<polygon fill="gray" stroke="black" points="903.5,-593 817.5,-593 817.5,-557 903.5,-557 903.5,-593"/>
<text text-anchor="middle" x="860.5" y="-571.3" font-family="Times,serif" font-size="14.00">version_mod</text>
</a>
</g>
</g>
<!-- midas_adjointtest&#45;&gt;version_mod -->
<g id="edge17" class="edge">
<title>midas_adjointtest&#45;&gt;version_mod</title>
<path fill="none" stroke="black" d="M574.04,-637.35C632.01,-628.05 724.58,-612.02 803.5,-593 804.77,-592.69 806.05,-592.38 807.35,-592.05"/>
<polygon fill="black" stroke="black" points="808.6,-595.34 817.37,-589.39 806.81,-588.57 808.6,-595.34"/>
</g>
<!-- verticalcoord_mod -->
<g id="node19" class="node">
<title>verticalcoord_mod</title>
<g id="a_node19"><a xlink:href="../modules/verticalcoord_mod.svg" xlink:title="verticalcoord_mod">
<polygon fill="none" stroke="red" points="990.5,-521 872.5,-521 872.5,-485 990.5,-485 990.5,-521"/>
<text text-anchor="middle" x="931.5" y="-499.3" font-family="Times,serif" font-size="14.00">verticalcoord_mod</text>
</a>
</g>
</g>
<!-- midas_adjointtest&#45;&gt;verticalcoord_mod -->
<g id="edge18" class="edge">
<title>midas_adjointtest&#45;&gt;verticalcoord_mod</title>
<path fill="none" stroke="black" d="M574.26,-646.14C671.58,-645.16 864.46,-637.48 912.5,-593 929.21,-577.53 933.12,-551.28 933.36,-531.28"/>
<polygon fill="black" stroke="black" points="936.86,-531.14 933.18,-521.21 929.86,-531.27 936.86,-531.14"/>
</g>
</g>
</svg>
