<?xml version="1.0" encoding="UTF-8" standalone="no"?>
<!DOCTYPE svg PUBLIC "-//W3C//DTD SVG 1.1//EN"
 "http://www.w3.org/Graphics/SVG/1.1/DTD/svg11.dtd">
<!-- Generated by graphviz version 3.0.0 (20220315.2325)
 -->
<!-- Title: midas_sstbias Pages: 1 -->
<svg width="872pt" height="673pt"
 viewBox="0.00 0.00 871.50 673.00" xmlns="http://www.w3.org/2000/svg" xmlns:xlink="http://www.w3.org/1999/xlink">
<g id="graph0" class="graph" transform="scale(1 1) rotate(0) translate(4 669)">
<title>midas_sstbias</title>
<polygon fill="white" stroke="transparent" points="-4,4 -4,-669 867.5,-669 867.5,4 -4,4"/>
<text text-anchor="middle" x="431.75" y="-37.8" font-family="Times,serif" font-size="14.00">Red boxes indicate modules with dependencies not shown</text>
<text text-anchor="middle" x="431.75" y="-22.8" font-family="Times,serif" font-size="14.00">Lower level dependencies can be shown by clicking on a red box</text>
<text text-anchor="middle" x="431.75" y="-7.8" font-family="Times,serif" font-size="14.00">Shaded boxes indicate modules with no dependencies</text>
<!-- midas_sstbias -->
<g id="node1" class="node">
<title>midas_sstbias</title>
<g id="a_node1"><a xlink:href="midas_sstbias.html" xlink:title="midas_sstbias">
<polygon fill="none" stroke="black" points="436.5,-665 344.5,-665 344.5,-629 436.5,-629 436.5,-665"/>
<text text-anchor="middle" x="390.5" y="-643.3" font-family="Times,serif" font-size="14.00">midas_sstbias</text>
</a>
</g>
</g>
<!-- analysisgrid_mod -->
<g id="node2" class="node">
<title>analysisgrid_mod</title>
<g id="a_node2"><a xlink:href="../modules/analysisgrid_mod.svg" xlink:title="analysisgrid_mod">
<polygon fill="none" stroke="red" points="111,-593 0,-593 0,-557 111,-557 111,-593"/>
<text text-anchor="middle" x="55.5" y="-571.3" font-family="Times,serif" font-size="14.00">analysisgrid_mod</text>
</a>
</g>
</g>
<!-- midas_sstbias&#45;&gt;analysisgrid_mod -->
<g id="edge1" class="edge">
<title>midas_sstbias&#45;&gt;analysisgrid_mod</title>
<path fill="none" stroke="black" d="M344.42,-637.38C291.46,-627.33 202,-609.93 125.5,-593 124.05,-592.68 122.58,-592.35 121.11,-592.02"/>
<polygon fill="black" stroke="black" points="121.77,-588.58 111.24,-589.75 120.2,-595.4 121.77,-588.58"/>
</g>
<!-- columndata_mod -->
<g id="node3" class="node">
<title>columndata_mod</title>
<g id="a_node3"><a xlink:href="../modules/columndata_mod.svg" xlink:title="columndata_mod">
<polygon fill="none" stroke="red" points="172,-521 61,-521 61,-485 172,-485 172,-521"/>
<text text-anchor="middle" x="116.5" y="-499.3" font-family="Times,serif" font-size="14.00">columndata_mod</text>
</a>
</g>
</g>
<!-- midas_sstbias&#45;&gt;columndata_mod -->
<g id="edge2" class="edge">
<title>midas_sstbias&#45;&gt;columndata_mod</title>
<path fill="none" stroke="black" d="M344.14,-642.46C300.41,-637.26 234.58,-624.45 186.5,-593 162.25,-577.14 142.71,-550.03 130.51,-529.89"/>
<polygon fill="black" stroke="black" points="133.49,-528.06 125.42,-521.19 127.45,-531.59 133.49,-528.06"/>
</g>
<!-- gridstatevector_mod -->
<g id="node4" class="node">
<title>gridstatevector_mod</title>
<g id="a_node4"><a xlink:href="../modules/gridstatevector_mod.svg" xlink:title="gridstatevector_mod">
<polygon fill="none" stroke="red" points="210,-449 83,-449 83,-413 210,-413 210,-449"/>
<text text-anchor="middle" x="146.5" y="-427.3" font-family="Times,serif" font-size="14.00">gridstatevector_mod</text>
</a>
</g>
</g>
<!-- midas_sstbias&#45;&gt;gridstatevector_mod -->
<g id="edge3" class="edge">
<title>midas_sstbias&#45;&gt;gridstatevector_mod</title>
<path fill="none" stroke="black" d="M344.34,-641.89C307.71,-636.37 257.37,-623.4 224.5,-593 186.45,-557.8 204.37,-531.01 180.5,-485 175.72,-475.78 169.8,-466.11 164.25,-457.58"/>
<polygon fill="black" stroke="black" points="167.12,-455.57 158.67,-449.18 161.29,-459.45 167.12,-455.57"/>
</g>
<!-- horizontalcoord_mod -->
<g id="node5" class="node">
<title>horizontalcoord_mod</title>
<g id="a_node5"><a xlink:href="../modules/horizontalcoord_mod.svg" xlink:title="horizontalcoord_mod">
<polygon fill="none" stroke="red" points="248,-377 115,-377 115,-341 248,-341 248,-377"/>
<text text-anchor="middle" x="181.5" y="-355.3" font-family="Times,serif" font-size="14.00">horizontalcoord_mod</text>
</a>
</g>
</g>
<!-- midas_sstbias&#45;&gt;horizontalcoord_mod -->
<g id="edge4" class="edge">
<title>midas_sstbias&#45;&gt;horizontalcoord_mod</title>
<path fill="none" stroke="black" d="M344.36,-637.79C316.81,-630.54 283.25,-617.19 262.5,-593 208.88,-530.49 252.43,-488.04 218.5,-413 214.18,-403.44 208.07,-393.79 202.07,-385.39"/>
<polygon fill="black" stroke="black" points="204.71,-383.08 195.93,-377.15 199.1,-387.26 204.71,-383.08"/>
</g>
<!-- innovation_mod -->
<g id="node6" class="node">
<title>innovation_mod</title>
<g id="a_node6"><a xlink:href="../modules/innovation_mod.svg" xlink:title="innovation_mod">
<polygon fill="none" stroke="red" points="286.5,-305 182.5,-305 182.5,-269 286.5,-269 286.5,-305"/>
<text text-anchor="middle" x="234.5" y="-283.3" font-family="Times,serif" font-size="14.00">innovation_mod</text>
</a>
</g>
</g>
<!-- midas_sstbias&#45;&gt;innovation_mod -->
<g id="edge5" class="edge">
<title>midas_sstbias&#45;&gt;innovation_mod</title>
<path fill="none" stroke="black" d="M346.94,-628.96C330.24,-620.45 312.37,-608.58 300.5,-593 275.67,-560.41 276.5,-544.97 276.5,-504 276.5,-504 276.5,-504 276.5,-430 276.5,-388.15 259.51,-342.1 247.15,-314.11"/>
<polygon fill="black" stroke="black" points="250.33,-312.66 243,-305.01 243.96,-315.56 250.33,-312.66"/>
</g>
<!-- mathphysconstants_mod -->
<g id="node7" class="node">
<title>mathphysconstants_mod</title>
<g id="a_node7"><a xlink:href="../modules/mathphysconstants_mod.html" xlink:title="mathphysconstants_mod">
<polygon fill="gray" stroke="black" points="324.5,-233 174.5,-233 174.5,-197 324.5,-197 324.5,-233"/>
<text text-anchor="middle" x="249.5" y="-211.3" font-family="Times,serif" font-size="14.00">mathphysconstants_mod</text>
</a>
</g>
</g>
<!-- midas_sstbias&#45;&gt;mathphysconstants_mod -->
<g id="edge6" class="edge">
<title>midas_sstbias&#45;&gt;mathphysconstants_mod</title>
<path fill="none" stroke="black" d="M369.09,-628.86C358.49,-619.33 346.31,-606.65 338.5,-593 318.16,-557.44 314.5,-544.97 314.5,-504 314.5,-504 314.5,-504 314.5,-358 314.5,-317.55 313.55,-305.2 295.5,-269 290.47,-258.92 283.08,-249.21 275.68,-240.91"/>
<polygon fill="black" stroke="black" points="278.06,-238.33 268.66,-233.43 272.95,-243.12 278.06,-238.33"/>
</g>
<!-- midasmpi_mod -->
<g id="node8" class="node">
<title>midasmpi_mod</title>
<g id="a_node8"><a xlink:href="../modules/midasmpi_mod.svg" xlink:title="midasmpi_mod">
<polygon fill="none" stroke="red" points="362,-161 261,-161 261,-125 362,-125 362,-161"/>
<text text-anchor="middle" x="311.5" y="-139.3" font-family="Times,serif" font-size="14.00">midasmpi_mod</text>
</a>
</g>
</g>
<!-- midas_sstbias&#45;&gt;midasmpi_mod -->
<g id="edge7" class="edge">
<title>midas_sstbias&#45;&gt;midasmpi_mod</title>
<path fill="none" stroke="black" d="M382.81,-628.91C371.71,-602.62 352.5,-550.45 352.5,-504 352.5,-504 352.5,-504 352.5,-286 352.5,-244.41 336.06,-198.56 324,-170.51"/>
<polygon fill="black" stroke="black" points="327.05,-168.75 319.8,-161.03 320.65,-171.59 327.05,-168.75"/>
</g>
<!-- obsfiles_mod -->
<g id="node9" class="node">
<title>obsfiles_mod</title>
<g id="a_node9"><a xlink:href="../modules/obsfiles_mod.svg" xlink:title="obsfiles_mod">
<polygon fill="none" stroke="red" points="435,-89 346,-89 346,-53 435,-53 435,-89"/>
<text text-anchor="middle" x="390.5" y="-67.3" font-family="Times,serif" font-size="14.00">obsfiles_mod</text>
</a>
</g>
</g>
<!-- midas_sstbias&#45;&gt;obsfiles_mod -->
<g id="edge8" class="edge">
<title>midas_sstbias&#45;&gt;obsfiles_mod</title>
<path fill="none" stroke="black" d="M390.5,-628.95C390.5,-602.29 390.5,-549.11 390.5,-504 390.5,-504 390.5,-504 390.5,-214 390.5,-174 390.5,-127.65 390.5,-99.08"/>
<polygon fill="black" stroke="black" points="394,-99.05 390.5,-89.05 387,-99.05 394,-99.05"/>
</g>
<!-- obsspacedata_mod -->
<g id="node10" class="node">
<title>obsspacedata_mod</title>
<g id="a_node10"><a xlink:href="../modules/obsspacedata_mod.svg" xlink:title="obsspacedata_mod">
<polygon fill="none" stroke="red" points="536.5,-593 418.5,-593 418.5,-557 536.5,-557 536.5,-593"/>
<text text-anchor="middle" x="477.5" y="-571.3" font-family="Times,serif" font-size="14.00">obsspacedata_mod</text>
</a>
</g>
</g>
<!-- midas_sstbias&#45;&gt;obsspacedata_mod -->
<g id="edge9" class="edge">
<title>midas_sstbias&#45;&gt;obsspacedata_mod</title>
<path fill="none" stroke="black" d="M412.01,-628.7C422.96,-619.88 436.45,-609.03 448.32,-599.47"/>
<polygon fill="black" stroke="black" points="450.64,-602.1 456.24,-593.1 446.26,-596.65 450.64,-602.1"/>
</g>
<!-- ramdisk_mod -->
<g id="node11" class="node">
<title>ramdisk_mod</title>
<g id="a_node11"><a xlink:href="../modules/ramdisk_mod.svg" xlink:title="ramdisk_mod">
<polygon fill="none" stroke="red" points="574,-521 483,-521 483,-485 574,-485 574,-521"/>
<text text-anchor="middle" x="528.5" y="-499.3" font-family="Times,serif" font-size="14.00">ramdisk_mod</text>
</a>
</g>
</g>
<!-- midas_sstbias&#45;&gt;ramdisk_mod -->
<g id="edge10" class="edge">
<title>midas_sstbias&#45;&gt;ramdisk_mod</title>
<path fill="none" stroke="black" d="M436.55,-643.99C472.72,-639.69 520.94,-627.36 545.5,-593 558.57,-574.72 551.76,-549.12 543.18,-530.07"/>
<polygon fill="black" stroke="black" points="546.31,-528.49 538.78,-521.04 540.02,-531.56 546.31,-528.49"/>
</g>
<!-- sstbias_mod -->
<g id="node12" class="node">
<title>sstbias_mod</title>
<g id="a_node12"><a xlink:href="../modules/sstbias_mod.svg" xlink:title="sstbias_mod">
<polygon fill="none" stroke="red" points="612,-449 529,-449 529,-413 612,-413 612,-449"/>
<text text-anchor="middle" x="570.5" y="-427.3" font-family="Times,serif" font-size="14.00">sstbias_mod</text>
</a>
</g>
</g>
<!-- midas_sstbias&#45;&gt;sstbias_mod -->
<g id="edge11" class="edge">
<title>midas_sstbias&#45;&gt;sstbias_mod</title>
<path fill="none" stroke="black" d="M436.57,-643.91C475.62,-639.65 530.41,-627.42 563.5,-593 597.65,-557.48 588.13,-494.64 578.86,-458.87"/>
<polygon fill="black" stroke="black" points="582.2,-457.83 576.16,-449.13 575.45,-459.7 582.2,-457.83"/>
</g>
<!-- timecoord_mod -->
<g id="node13" class="node">
<title>timecoord_mod</title>
<g id="a_node13"><a xlink:href="../modules/timecoord_mod.svg" xlink:title="timecoord_mod">
<polygon fill="none" stroke="red" points="650.5,-377 548.5,-377 548.5,-341 650.5,-341 650.5,-377"/>
<text text-anchor="middle" x="599.5" y="-355.3" font-family="Times,serif" font-size="14.00">timecoord_mod</text>
</a>
</g>
</g>
<!-- midas_sstbias&#45;&gt;timecoord_mod -->
<g id="edge12" class="edge">
<title>midas_sstbias&#45;&gt;timecoord_mod</title>
<path fill="none" stroke="black" d="M436.67,-646.43C481.48,-644.25 548.31,-633.69 587.5,-593 643.92,-534.42 635.75,-492.89 620.5,-413 618.79,-404.06 615.6,-394.7 612.21,-386.37"/>
<polygon fill="black" stroke="black" points="615.41,-384.95 608.22,-377.17 608.99,-387.73 615.41,-384.95"/>
</g>
<!-- utilities_mod -->
<g id="node14" class="node">
<title>utilities_mod</title>
<g id="a_node14"><a xlink:href="../modules/utilities_mod.svg" xlink:title="utilities_mod">
<polygon fill="none" stroke="red" points="705.5,-305 617.5,-305 617.5,-269 705.5,-269 705.5,-305"/>
<text text-anchor="middle" x="661.5" y="-283.3" font-family="Times,serif" font-size="14.00">utilities_mod</text>
</a>
</g>
</g>
<!-- midas_sstbias&#45;&gt;utilities_mod -->
<g id="edge13" class="edge">
<title>midas_sstbias&#45;&gt;utilities_mod</title>
<path fill="none" stroke="black" d="M436.77,-643.78C518.18,-637.12 678.5,-610.48 678.5,-504 678.5,-504 678.5,-504 678.5,-430 678.5,-389.93 671.74,-343.95 666.75,-315.43"/>
<polygon fill="black" stroke="black" points="670.16,-314.63 664.94,-305.41 663.27,-315.87 670.16,-314.63"/>
</g>
<!-- version_mod -->
<g id="node15" class="node">
<title>version_mod</title>
<g id="a_node15"><a xlink:href="../modules/version_mod.html" xlink:title="version_mod">
<polygon fill="gray" stroke="black" points="776.5,-233 690.5,-233 690.5,-197 776.5,-197 776.5,-233"/>
<text text-anchor="middle" x="733.5" y="-211.3" font-family="Times,serif" font-size="14.00">version_mod</text>
</a>
</g>
</g>
<!-- midas_sstbias&#45;&gt;version_mod -->
<g id="edge14" class="edge">
<title>midas_sstbias&#45;&gt;version_mod</title>
<path fill="none" stroke="black" d="M436.91,-645.96C493.1,-643.95 588.85,-634.08 658.5,-593 703.05,-566.72 733.5,-555.73 733.5,-504 733.5,-504 733.5,-504 733.5,-358 733.5,-318 733.5,-271.65 733.5,-243.08"/>
<polygon fill="black" stroke="black" points="737,-243.05 733.5,-233.05 730,-243.05 737,-243.05"/>
</g>
<!-- verticalcoord_mod -->
<g id="node16" class="node">
<title>verticalcoord_mod</title>
<g id="a_node16"><a xlink:href="../modules/verticalcoord_mod.svg" xlink:title="verticalcoord_mod">
<polygon fill="none" stroke="red" points="863.5,-161 745.5,-161 745.5,-125 863.5,-125 863.5,-161"/>
<text text-anchor="middle" x="804.5" y="-139.3" font-family="Times,serif" font-size="14.00">verticalcoord_mod</text>
</a>
</g>
</g>
<!-- midas_sstbias&#45;&gt;verticalcoord_mod -->
<g id="edge15" class="edge">
<title>midas_sstbias&#45;&gt;verticalcoord_mod</title>
<path fill="none" stroke="black" d="M436.64,-645.67C499.28,-643.58 613.37,-633.87 700.5,-593 755.58,-567.17 804.5,-564.84 804.5,-504 804.5,-504 804.5,-504 804.5,-286 804.5,-246 804.5,-199.65 804.5,-171.08"/>
<polygon fill="black" stroke="black" points="808,-171.05 804.5,-161.05 801,-171.05 808,-171.05"/>
</g>
</g>
</svg>
